<svg width="1366" height="672" viewbox = "0 0 1366 672"  xmlns="http://www.w3.org/2000/svg">

<!--
<json>
{
    "glyph": "0221,0333,0333,0220,0220,0220,0220,0220,0220,0334,0220,0220,0220,0220,0220,0220,0334,0220,0220,0220,0220,0220,0220,0220,0220,0220,0220,0220,0220,0220,0220,0220,0220,0334,0220,0220,0220,0220,0220,0220,0334,0220,0220,0220,0220,0220,0220,0220,0220,0220,0220,0332,0332,",
    "unit": 38.55432894295315,
    "x0": 683,
    "y0": 250,
    "x0rel": 0,
    "y0rel": -2.2306185156860017,
    "imgurl": "",
    "imgw": 2,
    "imgleft": -1.5,
    "imgtop": -1
}
</json>
-->
    <circle cx="683" cy = "250" r = "2.4096455589345718" stroke = "#000000" stroke-width = "2" fill = "#000000" />
    <line x1="683" y1="250" x2="690" y2="243" style="stroke:#000000;stroke-width:2" />
    <line x1="683" y1="250" x2="690" y2="257" style="stroke:#000000;stroke-width:2" />
    <line x1="683" y1="250" x2="676" y2="257" style="stroke:#000000;stroke-width:2" />
    <line x1="683" y1="250" x2="676" y2="243" style="stroke:#000000;stroke-width:2" />
    <line x1="760" y1="250" x2="765" y2="250" style="stroke:#000000;stroke-width:2" />
    <line x1="760" y1="250" x2="755" y2="250" style="stroke:#000000;stroke-width:2" />
    <line x1="760" y1="250" x2="760" y2="211" style="stroke:#000000;stroke-width:2" />
    <line x1="760" y1="211" x2="765" y2="211" style="stroke:#000000;stroke-width:2" />
    <line x1="760" y1="211" x2="755" y2="211" style="stroke:#000000;stroke-width:2" />
    <line x1="760" y1="211" x2="760" y2="173" style="stroke:#000000;stroke-width:2" />
    <line x1="760" y1="173" x2="765" y2="173" style="stroke:#000000;stroke-width:2" />
    <line x1="760" y1="173" x2="755" y2="173" style="stroke:#000000;stroke-width:2" />
    <line x1="760" y1="173" x2="760" y2="134" style="stroke:#000000;stroke-width:2" />
    <line x1="760" y1="134" x2="765" y2="134" style="stroke:#000000;stroke-width:2" />
    <line x1="760" y1="134" x2="755" y2="134" style="stroke:#000000;stroke-width:2" />
    <line x1="760" y1="134" x2="760" y2="96" style="stroke:#000000;stroke-width:2" />
    <line x1="760" y1="96" x2="765" y2="96" style="stroke:#000000;stroke-width:2" />
    <line x1="760" y1="96" x2="755" y2="96" style="stroke:#000000;stroke-width:2" />
    <line x1="760" y1="96" x2="760" y2="57" style="stroke:#000000;stroke-width:2" />
    <line x1="760" y1="57" x2="765" y2="57" style="stroke:#000000;stroke-width:2" />
    <line x1="760" y1="57" x2="755" y2="57" style="stroke:#000000;stroke-width:2" />
    <line x1="760" y1="57" x2="760" y2="19" style="stroke:#000000;stroke-width:2" />
    <line x1="760" y1="19" x2="760" y2="14" style="stroke:#000000;stroke-width:2" />
    <line x1="760" y1="19" x2="760" y2="23" style="stroke:#000000;stroke-width:2" />
    <line x1="760" y1="19" x2="722" y2="19" style="stroke:#000000;stroke-width:2" />
    <line x1="722" y1="19" x2="722" y2="14" style="stroke:#000000;stroke-width:2" />
    <line x1="722" y1="19" x2="722" y2="23" style="stroke:#000000;stroke-width:2" />
    <line x1="722" y1="19" x2="683" y2="19" style="stroke:#000000;stroke-width:2" />
    <line x1="683" y1="19" x2="683" y2="14" style="stroke:#000000;stroke-width:2" />
    <line x1="683" y1="19" x2="683" y2="23" style="stroke:#000000;stroke-width:2" />
    <line x1="683" y1="19" x2="644" y2="19" style="stroke:#000000;stroke-width:2" />
    <line x1="644" y1="19" x2="644" y2="14" style="stroke:#000000;stroke-width:2" />
    <line x1="644" y1="19" x2="644" y2="23" style="stroke:#000000;stroke-width:2" />
    <line x1="644" y1="19" x2="606" y2="19" style="stroke:#000000;stroke-width:2" />
    <line x1="606" y1="19" x2="606" y2="14" style="stroke:#000000;stroke-width:2" />
    <line x1="606" y1="19" x2="606" y2="23" style="stroke:#000000;stroke-width:2" />
    <line x1="606" y1="19" x2="567" y2="19" style="stroke:#000000;stroke-width:2" />
    <line x1="567" y1="19" x2="567" y2="14" style="stroke:#000000;stroke-width:2" />
    <line x1="567" y1="19" x2="567" y2="23" style="stroke:#000000;stroke-width:2" />
    <line x1="567" y1="19" x2="529" y2="19" style="stroke:#000000;stroke-width:2" />
    <line x1="529" y1="19" x2="524" y2="19" style="stroke:#000000;stroke-width:2" />
    <line x1="529" y1="19" x2="534" y2="19" style="stroke:#000000;stroke-width:2" />
    <line x1="529" y1="19" x2="529" y2="57" style="stroke:#000000;stroke-width:2" />
    <line x1="529" y1="57" x2="524" y2="57" style="stroke:#000000;stroke-width:2" />
    <line x1="529" y1="57" x2="534" y2="57" style="stroke:#000000;stroke-width:2" />
    <line x1="529" y1="57" x2="529" y2="96" style="stroke:#000000;stroke-width:2" />
    <line x1="529" y1="96" x2="524" y2="96" style="stroke:#000000;stroke-width:2" />
    <line x1="529" y1="96" x2="534" y2="96" style="stroke:#000000;stroke-width:2" />
    <line x1="529" y1="96" x2="529" y2="134" style="stroke:#000000;stroke-width:2" />
    <line x1="529" y1="134" x2="524" y2="134" style="stroke:#000000;stroke-width:2" />
    <line x1="529" y1="134" x2="534" y2="134" style="stroke:#000000;stroke-width:2" />
    <line x1="529" y1="134" x2="529" y2="173" style="stroke:#000000;stroke-width:2" />
    <line x1="529" y1="173" x2="524" y2="173" style="stroke:#000000;stroke-width:2" />
    <line x1="529" y1="173" x2="534" y2="173" style="stroke:#000000;stroke-width:2" />
    <line x1="529" y1="173" x2="529" y2="211" style="stroke:#000000;stroke-width:2" />
    <line x1="529" y1="211" x2="524" y2="211" style="stroke:#000000;stroke-width:2" />
    <line x1="529" y1="211" x2="534" y2="211" style="stroke:#000000;stroke-width:2" />
    <line x1="529" y1="211" x2="529" y2="250" style="stroke:#000000;stroke-width:2" />
    <line x1="529" y1="250" x2="524" y2="250" style="stroke:#000000;stroke-width:2" />
    <line x1="529" y1="250" x2="534" y2="250" style="stroke:#000000;stroke-width:2" />
    <line x1="529" y1="250" x2="529" y2="289" style="stroke:#000000;stroke-width:2" />
    <line x1="529" y1="289" x2="524" y2="289" style="stroke:#000000;stroke-width:2" />
    <line x1="529" y1="289" x2="534" y2="289" style="stroke:#000000;stroke-width:2" />
    <line x1="529" y1="289" x2="529" y2="327" style="stroke:#000000;stroke-width:2" />
    <line x1="529" y1="327" x2="524" y2="327" style="stroke:#000000;stroke-width:2" />
    <line x1="529" y1="327" x2="534" y2="327" style="stroke:#000000;stroke-width:2" />
    <line x1="529" y1="327" x2="529" y2="366" style="stroke:#000000;stroke-width:2" />
    <line x1="529" y1="366" x2="524" y2="366" style="stroke:#000000;stroke-width:2" />
    <line x1="529" y1="366" x2="534" y2="366" style="stroke:#000000;stroke-width:2" />
    <line x1="529" y1="366" x2="529" y2="404" style="stroke:#000000;stroke-width:2" />
    <line x1="529" y1="404" x2="524" y2="404" style="stroke:#000000;stroke-width:2" />
    <line x1="529" y1="404" x2="534" y2="404" style="stroke:#000000;stroke-width:2" />
    <line x1="529" y1="404" x2="529" y2="443" style="stroke:#000000;stroke-width:2" />
    <line x1="529" y1="443" x2="524" y2="443" style="stroke:#000000;stroke-width:2" />
    <line x1="529" y1="443" x2="534" y2="443" style="stroke:#000000;stroke-width:2" />
    <line x1="529" y1="443" x2="529" y2="481" style="stroke:#000000;stroke-width:2" />
    <line x1="529" y1="481" x2="524" y2="481" style="stroke:#000000;stroke-width:2" />
    <line x1="529" y1="481" x2="534" y2="481" style="stroke:#000000;stroke-width:2" />
    <line x1="529" y1="481" x2="529" y2="520" style="stroke:#000000;stroke-width:2" />
    <line x1="529" y1="520" x2="524" y2="520" style="stroke:#000000;stroke-width:2" />
    <line x1="529" y1="520" x2="534" y2="520" style="stroke:#000000;stroke-width:2" />
    <line x1="529" y1="520" x2="529" y2="558" style="stroke:#000000;stroke-width:2" />
    <line x1="529" y1="558" x2="524" y2="558" style="stroke:#000000;stroke-width:2" />
    <line x1="529" y1="558" x2="534" y2="558" style="stroke:#000000;stroke-width:2" />
    <line x1="529" y1="558" x2="529" y2="597" style="stroke:#000000;stroke-width:2" />
    <line x1="529" y1="597" x2="524" y2="597" style="stroke:#000000;stroke-width:2" />
    <line x1="529" y1="597" x2="534" y2="597" style="stroke:#000000;stroke-width:2" />
    <line x1="529" y1="597" x2="529" y2="636" style="stroke:#000000;stroke-width:2" />
    <line x1="529" y1="636" x2="529" y2="640" style="stroke:#000000;stroke-width:2" />
    <line x1="529" y1="636" x2="529" y2="631" style="stroke:#000000;stroke-width:2" />
    <line x1="529" y1="636" x2="567" y2="636" style="stroke:#000000;stroke-width:2" />
    <line x1="567" y1="636" x2="567" y2="640" style="stroke:#000000;stroke-width:2" />
    <line x1="567" y1="636" x2="567" y2="631" style="stroke:#000000;stroke-width:2" />
    <line x1="567" y1="636" x2="606" y2="636" style="stroke:#000000;stroke-width:2" />
    <line x1="606" y1="636" x2="606" y2="640" style="stroke:#000000;stroke-width:2" />
    <line x1="606" y1="636" x2="606" y2="631" style="stroke:#000000;stroke-width:2" />
    <line x1="606" y1="636" x2="644" y2="636" style="stroke:#000000;stroke-width:2" />
    <line x1="644" y1="636" x2="644" y2="640" style="stroke:#000000;stroke-width:2" />
    <line x1="644" y1="636" x2="644" y2="631" style="stroke:#000000;stroke-width:2" />
    <line x1="644" y1="636" x2="683" y2="636" style="stroke:#000000;stroke-width:2" />
    <line x1="683" y1="636" x2="683" y2="640" style="stroke:#000000;stroke-width:2" />
    <line x1="683" y1="636" x2="683" y2="631" style="stroke:#000000;stroke-width:2" />
    <line x1="683" y1="636" x2="722" y2="636" style="stroke:#000000;stroke-width:2" />
    <line x1="722" y1="636" x2="722" y2="640" style="stroke:#000000;stroke-width:2" />
    <line x1="722" y1="636" x2="722" y2="631" style="stroke:#000000;stroke-width:2" />
    <line x1="722" y1="636" x2="760" y2="636" style="stroke:#000000;stroke-width:2" />
    <line x1="760" y1="636" x2="765" y2="636" style="stroke:#000000;stroke-width:2" />
    <line x1="760" y1="636" x2="755" y2="636" style="stroke:#000000;stroke-width:2" />
    <line x1="760" y1="636" x2="760" y2="597" style="stroke:#000000;stroke-width:2" />
    <line x1="760" y1="597" x2="765" y2="597" style="stroke:#000000;stroke-width:2" />
    <line x1="760" y1="597" x2="755" y2="597" style="stroke:#000000;stroke-width:2" />
    <line x1="760" y1="597" x2="760" y2="558" style="stroke:#000000;stroke-width:2" />
    <line x1="760" y1="558" x2="765" y2="558" style="stroke:#000000;stroke-width:2" />
    <line x1="760" y1="558" x2="755" y2="558" style="stroke:#000000;stroke-width:2" />
    <line x1="760" y1="558" x2="760" y2="520" style="stroke:#000000;stroke-width:2" />
    <line x1="760" y1="520" x2="765" y2="520" style="stroke:#000000;stroke-width:2" />
    <line x1="760" y1="520" x2="755" y2="520" style="stroke:#000000;stroke-width:2" />
    <line x1="760" y1="520" x2="760" y2="481" style="stroke:#000000;stroke-width:2" />
    <line x1="760" y1="481" x2="765" y2="481" style="stroke:#000000;stroke-width:2" />
    <line x1="760" y1="481" x2="755" y2="481" style="stroke:#000000;stroke-width:2" />
    <line x1="760" y1="481" x2="760" y2="443" style="stroke:#000000;stroke-width:2" />
    <line x1="760" y1="443" x2="765" y2="443" style="stroke:#000000;stroke-width:2" />
    <line x1="760" y1="443" x2="755" y2="443" style="stroke:#000000;stroke-width:2" />
    <line x1="760" y1="443" x2="760" y2="404" style="stroke:#000000;stroke-width:2" />
    <line x1="760" y1="404" x2="765" y2="404" style="stroke:#000000;stroke-width:2" />
    <line x1="760" y1="404" x2="755" y2="404" style="stroke:#000000;stroke-width:2" />
    <line x1="760" y1="404" x2="760" y2="366" style="stroke:#000000;stroke-width:2" />
    <line x1="760" y1="366" x2="765" y2="366" style="stroke:#000000;stroke-width:2" />
    <line x1="760" y1="366" x2="755" y2="366" style="stroke:#000000;stroke-width:2" />
    <line x1="760" y1="366" x2="760" y2="327" style="stroke:#000000;stroke-width:2" />
    <line x1="760" y1="327" x2="765" y2="327" style="stroke:#000000;stroke-width:2" />
    <line x1="760" y1="327" x2="755" y2="327" style="stroke:#000000;stroke-width:2" />
    <line x1="760" y1="327" x2="760" y2="289" style="stroke:#000000;stroke-width:2" />
    <line x1="760" y1="289" x2="765" y2="289" style="stroke:#000000;stroke-width:2" />
    <line x1="760" y1="289" x2="755" y2="289" style="stroke:#000000;stroke-width:2" />
    <line x1="760" y1="289" x2="760" y2="250" style="stroke:#000000;stroke-width:2" />
</svg>