<svg width="1366" height="672" viewbox = "0 0 1366 672"  xmlns="http://www.w3.org/2000/svg">

<!--
<json>
{
    "glyph": "0335,0333,0333,0333,0330,0330,0330,0330,0211,0211,0211,0211,0211,0227,",
    "unit": 35.04938994813922,
    "x0": 683,
    "y0": 250,
    "x0rel": 0,
    "y0rel": -2.453680367254602,
    "imgurl": "",
    "imgw": 2,
    "imgleft": -1.5,
    "imgtop": -1
}
</json>
-->
    <circle cx="823" cy = "355" r = "4.294609620979815" stroke = "#000000" stroke-width = "2" fill = "#000000" />
    <line x1="823" y1="355" x2="835" y2="367" style="stroke:#000000;stroke-width:2" />
    <line x1="823" y1="355" x2="811" y2="367" style="stroke:#000000;stroke-width:2" />
    <line x1="823" y1="355" x2="811" y2="343" style="stroke:#000000;stroke-width:2" />
    <line x1="823" y1="355" x2="835" y2="343" style="stroke:#000000;stroke-width:2" />
    <line x1="823" y1="493" x2="823" y2="501" style="stroke:#000000;stroke-width:2" />
    <line x1="823" y1="493" x2="823" y2="484" style="stroke:#000000;stroke-width:2" />
    <line x1="823" y1="493" x2="892" y2="493" style="stroke:#000000;stroke-width:2" />
    <line x1="892" y1="493" x2="892" y2="501" style="stroke:#000000;stroke-width:2" />
    <line x1="892" y1="493" x2="892" y2="484" style="stroke:#000000;stroke-width:2" />
    <line x1="892" y1="493" x2="961" y2="493" style="stroke:#000000;stroke-width:2" />
    <line x1="961" y1="493" x2="961" y2="501" style="stroke:#000000;stroke-width:2" />
    <line x1="961" y1="493" x2="961" y2="484" style="stroke:#000000;stroke-width:2" />
    <line x1="961" y1="493" x2="1029" y2="493" style="stroke:#000000;stroke-width:2" />
    <line x1="1029" y1="493" x2="1029" y2="501" style="stroke:#000000;stroke-width:2" />
    <line x1="1029" y1="493" x2="1029" y2="484" style="stroke:#000000;stroke-width:2" />
    <line x1="1029" y1="493" x2="1098" y2="493" style="stroke:#000000;stroke-width:2" />
    <line x1="1098" y1="493" x2="1098" y2="501" style="stroke:#000000;stroke-width:2" />
    <line x1="1098" y1="493" x2="1098" y2="484" style="stroke:#000000;stroke-width:2" />
    <line x1="1098" y1="493" x2="1167" y2="493" style="stroke:#000000;stroke-width:2" />
    <line x1="1167" y1="493" x2="1167" y2="501" style="stroke:#000000;stroke-width:2" />
    <line x1="1167" y1="493" x2="1167" y2="484" style="stroke:#000000;stroke-width:2" />
    <line x1="1167" y1="493" x2="1235" y2="493" style="stroke:#000000;stroke-width:2" />
    <line x1="1235" y1="493" x2="1244" y2="493" style="stroke:#000000;stroke-width:2" />
    <line x1="1235" y1="493" x2="1227" y2="493" style="stroke:#000000;stroke-width:2" />
    <line x1="1235" y1="493" x2="1235" y2="424" style="stroke:#000000;stroke-width:2" />
    <line x1="1235" y1="424" x2="1244" y2="424" style="stroke:#000000;stroke-width:2" />
    <line x1="1235" y1="424" x2="1227" y2="424" style="stroke:#000000;stroke-width:2" />
    <line x1="1235" y1="424" x2="1235" y2="355" style="stroke:#000000;stroke-width:2" />
    <line x1="1235" y1="355" x2="1244" y2="355" style="stroke:#000000;stroke-width:2" />
    <line x1="1235" y1="355" x2="1227" y2="355" style="stroke:#000000;stroke-width:2" />
    <line x1="1235" y1="355" x2="1235" y2="286" style="stroke:#000000;stroke-width:2" />
    <line x1="1235" y1="286" x2="1244" y2="286" style="stroke:#000000;stroke-width:2" />
    <line x1="1235" y1="286" x2="1227" y2="286" style="stroke:#000000;stroke-width:2" />
    <line x1="1235" y1="286" x2="1235" y2="218" style="stroke:#000000;stroke-width:2" />
    <line x1="1235" y1="218" x2="1244" y2="218" style="stroke:#000000;stroke-width:2" />
    <line x1="1235" y1="218" x2="1227" y2="218" style="stroke:#000000;stroke-width:2" />
    <line x1="1235" y1="218" x2="1235" y2="149" style="stroke:#000000;stroke-width:2" />
    <line x1="1235" y1="149" x2="1244" y2="149" style="stroke:#000000;stroke-width:2" />
    <line x1="1235" y1="149" x2="1227" y2="149" style="stroke:#000000;stroke-width:2" />
    <line x1="1235" y1="149" x2="1235" y2="80" style="stroke:#000000;stroke-width:2" />
    <line x1="1235" y1="80" x2="1235" y2="72" style="stroke:#000000;stroke-width:2" />
    <line x1="1235" y1="80" x2="1235" y2="89" style="stroke:#000000;stroke-width:2" />
    <line x1="1235" y1="80" x2="1167" y2="80" style="stroke:#000000;stroke-width:2" />
    <line x1="1167" y1="80" x2="1167" y2="72" style="stroke:#000000;stroke-width:2" />
    <line x1="1167" y1="80" x2="1167" y2="89" style="stroke:#000000;stroke-width:2" />
    <line x1="1167" y1="80" x2="1098" y2="80" style="stroke:#000000;stroke-width:2" />
    <line x1="1098" y1="80" x2="1098" y2="72" style="stroke:#000000;stroke-width:2" />
    <line x1="1098" y1="80" x2="1098" y2="89" style="stroke:#000000;stroke-width:2" />
    <line x1="1098" y1="80" x2="1029" y2="80" style="stroke:#000000;stroke-width:2" />
    <line x1="1029" y1="80" x2="1029" y2="72" style="stroke:#000000;stroke-width:2" />
    <line x1="1029" y1="80" x2="1029" y2="89" style="stroke:#000000;stroke-width:2" />
    <line x1="1029" y1="80" x2="961" y2="80" style="stroke:#000000;stroke-width:2" />
    <line x1="961" y1="80" x2="961" y2="72" style="stroke:#000000;stroke-width:2" />
    <line x1="961" y1="80" x2="961" y2="89" style="stroke:#000000;stroke-width:2" />
    <line x1="961" y1="80" x2="892" y2="80" style="stroke:#000000;stroke-width:2" />
    <line x1="892" y1="80" x2="892" y2="72" style="stroke:#000000;stroke-width:2" />
    <line x1="892" y1="80" x2="892" y2="89" style="stroke:#000000;stroke-width:2" />
    <line x1="892" y1="80" x2="823" y2="80" style="stroke:#000000;stroke-width:2" />
    <line x1="823" y1="80" x2="823" y2="72" style="stroke:#000000;stroke-width:2" />
    <line x1="823" y1="80" x2="823" y2="89" style="stroke:#000000;stroke-width:2" />
    <line x1="823" y1="80" x2="754" y2="80" style="stroke:#000000;stroke-width:2" />
    <line x1="754" y1="80" x2="754" y2="72" style="stroke:#000000;stroke-width:2" />
    <line x1="754" y1="80" x2="754" y2="89" style="stroke:#000000;stroke-width:2" />
    <line x1="754" y1="80" x2="686" y2="80" style="stroke:#000000;stroke-width:2" />
    <line x1="686" y1="80" x2="686" y2="72" style="stroke:#000000;stroke-width:2" />
    <line x1="686" y1="80" x2="686" y2="89" style="stroke:#000000;stroke-width:2" />
    <line x1="686" y1="80" x2="617" y2="80" style="stroke:#000000;stroke-width:2" />
    <line x1="617" y1="80" x2="617" y2="72" style="stroke:#000000;stroke-width:2" />
    <line x1="617" y1="80" x2="617" y2="89" style="stroke:#000000;stroke-width:2" />
    <line x1="617" y1="80" x2="548" y2="80" style="stroke:#000000;stroke-width:2" />
    <line x1="548" y1="80" x2="548" y2="72" style="stroke:#000000;stroke-width:2" />
    <line x1="548" y1="80" x2="548" y2="89" style="stroke:#000000;stroke-width:2" />
    <line x1="548" y1="80" x2="480" y2="80" style="stroke:#000000;stroke-width:2" />
    <line x1="480" y1="80" x2="480" y2="72" style="stroke:#000000;stroke-width:2" />
    <line x1="480" y1="80" x2="480" y2="89" style="stroke:#000000;stroke-width:2" />
    <line x1="480" y1="80" x2="411" y2="80" style="stroke:#000000;stroke-width:2" />
    <line x1="411" y1="80" x2="411" y2="72" style="stroke:#000000;stroke-width:2" />
    <line x1="411" y1="80" x2="411" y2="89" style="stroke:#000000;stroke-width:2" />
    <line x1="411" y1="80" x2="342" y2="80" style="stroke:#000000;stroke-width:2" />
    <line x1="342" y1="80" x2="342" y2="72" style="stroke:#000000;stroke-width:2" />
    <line x1="342" y1="80" x2="342" y2="89" style="stroke:#000000;stroke-width:2" />
    <line x1="342" y1="80" x2="273" y2="80" style="stroke:#000000;stroke-width:2" />
    <line x1="273" y1="80" x2="273" y2="72" style="stroke:#000000;stroke-width:2" />
    <line x1="273" y1="80" x2="273" y2="89" style="stroke:#000000;stroke-width:2" />
    <line x1="273" y1="80" x2="205" y2="80" style="stroke:#000000;stroke-width:2" />
    <line x1="205" y1="80" x2="205" y2="72" style="stroke:#000000;stroke-width:2" />
    <line x1="205" y1="80" x2="205" y2="89" style="stroke:#000000;stroke-width:2" />
    <line x1="205" y1="80" x2="136" y2="80" style="stroke:#000000;stroke-width:2" />
    <line x1="136" y1="80" x2="127" y2="80" style="stroke:#000000;stroke-width:2" />
    <line x1="136" y1="80" x2="145" y2="80" style="stroke:#000000;stroke-width:2" />
    <line x1="136" y1="80" x2="136" y2="149" style="stroke:#000000;stroke-width:2" />
    <line x1="136" y1="149" x2="127" y2="149" style="stroke:#000000;stroke-width:2" />
    <line x1="136" y1="149" x2="145" y2="149" style="stroke:#000000;stroke-width:2" />
    <line x1="136" y1="149" x2="136" y2="218" style="stroke:#000000;stroke-width:2" />
    <line x1="136" y1="218" x2="127" y2="218" style="stroke:#000000;stroke-width:2" />
    <line x1="136" y1="218" x2="145" y2="218" style="stroke:#000000;stroke-width:2" />
    <line x1="136" y1="218" x2="136" y2="286" style="stroke:#000000;stroke-width:2" />
    <line x1="136" y1="286" x2="127" y2="286" style="stroke:#000000;stroke-width:2" />
    <line x1="136" y1="286" x2="145" y2="286" style="stroke:#000000;stroke-width:2" />
    <line x1="136" y1="286" x2="136" y2="355" style="stroke:#000000;stroke-width:2" />
    <line x1="136" y1="355" x2="127" y2="355" style="stroke:#000000;stroke-width:2" />
    <line x1="136" y1="355" x2="145" y2="355" style="stroke:#000000;stroke-width:2" />
    <line x1="136" y1="355" x2="136" y2="424" style="stroke:#000000;stroke-width:2" />
    <line x1="136" y1="424" x2="127" y2="424" style="stroke:#000000;stroke-width:2" />
    <line x1="136" y1="424" x2="145" y2="424" style="stroke:#000000;stroke-width:2" />
    <line x1="136" y1="424" x2="136" y2="493" style="stroke:#000000;stroke-width:2" />
    <line x1="136" y1="493" x2="136" y2="501" style="stroke:#000000;stroke-width:2" />
    <line x1="136" y1="493" x2="136" y2="484" style="stroke:#000000;stroke-width:2" />
    <line x1="136" y1="493" x2="205" y2="493" style="stroke:#000000;stroke-width:2" />
    <line x1="205" y1="493" x2="205" y2="501" style="stroke:#000000;stroke-width:2" />
    <line x1="205" y1="493" x2="205" y2="484" style="stroke:#000000;stroke-width:2" />
    <line x1="205" y1="493" x2="273" y2="493" style="stroke:#000000;stroke-width:2" />
    <line x1="273" y1="493" x2="273" y2="501" style="stroke:#000000;stroke-width:2" />
    <line x1="273" y1="493" x2="273" y2="484" style="stroke:#000000;stroke-width:2" />
    <line x1="273" y1="493" x2="342" y2="493" style="stroke:#000000;stroke-width:2" />
    <line x1="342" y1="493" x2="342" y2="501" style="stroke:#000000;stroke-width:2" />
    <line x1="342" y1="493" x2="342" y2="484" style="stroke:#000000;stroke-width:2" />
    <line x1="342" y1="493" x2="411" y2="493" style="stroke:#000000;stroke-width:2" />
    <line x1="411" y1="493" x2="411" y2="501" style="stroke:#000000;stroke-width:2" />
    <line x1="411" y1="493" x2="411" y2="484" style="stroke:#000000;stroke-width:2" />
    <line x1="411" y1="493" x2="480" y2="493" style="stroke:#000000;stroke-width:2" />
    <line x1="480" y1="493" x2="480" y2="501" style="stroke:#000000;stroke-width:2" />
    <line x1="480" y1="493" x2="480" y2="484" style="stroke:#000000;stroke-width:2" />
    <line x1="480" y1="493" x2="548" y2="493" style="stroke:#000000;stroke-width:2" />
    <line x1="548" y1="493" x2="548" y2="501" style="stroke:#000000;stroke-width:2" />
    <line x1="548" y1="493" x2="548" y2="484" style="stroke:#000000;stroke-width:2" />
    <line x1="548" y1="493" x2="617" y2="493" style="stroke:#000000;stroke-width:2" />
    <line x1="617" y1="493" x2="617" y2="501" style="stroke:#000000;stroke-width:2" />
    <line x1="617" y1="493" x2="617" y2="484" style="stroke:#000000;stroke-width:2" />
    <line x1="617" y1="493" x2="686" y2="493" style="stroke:#000000;stroke-width:2" />
    <line x1="686" y1="493" x2="686" y2="501" style="stroke:#000000;stroke-width:2" />
    <line x1="686" y1="493" x2="686" y2="484" style="stroke:#000000;stroke-width:2" />
    <line x1="686" y1="493" x2="754" y2="493" style="stroke:#000000;stroke-width:2" />
    <line x1="754" y1="493" x2="754" y2="501" style="stroke:#000000;stroke-width:2" />
    <line x1="754" y1="493" x2="754" y2="484" style="stroke:#000000;stroke-width:2" />
    <line x1="754" y1="493" x2="823" y2="493" style="stroke:#000000;stroke-width:2" />
</svg>