<svg width="500" height="400" viewbox = "0 0 500 400"  xmlns="http://www.w3.org/2000/svg">
	<path d = "M0 88 L0 88.00000000012 L1 89.20000000011999 L2 90.40000000011997 L3 91.60000000012002 L4 92.80000000012001 L5 94.00000000012 L6 95.20000000011999 L7 96.40000000011997 L8 97.60000000012002 L9 98.80000000012001 L10 100.00000000012 L11 101.20000000011999 L12 102.40000000011997 L13 103.60000000012002 L14 104.80000000012001 L15 106.00000000012 L16 107.20000000011999 L17 108.40000000011997 L18 109.60000000012002 L19 110.80000000012001 L20 112.00000000012 L21 113.20000000011999 L22 114.40000000011997 L23 115.60000000012002 L24 116.80000000011995 L25 118.00000000011994 L26 119.20000000011999 L27 120.40000000011992 L28 121.6000000001199 L29 122.80000000011995 L30 124.00000000011988 L31 125.20000000011987 L32 126.4000000001198 L33 127.60000000011979 L34 128.80000000011972 L35 130.00000000011966 L36 131.20000000011953 L37 132.4000000001194 L38 133.60000000011922 L39 134.80000000011904 L40 136.0000000001188 L41 137.20000000011845 L42 138.40000000011804 L43 139.60000000011752 L44 140.80000000011688 L45 142.00000000011596 L46 143.20000000011487 L47 144.4000000001135 L48 145.60000000011166 L49 146.80000000010943 L50 148.00000000010652 L51 149.20000000010285 L52 150.40000000009817 L53 151.60000000009217 L54 152.8000000000846 L55 154.00000000007492 L56 155.20000000006263 L57 156.400000000047 L58 157.60000000002705 L59 158.80000000000172 L60 159.99999999996953 L61 161.19999999992854 L62 162.3999999998764 L63 163.5999999998101 L64 164.79999999972583 L65 165.99999999961864 L66 167.19999999948237 L67 168.39999999930916 L68 169.59999999908896 L69 170.79999999880908 L70 171.99999999845343 L71 173.1999999980015 L72 174.39999999742724 L73 175.59999999669773 L74 176.79999999577103 L75 177.999999994594 L76 179.19999999309917 L77 180.39999999120096 L78 181.59999998879087 L79 182.79999998573123 L80 183.9999999818475 L81 185.19999997691832 L82 186.3999999706632 L83 187.5999999627265 L84 188.79999995265774 L85 189.9999999398859 L86 191.19999992368778 L87 192.39999990314746 L88 193.59999987710495 L89 194.79999984409184 L90 195.99999980224922 L91 197.19999974922482 L92 198.3999996820421 L93 199.59999959693604 L94 200.79999948914497 L95 201.99999935264802 L96 203.19999917983446 L97 204.39999896108586 L98 205.59999868424973 L99 206.79999833397594 L100 207.99999789088062 L101 209.1999973304933 L102 210.39999662193068 L103 211.59999572622843 L104 212.79999459424175 L105 213.9999931640058 L106 215.1999913574176 L107 216.39998907606775 L108 217.5999861960057 L109 218.79998256116986 L110 219.99997797514615 L111 221.19997219083515 L112 222.39996489750496 L113 223.5999557045784 L114 224.7999441213436 L115 225.9999295315801 L116 227.1999111618494 L117 228.39988804189747 L118 229.5998589552462 L119 230.79982237759543 L120 231.99977640009638 L121 233.19971863387096 L122 234.39964609131394 L123 235.5995550386893 L124 236.79944081328873 L125 237.9992975969103 L126 239.1991181355896 L127 240.3988933933192 L128 241.5986121248556 L129 242.79826034956844 L130 243.99782070455146 L131 245.1972716508091 L132 246.39658650117042 L133 247.5957322325862 L134 248.794668038567 L135 249.9933435696782 L136 251.19169680122585 L137 252.38965145760534 L138 253.5871139124074 L139 254.78396947258008 L140 255.9800779442165 L141 257.1752683676158 L142 258.36933280121104 L143 259.5620190292608 L144 260.753022068835 L145 261.94197436019533 L146 263.12843454440133 L147 264.3118747668343 L148 265.49166649988774 L149 266.66706495737526 L150 267.83719228236544 L151 269.00101983373384 L152 270.1573500777415 L153 271.30479880953806 L154 272.44177868112865 L155 273.56648528582826 L156 274.67688732457924 L157 275.77072262625603 L158 276.8455019706323 L159 277.8985227175772 L160 278.9268941220953 L161 279.92757585681454 L162 280.89743062969853 L163 281.83329086109455 L164 282.7320381992081 L165 283.5906932891257 L166 284.4065118071066 L167 285.1770815162263 L168 285.9004142019816 L169 286.5750260030396 L170 287.20000000006 L171 287.77502600302967 L172 288.30041420196176 L173 288.77708151619686 L174 289.20651180706784 L175 289.59069328907816 L176 289.9320381991522 L177 290.233290861031 L178 290.49743062962784 L179 290.7275758567373 L180 290.92689412201224 L181 291.09852271748895 L182 291.24550197053946 L183 291.3707226261591 L184 291.4768873244787 L185 291.56648528572464 L186 291.6417786810224 L187 291.7047988094295 L188 291.75735007763103 L189 291.8010198336217 L190 291.83719228225186 L191 291.8670649572605 L192 291.89166649977204 L193 291.91187476671774 L194 291.9284345442841 L195 291.94197436007744 L196 291.9530220687165 L197 291.96201902914186 L198 291.9693328010917 L199 291.97526836749586 L200 291.98007794409614 L201 291.98396947245925 L202 291.987113912286 L203 291.9896514574833 L204 291.99169680110305 L205 291.9933435695545 L206 291.9946680384421 L207 291.9957322324599 L208 291.99658650104226 L209 291.99727165067867 L210 291.99782070441813 L211 291.99826034943135 L212 291.9986121247138 L213 291.99889339317144 L214 291.9991181354343 L215 291.99929759674524 L216 291.9994408131114 L217 291.9995550384963 L218 291.99964609110106 L219 291.9997186336327 L220 291.9997763998259 L221 291.99982237728403 L222 291.9998589548826 L223 291.99988804146756 L224 291.99991116133526 L225 291.99992953095875 L226 291.999944120586 L227 291.9999557036476 L228 291.99996489635396 L229 291.9999721894043 L230 291.99997797335965 L231 291.9999825589314 L232 291.99998619319297 L233 291.9999890725255 L234 291.99999135294865 L235 291.9999931583598 L236 291.99999458710096 L237 291.9999957171894 L238 291.99999661048156 L239 291.99999731598456 L240 291.99999787248817 L241 291.9999983106543 L242 291.99999865467294 L243 291.99999892357243 L244 291.99999913225224 L245 291.9999992922939 L246 291.99999941259273 L247 291.9999994998435 L248 291.9999995589071 L249 291.99999959307667 L250 291.9999996042585 L251 291.99999959307667 L252 291.9999995589071 L253 291.9999994998435 L254 291.99999941259273 L255 291.9999992922939 L256 291.99999913225224 L257 291.99999892357243 L258 291.99999865467294 L259 291.9999983106543 L260 291.99999787248817 L261 291.99999731598456 L262 291.99999661048156 L263 291.9999957171894 L264 291.99999458710096 L265 291.9999931583598 L266 291.99999135294865 L267 291.9999890725255 L268 291.99998619319297 L269 291.9999825589314 L270 291.99997797335965 L271 291.9999721894043 L272 291.99996489635396 L273 291.9999557036476 L274 291.999944120586 L275 291.99992953095875 L276 291.99991116133526 L277 291.99988804146756 L278 291.9998589548826 L279 291.99982237728403 L280 291.9997763998259 L281 291.9997186336327 L282 291.999646091101 L283 291.9995550384963 L284 291.99944081311133 L285 291.99929759674524 L286 291.99911813543423 L287 291.9988933931714 L288 291.99861212471376 L289 291.99826034943123 L290 291.997820704418 L291 291.99727165067856 L292 291.9965865010421 L293 291.99573223245966 L294 291.9946680384419 L295 291.9933435695542 L296 291.9916968011027 L297 291.98965145748286 L298 291.9871139122855 L299 291.98396947245857 L300 291.98007794409534 L301 291.97526836749483 L302 291.96933280109033 L303 291.96201902914027 L304 291.9530220687146 L305 291.941974360075 L306 291.9284345442811 L307 291.9118747667141 L308 291.8916664997676 L309 291.86706495725514 L310 291.8371922822453 L311 291.8010198336138 L312 291.7573500776215 L313 291.70479880941804 L314 291.64177868100865 L315 291.56648528570827 L316 291.4768873244592 L317 291.37072262613606 L318 291.24550197051235 L319 291.0985227174572 L320 290.9268941219753 L321 290.7275758566945 L322 290.49743062957856 L323 290.23329086097453 L324 289.9320381990881 L325 289.5906932890057 L326 289.2065118069866 L327 288.7770815161063 L328 288.3004142018616 L329 287.7750260029196 L330 287.19999999994 L331 286.5750260029097 L332 285.9004142018418 L333 285.17708151607684 L334 284.4065118069479 L335 283.59069328895816 L336 282.7320381990322 L337 281.833290860911 L338 280.8974306295079 L339 279.92757585661735 L340 278.9268941218923 L341 277.89852271736896 L342 276.8455019704195 L343 275.7707226260391 L344 274.67688732435874 L345 273.5664852856047 L346 272.4417786809024 L347 271.30479880930955 L348 270.15735007751107 L349 269.0010198335018 L350 267.837192282132 L351 266.66706495714067 L352 265.4916664996522 L353 264.31187476659795 L354 263.1284345441644 L355 261.94197435995784 L356 260.75302206859703 L357 259.5620190290224 L358 258.3693328009724 L359 257.1752683673768 L360 255.9800779439774 L361 254.7839694723408 L362 253.58711391216798 L363 252.3896514573658 L364 251.19169680098622 L365 249.9933435694385 L366 248.79466803832725 L367 247.5957322323464 L368 246.39658650093057 L369 245.19727165056926 L370 243.9978207043116 L371 242.7982603493285 L372 241.59861212461567 L373 240.39889339307928 L374 239.19911813534966 L375 237.99929759667035 L376 236.79944081304876 L377 235.59955503844932 L378 234.39964609107398 L379 233.199718633631 L380 231.99977639985644 L381 230.7998223773555 L382 229.59985895500623 L383 228.39988804165748 L384 227.19991116160944 L385 225.99992953134014 L386 224.79994412110364 L387 223.59995570433844 L388 222.399964897265 L389 221.1999721905952 L390 219.9999779749062 L391 218.7999825609299 L392 217.5999861957657 L393 216.3999890758278 L394 215.19999135717762 L395 213.99999316376582 L396 212.7999945940018 L397 211.59999572598846 L398 210.39999662169072 L399 209.1999973302533 L400 207.99999789064066 L401 206.79999833373597 L402 205.59999868400976 L403 204.3999989608459 L404 203.1999991795945 L405 201.99999935240805 L406 200.799999488905 L407 199.59999959669608 L408 198.39999968180214 L409 197.19999974898485 L410 195.99999980200926 L411 194.79999984385185 L412 193.59999987686498 L413 192.39999990290747 L414 191.19999992344782 L415 189.99999993964593 L416 188.79999995241778 L417 187.59999996248655 L418 186.39999997042324 L419 185.19999997667836 L420 183.99999998160754 L421 182.79999998549127 L422 181.5999999885509 L423 180.399999990961 L424 179.19999999285918 L425 177.99999999435403 L426 176.79999999553107 L427 175.59999999645774 L428 174.39999999718728 L429 173.19999999776152 L430 171.99999999821347 L431 170.79999999856912 L432 169.599999998849 L433 168.3999999990692 L434 167.1999999992424 L435 165.99999999937867 L436 164.79999999948586 L437 163.59999999957014 L438 162.39999999963644 L439 161.19999999968854 L440 159.99999999972954 L441 158.79999999976175 L442 157.5999999997871 L443 156.399999999807 L444 155.19999999982267 L445 153.99999999983493 L446 152.79999999984463 L447 151.5999999998522 L448 150.3999999998582 L449 149.19999999986288 L450 147.99999999986656 L451 146.79999999986944 L452 145.5999999998717 L453 144.3999999998735 L454 143.19999999987493 L455 141.99999999987602 L456 140.7999999998769 L457 139.59999999987753 L458 138.3999999998781 L459 137.19999999987851 L460 135.9999999998788 L461 134.79999999987905 L462 133.5999999998793 L463 132.39999999987947 L464 131.19999999987954 L465 129.99999999987966 L466 128.79999999987973 L467 127.5999999998798 L468 126.39999999987987 L469 125.19999999987988 L470 123.99999999987995 L471 122.79999999987996 L472 121.59999999987997 L473 120.39999999987998 L474 119.19999999987999 L475 117.99999999988 L476 116.79999999988001 L477 115.59999999988003 L478 114.39999999988004 L479 113.19999999988005 L480 111.99999999988 L481 110.79999999988001 L482 109.59999999988003 L483 108.39999999988004 L484 107.19999999988005 L485 105.99999999988 L486 104.79999999988001 L487 103.59999999988003 L488 102.39999999988004 L489 101.19999999988005 L490 99.99999999988 L491 98.79999999988001 L492 97.59999999988003 L493 96.39999999988004 L494 95.19999999988005 L495 93.99999999988 L496 92.79999999988001 L497 91.59999999988003 L498 90.39999999988004 L499 89.19999999988005 L500 87.99999999988 " stroke = "blue" stroke-width = "2" fill = "none" />    <line x1="-5" y1="87.06201833112732" x2="5" y2="87.06201833112732" style="stroke:black;stroke-width:2" />
    <line x1="0" y1="82.06201833112732" x2="0" y2="92.06201833112732" style="stroke:black;stroke-width:2" />
    <line x1="0.050505050505050164" y1="93.58543312562216" x2="10.05050505050505" y2="93.58543312562216" style="stroke:black;stroke-width:2" />
    <line x1="5.05050505050505" y1="88.58543312562216" x2="5.05050505050505" y2="98.58543312562216" style="stroke:black;stroke-width:2" />
    <line x1="5.1010101010101" y1="92.28781537548508" x2="15.1010101010101" y2="92.28781537548508" style="stroke:black;stroke-width:2" />
    <line x1="10.1010101010101" y1="87.28781537548508" x2="10.1010101010101" y2="97.28781537548508" style="stroke:black;stroke-width:2" />
    <line x1="10.15151515151515" y1="105.09322605801333" x2="20.15151515151515" y2="105.09322605801333" style="stroke:black;stroke-width:2" />
    <line x1="15.15151515151515" y1="100.09322605801333" x2="15.15151515151515" y2="110.09322605801333" style="stroke:black;stroke-width:2" />
    <line x1="15.2020202020202" y1="106.19289270541873" x2="25.2020202020202" y2="106.19289270541873" style="stroke:black;stroke-width:2" />
    <line x1="20.2020202020202" y1="101.19289270541873" x2="20.2020202020202" y2="111.19289270541873" style="stroke:black;stroke-width:2" />
    <line x1="20.252525252525253" y1="112.83440680886275" x2="30.252525252525253" y2="112.83440680886275" style="stroke:black;stroke-width:2" />
    <line x1="25.252525252525253" y1="107.83440680886275" x2="25.252525252525253" y2="117.83440680886275" style="stroke:black;stroke-width:2" />
    <line x1="25.3030303030303" y1="124.71493522627901" x2="35.3030303030303" y2="124.71493522627901" style="stroke:black;stroke-width:2" />
    <line x1="30.3030303030303" y1="119.71493522627901" x2="30.3030303030303" y2="129.714935226279" style="stroke:black;stroke-width:2" />
    <line x1="30.35353535353535" y1="130.43180624758605" x2="40.35353535353535" y2="130.43180624758605" style="stroke:black;stroke-width:2" />
    <line x1="35.35353535353535" y1="125.43180624758605" x2="35.35353535353535" y2="135.43180624758605" style="stroke:black;stroke-width:2" />
    <line x1="35.4040404040404" y1="133.75493147956138" x2="45.4040404040404" y2="133.75493147956138" style="stroke:black;stroke-width:2" />
    <line x1="40.4040404040404" y1="128.75493147956138" x2="40.4040404040404" y2="138.75493147956138" style="stroke:black;stroke-width:2" />
    <line x1="40.45454545454545" y1="138.5139740274165" x2="50.45454545454545" y2="138.5139740274165" style="stroke:black;stroke-width:2" />
    <line x1="45.45454545454545" y1="133.5139740274165" x2="45.45454545454545" y2="143.5139740274165" style="stroke:black;stroke-width:2" />
    <line x1="45.505050505050505" y1="145.86163478165489" x2="55.505050505050505" y2="145.86163478165489" style="stroke:black;stroke-width:2" />
    <line x1="50.505050505050505" y1="140.86163478165489" x2="50.505050505050505" y2="150.86163478165489" style="stroke:black;stroke-width:2" />
    <line x1="50.55555555555555" y1="153.02020882791336" x2="60.55555555555555" y2="153.02020882791336" style="stroke:black;stroke-width:2" />
    <line x1="55.55555555555555" y1="148.02020882791336" x2="55.55555555555555" y2="158.02020882791336" style="stroke:black;stroke-width:2" />
    <line x1="55.6060606060606" y1="163.13942153622307" x2="65.6060606060606" y2="163.13942153622307" style="stroke:black;stroke-width:2" />
    <line x1="60.6060606060606" y1="158.13942153622307" x2="60.6060606060606" y2="168.13942153622307" style="stroke:black;stroke-width:2" />
    <line x1="60.65656565656565" y1="164.42401044021702" x2="70.65656565656565" y2="164.42401044021702" style="stroke:black;stroke-width:2" />
    <line x1="65.65656565656565" y1="159.42401044021702" x2="65.65656565656565" y2="169.42401044021702" style="stroke:black;stroke-width:2" />
    <line x1="65.7070707070707" y1="170.22986320809827" x2="75.7070707070707" y2="170.22986320809827" style="stroke:black;stroke-width:2" />
    <line x1="70.7070707070707" y1="165.22986320809827" x2="70.7070707070707" y2="175.22986320809827" style="stroke:black;stroke-width:2" />
    <line x1="70.75757575757575" y1="183.24064297378087" x2="80.75757575757575" y2="183.24064297378087" style="stroke:black;stroke-width:2" />
    <line x1="75.75757575757575" y1="178.24064297378087" x2="75.75757575757575" y2="188.24064297378087" style="stroke:black;stroke-width:2" />
    <line x1="75.8080808080808" y1="182.6301370988782" x2="85.8080808080808" y2="182.6301370988782" style="stroke:black;stroke-width:2" />
    <line x1="80.8080808080808" y1="177.6301370988782" x2="80.8080808080808" y2="187.6301370988782" style="stroke:black;stroke-width:2" />
    <line x1="80.85858585858585" y1="187.75251825438824" x2="90.85858585858585" y2="187.75251825438824" style="stroke:black;stroke-width:2" />
    <line x1="85.85858585858585" y1="182.75251825438824" x2="85.85858585858585" y2="192.75251825438824" style="stroke:black;stroke-width:2" />
    <line x1="85.9090909090909" y1="194.015116856849" x2="95.9090909090909" y2="194.015116856849" style="stroke:black;stroke-width:2" />
    <line x1="90.9090909090909" y1="189.015116856849" x2="90.9090909090909" y2="199.015116856849" style="stroke:black;stroke-width:2" />
    <line x1="90.95959595959596" y1="200.57678571836723" x2="100.95959595959596" y2="200.57678571836723" style="stroke:black;stroke-width:2" />
    <line x1="95.95959595959596" y1="195.57678571836723" x2="95.95959595959596" y2="205.57678571836723" style="stroke:black;stroke-width:2" />
    <line x1="96.01010101010101" y1="203.55274181365732" x2="106.01010101010101" y2="203.55274181365732" style="stroke:black;stroke-width:2" />
    <line x1="101.01010101010101" y1="198.55274181365732" x2="101.01010101010101" y2="208.55274181365732" style="stroke:black;stroke-width:2" />
    <line x1="101.06060606060605" y1="217.41116070072513" x2="111.06060606060605" y2="217.41116070072513" style="stroke:black;stroke-width:2" />
    <line x1="106.06060606060605" y1="212.41116070072513" x2="106.06060606060605" y2="222.41116070072513" style="stroke:black;stroke-width:2" />
    <line x1="106.1111111111111" y1="222.61699276213008" x2="116.1111111111111" y2="222.61699276213008" style="stroke:black;stroke-width:2" />
    <line x1="111.1111111111111" y1="217.61699276213008" x2="111.1111111111111" y2="227.61699276213008" style="stroke:black;stroke-width:2" />
    <line x1="111.16161616161615" y1="226.61676459976647" x2="121.16161616161615" y2="226.61676459976647" style="stroke:black;stroke-width:2" />
    <line x1="116.16161616161615" y1="221.61676459976647" x2="116.16161616161615" y2="231.61676459976647" style="stroke:black;stroke-width:2" />
    <line x1="116.2121212121212" y1="235.2419223388442" x2="126.2121212121212" y2="235.2419223388442" style="stroke:black;stroke-width:2" />
    <line x1="121.2121212121212" y1="230.2419223388442" x2="121.2121212121212" y2="240.2419223388442" style="stroke:black;stroke-width:2" />
    <line x1="121.26262626262626" y1="238.41645944977446" x2="131.26262626262627" y2="238.41645944977446" style="stroke:black;stroke-width:2" />
    <line x1="126.26262626262626" y1="233.41645944977446" x2="126.26262626262626" y2="243.41645944977446" style="stroke:black;stroke-width:2" />
    <line x1="126.3131313131313" y1="245.97908820149826" x2="136.3131313131313" y2="245.97908820149826" style="stroke:black;stroke-width:2" />
    <line x1="131.3131313131313" y1="240.97908820149826" x2="131.3131313131313" y2="250.97908820149826" style="stroke:black;stroke-width:2" />
    <line x1="131.36363636363635" y1="253.1578020025854" x2="141.36363636363635" y2="253.1578020025854" style="stroke:black;stroke-width:2" />
    <line x1="136.36363636363635" y1="248.1578020025854" x2="136.36363636363635" y2="258.1578020025854" style="stroke:black;stroke-width:2" />
    <line x1="136.4141414141414" y1="264.78162985681075" x2="146.4141414141414" y2="264.78162985681075" style="stroke:black;stroke-width:2" />
    <line x1="141.4141414141414" y1="259.78162985681075" x2="141.4141414141414" y2="269.78162985681075" style="stroke:black;stroke-width:2" />
    <line x1="141.46464646464645" y1="264.49956335148835" x2="151.46464646464645" y2="264.49956335148835" style="stroke:black;stroke-width:2" />
    <line x1="146.46464646464645" y1="259.49956335148835" x2="146.46464646464645" y2="269.49956335148835" style="stroke:black;stroke-width:2" />
    <line x1="146.5151515151515" y1="268.7796923639172" x2="156.5151515151515" y2="268.7796923639172" style="stroke:black;stroke-width:2" />
    <line x1="151.5151515151515" y1="263.7796923639172" x2="151.5151515151515" y2="273.7796923639172" style="stroke:black;stroke-width:2" />
    <line x1="151.56565656565655" y1="268.22876407778193" x2="161.56565656565655" y2="268.22876407778193" style="stroke:black;stroke-width:2" />
    <line x1="156.56565656565655" y1="263.22876407778193" x2="156.56565656565655" y2="273.22876407778193" style="stroke:black;stroke-width:2" />
    <line x1="156.6161616161616" y1="280.28172997511604" x2="166.6161616161616" y2="280.28172997511604" style="stroke:black;stroke-width:2" />
    <line x1="161.6161616161616" y1="275.28172997511604" x2="161.6161616161616" y2="285.28172997511604" style="stroke:black;stroke-width:2" />
    <line x1="161.66666666666666" y1="282.81568028876023" x2="171.66666666666666" y2="282.81568028876023" style="stroke:black;stroke-width:2" />
    <line x1="166.66666666666666" y1="277.81568028876023" x2="166.66666666666666" y2="287.81568028876023" style="stroke:black;stroke-width:2" />
    <line x1="166.7171717171717" y1="283.1442735692017" x2="176.7171717171717" y2="283.1442735692017" style="stroke:black;stroke-width:2" />
    <line x1="171.7171717171717" y1="278.1442735692017" x2="171.7171717171717" y2="288.1442735692017" style="stroke:black;stroke-width:2" />
    <line x1="171.76767676767676" y1="289.01495376017044" x2="181.76767676767676" y2="289.01495376017044" style="stroke:black;stroke-width:2" />
    <line x1="176.76767676767676" y1="284.01495376017044" x2="176.76767676767676" y2="294.01495376017044" style="stroke:black;stroke-width:2" />
    <line x1="176.8181818181818" y1="285.26220718531175" x2="186.8181818181818" y2="285.26220718531175" style="stroke:black;stroke-width:2" />
    <line x1="181.8181818181818" y1="280.26220718531175" x2="181.8181818181818" y2="290.26220718531175" style="stroke:black;stroke-width:2" />
    <line x1="181.86868686868686" y1="296.7582230213784" x2="191.86868686868686" y2="296.7582230213784" style="stroke:black;stroke-width:2" />
    <line x1="186.86868686868686" y1="291.7582230213784" x2="186.86868686868686" y2="301.7582230213784" style="stroke:black;stroke-width:2" />
    <line x1="186.91919191919192" y1="296.00675408909615" x2="196.91919191919192" y2="296.00675408909615" style="stroke:black;stroke-width:2" />
    <line x1="191.91919191919192" y1="291.00675408909615" x2="191.91919191919192" y2="301.00675408909615" style="stroke:black;stroke-width:2" />
    <line x1="191.96969696969697" y1="294.42397864981666" x2="201.96969696969697" y2="294.42397864981666" style="stroke:black;stroke-width:2" />
    <line x1="196.96969696969697" y1="289.42397864981666" x2="196.96969696969697" y2="299.42397864981666" style="stroke:black;stroke-width:2" />
    <line x1="197.02020202020202" y1="295.2126081030151" x2="207.02020202020202" y2="295.2126081030151" style="stroke:black;stroke-width:2" />
    <line x1="202.02020202020202" y1="290.2126081030151" x2="202.02020202020202" y2="300.2126081030151" style="stroke:black;stroke-width:2" />
    <line x1="202.07070707070704" y1="298.1836123986425" x2="212.07070707070704" y2="298.1836123986425" style="stroke:black;stroke-width:2" />
    <line x1="207.07070707070704" y1="293.1836123986425" x2="207.07070707070704" y2="303.1836123986425" style="stroke:black;stroke-width:2" />
    <line x1="207.1212121212121" y1="297.00684454687655" x2="217.1212121212121" y2="297.00684454687655" style="stroke:black;stroke-width:2" />
    <line x1="212.1212121212121" y1="292.00684454687655" x2="212.1212121212121" y2="302.00684454687655" style="stroke:black;stroke-width:2" />
    <line x1="212.17171717171715" y1="288.6348444835902" x2="222.17171717171715" y2="288.6348444835902" style="stroke:black;stroke-width:2" />
    <line x1="217.17171717171715" y1="283.6348444835902" x2="217.17171717171715" y2="293.6348444835902" style="stroke:black;stroke-width:2" />
    <line x1="217.2222222222222" y1="294.9860295033377" x2="227.2222222222222" y2="294.9860295033377" style="stroke:black;stroke-width:2" />
    <line x1="222.2222222222222" y1="289.9860295033377" x2="222.2222222222222" y2="299.9860295033377" style="stroke:black;stroke-width:2" />
    <line x1="222.27272727272725" y1="293.7624003060581" x2="232.27272727272725" y2="293.7624003060581" style="stroke:black;stroke-width:2" />
    <line x1="227.27272727272725" y1="288.7624003060581" x2="227.27272727272725" y2="298.7624003060581" style="stroke:black;stroke-width:2" />
    <line x1="227.3232323232323" y1="294.1439366979621" x2="237.3232323232323" y2="294.1439366979621" style="stroke:black;stroke-width:2" />
    <line x1="232.3232323232323" y1="289.1439366979621" x2="232.3232323232323" y2="299.1439366979621" style="stroke:black;stroke-width:2" />
    <line x1="232.37373737373736" y1="300.8469958037083" x2="242.37373737373736" y2="300.8469958037083" style="stroke:black;stroke-width:2" />
    <line x1="237.37373737373736" y1="295.8469958037083" x2="237.37373737373736" y2="305.8469958037083" style="stroke:black;stroke-width:2" />
    <line x1="237.4242424242424" y1="293.8404804620923" x2="247.4242424242424" y2="293.8404804620923" style="stroke:black;stroke-width:2" />
    <line x1="242.4242424242424" y1="288.8404804620923" x2="242.4242424242424" y2="298.8404804620923" style="stroke:black;stroke-width:2" />
    <line x1="242.47474747474746" y1="294.30697069984166" x2="252.47474747474746" y2="294.30697069984166" style="stroke:black;stroke-width:2" />
    <line x1="247.47474747474746" y1="289.30697069984166" x2="247.47474747474746" y2="299.30697069984166" style="stroke:black;stroke-width:2" />
    <line x1="247.5252525252525" y1="298.5594854189229" x2="257.52525252525254" y2="298.5594854189229" style="stroke:black;stroke-width:2" />
    <line x1="252.5252525252525" y1="293.5594854189229" x2="252.5252525252525" y2="303.5594854189229" style="stroke:black;stroke-width:2" />
    <line x1="252.57575757575756" y1="296.99708708816274" x2="262.57575757575756" y2="296.99708708816274" style="stroke:black;stroke-width:2" />
    <line x1="257.57575757575756" y1="291.99708708816274" x2="257.57575757575756" y2="301.99708708816274" style="stroke:black;stroke-width:2" />
    <line x1="257.6262626262626" y1="289.6015463720486" x2="267.6262626262626" y2="289.6015463720486" style="stroke:black;stroke-width:2" />
    <line x1="262.6262626262626" y1="284.6015463720486" x2="262.6262626262626" y2="294.6015463720486" style="stroke:black;stroke-width:2" />
    <line x1="262.67676767676767" y1="292.99803541949365" x2="272.67676767676767" y2="292.99803541949365" style="stroke:black;stroke-width:2" />
    <line x1="267.67676767676767" y1="287.99803541949365" x2="267.67676767676767" y2="297.99803541949365" style="stroke:black;stroke-width:2" />
    <line x1="267.7272727272727" y1="291.606927912604" x2="277.7272727272727" y2="291.606927912604" style="stroke:black;stroke-width:2" />
    <line x1="272.7272727272727" y1="286.606927912604" x2="272.7272727272727" y2="296.606927912604" style="stroke:black;stroke-width:2" />
    <line x1="272.77777777777777" y1="298.35901664986073" x2="282.77777777777777" y2="298.35901664986073" style="stroke:black;stroke-width:2" />
    <line x1="277.77777777777777" y1="293.35901664986073" x2="277.77777777777777" y2="303.35901664986073" style="stroke:black;stroke-width:2" />
    <line x1="277.8282828282828" y1="291.3586700020239" x2="287.8282828282828" y2="291.3586700020239" style="stroke:black;stroke-width:2" />
    <line x1="282.8282828282828" y1="286.3586700020239" x2="282.8282828282828" y2="296.3586700020239" style="stroke:black;stroke-width:2" />
    <line x1="282.8787878787879" y1="292.7226279599948" x2="292.8787878787879" y2="292.7226279599948" style="stroke:black;stroke-width:2" />
    <line x1="287.8787878787879" y1="287.7226279599948" x2="287.8787878787879" y2="297.7226279599948" style="stroke:black;stroke-width:2" />
    <line x1="287.9292929292929" y1="293.29764822716845" x2="297.9292929292929" y2="293.29764822716845" style="stroke:black;stroke-width:2" />
    <line x1="292.9292929292929" y1="288.29764822716845" x2="292.9292929292929" y2="298.29764822716845" style="stroke:black;stroke-width:2" />
    <line x1="292.979797979798" y1="294.6102726651669" x2="302.979797979798" y2="294.6102726651669" style="stroke:black;stroke-width:2" />
    <line x1="297.979797979798" y1="289.6102726651669" x2="297.979797979798" y2="299.6102726651669" style="stroke:black;stroke-width:2" />
    <line x1="298.030303030303" y1="297.1258896244798" x2="308.030303030303" y2="297.1258896244798" style="stroke:black;stroke-width:2" />
    <line x1="303.030303030303" y1="292.1258896244798" x2="303.030303030303" y2="302.1258896244798" style="stroke:black;stroke-width:2" />
    <line x1="303.0808080808081" y1="291.62739469850936" x2="313.0808080808081" y2="291.62739469850936" style="stroke:black;stroke-width:2" />
    <line x1="308.0808080808081" y1="286.62739469850936" x2="308.0808080808081" y2="296.62739469850936" style="stroke:black;stroke-width:2" />
    <line x1="308.1313131313131" y1="286.6092357176622" x2="318.1313131313131" y2="286.6092357176622" style="stroke:black;stroke-width:2" />
    <line x1="313.1313131313131" y1="281.6092357176622" x2="313.1313131313131" y2="291.6092357176622" style="stroke:black;stroke-width:2" />
    <line x1="313.1818181818182" y1="288.0959993606311" x2="323.1818181818182" y2="288.0959993606311" style="stroke:black;stroke-width:2" />
    <line x1="318.1818181818182" y1="283.0959993606311" x2="318.1818181818182" y2="293.0959993606311" style="stroke:black;stroke-width:2" />
    <line x1="318.2323232323232" y1="288.90433579716756" x2="328.2323232323232" y2="288.90433579716756" style="stroke:black;stroke-width:2" />
    <line x1="323.2323232323232" y1="283.90433579716756" x2="323.2323232323232" y2="293.90433579716756" style="stroke:black;stroke-width:2" />
    <line x1="323.28282828282823" y1="283.3488308524991" x2="333.28282828282823" y2="283.3488308524991" style="stroke:black;stroke-width:2" />
    <line x1="328.28282828282823" y1="278.3488308524991" x2="328.28282828282823" y2="288.3488308524991" style="stroke:black;stroke-width:2" />
    <line x1="328.3333333333333" y1="271.41695084076537" x2="338.3333333333333" y2="271.41695084076537" style="stroke:black;stroke-width:2" />
    <line x1="333.3333333333333" y1="266.41695084076537" x2="333.3333333333333" y2="276.41695084076537" style="stroke:black;stroke-width:2" />
    <line x1="333.38383838383834" y1="274.3164906267249" x2="343.38383838383834" y2="274.3164906267249" style="stroke:black;stroke-width:2" />
    <line x1="338.38383838383834" y1="269.3164906267249" x2="338.38383838383834" y2="279.3164906267249" style="stroke:black;stroke-width:2" />
    <line x1="338.4343434343434" y1="268.5788724065576" x2="348.4343434343434" y2="268.5788724065576" style="stroke:black;stroke-width:2" />
    <line x1="343.4343434343434" y1="263.5788724065576" x2="343.4343434343434" y2="273.5788724065576" style="stroke:black;stroke-width:2" />
    <line x1="343.48484848484844" y1="262.76666627133983" x2="353.48484848484844" y2="262.76666627133983" style="stroke:black;stroke-width:2" />
    <line x1="348.48484848484844" y1="257.76666627133983" x2="348.48484848484844" y2="267.76666627133983" style="stroke:black;stroke-width:2" />
    <line x1="348.5353535353535" y1="253.23967206173467" x2="358.5353535353535" y2="253.23967206173467" style="stroke:black;stroke-width:2" />
    <line x1="353.5353535353535" y1="248.23967206173467" x2="353.5353535353535" y2="258.23967206173467" style="stroke:black;stroke-width:2" />
    <line x1="353.58585858585855" y1="244.7696645493628" x2="363.58585858585855" y2="244.7696645493628" style="stroke:black;stroke-width:2" />
    <line x1="358.58585858585855" y1="239.7696645493628" x2="358.58585858585855" y2="249.7696645493628" style="stroke:black;stroke-width:2" />
    <line x1="358.6363636363636" y1="245.81854729838295" x2="368.6363636363636" y2="245.81854729838295" style="stroke:black;stroke-width:2" />
    <line x1="363.6363636363636" y1="240.81854729838295" x2="363.6363636363636" y2="250.81854729838295" style="stroke:black;stroke-width:2" />
    <line x1="363.68686868686865" y1="236.40187181564414" x2="373.68686868686865" y2="236.40187181564414" style="stroke:black;stroke-width:2" />
    <line x1="368.68686868686865" y1="231.40187181564414" x2="368.68686868686865" y2="241.40187181564414" style="stroke:black;stroke-width:2" />
    <line x1="368.73737373737373" y1="230.29607150791938" x2="378.73737373737373" y2="230.29607150791938" style="stroke:black;stroke-width:2" />
    <line x1="373.73737373737373" y1="225.29607150791938" x2="373.73737373737373" y2="235.29607150791938" style="stroke:black;stroke-width:2" />
    <line x1="373.78787878787875" y1="225.18809082054233" x2="383.78787878787875" y2="225.18809082054233" style="stroke:black;stroke-width:2" />
    <line x1="378.78787878787875" y1="220.18809082054233" x2="378.78787878787875" y2="230.18809082054233" style="stroke:black;stroke-width:2" />
    <line x1="378.83838383838383" y1="220.38441599620606" x2="388.83838383838383" y2="220.38441599620606" style="stroke:black;stroke-width:2" />
    <line x1="383.83838383838383" y1="215.38441599620606" x2="383.83838383838383" y2="225.38441599620606" style="stroke:black;stroke-width:2" />
    <line x1="383.88888888888886" y1="212.7223020453476" x2="393.88888888888886" y2="212.7223020453476" style="stroke:black;stroke-width:2" />
    <line x1="388.88888888888886" y1="207.7223020453476" x2="388.88888888888886" y2="217.7223020453476" style="stroke:black;stroke-width:2" />
    <line x1="388.93939393939394" y1="210.588855721964" x2="398.93939393939394" y2="210.588855721964" style="stroke:black;stroke-width:2" />
    <line x1="393.93939393939394" y1="205.588855721964" x2="393.93939393939394" y2="215.588855721964" style="stroke:black;stroke-width:2" />
    <line x1="393.98989898989896" y1="203.83821468763742" x2="403.98989898989896" y2="203.83821468763742" style="stroke:black;stroke-width:2" />
    <line x1="398.98989898989896" y1="198.83821468763742" x2="398.98989898989896" y2="208.83821468763742" style="stroke:black;stroke-width:2" />
    <line x1="399.04040404040404" y1="195.15456963156285" x2="409.04040404040404" y2="195.15456963156285" style="stroke:black;stroke-width:2" />
    <line x1="404.04040404040404" y1="190.15456963156285" x2="404.04040404040404" y2="200.15456963156285" style="stroke:black;stroke-width:2" />
    <line x1="404.09090909090907" y1="192.54501214488477" x2="414.09090909090907" y2="192.54501214488477" style="stroke:black;stroke-width:2" />
    <line x1="409.09090909090907" y1="187.54501214488477" x2="409.09090909090907" y2="197.54501214488477" style="stroke:black;stroke-width:2" />
    <line x1="409.1414141414141" y1="178.75911350728163" x2="419.1414141414141" y2="178.75911350728163" style="stroke:black;stroke-width:2" />
    <line x1="414.1414141414141" y1="173.75911350728163" x2="414.1414141414141" y2="183.75911350728163" style="stroke:black;stroke-width:2" />
    <line x1="414.19191919191917" y1="177.58015206394643" x2="424.19191919191917" y2="177.58015206394643" style="stroke:black;stroke-width:2" />
    <line x1="419.19191919191917" y1="172.58015206394643" x2="419.19191919191917" y2="182.58015206394643" style="stroke:black;stroke-width:2" />
    <line x1="419.2424242424242" y1="178.69598662952174" x2="429.2424242424242" y2="178.69598662952174" style="stroke:black;stroke-width:2" />
    <line x1="424.2424242424242" y1="173.69598662952174" x2="424.2424242424242" y2="183.69598662952174" style="stroke:black;stroke-width:2" />
    <line x1="424.2929292929293" y1="164.54012648108568" x2="434.2929292929293" y2="164.54012648108568" style="stroke:black;stroke-width:2" />
    <line x1="429.2929292929293" y1="159.54012648108568" x2="429.2929292929293" y2="169.54012648108568" style="stroke:black;stroke-width:2" />
    <line x1="429.3434343434343" y1="158.81894037301268" x2="439.3434343434343" y2="158.81894037301268" style="stroke:black;stroke-width:2" />
    <line x1="434.3434343434343" y1="153.81894037301268" x2="434.3434343434343" y2="163.81894037301268" style="stroke:black;stroke-width:2" />
    <line x1="434.3939393939394" y1="148.98262036728514" x2="444.3939393939394" y2="148.98262036728514" style="stroke:black;stroke-width:2" />
    <line x1="439.3939393939394" y1="143.98262036728514" x2="439.3939393939394" y2="153.98262036728514" style="stroke:black;stroke-width:2" />
    <line x1="439.4444444444444" y1="147.28083941423537" x2="449.4444444444444" y2="147.28083941423537" style="stroke:black;stroke-width:2" />
    <line x1="444.4444444444444" y1="142.28083941423537" x2="444.4444444444444" y2="152.28083941423537" style="stroke:black;stroke-width:2" />
    <line x1="444.4949494949495" y1="143.2601969641816" x2="454.4949494949495" y2="143.2601969641816" style="stroke:black;stroke-width:2" />
    <line x1="449.4949494949495" y1="138.2601969641816" x2="449.4949494949495" y2="148.2601969641816" style="stroke:black;stroke-width:2" />
    <line x1="449.5454545454545" y1="139.69742692310228" x2="459.5454545454545" y2="139.69742692310228" style="stroke:black;stroke-width:2" />
    <line x1="454.5454545454545" y1="134.69742692310228" x2="454.5454545454545" y2="144.69742692310228" style="stroke:black;stroke-width:2" />
    <line x1="454.5959595959596" y1="128.89777778044026" x2="464.5959595959596" y2="128.89777778044026" style="stroke:black;stroke-width:2" />
    <line x1="459.5959595959596" y1="123.89777778044026" x2="459.5959595959596" y2="133.89777778044026" style="stroke:black;stroke-width:2" />
    <line x1="459.6464646464646" y1="120.84299489951638" x2="469.6464646464646" y2="120.84299489951638" style="stroke:black;stroke-width:2" />
    <line x1="464.6464646464646" y1="115.84299489951638" x2="464.6464646464646" y2="125.84299489951638" style="stroke:black;stroke-width:2" />
    <line x1="464.6969696969697" y1="121.59017886383975" x2="474.6969696969697" y2="121.59017886383975" style="stroke:black;stroke-width:2" />
    <line x1="469.6969696969697" y1="116.59017886383975" x2="469.6969696969697" y2="126.59017886383975" style="stroke:black;stroke-width:2" />
    <line x1="469.7474747474747" y1="105.91975991579989" x2="479.7474747474747" y2="105.91975991579989" style="stroke:black;stroke-width:2" />
    <line x1="474.7474747474747" y1="100.91975991579989" x2="474.7474747474747" y2="110.91975991579989" style="stroke:black;stroke-width:2" />
    <line x1="474.7979797979798" y1="106.3774529957862" x2="484.7979797979798" y2="106.3774529957862" style="stroke:black;stroke-width:2" />
    <line x1="479.7979797979798" y1="101.3774529957862" x2="479.7979797979798" y2="111.3774529957862" style="stroke:black;stroke-width:2" />
    <line x1="479.8484848484848" y1="93.3293200937033" x2="489.8484848484848" y2="93.3293200937033" style="stroke:black;stroke-width:2" />
    <line x1="484.8484848484848" y1="88.3293200937033" x2="484.8484848484848" y2="98.3293200937033" style="stroke:black;stroke-width:2" />
    <line x1="484.89898989898984" y1="93.5955980768623" x2="494.89898989898984" y2="93.5955980768623" style="stroke:black;stroke-width:2" />
    <line x1="489.89898989898984" y1="88.5955980768623" x2="489.89898989898984" y2="98.5955980768623" style="stroke:black;stroke-width:2" />
    <line x1="489.9494949494949" y1="84.66377691108448" x2="499.9494949494949" y2="84.66377691108448" style="stroke:black;stroke-width:2" />
    <line x1="494.9494949494949" y1="79.66377691108448" x2="494.9494949494949" y2="89.66377691108448" style="stroke:black;stroke-width:2" />
</svg>