<svg width="800" height="800" viewbox = "0 0 800 800"  xmlns="http://www.w3.org/2000/svg">

<!--
<json>
{
    "imgurl": "https://i.imgur.com/u92kqFD.jpg",
    "imgw": 1.203491807365677,
    "imgleft": -0.1438402447434552,
    "imgtop": -0.8166874416949081,
    "unitpixels": 400,
    "unitfeet": 6000,
    "imgangle": -85,
    "latlon0": "38.8067, -77.0606",
    "marker0": "King and Metro Line Overpass",
    "glyph0": "0341,0340,",
    "latlon1": "38.8043, -77.0402",
    "marker1": "King and Union",
    "glyph1": "0341,0340,",
    "hashtag": "kingstreet",
    "currentGlyph": "0336,0336,0336,0326,0331,0331,0331,0331,0220,0220,0220,0220,0220,0220,0220,0331,0331,0331,0331,0331,0331,0331,0336,0336,0332,0337,0337,0324,0220,0220,0220,0220,0220,0220,0220,0331,0331,0331,0336,0336,0336,0333,0337,0337,0337,0320,0337,0223,0300,0335,0352,0352,0335,0350,0334,0304,0342,0340,0336,0336,0336,0336,0336,0336,0341,0337,0337,0337,0337,0330,0330,0330,0330,0334,0336,0336,0337,0326,0362,0203,0203,0203,0335,0203,0203,0335,0203,0203,0203,0203,0203,0203,0203,0335,0203,0203,0335,0203,0203,0203,0203,0363,",
    "links": [
        {
            "url": "https://www.nps.gov/thje/index.htm",
            "text": "Jefferson Memorial NPS site",
            "latlon": "38.881389, -77.036944"
        }
    ],
    "images": [
        {
            "url": "https://i.imgur.com/8nGddQU.jpg",
            "latlon": "28.609503, -81.197801",
            "unitfeet": 500
        }
    ],
    "avatar": {
        "glyph": "0322,0340,0341,0342,",
        "unitfeet": 100
    }
}
</json>
-->
	<path d = "M229 600 L226 600 L226 550 L232 550 L232 600 L229 600 Z" stroke = "blue" stroke-width = "2" fill = "blue" />	<path d = "M229 550 L226 550 L226 500 L232 500 L232 550 L229 550 Z" stroke = "blue" stroke-width = "2" fill = "blue" />	<path d = "M229 500 L226 500 L226 450 L232 450 L232 500 L229 500 Z" stroke = "blue" stroke-width = "2" fill = "blue" />	<path d = "M229 450 L226 450 L226 400 L232 400 L232 450 L229 450 Z" stroke = "blue" stroke-width = "2" fill = "blue" />	<path d = "M229 400 L226 400 L226 350 L232 350 L232 400 L229 400 Z" stroke = "blue" stroke-width = "2" fill = "blue" />	<path d = "M229 350 L226 350 L226 300 L232 300 L232 350 L229 350 Z" stroke = "blue" stroke-width = "2" fill = "blue" />	<path d = "M229 300 L226 300 L226 250 L232 250 L232 300 L229 300 Z" stroke = "blue" stroke-width = "2" fill = "blue" />	<path d = "M217 600 L214 600 L214 550 L220 550 L220 600 L217 600 Z" stroke = "yellow" stroke-width = "2" fill = "yellow" />	<path d = "M217 550 L214 550 L214 500 L220 500 L220 550 L217 550 Z" stroke = "yellow" stroke-width = "2" fill = "yellow" />	<path d = "M217 500 L214 500 L214 450 L220 450 L220 500 L217 500 Z" stroke = "yellow" stroke-width = "2" fill = "yellow" />	<path d = "M217 450 L214 450 L214 400 L220 400 L220 450 L217 450 Z" stroke = "yellow" stroke-width = "2" fill = "yellow" />	<path d = "M217 400 L214 400 L214 350 L220 350 L220 400 L217 400 Z" stroke = "yellow" stroke-width = "2" fill = "yellow" />	<path d = "M217 350 L214 350 L214 300 L220 300 L220 350 L217 350 Z" stroke = "yellow" stroke-width = "2" fill = "yellow" />	<path d = "M217 300 L214 300 L214 250 L220 250 L220 300 L217 300 Z" stroke = "yellow" stroke-width = "2" fill = "yellow" />    <circle cx="223" cy = "400" r = "17.67766952966369" stroke = "white" stroke-width = "2" fill = "white" />
    <circle cx="223" cy = "400" r = "17.67766952966369" stroke = "black" stroke-width = "2" fill = "none" />
    <circle cx="223" cy = "400" r = "8.838834764831843" stroke = "black" stroke-width = "2" fill = "black" />
    <line x1="229" y1="400" x2="628" y2="435" style="stroke:#000000;stroke-width:2" />
<circle cx="229" cy = "400" r = "3" stroke = "#000000" stroke-width = "2" fill = "#000000" />
    <circle cx="229" cy = "400" r = "6.250000000000001" stroke = "#000000" stroke-width = "2" fill = "none" />
	<path d = "M628 435 L632 385 L636 335 L641 285 L691 290 L740 294 L736 344 L732 394 L727 444 L723 493 L719 543 L714 593 L710 643 L660 638 L610 634 L615 584 L619 534 L623 485 L628 435 Z" stroke = "blue" stroke-width = "2" fill = "blue" /></svg>