<svg width="500" height="500" viewbox = "0 0 500 500"  xmlns="http://www.w3.org/2000/svg">

<!--
<json>
{
    "glyph": "0331,0332,0314,0337,0313,0335,0305,0311,0201,0334,0350,0334,0337,0201,0334,0334,0334,0334,0201,0334,0334,0334,0334,0336,0201,0334,0334,0334,0334,0336,0201,0335,0335,0335,0335,0201,0334,0334,0334,0334,0336,0201,0335,0335,0335,0335,0201,0334,0334,0334,0334,0336,0201,0335,0335,0335,0335,0201,0334,0334,0334,0334,0336,0201,0335,0335,0335,0335,0201,0334,0334,0334,0334,0336,0201,0335,0335,0335,0335,0201,0334,0334,0334,0334,0336,0201,0335,0335,0335,0335,0201,0334,0334,0334,0334,0336,0201,",
    "unit": 90.9090909090909,
    "x0": 634,
    "y0": 499,
    "x0rel": -0.55,
    "y0rel": 1.1,
    "imgurl": "",
    "imgw": 2,
    "imgleft": -1,
    "imgtop": -1
}
</json>
-->
    <line x1="109" y1="441" x2="382" y2="441" style="stroke:#000000;stroke-width:2" />
    <line x1="382" y1="441" x2="245" y2="21" style="stroke:#000000;stroke-width:2" />
    <line x1="245" y1="21" x2="109" y2="441" style="stroke:#000000;stroke-width:2" />
    <line x1="109" y1="441" x2="330" y2="281" style="stroke:#000000;stroke-width:2" />
    <line x1="330" y1="281" x2="161" y2="281" style="stroke:#000000;stroke-width:2" />
    <line x1="161" y1="281" x2="298" y2="182" style="stroke:#000000;stroke-width:2" />
    <line x1="298" y1="182" x2="193" y2="182" style="stroke:#000000;stroke-width:2" />
    <line x1="193" y1="182" x2="278" y2="120" style="stroke:#000000;stroke-width:2" />
    <line x1="278" y1="120" x2="213" y2="120" style="stroke:#000000;stroke-width:2" />
    <line x1="213" y1="120" x2="265" y2="82" style="stroke:#000000;stroke-width:2" />
    <line x1="265" y1="82" x2="226" y2="82" style="stroke:#000000;stroke-width:2" />
    <line x1="226" y1="82" x2="258" y2="59" style="stroke:#000000;stroke-width:2" />
    <line x1="258" y1="59" x2="233" y2="59" style="stroke:#000000;stroke-width:2" />
    <line x1="233" y1="59" x2="253" y2="45" style="stroke:#000000;stroke-width:2" />
    <line x1="253" y1="45" x2="238" y2="45" style="stroke:#000000;stroke-width:2" />
    <line x1="238" y1="45" x2="250" y2="36" style="stroke:#000000;stroke-width:2" />
    <line x1="250" y1="36" x2="241" y2="36" style="stroke:#000000;stroke-width:2" />
</svg>