<svg width="400" height="400" viewbox = "0 0 400 400"  xmlns="http://www.w3.org/2000/svg">
	<path d = "M200 200 L202.47398551257433 188.3341688591207 L209.56606024364302 178.15071990075594 L220.4204925383296 170.53570876146946 L233.77852474605817 166.30741226943064 L248.1130768602045 165.91672929708287 L261.7910298981072 169.42331920860883 L273.2245533496353 176.56980171971048 L280.97804579430914 186.90720762910217 L283.82610322617455 199.89075907651022 L280.78799096621935 214.89115938423402 L271.1769512745901 231.11505739956823 L254.6962003221349 247.47208097577737 L231.58600231694476 262.4877884882985 L202.76627097122775 274.44609887148295 L169.8413207169066 281.9089539529914 L134.8349004662689 284.40936319054873 L99.70262744228717 282.7215824932491 L65.88980525175486 278.3831137074235 L34.180007229678466 272.8942967530867 L4.832957799489037 267.2099572676242 L377.83857037007715 261.68106927823516 L353.13370769801645 256.2510821938288 L330.7205267142566 250.70429837344454 L310.6878192041408 244.8715933018665 L293.1608522897444 238.76331376909923 L278.21270687941063 232.61962416307938 L265.7715248138569 226.8817836946192 L255.55298292486162 222.10523599517003 L247.03575088939013 218.84687496177176 L239.48415436318638 217.55655899770358 L232.01195566420697 218.49128576352098 L223.67600395209578 221.65893976041718 L213.58694963320647 226.79342268588576 L201.02313154716697 233.3657181246494 L185.53030755491793 240.6429138667409 L166.98396753082642 247.80932265558448 L145.58805818501028 254.14499665028845 L121.79454815967904 259.2131443932941 L96.15755195776332 262.97052231633086 L69.17013163977981 265.73402660837 L41.14485721271342 268.01331834935047 L12.179993309800665 270.2830942709768 L382.2208265427324 272.76532340273053 L351.2040257328636 275.25493319464044 L319.260578349335 277.0245657153338 L286.92695540837235 276.90023846132453 L255.26854274918458 273.6133240183776 L225.80379666232028 266.36413262373253 L200.20470826405852 255.2580448168244 L179.9049164173407 241.28335607894988 L165.80850258809656 225.89927905462764 L158.18947844897696 210.5965425213572 L156.73459569524425 196.66850849663774 L160.63887100145416 185.1708201661884 L168.70122490003808 176.94037173439625 L179.4175910242369 172.5789858817634 L191.0924816307158 172.3850816952651 L201.9823778557368 176.2808360892432 L210.45931947238716 183.79628911689346 L215.16515125685552 194.12744808306783 L215.13207372229567 206.23052240176028 L209.8645351643381 218.9075795267763 L199.38825354254698 230.88189632109092 L184.26275014725366 240.9050032315323 L165.5353360806677 247.9302865938634 L144.6134883813389 251.31472076990764 L123.06712275424647 250.93017696150466 L102.4220316983508 247.08779356809427 L84.01975057595634 240.31463636724237 L68.97686307937391 231.12721872326134 L58.21849102979675 219.9141533294477 L52.53515769492077 206.936243546069 L52.6241850106735 192.390581996047 L59.09907573118252 176.49570405758297 L72.45880965117638 159.60270325813843 L92.9977667987228 142.37475036554795 L120.6226427860328 126.04192146405832 L154.57287875258706 112.55382995832484 L193.17195834451815 104.20468597666662 L233.89770582426166 102.5213977511981 L273.9508051657094 107.20792523394304 L311.02713455268065 116.34655280011745 L343.74797954143054 127.65852026591851 L371.57431261049913 139.51200553872843 L394.4745955509936 151.09000023397869 L12.641229849563416 162.07713199923472 L26.355957562285624 172.315347207453 L35.9712650028973 181.6047236294567 L41.94418777072204 189.64498957364682 L44.8748964225631 196.0612910389741 L45.52632189347452 200.46151471697502 L44.81954387047608 202.4905066434561 L43.81018550977254 201.86526055109144 L43.654394928718716 198.39025110359438 L45.571141247275534 191.96163329497492 L50.80276544486415 182.5740193189941 L60.56892509119362 170.34932402042662 L75.99852789750783 155.6196242172697 L98.00807361375018 139.10605743822907 L127.0832292468478 122.18962469031548 L162.95793889062003 107.06854864619297 L204.33688656340152 96.3043308429162 L248.99964777726626 91.49446178562836 L294.49631213071007 92.03599181249898 L339.0605832446623 95.47208707810434 L382.05487958509843 99.16683119728961 L23.7238399166431 101.69596245216776 L64.57120891320673 103.24400594022299 L104.73138417135816 105.29582593896889 L143.57079082511834 109.87102989103535 L179.68324886541933 118.46208800910851 L211.3035173724438 131.21725225696323 L236.8964433737995 146.9687589069125 L255.569190922693 163.9549946670001 L267.1610655478042 180.52825272421543 L272.1195290983864 195.4494361744144 L271.3270706574031 207.8641222223428 L265.9644060690064 217.18487956103579 L257.4172950630534 223.01386713776319 L247.1996653968459 225.14291587785482 L236.86348116032724 223.60988930858852 L227.88220658799187 218.75873504994433 L221.51773269979992 211.2521331586232 L218.69564841979064 202.01967661674422 L219.9127173438477 192.1606487169918 L225.18970653690212 182.82819314518645 L234.07424946422955 175.10723611760116 L245.69526250813598 169.89230760708762 L258.8651165510997 167.78719379351904 L272.2125933746819 169.06437694017833 L284.3158141414922 173.70585557293006 L293.80457698016005 181.50049923793043 L299.42030359911735 192.13871328963316 L300.04654251980435 205.25196120423968 L294.7388127461729 220.3749868275186 L282.78654038163063 236.8320133962217 L263.83512475005483 253.57156677258183 L238.07332545307895 269.0461311716208 L206.42409962655458 281.36080097111835 L170.57450392426577 288.90330307026403 L132.67117345074922 291.2141062620413 L94.73795725875935 289.3111234214548 L58.1621695680291 285.05482298169625 L23.554042810580512 280.14748626517974 L390.9574177356168 275.5409728694421 L360.18901408633934 271.3913351334538 L331.1270380773476 267.2992168740831 L303.87852974655186 262.62553452103515 L278.81348119418834 256.80325505341835 L256.47788730750545 249.59278797541356 L237.4244765418394 241.20824462224175 L222.0262155245336 232.27327231629258 L210.3380478924703 223.64819775708042 L202.0415327389008 216.22279791362266 L196.46953957726882 210.7494034757452 L192.6876534811988 207.73924313988104 L189.60737013909554 207.4116268278773 L186.11231541848136 209.68056645378118 L181.18375763577578 214.17088763848082 L174.01345246397682 220.26278710435398 L164.09146843971013 227.16717676811678 L151.25564554250792 234.03323738872797 L135.69037588826302 240.07999704278572 L117.86976294849735 244.7238479229813 L98.45605635242927 247.65687190353714 L78.18240657723548 248.8401386541798 L57.75619281318674 248.41698286047404 L37.807487800046346 246.59409705882734 L18.883712736061653 243.54819214407843 L1.471689736653019 239.3911842351459 L386.02172292634964 234.19290953000817 L372.9539731598844 228.03809627796798 L362.639073778902 221.08739866627593 L355.3570286038886 213.61648480615554 L351.24713431076543 206.01857028436277 L350.26472042172026 198.77058501949708 L352.1575357859345 192.3761823107822 L356.46743066453683 187.30532806158294 L362.55481548925957 183.94838277670502 L369.6375170433057 182.59388849030572 L376.8341690058724 183.4279618480898 L383.2050539378212 186.545106968798 L387.7879656914305 191.95981891767138 L389.6298948619997 199.61495323661987 L387.8153637894269 209.39018165295414 L381.490543877818 221.11336233074158 L369.8835915642594 234.56324027899512 L352.3320012788346 249.4240018928521 L328.3504167525531 265.1264979160408 L297.7967896059248 280.54227645607114 L261.175499332358 293.69115775739164 L219.97544568167777 301.96993486672454 L176.71162971311526 303.340887887723 L134.3700133717836 297.7499261447303 L95.50464711738482 287.1686389364718 L61.66042443545609 274.17484793104194 L33.415195102882365 260.6765439687732 L10.74800504269686 247.6488184666837 L393.3674632901424 235.47933262472634 L380.872541200558 224.35572818927915 L372.78483194410427 214.48079521483632 L368.5257952728683 206.13035750706607 L367.3900720764341 199.6260220442177 L368.53717998612944 195.282534585281 L371.0042301195126 193.36371377716569 L373.7329554632729 194.0587282175748 L375.60272583519566 197.47612159481076 L375.4637664611544 203.64740332750242 L372.16823658462914 212.53247378772483 L364.6000417380707 224.01822719167382 L351.7098140098345 237.89008131517537 L332.57489882096615 253.73136181908154 L306.52738703872313 270.6918612997122 L273.4059880094141 287.15094787245545 L233.9218006172477 300.59924007697657 L189.91517077254318 308.3702524325228 L144.09404531108586 309.2627858046827 L99.1539984538709 304.5503433439718 L56.876821022381336 297.03708921136456 L17.876243981183677 289.2312832567392 L381.9680206558918 282.37181282457834 L348.7110748085241 276.5109500157037 L317.8054494304633 271.0129053863259 L289.272016539395 265.0594228732658 L263.4399371907104 258.0531163064852 L240.79520776253315 249.86772637050063 L221.76663990147554 240.8917287263751 L206.53606020351282 231.88013389731813 L194.9336433913222 223.7166929514182 L186.43104402690997 217.19948718954504 L180.20885440036375 212.90376967158934 L175.2654593713699 211.1182269008935 L170.54136641641367 211.8311349683038 L165.04205394887583 214.7494948231437 L157.94703160858887 219.34541382278937 L148.69382644323213 224.92940177402858 L137.02588656129717 230.74843318250592 L122.99586990221994 236.09808717399596 L106.92289688419658 240.4253505999582 L89.31420102313453 243.39075366017275 L70.77354943869176 244.86755271458694 L51.92289147916944 244.88272063254126 L33.35551480944622 243.5322912113452 L15.622771534372731 240.9118774592893 L399.2417084875903 237.0889248889694 L384.70466766727634 232.11978057025533 L372.4749084048757 226.0956533225844 L362.9612303213297 219.19256446274375 L356.4750930477062 211.70160671534535 L353.1818744954567 204.02545573511614 L353.06089567391535 196.64121243495842 L355.885968728394 190.04249500553038 L361.23118108028143 184.6801632688868 L368.4986315384189 180.91910409801676 L376.95923388442554 179.01949926876864 L385.79664130957326 179.1392475603395 L394.14771489909765 181.345821596933 L1.1382322892462469 185.6256257526166 L5.9161000854566055 191.88675405591806 L7.68387013727704 199.9611922606631 L5.72854285626471 209.61718571707885 L399.44297168153355 220.58667383856664 L388.33424522516293 232.59629162436707 L372.0239162907684 245.36761514398722 L350.2638371873013 258.5328248826336 L323.0137144863447 271.4216884748979 L290.62925198611873 282.7708378189657 L254.14535407565597 290.62690379122057 L215.48213192703057 292.8677769741547 L177.2889702717825 288.3257877576315 L142.34919921659724 277.56413373700394 L112.90529633711175 262.4420389349099 L90.34691227549314 244.99750002713438 L75.31153014945086 226.72225427757604 L67.94549191985979 208.4938398358574 L68.11581012438643 190.8131958282851 L75.51332459079961 174.05825750901812 L89.65978970797963 158.68991278004125 L109.83493876426985 145.4285829049956 L134.9418135517046 135.35464285223253 L163.3718598714484 129.78072649528082 L192.9938012410937 129.7924596728522 L221.3728729793654 135.67648223897368 L246.16736368251944 146.71762044664044 L265.48975623476986 161.55117168687025 L278.0623328248613 178.70973381407512 L283.18252194912674 196.93932790431623 L280.624338924293 215.20001918927818 L270.5817446847229 232.49345038177935 L253.6922137933866 247.67671176457236 L231.11607956529016 259.406814301217 L204.5867244057962 266.3514124787893 L176.3137826364678 267.6533661772854 L148.6895399349023 263.334949761226 L123.9109552024703 254.2570199484266 L103.7167987723618 241.65619013281588 L89.33677444606059 226.66622285937714 L81.58729726186459 210.1176881822801 L80.993061147756 192.59515322244658 L87.85564592476902 174.61246084754555 L102.23908261961584 156.82746917502323 L123.86139041346199 140.26956627650878 L151.9025905480785 126.48125493017366 L184.81407254474746 117.32221442537484 L220.31997829096792 114.25457164380965 L255.77079844031496 117.49807361192447 L288.7276077222533 125.88838586537018 L317.4061402754357 137.62365953021447 L340.7513076515072 151.13407330818552 L358.24580703432906 165.43508551391238 L369.6766065059473 180.02279992977867 L374.9824288359659 194.6409178596018 L374.188287573161 209.1145760418178 L367.3896540432743 223.27436537869306 L354.7591173759733 236.91301096371853 L336.5766260393507 249.70655374655476 L313.30676357651544 261.06968385910443 L285.7419000735656 270.0069240419206 L255.17762715925946 275.1453659148675 L223.49917922948384 275.14249575729434 L193.02967891492239 269.35643462222674 L166.13197943334552 258.25593518147514 L144.7710942822049 243.1870545529138 L130.27078676662853 225.7660450599009 L123.30562567935168 207.4315679623055 L124.00550521573211 189.35411977005108 L132.0439151405438 172.57210712530375 L146.65543968942677 158.16549133250464 L166.5990979120577 147.31888187280066 L190.13840615598767 141.16770285037086 L215.13186748594558 140.44564959858474 L239.2746770723523 145.1671179762459 L260.4129057680609 154.6296660513919 L276.78234634172355 167.74186270300632 L287.09015855956864 183.39345173736834 L290.4783773611916 200.62722012583424 L286.4637881454656 218.59001228849917 L274.928434951316 236.35774242214387 L256.1914030956833 252.74125712782842 L231.1426708629328 266.21338578522284 L201.34783849154695 275.14978004359364 L168.97092213297276 278.432995916137 L136.42806464079382 276.03603923752644 L105.90763943512995 269.0101011562941 L79.03747883645022 258.85529613277174 L56.84434926481873 246.8593495890832 L39.91268787576584 233.83725233597 L28.572541354359032 220.2171513419313 L23.02225568869426 206.2289813475044 L23.37979428187785 192.04268671649015 L29.69258648620817 177.83141175668067 L41.92905917994284 163.8063567437647 L59.949764408776986 150.2897502410434 L83.43153175229635 137.8678665790119 L111.71631383023981 127.57803461098494 L143.60642926231327 120.93309220229521 L177.23197510261943 119.52217355681285 L210.17640363751616 124.23436549758058 L239.9066633648161 134.70322031544714 L264.2810148062926 149.52301037567275 L281.83742946128734 166.97706803698512 L291.7920724452118 185.60144927749005 L293.89347061885434 204.30960119433203 L288.2919251583653 222.23320294710743 L275.49692111166615 238.48901200045546 L256.4242148686463 252.0026696176279 L232.48431382866454 261.50859005518674 L205.6137453573812 265.83076164072577 L178.138983284026 264.361410265816 L152.45921761025463 257.3784009643261 L130.68992807807902 245.89728002206834 L114.44823823137997 231.2000009438824 L104.83193575282324 214.44061254338803 L102.50602482173785 196.53470521158812 L107.78425592945281 178.27343040458823 L120.63858722313587 160.53467161141177 L140.6174472079561 144.48981453537473 L166.70080158478612 131.66881300416804 L197.1929180570517 123.68663019029648 L229.81317961488634 121.60176674486064 L262.0637617361933 125.33989022982071 L291.7161599755324 133.76286893020063 L317.1279208632542 145.33760165727992 L337.26229121401417 158.78147593538876 L351.5211621175764 173.28710985743376 L359.56029670381065 188.4207211311062 L361.1716770419334 203.9375205139718 L356.2355710024509 219.64248493835981 L344.72054502459855 235.29303292622373 L326.726450127504 250.47983050670825 L302.59121380599373 264.4405249033581 L273.08083700834425 275.8756326974684 L239.61411320465612 283.02055572440383 L204.35106473724855 284.24219407006603 L169.94717236633707 278.9391181529112 L139.0081266572013 267.93542733803037 L113.57844850506481 252.9447730182851 L94.95545622149481 235.69611844042788 L83.80233954783404 217.45325521967058 L80.3547083932316 199.01941392433815 L84.57069372097273 180.95729949270532 L96.17980013028036 163.83502158725545 L114.63287252364272 148.44806737924992 L138.97121743541712 135.96702658624395 L167.67480039162405 127.85781595087332 L198.6213982083625 125.42556367573954 L229.29281923180937 129.16039360951527 L257.2003796557168 138.43741574728062 L280.29608244799647 151.87797383053416 L297.1514154267663 168.00148228602671 L306.90115427387775 185.6343132813822 L309.0966553826622 203.94457136119703 L303.5954728468196 222.26551019548737 L290.5411142722603 239.8589126971422 L270.4414684580665 255.692061231814 L244.32129729179997 268.3334711397931 L213.85915183017178 276.1648840924476 L181.34724204488236 277.99704619933874 L149.36511735450077 273.7197987959879 L120.28885066254055 264.35914928656837 L95.92856518743592 251.46453626173826 L77.46123232979721 236.422478125132 L65.5750327820428 220.16694554250748 L60.653128837611575 203.2469748150403 L62.896105733720674 186.01774553356725 L72.36351874154424 168.82710845441107 L88.93892170238556 152.2002634828811 L112.2121605633239 137.0486111758122 L141.28070436765998 124.81768772010753 L174.54570174609663 117.31396866201538 L209.69035349728813 116.00994773227933 L244.0072180782056 121.19173419921752 L274.96738146454663 131.77247324341812 L300.6717808087636 145.9837230353388 L319.9509016683177 162.21950680901074 L332.20076793227287 179.4033152652027 L337.1665401453338 196.91351878859325 L334.79716590563805 214.36150144088327 L325.1925845746221 231.38273357408517 L308.63381992619594 247.4446972509388 L285.6948187408015 261.65150329242095 L257.42417357814065 272.63425425344354 L225.51518162200148 278.7571874531621 L192.29382694290092 278.7673043750927 L160.39791778553797 272.51215094635364 L132.26612811974258 261.042213304266 L109.74729990994976 245.99275589900242 L94.01288053869206 228.87213179914613 L85.6896739894606 210.75844559701432 L85.0337723998303 192.37306084424546 L92.03566363655177 174.30267977108844 L106.4259573742162 157.24021282444684 L127.58423989607819 142.1973748939557 L154.38053694552326 130.58681114383455 L185.04445203272059 123.97644099088477 L217.2232578762822 123.45770543043619 L248.3220836564518 129.03288695432633 L275.9858248637883 139.6179119755003 L298.43633500976546 153.6649078373111 L314.5228221801932 169.8048681344393 L323.5804890985837 187.09468595645825 L325.26237236115105 204.9313829108456 L319.43832141539895 222.84660374398393 L306.18455654499815 240.2866572100188 L285.86613833040303 256.3907458809796 L259.3050900539619 269.8250037176249 L227.9725080161774 278.8775492363512 L194.04424215049707 282.0258394131991 L160.14796559294354 278.751239866815 L128.84533467414053 269.86836591194754 L102.15895993975249 257.0016835340385 L81.4099105995358 241.75800451586704 L67.33820097125692 225.27154834658356 L60.311996055403284 208.2071110677946 L60.48532062191916 190.95796829600016 L67.86841993300496 173.84821189305734 L82.31880665371843 157.31346607305272 L103.45425288243504 142.09636051290713 L130.4843773059827 129.42079906606045 L162.006183865192 120.94474118809265 L195.91229896842606 118.24856103269626 L229.59597763713413 122.00950206158535 L260.4464735087443 131.56813691060748 L286.34699288530305 145.35018953738924 L305.8861211064632 161.68613028007752 L318.2740159322799 179.3206436637759 L323.147270603636 197.4536220370674 L320.41497821023876 215.54570910880955 L310.1988532538844 233.08269904514094 L292.8704798781676 249.34979927559962 L269.1776369572751 263.243542741055 L240.41997016255945 273.2580877446305 L208.5551471238849 277.8562348363138 L176.0673404262544 276.18277290864467 L145.5551799816094 268.57741036023026 L119.24979237054563 256.3618368935232 L98.74705345040138 241.125703915359 L85.02669234906526 224.16254960415273 L78.61807949426029 206.3358542925218 L79.75575407703126 188.2238098724785 L88.45289340027387 170.34314780041782 L104.47896566943479 153.37831581200265 L127.24366436479683 138.39100523752103 L155.61520593636686 126.89188861699769 L187.77826626984935 120.54414434046573 L221.31088679102407 120.44734404603614 L253.57165304483493 126.49086916189768 L282.2198250253333 137.43094477167455 L305.5493138536846 151.61668092787352 L322.5056483533442 167.66501714959855 L332.51255598439866 184.67753037742267 L335.2866976433812 202.12206534796206 L330.72769001409165 219.62275563004087 L318.8949064897897 236.76025228552692 L300.06752120695114 252.86975177032343 L274.8904088965868 266.8439868458155 L244.578073276145 277.09279108808914 L211.05523695813866 281.9217418810865 L176.8402645019825 280.3315364012988 L144.60391394677129 272.6363642747507 L116.63228348942437 260.2555731098157 L94.52549726249767 244.90608165717887 L79.22304777118539 227.95867728820065 L71.19579466074424 210.28780815000076 L70.62685134811184 192.42872130932724 L77.50654437895402 174.80335369612365 L91.63451268903361 157.93534998721157 L112.53272550426318 142.65976603655213 L139.27925412599214 130.2699667104405 L170.3273563611253 122.39973315718449 L203.46653528776216 120.45876121944367 L236.0801145633373 124.87239137589061 L265.6412119476817 134.81084608921643 L290.15294720608836 148.69941617773733 L308.29737656787245 164.97813260228736 L319.3277565384437 182.50867269900257 L322.88336942286656 200.56285996126968 L318.85674558672804 218.62196413986376 L307.354231092377 236.1459102771835 L288.7525014746995 252.34832507503856 L263.84269445257024 266.01893801485767 L234.01209309394505 275.55991750579057 L201.32578619621924 279.44595605626233 L168.33854378916092 276.983208471961 L137.6336792027887 268.7367507714263 L111.34573593188495 256.1711937231087 L90.94326483096928 240.88153538338997 L77.29690151147473 224.08122228680224 L70.86605160448036 206.53537233952073 L71.85480350423893 188.73310226421836 L80.28209664523986 171.10477411597827 L95.9617388600171 154.23509301028682 L118.39266281070304 139.07475431764243 L146.5737166232199 127.06031632436195 L178.8279922228128 119.9058933688673 L212.81521694256986 118.92613093425332 L245.86794946889756 124.28075520934888 L275.52695316509795 134.87381318883945 L299.94421165124515 149.02335225772276 L317.9598106551585 165.2217925859445 L328.9457337451529 182.45063547371453 L332.60859797553115 200.1006670983399 L328.86160103676775 217.75828346023215 L317.7875092923989 234.99344827032496 L299.6886984023747 251.15290992702973 L275.22346119093254 265.16466418250343 L245.60070251288136 275.49131706749284 L212.7185233128058 280.4792859237705 L179.0614328713642 279.1180210190862 L147.28362684945895 271.654716183692 L119.68640359114957 259.43362963888706 L97.90950537105893 244.13464307409606 L82.93821327216372 227.13397844859034 L75.28140824415814 209.33439148271032 L75.14629327576328 191.30820322440468 L82.53004021618236 173.52367077755255 L97.21619152884713 156.5691956456364 L118.67867922470224 141.3663929589361 L145.91034812204865 129.29184837237153 L177.25612326520266 121.99369253998793 L210.41741813634746 120.76659396601985 L242.76050400442057 125.82833193725037 L271.8246001285228 136.18240305016772 L295.722200030514 150.21915153706243 L313.23533397985875 166.44697721033037 L323.6805813285459 183.8229093621211 L326.72370134174656 201.6954051627773 L322.2571172287441 219.59677609168767 L310.3695604614872 237.02099503719018 L291.4082401748735 253.2043132688817 L266.1284789312614 266.9423465398806 L235.8850636726373 276.6136826269985 L202.72739176870246 280.63844569120965 L169.21938204185886 278.26557752116497 L137.9706775819668 270.0402116320746 L111.14060465391368 257.4518507098354 L90.20743596402386 242.13686263069906 L76.03593212949058 225.33874206442124 L69.07111559312389 207.83307635018005 L69.50200789110917 190.10224930947558 L77.33871116640024 172.55321879145998 L92.4002752001276 155.72595693031485 L114.2146727730331 140.5031640221132 L141.8403475390653 128.24971510166307 L173.68174205723125 120.65835383705982 L207.46796528775502 119.12653306691304 L240.54685255994207 123.9767694625347 L270.40787525039866 134.2496586750785 L295.1149453437653 148.2977405286686 L313.42477683843777 164.56514247922172 L324.65310142306026 181.9608998307811 L328.4789331902946 199.81445484648398 L324.81018923874024 217.66599395680754 L313.74228632795854 235.04413812605202 L295.6083049942198 251.25010120388063 L271.1167598644513 265.16682398349735 L241.5411427331771 275.2395699180993 L208.83884397805664 279.8618046969904 L175.51944114149694 278.1334254727684 L144.21339428619814 270.4105895534383 L117.16590647641337 258.0764437996465 L95.96040515130314 242.7782962475445 L81.54649946931049 225.8343905864644 L74.42011252151254 208.10080690699255 L74.79054558600285 190.1248836688996 L82.66337264253352 172.36916769521244 L97.82936857362839 155.43321340512483 L119.76154274866416 140.26613115543594 L147.4377838984863 128.28171935155922 L179.17410199937572 121.15254174570798 L212.6408614569188 120.15541330531686 L245.19075421211767 125.44614384902295 L274.37798073967383 135.96198825151134 L298.35106288447844 150.06297060284274 L315.9321135141944 166.2662273159974 L326.46947690733106 183.55620979374845 L329.6483095362703 201.3114347267983 L325.3679678069761 219.09408084792753 L313.7107136921601 236.43341677787225 L295.0002879942915 252.6117870685058 L269.94780286016675 266.47477572969206 L239.8469911450088 276.4246007025811 L206.68929415879379 280.83796160034245 L173.0143169680609 278.85252509382144 L141.45719744932515 270.9008688873835 L114.23685320310929 258.42914733684364 L92.89319801654067 243.10228964826706 L78.33327495183993 226.2199288900505 L71.02175632018998 208.60591792412555 L71.15074238012375 190.77344381473745 L78.7234988810581 173.14702691489614 L93.54665079401202 156.27635387977702 L115.13304663977827 141.04703774629746 L142.52676153659877 128.81674736846037 L174.12352486924942 121.25869391561777 L207.65338521627226 119.74608188754372 L240.4733247489465 124.58914891452 L270.08274254108323 134.8369140769018 L294.54907797855014 148.86149559643127 L312.6247578925356 165.1228054969132 L323.616674385711 182.53558183394566 L327.1945500980932 200.4261249566669 L323.2598390022052 218.32431111855996 L311.90750471706826 235.73993705045766 L293.48033952145295 251.94432873168344 L268.7110333015682 265.78294769691513 L238.9115275855682 275.67501728757316 L206.08067127490366 280.0302334674596 L172.7512359215566 278.01719285624927 L141.5431763425943 270.0749435396658 L114.66332969042051 257.6303285302122 L93.6497637931119 242.32224641538954 L79.41691416529066 225.43387581173818 L72.44097010118357 207.78566412148345 L72.9246623531732 189.89808089208688 L80.87672014279443 172.21333575510482 L96.09907864253275 155.31252867876356 L118.08347937718327 140.12759086719467 L145.83231313179266 128.06389392944465 L177.68545085519045 120.80741479124877 L211.32590147263784 119.67378996840321 L244.1006438045411 124.86268442659075 L273.5440641663915 135.33130542625892 L297.7831329110112 149.4293914135199 L315.6262208622983 165.65046948394513 L326.4174602676369 182.95903542648207 L329.8441960718223 200.72325579318732 L325.810369640809 218.50399185874087 L314.40165664913786 235.83743909400664 L295.9404641733247 252.02177485381296 L271.12820534650524 265.92587887000593 L241.2391842740263 275.97242807795027 L208.24086390318178 280.53613558517236 L174.6567720337706 278.71935344823805 L143.12496106215403 270.90453169855846 L115.88537160415338 258.50598899049595 L94.50573638369926 243.18768539017555 L79.91679423790907 226.26706999897948 L72.59834802654568 208.58915986910804 L72.74932211968832 190.68535266314188 L80.37261416302907 172.99687842932963 L95.2670887113418 156.09257151607073 L116.92899111658285 140.88071591547057 L144.3766780651016 128.73761326280243 L175.97619595210432 121.33361245826661 L209.43623915521914 120.00479311801118 L242.113058631586 125.00517982034782 L271.52637004580555 135.34516609051224 L295.7724546331002 149.39508215173782 L313.62750461209316 165.6373078384268 L324.41152071799377 183.01212965043558 L327.7980632677348 200.8637694192441 L323.6867426724972 218.7315682013364 L312.1681115235016 236.12841952043172 L293.5803822813998 252.32338904537434 L268.6537557441654 266.15426251056067 L238.7017849998382 276.0290619264279 L205.72923979414946 280.3495908788251 L172.27589231502336 278.28808203068434 L140.9646108376743 270.29837352956645 L113.99840020280527 257.8227523913968 L92.9066082141774 242.50721792732554 L78.59388925696851 225.63341174980286 L71.5283885874145 208.01568213655932 L71.90779369937212 190.16644530490143 L79.73961276817835 172.51743592828245 L94.8298413430835 155.63466882226282 L116.68174901378346 140.42985895635854 L144.31783993950177 128.28954914171524 L176.1029931665576 120.89817660199793 L209.73958255094647 119.60051467983237 L242.5767053949206 124.64521627093504 L272.1318035411121 135.02633323591976 L296.505887770405 149.0990825090288 L314.48442027630915 165.33980121612618 L325.397355871409 182.6910035382835 L328.9261970636031 200.50380127026492 L324.97492607582086 218.32774235896275 L313.6332359793264 235.69091787521802 L295.2306274407044 251.88482921184104 L270.47798166858286 265.77415643144025 L240.6596301532797 275.7838736948589 L207.75008413634572 280.3006679944743 L174.27346658683828 278.4442263678805 L142.8620156077641 270.6084353506573 L115.74764972003264 258.20658583766743 L94.49246833495852 242.8935767269686 L80.02560580182383 225.97778433005013 L72.828270189298 208.29922069530863 L73.10195457938711 190.3886579481378 L80.85154770175248 172.6907101131929 L95.87557755791137 155.78205762857795 L117.6656579682208 140.58347452844902 L145.22981375569887 128.48487070867327 L176.91946685740177 121.16148568291594 L210.43041845433046 119.93534716505887 L243.11558371054997 125.03109578090522 L272.5035913886399 135.43342836432254 L296.70680091720976 149.5051561116696 L314.517065510461 165.7367025088636 L325.26526299738845 183.0815556100821 L328.6304853704696 200.89567529014332 L324.5134890894776 218.72776531495177 L313.00223659477535 236.09954669576985 L294.4284566432252 252.2899222813518 L269.5117065194652 266.1460664393685 L239.55207409509714 276.0787383146247 L206.54251488573613 280.4783331503813 L173.0187182423368 278.49307190725943 L141.60970331428427 270.5548187482904 L114.53080938950545 258.09944671796825 L93.32313149330994 242.78089647271895 L78.89848753234153 225.893118318053 L71.72746952315225 208.25997782384886 L72.00716465188134 190.39893191596195 L79.74318550247648 172.74300376511175 L94.73976635822387 155.8563081915973 L116.49988035393694 140.64549115729412 L144.04839379642482 128.4898561244044 L175.75538469008202 121.06847697092849 L209.32921525958344 119.72850595699592 L242.12200342424478 124.72982900395158 L271.6488282403993 135.07940884324373 L296.00409232146797 149.13896297869871 L313.965593618189 165.38372590897097 L324.85704227895377 182.75121845393716 L328.3560045748577 200.58684913891125 L324.3649108280062 218.43441855275321 L312.9744918626529 235.81516901858114 L294.51860877105935 252.011514788662 L269.7166547842115 265.877939649552 L239.86505560808322 275.83384688693496 L206.95026910844234 280.27330608878117 L173.50210561831688 278.33751976128235 L142.14855337364494 270.4435367879261 L115.10998266130491 258.01475792651667 L93.93598693038811 242.7013911269947 L79.5468130360168 225.80078444911885 L72.41934260851936 208.1430051191019 L72.75421214247491 190.25225934343945 L80.55759771686942 172.56930035948062 L95.63055737439282 155.66862275180432 L117.46784758434349 140.47032366638734 L145.0804817617802 128.3658696787418 L176.82164770777644 121.03471020536476 L210.3868491545231 119.80400808816255 L243.12699106345488 124.90089199582285 L272.568577438051 135.30816827116567 L296.8232234867453 149.3844910063272 L314.68368505380647 165.61697658896708 L325.4826951043178 182.95791822950366 L328.9012980090465 200.76392401150224 L324.84161189390363 218.58586517908262 L313.3916878418984 235.94947247869248 L294.88116727982634 252.14006851963998 L270.0244069935498 266.01290374879005 L240.11322154142835 275.98432361114055 L207.13167034641796 280.4411266730313 L173.6105321559141 278.5166127884082 L142.1812037906349 270.6247932943873 L115.06737004082858 258.19227116497314 L93.8199151773646 242.87492958590786 L79.35821959659961 225.9742917988499 L72.15712365043578 208.32183356162528 L72.41516041403533 190.4407186249889 L80.13731904152651 172.76832084451738 L95.12547428640902 155.8728326305082 L116.87851987804646 140.6649373123396 L144.41580177230333 128.52634687574215 L176.10175474135357 121.13381898894978 L209.64138129083156 119.8261078582855 L242.3876004425767 124.85272789809454 L271.8598095230452 135.2151294522331 L296.1575159682135 149.2765884430844 L314.06205676380307 165.51749381719083 L324.89851104290346 182.88008510908918 L328.3442484400563 200.71243722453156 L324.3008191592754 218.55899723416567 L312.85818006887115 235.93986575905532 L294.35028070253566 252.13447059533422 L269.4982107155178 265.992760796452 L239.60201025515119 275.93003847136026 L206.65271279605275 280.3405252970589 L173.18327320755282 278.372047486527 L141.82120602133142 270.45131059233717 L114.7828794427085 258.0080240754916 L93.61248918594069 242.6927926292309 L79.22560798858541 225.79964558302157 L72.09607345048089 208.15455517276422 L72.4231108323635 190.2780832588261 L80.2129528605414 172.60750335003436 L95.26827863185127 155.71320978665113 L117.08736926005454 140.51040880686128 L144.68672352479828 128.38658576701272 L176.4258372020801 121.02192332092088 L210.0046727478927 119.75170288149579 L242.7741298641289 124.81512365074582 L272.25622746034924 135.20311358043017 L296.5563425910187 149.27454417668503 L314.46212789544046 165.51166397321532 L325.3035001249806 182.86131559505043 L328.7606625130171 200.676285817138 L324.7361130743561 218.50537360820357 L313.3188722139432 235.87349607759114 L294.8396778211535 252.06617463340706 L270.01367786187666 265.9399284721778 L240.13274153637138 275.9132517227706 L207.18007941386134 280.3748371614354 L173.68518638868065 278.4579442363476 L142.27869980280448 270.5742544603917 L115.18471845445028 258.1474610533514 L93.95553575607987 242.83180206263654 L79.51228171104619 225.9287665483207 L72.33132952784788 208.27078538589603 L72.61223199835437 190.3824797765723 L80.36028013756865 172.7032430097484 L95.37661499242331 155.80425928287664 L117.15790241854702 140.6002875593828 L144.7195121050241 128.47692736867862 L176.42085295322642 121.11145063049477 L209.96294509078558 119.83695529828219 L242.6981418428092 124.89312322667365 L272.1491494841728 135.273795463324 L296.42069700916784 149.34090523406172 L314.2988080760843 165.57817826809674 L325.1115139094319 182.93228583650924 L328.53743865974866 200.75481354290298 L324.478163414556 218.59259217385898 L313.02282660136257 235.9674807775021 L294.5038824896891 252.1603967700633 L269.64038788717755 266.0222624038774 L239.7302033015897 275.9679348573986 L206.7628147711447 280.3890471471493 L173.27103796873467 278.4296176568774 L141.8836660176263 270.5137940196082 L114.8188559704191 258.0714423071481 L93.62209456812586 242.75510467945014 L79.20937431668776 225.86079278808282 L72.05428696305246 208.2156088712901 L72.35553661727829 190.34031493755765 " stroke = "black" stroke-width = "2" fill = "none" /></svg>