<svg width="400" height="110" viewbox = "0 0 400 110"  xmlns="http://www.w3.org/2000/svg">
	<path d = "M0 105 L1 104.99522746438815 L2 104.99498278353163 L3 104.99472555891042 L4 104.99445514752772 L5 104.99417087343389 L6 104.99387202603833 L7 104.9935578583352 L8 104.99322758503803 L9 104.9928803806192 L10 104.99251537724894 L11 104.99213166262886 L12 104.99172827771483 L13 104.99130421432321 L14 104.99085841261478 L15 104.99038975845005 L16 104.98989708060923 L17 104.98937914787017 L18 104.98883466593705 L19 104.98826227421189 L20 104.98766054240137 L21 104.98702796695015 L22 104.98636296729205 L23 104.98566388190987 L24 104.98492896419403 L25 104.98415637808975 L26 104.98334419352227 L27 104.98249038158852 L28 104.98159280950365 L29 104.98064923528987 L30 104.97965730219448 L31 104.97861453282354 L32 104.97751832297668 L33 104.97636593516778 L34 104.97515449181607 L35 104.97388096809043 L36 104.97254218438987 L37 104.97113479844153 L38 104.9696552969971 L39 104.96809998710732 L40 104.96646498695335 L41 104.96474621621287 L42 104.96293938593736 L43 104.96103998791612 L44 104.9590432835014 L45 104.95694429186754 L46 104.95473777767594 L47 104.95241823811617 L48 104.94997988929205 L49 104.94741665192034 L50 104.94472213630765 L51 104.94188962656983 L52 104.93891206405657 L53 104.93578202994141 L54 104.93249172693672 L55 104.92903296008994 L56 104.92539711661634 L57 104.9215751447209 L58 104.91755753136017 L59 104.91333427889208 L60 104.90889488055993 L61 104.90422829475398 L62 104.89932291799144 L63 104.8941665565534 L64 104.88874639671397 L65 104.88304897349445 L66 104.87706013787226 L67 104.87076502237127 L68 104.8641480049571 L69 104.85719267115775 L70 104.84988177432629 L71 104.84219719395962 L72 104.83411989198255 L73 104.82562986690452 L74 104.81670610575073 L75 104.80732653366725 L76 104.79746796109501 L77 104.78710602840358 L78 104.77621514787236 L79 104.76476844290218 L80 104.75273768433652 L81 104.74009322376767 L82 104.7268039236989 L83 104.71283708442996 L84 104.69815836752916 L85 104.68273171575149 L86 104.66651926925866 L87 104.64948127799337 L88 104.6315760100564 L89 104.61275965593289 L90 104.59298622841038 L91 104.57220745802951 L92 104.55037268390588 L93 104.52742873976045 L94 104.5033198349943 L95 104.47798743064416 L96 104.45137011005497 L97 104.4234034441075 L98 104.39401985084159 L99 104.36314844931844 L100 104.33071490757152 L101 104.29664128450048 L102 104.2608458655718 L103 104.22324299219851 L104 104.18374288468401 L105 104.1422514586288 L106 104.09867013471522 L107 104.05289564180539 L108 104.00481981330957 L109 103.95432937680819 L110 103.90130573694069 L111 103.84562475160777 L112 103.78715650157258 L113 103.72576505358884 L114 103.66130821723353 L115 103.59363729567545 L116 103.5225968306727 L117 103.44802434215912 L118 103.3697500628559 L119 103.28759666842723 L120 103.20137900379085 L121 103.1109038062961 L122 103.01596942659225 L123 102.91636554813195 L124 102.81187290638695 L125 102.70226300899743 L126 102.58729785823309 L127 102.46672967731283 L128 102.34030064231341 L129 102.2077426215927 L130 102.06877692486437 L131 101.9231140642852 L132 101.77045353015495 L133 101.61048358408219 L134 101.44288107273638 L135 101.26731126558705 L136 101.08342772032357 L137 100.8908721799535 L138 100.68927450589139 L139 100.47825265167126 L140 100.25741268224331 L141 100.02634884414432 L142 99.78464369215823 L143 99.53186827840592 L144 99.26758241011312 L145 98.99133498259924 L146 98.70266439430036 L147 98.40109905087812 L148 98.08615796566532 L149 97.75735146384822 L150 97.41418199787564 L151 97.05614508160217 L152 96.68273035060776 L153 96.29342275597287 L154 95.88770389851439 L155 95.46505351008905 L156 95.02495108803149 L157 94.56687768809988 L158 94.0903178804387 L159 93.59476187202091 L160 93.07970779778825 L161 92.54466418125836 L162 91.98915256370022 L163 91.41271029909058 L164 90.81489350995122 L165 90.19528019683105 L166 89.55347349164653 L167 88.88910504234147 L168 88.20183851339246 L169 87.49137318359601 L170 86.75744761936437 L171 85.9998433984687 L172 85.21838885585818 L173 84.41296281990527 L174 83.58349830425587 L175 82.72998611746911 L176 81.85247834990176 L177 80.9510916949111 L178 80.02601055951176 L179 79.0774899182154 L180 78.1058578630005 L181 77.1115178022863 L182 76.0949502625004 L183 75.0567142473973 L184 73.99744811276125 L185 72.91786991753929 L186 71.81877721681661 L187 70.70104626734988 L188 69.56563062257955 L189 68.41355910108007 L190 67.24593312018547 L191 66.0639233949222 L192 64.8687660112452 L193 63.661757891733004 L194 62.444251681165895 L195 61.2176500885798 L196 59.983399731247786 L197 58.742984534374955 L198 57.497918747894005 L199 56.249739648421034 L200 55 L201 53.750260351578966 L202 52.502081252105995 L203 51.25701546562504 L204 50.01660026875221 L205 48.78234991142019 L206 47.5557483188341 L207 46.338242108266996 L208 45.1312339887548 L209 43.936076605077794 L210 42.75406687981454 L211 41.58644089891994 L212 40.43436937742047 L213 39.29895373265012 L214 38.18122278318339 L215 37.08213008246071 L216 36.00255188723875 L217 34.943285752602705 L218 33.905049737499596 L219 32.8884821977137 L220 31.894142136999506 L221 30.922510081784594 L222 29.973989440488225 L223 29.0489083050889 L224 28.14752165009824 L225 27.27001388253089 L226 26.416501695744145 L227 25.58703718009474 L228 24.781611144141834 L229 24.000156601531287 L230 23.24255238063563 L231 22.50862681640399 L232 21.798161486607555 L233 21.110894957658516 L234 20.44652650835347 L235 19.80471980316895 L236 19.18510649004878 L237 18.587289700909437 L238 18.010847436299784 L239 17.455335818741645 L240 16.920292202211755 L241 16.40523812797909 L242 15.909682119561296 L243 15.43312231190012 L244 14.975048911968514 L245 14.53494648991095 L246 14.112296101485612 L247 13.70657724402713 L248 13.31726964939223 L249 12.943854918397847 L250 12.585818002124356 L251 12.242648536151776 L252 11.913842034334678 L253 11.598900949121884 L254 11.297335605699644 L255 11.008665017400759 L256 10.732417589886879 L257 10.468131721594077 L258 10.215356307841773 L259 9.973651155855677 L260 9.742587317756673 L261 9.52174734832876 L262 9.31072549410861 L263 9.109127820046496 L264 8.91657227967643 L265 8.732688734412946 L266 8.55711892726363 L267 8.38951641591781 L268 8.229546469845062 L269 8.076885935714799 L270 7.93122307513562 L271 7.7922573784072995 L272 7.659699357686591 L273 7.533270322687173 L274 7.412702141766914 L275 7.297736991002566 L276 7.188127093613048 L277 7.0836344518680505 L278 6.98403057340775 L279 6.889096193703892 L280 6.798620996209152 L281 6.712403331572773 L282 6.630249937144086 L283 6.5519756578408845 L284 6.477403169327303 L285 6.40636270432455 L286 6.338691782766475 L287 6.27423494641117 L288 6.212843498427432 L289 6.154375248392242 L290 6.098694263059315 L291 6.0456706231918105 L292 5.995180186690419 L293 5.947104358194608 L294 5.901329865284779 L295 5.857748541371194 L296 5.816257115315992 L297 5.776757007801493 L298 5.739154134428205 L299 5.703358715499519 L300 5.669285092428481 L301 5.6368515506815555 L302 5.6059801491584125 L303 5.576596555892479 L304 5.548629889945033 L305 5.5220125693558515 L306 5.496680165005699 L307 5.472571260239533 L308 5.449627316094123 L309 5.42779254197049 L310 5.407013771589618 L311 5.387240344067095 L312 5.368423989943594 L313 5.350518722006626 L314 5.333480730741329 L315 5.317268284248513 L316 5.30184163247084 L317 5.287162915570036 L318 5.2731960763011045 L319 5.259906776232327 L320 5.247262315663477 L321 5.235231557097819 L322 5.223784852127636 L323 5.212893971596415 L324 5.202532038904991 L325 5.192673466332749 L326 5.183293894249275 L327 5.174370133095479 L328 5.165880108017433 L329 5.1578028060403796 L330 5.150118225673708 L331 5.142807328842267 L332 5.135851995042884 L333 5.129234977628727 L334 5.122939862127751 L335 5.1169510265055465 L336 5.1112536032860305 L337 5.105833443446599 L338 5.100677082008559 L339 5.0957717052460225 L340 5.0911051194400585 L341 5.08666572110792 L342 5.082442468639826 L343 5.078424855279096 L344 5.074602883383662 L345 5.070967039910059 L346 5.067508273063282 L347 5.064217970058593 L348 5.0610879359434335 L349 5.058110373430168 L350 5.055277863692353 L351 5.052583348079665 L352 5.050020110707962 L353 5.047581761883848 L354 5.045262222324055 L355 5.0430557081324565 L356 5.040956716498599 L357 5.0389600120838764 L358 5.037060614062639 L359 5.035253783787127 L360 5.033535013046645 L361 5.031900012892677 L362 5.030344703002896 L363 5.0288652015584745 L364 5.027457815610134 L365 5.026119031909559 L366 5.02484550818393 L367 5.023634064832223 L368 5.022481677023322 L369 5.021385467176444 L370 5.020342697805518 L371 5.019350764710126 L372 5.018407190496347 L373 5.017509618411481 L374 5.016655806477743 L375 5.01584362191025 L376 5.015071035805974 L377 5.014336118090114 L378 5.013637032707948 L379 5.012972033049834 L380 5.012339457598614 L381 5.011737725788109 L382 5.011165334062952 L383 5.010620852129833 L384 5.010102919390775 L385 5.00961024154995 L386 5.009141587385216 L387 5.008695785676792 L388 5.008271722285173 L389 5.007868337371136 L390 5.007484622751065 L391 5.007119619380802 L392 5.006772414961972 L393 5.006442141664806 L394 5.006127973961668 L395 5.005829126566113 L396 5.005544852472283 L397 5.005274441089583 L398 5.005017216468374 L399 5.004772535611835 " stroke = "black" stroke-width = "2" fill = "none" /></svg>