<svg width="400" height="300" viewbox = "0 0 400 300"  xmlns="http://www.w3.org/2000/svg">

<!--
<json>
{
    "sigma": 20,
    "height": 300,
    "width": 400,
    "N": 200,
    "lineWidth": 2,
    "color": "black"
}
</json>
-->
	<path d = "M0 132 L2.0100502512562812 164.2493529028996 L4.0201005025125625 159.48806088022056 L6.030150753768844 143.3033181510935 L8.040201005025125 132.83854684964723 L10.050251256281406 141.89771918059728 L12.060301507537687 127.74132255746657 L14.070351758793969 188.06178126547178 L16.08040201005025 150.08085541797348 L18.09045226130653 169.60682505488643 L20.100502512562812 146.91143271627763 L22.110552763819094 149.7907074267646 L24.120603015075375 173.12169088959538 L26.130653266331656 165.85185262015906 L28.140703517587937 98.07563736247914 L30.15075376884422 163.06596290068177 L32.1608040201005 138.51621862944842 L34.17085427135678 149.12484131917748 L36.18090452261306 161.48175921352333 L38.19095477386934 181.49531278910004 L40.201005025125625 139.28651865305804 L42.211055276381906 152.2982607845273 L44.22110552763819 147.60940385858345 L46.23115577889447 134.14172159044227 L48.24120603015075 154.85488705111408 L50.25125628140703 185.29028186727504 L52.26130653266331 146.16613547363514 L54.27135678391959 115.16441546640607 L56.281407035175874 146.83122382466902 L58.291457286432156 174.50917751701255 L60.30150753768844 125.29570545281013 L62.31155778894472 172.64002192391547 L64.321608040201 155.03659586491273 L66.33165829145727 118.73097086912583 L68.34170854271355 150.03721720978976 L70.35175879396982 120.04450067348358 L72.3618090452261 155.4776646025747 L74.37185929648237 145.8859090197946 L76.38190954773864 136.36199804332728 L78.39195979899492 159.0728871331329 L80.40201005025119 114.04047084311856 L82.41206030150747 153.4161335359388 L84.42211055276374 118.46758372852617 L86.43216080402001 160.95445934943143 L88.44221105527629 169.51542481648335 L90.45226130653256 141.8929824126432 L92.46231155778884 155.12729033181026 L94.47236180904511 155.97834000163513 L96.48241206030139 154.38183367332817 L98.49246231155766 143.55215203091137 L100.50251256281393 135.42483855557947 L102.51256281407021 150.66815211974964 L104.52261306532648 133.38318703440345 L106.53266331658276 162.14442778110495 L108.54271356783903 129.66825408090392 L110.5527638190953 139.24802062884186 L112.56281407035158 123.75188191319751 L114.57286432160785 166.67046561586585 L116.58291457286413 163.32082372562832 L118.5929648241204 138.10584486003447 L120.60301507537667 141.97069243094467 L122.61306532663295 155.24926930396404 L124.62311557788922 132.4970491829905 L126.6331658291455 125.71788230841307 L128.64321608040177 175.0990235511673 L130.65326633165805 130.39179138482314 L132.66331658291432 130.29054993285345 L134.6733668341706 140.0858363898048 L136.68341708542687 132.70781659261837 L138.69346733668314 136.61311588900585 L140.70351758793942 137.06182375335385 L142.7135678391957 141.49550901758 L144.72361809045196 106.09058037770865 L146.73366834170824 128.60843223404814 L148.7437185929645 152.40028731462326 L150.7537688442208 137.90618026273467 L152.76381909547706 160.4387336098695 L154.77386934673333 150.0390563027738 L156.7839195979896 143.34085071436894 L158.79396984924588 155.59354604583822 L160.80402010050216 147.8787060801614 L162.81407035175843 139.45732751933465 L164.8241206030147 144.8184802539575 L166.83417085427098 160.44011253853418 L168.84422110552725 138.94309115766032 L170.85427135678353 140.7706000180813 L172.8643216080398 136.62293524904996 L174.87437185929608 178.69721195348546 L176.88442211055235 152.97948021695805 L178.89447236180862 149.3279719389145 L180.9045226130649 131.21405868521467 L182.91457286432117 146.3647280869739 L184.92462311557745 163.51736449442242 L186.93467336683372 142.01405342252744 L188.94472361809 164.21118032527738 L190.95477386934627 143.28267510459594 L192.96482412060254 169.4703324268891 L194.97487437185882 141.9693561236264 L196.9849246231151 145.95475459325186 L198.99497487437137 133.0059714052074 L201.00502512562764 144.0901725543231 L203.0150753768839 144.37332527219428 L205.0251256281402 146.41394869364353 L207.03517587939646 100.26487254408929 L209.04522613065274 161.0093295739978 L211.055276381909 161.3430906852417 L213.06532663316528 146.9802915220575 L215.07537688442156 166.9455519166011 L217.08542713567783 164.4694152545944 L219.0954773869341 141.49106005104764 L221.10552763819038 147.75368990566082 L223.11557788944666 172.58261355215703 L225.12562814070293 137.731782982444 L227.1356783919592 136.93122883631227 L229.14572864321548 160.25242869874614 L231.15577889447175 127.73384833980053 L233.16582914572803 141.11783839821345 L235.1758793969843 149.5728624874094 L237.18592964824057 152.34601660511774 L239.19597989949685 155.72175757630737 L241.20603015075312 204.3745394965206 L243.2160804020094 126.98383561815785 L245.22613065326567 131.95493592797948 L247.23618090452194 138.00342141537035 L249.24623115577822 122.97372369471495 L251.2562814070345 130.40293546618202 L253.26633165829077 170.38385872381565 L255.27638190954704 149.13663863912382 L257.2864321608033 114.52229862283748 L259.2964824120596 152.84123178629355 L261.3065326633159 160.61613091690432 L263.3165829145722 151.48347511161543 L265.3266331658285 122.94357252956746 L267.3366834170848 150.5241990680875 L269.34673366834113 145.42945821061548 L271.35678391959743 142.56925025644443 L273.36683417085374 139.44981127126954 L275.37688442211004 162.59647436495342 L277.38693467336634 112.91938058585156 L279.39698492462264 144.5881200087011 L281.40703517587895 134.50494440980725 L283.41708542713525 143.13269944760626 L285.42713567839155 128.56942523716694 L287.43718592964785 123.83335330635438 L289.44723618090416 133.38374369448084 L291.45728643216046 161.15833281291862 L293.46733668341676 150.8583750597467 L295.47738693467306 178.86652493552563 L297.48743718592937 146.54421293746202 L299.49748743718567 165.7977118060536 L301.50753768844197 146.44605626195155 L303.5175879396983 162.8686493149169 L305.5276381909546 165.10560644115938 L307.5376884422109 154.18584908856604 L309.5477386934672 162.4860268562138 L311.5577889447235 159.06159175357485 L313.5678391959798 126.22393523030388 L315.5778894472361 134.91706756560288 L317.5879396984924 167.35733830300356 L319.5979899497487 177.31619425808287 L321.608040201005 137.28539099173528 L323.6180904522613 161.25799153723887 L325.6281407035176 163.86124157275847 L327.6381909547739 153.59395532565105 L329.6482412060302 142.27056605298512 L331.6582914572865 141.69893162328523 L333.6683417085428 177.43382757038708 L335.6783919597991 139.44293712294228 L337.6884422110554 145.84757845526943 L339.6984924623117 182.77913154284713 L341.708542713568 141.2697344661613 L343.7185929648243 160.33570721798182 L345.7286432160806 194.88629983212053 L347.73869346733693 159.88471033184896 L349.74874371859323 169.17446670452867 L351.75879396984953 157.61587926259628 L353.76884422110584 148.17865025878325 L355.77889447236214 162.86458010416743 L357.78894472361844 133.6084360472626 L359.79899497487474 127.56885402693494 L361.80904522613105 160.87395360425913 L363.81909547738735 154.32986041941948 L365.82914572864365 136.7766541546724 L367.83919597989996 164.6768428510875 L369.84924623115626 128.3268046694352 L371.85929648241256 135.81470455749545 L373.86934673366886 161.5612209771708 L375.87939698492517 149.57571120303035 L377.88944723618147 164.86037829203798 L379.89949748743777 135.3137470303058 L381.9095477386941 154.23069417799667 L383.9195979899504 140.76453751402164 L385.9296482412067 110.98425677901416 L387.939698492463 146.56932334913563 L389.9497487437193 164.7367594161717 L391.9597989949756 154.55730087128453 L393.9698492462319 155.30741267502196 L395.9798994974882 157.93820393995625 L397.9899497487445 126.42108438189751 " stroke = "black" stroke-width = "2" fill = "none" /></svg>