<svg width="100" height="100" viewbox = "0 0 100 100"  xmlns="http://www.w3.org/2000/svg">

<!--
<json>
{
    "sigma": 5,
    "height": 100,
    "width": 100,
    "N": 50,
    "lineWidth": "3",
    "color": "red"
}
</json>
-->
	<path d = "M0 40 L2.0408163265306123 60.394892307657614 L4.081632653061225 49.4284317098014 L6.122448979591837 55.02564070648027 L8.16326530612245 47.30306369467595 L10.204081632653061 49.0432771220138 L12.244897959183673 51.13949812219824 L14.285714285714285 43.840766978184654 L16.3265306122449 47.90710342805873 L18.367346938775512 52.72469087685981 L20.408163265306126 58.15953857059507 L22.44897959183674 43.36262296309534 L24.489795918367353 42.0407930992635 L26.530612244897966 49.020244058110016 L28.57142857142858 54.47790713536664 L30.612244897959194 54.57348470583146 L32.653061224489804 38.28878547206163 L34.693877551020414 54.875261603830666 L36.734693877551024 44.94499054365025 L38.775510204081634 50.361779049791295 L40.816326530612244 53.92691652712389 L42.857142857142854 57.0105296038314 L44.897959183673464 41.2508825844083 L46.938775510204074 52.483160094494465 L48.979591836734684 51.585526478773005 L51.020408163265294 56.71356641690113 L53.061224489795904 58.132590291604146 L55.102040816326515 52.183059288523644 L57.142857142857125 51.328634374924356 L59.183673469387735 41.95473861454963 L61.224489795918345 48.87954162824073 L63.265306122448955 52.97305736861042 L65.30612244897956 54.259141365722975 L67.34693877551018 44.61831238725785 L69.3877551020408 46.519904967171655 L71.42857142857142 60.288027421429405 L73.46938775510203 47.77620861473654 L75.51020408163265 50.3685903966808 L77.55102040816327 60.19718052471385 L79.59183673469389 49.79330427373783 L81.6326530612245 37.742090884397896 L83.67346938775512 53.84849598008021 L85.71428571428574 47.22943374475674 L87.75510204081635 49.94268845145861 L89.79591836734697 53.6634983668227 L91.83673469387759 48.66875929387163 L93.8775510204082 43.72319241394074 L95.91836734693882 57.23097696987041 L97.95918367346944 57.096801808789124 " stroke = "red" stroke-width = "3" fill = "none" /></svg>