<svg width="400" height="200" viewbox = "0 0 400 200"  xmlns="http://www.w3.org/2000/svg">
	<path d = "M0 0 L1 0.9999990933850711 L2 1.999999003070485 L3 2.9999989037870307 L4 3.9999987946470696 L5 4.999998674675538 L6 5.999998542801279 L7 6.999998397847662 L8 7.99999823852221 L9 8.999998063405172 L10 9.999997870937364 L11 10.999997659405977 L12 11.999997426930094 L13 12.999997171443908 L14 13.99999689067883 L15 14.99999658214361 L16 15.99999624310243 L17 16.999995870551317 L18 17.99999546119193 L19 18.999995011402603 L20 19.999994517207227 L21 20.99999397424031 L22 21.999993377709472 L23 22.99999272235374 L24 23.999992002397903 L25 24.99999121150273 L26 25.999990342710078 L27 26.999989388382772 L28 27.99998834013911 L29 28.99998718878021 L30 29.999985924211188 L31 30.99998453535426 L32 31.999983010053796 L33 32.99998133497212 L34 33.99997949547509 L35 34.999977475507336 L36 35.999975257454764 L37 36.99997282199456 L38 37.99997014793058 L39 38.99996721201276 L40 39.999963988740035 L41 40.99996045014353 L42 41.99995656554984 L43 42.99995230132137 L44 43.99994762057227 L45 44.99994248285708 L46 45.99993684383011 L47 46.99993065487237 L48 47.99992386268323 L49 48.99991640883337 L50 49.999908229275775 L51 50.99989925381013 L52 51.99988940549704 L53 52.99987860001704 L54 53.99986674496927 L55 54.99985373910408 L56 55.999839471484165 L57 56.999823820566405 L58 57.99980665319819 L59 58.999787823519966 L60 59.99976717176506 L61 60.99974452294771 L62 61.99971968542931 L63 62.99969244935073 L64 63.99966258491969 L65 64.9996298405392 L66 65.99959394076271 L67 66.99955458406043 L68 67.9995114403797 L69 68.99946414848043 L70 69.99941231302583 L71 70.99935550140594 L72 71.99929324027033 L73 72.99922501174368 L74 73.99915024929562 L75 74.99906833323499 L76 75.99897858579375 L77 76.99888026576532 L78 77.99877256265731 L79 78.99865459031571 L80 79.99852537997482 L81 80.99838387268167 L82 81.9982289110408 L83 82.99805923022 L84 83.99787344815303 L85 84.99767005486974 L86 85.9974474008783 L87 86.99720368451823 L88 87.9969369381964 L89 88.99664501341036 L90 89.99632556445682 L91 90.99597603071354 L92 91.99559361737516 L93 92.99517527451344 L94 93.99471767432244 L95 94.9942171863984 L96 95.99366985089208 L97 96.99307134935977 L98 97.99241697312493 L99 98.99170158894947 L100 99.99091960179805 L101 100.9900649144631 L102 101.98913088380141 L103 102.98811027331567 L104 103.98699520179521 L105 104.98577708771032 L106 105.98444658903396 L107 106.98299353814235 L108 107.98140687142339 L109 108.97967455319736 L110 109.97778349352969 L111 110.97571945948935 L112 111.9734669793794 L113 112.9710092394388 L114 113.96832797248541 L115 114.9654033379418 L116 115.96221379265461 L117 116.95873595188976 L118 117.95494443985413 L119 118.95081172906586 L120 119.9463079678654 L121 120.94140079533085 L122 121.93605514283445 L123 122.93023302145107 L124 123.92389329440712 L125 124.91699143373724 L126 125.90947926030074 L127 126.90130466629685 L128 127.89241131941169 L129 128.88273834772963 L130 129.87222000454895 L131 130.8607853122575 L132 131.8483576844507 L133 132.83485452551153 L134 133.8201868069231 L135 134.80425861965 L136 135.78696670200804 L137 136.76819994254151 L138 137.74783885755156 L139 138.72575504306158 L140 139.70181060117864 L141 140.67585754100548 L142 141.64773715448686 L143 142.6172793678332 L144 143.58430206945954 L145 144.54861041570825 L146 145.50999611599352 L147 146.4682366994164 L148 147.42309476534925 L149 148.37431722098333 L150 149.32163450936957 L151 150.26475983206177 L152 151.20338837109188 L153 152.13719651566626 L154 153.0658410996682 L155 153.9889586567763 L156 154.90616470076327 L157 155.81705303930624 L158 156.7211951304197 L159 157.61813949139597 L160 158.50741117089808 L161 159.3885112955764 L162 160.26091670326122 L163 161.1240796753932 L164 161.97742778187734 L165 162.82036385195403 L166 163.65226608495607 L167 164.4724883149291 L168 165.28036044301513 L169 166.07518905120423 L170 166.85625821052463 L171 167.62283049593862 L172 168.3741482191229 L173 169.1094348889157 L174 169.82789690749522 L175 170.5287255083074 L176 171.2110989393836 L177 171.8741848929848 L178 172.5171431794971 L179 173.13912864020392 L180 173.73929429001336 L181 174.31679467746727 L182 174.8707894454598 L183 175.40044707211587 L184 175.9049487673007 L185 176.38349249633396 L186 176.8352970987632 L187 177.25960646660175 L188 177.65569374336002 L189 178.02286550258972 L190 178.36046586261347 L191 178.66788049270986 L192 178.9445404653425 L193 179.1899259091175 L194 179.40356941806954 L195 179.58505917463202 L196 179.7340417462421 L197 179.8502245189395 L198 179.93337773549203 L199 179.9833361104499 L200 180 L201 179.9833361104499 L202 179.93337773549203 L203 179.8502245189395 L204 179.7340417462421 L205 179.58505917463202 L206 179.40356941806954 L207 179.1899259091175 L208 178.9445404653425 L209 178.66788049270986 L210 178.36046586261347 L211 178.02286550258972 L212 177.65569374336002 L213 177.25960646660175 L214 176.8352970987632 L215 176.38349249633396 L216 175.9049487673007 L217 175.40044707211587 L218 174.8707894454598 L219 174.31679467746727 L220 173.73929429001336 L221 173.13912864020392 L222 172.5171431794971 L223 171.8741848929848 L224 171.2110989393836 L225 170.5287255083074 L226 169.82789690749522 L227 169.1094348889157 L228 168.3741482191229 L229 167.62283049593862 L230 166.85625821052463 L231 166.07518905120423 L232 165.28036044301513 L233 164.4724883149291 L234 163.65226608495607 L235 162.82036385195403 L236 161.97742778187734 L237 161.1240796753932 L238 160.26091670326122 L239 159.3885112955764 L240 158.50741117089808 L241 157.61813949139597 L242 156.7211951304197 L243 155.81705303930624 L244 154.90616470076327 L245 153.9889586567763 L246 153.0658410996682 L247 152.13719651566626 L248 151.20338837109188 L249 150.26475983206177 L250 149.32163450936957 L251 148.37431722098333 L252 147.42309476534925 L253 146.4682366994164 L254 145.50999611599352 L255 144.54861041570825 L256 143.58430206945954 L257 142.6172793678332 L258 141.64773715448686 L259 140.67585754100548 L260 139.70181060117864 L261 138.72575504306158 L262 137.74783885755156 L263 136.76819994254151 L264 135.78696670200804 L265 134.80425861965 L266 133.8201868069231 L267 132.83485452551153 L268 131.8483576844507 L269 130.8607853122575 L270 129.87222000454895 L271 128.88273834772963 L272 127.89241131941169 L273 126.90130466629685 L274 125.90947926030074 L275 124.91699143373724 L276 123.92389329440712 L277 122.93023302145107 L278 121.93605514283445 L279 120.94140079533085 L280 119.9463079678654 L281 118.95081172906586 L282 117.95494443985413 L283 116.95873595188976 L284 115.96221379265461 L285 114.9654033379418 L286 113.96832797248541 L287 112.9710092394388 L288 111.9734669793794 L289 110.97571945948935 L290 109.97778349352969 L291 108.97967455319736 L292 107.98140687142339 L293 106.98299353814235 L294 105.98444658903396 L295 104.98577708771032 L296 103.98699520179521 L297 102.98811027331567 L298 101.98913088380141 L299 100.9900649144631 L300 99.99091960179805 L301 98.99170158894947 L302 97.99241697312493 L303 96.99307134935977 L304 95.99366985089208 L305 94.9942171863984 L306 93.99471767432244 L307 92.99517527451344 L308 91.99559361737516 L309 90.99597603071354 L310 89.99632556445682 L311 88.99664501341036 L312 87.9969369381964 L313 86.99720368451823 L314 85.9974474008783 L315 84.99767005486974 L316 83.99787344815303 L317 82.99805923022 L318 81.9982289110408 L319 80.99838387268167 L320 79.99852537997482 L321 78.99865459031571 L322 77.99877256265731 L323 76.99888026576532 L324 75.99897858579375 L325 74.99906833323499 L326 73.99915024929562 L327 72.99922501174368 L328 71.99929324027033 L329 70.99935550140594 L330 69.99941231302583 L331 68.99946414848043 L332 67.9995114403797 L333 66.99955458406043 L334 65.99959394076271 L335 64.9996298405392 L336 63.99966258491969 L337 62.99969244935073 L338 61.99971968542931 L339 60.99974452294771 L340 59.99976717176506 L341 58.999787823519966 L342 57.99980665319819 L343 56.999823820566405 L344 55.999839471484165 L345 54.99985373910408 L346 53.99986674496927 L347 52.99987860001704 L348 51.99988940549704 L349 50.99989925381013 L350 49.999908229275775 L351 48.99991640883337 L352 47.99992386268323 L353 46.99993065487237 L354 45.99993684383011 L355 44.99994248285708 L356 43.99994762057227 L357 42.99995230132137 L358 41.99995656554984 L359 40.99996045014353 L360 39.999963988740035 L361 38.99996721201276 L362 37.99997014793058 L363 36.99997282199456 L364 35.999975257454764 L365 34.999977475507336 L366 33.99997949547509 L367 32.99998133497212 L368 31.999983010053796 L369 30.99998453535426 L370 29.999985924211188 L371 28.99998718878021 L372 27.99998834013911 L373 26.999989388382772 L374 25.999990342710078 L375 24.99999121150273 L376 23.999992002397903 L377 22.99999272235374 L378 21.999993377709472 L379 20.99999397424031 L380 19.999994517207227 L381 18.999995011402603 L382 17.99999546119193 L383 16.999995870551317 L384 15.99999624310243 L385 14.99999658214361 L386 13.99999689067883 L387 12.999997171443908 L388 11.999997426930094 L389 10.999997659405977 L390 9.999997870937364 L391 8.999998063405172 L392 7.99999823852221 L393 6.999998397847662 L394 5.999998542801279 L395 4.999998674675538 L396 3.9999987946470696 L397 2.9999989037870307 L398 1.999999003070485 L399 0.9999990933850711 " stroke = "black" stroke-width = "2" fill = "none" /></svg>