<svg width="1000" height="250" viewbox = "0 0 1000 250"  xmlns="http://www.w3.org/2000/svg">
	<path d = "M0 0 L1 0.4999999999999716 L2 1 L3 1.5 L4 2 L5 2.5000000000000284 L6 3 L7 3.5 L8 3.9999999999999716 L9 4.5 L10 5 L11 5.5 L12 6.000000000000028 L13 6.5 L14 7 L15 7.499999999999972 L16 8 L17 8.5 L18 9 L19 9.500000000000028 L20 10 L21 10.5 L22 10.999999999999972 L23 11.5 L24 12 L25 12.5 L26 13.000000000000028 L27 13.5 L28 14 L29 14.499999999999972 L30 15 L31 15.5 L32 16 L33 16.50000000000003 L34 17 L35 17.5 L36 17.99999999999997 L37 18.5 L38 19 L39 19.5 L40 20.00000000000003 L41 20.5 L42 21 L43 21.49999999999997 L44 22 L45 22.5 L46 23 L47 23.50000000000003 L48 24 L49 24.5 L50 24.99999999999997 L51 25.5 L52 26 L53 26.5 L54 27 L55 27.5 L56 28 L57 28.5 L58 29 L59 29.5 L60 30 L61 30.5 L62 31 L63 31.5 L64 32 L65 32.5 L66 33 L67 33.5 L68 34 L69 34.5 L70 35 L71 35.5 L72 36 L73 36.5 L74 37 L75 37.5 L76 38 L77 38.5 L78 39 L79 39.5 L80 40 L81 40.5 L82 41 L83 41.5 L84 42 L85 42.5 L86 43 L87 43.5 L88 44 L89 44.5 L90 45 L91 45.5 L92 46 L93 46.5 L94 47 L95 47.5 L96 48 L97 48.5 L98 49 L99 49.5 L100 50 L101 50.5 L102 51 L103 51.5 L104 52 L105 52.5 L106 53 L107 53.5 L108 54 L109 54.5 L110 55 L111 55.5 L112 56 L113 56.5 L114 57 L115 57.5 L116 58 L117 58.5 L118 59 L119 59.5 L120 60 L121 60.5 L122 61 L123 61.5 L124 62 L125 62.5 L126 63 L127 63.5 L128 64 L129 64.5 L130 65 L131 65.5 L132 66 L133 66.5 L134 67 L135 67.5 L136 68 L137 68.5 L138 69 L139 69.5 L140 70 L141 70.5 L142 71 L143 71.5 L144 72 L145 72.5 L146 73 L147 73.5 L148 74 L149 74.5 L150 75 L151 75.5 L152 76 L153 76.5 L154 77 L155 77.5 L156 78 L157 78.5 L158 79 L159 79.5 L160 80 L161 80.5 L162 81 L163 81.5 L164 82 L165 82.5 L166 83 L167 83.5 L168 84 L169 84.5 L170 85 L171 85.5 L172 86 L173 86.5 L174 87 L175 87.5 L176 88 L177 88.5 L178 89 L179 89.5 L180 90 L181 90.5 L182 91 L183 91.5 L184 92 L185 92.5 L186 93 L187 93.5 L188 94 L189 94.5 L190 95 L191 95.5 L192 96 L193 96.5 L194 97 L195 97.5 L196 98 L197 98.5 L198 99 L199 99.5 L200 100 L201 100.5 L202 101 L203 101.5 L204 102 L205 102.5 L206 103 L207 103.5 L208 104 L209 104.5 L210 105 L211 105.5 L212 106 L213 106.5 L214 107 L215 107.5 L216 108 L217 108.5 L218 109 L219 109.5 L220 110 L221 110.5 L222 111 L223 111.5 L224 112 L225 112.5 L226 113 L227 113.5 L228 114 L229 114.5 L230 115 L231 115.5 L232 116 L233 116.5 L234 117 L235 117.5 L236 118 L237 118.5 L238 119 L239 119.5 L240 120 L241 120.5 L242 121 L243 121.5 L244 122 L245 122.5 L246 123 L247 123.49999999999999 L248 124 L249 124.50000000000001 L250 125 L251 125.5 L252 126 L253 126.5 L254 126.99999999999999 L255 127.5 L256 128 L257 128.5 L258 129 L259 129.5 L260 130 L261 130.5 L262 131 L263 131.5 L264 132 L265 132.5 L266 133 L267 133.5 L268 134 L269 134.5 L270 135 L271 135.5 L272 136 L273 136.5 L274 137 L275 137.5 L276 138 L277 138.5 L278 139 L279 139.5 L280 140 L281 140.5 L282 141 L283 141.5 L284 142 L285 142.5 L286 143 L287 143.5 L288 144 L289 144.5 L290 145 L291 145.5 L292 146 L293 146.5 L294 147 L295 147.5 L296 148 L297 148.5 L298 149 L299 149.5 L300 150 L301 150.5 L302 151 L303 151.5 L304 152 L305 152.5 L306 153 L307 153.5 L308 154 L309 154.5 L310 155 L311 155.5 L312 156 L313 156.5 L314 157 L315 157.5 L316 158 L317 158.5 L318 159 L319 159.5 L320 160 L321 160.5 L322 161 L323 161.5 L324 162 L325 162.5 L326 163 L327 163.5 L328 164 L329 164.5 L330 165 L331 165.5 L332 166 L333 166.5 L334 167 L335 167.5 L336 168 L337 168.5 L338 169 L339 169.5 L340 170 L341 170.5 L342 171 L343 171.5 L344 172 L345 172.5 L346 173 L347 173.5 L348 174 L349 174.5 L350 175 L351 175.5 L352 176 L353 176.5 L354 177 L355 177.5 L356 178 L357 178.5 L358 179 L359 179.5 L360 180 L361 180.5 L362 181 L363 181.5 L364 182 L365 182.5 L366 183 L367 183.5 L368 184 L369 184.5 L370 185 L371 185.5 L372 186 L373 186.49999999999997 L374 186.99999999999997 L375 187.49999999999994 L376 187.99999999999994 L377 188.49999999999994 L378 188.99999999999991 L379 189.4999999999999 L380 189.99999999999986 L381 190.4999999999998 L382 190.99999999999972 L383 191.49999999999963 L384 191.99999999999952 L385 192.49999999999937 L386 192.99999999999918 L387 193.49999999999892 L388 193.99999999999858 L389 194.49999999999812 L390 194.99999999999753 L391 195.49999999999676 L392 195.9999999999957 L393 196.49999999999434 L394 196.99999999999255 L395 197.49999999999017 L396 197.99999999998704 L397 198.49999999998295 L398 198.99999999997752 L399 199.49999999997036 L400 199.99999999996095 L401 200.49999999994856 L402 200.99999999993224 L403 201.49999999991076 L404 201.99999999988245 L405 202.49999999984522 L406 202.9999999997962 L407 203.49999999973167 L408 203.99999999964677 L409 204.49999999953508 L410 204.9999999993881 L411 205.4999999991948 L412 205.99999999894055 L413 206.4999999986062 L414 206.99999999816657 L415 207.49999999758862 L416 207.99999999682888 L417 208.4999999958304 L418 208.9999999945183 L419 209.49999999279441 L420 209.9999999905298 L421 210.4999999875554 L422 210.99999998364947 L423 211.4999999785211 L424 211.99999997178895 L425 212.49999996295318 L426 212.99999995135866 L427 213.49999993614708 L428 213.9999999161941 L429 214.49999989002737 L430 214.99999985571924 L431 215.49999981074666 L432 215.99999975180813 L433 216.49999967458498 L434 216.99999957342948 L435 217.49999944095802 L436 217.99999926752102 L437 218.49999904051126 L438 218.99999874346335 L439 219.49999835488052 L440 219.99999784670763 L441 220.4999971823444 L442 220.99999631406192 L443 221.49999517964477 L444 221.9999936980295 L445 222.49999176364264 L446 222.99998923905503 L447 223.49998594545832 L448 223.99998165032667 L449 224.4999760514426 L450 224.99996875623293 L451 225.49995925505888 L452 225.9999468867216 L453 226.49993079395574 L454 226.9999098660614 L455 227.49988266503442 L456 227.99984733055558 L457 228.4998014579324 L458 228.99974194149559 L459 229.49966477394793 L460 229.99956478965598 L461 230.49943533674778 L462 230.9992678589935 L463 231.49905136364492 L464 231.99877174550795 L465 232.49841093031466 L466 232.99794579172644 L467 233.49734678580427 L468 233.9965762343045 L469 234.49558617351158 L470 234.99431566839286 L471 235.49268747268758 L472 235.99060389437645 L473 236.48794170343572 L474 236.98454589597944 L475 237.4802221076895 L476 237.9747274526669 L477 238.46775955564112 L478 238.95894355161676 L479 239.44781685520627 L480 239.9338115619373 L481 240.41623444766807 L482 240.89424469347313 L483 241.36682969600693 L484 241.8327796397056 L485 242.2906619142367 L486 242.73879695490717 L487 243.17523764480327 L488 243.59775500028806 L489 244.00383338995593 L490 244.39067890061088 L491 244.75524452111594 L492 245.09427540968719 L493 245.40437650075233 L494 245.68210301123227 L495 245.92407205159935 L496 246.12709072005757 L497 246.28829312086907 L498 246.40527621038325 L499 246.47622280726674 L500 246.5 L501 246.47622280726674 L502 246.40527621038325 L503 246.28829312086907 L504 246.12709072005757 L505 245.92407205159935 L506 245.68210301123227 L507 245.40437650075233 L508 245.09427540968719 L509 244.75524452111594 L510 244.39067890061088 L511 244.00383338995593 L512 243.59775500028806 L513 243.17523764480327 L514 242.73879695490717 L515 242.2906619142367 L516 241.8327796397056 L517 241.36682969600693 L518 240.89424469347313 L519 240.41623444766807 L520 239.9338115619373 L521 239.44781685520627 L522 238.95894355161676 L523 238.46775955564112 L524 237.9747274526669 L525 237.4802221076895 L526 236.98454589597944 L527 236.48794170343572 L528 235.99060389437645 L529 235.49268747268758 L530 234.99431566839286 L531 234.49558617351158 L532 233.9965762343045 L533 233.49734678580427 L534 232.99794579172644 L535 232.49841093031466 L536 231.99877174550795 L537 231.49905136364492 L538 230.9992678589935 L539 230.49943533674778 L540 229.99956478965598 L541 229.49966477394793 L542 228.99974194149559 L543 228.4998014579324 L544 227.99984733055558 L545 227.49988266503442 L546 226.9999098660614 L547 226.49993079395574 L548 225.9999468867216 L549 225.49995925505888 L550 224.99996875623293 L551 224.4999760514426 L552 223.99998165032667 L553 223.49998594545832 L554 222.99998923905503 L555 222.49999176364264 L556 221.9999936980295 L557 221.49999517964477 L558 220.99999631406192 L559 220.4999971823444 L560 219.99999784670763 L561 219.49999835488052 L562 218.99999874346335 L563 218.49999904051126 L564 217.99999926752102 L565 217.49999944095802 L566 216.99999957342948 L567 216.49999967458498 L568 215.99999975180813 L569 215.49999981074666 L570 214.99999985571924 L571 214.49999989002737 L572 213.9999999161941 L573 213.49999993614708 L574 212.99999995135866 L575 212.49999996295318 L576 211.99999997178895 L577 211.4999999785211 L578 210.99999998364947 L579 210.4999999875554 L580 209.9999999905298 L581 209.49999999279441 L582 208.9999999945183 L583 208.4999999958304 L584 207.99999999682888 L585 207.49999999758862 L586 206.99999999816657 L587 206.4999999986062 L588 205.99999999894055 L589 205.4999999991948 L590 204.9999999993881 L591 204.49999999953508 L592 203.99999999964677 L593 203.49999999973167 L594 202.9999999997962 L595 202.49999999984522 L596 201.99999999988245 L597 201.49999999991076 L598 200.99999999993224 L599 200.49999999994856 L600 199.99999999996095 L601 199.49999999997036 L602 198.99999999997752 L603 198.49999999998295 L604 197.99999999998704 L605 197.49999999999017 L606 196.99999999999255 L607 196.49999999999434 L608 195.9999999999957 L609 195.49999999999676 L610 194.99999999999753 L611 194.49999999999812 L612 193.99999999999858 L613 193.49999999999892 L614 192.99999999999918 L615 192.49999999999937 L616 191.99999999999952 L617 191.49999999999963 L618 190.99999999999972 L619 190.4999999999998 L620 189.99999999999986 L621 189.4999999999999 L622 188.99999999999991 L623 188.49999999999994 L624 187.99999999999994 L625 187.49999999999994 L626 186.99999999999997 L627 186.49999999999997 L628 186 L629 185.5 L630 185 L631 184.5 L632 184 L633 183.5 L634 183 L635 182.5 L636 182 L637 181.5 L638 181 L639 180.5 L640 180 L641 179.5 L642 179 L643 178.5 L644 178 L645 177.5 L646 177 L647 176.5 L648 176 L649 175.5 L650 175 L651 174.5 L652 174 L653 173.5 L654 173 L655 172.5 L656 172 L657 171.5 L658 171 L659 170.5 L660 170 L661 169.5 L662 169 L663 168.5 L664 168 L665 167.5 L666 167 L667 166.5 L668 166 L669 165.5 L670 165 L671 164.5 L672 164 L673 163.5 L674 163 L675 162.5 L676 162 L677 161.5 L678 161 L679 160.5 L680 160 L681 159.5 L682 159 L683 158.5 L684 158 L685 157.5 L686 157 L687 156.5 L688 156 L689 155.5 L690 155 L691 154.5 L692 154 L693 153.5 L694 153 L695 152.5 L696 152 L697 151.5 L698 151 L699 150.5 L700 150 L701 149.5 L702 149 L703 148.5 L704 148 L705 147.5 L706 147 L707 146.5 L708 146 L709 145.5 L710 145 L711 144.5 L712 144 L713 143.5 L714 143 L715 142.5 L716 142 L717 141.5 L718 141 L719 140.5 L720 140 L721 139.5 L722 139 L723 138.5 L724 138 L725 137.5 L726 137 L727 136.5 L728 136 L729 135.5 L730 135 L731 134.5 L732 134 L733 133.5 L734 133 L735 132.5 L736 132 L737 131.5 L738 131 L739 130.5 L740 130 L741 129.5 L742 129 L743 128.5 L744 128 L745 127.5 L746 126.99999999999999 L747 126.5 L748 126 L749 125.5 L750 125 L751 124.50000000000001 L752 124 L753 123.49999999999999 L754 123 L755 122.5 L756 122 L757 121.5 L758 121 L759 120.5 L760 120 L761 119.5 L762 119 L763 118.5 L764 118 L765 117.5 L766 117 L767 116.5 L768 116 L769 115.5 L770 115 L771 114.5 L772 114 L773 113.5 L774 113 L775 112.5 L776 112 L777 111.5 L778 111 L779 110.5 L780 110 L781 109.5 L782 109 L783 108.5 L784 108 L785 107.5 L786 107 L787 106.5 L788 106 L789 105.5 L790 105 L791 104.5 L792 104 L793 103.5 L794 103 L795 102.5 L796 102 L797 101.5 L798 101 L799 100.5 L800 100 L801 99.5 L802 99 L803 98.5 L804 98 L805 97.5 L806 97 L807 96.5 L808 96 L809 95.5 L810 95 L811 94.5 L812 94 L813 93.5 L814 93 L815 92.5 L816 92 L817 91.5 L818 91 L819 90.5 L820 90 L821 89.5 L822 89 L823 88.5 L824 88 L825 87.5 L826 87 L827 86.5 L828 86 L829 85.5 L830 85 L831 84.5 L832 84 L833 83.5 L834 83 L835 82.5 L836 82 L837 81.5 L838 81 L839 80.5 L840 80 L841 79.5 L842 79 L843 78.5 L844 78 L845 77.5 L846 77 L847 76.5 L848 76 L849 75.5 L850 75 L851 74.5 L852 74 L853 73.5 L854 73 L855 72.5 L856 72 L857 71.5 L858 71 L859 70.5 L860 70 L861 69.5 L862 69 L863 68.5 L864 68 L865 67.5 L866 67 L867 66.5 L868 66 L869 65.5 L870 65 L871 64.5 L872 64 L873 63.5 L874 63 L875 62.5 L876 62 L877 61.5 L878 61 L879 60.5 L880 60 L881 59.5 L882 59 L883 58.5 L884 58 L885 57.5 L886 57 L887 56.5 L888 56 L889 55.5 L890 55 L891 54.5 L892 54 L893 53.5 L894 53 L895 52.5 L896 52 L897 51.5 L898 51 L899 50.5 L900 50 L901 49.5 L902 49 L903 48.5 L904 48 L905 47.5 L906 47 L907 46.5 L908 46 L909 45.5 L910 45 L911 44.5 L912 44 L913 43.5 L914 43 L915 42.5 L916 42 L917 41.5 L918 41 L919 40.5 L920 40 L921 39.5 L922 39 L923 38.5 L924 38 L925 37.5 L926 37 L927 36.5 L928 36 L929 35.5 L930 35 L931 34.5 L932 34 L933 33.5 L934 33 L935 32.5 L936 32 L937 31.5 L938 31 L939 30.5 L940 30 L941 29.5 L942 29 L943 28.5 L944 28 L945 27.5 L946 27 L947 26.5 L948 26 L949 25.5 L950 24.99999999999997 L951 24.5 L952 24 L953 23.50000000000003 L954 23 L955 22.5 L956 22 L957 21.49999999999997 L958 21 L959 20.5 L960 20.00000000000003 L961 19.5 L962 19 L963 18.5 L964 17.99999999999997 L965 17.5 L966 17 L967 16.50000000000003 L968 16 L969 15.5 L970 15 L971 14.499999999999972 L972 14 L973 13.5 L974 13.000000000000028 L975 12.5 L976 12 L977 11.5 L978 10.999999999999972 L979 10.5 L980 10 L981 9.500000000000028 L982 9 L983 8.5 L984 8 L985 7.499999999999972 L986 7 L987 6.5 L988 6.000000000000028 L989 5.5 L990 5 L991 4.5 L992 3.9999999999999716 L993 3.5 L994 3 L995 2.5000000000000284 L996 2 L997 1.5 L998 1 L999 0.4999999999999716 " stroke = "black" stroke-width = "2" fill = "none" /></svg>