<svg width="1366" height="672" viewbox = "0 0 1366 672"  xmlns="http://www.w3.org/2000/svg">
    <line x1="150" y1="210" x2="150" y2="150" style="stroke:#000000;stroke-width:2" />
    <line x1="150" y1="150" x2="90" y2="150" style="stroke:#000000;stroke-width:2" />
    <line x1="90" y1="150" x2="90" y2="210" style="stroke:#000000;stroke-width:2" />
    <line x1="90" y1="210" x2="150" y2="210" style="stroke:#000000;stroke-width:2" />
    <line x1="90" y1="180" x2="110" y2="180" style="stroke:#000000;stroke-width:2" />
    <line x1="130" y1="190" x2="130" y2="170" style="stroke:#000000;stroke-width:2" />
    <line x1="130" y1="170" x2="110" y2="170" style="stroke:#000000;stroke-width:2" />
    <line x1="110" y1="170" x2="110" y2="190" style="stroke:#000000;stroke-width:2" />
    <line x1="110" y1="190" x2="130" y2="190" style="stroke:#000000;stroke-width:2" />
    <text x="115" y = "185" fill = "#000000" font-size = "10px" font-family = "futura">X</text>
    <line x1="130" y1="180" x2="150" y2="180" style="stroke:#000000;stroke-width:2" />
    <line x1="210" y1="210" x2="210" y2="150" style="stroke:#000000;stroke-width:2" />
    <line x1="210" y1="150" x2="150" y2="150" style="stroke:#000000;stroke-width:2" />
    <line x1="150" y1="150" x2="150" y2="210" style="stroke:#000000;stroke-width:2" />
    <line x1="150" y1="210" x2="210" y2="210" style="stroke:#000000;stroke-width:2" />
    <line x1="150" y1="180" x2="170" y2="180" style="stroke:#000000;stroke-width:2" />
    <line x1="190" y1="190" x2="190" y2="170" style="stroke:#000000;stroke-width:2" />
    <line x1="190" y1="170" x2="170" y2="170" style="stroke:#000000;stroke-width:2" />
    <line x1="170" y1="170" x2="170" y2="190" style="stroke:#000000;stroke-width:2" />
    <line x1="170" y1="190" x2="190" y2="190" style="stroke:#000000;stroke-width:2" />
    <text x="175" y = "185" fill = "#000000" font-size = "10px" font-family = "futura">Y</text>
    <line x1="190" y1="180" x2="210" y2="180" style="stroke:#000000;stroke-width:2" />
    <line x1="270" y1="210" x2="270" y2="150" style="stroke:#000000;stroke-width:2" />
    <line x1="270" y1="150" x2="210" y2="150" style="stroke:#000000;stroke-width:2" />
    <line x1="210" y1="150" x2="210" y2="210" style="stroke:#000000;stroke-width:2" />
    <line x1="210" y1="210" x2="270" y2="210" style="stroke:#000000;stroke-width:2" />
    <line x1="210" y1="180" x2="230" y2="180" style="stroke:#000000;stroke-width:2" />
    <line x1="250" y1="190" x2="250" y2="170" style="stroke:#000000;stroke-width:2" />
    <line x1="250" y1="170" x2="230" y2="170" style="stroke:#000000;stroke-width:2" />
    <line x1="230" y1="170" x2="230" y2="190" style="stroke:#000000;stroke-width:2" />
    <line x1="230" y1="190" x2="250" y2="190" style="stroke:#000000;stroke-width:2" />
    <text x="235" y = "185" fill = "#000000" font-size = "10px" font-family = "futura">Z</text>
    <line x1="250" y1="180" x2="270" y2="180" style="stroke:#000000;stroke-width:2" />
    <line x1="330" y1="210" x2="330" y2="150" style="stroke:#000000;stroke-width:2" />
    <line x1="330" y1="150" x2="270" y2="150" style="stroke:#000000;stroke-width:2" />
    <line x1="270" y1="150" x2="270" y2="210" style="stroke:#000000;stroke-width:2" />
    <line x1="270" y1="210" x2="330" y2="210" style="stroke:#000000;stroke-width:2" />
    <line x1="270" y1="180" x2="290" y2="180" style="stroke:#000000;stroke-width:2" />
    <line x1="310" y1="190" x2="310" y2="170" style="stroke:#000000;stroke-width:2" />
    <line x1="310" y1="170" x2="290" y2="170" style="stroke:#000000;stroke-width:2" />
    <line x1="290" y1="170" x2="290" y2="190" style="stroke:#000000;stroke-width:2" />
    <line x1="290" y1="190" x2="310" y2="190" style="stroke:#000000;stroke-width:2" />
    <text x="295" y = "185" fill = "#000000" font-size = "10px" font-family = "futura">H</text>
    <line x1="310" y1="180" x2="330" y2="180" style="stroke:#000000;stroke-width:2" />
    <line x1="390" y1="210" x2="390" y2="150" style="stroke:#000000;stroke-width:2" />
    <line x1="390" y1="150" x2="330" y2="150" style="stroke:#000000;stroke-width:2" />
    <line x1="330" y1="150" x2="330" y2="210" style="stroke:#000000;stroke-width:2" />
    <line x1="330" y1="210" x2="390" y2="210" style="stroke:#000000;stroke-width:2" />
    <line x1="330" y1="180" x2="350" y2="180" style="stroke:#000000;stroke-width:2" />
    <line x1="370" y1="190" x2="370" y2="170" style="stroke:#000000;stroke-width:2" />
    <line x1="370" y1="170" x2="350" y2="170" style="stroke:#000000;stroke-width:2" />
    <line x1="350" y1="170" x2="350" y2="190" style="stroke:#000000;stroke-width:2" />
    <line x1="350" y1="190" x2="370" y2="190" style="stroke:#000000;stroke-width:2" />
    <text x="355" y = "185" fill = "#000000" font-size = "10px" font-family = "futura">S</text>
    <line x1="370" y1="180" x2="390" y2="180" style="stroke:#000000;stroke-width:2" />
    <line x1="450" y1="210" x2="450" y2="150" style="stroke:#000000;stroke-width:2" />
    <line x1="450" y1="150" x2="390" y2="150" style="stroke:#000000;stroke-width:2" />
    <line x1="390" y1="150" x2="390" y2="210" style="stroke:#000000;stroke-width:2" />
    <line x1="390" y1="210" x2="450" y2="210" style="stroke:#000000;stroke-width:2" />
    <line x1="390" y1="180" x2="410" y2="180" style="stroke:#000000;stroke-width:2" />
    <line x1="430" y1="190" x2="430" y2="170" style="stroke:#000000;stroke-width:2" />
    <line x1="430" y1="170" x2="410" y2="170" style="stroke:#000000;stroke-width:2" />
    <line x1="410" y1="170" x2="410" y2="190" style="stroke:#000000;stroke-width:2" />
    <line x1="410" y1="190" x2="430" y2="190" style="stroke:#000000;stroke-width:2" />
    <text x="415" y = "185" fill = "#000000" font-size = "10px" font-family = "futura">T</text>
    <line x1="430" y1="180" x2="450" y2="180" style="stroke:#000000;stroke-width:2" />
    <line x1="510" y1="210" x2="510" y2="150" style="stroke:#000000;stroke-width:2" />
    <line x1="510" y1="150" x2="450" y2="150" style="stroke:#000000;stroke-width:2" />
    <line x1="450" y1="150" x2="450" y2="210" style="stroke:#000000;stroke-width:2" />
    <line x1="450" y1="210" x2="510" y2="210" style="stroke:#000000;stroke-width:2" />
    <line x1="450" y1="180" x2="457" y2="180" style="stroke:#000000;stroke-width:2" />
    <line x1="457" y1="180" x2="457" y2="172" style="stroke:#000000;stroke-width:2" />
    <line x1="457" y1="180" x2="458" y2="165" style="stroke:#000000;stroke-width:2" />
    <line x1="458" y1="165" x2="473" y2="165" style="stroke:#000000;stroke-width:2" />
    <line x1="473" y1="165" x2="488" y2="165" style="stroke:#000000;stroke-width:2" />
    <line x1="488" y1="165" x2="503" y2="165" style="stroke:#000000;stroke-width:2" />
    <line x1="503" y1="165" x2="502" y2="180" style="stroke:#000000;stroke-width:2" />
    <line x1="502" y1="180" x2="502" y2="195" style="stroke:#000000;stroke-width:2" />
    <line x1="502" y1="195" x2="487" y2="195" style="stroke:#000000;stroke-width:2" />
    <line x1="487" y1="195" x2="472" y2="195" style="stroke:#000000;stroke-width:2" />
    <line x1="472" y1="195" x2="457" y2="195" style="stroke:#000000;stroke-width:2" />
    <line x1="457" y1="195" x2="457" y2="180" style="stroke:#000000;stroke-width:2" />
  <path d="M467.0096189432332 179.9999999999929           A14.999999999999996 14.999999999999996 0 0 1 492.9903810567664 179.99999999999275" fill = "none" stroke = "#000000" stroke-width = "2" />
    <line x1="480" y1="187" x2="491" y2="169" style="stroke:#000000;stroke-width:2" />
    <line x1="491" y1="169" x2="491" y2="173" style="stroke:#000000;stroke-width:2" />
    <line x1="491" y1="169" x2="487" y2="171" style="stroke:#000000;stroke-width:2" />
    <line x1="570" y1="210" x2="570" y2="150" style="stroke:#000000;stroke-width:2" />
    <line x1="570" y1="150" x2="510" y2="150" style="stroke:#000000;stroke-width:2" />
    <line x1="510" y1="150" x2="510" y2="210" style="stroke:#000000;stroke-width:2" />
    <line x1="510" y1="210" x2="570" y2="210" style="stroke:#000000;stroke-width:2" />
    <line x1="570" y1="180" x2="510" y2="180" style="stroke:#000000;stroke-width:2" />
    <line x1="150" y1="270" x2="150" y2="210" style="stroke:#000000;stroke-width:2" />
    <line x1="150" y1="210" x2="90" y2="210" style="stroke:#000000;stroke-width:2" />
    <line x1="90" y1="210" x2="90" y2="270" style="stroke:#000000;stroke-width:2" />
    <line x1="90" y1="270" x2="150" y2="270" style="stroke:#000000;stroke-width:2" />
    <line x1="90" y1="236" x2="150" y2="236" style="stroke:#000000;stroke-width:2" />
    <line x1="90" y1="240" x2="150" y2="240" style="stroke:#000000;stroke-width:2" />
    <line x1="210" y1="270" x2="210" y2="210" style="stroke:#000000;stroke-width:2" />
    <line x1="210" y1="210" x2="150" y2="210" style="stroke:#000000;stroke-width:2" />
    <line x1="150" y1="210" x2="150" y2="270" style="stroke:#000000;stroke-width:2" />
    <line x1="150" y1="270" x2="210" y2="270" style="stroke:#000000;stroke-width:2" />
    <line x1="150" y1="240" x2="210" y2="240" style="stroke:#000000;stroke-width:2" />
    <line x1="173" y1="248" x2="188" y2="233" style="stroke:#000000;stroke-width:2" />
    <text x="173" y = "233" fill = "#000000" font-size = "14.999999999999996px" font-family = "futura">n</text>
    <line x1="270" y1="270" x2="270" y2="210" style="stroke:#000000;stroke-width:2" />
    <line x1="270" y1="210" x2="210" y2="210" style="stroke:#000000;stroke-width:2" />
    <line x1="210" y1="210" x2="210" y2="270" style="stroke:#000000;stroke-width:2" />
    <line x1="210" y1="270" x2="270" y2="270" style="stroke:#000000;stroke-width:2" />
    <line x1="210" y1="210" x2="270" y2="210" style="stroke:#000000;stroke-width:2" />
    <line x1="210" y1="270" x2="270" y2="270" style="stroke:#000000;stroke-width:2" />
    <circle cx="240" cy = "270" r = "3.749999999999999" stroke = "#000000" stroke-width = "2" fill = "none" />
    <line x1="240" y1="270" x2="240" y2="210" style="stroke:#000000;stroke-width:2" />
    <circle cx="240" cy = "210" r = "3.749999999999999" stroke = "#000000" stroke-width = "2" fill = "#000000" />
    <line x1="330" y1="270" x2="330" y2="210" style="stroke:#000000;stroke-width:2" />
    <line x1="330" y1="210" x2="270" y2="210" style="stroke:#000000;stroke-width:2" />
    <line x1="270" y1="210" x2="270" y2="270" style="stroke:#000000;stroke-width:2" />
    <line x1="270" y1="270" x2="330" y2="270" style="stroke:#000000;stroke-width:2" />
    <line x1="270" y1="210" x2="330" y2="210" style="stroke:#000000;stroke-width:2" />
    <line x1="270" y1="270" x2="330" y2="270" style="stroke:#000000;stroke-width:2" />
    <line x1="300" y1="270" x2="305" y2="265" style="stroke:#000000;stroke-width:2" />
    <line x1="300" y1="270" x2="305" y2="275" style="stroke:#000000;stroke-width:2" />
    <line x1="300" y1="270" x2="295" y2="275" style="stroke:#000000;stroke-width:2" />
    <line x1="300" y1="270" x2="295" y2="265" style="stroke:#000000;stroke-width:2" />
    <line x1="300" y1="270" x2="300" y2="210" style="stroke:#000000;stroke-width:2" />
    <line x1="300" y1="210" x2="305" y2="205" style="stroke:#000000;stroke-width:2" />
    <line x1="300" y1="210" x2="305" y2="215" style="stroke:#000000;stroke-width:2" />
    <line x1="300" y1="210" x2="295" y2="215" style="stroke:#000000;stroke-width:2" />
    <line x1="300" y1="210" x2="295" y2="205" style="stroke:#000000;stroke-width:2" />
    <line x1="390" y1="270" x2="390" y2="210" style="stroke:#000000;stroke-width:2" />
    <line x1="390" y1="210" x2="330" y2="210" style="stroke:#000000;stroke-width:2" />
    <line x1="330" y1="210" x2="330" y2="270" style="stroke:#000000;stroke-width:2" />
    <line x1="330" y1="270" x2="390" y2="270" style="stroke:#000000;stroke-width:2" />
    <line x1="330" y1="180" x2="390" y2="180" style="stroke:#000000;stroke-width:2" />
    <line x1="360" y1="180" x2="360" y2="210" style="stroke:#000000;stroke-width:2" />
    <line x1="360" y1="210" x2="360" y2="240" style="stroke:#000000;stroke-width:2" />
    <line x1="360" y1="240" x2="330" y2="240" style="stroke:#000000;stroke-width:2" />
    <line x1="360" y1="240" x2="390" y2="240" style="stroke:#000000;stroke-width:2" />
    <line x1="360" y1="240" x2="360" y2="270" style="stroke:#000000;stroke-width:2" />
    <line x1="360" y1="270" x2="360" y2="300" style="stroke:#000000;stroke-width:2" />
    <line x1="360" y1="300" x2="330" y2="300" style="stroke:#000000;stroke-width:2" />
    <line x1="360" y1="300" x2="390" y2="300" style="stroke:#000000;stroke-width:2" />
    <line x1="360" y1="300" x2="365" y2="295" style="stroke:#000000;stroke-width:2" />
    <line x1="360" y1="300" x2="365" y2="305" style="stroke:#000000;stroke-width:2" />
    <line x1="360" y1="300" x2="355" y2="305" style="stroke:#000000;stroke-width:2" />
    <line x1="360" y1="300" x2="355" y2="295" style="stroke:#000000;stroke-width:2" />
    <line x1="360" y1="240" x2="365" y2="235" style="stroke:#000000;stroke-width:2" />
    <line x1="360" y1="240" x2="365" y2="245" style="stroke:#000000;stroke-width:2" />
    <line x1="360" y1="240" x2="355" y2="245" style="stroke:#000000;stroke-width:2" />
    <line x1="360" y1="240" x2="355" y2="235" style="stroke:#000000;stroke-width:2" />
    <circle cx="360" cy = "180" r = "3.749999999999999" stroke = "#000000" stroke-width = "2" fill = "#000000" />
    <line x1="450" y1="270" x2="450" y2="210" style="stroke:#000000;stroke-width:2" />
    <line x1="450" y1="210" x2="390" y2="210" style="stroke:#000000;stroke-width:2" />
    <line x1="390" y1="210" x2="390" y2="270" style="stroke:#000000;stroke-width:2" />
    <line x1="390" y1="270" x2="450" y2="270" style="stroke:#000000;stroke-width:2" />
    <line x1="390" y1="180" x2="450" y2="180" style="stroke:#000000;stroke-width:2" />
    <line x1="420" y1="180" x2="420" y2="240" style="stroke:#000000;stroke-width:2" />
    <line x1="420" y1="240" x2="390" y2="240" style="stroke:#000000;stroke-width:2" />
    <line x1="420" y1="240" x2="450" y2="240" style="stroke:#000000;stroke-width:2" />
    <line x1="420" y1="240" x2="420" y2="270" style="stroke:#000000;stroke-width:2" />
    <line x1="420" y1="270" x2="420" y2="300" style="stroke:#000000;stroke-width:2" />
    <line x1="420" y1="300" x2="450" y2="300" style="stroke:#000000;stroke-width:2" />
    <line x1="420" y1="300" x2="390" y2="300" style="stroke:#000000;stroke-width:2" />
    <circle cx="420" cy = "300" r = "3.749999999999999" stroke = "#000000" stroke-width = "2" fill = "none" />
    <line x1="420" y1="300" x2="420" y2="304" style="stroke:#000000;stroke-width:2" />
    <circle cx="420" cy = "240" r = "3.749999999999999" stroke = "#000000" stroke-width = "2" fill = "#000000" />
    <circle cx="420" cy = "180" r = "3.749999999999999" stroke = "#000000" stroke-width = "2" fill = "#000000" />
    <line x1="510" y1="270" x2="510" y2="210" style="stroke:#000000;stroke-width:2" />
    <line x1="510" y1="210" x2="450" y2="210" style="stroke:#000000;stroke-width:2" />
    <line x1="450" y1="210" x2="450" y2="270" style="stroke:#000000;stroke-width:2" />
    <line x1="450" y1="270" x2="510" y2="270" style="stroke:#000000;stroke-width:2" />
    <line x1="450" y1="238" x2="470" y2="238" style="stroke:#000000;stroke-width:2" />
    <line x1="450" y1="233" x2="470" y2="233" style="stroke:#000000;stroke-width:2" />
    <line x1="450" y1="243" x2="470" y2="243" style="stroke:#000000;stroke-width:2" />
    <line x1="450" y1="248" x2="470" y2="248" style="stroke:#000000;stroke-width:2" />
    <line x1="490" y1="250" x2="490" y2="230" style="stroke:#000000;stroke-width:2" />
    <line x1="490" y1="230" x2="470" y2="230" style="stroke:#000000;stroke-width:2" />
    <line x1="470" y1="230" x2="470" y2="250" style="stroke:#000000;stroke-width:2" />
    <line x1="470" y1="250" x2="490" y2="250" style="stroke:#000000;stroke-width:2" />
    <line x1="480" y1="230" x2="480" y2="210" style="stroke:#000000;stroke-width:2" />
    <text x="475" y = "245" fill = "#000000" font-size = "9.999999999999998px" font-family = "futura">u</text>
    <line x1="490" y1="243" x2="510" y2="243" style="stroke:#000000;stroke-width:2" />
    <line x1="490" y1="248" x2="510" y2="248" style="stroke:#000000;stroke-width:2" />
    <line x1="490" y1="238" x2="510" y2="238" style="stroke:#000000;stroke-width:2" />
    <line x1="490" y1="233" x2="510" y2="233" style="stroke:#000000;stroke-width:2" />
    <line x1="570" y1="270" x2="570" y2="210" style="stroke:#000000;stroke-width:2" />
    <line x1="570" y1="210" x2="510" y2="210" style="stroke:#000000;stroke-width:2" />
    <line x1="510" y1="210" x2="510" y2="270" style="stroke:#000000;stroke-width:2" />
    <line x1="510" y1="270" x2="570" y2="270" style="stroke:#000000;stroke-width:2" />
    <line x1="510" y1="240" x2="530" y2="240" style="stroke:#000000;stroke-width:2" />
    <line x1="530" y1="240" x2="530" y2="220" style="stroke:#000000;stroke-width:2" />
    <line x1="530" y1="240" x2="530" y2="260" style="stroke:#000000;stroke-width:2" />
    <line x1="530" y1="260" x2="550" y2="240" style="stroke:#000000;stroke-width:2" />
    <line x1="550" y1="240" x2="530" y2="220" style="stroke:#000000;stroke-width:2" />
    <circle cx="553" cy = "240" r = "2.4999999999999996" stroke = "#000000" stroke-width = "2" fill = "none" />
    <line x1="555" y1="240" x2="560" y2="240" style="stroke:#000000;stroke-width:2" />
    <line x1="560" y1="240" x2="565" y2="240" style="stroke:#000000;stroke-width:2" />
    <line x1="565" y1="240" x2="570" y2="240" style="stroke:#000000;stroke-width:2" />
    <line x1="150" y1="330" x2="150" y2="270" style="stroke:#000000;stroke-width:2" />
    <line x1="150" y1="270" x2="90" y2="270" style="stroke:#000000;stroke-width:2" />
    <line x1="90" y1="270" x2="90" y2="330" style="stroke:#000000;stroke-width:2" />
    <line x1="90" y1="330" x2="150" y2="330" style="stroke:#000000;stroke-width:2" />
    <line x1="90" y1="290" x2="110" y2="290" style="stroke:#000000;stroke-width:2" />
    <line x1="90" y1="310" x2="110" y2="310" style="stroke:#000000;stroke-width:2" />
  <path d="M110.00000000000317 280           A19.999999999999996 19.999999999999996 0 0 1 110.00000000000048 320" fill = "none" stroke = "#000000" stroke-width = "2" />
    <line x1="110" y1="300" x2="110" y2="280" style="stroke:#000000;stroke-width:2" />
    <line x1="110" y1="300" x2="110" y2="320" style="stroke:#000000;stroke-width:2" />
    <line x1="130" y1="300" x2="150" y2="300" style="stroke:#000000;stroke-width:2" />
    <line x1="210" y1="330" x2="210" y2="270" style="stroke:#000000;stroke-width:2" />
    <line x1="210" y1="270" x2="150" y2="270" style="stroke:#000000;stroke-width:2" />
    <line x1="150" y1="270" x2="150" y2="330" style="stroke:#000000;stroke-width:2" />
    <line x1="150" y1="330" x2="210" y2="330" style="stroke:#000000;stroke-width:2" />
    <line x1="150" y1="300" x2="170" y2="300" style="stroke:#000000;stroke-width:2" />
    <line x1="170" y1="300" x2="170" y2="280" style="stroke:#000000;stroke-width:2" />
    <line x1="170" y1="320" x2="170" y2="300" style="stroke:#000000;stroke-width:2" />
    <line x1="170" y1="320" x2="190" y2="300" style="stroke:#000000;stroke-width:2" />
    <line x1="190" y1="300" x2="170" y2="280" style="stroke:#000000;stroke-width:2" />
    <line x1="190" y1="300" x2="210" y2="300" style="stroke:#000000;stroke-width:2" />
    <line x1="270" y1="330" x2="270" y2="270" style="stroke:#000000;stroke-width:2" />
    <line x1="270" y1="270" x2="210" y2="270" style="stroke:#000000;stroke-width:2" />
    <line x1="210" y1="270" x2="210" y2="330" style="stroke:#000000;stroke-width:2" />
    <line x1="210" y1="330" x2="270" y2="330" style="stroke:#000000;stroke-width:2" />
    <line x1="210" y1="300" x2="240" y2="300" style="stroke:#000000;stroke-width:2" />
    <circle cx="244" cy = "300" r = "3.749999999999999" stroke = "#000000" stroke-width = "2" fill = "none" />
    <line x1="330" y1="330" x2="330" y2="270" style="stroke:#000000;stroke-width:2" />
    <line x1="330" y1="270" x2="270" y2="270" style="stroke:#000000;stroke-width:2" />
    <line x1="270" y1="270" x2="270" y2="330" style="stroke:#000000;stroke-width:2" />
    <line x1="270" y1="330" x2="330" y2="330" style="stroke:#000000;stroke-width:2" />
    <line x1="300" y1="300" x2="300" y2="315" style="stroke:#000000;stroke-width:2" />
    <line x1="300" y1="315" x2="292" y2="315" style="stroke:#000000;stroke-width:2" />
    <line x1="292" y1="315" x2="300" y2="323" style="stroke:#000000;stroke-width:2" />
    <line x1="300" y1="323" x2="307" y2="315" style="stroke:#000000;stroke-width:2" />
    <line x1="307" y1="315" x2="300" y2="315" style="stroke:#000000;stroke-width:2" />
    <line x1="390" y1="330" x2="390" y2="270" style="stroke:#000000;stroke-width:2" />
    <line x1="390" y1="270" x2="330" y2="270" style="stroke:#000000;stroke-width:2" />
    <line x1="330" y1="270" x2="330" y2="330" style="stroke:#000000;stroke-width:2" />
    <line x1="330" y1="330" x2="390" y2="330" style="stroke:#000000;stroke-width:2" />
    <line x1="360" y1="330" x2="360" y2="323" style="stroke:#000000;stroke-width:2" />
    <line x1="360" y1="323" x2="354" y2="319" style="stroke:#000000;stroke-width:2" />
    <line x1="354" y1="319" x2="360" y2="315" style="stroke:#000000;stroke-width:2" />
    <line x1="360" y1="315" x2="366" y2="311" style="stroke:#000000;stroke-width:2" />
    <line x1="366" y1="311" x2="360" y2="308" style="stroke:#000000;stroke-width:2" />
    <line x1="360" y1="308" x2="354" y2="304" style="stroke:#000000;stroke-width:2" />
    <line x1="354" y1="304" x2="360" y2="300" style="stroke:#000000;stroke-width:2" />
    <line x1="360" y1="300" x2="366" y2="296" style="stroke:#000000;stroke-width:2" />
    <line x1="366" y1="296" x2="360" y2="293" style="stroke:#000000;stroke-width:2" />
    <line x1="360" y1="293" x2="354" y2="289" style="stroke:#000000;stroke-width:2" />
    <line x1="354" y1="289" x2="360" y2="285" style="stroke:#000000;stroke-width:2" />
    <line x1="360" y1="285" x2="366" y2="281" style="stroke:#000000;stroke-width:2" />
    <line x1="366" y1="281" x2="360" y2="278" style="stroke:#000000;stroke-width:2" />
    <line x1="360" y1="278" x2="360" y2="270" style="stroke:#000000;stroke-width:2" />
</svg>