<svg width="1366" height="672" viewbox = "0 0 1366 672"  xmlns="http://www.w3.org/2000/svg">
    <line x1="150" y1="150" x2="150" y2="90" style="stroke:#000000;stroke-width:2" />
    <line x1="150" y1="90" x2="90" y2="90" style="stroke:#000000;stroke-width:2" />
    <line x1="90" y1="90" x2="90" y2="150" style="stroke:#000000;stroke-width:2" />
    <line x1="90" y1="150" x2="150" y2="150" style="stroke:#000000;stroke-width:2" />
    <line x1="150" y1="150" x2="90" y2="90" style="stroke:#000000;stroke-width:2" />
    <line x1="90" y1="150" x2="150" y2="90" style="stroke:#000000;stroke-width:2" />
    <line x1="150" y1="210" x2="150" y2="150" style="stroke:#000000;stroke-width:2" />
    <line x1="150" y1="150" x2="90" y2="150" style="stroke:#000000;stroke-width:2" />
    <line x1="90" y1="150" x2="90" y2="210" style="stroke:#000000;stroke-width:2" />
    <line x1="90" y1="210" x2="150" y2="210" style="stroke:#000000;stroke-width:2" />
    <line x1="113" y1="180" x2="113" y2="165" style="stroke:#000000;stroke-width:2" />
    <line x1="113" y1="165" x2="98" y2="165" style="stroke:#000000;stroke-width:2" />
    <line x1="98" y1="165" x2="98" y2="180" style="stroke:#000000;stroke-width:2" />
    <line x1="98" y1="180" x2="113" y2="180" style="stroke:#000000;stroke-width:2" />
    <line x1="143" y1="180" x2="143" y2="165" style="stroke:#000000;stroke-width:2" />
    <line x1="143" y1="165" x2="128" y2="165" style="stroke:#000000;stroke-width:2" />
    <line x1="128" y1="165" x2="128" y2="180" style="stroke:#000000;stroke-width:2" />
    <line x1="128" y1="180" x2="143" y2="180" style="stroke:#000000;stroke-width:2" />
    <line x1="113" y1="173" x2="128" y2="173" style="stroke:#000000;stroke-width:2" />
    <line x1="113" y1="173" x2="118" y2="178" style="stroke:#000000;stroke-width:2" />
    <line x1="113" y1="173" x2="118" y2="167" style="stroke:#000000;stroke-width:2" />
    <line x1="210" y1="210" x2="210" y2="150" style="stroke:#000000;stroke-width:2" />
    <line x1="210" y1="150" x2="150" y2="150" style="stroke:#000000;stroke-width:2" />
    <line x1="150" y1="150" x2="150" y2="210" style="stroke:#000000;stroke-width:2" />
    <line x1="150" y1="210" x2="210" y2="210" style="stroke:#000000;stroke-width:2" />
    <line x1="173" y1="180" x2="172" y2="165" style="stroke:#000000;stroke-width:2" />
    <line x1="172" y1="165" x2="157" y2="165" style="stroke:#000000;stroke-width:2" />
    <line x1="157" y1="165" x2="158" y2="180" style="stroke:#000000;stroke-width:2" />
    <line x1="158" y1="180" x2="173" y2="180" style="stroke:#000000;stroke-width:2" />
    <line x1="203" y1="180" x2="202" y2="165" style="stroke:#000000;stroke-width:2" />
    <line x1="202" y1="165" x2="187" y2="165" style="stroke:#000000;stroke-width:2" />
    <line x1="187" y1="165" x2="188" y2="180" style="stroke:#000000;stroke-width:2" />
    <line x1="188" y1="180" x2="203" y2="180" style="stroke:#000000;stroke-width:2" />
    <line x1="172" y1="173" x2="187" y2="172" style="stroke:#000000;stroke-width:2" />
    <line x1="187" y1="172" x2="182" y2="178" style="stroke:#000000;stroke-width:2" />
    <line x1="187" y1="172" x2="182" y2="167" style="stroke:#000000;stroke-width:2" />
    <line x1="270" y1="210" x2="270" y2="150" style="stroke:#000000;stroke-width:2" />
    <line x1="270" y1="150" x2="210" y2="150" style="stroke:#000000;stroke-width:2" />
    <line x1="210" y1="150" x2="210" y2="210" style="stroke:#000000;stroke-width:2" />
    <line x1="210" y1="210" x2="270" y2="210" style="stroke:#000000;stroke-width:2" />
    <line x1="232" y1="172" x2="232" y2="157" style="stroke:#000000;stroke-width:2" />
    <line x1="232" y1="157" x2="217" y2="157" style="stroke:#000000;stroke-width:2" />
    <line x1="217" y1="157" x2="217" y2="172" style="stroke:#000000;stroke-width:2" />
    <line x1="217" y1="172" x2="232" y2="172" style="stroke:#000000;stroke-width:2" />
    <line x1="247" y1="172" x2="247" y2="157" style="stroke:#000000;stroke-width:2" />
    <line x1="247" y1="157" x2="232" y2="157" style="stroke:#000000;stroke-width:2" />
    <line x1="232" y1="157" x2="232" y2="172" style="stroke:#000000;stroke-width:2" />
    <line x1="232" y1="172" x2="247" y2="172" style="stroke:#000000;stroke-width:2" />
    <line x1="263" y1="172" x2="262" y2="157" style="stroke:#000000;stroke-width:2" />
    <line x1="262" y1="157" x2="247" y2="157" style="stroke:#000000;stroke-width:2" />
    <line x1="247" y1="157" x2="248" y2="172" style="stroke:#000000;stroke-width:2" />
    <line x1="248" y1="172" x2="263" y2="172" style="stroke:#000000;stroke-width:2" />
    <line x1="233" y1="202" x2="233" y2="187" style="stroke:#000000;stroke-width:2" />
    <line x1="233" y1="187" x2="218" y2="187" style="stroke:#000000;stroke-width:2" />
    <line x1="218" y1="187" x2="218" y2="202" style="stroke:#000000;stroke-width:2" />
    <line x1="218" y1="202" x2="233" y2="202" style="stroke:#000000;stroke-width:2" />
    <line x1="248" y1="202" x2="248" y2="187" style="stroke:#000000;stroke-width:2" />
    <line x1="248" y1="187" x2="233" y2="187" style="stroke:#000000;stroke-width:2" />
    <line x1="233" y1="187" x2="233" y2="202" style="stroke:#000000;stroke-width:2" />
    <line x1="233" y1="202" x2="248" y2="202" style="stroke:#000000;stroke-width:2" />
    <line x1="263" y1="202" x2="263" y2="187" style="stroke:#000000;stroke-width:2" />
    <line x1="263" y1="187" x2="248" y2="187" style="stroke:#000000;stroke-width:2" />
    <line x1="248" y1="187" x2="248" y2="202" style="stroke:#000000;stroke-width:2" />
    <line x1="248" y1="202" x2="263" y2="202" style="stroke:#000000;stroke-width:2" />
    <line x1="240" y1="187" x2="240" y2="172" style="stroke:#000000;stroke-width:2" />
    <line x1="240" y1="172" x2="245" y2="178" style="stroke:#000000;stroke-width:2" />
    <line x1="240" y1="172" x2="235" y2="178" style="stroke:#000000;stroke-width:2" />
    <line x1="330" y1="210" x2="330" y2="150" style="stroke:#000000;stroke-width:2" />
    <line x1="330" y1="150" x2="270" y2="150" style="stroke:#000000;stroke-width:2" />
    <line x1="270" y1="150" x2="270" y2="210" style="stroke:#000000;stroke-width:2" />
    <line x1="270" y1="210" x2="330" y2="210" style="stroke:#000000;stroke-width:2" />
    <line x1="293" y1="172" x2="293" y2="157" style="stroke:#000000;stroke-width:2" />
    <line x1="293" y1="157" x2="278" y2="157" style="stroke:#000000;stroke-width:2" />
    <line x1="278" y1="157" x2="278" y2="172" style="stroke:#000000;stroke-width:2" />
    <line x1="278" y1="172" x2="293" y2="172" style="stroke:#000000;stroke-width:2" />
    <line x1="308" y1="172" x2="308" y2="157" style="stroke:#000000;stroke-width:2" />
    <line x1="308" y1="157" x2="293" y2="157" style="stroke:#000000;stroke-width:2" />
    <line x1="293" y1="157" x2="293" y2="172" style="stroke:#000000;stroke-width:2" />
    <line x1="293" y1="172" x2="308" y2="172" style="stroke:#000000;stroke-width:2" />
    <line x1="323" y1="172" x2="323" y2="157" style="stroke:#000000;stroke-width:2" />
    <line x1="323" y1="157" x2="308" y2="157" style="stroke:#000000;stroke-width:2" />
    <line x1="308" y1="157" x2="308" y2="172" style="stroke:#000000;stroke-width:2" />
    <line x1="308" y1="172" x2="323" y2="172" style="stroke:#000000;stroke-width:2" />
    <line x1="292" y1="202" x2="293" y2="187" style="stroke:#000000;stroke-width:2" />
    <line x1="293" y1="187" x2="278" y2="187" style="stroke:#000000;stroke-width:2" />
    <line x1="278" y1="187" x2="277" y2="202" style="stroke:#000000;stroke-width:2" />
    <line x1="277" y1="202" x2="292" y2="202" style="stroke:#000000;stroke-width:2" />
    <line x1="307" y1="202" x2="308" y2="187" style="stroke:#000000;stroke-width:2" />
    <line x1="308" y1="187" x2="293" y2="187" style="stroke:#000000;stroke-width:2" />
    <line x1="293" y1="187" x2="292" y2="202" style="stroke:#000000;stroke-width:2" />
    <line x1="292" y1="202" x2="307" y2="202" style="stroke:#000000;stroke-width:2" />
    <line x1="322" y1="202" x2="323" y2="187" style="stroke:#000000;stroke-width:2" />
    <line x1="323" y1="187" x2="308" y2="187" style="stroke:#000000;stroke-width:2" />
    <line x1="308" y1="187" x2="307" y2="202" style="stroke:#000000;stroke-width:2" />
    <line x1="307" y1="202" x2="322" y2="202" style="stroke:#000000;stroke-width:2" />
    <line x1="300" y1="172" x2="300" y2="187" style="stroke:#000000;stroke-width:2" />
    <line x1="300" y1="187" x2="295" y2="182" style="stroke:#000000;stroke-width:2" />
    <line x1="300" y1="187" x2="305" y2="182" style="stroke:#000000;stroke-width:2" />
    <line x1="390" y1="210" x2="390" y2="150" style="stroke:#000000;stroke-width:2" />
    <line x1="390" y1="150" x2="330" y2="150" style="stroke:#000000;stroke-width:2" />
    <line x1="330" y1="150" x2="330" y2="210" style="stroke:#000000;stroke-width:2" />
    <line x1="330" y1="210" x2="390" y2="210" style="stroke:#000000;stroke-width:2" />
    <line x1="375" y1="195" x2="375" y2="165" style="stroke:#000000;stroke-width:2" />
    <line x1="375" y1="165" x2="345" y2="165" style="stroke:#000000;stroke-width:2" />
    <line x1="345" y1="165" x2="345" y2="195" style="stroke:#000000;stroke-width:2" />
    <line x1="345" y1="195" x2="375" y2="195" style="stroke:#000000;stroke-width:2" />
    <line x1="368" y1="187" x2="368" y2="172" style="stroke:#000000;stroke-width:2" />
    <line x1="368" y1="172" x2="353" y2="172" style="stroke:#000000;stroke-width:2" />
    <line x1="353" y1="172" x2="353" y2="187" style="stroke:#000000;stroke-width:2" />
    <line x1="353" y1="187" x2="368" y2="187" style="stroke:#000000;stroke-width:2" />
    <line x1="364" y1="184" x2="364" y2="176" style="stroke:#000000;stroke-width:2" />
    <line x1="364" y1="176" x2="356" y2="176" style="stroke:#000000;stroke-width:2" />
    <line x1="356" y1="176" x2="356" y2="184" style="stroke:#000000;stroke-width:2" />
    <line x1="356" y1="184" x2="364" y2="184" style="stroke:#000000;stroke-width:2" />
    <line x1="450" y1="210" x2="450" y2="150" style="stroke:#000000;stroke-width:2" />
    <line x1="450" y1="150" x2="390" y2="150" style="stroke:#000000;stroke-width:2" />
    <line x1="390" y1="150" x2="390" y2="210" style="stroke:#000000;stroke-width:2" />
    <line x1="390" y1="210" x2="450" y2="210" style="stroke:#000000;stroke-width:2" />
    <line x1="428" y1="188" x2="428" y2="173" style="stroke:#000000;stroke-width:2" />
    <line x1="428" y1="173" x2="413" y2="173" style="stroke:#000000;stroke-width:2" />
    <line x1="413" y1="173" x2="413" y2="188" style="stroke:#000000;stroke-width:2" />
    <line x1="413" y1="188" x2="428" y2="188" style="stroke:#000000;stroke-width:2" />
    <line x1="424" y1="184" x2="424" y2="176" style="stroke:#000000;stroke-width:2" />
    <line x1="424" y1="176" x2="416" y2="176" style="stroke:#000000;stroke-width:2" />
    <line x1="416" y1="176" x2="416" y2="184" style="stroke:#000000;stroke-width:2" />
    <line x1="416" y1="184" x2="424" y2="184" style="stroke:#000000;stroke-width:2" />
    <line x1="510" y1="210" x2="510" y2="150" style="stroke:#000000;stroke-width:2" />
    <line x1="510" y1="150" x2="450" y2="150" style="stroke:#000000;stroke-width:2" />
    <line x1="450" y1="150" x2="450" y2="210" style="stroke:#000000;stroke-width:2" />
    <line x1="450" y1="210" x2="510" y2="210" style="stroke:#000000;stroke-width:2" />
    <line x1="488" y1="188" x2="488" y2="173" style="stroke:#000000;stroke-width:2" />
    <line x1="488" y1="173" x2="473" y2="173" style="stroke:#000000;stroke-width:2" />
    <line x1="473" y1="173" x2="472" y2="188" style="stroke:#000000;stroke-width:2" />
    <line x1="472" y1="188" x2="487" y2="188" style="stroke:#000000;stroke-width:2" />
    <line x1="487" y1="188" x2="500" y2="180" style="stroke:#000000;stroke-width:2" />
    <line x1="488" y1="173" x2="500" y2="165" style="stroke:#000000;stroke-width:2" />
    <line x1="500" y1="165" x2="500" y2="180" style="stroke:#000000;stroke-width:2" />
    <line x1="473" y1="173" x2="485" y2="165" style="stroke:#000000;stroke-width:2" />
    <line x1="485" y1="165" x2="500" y2="165" style="stroke:#000000;stroke-width:2" />
    <line x1="458" y1="180" x2="473" y2="180" style="stroke:#000000;stroke-width:2" />
    <line x1="473" y1="180" x2="467" y2="185" style="stroke:#000000;stroke-width:2" />
    <line x1="473" y1="180" x2="467" y2="175" style="stroke:#000000;stroke-width:2" />
    <line x1="570" y1="210" x2="570" y2="150" style="stroke:#000000;stroke-width:2" />
    <line x1="570" y1="150" x2="510" y2="150" style="stroke:#000000;stroke-width:2" />
    <line x1="510" y1="150" x2="510" y2="210" style="stroke:#000000;stroke-width:2" />
    <line x1="510" y1="210" x2="570" y2="210" style="stroke:#000000;stroke-width:2" />
    <line x1="532" y1="188" x2="533" y2="173" style="stroke:#000000;stroke-width:2" />
    <line x1="533" y1="173" x2="518" y2="173" style="stroke:#000000;stroke-width:2" />
    <line x1="518" y1="173" x2="517" y2="188" style="stroke:#000000;stroke-width:2" />
    <line x1="517" y1="188" x2="532" y2="188" style="stroke:#000000;stroke-width:2" />
    <line x1="532" y1="188" x2="545" y2="180" style="stroke:#000000;stroke-width:2" />
    <line x1="533" y1="173" x2="545" y2="165" style="stroke:#000000;stroke-width:2" />
    <line x1="545" y1="165" x2="545" y2="180" style="stroke:#000000;stroke-width:2" />
    <line x1="518" y1="173" x2="530" y2="165" style="stroke:#000000;stroke-width:2" />
    <line x1="530" y1="165" x2="545" y2="165" style="stroke:#000000;stroke-width:2" />
    <line x1="548" y1="173" x2="563" y2="173" style="stroke:#000000;stroke-width:2" />
    <line x1="563" y1="173" x2="557" y2="178" style="stroke:#000000;stroke-width:2" />
    <line x1="563" y1="173" x2="557" y2="167" style="stroke:#000000;stroke-width:2" />
    <line x1="150" y1="270" x2="150" y2="210" style="stroke:#000000;stroke-width:2" />
    <line x1="150" y1="210" x2="90" y2="210" style="stroke:#000000;stroke-width:2" />
    <line x1="90" y1="210" x2="90" y2="270" style="stroke:#000000;stroke-width:2" />
    <line x1="90" y1="270" x2="150" y2="270" style="stroke:#000000;stroke-width:2" />
	<path d = "M120 240 L105 240 L120 225 L135 240 L120 240 " stroke = "#000000" stroke-width = "2" fill = "none" />    <line x1="210" y1="270" x2="210" y2="210" style="stroke:#000000;stroke-width:2" />
    <line x1="210" y1="210" x2="150" y2="210" style="stroke:#000000;stroke-width:2" />
    <line x1="150" y1="210" x2="150" y2="270" style="stroke:#000000;stroke-width:2" />
    <line x1="150" y1="270" x2="210" y2="270" style="stroke:#000000;stroke-width:2" />
	<path d = "M180 240 L195 240 L180 255 L165 240 L180 240 " stroke = "#000000" stroke-width = "2" fill = "none" />    <line x1="270" y1="270" x2="270" y2="210" style="stroke:#000000;stroke-width:2" />
    <line x1="270" y1="210" x2="210" y2="210" style="stroke:#000000;stroke-width:2" />
    <line x1="210" y1="210" x2="210" y2="270" style="stroke:#000000;stroke-width:2" />
    <line x1="210" y1="270" x2="270" y2="270" style="stroke:#000000;stroke-width:2" />
	<path d = "M240 240 L240 255 L225 240 L240 225 L240 240 " stroke = "#000000" stroke-width = "2" fill = "none" />    <line x1="330" y1="270" x2="330" y2="210" style="stroke:#000000;stroke-width:2" />
    <line x1="330" y1="210" x2="270" y2="210" style="stroke:#000000;stroke-width:2" />
    <line x1="270" y1="210" x2="270" y2="270" style="stroke:#000000;stroke-width:2" />
    <line x1="270" y1="270" x2="330" y2="270" style="stroke:#000000;stroke-width:2" />
	<path d = "M300 240 L300 225 L315 240 L300 255 L300 240 " stroke = "#000000" stroke-width = "2" fill = "none" />    <line x1="510" y1="270" x2="510" y2="210" style="stroke:#000000;stroke-width:2" />
    <line x1="510" y1="210" x2="450" y2="210" style="stroke:#000000;stroke-width:2" />
    <line x1="450" y1="210" x2="450" y2="270" style="stroke:#000000;stroke-width:2" />
    <line x1="450" y1="270" x2="510" y2="270" style="stroke:#000000;stroke-width:2" />
	<path d = "M465 240 L465 225 L480 240 L465 255 L465 240 " stroke = "#000000" stroke-width = "2" fill = "none" />	<path d = "M480 240 L495 225 L495 240 L495 255 L480 240 " stroke = "#000000" stroke-width = "2" fill = "none" />    <line x1="570" y1="270" x2="570" y2="210" style="stroke:#000000;stroke-width:2" />
    <line x1="570" y1="210" x2="510" y2="210" style="stroke:#000000;stroke-width:2" />
    <line x1="510" y1="210" x2="510" y2="270" style="stroke:#000000;stroke-width:2" />
    <line x1="510" y1="270" x2="570" y2="270" style="stroke:#000000;stroke-width:2" />
	<path d = "M525 240 L525 255 L510 240 L525 225 L525 240 " stroke = "#000000" stroke-width = "2" fill = "none" />	<path d = "M570 240 L555 255 L555 240 L555 225 L570 240 " stroke = "#000000" stroke-width = "2" fill = "none" /></svg>