<svg width="800" height="400" viewbox = "0 0 800 400"  xmlns="http://www.w3.org/2000/svg">
	<path d = "M0 0 L1 0.9999999999690772 L2 1.9999999999659508 L3 2.9999999999624833 L4 3.999999999958675 L5 4.999999999954525 L6 5.999999999949864 L7 6.999999999944748 L8 7.9999999999391775 L9 8.999999999933038 L10 9.999999999926217 L11 10.99999999991877 L12 11.999999999910528 L13 12.999999999901434 L14 13.999999999891429 L15 14.999999999880458 L16 15.99999999986835 L17 16.99999999985505 L18 17.999999999840384 L19 18.999999999824183 L20 19.99999999980639 L21 20.999999999786837 L22 21.999999999765237 L23 22.999999999741476 L24 23.999999999715328 L25 24.99999999968651 L26 25.999999999654847 L27 26.999999999619888 L28 27.999999999581405 L29 28.999999999539114 L30 29.999999999492502 L31 30.99999999944123 L32 31.999999999384727 L33 32.9999999993226 L34 33.99999999925416 L35 34.99999999917884 L36 35.99999999909585 L37 36.99999999900456 L38 37.99999999890406 L39 38.99999999879344 L40 39.999999998671626 L41 40.99999999853759 L42 41.999999998390024 L43 42.99999999822762 L44 43.99999999804879 L45 44.999999997852 L46 45.99999999763543 L47 46.999999997397026 L48 47.99999999713464 L49 48.99999999684587 L50 49.999999996528004 L51 50.99999999617819 L52 51.999999995793246 L53 52.999999995369535 L54 53.999999994903305 L55 54.99999999439012 L56 55.99999999382544 L57 56.99999999320403 L58 57.9999999925202 L59 58.99999999176771 L60 59.99999999093967 L61 60.99999999002853 L62 61.99999998902592 L63 62.999999987922706 L64 63.99999998670887 L65 64.99999998537328 L66 65.99999998390376 L67 66.99999998228691 L68 67.99999998050805 L69 68.99999997855087 L70 69.9999999763977 L71 70.99999997402881 L72 71.99999997142277 L73 72.99999996855576 L74 73.9999999654018 L75 74.9999999619323 L76 75.99999995811567 L77 76.99999995391727 L78 77.99999994929914 L79 78.99999994421927 L80 79.99999993863173 L81 80.99999993248582 L82 81.999999925726 L83 82.99999991829111 L84 83.99999991011384 L85 84.9999999011203 L86 85.99999989122932 L87 86.99999988035154 L88 87.99999986838878 L89 88.99999985523323 L90 89.99999984076624 L91 90.99999982485747 L92 91.99999980736368 L93 92.99999978812752 L94 93.99999976697586 L95 94.99999974371866 L96 95.99999971814697 L97 96.99999969003113 L98 97.999999659119 L99 98.99999962513323 L100 99.99999958776925 L101 100.99999954669255 L102 101.99999950153523 L103 102.99999945189353 L104 103.99999939732356 L105 104.99999933733778 L106 105.99999927140061 L107 106.99999919892383 L108 107.99999911926113 L109 108.9999990317026 L110 109.99999893546868 L111 110.99999882970297 L112 111.99999871346506 L113 112.99999858572198 L114 113.99999844533943 L115 114.99999829107179 L116 115.99999812155124 L117 116.99999793527564 L118 117.99999773059596 L119 118.99999750570123 L120 119.99999725860357 L121 120.99999698712014 L122 121.99999668885471 L123 122.99999636117684 L124 123.9999960011989 L125 124.99999560575134 L126 125.99999517135501 L127 126.99999469419134 L128 127.9999941700695 L129 128.99999359439005 L130 129.99999296210558 L131 130.9999922676771 L132 131.99999150502686 L133 132.99999066748603 L134 133.99998974773746 L135 134.9999887377536 L136 135.99998762872735 L137 136.99998641099722 L138 137.9999850739652 L139 138.9999836060063 L140 139.99998199436993 L141 140.99998022507168 L142 141.9999782827748 L143 142.9999761506606 L144 143.999973810286 L145 144.9999712414284 L146 145.9999684219149 L147 146.9999653274361 L148 147.99996193134143 L149 148.99995820441652 L150 149.99995411463766 L151 150.99994962690482 L152 151.99994470274822 L153 152.99993930000824 L154 153.9999333724843 L155 154.9999268695517 L156 155.99991973574168 L157 156.9999119102828 L158 157.9999033265986 L159 158.99989391175944 L160 159.99988358588195 L161 160.99987226147323 L162 161.999859842714 L163 162.99984622467457 L164 163.999831292459 L165 164.99981492026865 L166 165.99979697038032 L167 166.99977729202908 L168 167.99975572018855 L169 168.9997320742388 L170 169.99970615651137 L171 170.99967775070127 L172 171.9996466201333 L173 172.99961250586978 L174 173.99957512464553 L175 174.99953416661498 L176 175.99948929289414 L177 176.99944013287964 L178 177.99938628132531 L179 178.9993272951542 L180 179.99926268998337 L181 180.9991919363364 L182 181.9991144555155 L183 182.9990296151046 L184 183.99893672407055 L185 184.9988350274283 L186 185.9987237004319 L187 186.99860184225113 L188 187.9984684690894 L189 188.9983225066955 L190 189.99816278221772 L191 190.99798801534502 L192 191.99779680867462 L193 192.99758763724245 L194 193.9973588371455 L195 194.9971085931819 L196 195.99683492542698 L197 196.99653567465884 L198 197.99620848653933 L199 198.99585079444927 L200 199.99545980087095 L201 200.99503245720064 L202 201.99456544186665 L203 202.99405513662035 L204 203.99349760085627 L205 204.99288854380967 L206 205.99222329446684 L207 206.99149676901595 L208 207.99070343565086 L209 208.98983727653172 L210 209.98889174669108 L211 210.98785972966346 L212 211.98673348960023 L213 212.98550461962085 L214 213.98416398613415 L215 214.98270166885135 L216 215.98110689619568 L217 216.9793679757999 L218 217.97747221976744 L219 218.97540586435713 L220 219.97315398373908 L221 220.97070039745222 L222 221.96802757118243 L223 222.965116510467 L224 223.96194664691888 L225 224.95849571655512 L226 225.9547396298052 L227 226.9506523327683 L228 227.94620565928727 L229 228.94136917340393 L230 229.93611000176696 L231 230.93039265556996 L232 231.92417884161011 L233 232.91742726207838 L234 233.9100934027157 L235 234.90212930900384 L236 235.8934833500999 L237 236.88409997027532 L238 237.87391942767982 L239 238.86287752032422 L240 239.85090529926094 L241 240.83792876904033 L242 241.82386857563344 L243 242.8086396821442 L244 243.79215103277858 L245 244.77430520570613 L246 245.7549980556322 L247 246.73411834710524 L248 247.71154737980928 L249 248.68715860733752 L250 249.66081725121282 L251 250.6323799122091 L252 251.60169418133916 L253 252.5685982532027 L254 253.53292054473738 L255 254.4944793227783 L256 255.4530823442071 L257 256.4085265128572 L258 257.3605975577301 L259 258.30906973746573 L260 259.2537055763887 L261 260.1942556378167 L262 261.1304583406565 L263 262.0620398256193 L264 262.9887138776475 L265 263.91018191135026 L266 264.82613302638174 L267 265.7362441397514 L268 266.6401802020156 L269 267.537594504153 L270 268.42812908166 L271 269.3114152219981 L272 270.1870740809842 L273 271.05471741301363 L274 271.91394841914945 L275 272.764362716086 L276 273.60554942780743 L277 274.4370924004097 L278 275.2585715390477 L279 276.06956426432123 L280 276.86964708363837 L281 277.6583972712195 L282 278.4353946484559 L283 279.20022345434904 L284 279.95247429376417 L285 280.69174614928727 L286 281.41764844061095 L287 282.12980311365243 L288 282.8278467400688 L289 283.51143260652805 L290 284.18023277207294 L291 284.8339400712124 L292 285.47227004003497 L293 286.0949627426863 L294 286.70178447601063 L295 287.29252933103464 L296 287.867020591268 L297 288.4251119495009 L298 288.96668852686497 L299 289.49166768035815 L300 289.99999958776925 L301 290.49166760191747 L302 290.96668836928126 L303 291.4251117113633 L304 291.8670202704446 L305 292.29252892465377 L306 292.7017839804354 L307 293.0949621534826 L308 293.47226935193237 L309 293.8339392780575 L310 294.18023186677544 L311 294.51143158099785 L312 294.82784558514504 L313 295.1298018190228 L314 295.417646994721 L315 295.6917445392388 L316 295.95247250520157 L317 296.2002214713336 L318 296.43539245332585 L319 296.65839484443495 L320 296.8696444036103 L321 297.0695613072221 L322 297.2585682786033 L323 297.4370888076693 L324 297.6055454708908 L325 297.76435835990503 L326 297.91394362510266 L327 298.0547121386492 L328 298.18706827963103 L329 298.3114088423594 L330 298.4281220673679 L331 298.5375867932793 L332 298.64017172653445 L333 298.7362348249506 L334 298.82612279021555 L335 298.9101706637307 L336 298.98870151966605 L337 299.0620262486939 L338 299.1304434255959 L339 299.1942392537946 L340 299.25368757981903 L341 299.30904997076976 L342 299.36057584798476 L343 299.4085026703138 L344 299.45305616066776 L345 299.4944505698167 L346 299.5328889717492 L347 299.5685635852693 L348 299.6016561168875 L349 299.63233812044757 L350 299.6607713693227 L351 299.6871082373967 L352 299.7114920854232 L353 299.7340576497167 L354 299.7549314304814 L355 299.77423207740617 L356 299.79207077047187 L357 299.8085515941998 L358 299.8237719038425 L359 299.83782268226275 L360 299.85078888647183 L361 299.86274978300463 L362 299.87377927149043 L363 299.8839461959461 L364 299.8933146434639 L365 299.9019442300946 L366 299.9098903738429 L367 299.917204554786 L368 299.9239345624152 L369 299.93012473036896 L370 299.93581615878736 L371 299.9410469245678 L372 299.945852279841 L373 299.9502648390203 L374 299.9543147547982 L375 299.9580298834861 L376 299.96143594010044 L377 299.9645566436082 L378 299.9674138527459 L379 299.9700276928233 L380 299.9724166739201 L381 299.97459780087377 L382 299.9765866754475 L383 299.9783975910549 L384 299.9800436204038 L385 299.9815366964058 L386 299.98288768668186 L387 299.9841064619785 L388 299.9852019587879 L389 299.98618223644985 L390 299.98705452899327 L391 299.98782529195546 L392 299.9885002443993 L393 299.9890844063279 L394 299.9895821316782 L395 299.9899971370544 L396 299.99033252634365 L397 299.9905908113377 L398 299.99077392846317 L399 299.9908832517063 L400 299.99091960179805 L401 299.9908832517063 L402 299.99077392846317 L403 299.9905908113377 L404 299.99033252634365 L405 299.9899971370544 L406 299.9895821316782 L407 299.9890844063279 L408 299.9885002443993 L409 299.98782529195546 L410 299.98705452899327 L411 299.98618223644985 L412 299.9852019587879 L413 299.9841064619785 L414 299.98288768668186 L415 299.9815366964058 L416 299.9800436204038 L417 299.9783975910549 L418 299.9765866754475 L419 299.97459780087377 L420 299.9724166739201 L421 299.9700276928233 L422 299.9674138527459 L423 299.9645566436082 L424 299.96143594010044 L425 299.9580298834861 L426 299.9543147547982 L427 299.9502648390203 L428 299.945852279841 L429 299.9410469245678 L430 299.93581615878736 L431 299.93012473036896 L432 299.9239345624152 L433 299.917204554786 L434 299.9098903738429 L435 299.9019442300946 L436 299.8933146434639 L437 299.8839461959461 L438 299.87377927149043 L439 299.86274978300463 L440 299.85078888647183 L441 299.83782268226275 L442 299.8237719038425 L443 299.8085515941998 L444 299.79207077047187 L445 299.77423207740617 L446 299.7549314304814 L447 299.7340576497167 L448 299.7114920854232 L449 299.6871082373967 L450 299.6607713693227 L451 299.63233812044757 L452 299.6016561168875 L453 299.5685635852693 L454 299.5328889717492 L455 299.4944505698167 L456 299.45305616066776 L457 299.4085026703138 L458 299.36057584798476 L459 299.30904997076976 L460 299.25368757981903 L461 299.1942392537946 L462 299.1304434255959 L463 299.0620262486939 L464 298.98870151966605 L465 298.9101706637307 L466 298.82612279021555 L467 298.7362348249506 L468 298.64017172653445 L469 298.5375867932793 L470 298.4281220673679 L471 298.3114088423594 L472 298.18706827963103 L473 298.0547121386492 L474 297.91394362510266 L475 297.76435835990503 L476 297.6055454708908 L477 297.4370888076693 L478 297.2585682786033 L479 297.0695613072221 L480 296.8696444036103 L481 296.65839484443495 L482 296.43539245332585 L483 296.2002214713336 L484 295.95247250520157 L485 295.6917445392388 L486 295.417646994721 L487 295.1298018190228 L488 294.82784558514504 L489 294.51143158099785 L490 294.18023186677544 L491 293.8339392780575 L492 293.47226935193237 L493 293.0949621534826 L494 292.7017839804354 L495 292.29252892465377 L496 291.8670202704446 L497 291.4251117113633 L498 290.96668836928126 L499 290.49166760191747 L500 289.99999958776925 L501 289.49166768035815 L502 288.96668852686497 L503 288.4251119495009 L504 287.867020591268 L505 287.29252933103464 L506 286.70178447601063 L507 286.0949627426863 L508 285.47227004003497 L509 284.8339400712124 L510 284.18023277207294 L511 283.51143260652805 L512 282.8278467400688 L513 282.12980311365243 L514 281.41764844061095 L515 280.69174614928727 L516 279.95247429376417 L517 279.20022345434904 L518 278.4353946484559 L519 277.6583972712195 L520 276.86964708363837 L521 276.06956426432123 L522 275.2585715390477 L523 274.4370924004097 L524 273.60554942780743 L525 272.764362716086 L526 271.91394841914945 L527 271.05471741301363 L528 270.1870740809842 L529 269.3114152219981 L530 268.42812908166 L531 267.537594504153 L532 266.6401802020156 L533 265.7362441397514 L534 264.82613302638174 L535 263.91018191135026 L536 262.9887138776475 L537 262.0620398256193 L538 261.1304583406565 L539 260.1942556378167 L540 259.2537055763887 L541 258.30906973746573 L542 257.3605975577301 L543 256.4085265128572 L544 255.4530823442071 L545 254.4944793227783 L546 253.53292054473738 L547 252.5685982532027 L548 251.60169418133916 L549 250.6323799122091 L550 249.66081725121282 L551 248.68715860733752 L552 247.71154737980928 L553 246.73411834710524 L554 245.7549980556322 L555 244.77430520570613 L556 243.79215103277858 L557 242.8086396821442 L558 241.82386857563344 L559 240.83792876904033 L560 239.85090529926094 L561 238.86287752032422 L562 237.87391942767982 L563 236.88409997027532 L564 235.8934833500999 L565 234.90212930900384 L566 233.9100934027157 L567 232.91742726207838 L568 231.92417884161011 L569 230.93039265556996 L570 229.93611000176696 L571 228.94136917340393 L572 227.94620565928727 L573 226.9506523327683 L574 225.9547396298052 L575 224.95849571655512 L576 223.96194664691888 L577 222.965116510467 L578 221.96802757118243 L579 220.97070039745222 L580 219.97315398373908 L581 218.97540586435713 L582 217.97747221976744 L583 216.9793679757999 L584 215.98110689619568 L585 214.98270166885135 L586 213.98416398613415 L587 212.98550461962085 L588 211.98673348960023 L589 210.98785972966346 L590 209.98889174669108 L591 208.98983727653172 L592 207.99070343565086 L593 206.99149676901595 L594 205.99222329446684 L595 204.99288854380967 L596 203.99349760085627 L597 202.99405513662035 L598 201.99456544186665 L599 200.99503245720064 L600 199.99545980087095 L601 198.99585079444927 L602 197.99620848653933 L603 196.99653567465884 L604 195.99683492542698 L605 194.9971085931819 L606 193.9973588371455 L607 192.99758763724245 L608 191.99779680867462 L609 190.99798801534502 L610 189.99816278221772 L611 188.9983225066955 L612 187.9984684690894 L613 186.99860184225113 L614 185.9987237004319 L615 184.9988350274283 L616 183.99893672407055 L617 182.9990296151046 L618 181.9991144555155 L619 180.9991919363364 L620 179.99926268998337 L621 178.9993272951542 L622 177.99938628132531 L623 176.99944013287964 L624 175.99948929289414 L625 174.99953416661498 L626 173.99957512464553 L627 172.99961250586978 L628 171.9996466201333 L629 170.99967775070127 L630 169.99970615651137 L631 168.9997320742388 L632 167.99975572018855 L633 166.99977729202908 L634 165.99979697038032 L635 164.99981492026865 L636 163.999831292459 L637 162.99984622467457 L638 161.999859842714 L639 160.99987226147323 L640 159.99988358588195 L641 158.99989391175944 L642 157.9999033265986 L643 156.9999119102828 L644 155.99991973574168 L645 154.9999268695517 L646 153.9999333724843 L647 152.99993930000824 L648 151.99994470274822 L649 150.99994962690482 L650 149.99995411463766 L651 148.99995820441652 L652 147.99996193134143 L653 146.9999653274361 L654 145.9999684219149 L655 144.9999712414284 L656 143.999973810286 L657 142.9999761506606 L658 141.9999782827748 L659 140.99998022507168 L660 139.99998199436993 L661 138.9999836060063 L662 137.9999850739652 L663 136.99998641099722 L664 135.99998762872735 L665 134.9999887377536 L666 133.99998974773746 L667 132.99999066748603 L668 131.99999150502686 L669 130.9999922676771 L670 129.99999296210558 L671 128.99999359439005 L672 127.9999941700695 L673 126.99999469419134 L674 125.99999517135501 L675 124.99999560575134 L676 123.9999960011989 L677 122.99999636117684 L678 121.99999668885471 L679 120.99999698712014 L680 119.99999725860357 L681 118.99999750570123 L682 117.99999773059596 L683 116.99999793527564 L684 115.99999812155124 L685 114.99999829107179 L686 113.99999844533943 L687 112.99999858572198 L688 111.99999871346506 L689 110.99999882970297 L690 109.99999893546868 L691 108.9999990317026 L692 107.99999911926113 L693 106.99999919892383 L694 105.99999927140061 L695 104.99999933733778 L696 103.99999939732356 L697 102.99999945189353 L698 101.99999950153523 L699 100.99999954669255 L700 99.99999958776925 L701 98.99999962513323 L702 97.999999659119 L703 96.99999969003113 L704 95.99999971814697 L705 94.99999974371866 L706 93.99999976697586 L707 92.99999978812752 L708 91.99999980736368 L709 90.99999982485747 L710 89.99999984076624 L711 88.99999985523323 L712 87.99999986838878 L713 86.99999988035154 L714 85.99999989122932 L715 84.9999999011203 L716 83.99999991011384 L717 82.99999991829111 L718 81.999999925726 L719 80.99999993248582 L720 79.99999993863173 L721 78.99999994421927 L722 77.99999994929914 L723 76.99999995391727 L724 75.99999995811567 L725 74.9999999619323 L726 73.9999999654018 L727 72.99999996855576 L728 71.99999997142277 L729 70.99999997402881 L730 69.9999999763977 L731 68.99999997855087 L732 67.99999998050805 L733 66.99999998228691 L734 65.99999998390376 L735 64.99999998537328 L736 63.99999998670887 L737 62.999999987922706 L738 61.99999998902592 L739 60.99999999002853 L740 59.99999999093967 L741 58.99999999176771 L742 57.9999999925202 L743 56.99999999320403 L744 55.99999999382544 L745 54.99999999439012 L746 53.999999994903305 L747 52.999999995369535 L748 51.999999995793246 L749 50.99999999617819 L750 49.999999996528004 L751 48.99999999684587 L752 47.99999999713464 L753 46.999999997397026 L754 45.99999999763543 L755 44.999999997852 L756 43.99999999804879 L757 42.99999999822762 L758 41.999999998390024 L759 40.99999999853759 L760 39.999999998671626 L761 38.99999999879344 L762 37.99999999890406 L763 36.99999999900456 L764 35.99999999909585 L765 34.99999999917884 L766 33.99999999925416 L767 32.9999999993226 L768 31.999999999384727 L769 30.99999999944123 L770 29.999999999492502 L771 28.999999999539114 L772 27.999999999581405 L773 26.999999999619888 L774 25.999999999654847 L775 24.99999999968651 L776 23.999999999715328 L777 22.999999999741476 L778 21.999999999765237 L779 20.999999999786837 L780 19.99999999980639 L781 18.999999999824183 L782 17.999999999840384 L783 16.99999999985505 L784 15.99999999986835 L785 14.999999999880458 L786 13.999999999891429 L787 12.999999999901434 L788 11.999999999910528 L789 10.99999999991877 L790 9.999999999926217 L791 8.999999999933038 L792 7.9999999999391775 L793 6.999999999944748 L794 5.999999999949864 L795 4.999999999954525 L796 3.999999999958675 L797 2.9999999999624833 L798 1.9999999999659508 L799 0.9999999999690772 " stroke = "black" stroke-width = "2" fill = "none" /></svg>