<svg width="800" height="800" viewbox = "0 0 800 800"  xmlns="http://www.w3.org/2000/svg">

<!--
<json>
{
    "imgurl": "https://i.imgur.com/t8GMiKT.jpg",
    "imgw": 20.1,
    "imgleft": -8.244242978219498,
    "imgtop": -10.4849726908707,
    "unitpixels": 50,
    "unitfeet": 400,
    "latlon0": "28.6024,-81.2002",
    "marker0": "center",
    "glyph0": "0341,0340,",
    "latlon1": "28.6056,-81.2002",
    "marker1": "apollo noon",
    "glyph1": "0341,0340,",
    "hashtag": "metamapucf",
    "currentGlyph": "0337,0341,0336,0341,0314,0337,0341,0336,0313,0337,0337,0341,0336,0336,0316,0337,0341,0336,0313,0331,0333,0330,0333,0330,0331,0331,0331,0331,0336,0330,0333,0331,0331,0331,0333,0333,01160,01150,01171,01172,01141,01153,01163,0337,0330,0330,0332,0330,0332,0330,0332,0330,0330,0331,0331,0331,0332,0332,0332,0336,0330,0330,0333,0337,0330,0330,0330,0336,0336,0336,0332,0337,0336,0336,0333,0337,0337,0337,0337,0341,0340,",
    "links": [
        {
            "url": "https://sciences.ucf.edu/physics/",
            "text": "Physics Department",
            "latlon": "28.5999, -81.198053"
        },
        {
            "url": "http://locations.einsteinbros.com",
            "text": "Einstein Bagelzzzzzzz",
            "latlon": "28.601115, -81.199387"
        }
    ],
    "images": [
        {
            "url": "https://i.imgur.com/rV9CWwx.jpg",
            "latlon": "28.599889, -81.1981",
            "unitfeet": 503
        },
        {
            "url": "https://i.imgur.com/8nGddQU.jpg",
            "latlon": "28.609503, -81.197801",
            "unitfeet": 500
        }
    ],
    "avatar": {
        "glyph": "0322,0340,0341,0342,",
        "unitfeet": 100
    }
}
</json>
-->
    <circle cx="400" cy = "400" r = "100" stroke = "#000000" stroke-width = "2" fill = "none" />
    <circle cx="400" cy = "400" r = "50" stroke = "#000000" stroke-width = "2" fill = "none" />
    <circle cx="400" cy = "400" r = "150" stroke = "#000000" stroke-width = "2" fill = "none" />
    <circle cx="400" cy = "400" r = "200" stroke = "#000000" stroke-width = "2" fill = "none" />
    <circle cx="400" cy = "400" r = "250" stroke = "#000000" stroke-width = "2" fill = "none" />
    <line x1="575" y1="600" x2="575" y2="594" style="stroke:#000000;stroke-width:2" />
    <line x1="575" y1="600" x2="575" y2="613" style="stroke:#000000;stroke-width:2" />
    <circle cx="581" cy = "594" r = "6.25" stroke = "#000000" stroke-width = "2" fill = "none" />
    <line x1="575" y1="594" x2="575" y2="588" style="stroke:#000000;stroke-width:2" />
    <line x1="594" y1="600" x2="594" y2="575" style="stroke:#000000;stroke-width:2" />
  <path d="M593.75 593.75           A6.25 6.25 0 0 1 606.25 593.75" fill = "none" stroke = "#000000" stroke-width = "2" />
    <line x1="606" y1="594" x2="606" y2="600" style="stroke:#000000;stroke-width:2" />
    <line x1="616" y1="600" x2="620" y2="588" style="stroke:#000000;stroke-width:2" />
    <line x1="616" y1="600" x2="611" y2="588" style="stroke:#000000;stroke-width:2" />
    <line x1="616" y1="600" x2="611" y2="612" style="stroke:#000000;stroke-width:2" />
    <line x1="625" y1="600" x2="638" y2="588" style="stroke:#000000;stroke-width:2" />
    <line x1="638" y1="588" x2="625" y2="588" style="stroke:#000000;stroke-width:2" />
    <line x1="625" y1="600" x2="638" y2="600" style="stroke:#000000;stroke-width:2" />
    <circle cx="647" cy = "594" r = "6.25" stroke = "#000000" stroke-width = "2" fill = "none" />
    <line x1="653" y1="594" x2="653" y2="587" style="stroke:#000000;stroke-width:2" />
    <line x1="653" y1="600" x2="653" y2="594" style="stroke:#000000;stroke-width:2" />
    <line x1="656" y1="600" x2="656" y2="587" style="stroke:#000000;stroke-width:2" />
    <line x1="656" y1="587" x2="656" y2="581" style="stroke:#000000;stroke-width:2" />
    <line x1="656" y1="594" x2="661" y2="589" style="stroke:#000000;stroke-width:2" />
    <line x1="656" y1="594" x2="662" y2="600" style="stroke:#000000;stroke-width:2" />
  <path d="M669.6652913087919 588.4152913087914           A3.125 3.125 0 0 1 674.0847086912079 588.4152913087914" fill = "none" stroke = "#000000" stroke-width = "2" />
  <path d="M669.6652913087919 592.8347086912074           A3.125 3.125 0 0 1 669.6652913087919 588.4152913087914" fill = "none" stroke = "#000000" stroke-width = "2" />
  <path d="M671.8749999999999 593.7499999999994           A3.125 3.125 0 0 1 669.6652913087919 592.8347086912074" fill = "none" stroke = "#000000" stroke-width = "2" />
  <path d="M674.0847086912079 599.0847086912074           A3.125 3.125 0 0 1 669.6652913087919 599.0847086912074" fill = "none" stroke = "#000000" stroke-width = "2" />
  <path d="M674.0847086912079 594.6652913087914           A3.125 3.125 0 0 1 674.0847086912079 599.0847086912074" fill = "none" stroke = "#000000" stroke-width = "2" />
  <path d="M671.8749999999999 593.7499999999994           A3.125 3.125 0 0 1 674.9999999999999 596.8749999999994" fill = "none" stroke = "#000000" stroke-width = "2" />
    <circle cx="400" cy = "250" r = "50" stroke = "#000000" stroke-width = "2" fill = "none" />
<circle cx="400" cy = "250" r = "3" stroke = "#000000" stroke-width = "2" fill = "#000000" />
</svg>