<svg width="800" height="800" viewbox = "0 0 800 800"  xmlns="http://www.w3.org/2000/svg">

<!--
<json>
{
    "imgurl": "https://i.imgur.com/t8GMiKT.jpg",
    "imgw": 20.1,
    "imgleft": -8.244242978219498,
    "imgtop": -10.4849726908707,
    "unitpixels": 50,
    "unitfeet": 400,
    "latlon0": "28.6024,-81.2002",
    "marker0": "center",
    "glyph0": "0341,0340,",
    "latlon1": "28.6056,-81.2002",
    "marker1": "apollo noon",
    "glyph1": "0341,0340,",
    "hashtag": "metamapucf",
    "currentGlyph": "0340,0337,0341,0336,0314,0337,0341,0336,0313,0337,0337,0341,0336,0336,0316,0337,0341,0336,0313,0331,0333,0330,0333,0330,0331,0331,0331,0331,0336,0330,0333,0331,0331,0331,0333,0333,0330,0330,0330,0332,0332,0332,01160,01150,01171,01172,01141,01153,01163,",
    "links": [
        {
            "url": "https://sciences.ucf.edu/physics/",
            "text": "Physics Department",
            "latlon": "28.5999, -81.198053"
        },
        {
            "url": "http://locations.einsteinbros.com",
            "text": "Einstein Bagelzzzzzzz",
            "latlon": "28.601115, -81.199387"
        }
    ],
    "images": [
        {
            "url": "https://i.imgur.com/rV9CWwx.jpg",
            "latlon": "28.599889, -81.1981",
            "unitfeet": 503
        },
        {
            "url": "https://i.imgur.com/8nGddQU.jpg",
            "latlon": "28.609503, -81.197801",
            "unitfeet": 500
        }
    ],
    "avatar": {
        "glyph": "0322,0340,0341,0342,",
        "unitfeet": 100
    }
}
</json>
-->
<circle cx="400" cy = "400" r = "3" stroke = "#000000" stroke-width = "2" fill = "#000000" />
    <circle cx="400" cy = "400" r = "100" stroke = "#000000" stroke-width = "2" fill = "none" />
    <circle cx="400" cy = "400" r = "150" stroke = "#000000" stroke-width = "2" fill = "none" />
    <circle cx="400" cy = "400" r = "200" stroke = "#000000" stroke-width = "2" fill = "none" />
    <circle cx="400" cy = "400" r = "250" stroke = "#000000" stroke-width = "2" fill = "none" />
    <line x1="500" y1="525" x2="500" y2="519" style="stroke:#000000;stroke-width:2" />
    <line x1="500" y1="525" x2="500" y2="538" style="stroke:#000000;stroke-width:2" />
    <circle cx="506" cy = "519" r = "6.25" stroke = "#000000" stroke-width = "2" fill = "none" />
    <line x1="500" y1="519" x2="500" y2="513" style="stroke:#000000;stroke-width:2" />
    <line x1="519" y1="525" x2="519" y2="500" style="stroke:#000000;stroke-width:2" />
  <path d="M518.75 518.75           A6.25 6.25 0 0 1 531.25 518.75" fill = "none" stroke = "#000000" stroke-width = "2" />
    <line x1="531" y1="519" x2="531" y2="525" style="stroke:#000000;stroke-width:2" />
    <line x1="541" y1="525" x2="545" y2="513" style="stroke:#000000;stroke-width:2" />
    <line x1="541" y1="525" x2="536" y2="513" style="stroke:#000000;stroke-width:2" />
    <line x1="541" y1="525" x2="536" y2="537" style="stroke:#000000;stroke-width:2" />
    <line x1="550" y1="525" x2="563" y2="513" style="stroke:#000000;stroke-width:2" />
    <line x1="563" y1="513" x2="550" y2="513" style="stroke:#000000;stroke-width:2" />
    <line x1="550" y1="525" x2="563" y2="525" style="stroke:#000000;stroke-width:2" />
    <circle cx="572" cy = "519" r = "6.25" stroke = "#000000" stroke-width = "2" fill = "none" />
    <line x1="578" y1="519" x2="578" y2="512" style="stroke:#000000;stroke-width:2" />
    <line x1="578" y1="525" x2="578" y2="519" style="stroke:#000000;stroke-width:2" />
    <line x1="581" y1="525" x2="581" y2="512" style="stroke:#000000;stroke-width:2" />
    <line x1="581" y1="512" x2="581" y2="506" style="stroke:#000000;stroke-width:2" />
    <line x1="581" y1="519" x2="586" y2="514" style="stroke:#000000;stroke-width:2" />
    <line x1="581" y1="519" x2="587" y2="525" style="stroke:#000000;stroke-width:2" />
  <path d="M594.6652913087919 513.4152913087914           A3.125 3.125 0 0 1 599.0847086912079 513.4152913087914" fill = "none" stroke = "#000000" stroke-width = "2" />
  <path d="M594.6652913087919 517.8347086912074           A3.125 3.125 0 0 1 594.6652913087919 513.4152913087914" fill = "none" stroke = "#000000" stroke-width = "2" />
  <path d="M596.8749999999999 518.7499999999994           A3.125 3.125 0 0 1 594.6652913087919 517.8347086912074" fill = "none" stroke = "#000000" stroke-width = "2" />
  <path d="M599.0847086912079 524.0847086912074           A3.125 3.125 0 0 1 594.6652913087919 524.0847086912074" fill = "none" stroke = "#000000" stroke-width = "2" />
  <path d="M599.0847086912079 519.6652913087914           A3.125 3.125 0 0 1 599.0847086912079 524.0847086912074" fill = "none" stroke = "#000000" stroke-width = "2" />
  <path d="M596.8749999999999 518.7499999999994           A3.125 3.125 0 0 1 599.9999999999999 521.8749999999994" fill = "none" stroke = "#000000" stroke-width = "2" />
</svg>