<svg width="800" height="800" viewbox = "0 0 800 800"  xmlns="http://www.w3.org/2000/svg">

<!--
<json>
{
    "imgurl": "https://i.imgur.com/t8GMiKT.jpg",
    "imgw": 20.1,
    "imgleft": -8.244242978219498,
    "imgtop": -10.4849726908707,
    "unitpixels": 50,
    "unitfeet": 400,
    "latlon0": "28.6024,-81.2002",
    "marker0": "center",
    "glyph0": "0341,0340,",
    "latlon1": "28.6056,-81.2002",
    "marker1": "apollo noon",
    "glyph1": "0341,0340,",
    "hashtag": "metamapucf",
    "currentGlyph": "0337,0341,0336,0314,0337,0341,0336,0313,0337,0337,0341,0336,0336,0316,0337,0341,0336,0313,0331,0331,0331,0333,0333,0330,0336,0331,0336,0330,0335,0201,0201,0201,0201,0335,0201,0201,0201,0201,0201,0201,0201,0335,0201,0201,0201,0201,0201,0335,0201,0201,0201,0201,0201,0201,0334,0201,0335,0201,0335,0201,0201,0334,0330,0201,0336,0331,0331,0336,0333,0343,0330,0330,0330,0334,0337,0350,0350,0334,0342,0335,0335,0335,0335,0335,0304,0337,0337,0330,0333,0330,",
    "links": [
        {
            "url": "https://sciences.ucf.edu/physics/",
            "text": "Physics Department",
            "latlon": "28.5999, -81.198053"
        },
        {
            "url": "http://locations.einsteinbros.com",
            "text": "Einstein Bagelzzzzzzz",
            "latlon": "28.601115, -81.199387"
        }
    ],
    "images": [
        {
            "url": "https://i.imgur.com/rV9CWwx.jpg",
            "latlon": "28.599889, -81.1981",
            "unitfeet": 503
        },
        {
            "url": "https://i.imgur.com/8nGddQU.jpg",
            "latlon": "28.609503, -81.197801",
            "unitfeet": 500
        }
    ],
    "avatar": {
        "glyph": "0322,0340,0341,0342,",
        "unitfeet": 100
    }
}
</json>
-->
    <circle cx="400" cy = "264" r = "235.79476910000022" stroke = "#000000" stroke-width = "2" fill = "none" />
    <circle cx="400" cy = "264" r = "353.69215365000036" stroke = "#000000" stroke-width = "2" fill = "none" />
    <circle cx="400" cy = "264" r = "471.5895382000005" stroke = "#000000" stroke-width = "2" fill = "none" />
    <circle cx="400" cy = "264" r = "589.4869227500006" stroke = "#000000" stroke-width = "2" fill = "none" />
    <line x1="636" y1="529" x2="665" y2="529" style="stroke:#000000;stroke-width:2" />
    <line x1="665" y1="529" x2="695" y2="529" style="stroke:#000000;stroke-width:2" />
    <line x1="695" y1="529" x2="724" y2="529" style="stroke:#000000;stroke-width:2" />
    <line x1="724" y1="529" x2="754" y2="529" style="stroke:#000000;stroke-width:2" />
    <line x1="754" y1="529" x2="754" y2="558" style="stroke:#000000;stroke-width:2" />
    <line x1="754" y1="558" x2="754" y2="588" style="stroke:#000000;stroke-width:2" />
    <line x1="754" y1="588" x2="754" y2="617" style="stroke:#000000;stroke-width:2" />
    <line x1="754" y1="617" x2="754" y2="647" style="stroke:#000000;stroke-width:2" />
    <line x1="754" y1="647" x2="754" y2="676" style="stroke:#000000;stroke-width:2" />
    <line x1="754" y1="676" x2="754" y2="706" style="stroke:#000000;stroke-width:2" />
    <line x1="754" y1="706" x2="754" y2="735" style="stroke:#000000;stroke-width:2" />
    <line x1="754" y1="735" x2="724" y2="735" style="stroke:#000000;stroke-width:2" />
    <line x1="724" y1="735" x2="695" y2="735" style="stroke:#000000;stroke-width:2" />
    <line x1="695" y1="735" x2="665" y2="735" style="stroke:#000000;stroke-width:2" />
    <line x1="665" y1="735" x2="636" y2="735" style="stroke:#000000;stroke-width:2" />
    <line x1="636" y1="735" x2="606" y2="735" style="stroke:#000000;stroke-width:2" />
    <line x1="606" y1="735" x2="606" y2="706" style="stroke:#000000;stroke-width:2" />
    <line x1="606" y1="706" x2="606" y2="676" style="stroke:#000000;stroke-width:2" />
    <line x1="606" y1="676" x2="606" y2="647" style="stroke:#000000;stroke-width:2" />
    <line x1="606" y1="647" x2="606" y2="617" style="stroke:#000000;stroke-width:2" />
    <line x1="606" y1="617" x2="606" y2="588" style="stroke:#000000;stroke-width:2" />
    <line x1="606" y1="588" x2="606" y2="558" style="stroke:#000000;stroke-width:2" />
    <line x1="606" y1="558" x2="577" y2="558" style="stroke:#000000;stroke-width:2" />
    <line x1="577" y1="558" x2="577" y2="529" style="stroke:#000000;stroke-width:2" />
    <line x1="577" y1="529" x2="606" y2="529" style="stroke:#000000;stroke-width:2" />
    <line x1="606" y1="529" x2="636" y2="529" style="stroke:#000000;stroke-width:2" />
    <line x1="636" y1="499" x2="636" y2="470" style="stroke:#000000;stroke-width:2" />
  <path d="M635.7947691000002 499.4311327363638           A7.368586534375008 7.368586534375008 0 0 1 650.5319421687502 499.4311327363638" fill = "none" stroke = "#000000" stroke-width = "2" />
    <line x1="643" y1="477" x2="630" y2="483" style="stroke:#000000;stroke-width:2" />
</svg>