<svg width="1366" height="672" viewbox = "0 0 1366 672"  xmlns="http://www.w3.org/2000/svg">
    <line x1="150" y1="210" x2="150" y2="150" style="stroke:#000000;stroke-width:2" />
    <line x1="150" y1="150" x2="90" y2="150" style="stroke:#000000;stroke-width:2" />
    <line x1="90" y1="150" x2="90" y2="210" style="stroke:#000000;stroke-width:2" />
    <line x1="90" y1="210" x2="150" y2="210" style="stroke:#000000;stroke-width:2" />
    <line x1="90" y1="180" x2="110" y2="180" style="stroke:#000000;stroke-width:2" />
    <line x1="130" y1="190" x2="130" y2="170" style="stroke:#000000;stroke-width:2" />
    <line x1="130" y1="170" x2="110" y2="170" style="stroke:#000000;stroke-width:2" />
    <line x1="110" y1="170" x2="110" y2="190" style="stroke:#000000;stroke-width:2" />
    <line x1="110" y1="190" x2="130" y2="190" style="stroke:#000000;stroke-width:2" />
    <text x="115" y = "185" fill = "#000000" font-size = "10px" font-family = "futura">X</text>
    <line x1="130" y1="180" x2="150" y2="180" style="stroke:#000000;stroke-width:2" />
    <line x1="210" y1="210" x2="210" y2="150" style="stroke:#000000;stroke-width:2" />
    <line x1="210" y1="150" x2="150" y2="150" style="stroke:#000000;stroke-width:2" />
    <line x1="150" y1="150" x2="150" y2="210" style="stroke:#000000;stroke-width:2" />
    <line x1="150" y1="210" x2="210" y2="210" style="stroke:#000000;stroke-width:2" />
    <line x1="150" y1="180" x2="170" y2="180" style="stroke:#000000;stroke-width:2" />
    <line x1="190" y1="190" x2="190" y2="170" style="stroke:#000000;stroke-width:2" />
    <line x1="190" y1="170" x2="170" y2="170" style="stroke:#000000;stroke-width:2" />
    <line x1="170" y1="170" x2="170" y2="190" style="stroke:#000000;stroke-width:2" />
    <line x1="170" y1="190" x2="190" y2="190" style="stroke:#000000;stroke-width:2" />
    <text x="175" y = "185" fill = "#000000" font-size = "10px" font-family = "futura">Y</text>
    <line x1="190" y1="180" x2="210" y2="180" style="stroke:#000000;stroke-width:2" />
    <line x1="270" y1="210" x2="270" y2="150" style="stroke:#000000;stroke-width:2" />
    <line x1="270" y1="150" x2="210" y2="150" style="stroke:#000000;stroke-width:2" />
    <line x1="210" y1="150" x2="210" y2="210" style="stroke:#000000;stroke-width:2" />
    <line x1="210" y1="210" x2="270" y2="210" style="stroke:#000000;stroke-width:2" />
    <line x1="210" y1="180" x2="230" y2="180" style="stroke:#000000;stroke-width:2" />
    <line x1="250" y1="190" x2="250" y2="170" style="stroke:#000000;stroke-width:2" />
    <line x1="250" y1="170" x2="230" y2="170" style="stroke:#000000;stroke-width:2" />
    <line x1="230" y1="170" x2="230" y2="190" style="stroke:#000000;stroke-width:2" />
    <line x1="230" y1="190" x2="250" y2="190" style="stroke:#000000;stroke-width:2" />
    <text x="235" y = "185" fill = "#000000" font-size = "10px" font-family = "futura">Z</text>
    <line x1="250" y1="180" x2="270" y2="180" style="stroke:#000000;stroke-width:2" />
    <line x1="330" y1="210" x2="330" y2="150" style="stroke:#000000;stroke-width:2" />
    <line x1="330" y1="150" x2="270" y2="150" style="stroke:#000000;stroke-width:2" />
    <line x1="270" y1="150" x2="270" y2="210" style="stroke:#000000;stroke-width:2" />
    <line x1="270" y1="210" x2="330" y2="210" style="stroke:#000000;stroke-width:2" />
    <line x1="270" y1="180" x2="290" y2="180" style="stroke:#000000;stroke-width:2" />
    <line x1="310" y1="190" x2="310" y2="170" style="stroke:#000000;stroke-width:2" />
    <line x1="310" y1="170" x2="290" y2="170" style="stroke:#000000;stroke-width:2" />
    <line x1="290" y1="170" x2="290" y2="190" style="stroke:#000000;stroke-width:2" />
    <line x1="290" y1="190" x2="310" y2="190" style="stroke:#000000;stroke-width:2" />
    <text x="295" y = "185" fill = "#000000" font-size = "10px" font-family = "futura">H</text>
    <line x1="310" y1="180" x2="330" y2="180" style="stroke:#000000;stroke-width:2" />
    <line x1="390" y1="210" x2="390" y2="150" style="stroke:#000000;stroke-width:2" />
    <line x1="390" y1="150" x2="330" y2="150" style="stroke:#000000;stroke-width:2" />
    <line x1="330" y1="150" x2="330" y2="210" style="stroke:#000000;stroke-width:2" />
    <line x1="330" y1="210" x2="390" y2="210" style="stroke:#000000;stroke-width:2" />
    <line x1="330" y1="180" x2="350" y2="180" style="stroke:#000000;stroke-width:2" />
    <line x1="370" y1="190" x2="370" y2="170" style="stroke:#000000;stroke-width:2" />
    <line x1="370" y1="170" x2="350" y2="170" style="stroke:#000000;stroke-width:2" />
    <line x1="350" y1="170" x2="350" y2="190" style="stroke:#000000;stroke-width:2" />
    <line x1="350" y1="190" x2="370" y2="190" style="stroke:#000000;stroke-width:2" />
    <text x="355" y = "185" fill = "#000000" font-size = "10px" font-family = "futura">S</text>
    <line x1="370" y1="180" x2="390" y2="180" style="stroke:#000000;stroke-width:2" />
    <line x1="450" y1="210" x2="450" y2="150" style="stroke:#000000;stroke-width:2" />
    <line x1="450" y1="150" x2="390" y2="150" style="stroke:#000000;stroke-width:2" />
    <line x1="390" y1="150" x2="390" y2="210" style="stroke:#000000;stroke-width:2" />
    <line x1="390" y1="210" x2="450" y2="210" style="stroke:#000000;stroke-width:2" />
    <line x1="390" y1="180" x2="410" y2="180" style="stroke:#000000;stroke-width:2" />
    <line x1="430" y1="190" x2="430" y2="170" style="stroke:#000000;stroke-width:2" />
    <line x1="430" y1="170" x2="410" y2="170" style="stroke:#000000;stroke-width:2" />
    <line x1="410" y1="170" x2="410" y2="190" style="stroke:#000000;stroke-width:2" />
    <line x1="410" y1="190" x2="430" y2="190" style="stroke:#000000;stroke-width:2" />
    <text x="415" y = "185" fill = "#000000" font-size = "10px" font-family = "futura">T</text>
    <line x1="430" y1="180" x2="450" y2="180" style="stroke:#000000;stroke-width:2" />
    <line x1="510" y1="210" x2="510" y2="150" style="stroke:#000000;stroke-width:2" />
    <line x1="510" y1="150" x2="450" y2="150" style="stroke:#000000;stroke-width:2" />
    <line x1="450" y1="150" x2="450" y2="210" style="stroke:#000000;stroke-width:2" />
    <line x1="450" y1="210" x2="510" y2="210" style="stroke:#000000;stroke-width:2" />
    <line x1="450" y1="180" x2="457" y2="180" style="stroke:#000000;stroke-width:2" />
    <line x1="457" y1="180" x2="457" y2="172" style="stroke:#000000;stroke-width:2" />
    <line x1="457" y1="180" x2="458" y2="165" style="stroke:#000000;stroke-width:2" />
    <line x1="458" y1="165" x2="473" y2="165" style="stroke:#000000;stroke-width:2" />
    <line x1="473" y1="165" x2="488" y2="165" style="stroke:#000000;stroke-width:2" />
    <line x1="488" y1="165" x2="503" y2="165" style="stroke:#000000;stroke-width:2" />
    <line x1="503" y1="165" x2="502" y2="180" style="stroke:#000000;stroke-width:2" />
    <line x1="502" y1="180" x2="502" y2="195" style="stroke:#000000;stroke-width:2" />
    <line x1="502" y1="195" x2="487" y2="195" style="stroke:#000000;stroke-width:2" />
    <line x1="487" y1="195" x2="472" y2="195" style="stroke:#000000;stroke-width:2" />
    <line x1="472" y1="195" x2="457" y2="195" style="stroke:#000000;stroke-width:2" />
    <line x1="457" y1="195" x2="457" y2="180" style="stroke:#000000;stroke-width:2" />
  <path d="M467.0096189432332 179.9999999999929           A14.999999999999996 14.999999999999996 0 0 1 492.9903810567664 179.99999999999275" fill = "none" stroke = "#000000" stroke-width = "2" />
    <line x1="480" y1="187" x2="491" y2="169" style="stroke:#000000;stroke-width:2" />
    <line x1="491" y1="169" x2="491" y2="173" style="stroke:#000000;stroke-width:2" />
    <line x1="491" y1="169" x2="487" y2="171" style="stroke:#000000;stroke-width:2" />
    <line x1="570" y1="210" x2="570" y2="150" style="stroke:#000000;stroke-width:2" />
    <line x1="570" y1="150" x2="510" y2="150" style="stroke:#000000;stroke-width:2" />
    <line x1="510" y1="150" x2="510" y2="210" style="stroke:#000000;stroke-width:2" />
    <line x1="510" y1="210" x2="570" y2="210" style="stroke:#000000;stroke-width:2" />
    <line x1="570" y1="180" x2="510" y2="180" style="stroke:#000000;stroke-width:2" />
    <line x1="150" y1="270" x2="150" y2="210" style="stroke:#000000;stroke-width:2" />
    <line x1="150" y1="210" x2="90" y2="210" style="stroke:#000000;stroke-width:2" />
    <line x1="90" y1="210" x2="90" y2="270" style="stroke:#000000;stroke-width:2" />
    <line x1="90" y1="270" x2="150" y2="270" style="stroke:#000000;stroke-width:2" />
    <line x1="90" y1="236" x2="150" y2="236" style="stroke:#000000;stroke-width:2" />
    <line x1="90" y1="240" x2="150" y2="240" style="stroke:#000000;stroke-width:2" />
    <line x1="210" y1="270" x2="210" y2="210" style="stroke:#000000;stroke-width:2" />
    <line x1="210" y1="210" x2="150" y2="210" style="stroke:#000000;stroke-width:2" />
    <line x1="150" y1="210" x2="150" y2="270" style="stroke:#000000;stroke-width:2" />
    <line x1="150" y1="270" x2="210" y2="270" style="stroke:#000000;stroke-width:2" />
    <line x1="150" y1="240" x2="210" y2="240" style="stroke:#000000;stroke-width:2" />
    <line x1="173" y1="248" x2="188" y2="233" style="stroke:#000000;stroke-width:2" />
    <text x="173" y = "233" fill = "#000000" font-size = "14.999999999999996px" font-family = "futura">n</text>
    <line x1="270" y1="270" x2="270" y2="210" style="stroke:#000000;stroke-width:2" />
    <line x1="270" y1="210" x2="210" y2="210" style="stroke:#000000;stroke-width:2" />
    <line x1="210" y1="210" x2="210" y2="270" style="stroke:#000000;stroke-width:2" />
    <line x1="210" y1="270" x2="270" y2="270" style="stroke:#000000;stroke-width:2" />
    <line x1="210" y1="210" x2="270" y2="210" style="stroke:#000000;stroke-width:2" />
    <line x1="210" y1="270" x2="270" y2="270" style="stroke:#000000;stroke-width:2" />
    <circle cx="240" cy = "270" r = "3.749999999999999" stroke = "#000000" stroke-width = "2" fill = "none" />
    <line x1="240" y1="270" x2="240" y2="210" style="stroke:#000000;stroke-width:2" />
    <circle cx="240" cy = "210" r = "3.749999999999999" stroke = "#000000" stroke-width = "2" fill = "#000000" />
    <line x1="330" y1="270" x2="330" y2="210" style="stroke:#000000;stroke-width:2" />
    <line x1="330" y1="210" x2="270" y2="210" style="stroke:#000000;stroke-width:2" />
    <line x1="270" y1="210" x2="270" y2="270" style="stroke:#000000;stroke-width:2" />
    <line x1="270" y1="270" x2="330" y2="270" style="stroke:#000000;stroke-width:2" />
    <line x1="270" y1="210" x2="330" y2="210" style="stroke:#000000;stroke-width:2" />
    <line x1="270" y1="270" x2="330" y2="270" style="stroke:#000000;stroke-width:2" />
    <line x1="300" y1="270" x2="305" y2="265" style="stroke:#000000;stroke-width:2" />
    <line x1="300" y1="270" x2="305" y2="275" style="stroke:#000000;stroke-width:2" />
    <line x1="300" y1="270" x2="295" y2="275" style="stroke:#000000;stroke-width:2" />
    <line x1="300" y1="270" x2="295" y2="265" style="stroke:#000000;stroke-width:2" />
    <line x1="300" y1="270" x2="300" y2="210" style="stroke:#000000;stroke-width:2" />
    <line x1="300" y1="210" x2="305" y2="205" style="stroke:#000000;stroke-width:2" />
    <line x1="300" y1="210" x2="305" y2="215" style="stroke:#000000;stroke-width:2" />
    <line x1="300" y1="210" x2="295" y2="215" style="stroke:#000000;stroke-width:2" />
    <line x1="300" y1="210" x2="295" y2="205" style="stroke:#000000;stroke-width:2" />
    <line x1="390" y1="270" x2="390" y2="210" style="stroke:#000000;stroke-width:2" />
    <line x1="390" y1="210" x2="330" y2="210" style="stroke:#000000;stroke-width:2" />
    <line x1="330" y1="210" x2="330" y2="270" style="stroke:#000000;stroke-width:2" />
    <line x1="330" y1="270" x2="390" y2="270" style="stroke:#000000;stroke-width:2" />
    <line x1="330" y1="180" x2="390" y2="180" style="stroke:#000000;stroke-width:2" />
    <line x1="360" y1="180" x2="360" y2="210" style="stroke:#000000;stroke-width:2" />
    <line x1="360" y1="210" x2="360" y2="240" style="stroke:#000000;stroke-width:2" />
    <line x1="360" y1="240" x2="330" y2="240" style="stroke:#000000;stroke-width:2" />
    <line x1="360" y1="240" x2="390" y2="240" style="stroke:#000000;stroke-width:2" />
    <line x1="360" y1="240" x2="360" y2="270" style="stroke:#000000;stroke-width:2" />
    <line x1="360" y1="270" x2="360" y2="300" style="stroke:#000000;stroke-width:2" />
    <line x1="360" y1="300" x2="330" y2="300" style="stroke:#000000;stroke-width:2" />
    <line x1="360" y1="300" x2="390" y2="300" style="stroke:#000000;stroke-width:2" />
    <line x1="360" y1="300" x2="365" y2="295" style="stroke:#000000;stroke-width:2" />
    <line x1="360" y1="300" x2="365" y2="305" style="stroke:#000000;stroke-width:2" />
    <line x1="360" y1="300" x2="355" y2="305" style="stroke:#000000;stroke-width:2" />
    <line x1="360" y1="300" x2="355" y2="295" style="stroke:#000000;stroke-width:2" />
    <line x1="360" y1="240" x2="365" y2="235" style="stroke:#000000;stroke-width:2" />
    <line x1="360" y1="240" x2="365" y2="245" style="stroke:#000000;stroke-width:2" />
    <line x1="360" y1="240" x2="355" y2="245" style="stroke:#000000;stroke-width:2" />
    <line x1="360" y1="240" x2="355" y2="235" style="stroke:#000000;stroke-width:2" />
    <circle cx="360" cy = "180" r = "3.749999999999999" stroke = "#000000" stroke-width = "2" fill = "#000000" />
    <line x1="450" y1="270" x2="450" y2="210" style="stroke:#000000;stroke-width:2" />
    <line x1="450" y1="210" x2="390" y2="210" style="stroke:#000000;stroke-width:2" />
    <line x1="390" y1="210" x2="390" y2="270" style="stroke:#000000;stroke-width:2" />
    <line x1="390" y1="270" x2="450" y2="270" style="stroke:#000000;stroke-width:2" />
    <line x1="390" y1="180" x2="450" y2="180" style="stroke:#000000;stroke-width:2" />
    <line x1="420" y1="180" x2="420" y2="240" style="stroke:#000000;stroke-width:2" />
    <line x1="420" y1="240" x2="390" y2="240" style="stroke:#000000;stroke-width:2" />
    <line x1="420" y1="240" x2="450" y2="240" style="stroke:#000000;stroke-width:2" />
    <line x1="420" y1="240" x2="420" y2="270" style="stroke:#000000;stroke-width:2" />
    <line x1="420" y1="270" x2="420" y2="300" style="stroke:#000000;stroke-width:2" />
    <line x1="420" y1="300" x2="450" y2="300" style="stroke:#000000;stroke-width:2" />
    <line x1="420" y1="300" x2="390" y2="300" style="stroke:#000000;stroke-width:2" />
    <circle cx="420" cy = "300" r = "3.749999999999999" stroke = "#000000" stroke-width = "2" fill = "none" />
    <line x1="420" y1="300" x2="420" y2="304" style="stroke:#000000;stroke-width:2" />
    <circle cx="420" cy = "240" r = "3.749999999999999" stroke = "#000000" stroke-width = "2" fill = "#000000" />
    <circle cx="420" cy = "180" r = "3.749999999999999" stroke = "#000000" stroke-width = "2" fill = "#000000" />
    <line x1="510" y1="270" x2="510" y2="210" style="stroke:#000000;stroke-width:2" />
    <line x1="510" y1="210" x2="450" y2="210" style="stroke:#000000;stroke-width:2" />
    <line x1="450" y1="210" x2="450" y2="270" style="stroke:#000000;stroke-width:2" />
    <line x1="450" y1="270" x2="510" y2="270" style="stroke:#000000;stroke-width:2" />
    <line x1="450" y1="238" x2="470" y2="238" style="stroke:#000000;stroke-width:2" />
    <line x1="450" y1="233" x2="470" y2="233" style="stroke:#000000;stroke-width:2" />
    <line x1="450" y1="243" x2="470" y2="243" style="stroke:#000000;stroke-width:2" />
    <line x1="450" y1="248" x2="470" y2="248" style="stroke:#000000;stroke-width:2" />
    <line x1="490" y1="250" x2="490" y2="230" style="stroke:#000000;stroke-width:2" />
    <line x1="490" y1="230" x2="470" y2="230" style="stroke:#000000;stroke-width:2" />
    <line x1="470" y1="230" x2="470" y2="250" style="stroke:#000000;stroke-width:2" />
    <line x1="470" y1="250" x2="490" y2="250" style="stroke:#000000;stroke-width:2" />
    <line x1="480" y1="230" x2="480" y2="210" style="stroke:#000000;stroke-width:2" />
    <text x="475" y = "245" fill = "#000000" font-size = "9.999999999999998px" font-family = "futura">u</text>
    <line x1="490" y1="243" x2="510" y2="243" style="stroke:#000000;stroke-width:2" />
    <line x1="490" y1="248" x2="510" y2="248" style="stroke:#000000;stroke-width:2" />
    <line x1="490" y1="238" x2="510" y2="238" style="stroke:#000000;stroke-width:2" />
    <line x1="490" y1="233" x2="510" y2="233" style="stroke:#000000;stroke-width:2" />
    <line x1="570" y1="270" x2="570" y2="210" style="stroke:#000000;stroke-width:2" />
    <line x1="570" y1="210" x2="510" y2="210" style="stroke:#000000;stroke-width:2" />
    <line x1="510" y1="210" x2="510" y2="270" style="stroke:#000000;stroke-width:2" />
    <line x1="510" y1="270" x2="570" y2="270" style="stroke:#000000;stroke-width:2" />
    <line x1="510" y1="240" x2="530" y2="240" style="stroke:#000000;stroke-width:2" />
    <line x1="530" y1="240" x2="530" y2="220" style="stroke:#000000;stroke-width:2" />
    <line x1="530" y1="240" x2="530" y2="260" style="stroke:#000000;stroke-width:2" />
    <line x1="530" y1="260" x2="550" y2="240" style="stroke:#000000;stroke-width:2" />
    <line x1="550" y1="240" x2="530" y2="220" style="stroke:#000000;stroke-width:2" />
    <circle cx="553" cy = "240" r = "2.4999999999999996" stroke = "#000000" stroke-width = "2" fill = "none" />
    <line x1="555" y1="240" x2="560" y2="240" style="stroke:#000000;stroke-width:2" />
    <line x1="560" y1="240" x2="565" y2="240" style="stroke:#000000;stroke-width:2" />
    <line x1="565" y1="240" x2="570" y2="240" style="stroke:#000000;stroke-width:2" />
    <line x1="150" y1="330" x2="150" y2="270" style="stroke:#000000;stroke-width:2" />
    <line x1="150" y1="270" x2="90" y2="270" style="stroke:#000000;stroke-width:2" />
    <line x1="90" y1="270" x2="90" y2="330" style="stroke:#000000;stroke-width:2" />
    <line x1="90" y1="330" x2="150" y2="330" style="stroke:#000000;stroke-width:2" />
    <line x1="90" y1="290" x2="110" y2="290" style="stroke:#000000;stroke-width:2" />
    <line x1="90" y1="310" x2="110" y2="310" style="stroke:#000000;stroke-width:2" />
  <path d="M110.00000000000317 280           A19.999999999999996 19.999999999999996 0 0 1 110.00000000000048 320" fill = "none" stroke = "#000000" stroke-width = "2" />
    <line x1="110" y1="300" x2="110" y2="280" style="stroke:#000000;stroke-width:2" />
    <line x1="110" y1="300" x2="110" y2="320" style="stroke:#000000;stroke-width:2" />
    <line x1="130" y1="300" x2="150" y2="300" style="stroke:#000000;stroke-width:2" />
    <line x1="210" y1="330" x2="210" y2="270" style="stroke:#000000;stroke-width:2" />
    <line x1="210" y1="270" x2="150" y2="270" style="stroke:#000000;stroke-width:2" />
    <line x1="150" y1="270" x2="150" y2="330" style="stroke:#000000;stroke-width:2" />
    <line x1="150" y1="330" x2="210" y2="330" style="stroke:#000000;stroke-width:2" />
    <line x1="150" y1="300" x2="170" y2="300" style="stroke:#000000;stroke-width:2" />
    <line x1="170" y1="300" x2="170" y2="280" style="stroke:#000000;stroke-width:2" />
    <line x1="170" y1="320" x2="170" y2="300" style="stroke:#000000;stroke-width:2" />
    <line x1="170" y1="320" x2="190" y2="300" style="stroke:#000000;stroke-width:2" />
    <line x1="190" y1="300" x2="170" y2="280" style="stroke:#000000;stroke-width:2" />
    <line x1="190" y1="300" x2="210" y2="300" style="stroke:#000000;stroke-width:2" />
    <line x1="270" y1="330" x2="270" y2="270" style="stroke:#000000;stroke-width:2" />
    <line x1="270" y1="270" x2="210" y2="270" style="stroke:#000000;stroke-width:2" />
    <line x1="210" y1="270" x2="210" y2="330" style="stroke:#000000;stroke-width:2" />
    <line x1="210" y1="330" x2="270" y2="330" style="stroke:#000000;stroke-width:2" />
    <line x1="210" y1="300" x2="240" y2="300" style="stroke:#000000;stroke-width:2" />
    <circle cx="244" cy = "300" r = "3.749999999999999" stroke = "#000000" stroke-width = "2" fill = "none" />
    <line x1="330" y1="330" x2="330" y2="270" style="stroke:#000000;stroke-width:2" />
    <line x1="330" y1="270" x2="270" y2="270" style="stroke:#000000;stroke-width:2" />
    <line x1="270" y1="270" x2="270" y2="330" style="stroke:#000000;stroke-width:2" />
    <line x1="270" y1="330" x2="330" y2="330" style="stroke:#000000;stroke-width:2" />
    <line x1="300" y1="300" x2="300" y2="315" style="stroke:#000000;stroke-width:2" />
    <line x1="300" y1="315" x2="292" y2="315" style="stroke:#000000;stroke-width:2" />
    <line x1="292" y1="315" x2="300" y2="323" style="stroke:#000000;stroke-width:2" />
    <line x1="300" y1="323" x2="307" y2="315" style="stroke:#000000;stroke-width:2" />
    <line x1="307" y1="315" x2="300" y2="315" style="stroke:#000000;stroke-width:2" />
    <line x1="390" y1="330" x2="390" y2="270" style="stroke:#000000;stroke-width:2" />
    <line x1="390" y1="270" x2="330" y2="270" style="stroke:#000000;stroke-width:2" />
    <line x1="330" y1="270" x2="330" y2="330" style="stroke:#000000;stroke-width:2" />
    <line x1="330" y1="330" x2="390" y2="330" style="stroke:#000000;stroke-width:2" />
    <line x1="360" y1="330" x2="360" y2="323" style="stroke:#000000;stroke-width:2" />
    <line x1="360" y1="323" x2="354" y2="319" style="stroke:#000000;stroke-width:2" />
    <line x1="354" y1="319" x2="360" y2="315" style="stroke:#000000;stroke-width:2" />
    <line x1="360" y1="315" x2="366" y2="311" style="stroke:#000000;stroke-width:2" />
    <line x1="366" y1="311" x2="360" y2="308" style="stroke:#000000;stroke-width:2" />
    <line x1="360" y1="308" x2="354" y2="304" style="stroke:#000000;stroke-width:2" />
    <line x1="354" y1="304" x2="360" y2="300" style="stroke:#000000;stroke-width:2" />
    <line x1="360" y1="300" x2="366" y2="296" style="stroke:#000000;stroke-width:2" />
    <line x1="366" y1="296" x2="360" y2="293" style="stroke:#000000;stroke-width:2" />
    <line x1="360" y1="293" x2="354" y2="289" style="stroke:#000000;stroke-width:2" />
    <line x1="354" y1="289" x2="360" y2="285" style="stroke:#000000;stroke-width:2" />
    <line x1="360" y1="285" x2="366" y2="281" style="stroke:#000000;stroke-width:2" />
    <line x1="366" y1="281" x2="360" y2="278" style="stroke:#000000;stroke-width:2" />
    <line x1="360" y1="278" x2="360" y2="270" style="stroke:#000000;stroke-width:2" />
    <line x1="956" y1="336" x2="990" y2="336" style="stroke:#000000;stroke-width:2" />
    <line x1="1023" y1="353" x2="1023" y2="319" style="stroke:#000000;stroke-width:2" />
    <line x1="1023" y1="319" x2="990" y2="319" style="stroke:#000000;stroke-width:2" />
    <line x1="990" y1="319" x2="990" y2="353" style="stroke:#000000;stroke-width:2" />
    <line x1="990" y1="353" x2="1023" y2="353" style="stroke:#000000;stroke-width:2" />
    <text x="998" y = "344" fill = "#000000" font-size = "16.666666666666668px" font-family = "futura">X</text>
    <line x1="1023" y1="336" x2="1056" y2="336" style="stroke:#000000;stroke-width:2" />
    <line x1="1056" y1="336" x2="1056" y2="236" style="stroke:#000000;stroke-width:2" />
    <line x1="1056" y1="336" x2="956" y2="336" style="stroke:#000000;stroke-width:2" />
    <line x1="1056" y1="336" x2="1156" y2="336" style="stroke:#000000;stroke-width:2" />
<circle cx="1056" cy = "286" r = "3" stroke = "#000000" stroke-width = "2" fill = "#000000" />
<circle cx="1056" cy = "136" r = "3" stroke = "#000000" stroke-width = "2" fill = "#000000" />
    <line x1="50" y1="522" x2="50" y2="497" style="stroke:#000000;stroke-width:2" />
    <line x1="50" y1="497" x2="25" y2="497" style="stroke:#000000;stroke-width:2" />
    <line x1="25" y1="497" x2="25" y2="522" style="stroke:#000000;stroke-width:2" />
    <line x1="25" y1="522" x2="50" y2="522" style="stroke:#000000;stroke-width:2" />
    <line x1="33" y1="514" x2="33" y2="505" style="stroke:#000000;stroke-width:2" />
    <line x1="33" y1="505" x2="25" y2="505" style="stroke:#000000;stroke-width:2" />
    <line x1="25" y1="505" x2="25" y2="514" style="stroke:#000000;stroke-width:2" />
    <line x1="25" y1="514" x2="33" y2="514" style="stroke:#000000;stroke-width:2" />
    <line x1="42" y1="514" x2="42" y2="505" style="stroke:#000000;stroke-width:2" />
    <line x1="42" y1="505" x2="33" y2="505" style="stroke:#000000;stroke-width:2" />
    <line x1="33" y1="505" x2="33" y2="514" style="stroke:#000000;stroke-width:2" />
    <line x1="33" y1="514" x2="42" y2="514" style="stroke:#000000;stroke-width:2" />
    <line x1="50" y1="514" x2="50" y2="505" style="stroke:#000000;stroke-width:2" />
    <line x1="50" y1="505" x2="42" y2="505" style="stroke:#000000;stroke-width:2" />
    <line x1="42" y1="505" x2="42" y2="514" style="stroke:#000000;stroke-width:2" />
    <line x1="42" y1="514" x2="50" y2="514" style="stroke:#000000;stroke-width:2" />
    <line x1="75" y1="522" x2="75" y2="497" style="stroke:#000000;stroke-width:2" />
    <line x1="75" y1="497" x2="50" y2="497" style="stroke:#000000;stroke-width:2" />
    <line x1="50" y1="497" x2="50" y2="522" style="stroke:#000000;stroke-width:2" />
    <line x1="50" y1="522" x2="75" y2="522" style="stroke:#000000;stroke-width:2" />
    <line x1="69" y1="509" x2="56" y2="510" style="stroke:#000000;stroke-width:2" />
    <line x1="100" y1="522" x2="100" y2="497" style="stroke:#000000;stroke-width:2" />
    <line x1="100" y1="497" x2="75" y2="497" style="stroke:#000000;stroke-width:2" />
    <line x1="75" y1="497" x2="75" y2="522" style="stroke:#000000;stroke-width:2" />
    <line x1="75" y1="522" x2="100" y2="522" style="stroke:#000000;stroke-width:2" />
  <path d="M83.08058261758396 505.08058261758356           A6.25 6.25 0 0 1 91.91941738241577 505.08058261758333" fill = "none" stroke = "#000000" stroke-width = "2" />
  <path d="M83.08058261758416 513.9194173824154           A6.25 6.25 0 0 1 83.08058261758396 505.08058261758356" fill = "none" stroke = "#000000" stroke-width = "2" />
  <path d="M91.91941738241597 513.9194173824152           A6.25 6.25 0 0 1 83.08058261758416 513.9194173824154" fill = "none" stroke = "#000000" stroke-width = "2" />
    <line x1="87" y1="509" x2="92" y2="505" style="stroke:#000000;stroke-width:2" />
    <line x1="87" y1="500" x2="92" y2="505" style="stroke:#000000;stroke-width:2" />
    <line x1="125" y1="522" x2="125" y2="497" style="stroke:#000000;stroke-width:2" />
    <line x1="125" y1="497" x2="100" y2="497" style="stroke:#000000;stroke-width:2" />
    <line x1="100" y1="497" x2="100" y2="522" style="stroke:#000000;stroke-width:2" />
    <line x1="100" y1="522" x2="125" y2="522" style="stroke:#000000;stroke-width:2" />
    <line x1="106" y1="509" x2="119" y2="509" style="stroke:#000000;stroke-width:2" />
    <line x1="119" y1="509" x2="117" y2="512" style="stroke:#000000;stroke-width:2" />
    <line x1="119" y1="509" x2="117" y2="507" style="stroke:#000000;stroke-width:2" />
    <line x1="150" y1="522" x2="150" y2="497" style="stroke:#000000;stroke-width:2" />
    <line x1="150" y1="497" x2="125" y2="497" style="stroke:#000000;stroke-width:2" />
    <line x1="125" y1="497" x2="125" y2="522" style="stroke:#000000;stroke-width:2" />
    <line x1="125" y1="522" x2="150" y2="522" style="stroke:#000000;stroke-width:2" />
    <line x1="141" y1="516" x2="141" y2="509" style="stroke:#000000;stroke-width:2" />
    <line x1="141" y1="516" x2="134" y2="516" style="stroke:#000000;stroke-width:2" />
    <line x1="134" y1="516" x2="134" y2="509" style="stroke:#000000;stroke-width:2" />
    <line x1="134" y1="509" x2="131" y2="509" style="stroke:#000000;stroke-width:2" />
    <line x1="131" y1="509" x2="137" y2="503" style="stroke:#000000;stroke-width:2" />
    <line x1="137" y1="503" x2="144" y2="509" style="stroke:#000000;stroke-width:2" />
    <line x1="144" y1="509" x2="141" y2="509" style="stroke:#000000;stroke-width:2" />
    <line x1="175" y1="522" x2="175" y2="497" style="stroke:#000000;stroke-width:2" />
    <line x1="175" y1="497" x2="150" y2="497" style="stroke:#000000;stroke-width:2" />
    <line x1="150" y1="497" x2="150" y2="522" style="stroke:#000000;stroke-width:2" />
    <line x1="150" y1="522" x2="175" y2="522" style="stroke:#000000;stroke-width:2" />
  <path d="M158.08058261758387 505.08058261758185           A6.25 6.25 0 0 1 166.9194173824157 505.0805826175814" fill = "none" stroke = "#000000" stroke-width = "2" />
  <path d="M158.08058261758433 513.9194173824137           A6.25 6.25 0 0 1 158.08058261758387 505.08058261758185" fill = "none" stroke = "#000000" stroke-width = "2" />
  <path d="M166.91941738241613 513.9194173824133           A6.25 6.25 0 0 1 158.08058261758433 513.9194173824137" fill = "none" stroke = "#000000" stroke-width = "2" />
    <line x1="163" y1="509" x2="167" y2="514" style="stroke:#000000;stroke-width:2" />
    <line x1="163" y1="519" x2="167" y2="514" style="stroke:#000000;stroke-width:2" />
    <line x1="200" y1="522" x2="200" y2="497" style="stroke:#000000;stroke-width:2" />
    <line x1="200" y1="497" x2="175" y2="497" style="stroke:#000000;stroke-width:2" />
    <line x1="175" y1="497" x2="175" y2="522" style="stroke:#000000;stroke-width:2" />
    <line x1="175" y1="522" x2="200" y2="522" style="stroke:#000000;stroke-width:2" />
    <line x1="188" y1="516" x2="188" y2="509" style="stroke:#000000;stroke-width:2" />
    <line x1="188" y1="516" x2="181" y2="516" style="stroke:#000000;stroke-width:2" />
    <line x1="181" y1="516" x2="181" y2="509" style="stroke:#000000;stroke-width:2" />
    <line x1="181" y1="509" x2="188" y2="509" style="stroke:#000000;stroke-width:2" />
    <line x1="188" y1="509" x2="194" y2="509" style="stroke:#000000;stroke-width:2" />
    <line x1="194" y1="509" x2="194" y2="516" style="stroke:#000000;stroke-width:2" />
    <line x1="194" y1="516" x2="188" y2="516" style="stroke:#000000;stroke-width:2" />
    <line x1="225" y1="522" x2="225" y2="497" style="stroke:#000000;stroke-width:2" />
    <line x1="225" y1="497" x2="200" y2="497" style="stroke:#000000;stroke-width:2" />
    <line x1="200" y1="497" x2="200" y2="522" style="stroke:#000000;stroke-width:2" />
    <line x1="200" y1="522" x2="225" y2="522" style="stroke:#000000;stroke-width:2" />
    <line x1="219" y1="509" x2="206" y2="509" style="stroke:#000000;stroke-width:2" />
    <line x1="250" y1="522" x2="250" y2="497" style="stroke:#000000;stroke-width:2" />
    <line x1="250" y1="497" x2="225" y2="497" style="stroke:#000000;stroke-width:2" />
    <line x1="225" y1="497" x2="225" y2="522" style="stroke:#000000;stroke-width:2" />
    <line x1="225" y1="522" x2="250" y2="522" style="stroke:#000000;stroke-width:2" />
    <line x1="234" y1="503" x2="234" y2="509" style="stroke:#000000;stroke-width:2" />
    <line x1="234" y1="503" x2="241" y2="503" style="stroke:#000000;stroke-width:2" />
    <line x1="241" y1="503" x2="241" y2="509" style="stroke:#000000;stroke-width:2" />
    <line x1="241" y1="509" x2="244" y2="509" style="stroke:#000000;stroke-width:2" />
    <line x1="244" y1="509" x2="238" y2="516" style="stroke:#000000;stroke-width:2" />
    <line x1="238" y1="516" x2="231" y2="509" style="stroke:#000000;stroke-width:2" />
    <line x1="231" y1="509" x2="234" y2="509" style="stroke:#000000;stroke-width:2" />
    <line x1="275" y1="522" x2="275" y2="497" style="stroke:#000000;stroke-width:2" />
    <line x1="275" y1="497" x2="250" y2="497" style="stroke:#000000;stroke-width:2" />
    <line x1="250" y1="497" x2="250" y2="522" style="stroke:#000000;stroke-width:2" />
    <line x1="250" y1="522" x2="275" y2="522" style="stroke:#000000;stroke-width:2" />
    <line x1="263" y1="509" x2="262" y2="503" style="stroke:#000000;stroke-width:2" />
    <line x1="263" y1="509" x2="256" y2="509" style="stroke:#000000;stroke-width:2" />
    <line x1="263" y1="509" x2="263" y2="516" style="stroke:#000000;stroke-width:2" />
    <line x1="263" y1="509" x2="269" y2="509" style="stroke:#000000;stroke-width:2" />
    <line x1="300" y1="522" x2="300" y2="497" style="stroke:#000000;stroke-width:2" />
    <line x1="300" y1="497" x2="275" y2="497" style="stroke:#000000;stroke-width:2" />
    <line x1="275" y1="497" x2="275" y2="522" style="stroke:#000000;stroke-width:2" />
    <line x1="275" y1="522" x2="300" y2="522" style="stroke:#000000;stroke-width:2" />
    <line x1="294" y1="516" x2="294" y2="503" style="stroke:#000000;stroke-width:2" />
    <line x1="294" y1="503" x2="281" y2="503" style="stroke:#000000;stroke-width:2" />
    <line x1="281" y1="503" x2="281" y2="516" style="stroke:#000000;stroke-width:2" />
    <line x1="281" y1="516" x2="294" y2="516" style="stroke:#000000;stroke-width:2" />
    <line x1="325" y1="522" x2="325" y2="497" style="stroke:#000000;stroke-width:2" />
    <line x1="325" y1="497" x2="300" y2="497" style="stroke:#000000;stroke-width:2" />
    <line x1="300" y1="497" x2="300" y2="522" style="stroke:#000000;stroke-width:2" />
    <line x1="300" y1="522" x2="325" y2="522" style="stroke:#000000;stroke-width:2" />
    <line x1="319" y1="509" x2="306" y2="509" style="stroke:#000000;stroke-width:2" />
    <line x1="350" y1="522" x2="350" y2="497" style="stroke:#000000;stroke-width:2" />
    <line x1="350" y1="497" x2="325" y2="497" style="stroke:#000000;stroke-width:2" />
    <line x1="325" y1="497" x2="325" y2="522" style="stroke:#000000;stroke-width:2" />
    <line x1="325" y1="522" x2="350" y2="522" style="stroke:#000000;stroke-width:2" />
    <line x1="344" y1="506" x2="338" y2="506" style="stroke:#000000;stroke-width:2" />
    <line x1="344" y1="506" x2="344" y2="513" style="stroke:#000000;stroke-width:2" />
    <line x1="344" y1="513" x2="337" y2="513" style="stroke:#000000;stroke-width:2" />
    <line x1="337" y1="513" x2="337" y2="516" style="stroke:#000000;stroke-width:2" />
    <line x1="337" y1="516" x2="331" y2="509" style="stroke:#000000;stroke-width:2" />
    <line x1="331" y1="509" x2="338" y2="503" style="stroke:#000000;stroke-width:2" />
    <line x1="338" y1="503" x2="338" y2="506" style="stroke:#000000;stroke-width:2" />
    <line x1="375" y1="522" x2="375" y2="497" style="stroke:#000000;stroke-width:2" />
    <line x1="375" y1="497" x2="350" y2="497" style="stroke:#000000;stroke-width:2" />
    <line x1="350" y1="497" x2="350" y2="522" style="stroke:#000000;stroke-width:2" />
    <line x1="350" y1="522" x2="375" y2="522" style="stroke:#000000;stroke-width:2" />
    <line x1="369" y1="509" x2="356" y2="509" style="stroke:#000000;stroke-width:2" />
    <line x1="400" y1="522" x2="400" y2="497" style="stroke:#000000;stroke-width:2" />
    <line x1="400" y1="497" x2="375" y2="497" style="stroke:#000000;stroke-width:2" />
    <line x1="375" y1="497" x2="375" y2="522" style="stroke:#000000;stroke-width:2" />
    <line x1="375" y1="522" x2="400" y2="522" style="stroke:#000000;stroke-width:2" />
    <line x1="391" y1="516" x2="391" y2="509" style="stroke:#000000;stroke-width:2" />
    <line x1="391" y1="516" x2="384" y2="516" style="stroke:#000000;stroke-width:2" />
    <line x1="384" y1="516" x2="384" y2="509" style="stroke:#000000;stroke-width:2" />
    <line x1="384" y1="509" x2="381" y2="509" style="stroke:#000000;stroke-width:2" />
    <line x1="381" y1="509" x2="388" y2="503" style="stroke:#000000;stroke-width:2" />
    <line x1="388" y1="503" x2="394" y2="509" style="stroke:#000000;stroke-width:2" />
    <line x1="394" y1="509" x2="391" y2="509" style="stroke:#000000;stroke-width:2" />
    <line x1="425" y1="522" x2="425" y2="497" style="stroke:#000000;stroke-width:2" />
    <line x1="425" y1="497" x2="400" y2="497" style="stroke:#000000;stroke-width:2" />
    <line x1="400" y1="497" x2="400" y2="522" style="stroke:#000000;stroke-width:2" />
    <line x1="400" y1="522" x2="425" y2="522" style="stroke:#000000;stroke-width:2" />
    <line x1="419" y1="506" x2="413" y2="506" style="stroke:#000000;stroke-width:2" />
    <line x1="419" y1="506" x2="419" y2="513" style="stroke:#000000;stroke-width:2" />
    <line x1="419" y1="513" x2="412" y2="513" style="stroke:#000000;stroke-width:2" />
    <line x1="412" y1="513" x2="412" y2="516" style="stroke:#000000;stroke-width:2" />
    <line x1="412" y1="516" x2="406" y2="509" style="stroke:#000000;stroke-width:2" />
    <line x1="406" y1="509" x2="413" y2="503" style="stroke:#000000;stroke-width:2" />
    <line x1="413" y1="503" x2="413" y2="506" style="stroke:#000000;stroke-width:2" />
    <line x1="450" y1="522" x2="450" y2="497" style="stroke:#000000;stroke-width:2" />
    <line x1="450" y1="497" x2="425" y2="497" style="stroke:#000000;stroke-width:2" />
    <line x1="425" y1="497" x2="425" y2="522" style="stroke:#000000;stroke-width:2" />
    <line x1="425" y1="522" x2="450" y2="522" style="stroke:#000000;stroke-width:2" />
    <line x1="437" y1="510" x2="438" y2="503" style="stroke:#000000;stroke-width:2" />
    <line x1="437" y1="510" x2="431" y2="510" style="stroke:#000000;stroke-width:2" />
    <line x1="437" y1="510" x2="437" y2="516" style="stroke:#000000;stroke-width:2" />
    <line x1="437" y1="510" x2="444" y2="510" style="stroke:#000000;stroke-width:2" />
    <line x1="450" y1="522" x2="464" y2="497" style="stroke:#000000;stroke-width:2" />
    <line x1="450" y1="497" x2="464" y2="522" style="stroke:#000000;stroke-width:2" />
    <line x1="493" y1="522" x2="493" y2="497" style="stroke:#000000;stroke-width:2" />
    <line x1="493" y1="497" x2="468" y2="497" style="stroke:#000000;stroke-width:2" />
    <line x1="468" y1="497" x2="468" y2="522" style="stroke:#000000;stroke-width:2" />
    <line x1="468" y1="522" x2="493" y2="522" style="stroke:#000000;stroke-width:2" />
    <line x1="474" y1="516" x2="469" y2="504" style="stroke:#000000;stroke-width:2" />
    <line x1="474" y1="516" x2="479" y2="504" style="stroke:#000000;stroke-width:2" />
    <line x1="486" y1="516" x2="482" y2="504" style="stroke:#000000;stroke-width:2" />
    <line x1="486" y1="516" x2="491" y2="504" style="stroke:#000000;stroke-width:2" />
    <line x1="518" y1="522" x2="518" y2="497" style="stroke:#000000;stroke-width:2" />
    <line x1="518" y1="497" x2="493" y2="497" style="stroke:#000000;stroke-width:2" />
    <line x1="493" y1="497" x2="493" y2="522" style="stroke:#000000;stroke-width:2" />
    <line x1="493" y1="522" x2="518" y2="522" style="stroke:#000000;stroke-width:2" />
    <line x1="499" y1="513" x2="505" y2="513" style="stroke:#000000;stroke-width:2" />
    <line x1="499" y1="513" x2="499" y2="506" style="stroke:#000000;stroke-width:2" />
    <line x1="499" y1="506" x2="505" y2="506" style="stroke:#000000;stroke-width:2" />
    <line x1="505" y1="506" x2="505" y2="503" style="stroke:#000000;stroke-width:2" />
    <line x1="505" y1="503" x2="511" y2="510" style="stroke:#000000;stroke-width:2" />
    <line x1="511" y1="510" x2="505" y2="516" style="stroke:#000000;stroke-width:2" />
    <line x1="505" y1="516" x2="505" y2="513" style="stroke:#000000;stroke-width:2" />
    <line x1="543" y1="522" x2="543" y2="497" style="stroke:#000000;stroke-width:2" />
    <line x1="543" y1="497" x2="518" y2="497" style="stroke:#000000;stroke-width:2" />
    <line x1="518" y1="497" x2="518" y2="522" style="stroke:#000000;stroke-width:2" />
    <line x1="518" y1="522" x2="543" y2="522" style="stroke:#000000;stroke-width:2" />
    <line x1="536" y1="510" x2="524" y2="510" style="stroke:#000000;stroke-width:2" />
    <line x1="568" y1="522" x2="568" y2="497" style="stroke:#000000;stroke-width:2" />
    <line x1="568" y1="497" x2="543" y2="497" style="stroke:#000000;stroke-width:2" />
    <line x1="543" y1="497" x2="543" y2="522" style="stroke:#000000;stroke-width:2" />
    <line x1="543" y1="522" x2="568" y2="522" style="stroke:#000000;stroke-width:2" />
    <line x1="549" y1="513" x2="555" y2="513" style="stroke:#000000;stroke-width:2" />
    <line x1="549" y1="513" x2="549" y2="506" style="stroke:#000000;stroke-width:2" />
    <line x1="549" y1="506" x2="555" y2="506" style="stroke:#000000;stroke-width:2" />
    <line x1="555" y1="506" x2="555" y2="503" style="stroke:#000000;stroke-width:2" />
    <line x1="555" y1="503" x2="561" y2="510" style="stroke:#000000;stroke-width:2" />
    <line x1="561" y1="510" x2="555" y2="516" style="stroke:#000000;stroke-width:2" />
    <line x1="555" y1="516" x2="555" y2="513" style="stroke:#000000;stroke-width:2" />
    <line x1="593" y1="522" x2="593" y2="497" style="stroke:#000000;stroke-width:2" />
    <line x1="593" y1="497" x2="568" y2="497" style="stroke:#000000;stroke-width:2" />
    <line x1="568" y1="497" x2="568" y2="522" style="stroke:#000000;stroke-width:2" />
    <line x1="568" y1="522" x2="593" y2="522" style="stroke:#000000;stroke-width:2" />
    <line x1="583" y1="516" x2="583" y2="510" style="stroke:#000000;stroke-width:2" />
    <line x1="583" y1="516" x2="577" y2="516" style="stroke:#000000;stroke-width:2" />
    <line x1="577" y1="516" x2="577" y2="510" style="stroke:#000000;stroke-width:2" />
    <line x1="577" y1="510" x2="574" y2="510" style="stroke:#000000;stroke-width:2" />
    <line x1="574" y1="510" x2="580" y2="503" style="stroke:#000000;stroke-width:2" />
    <line x1="580" y1="503" x2="586" y2="510" style="stroke:#000000;stroke-width:2" />
    <line x1="586" y1="510" x2="583" y2="510" style="stroke:#000000;stroke-width:2" />
    <line x1="618" y1="522" x2="618" y2="497" style="stroke:#000000;stroke-width:2" />
    <line x1="618" y1="497" x2="593" y2="497" style="stroke:#000000;stroke-width:2" />
    <line x1="593" y1="497" x2="593" y2="522" style="stroke:#000000;stroke-width:2" />
    <line x1="593" y1="522" x2="618" y2="522" style="stroke:#000000;stroke-width:2" />
  <path d="M600.6393393473263 505.0805826176079           A6.25 6.25 0 0 1 609.4781741121581 505.0805826176095" fill = "none" stroke = "#000000" stroke-width = "2" />
  <path d="M600.6393393473246 513.9194173824397           A6.25 6.25 0 0 1 600.6393393473263 505.0805826176079" fill = "none" stroke = "#000000" stroke-width = "2" />
  <path d="M609.4781741121565 513.9194173824413           A6.25 6.25 0 0 1 600.6393393473246 513.9194173824397" fill = "none" stroke = "#000000" stroke-width = "2" />
    <line x1="605" y1="510" x2="609" y2="505" style="stroke:#000000;stroke-width:2" />
    <line x1="605" y1="500" x2="609" y2="505" style="stroke:#000000;stroke-width:2" />
    <line x1="643" y1="522" x2="643" y2="497" style="stroke:#000000;stroke-width:2" />
    <line x1="643" y1="497" x2="618" y2="497" style="stroke:#000000;stroke-width:2" />
    <line x1="618" y1="497" x2="618" y2="522" style="stroke:#000000;stroke-width:2" />
    <line x1="618" y1="522" x2="643" y2="522" style="stroke:#000000;stroke-width:2" />
    <line x1="630" y1="510" x2="630" y2="503" style="stroke:#000000;stroke-width:2" />
    <line x1="630" y1="510" x2="624" y2="510" style="stroke:#000000;stroke-width:2" />
    <line x1="630" y1="510" x2="630" y2="516" style="stroke:#000000;stroke-width:2" />
    <line x1="630" y1="510" x2="636" y2="510" style="stroke:#000000;stroke-width:2" />
    <line x1="668" y1="522" x2="668" y2="497" style="stroke:#000000;stroke-width:2" />
    <line x1="668" y1="497" x2="643" y2="497" style="stroke:#000000;stroke-width:2" />
    <line x1="643" y1="497" x2="643" y2="522" style="stroke:#000000;stroke-width:2" />
    <line x1="643" y1="522" x2="668" y2="522" style="stroke:#000000;stroke-width:2" />
    <line x1="655" y1="510" x2="655" y2="503" style="stroke:#000000;stroke-width:2" />
    <line x1="655" y1="510" x2="649" y2="510" style="stroke:#000000;stroke-width:2" />
    <line x1="655" y1="510" x2="655" y2="516" style="stroke:#000000;stroke-width:2" />
    <line x1="655" y1="510" x2="661" y2="510" style="stroke:#000000;stroke-width:2" />
    <line x1="693" y1="522" x2="693" y2="497" style="stroke:#000000;stroke-width:2" />
    <line x1="693" y1="497" x2="668" y2="497" style="stroke:#000000;stroke-width:2" />
    <line x1="668" y1="497" x2="668" y2="522" style="stroke:#000000;stroke-width:2" />
    <line x1="668" y1="522" x2="693" y2="522" style="stroke:#000000;stroke-width:2" />
    <line x1="674" y1="510" x2="686" y2="510" style="stroke:#000000;stroke-width:2" />
    <line x1="686" y1="510" x2="684" y2="512" style="stroke:#000000;stroke-width:2" />
    <line x1="686" y1="510" x2="684" y2="507" style="stroke:#000000;stroke-width:2" />
    <line x1="718" y1="522" x2="718" y2="497" style="stroke:#000000;stroke-width:2" />
    <line x1="718" y1="497" x2="693" y2="497" style="stroke:#000000;stroke-width:2" />
    <line x1="693" y1="497" x2="693" y2="522" style="stroke:#000000;stroke-width:2" />
    <line x1="693" y1="522" x2="718" y2="522" style="stroke:#000000;stroke-width:2" />
  <path d="M700.639339347327 505.0805826176301           A6.25 6.25 0 0 1 709.4781741121589 505.0805826176327" fill = "none" stroke = "#000000" stroke-width = "2" />
  <path d="M700.6393393473244 513.9194173824619           A6.25 6.25 0 0 1 700.639339347327 505.0805826176301" fill = "none" stroke = "#000000" stroke-width = "2" />
  <path d="M709.4781741121562 513.9194173824646           A6.25 6.25 0 0 1 700.6393393473244 513.9194173824619" fill = "none" stroke = "#000000" stroke-width = "2" />
    <line x1="705" y1="510" x2="709" y2="514" style="stroke:#000000;stroke-width:2" />
    <line x1="705" y1="519" x2="709" y2="514" style="stroke:#000000;stroke-width:2" />
    <line x1="743" y1="522" x2="743" y2="497" style="stroke:#000000;stroke-width:2" />
    <line x1="743" y1="497" x2="718" y2="497" style="stroke:#000000;stroke-width:2" />
    <line x1="718" y1="497" x2="718" y2="522" style="stroke:#000000;stroke-width:2" />
    <line x1="718" y1="522" x2="743" y2="522" style="stroke:#000000;stroke-width:2" />
    <line x1="726" y1="514" x2="726" y2="505" style="stroke:#000000;stroke-width:2" />
    <line x1="726" y1="505" x2="718" y2="505" style="stroke:#000000;stroke-width:2" />
    <line x1="718" y1="505" x2="718" y2="514" style="stroke:#000000;stroke-width:2" />
    <line x1="718" y1="514" x2="726" y2="514" style="stroke:#000000;stroke-width:2" />
    <line x1="734" y1="514" x2="734" y2="505" style="stroke:#000000;stroke-width:2" />
    <line x1="734" y1="505" x2="726" y2="505" style="stroke:#000000;stroke-width:2" />
    <line x1="726" y1="505" x2="726" y2="514" style="stroke:#000000;stroke-width:2" />
    <line x1="726" y1="514" x2="734" y2="514" style="stroke:#000000;stroke-width:2" />
    <line x1="743" y1="514" x2="743" y2="505" style="stroke:#000000;stroke-width:2" />
    <line x1="743" y1="505" x2="734" y2="505" style="stroke:#000000;stroke-width:2" />
    <line x1="734" y1="505" x2="734" y2="514" style="stroke:#000000;stroke-width:2" />
    <line x1="734" y1="514" x2="743" y2="514" style="stroke:#000000;stroke-width:2" />
    <line x1="768" y1="522" x2="768" y2="497" style="stroke:#000000;stroke-width:2" />
    <line x1="768" y1="497" x2="743" y2="497" style="stroke:#000000;stroke-width:2" />
    <line x1="743" y1="497" x2="743" y2="522" style="stroke:#000000;stroke-width:2" />
    <line x1="743" y1="522" x2="768" y2="522" style="stroke:#000000;stroke-width:2" />
    <line x1="755" y1="510" x2="755" y2="503" style="stroke:#000000;stroke-width:2" />
    <line x1="755" y1="510" x2="749" y2="510" style="stroke:#000000;stroke-width:2" />
    <line x1="755" y1="510" x2="755" y2="516" style="stroke:#000000;stroke-width:2" />
    <line x1="755" y1="510" x2="761" y2="510" style="stroke:#000000;stroke-width:2" />
    <line x1="793" y1="522" x2="793" y2="497" style="stroke:#000000;stroke-width:2" />
    <line x1="793" y1="497" x2="768" y2="497" style="stroke:#000000;stroke-width:2" />
    <line x1="768" y1="497" x2="768" y2="522" style="stroke:#000000;stroke-width:2" />
    <line x1="768" y1="522" x2="793" y2="522" style="stroke:#000000;stroke-width:2" />
    <line x1="780" y1="516" x2="780" y2="510" style="stroke:#000000;stroke-width:2" />
    <line x1="780" y1="516" x2="774" y2="516" style="stroke:#000000;stroke-width:2" />
    <line x1="774" y1="516" x2="774" y2="510" style="stroke:#000000;stroke-width:2" />
    <line x1="774" y1="510" x2="780" y2="510" style="stroke:#000000;stroke-width:2" />
    <line x1="780" y1="510" x2="786" y2="510" style="stroke:#000000;stroke-width:2" />
    <line x1="786" y1="510" x2="786" y2="516" style="stroke:#000000;stroke-width:2" />
    <line x1="786" y1="516" x2="780" y2="516" style="stroke:#000000;stroke-width:2" />
    <circle cx="805" cy = "510" r = "3.125" stroke = "#000000" stroke-width = "2" fill = "none" />
</svg>