<svg width="1550" height="399" viewbox = "0 0 1550 399"  xmlns="http://www.w3.org/2000/svg">

<!--
<json>
{
    "pulseUnit": 100,
    "currentGlyph": "0737,0730,0731,0732,0733,0736,0730,0731,0732,0733,0736,0730,0731,0732,0733,0736,0730,0731,0732,0733,0736,0730,0731,0732,0733,",
    "table": []
}
</json>
-->
<rect x = "0" y = "0" width = "200" height = "99.75" style = "fill:black;stroke:black;stroke-width:0;" />
<rect x = "200" y = "99.75" width = "200" height = "99.75" style = "fill:black;stroke:black;stroke-width:0;" />
<rect x = "400" y = "199.5" width = "200" height = "99.75" style = "fill:black;stroke:black;stroke-width:0;" />
<rect x = "600" y = "299.25" width = "200" height = "99.75" style = "fill:black;stroke:black;stroke-width:0;" />
<rect x = "800" y = "0" width = "100" height = "99.75" style = "fill:black;stroke:black;stroke-width:0;" />
<rect x = "900" y = "99.75" width = "100" height = "99.75" style = "fill:black;stroke:black;stroke-width:0;" />
<rect x = "1000" y = "199.5" width = "100" height = "99.75" style = "fill:black;stroke:black;stroke-width:0;" />
<rect x = "1100" y = "299.25" width = "100" height = "99.75" style = "fill:black;stroke:black;stroke-width:0;" />
<rect x = "1200" y = "0" width = "50" height = "99.75" style = "fill:black;stroke:black;stroke-width:0;" />
<rect x = "1250" y = "99.75" width = "50" height = "99.75" style = "fill:black;stroke:black;stroke-width:0;" />
<rect x = "1300" y = "199.5" width = "50" height = "99.75" style = "fill:black;stroke:black;stroke-width:0;" />
<rect x = "1350" y = "299.25" width = "50" height = "99.75" style = "fill:black;stroke:black;stroke-width:0;" />
<rect x = "1400" y = "0" width = "25" height = "99.75" style = "fill:black;stroke:black;stroke-width:0;" />
<rect x = "1425" y = "99.75" width = "25" height = "99.75" style = "fill:black;stroke:black;stroke-width:0;" />
<rect x = "1450" y = "199.5" width = "25" height = "99.75" style = "fill:black;stroke:black;stroke-width:0;" />
<rect x = "1475" y = "299.25" width = "25" height = "99.75" style = "fill:black;stroke:black;stroke-width:0;" />
<rect x = "1500" y = "0" width = "12.5" height = "99.75" style = "fill:black;stroke:black;stroke-width:0;" />
<rect x = "1512.5" y = "99.75" width = "12.5" height = "99.75" style = "fill:black;stroke:black;stroke-width:0;" />
<rect x = "1525" y = "199.5" width = "12.5" height = "99.75" style = "fill:black;stroke:black;stroke-width:0;" />
<rect x = "1537.5" y = "299.25" width = "12.5" height = "99.75" style = "fill:black;stroke:black;stroke-width:0;" />
    <line x1="800" y1="698" x2="800" y2="673" style="stroke:#000000;stroke-width:2" />
    <line x1="800" y1="698" x2="775" y2="698" style="stroke:#000000;stroke-width:2" />
    <line x1="800" y1="698" x2="825" y2="698" style="stroke:#000000;stroke-width:2" />
<circle cx="800" cy = "686" r = "3" stroke = "#000000" stroke-width = "2" fill = "#000000" />
<circle cx="800" cy = "648" r = "3" stroke = "#000000" stroke-width = "2" fill = "#000000" />
</svg>