<svg width="2300" height="399" viewbox = "0 0 2300 399"  xmlns="http://www.w3.org/2000/svg">

<!--
<json>
{
    "pulseUnit": 100,
    "currentGlyph": "0730,0731,0732,0733,0730,0731,0732,0733,0730,0731,0732,0733,0730,0731,0732,0733,0734,0734,0734,0734,0734,0734,0734,",
    "table": []
}
</json>
-->
<rect x = "0" y = "0" width = "100" height = "99.75" style = "fill:black;stroke:black;stroke-width:0;" />
<rect x = "100" y = "99.75" width = "100" height = "99.75" style = "fill:black;stroke:black;stroke-width:0;" />
<rect x = "200" y = "199.5" width = "100" height = "99.75" style = "fill:black;stroke:black;stroke-width:0;" />
<rect x = "300" y = "299.25" width = "100" height = "99.75" style = "fill:black;stroke:black;stroke-width:0;" />
<rect x = "400" y = "0" width = "100" height = "99.75" style = "fill:black;stroke:black;stroke-width:0;" />
<rect x = "500" y = "99.75" width = "100" height = "99.75" style = "fill:black;stroke:black;stroke-width:0;" />
<rect x = "600" y = "199.5" width = "100" height = "99.75" style = "fill:black;stroke:black;stroke-width:0;" />
<rect x = "700" y = "299.25" width = "100" height = "99.75" style = "fill:black;stroke:black;stroke-width:0;" />
<rect x = "800" y = "0" width = "100" height = "99.75" style = "fill:black;stroke:black;stroke-width:0;" />
<rect x = "900" y = "99.75" width = "100" height = "99.75" style = "fill:black;stroke:black;stroke-width:0;" />
<rect x = "1000" y = "199.5" width = "100" height = "99.75" style = "fill:black;stroke:black;stroke-width:0;" />
<rect x = "1100" y = "299.25" width = "100" height = "99.75" style = "fill:black;stroke:black;stroke-width:0;" />
<rect x = "1200" y = "0" width = "100" height = "99.75" style = "fill:black;stroke:black;stroke-width:0;" />
<rect x = "1300" y = "99.75" width = "100" height = "99.75" style = "fill:black;stroke:black;stroke-width:0;" />
<rect x = "1400" y = "199.5" width = "100" height = "99.75" style = "fill:black;stroke:black;stroke-width:0;" />
<rect x = "1500" y = "299.25" width = "100" height = "99.75" style = "fill:black;stroke:black;stroke-width:0;" />
<rect x = "1600" y = "299.25" width = "100" height = "99.75" style = "fill:white;stroke:black;stroke-width:0;" />
<rect x = "1700" y = "299.25" width = "100" height = "99.75" style = "fill:white;stroke:black;stroke-width:0;" />
<rect x = "1800" y = "299.25" width = "100" height = "99.75" style = "fill:white;stroke:black;stroke-width:0;" />
<rect x = "1900" y = "299.25" width = "100" height = "99.75" style = "fill:white;stroke:black;stroke-width:0;" />
<rect x = "2000" y = "299.25" width = "100" height = "99.75" style = "fill:white;stroke:black;stroke-width:0;" />
<rect x = "2100" y = "299.25" width = "100" height = "99.75" style = "fill:white;stroke:black;stroke-width:0;" />
<rect x = "2200" y = "299.25" width = "100" height = "99.75" style = "fill:white;stroke:black;stroke-width:0;" />
    <line x1="750" y1="698" x2="750" y2="673" style="stroke:#000000;stroke-width:2" />
    <line x1="750" y1="698" x2="725" y2="698" style="stroke:#000000;stroke-width:2" />
    <line x1="750" y1="698" x2="775" y2="698" style="stroke:#000000;stroke-width:2" />
<circle cx="750" cy = "686" r = "3" stroke = "#000000" stroke-width = "2" fill = "#000000" />
<circle cx="750" cy = "648" r = "3" stroke = "#000000" stroke-width = "2" fill = "#000000" />
</svg>