<svg width="1600" height="399" viewbox = "0 0 1600 399"  xmlns="http://www.w3.org/2000/svg">

<!--
<json>
{
    "pulseUnit": 100,
    "currentGlyph": "0730,0731,0732,0733,0730,0731,0732,0733,0730,0731,0732,0733,0730,0731,0732,0733,",
    "table": []
}
</json>
-->
    <line x1="575" y1="698" x2="575" y2="673" style="stroke:#000000;stroke-width:2" />
    <line x1="575" y1="698" x2="550" y2="698" style="stroke:#000000;stroke-width:2" />
    <line x1="575" y1="698" x2="600" y2="698" style="stroke:#000000;stroke-width:2" />
<circle cx="575" cy = "686" r = "3" stroke = "#000000" stroke-width = "2" fill = "#000000" />
<circle cx="575" cy = "648" r = "3" stroke = "#000000" stroke-width = "2" fill = "#000000" />
<rect x = "0" y = "0" width = "100" height = "99.75" style = "fill:black;stroke:black;stroke-width:0;" />
<rect x = "100" y = "99.75" width = "100" height = "99.75" style = "fill:black;stroke:black;stroke-width:0;" />
<rect x = "200" y = "199.5" width = "100" height = "99.75" style = "fill:black;stroke:black;stroke-width:0;" />
<rect x = "300" y = "299.25" width = "100" height = "99.75" style = "fill:black;stroke:black;stroke-width:0;" />
<rect x = "400" y = "0" width = "100" height = "99.75" style = "fill:black;stroke:black;stroke-width:0;" />
<rect x = "500" y = "99.75" width = "100" height = "99.75" style = "fill:black;stroke:black;stroke-width:0;" />
<rect x = "600" y = "199.5" width = "100" height = "99.75" style = "fill:black;stroke:black;stroke-width:0;" />
<rect x = "700" y = "299.25" width = "100" height = "99.75" style = "fill:black;stroke:black;stroke-width:0;" />
<rect x = "800" y = "0" width = "100" height = "99.75" style = "fill:black;stroke:black;stroke-width:0;" />
<rect x = "900" y = "99.75" width = "100" height = "99.75" style = "fill:black;stroke:black;stroke-width:0;" />
<rect x = "1000" y = "199.5" width = "100" height = "99.75" style = "fill:black;stroke:black;stroke-width:0;" />
<rect x = "1100" y = "299.25" width = "100" height = "99.75" style = "fill:black;stroke:black;stroke-width:0;" />
<rect x = "1200" y = "0" width = "100" height = "99.75" style = "fill:black;stroke:black;stroke-width:0;" />
<rect x = "1300" y = "99.75" width = "100" height = "99.75" style = "fill:black;stroke:black;stroke-width:0;" />
<rect x = "1400" y = "199.5" width = "100" height = "99.75" style = "fill:black;stroke:black;stroke-width:0;" />
<rect x = "1500" y = "299.25" width = "100" height = "99.75" style = "fill:black;stroke:black;stroke-width:0;" />
</svg>