<svg width="1000" height="399" viewbox = "0 0 1000 399"  xmlns="http://www.w3.org/2000/svg">

<!--
<json>
{
    "pulseUnit": 100,
    "currentGlyph": "0736,0730,0732,0731,0733,0730,0732,0731,0733,0730,0732,0731,0733,0730,0732,0731,0733,0730,0732,0731,0733,",
    "table": []
}
</json>
-->
<rect x = "0" y = "0" width = "50" height = "99.75" style = "fill:black;stroke:black;stroke-width:0;" />
<rect x = "50" y = "199.5" width = "50" height = "99.75" style = "fill:black;stroke:black;stroke-width:0;" />
<rect x = "100" y = "99.75" width = "50" height = "99.75" style = "fill:black;stroke:black;stroke-width:0;" />
<rect x = "150" y = "299.25" width = "50" height = "99.75" style = "fill:black;stroke:black;stroke-width:0;" />
<rect x = "200" y = "0" width = "50" height = "99.75" style = "fill:black;stroke:black;stroke-width:0;" />
<rect x = "250" y = "199.5" width = "50" height = "99.75" style = "fill:black;stroke:black;stroke-width:0;" />
<rect x = "300" y = "99.75" width = "50" height = "99.75" style = "fill:black;stroke:black;stroke-width:0;" />
<rect x = "350" y = "299.25" width = "50" height = "99.75" style = "fill:black;stroke:black;stroke-width:0;" />
<rect x = "400" y = "0" width = "50" height = "99.75" style = "fill:black;stroke:black;stroke-width:0;" />
<rect x = "450" y = "199.5" width = "50" height = "99.75" style = "fill:black;stroke:black;stroke-width:0;" />
<rect x = "500" y = "99.75" width = "50" height = "99.75" style = "fill:black;stroke:black;stroke-width:0;" />
<rect x = "550" y = "299.25" width = "50" height = "99.75" style = "fill:black;stroke:black;stroke-width:0;" />
<rect x = "600" y = "0" width = "50" height = "99.75" style = "fill:black;stroke:black;stroke-width:0;" />
<rect x = "650" y = "199.5" width = "50" height = "99.75" style = "fill:black;stroke:black;stroke-width:0;" />
<rect x = "700" y = "99.75" width = "50" height = "99.75" style = "fill:black;stroke:black;stroke-width:0;" />
<rect x = "750" y = "299.25" width = "50" height = "99.75" style = "fill:black;stroke:black;stroke-width:0;" />
<rect x = "800" y = "0" width = "50" height = "99.75" style = "fill:black;stroke:black;stroke-width:0;" />
<rect x = "850" y = "199.5" width = "50" height = "99.75" style = "fill:black;stroke:black;stroke-width:0;" />
<rect x = "900" y = "99.75" width = "50" height = "99.75" style = "fill:black;stroke:black;stroke-width:0;" />
<rect x = "950" y = "299.25" width = "50" height = "99.75" style = "fill:black;stroke:black;stroke-width:0;" />
    <line x1="700" y1="698" x2="700" y2="673" style="stroke:#000000;stroke-width:2" />
    <line x1="700" y1="698" x2="675" y2="698" style="stroke:#000000;stroke-width:2" />
    <line x1="700" y1="698" x2="725" y2="698" style="stroke:#000000;stroke-width:2" />
<circle cx="700" cy = "686" r = "3" stroke = "#000000" stroke-width = "2" fill = "#000000" />
<circle cx="700" cy = "648" r = "3" stroke = "#000000" stroke-width = "2" fill = "#000000" />
</svg>