<svg width="1366" height="672" viewbox = "0 0 1366 672"  xmlns="http://www.w3.org/2000/svg">
    <line x1="150" y1="90" x2="150" y2="30" style="stroke:#000000;stroke-width:2" />
    <line x1="150" y1="30" x2="90" y2="30" style="stroke:#000000;stroke-width:2" />
    <line x1="90" y1="30" x2="90" y2="90" style="stroke:#000000;stroke-width:2" />
    <line x1="90" y1="90" x2="150" y2="90" style="stroke:#000000;stroke-width:2" />
    <line x1="135" y1="75" x2="135" y2="45" style="stroke:#000000;stroke-width:2" />
    <line x1="135" y1="45" x2="105" y2="45" style="stroke:#000000;stroke-width:2" />
    <line x1="105" y1="45" x2="105" y2="75" style="stroke:#000000;stroke-width:2" />
    <line x1="105" y1="75" x2="135" y2="75" style="stroke:#000000;stroke-width:2" />
    <line x1="210" y1="90" x2="210" y2="30" style="stroke:#000000;stroke-width:2" />
    <line x1="210" y1="30" x2="150" y2="30" style="stroke:#000000;stroke-width:2" />
    <line x1="150" y1="30" x2="150" y2="90" style="stroke:#000000;stroke-width:2" />
    <line x1="150" y1="90" x2="210" y2="90" style="stroke:#000000;stroke-width:2" />
    <line x1="165" y1="60" x2="195" y2="60" style="stroke:#000000;stroke-width:2" />
    <line x1="195" y1="60" x2="190" y2="65" style="stroke:#000000;stroke-width:2" />
    <line x1="195" y1="60" x2="190" y2="55" style="stroke:#000000;stroke-width:2" />
    <line x1="210" y1="90" x2="221" y2="79" style="stroke:#000000;stroke-width:2" />
    <line x1="225" y1="90" x2="236" y2="79" style="stroke:#000000;stroke-width:2" />
    <line x1="240" y1="90" x2="251" y2="79" style="stroke:#000000;stroke-width:2" />
    <line x1="255" y1="90" x2="266" y2="79" style="stroke:#000000;stroke-width:2" />
    <line x1="270" y1="90" x2="270" y2="30" style="stroke:#000000;stroke-width:2" />
    <line x1="270" y1="30" x2="210" y2="30" style="stroke:#000000;stroke-width:2" />
    <line x1="210" y1="30" x2="210" y2="90" style="stroke:#000000;stroke-width:2" />
    <line x1="210" y1="90" x2="270" y2="90" style="stroke:#000000;stroke-width:2" />
    <line x1="270" y1="90" x2="281" y2="79" style="stroke:#000000;stroke-width:2" />
    <line x1="285" y1="90" x2="296" y2="79" style="stroke:#000000;stroke-width:2" />
    <line x1="300" y1="90" x2="311" y2="79" style="stroke:#000000;stroke-width:2" />
    <line x1="315" y1="90" x2="326" y2="79" style="stroke:#000000;stroke-width:2" />
    <line x1="330" y1="90" x2="330" y2="30" style="stroke:#000000;stroke-width:2" />
    <line x1="330" y1="30" x2="270" y2="30" style="stroke:#000000;stroke-width:2" />
    <line x1="270" y1="30" x2="270" y2="90" style="stroke:#000000;stroke-width:2" />
    <line x1="270" y1="90" x2="330" y2="90" style="stroke:#000000;stroke-width:2" />
    <line x1="285" y1="60" x2="315" y2="60" style="stroke:#000000;stroke-width:2" />
    <line x1="315" y1="60" x2="310" y2="65" style="stroke:#000000;stroke-width:2" />
    <line x1="315" y1="60" x2="310" y2="55" style="stroke:#000000;stroke-width:2" />
    <line x1="330" y1="90" x2="341" y2="79" style="stroke:#000000;stroke-width:2" />
    <line x1="345" y1="90" x2="356" y2="79" style="stroke:#000000;stroke-width:2" />
    <line x1="360" y1="90" x2="371" y2="79" style="stroke:#000000;stroke-width:2" />
    <line x1="375" y1="90" x2="386" y2="79" style="stroke:#000000;stroke-width:2" />
    <line x1="390" y1="90" x2="390" y2="30" style="stroke:#000000;stroke-width:2" />
    <line x1="390" y1="30" x2="330" y2="30" style="stroke:#000000;stroke-width:2" />
    <line x1="330" y1="30" x2="330" y2="90" style="stroke:#000000;stroke-width:2" />
    <line x1="330" y1="90" x2="390" y2="90" style="stroke:#000000;stroke-width:2" />
    <line x1="375" y1="75" x2="375" y2="45" style="stroke:#000000;stroke-width:2" />
    <line x1="375" y1="45" x2="345" y2="45" style="stroke:#000000;stroke-width:2" />
    <line x1="345" y1="45" x2="345" y2="75" style="stroke:#000000;stroke-width:2" />
    <line x1="345" y1="75" x2="375" y2="75" style="stroke:#000000;stroke-width:2" />
    <line x1="390" y1="90" x2="401" y2="79" style="stroke:#000000;stroke-width:2" />
    <line x1="405" y1="90" x2="416" y2="79" style="stroke:#000000;stroke-width:2" />
    <line x1="420" y1="90" x2="431" y2="79" style="stroke:#000000;stroke-width:2" />
    <line x1="435" y1="90" x2="446" y2="79" style="stroke:#000000;stroke-width:2" />
    <line x1="450" y1="90" x2="450" y2="30" style="stroke:#000000;stroke-width:2" />
    <line x1="450" y1="30" x2="390" y2="30" style="stroke:#000000;stroke-width:2" />
    <line x1="390" y1="30" x2="390" y2="90" style="stroke:#000000;stroke-width:2" />
    <line x1="390" y1="90" x2="450" y2="90" style="stroke:#000000;stroke-width:2" />
	<path d = "M405 60 L405 45 L420 45 L435 45 L435 60 L420 60 L405 60 Z" stroke = "#000000" stroke-width = "2" fill = "#000000" />    <text x="409" y = "56" fill = "#000000" font-size = "7.5px" font-family = "futura"></text>
    <line x1="450" y1="90" x2="461" y2="79" style="stroke:#000000;stroke-width:2" />
    <line x1="465" y1="90" x2="476" y2="79" style="stroke:#000000;stroke-width:2" />
    <line x1="480" y1="90" x2="491" y2="79" style="stroke:#000000;stroke-width:2" />
    <line x1="495" y1="90" x2="506" y2="79" style="stroke:#000000;stroke-width:2" />
    <line x1="510" y1="90" x2="510" y2="30" style="stroke:#000000;stroke-width:2" />
    <line x1="510" y1="30" x2="450" y2="30" style="stroke:#000000;stroke-width:2" />
    <line x1="450" y1="30" x2="450" y2="90" style="stroke:#000000;stroke-width:2" />
    <line x1="450" y1="90" x2="510" y2="90" style="stroke:#000000;stroke-width:2" />
	<path d = "M465 90 L465 60 L450 60 L480 30 L510 60 L495 60 L495 90 Z" stroke = "#000000" stroke-width = "2" fill = "#000000" />    <circle cx="540" cy = "60" r = "7.5" stroke = "#000000" stroke-width = "2" fill = "none" />
    <line x1="150" y1="150" x2="150" y2="90" style="stroke:#000000;stroke-width:2" />
    <line x1="150" y1="90" x2="90" y2="90" style="stroke:#000000;stroke-width:2" />
    <line x1="90" y1="90" x2="90" y2="150" style="stroke:#000000;stroke-width:2" />
    <line x1="90" y1="150" x2="150" y2="150" style="stroke:#000000;stroke-width:2" />
    <line x1="135" y1="135" x2="135" y2="105" style="stroke:#000000;stroke-width:2" />
    <line x1="135" y1="105" x2="105" y2="105" style="stroke:#000000;stroke-width:2" />
    <line x1="105" y1="105" x2="105" y2="135" style="stroke:#000000;stroke-width:2" />
    <line x1="105" y1="135" x2="135" y2="135" style="stroke:#000000;stroke-width:2" />
    <line x1="135" y1="135" x2="135" y2="101" style="stroke:#000000;stroke-width:2" />
    <line x1="135" y1="101" x2="101" y2="101" style="stroke:#000000;stroke-width:2" />
    <line x1="101" y1="101" x2="101" y2="135" style="stroke:#000000;stroke-width:2" />
    <line x1="101" y1="135" x2="135" y2="135" style="stroke:#000000;stroke-width:2" />
    <line x1="112" y1="120" x2="127" y2="120" style="stroke:#000000;stroke-width:2" />
    <line x1="210" y1="150" x2="210" y2="90" style="stroke:#000000;stroke-width:2" />
    <line x1="210" y1="90" x2="150" y2="90" style="stroke:#000000;stroke-width:2" />
    <line x1="150" y1="90" x2="150" y2="150" style="stroke:#000000;stroke-width:2" />
    <line x1="150" y1="150" x2="210" y2="150" style="stroke:#000000;stroke-width:2" />
    <line x1="195" y1="135" x2="195" y2="105" style="stroke:#000000;stroke-width:2" />
    <line x1="195" y1="105" x2="165" y2="105" style="stroke:#000000;stroke-width:2" />
    <line x1="165" y1="105" x2="165" y2="135" style="stroke:#000000;stroke-width:2" />
    <line x1="165" y1="135" x2="195" y2="135" style="stroke:#000000;stroke-width:2" />
    <line x1="195" y1="135" x2="195" y2="101" style="stroke:#000000;stroke-width:2" />
    <line x1="195" y1="101" x2="161" y2="101" style="stroke:#000000;stroke-width:2" />
    <line x1="161" y1="101" x2="161" y2="135" style="stroke:#000000;stroke-width:2" />
    <line x1="161" y1="135" x2="195" y2="135" style="stroke:#000000;stroke-width:2" />
    <line x1="172" y1="120" x2="187" y2="120" style="stroke:#000000;stroke-width:2" />
    <line x1="180" y1="120" x2="180" y2="112" style="stroke:#000000;stroke-width:2" />
    <line x1="180" y1="120" x2="180" y2="127" style="stroke:#000000;stroke-width:2" />
</svg>