<svg width="1363" height="671" viewbox = "0 0 1363 671"  xmlns="http://www.w3.org/2000/svg">

<!--
<json>
{
    "glyph": "0336,0332,0332,0332,0332,0336,0333,0333,0333,0337,0332,0332,0332,0210,0333,01306,01201,01335,01335,01201,01335,01335,01201,01335,01335,",
    "unit": 259.37424601000026,
    "x0": 700,
    "y0": 350,
    "x0rel": 0.0713255085444633,
    "y0rel": 0.05590377696728205,
    "imgurl": "",
    "imgw": 2,
    "imgleft": -1.5,
    "imgtop": -1
}
</json>
-->
    <line x1="213" y1="350" x2="213" y2="237" style="stroke:#000000;stroke-width:2" />
    <line x1="213" y1="237" x2="100" y2="237" style="stroke:#000000;stroke-width:2" />
    <line x1="100" y1="237" x2="100" y2="350" style="stroke:#000000;stroke-width:2" />
    <line x1="100" y1="350" x2="213" y2="350" style="stroke:#000000;stroke-width:2" />
    <line x1="157" y1="293" x2="157" y2="237" style="stroke:#000000;stroke-width:2" />
    <line x1="157" y1="293" x2="206" y2="265" style="stroke:#000000;stroke-width:2" />
    <line x1="157" y1="293" x2="206" y2="322" style="stroke:#000000;stroke-width:2" />
    <line x1="157" y1="293" x2="157" y2="350" style="stroke:#000000;stroke-width:2" />
    <line x1="157" y1="293" x2="108" y2="322" style="stroke:#000000;stroke-width:2" />
    <circle cx="157" cy = "293" r = "56.6753509178504" stroke = "#000000" stroke-width = "2" fill = "none" />
    <circle cx="143" cy = "269" r = "7.0844188647313" stroke = "#000000" stroke-width = "2" fill = "none" />
    <circle cx="171" cy = "269" r = "7.0844188647313" stroke = "#000000" stroke-width = "2" fill = "none" />
    <circle cx="185" cy = "293" r = "7.0844188647313" stroke = "#000000" stroke-width = "2" fill = "none" />
    <circle cx="171" cy = "318" r = "7.0844188647313" stroke = "#000000" stroke-width = "2" fill = "none" />
    <circle cx="143" cy = "318" r = "7.0844188647313" stroke = "#000000" stroke-width = "2" fill = "none" />
    <line x1="157" y1="293" x2="108" y2="265" style="stroke:#000000;stroke-width:2" />
    <circle cx="128" cy = "293" r = "7.0844188647313" stroke = "#000000" stroke-width = "2" fill = "none" />
    <line x1="327" y1="350" x2="327" y2="237" style="stroke:#000000;stroke-width:2" />
    <line x1="327" y1="237" x2="213" y2="237" style="stroke:#000000;stroke-width:2" />
    <line x1="213" y1="237" x2="213" y2="350" style="stroke:#000000;stroke-width:2" />
    <line x1="213" y1="350" x2="327" y2="350" style="stroke:#000000;stroke-width:2" />
    <line x1="242" y1="293" x2="298" y2="293" style="stroke:#000000;stroke-width:2" />
    <line x1="298" y1="293" x2="288" y2="303" style="stroke:#000000;stroke-width:2" />
    <line x1="298" y1="293" x2="288" y2="283" style="stroke:#000000;stroke-width:2" />
    <line x1="440" y1="350" x2="440" y2="237" style="stroke:#000000;stroke-width:2" />
    <line x1="440" y1="237" x2="327" y2="237" style="stroke:#000000;stroke-width:2" />
    <line x1="327" y1="237" x2="327" y2="350" style="stroke:#000000;stroke-width:2" />
    <line x1="327" y1="350" x2="440" y2="350" style="stroke:#000000;stroke-width:2" />
  <path d="M363.4105174173825 273.28688660207956           A28.3376754589252 28.3376754589252 0 0 1 403.48604237752176 273.2868866020795" fill = "none" stroke = "#000000" stroke-width = "2" />
  <path d="M363.41051741738255 313.3624115622188           A28.3376754589252 28.3376754589252 0 0 1 363.4105174173825 273.28688660207956" fill = "none" stroke = "#000000" stroke-width = "2" />
  <path d="M403.4860423775218 313.36241156221877           A28.3376754589252 28.3376754589252 0 0 1 363.41051741738255 313.3624115622188" fill = "none" stroke = "#000000" stroke-width = "2" />
    <line x1="383" y1="293" x2="403" y2="273" style="stroke:#000000;stroke-width:2" />
    <line x1="383" y1="251" x2="403" y2="271" style="stroke:#000000;stroke-width:2" />
    <line x1="553" y1="350" x2="553" y2="237" style="stroke:#000000;stroke-width:2" />
    <line x1="553" y1="237" x2="440" y2="237" style="stroke:#000000;stroke-width:2" />
    <line x1="440" y1="237" x2="440" y2="350" style="stroke:#000000;stroke-width:2" />
    <line x1="440" y1="350" x2="553" y2="350" style="stroke:#000000;stroke-width:2" />
  <path d="M476.7612192530832 273.28688660207933           A28.3376754589252 28.3376754589252 0 0 1 516.8367442132225 273.2868866020792" fill = "none" stroke = "#000000" stroke-width = "2" />
  <path d="M476.7612192530833 313.3624115622186           A28.3376754589252 28.3376754589252 0 0 1 476.7612192530832 273.28688660207933" fill = "none" stroke = "#000000" stroke-width = "2" />
  <path d="M516.8367442132226 313.36241156221837           A28.3376754589252 28.3376754589252 0 0 1 476.7612192530833 313.3624115622186" fill = "none" stroke = "#000000" stroke-width = "2" />
    <line x1="497" y1="293" x2="517" y2="273" style="stroke:#000000;stroke-width:2" />
    <line x1="497" y1="251" x2="517" y2="271" style="stroke:#000000;stroke-width:2" />
    <line x1="667" y1="350" x2="667" y2="237" style="stroke:#000000;stroke-width:2" />
    <line x1="667" y1="237" x2="553" y2="237" style="stroke:#000000;stroke-width:2" />
    <line x1="553" y1="237" x2="553" y2="350" style="stroke:#000000;stroke-width:2" />
    <line x1="553" y1="350" x2="667" y2="350" style="stroke:#000000;stroke-width:2" />
    <line x1="582" y1="293" x2="638" y2="293" style="stroke:#000000;stroke-width:2" />
    <line x1="638" y1="293" x2="628" y2="303" style="stroke:#000000;stroke-width:2" />
    <line x1="638" y1="293" x2="628" y2="283" style="stroke:#000000;stroke-width:2" />
    <line x1="780" y1="350" x2="780" y2="237" style="stroke:#000000;stroke-width:2" />
    <line x1="780" y1="237" x2="667" y2="237" style="stroke:#000000;stroke-width:2" />
    <line x1="667" y1="237" x2="667" y2="350" style="stroke:#000000;stroke-width:2" />
    <line x1="667" y1="350" x2="780" y2="350" style="stroke:#000000;stroke-width:2" />
  <path d="M703.4626229244849 273.2868866020783           A28.3376754589252 28.3376754589252 0 0 1 743.5381478846241 273.2868866020782" fill = "none" stroke = "#000000" stroke-width = "2" />
  <path d="M703.462622924485 313.36241156221763           A28.3376754589252 28.3376754589252 0 0 1 703.4626229244849 273.2868866020783" fill = "none" stroke = "#000000" stroke-width = "2" />
  <path d="M743.5381478846243 313.3624115622174           A28.3376754589252 28.3376754589252 0 0 1 703.462622924485 313.36241156221763" fill = "none" stroke = "#000000" stroke-width = "2" />
    <line x1="724" y1="293" x2="744" y2="273" style="stroke:#000000;stroke-width:2" />
    <line x1="724" y1="251" x2="744" y2="271" style="stroke:#000000;stroke-width:2" />
    <line x1="894" y1="350" x2="894" y2="237" style="stroke:#000000;stroke-width:2" />
    <line x1="894" y1="237" x2="780" y2="237" style="stroke:#000000;stroke-width:2" />
    <line x1="780" y1="237" x2="780" y2="350" style="stroke:#000000;stroke-width:2" />
    <line x1="780" y1="350" x2="894" y2="350" style="stroke:#000000;stroke-width:2" />
  <path d="M816.8133247601852 273.28688660207786           A28.3376754589252 28.3376754589252 0 0 1 856.8888497203244 273.2868866020775" fill = "none" stroke = "#000000" stroke-width = "2" />
  <path d="M816.8133247601855 313.3624115622171           A28.3376754589252 28.3376754589252 0 0 1 816.8133247601852 273.28688660207786" fill = "none" stroke = "#000000" stroke-width = "2" />
  <path d="M856.8888497203249 313.36241156221666           A28.3376754589252 28.3376754589252 0 0 1 816.8133247601855 313.3624115622171" fill = "none" stroke = "#000000" stroke-width = "2" />
    <line x1="837" y1="293" x2="857" y2="273" style="stroke:#000000;stroke-width:2" />
    <line x1="837" y1="251" x2="857" y2="271" style="stroke:#000000;stroke-width:2" />
    <line x1="1007" y1="350" x2="1007" y2="237" style="stroke:#000000;stroke-width:2" />
    <line x1="1007" y1="237" x2="894" y2="237" style="stroke:#000000;stroke-width:2" />
    <line x1="894" y1="237" x2="894" y2="350" style="stroke:#000000;stroke-width:2" />
    <line x1="894" y1="350" x2="1007" y2="350" style="stroke:#000000;stroke-width:2" />
    <line x1="922" y1="293" x2="979" y2="293" style="stroke:#000000;stroke-width:2" />
    <line x1="979" y1="293" x2="969" y2="303" style="stroke:#000000;stroke-width:2" />
    <line x1="979" y1="293" x2="969" y2="283" style="stroke:#000000;stroke-width:2" />
    <line x1="1120" y1="350" x2="1120" y2="237" style="stroke:#000000;stroke-width:2" />
    <line x1="1120" y1="237" x2="1007" y2="237" style="stroke:#000000;stroke-width:2" />
    <line x1="1007" y1="237" x2="1007" y2="350" style="stroke:#000000;stroke-width:2" />
    <line x1="1007" y1="350" x2="1120" y2="350" style="stroke:#000000;stroke-width:2" />
  <path d="M1043.5147284315863 273.2868866020764           A28.3376754589252 28.3376754589252 0 0 1 1083.5902533917256 273.2868866020758" fill = "none" stroke = "#000000" stroke-width = "2" />
  <path d="M1043.514728431587 313.3624115622157           A28.3376754589252 28.3376754589252 0 0 1 1043.5147284315863 273.2868866020764" fill = "none" stroke = "#000000" stroke-width = "2" />
  <path d="M1083.5902533917263 313.3624115622149           A28.3376754589252 28.3376754589252 0 0 1 1043.514728431587 313.3624115622157" fill = "none" stroke = "#000000" stroke-width = "2" />
    <line x1="1064" y1="293" x2="1084" y2="273" style="stroke:#000000;stroke-width:2" />
    <line x1="1064" y1="251" x2="1084" y2="271" style="stroke:#000000;stroke-width:2" />
    <line x1="1234" y1="350" x2="1234" y2="237" style="stroke:#000000;stroke-width:2" />
    <line x1="1234" y1="237" x2="1120" y2="237" style="stroke:#000000;stroke-width:2" />
    <line x1="1120" y1="237" x2="1120" y2="350" style="stroke:#000000;stroke-width:2" />
    <line x1="1120" y1="350" x2="1234" y2="350" style="stroke:#000000;stroke-width:2" />
  <path d="M1156.8654302672871 273.2868866020751           A28.3376754589252 28.3376754589252 0 0 1 1196.9409552274262 273.2868866020743" fill = "none" stroke = "#000000" stroke-width = "2" />
  <path d="M1156.8654302672876 313.3624115622143           A28.3376754589252 28.3376754589252 0 0 1 1156.8654302672871 273.2868866020751" fill = "none" stroke = "#000000" stroke-width = "2" />
  <path d="M1196.940955227427 313.3624115622138           A28.3376754589252 28.3376754589252 0 0 1 1156.8654302672876 313.3624115622143" fill = "none" stroke = "#000000" stroke-width = "2" />
    <line x1="1177" y1="293" x2="1197" y2="273" style="stroke:#000000;stroke-width:2" />
    <line x1="1177" y1="251" x2="1197" y2="271" style="stroke:#000000;stroke-width:2" />
</svg>