<svg width="1363" height="671" viewbox = "0 0 1363 671"  xmlns="http://www.w3.org/2000/svg">

<!--
<json>
{
    "glyph": "0336,0332,0332,0332,0332,0336,0333,0333,0333,0337,0332,0332,0332,0210,0333,0210,0210,0210,0333,0333,0331,01306,01201,01335,01335,01201,01335,01335,01201,01335,01335,0330,0330,0332,0332,0332,0332,0332,0332,0337,0337,0210,0210,0201,0306,0335,0335,0201,0335,0335,0201,",
    "unit": 259.37424601000026,
    "x0": 700,
    "y0": 350,
    "x0rel": 0.0713255085444633,
    "y0rel": 0.05590377696728205,
    "imgurl": "",
    "imgw": 2,
    "imgleft": -1.5,
    "imgtop": -1
}
</json>
-->
    <line x1="327" y1="426" x2="327" y2="350" style="stroke:#000000;stroke-width:2" />
    <line x1="327" y1="350" x2="251" y2="350" style="stroke:#000000;stroke-width:2" />
    <line x1="251" y1="350" x2="251" y2="426" style="stroke:#000000;stroke-width:2" />
    <line x1="251" y1="426" x2="327" y2="426" style="stroke:#000000;stroke-width:2" />
    <line x1="289" y1="388" x2="289" y2="350" style="stroke:#000000;stroke-width:2" />
    <line x1="289" y1="388" x2="322" y2="369" style="stroke:#000000;stroke-width:2" />
    <line x1="289" y1="388" x2="322" y2="407" style="stroke:#000000;stroke-width:2" />
    <line x1="289" y1="388" x2="289" y2="426" style="stroke:#000000;stroke-width:2" />
    <line x1="289" y1="388" x2="257" y2="407" style="stroke:#000000;stroke-width:2" />
    <circle cx="289" cy = "388" r = "37.842192498329645" stroke = "#000000" stroke-width = "2" fill = "none" />
    <circle cx="280" cy = "371" r = "4.730274062291206" stroke = "#000000" stroke-width = "2" fill = "none" />
    <circle cx="299" cy = "371" r = "4.730274062291206" stroke = "#000000" stroke-width = "2" fill = "none" />
    <circle cx="308" cy = "388" r = "4.730274062291206" stroke = "#000000" stroke-width = "2" fill = "none" />
    <circle cx="299" cy = "404" r = "4.730274062291206" stroke = "#000000" stroke-width = "2" fill = "none" />
    <circle cx="280" cy = "404" r = "4.730274062291206" stroke = "#000000" stroke-width = "2" fill = "none" />
    <line x1="289" y1="388" x2="257" y2="369" style="stroke:#000000;stroke-width:2" />
    <circle cx="270" cy = "388" r = "4.730274062291206" stroke = "#000000" stroke-width = "2" fill = "none" />
    <line x1="403" y1="426" x2="403" y2="350" style="stroke:#000000;stroke-width:2" />
    <line x1="403" y1="350" x2="327" y2="350" style="stroke:#000000;stroke-width:2" />
    <line x1="327" y1="350" x2="327" y2="426" style="stroke:#000000;stroke-width:2" />
    <line x1="327" y1="426" x2="403" y2="426" style="stroke:#000000;stroke-width:2" />
    <line x1="346" y1="388" x2="384" y2="388" style="stroke:#000000;stroke-width:2" />
    <line x1="384" y1="388" x2="377" y2="395" style="stroke:#000000;stroke-width:2" />
    <line x1="384" y1="388" x2="377" y2="381" style="stroke:#000000;stroke-width:2" />
    <line x1="478" y1="426" x2="478" y2="350" style="stroke:#000000;stroke-width:2" />
    <line x1="478" y1="350" x2="403" y2="350" style="stroke:#000000;stroke-width:2" />
    <line x1="403" y1="350" x2="403" y2="426" style="stroke:#000000;stroke-width:2" />
    <line x1="403" y1="426" x2="478" y2="426" style="stroke:#000000;stroke-width:2" />
  <path d="M427.27202232789904 374.4629570330617           A18.921096249164822 18.921096249164822 0 0 1 454.0304932584346 374.4629570330616" fill = "none" stroke = "#000000" stroke-width = "2" />
  <path d="M427.2720223278991 401.22142796359725           A18.921096249164822 18.921096249164822 0 0 1 427.27202232789904 374.4629570330617" fill = "none" stroke = "#000000" stroke-width = "2" />
  <path d="M454.03049325843466 401.2214279635972           A18.921096249164822 18.921096249164822 0 0 1 427.2720223278991 401.22142796359725" fill = "none" stroke = "#000000" stroke-width = "2" />
    <line x1="441" y1="388" x2="454" y2="374" style="stroke:#000000;stroke-width:2" />
    <line x1="441" y1="359" x2="454" y2="373" style="stroke:#000000;stroke-width:2" />
    <line x1="554" y1="426" x2="554" y2="350" style="stroke:#000000;stroke-width:2" />
    <line x1="554" y1="350" x2="478" y2="350" style="stroke:#000000;stroke-width:2" />
    <line x1="478" y1="350" x2="478" y2="426" style="stroke:#000000;stroke-width:2" />
    <line x1="478" y1="426" x2="554" y2="426" style="stroke:#000000;stroke-width:2" />
  <path d="M502.95640732455854 374.4629570330615           A18.921096249164822 18.921096249164822 0 0 1 529.7148782550942 374.46295703306146" fill = "none" stroke = "#000000" stroke-width = "2" />
  <path d="M502.9564073245586 401.22142796359714           A18.921096249164822 18.921096249164822 0 0 1 502.95640732455854 374.4629570330615" fill = "none" stroke = "#000000" stroke-width = "2" />
  <path d="M529.7148782550943 401.22142796359697           A18.921096249164822 18.921096249164822 0 0 1 502.9564073245586 401.22142796359714" fill = "none" stroke = "#000000" stroke-width = "2" />
    <line x1="516" y1="388" x2="530" y2="374" style="stroke:#000000;stroke-width:2" />
    <line x1="516" y1="359" x2="530" y2="373" style="stroke:#000000;stroke-width:2" />
    <line x1="630" y1="426" x2="630" y2="350" style="stroke:#000000;stroke-width:2" />
    <line x1="630" y1="350" x2="554" y2="350" style="stroke:#000000;stroke-width:2" />
    <line x1="554" y1="350" x2="554" y2="426" style="stroke:#000000;stroke-width:2" />
    <line x1="554" y1="426" x2="630" y2="426" style="stroke:#000000;stroke-width:2" />
    <line x1="573" y1="388" x2="611" y2="388" style="stroke:#000000;stroke-width:2" />
    <line x1="611" y1="388" x2="604" y2="395" style="stroke:#000000;stroke-width:2" />
    <line x1="611" y1="388" x2="604" y2="381" style="stroke:#000000;stroke-width:2" />
    <line x1="706" y1="426" x2="706" y2="350" style="stroke:#000000;stroke-width:2" />
    <line x1="706" y1="350" x2="630" y2="350" style="stroke:#000000;stroke-width:2" />
    <line x1="630" y1="350" x2="630" y2="426" style="stroke:#000000;stroke-width:2" />
    <line x1="630" y1="426" x2="706" y2="426" style="stroke:#000000;stroke-width:2" />
  <path d="M654.3251773178769 374.462957033061           A18.921096249164822 18.921096249164822 0 0 1 681.0836482484124 374.4629570330609" fill = "none" stroke = "#000000" stroke-width = "2" />
  <path d="M654.325177317877 401.2214279635966           A18.921096249164822 18.921096249164822 0 0 1 654.3251773178769 374.462957033061" fill = "none" stroke = "#000000" stroke-width = "2" />
  <path d="M681.0836482484126 401.22142796359645           A18.921096249164822 18.921096249164822 0 0 1 654.325177317877 401.2214279635966" fill = "none" stroke = "#000000" stroke-width = "2" />
    <line x1="668" y1="388" x2="681" y2="374" style="stroke:#000000;stroke-width:2" />
    <line x1="668" y1="359" x2="681" y2="373" style="stroke:#000000;stroke-width:2" />
    <line x1="781" y1="426" x2="781" y2="350" style="stroke:#000000;stroke-width:2" />
    <line x1="781" y1="350" x2="706" y2="350" style="stroke:#000000;stroke-width:2" />
    <line x1="706" y1="350" x2="706" y2="426" style="stroke:#000000;stroke-width:2" />
    <line x1="706" y1="426" x2="781" y2="426" style="stroke:#000000;stroke-width:2" />
  <path d="M730.0095623145359 374.4629570330607           A18.921096249164822 18.921096249164822 0 0 1 756.7680332450715 374.46295703306055" fill = "none" stroke = "#000000" stroke-width = "2" />
  <path d="M730.0095623145361 401.22142796359634           A18.921096249164822 18.921096249164822 0 0 1 730.0095623145359 374.4629570330607" fill = "none" stroke = "#000000" stroke-width = "2" />
  <path d="M756.7680332450717 401.22142796359606           A18.921096249164822 18.921096249164822 0 0 1 730.0095623145361 401.22142796359634" fill = "none" stroke = "#000000" stroke-width = "2" />
    <line x1="743" y1="388" x2="757" y2="374" style="stroke:#000000;stroke-width:2" />
    <line x1="743" y1="359" x2="757" y2="373" style="stroke:#000000;stroke-width:2" />
    <line x1="857" y1="426" x2="857" y2="350" style="stroke:#000000;stroke-width:2" />
    <line x1="857" y1="350" x2="781" y2="350" style="stroke:#000000;stroke-width:2" />
    <line x1="781" y1="350" x2="781" y2="426" style="stroke:#000000;stroke-width:2" />
    <line x1="781" y1="426" x2="857" y2="426" style="stroke:#000000;stroke-width:2" />
    <line x1="800" y1="388" x2="838" y2="388" style="stroke:#000000;stroke-width:2" />
    <line x1="838" y1="388" x2="831" y2="395" style="stroke:#000000;stroke-width:2" />
    <line x1="838" y1="388" x2="831" y2="381" style="stroke:#000000;stroke-width:2" />
    <line x1="933" y1="426" x2="933" y2="350" style="stroke:#000000;stroke-width:2" />
    <line x1="933" y1="350" x2="857" y2="350" style="stroke:#000000;stroke-width:2" />
    <line x1="857" y1="350" x2="857" y2="426" style="stroke:#000000;stroke-width:2" />
    <line x1="857" y1="426" x2="933" y2="426" style="stroke:#000000;stroke-width:2" />
  <path d="M881.3783323078543 374.4629570330598           A18.921096249164822 18.921096249164822 0 0 1 908.1368032383899 374.4629570330594" fill = "none" stroke = "#000000" stroke-width = "2" />
  <path d="M881.3783323078547 401.22142796359543           A18.921096249164822 18.921096249164822 0 0 1 881.3783323078543 374.4629570330598" fill = "none" stroke = "#000000" stroke-width = "2" />
  <path d="M908.1368032383904 401.2214279635949           A18.921096249164822 18.921096249164822 0 0 1 881.3783323078547 401.22142796359543" fill = "none" stroke = "#000000" stroke-width = "2" />
    <line x1="895" y1="388" x2="908" y2="374" style="stroke:#000000;stroke-width:2" />
    <line x1="895" y1="359" x2="908" y2="373" style="stroke:#000000;stroke-width:2" />
    <line x1="1008" y1="426" x2="1008" y2="350" style="stroke:#000000;stroke-width:2" />
    <line x1="1008" y1="350" x2="933" y2="350" style="stroke:#000000;stroke-width:2" />
    <line x1="933" y1="350" x2="933" y2="426" style="stroke:#000000;stroke-width:2" />
    <line x1="933" y1="426" x2="1008" y2="426" style="stroke:#000000;stroke-width:2" />
  <path d="M957.0627173045137 374.4629570330589           A18.921096249164822 18.921096249164822 0 0 1 983.8211882350492 374.46295703305833" fill = "none" stroke = "#000000" stroke-width = "2" />
  <path d="M957.0627173045142 401.2214279635944           A18.921096249164822 18.921096249164822 0 0 1 957.0627173045137 374.4629570330589" fill = "none" stroke = "#000000" stroke-width = "2" />
  <path d="M983.8211882350497 401.2214279635941           A18.921096249164822 18.921096249164822 0 0 1 957.0627173045142 401.2214279635944" fill = "none" stroke = "#000000" stroke-width = "2" />
    <line x1="970" y1="388" x2="984" y2="374" style="stroke:#000000;stroke-width:2" />
    <line x1="970" y1="359" x2="984" y2="373" style="stroke:#000000;stroke-width:2" />
    <line x1="554" y1="274" x2="554" y2="43" style="stroke:#000000;stroke-width:2" />
    <line x1="554" y1="43" x2="754" y2="159" style="stroke:#000000;stroke-width:2" />
    <line x1="754" y1="159" x2="554" y2="274" style="stroke:#000000;stroke-width:2" />
</svg>