<svg width="1363" height="671" viewbox = "0 0 1363 671"  xmlns="http://www.w3.org/2000/svg">

<!--
<json>
{
    "glyph": "0331,0332,0332,0331,0336,0332,0332,0332,0332,01350,01201,01335,01201,01335,01201,01335,01201,01335,01201,01335,01201,01335,01201,01335,01201,01335,0337,0330,0332,0332,0332,0332,0332,0330,0332,0350,0211,0211,0211,0201,0335,0201,0335,0201,0335,0201,0335,0201,0335,0201,0335,0201,0335,0201,0335,",
    "unit": 121.00000000000004,
    "x0": 700,
    "y0": 350,
    "x0rel": 0.152892561983471,
    "y0rel": 0.11983471074380161,
    "imgurl": "",
    "imgw": 2,
    "imgleft": -1,
    "imgtop": -1
}
</json>
-->
    <line x1="276" y1="592" x2="276" y2="532" style="stroke:#000000;stroke-width:2" />
    <line x1="276" y1="532" x2="216" y2="532" style="stroke:#000000;stroke-width:2" />
    <line x1="216" y1="532" x2="216" y2="592" style="stroke:#000000;stroke-width:2" />
    <line x1="216" y1="592" x2="276" y2="592" style="stroke:#000000;stroke-width:2" />
    <line x1="246" y1="562" x2="268" y2="540" style="stroke:#000000;stroke-width:2" />
    <line x1="246" y1="562" x2="268" y2="583" style="stroke:#000000;stroke-width:2" />
    <line x1="246" y1="562" x2="254" y2="562" style="stroke:#000000;stroke-width:2" />
    <line x1="261" y1="562" x2="269" y2="562" style="stroke:#000000;stroke-width:2" />
    <line x1="337" y1="592" x2="337" y2="532" style="stroke:#000000;stroke-width:2" />
    <line x1="337" y1="532" x2="276" y2="532" style="stroke:#000000;stroke-width:2" />
    <line x1="276" y1="532" x2="276" y2="592" style="stroke:#000000;stroke-width:2" />
    <line x1="276" y1="592" x2="337" y2="592" style="stroke:#000000;stroke-width:2" />
    <line x1="292" y1="562" x2="322" y2="562" style="stroke:#000000;stroke-width:2" />
    <line x1="322" y1="562" x2="317" y2="567" style="stroke:#000000;stroke-width:2" />
    <line x1="322" y1="562" x2="317" y2="556" style="stroke:#000000;stroke-width:2" />
    <line x1="397" y1="592" x2="398" y2="532" style="stroke:#000000;stroke-width:2" />
    <line x1="398" y1="532" x2="337" y2="532" style="stroke:#000000;stroke-width:2" />
    <line x1="337" y1="532" x2="337" y2="592" style="stroke:#000000;stroke-width:2" />
    <line x1="337" y1="592" x2="398" y2="592" style="stroke:#000000;stroke-width:2" />
  <path d="M356.5550099345535 551.0550099345537           A15.125000000000005 15.125000000000005 0 0 1 377.9449900654465 551.0550099345537" fill = "none" stroke = "#000000" stroke-width = "2" />
  <path d="M356.5550099345535 572.4449900654467           A15.125000000000005 15.125000000000005 0 0 1 356.5550099345535 551.0550099345537" fill = "none" stroke = "#000000" stroke-width = "2" />
  <path d="M377.9449900654466 572.4449900654467           A15.125000000000005 15.125000000000005 0 0 1 356.5550099345535 572.4449900654467" fill = "none" stroke = "#000000" stroke-width = "2" />
    <line x1="367" y1="562" x2="378" y2="551" style="stroke:#000000;stroke-width:2" />
    <line x1="367" y1="539" x2="378" y2="550" style="stroke:#000000;stroke-width:2" />
    <line x1="458" y1="592" x2="458" y2="532" style="stroke:#000000;stroke-width:2" />
    <line x1="458" y1="532" x2="397" y2="532" style="stroke:#000000;stroke-width:2" />
    <line x1="397" y1="532" x2="397" y2="592" style="stroke:#000000;stroke-width:2" />
    <line x1="397" y1="592" x2="458" y2="592" style="stroke:#000000;stroke-width:2" />
    <line x1="413" y1="562" x2="443" y2="562" style="stroke:#000000;stroke-width:2" />
    <line x1="443" y1="562" x2="438" y2="567" style="stroke:#000000;stroke-width:2" />
    <line x1="443" y1="562" x2="438" y2="556" style="stroke:#000000;stroke-width:2" />
    <line x1="518" y1="592" x2="519" y2="532" style="stroke:#000000;stroke-width:2" />
    <line x1="519" y1="532" x2="458" y2="532" style="stroke:#000000;stroke-width:2" />
    <line x1="458" y1="532" x2="458" y2="592" style="stroke:#000000;stroke-width:2" />
    <line x1="458" y1="592" x2="518" y2="592" style="stroke:#000000;stroke-width:2" />
  <path d="M477.55500993455354 551.055009934554           A15.125000000000005 15.125000000000005 0 0 1 498.94499006544663 551.0550099345543" fill = "none" stroke = "#000000" stroke-width = "2" />
  <path d="M477.5550099345534 572.4449900654472           A15.125000000000005 15.125000000000005 0 0 1 477.55500993455354 551.055009934554" fill = "none" stroke = "#000000" stroke-width = "2" />
  <path d="M498.9449900654465 572.4449900654472           A15.125000000000005 15.125000000000005 0 0 1 477.5550099345534 572.4449900654472" fill = "none" stroke = "#000000" stroke-width = "2" />
    <line x1="488" y1="562" x2="499" y2="551" style="stroke:#000000;stroke-width:2" />
    <line x1="488" y1="539" x2="499" y2="550" style="stroke:#000000;stroke-width:2" />
    <line x1="579" y1="592" x2="579" y2="532" style="stroke:#000000;stroke-width:2" />
    <line x1="579" y1="532" x2="519" y2="532" style="stroke:#000000;stroke-width:2" />
    <line x1="519" y1="532" x2="518" y2="592" style="stroke:#000000;stroke-width:2" />
    <line x1="518" y1="592" x2="579" y2="592" style="stroke:#000000;stroke-width:2" />
    <line x1="534" y1="562" x2="564" y2="562" style="stroke:#000000;stroke-width:2" />
    <line x1="564" y1="562" x2="559" y2="567" style="stroke:#000000;stroke-width:2" />
    <line x1="564" y1="562" x2="559" y2="556" style="stroke:#000000;stroke-width:2" />
    <line x1="639" y1="592" x2="640" y2="532" style="stroke:#000000;stroke-width:2" />
    <line x1="640" y1="532" x2="579" y2="532" style="stroke:#000000;stroke-width:2" />
    <line x1="579" y1="532" x2="579" y2="592" style="stroke:#000000;stroke-width:2" />
    <line x1="579" y1="592" x2="639" y2="592" style="stroke:#000000;stroke-width:2" />
  <path d="M598.5550099345534 551.0550099345551           A15.125000000000005 15.125000000000005 0 0 1 619.9449900654464 551.0550099345551" fill = "none" stroke = "#000000" stroke-width = "2" />
  <path d="M598.5550099345534 572.4449900654481           A15.125000000000005 15.125000000000005 0 0 1 598.5550099345534 551.0550099345551" fill = "none" stroke = "#000000" stroke-width = "2" />
  <path d="M619.9449900654465 572.4449900654481           A15.125000000000005 15.125000000000005 0 0 1 598.5550099345534 572.4449900654481" fill = "none" stroke = "#000000" stroke-width = "2" />
    <line x1="609" y1="562" x2="620" y2="551" style="stroke:#000000;stroke-width:2" />
    <line x1="609" y1="539" x2="620" y2="550" style="stroke:#000000;stroke-width:2" />
    <line x1="700" y1="592" x2="700" y2="532" style="stroke:#000000;stroke-width:2" />
    <line x1="700" y1="532" x2="639" y2="532" style="stroke:#000000;stroke-width:2" />
    <line x1="639" y1="532" x2="640" y2="592" style="stroke:#000000;stroke-width:2" />
    <line x1="640" y1="592" x2="700" y2="592" style="stroke:#000000;stroke-width:2" />
    <line x1="655" y1="562" x2="685" y2="562" style="stroke:#000000;stroke-width:2" />
    <line x1="685" y1="562" x2="680" y2="567" style="stroke:#000000;stroke-width:2" />
    <line x1="685" y1="562" x2="680" y2="556" style="stroke:#000000;stroke-width:2" />
    <line x1="760" y1="592" x2="760" y2="532" style="stroke:#000000;stroke-width:2" />
    <line x1="760" y1="532" x2="700" y2="532" style="stroke:#000000;stroke-width:2" />
    <line x1="700" y1="532" x2="700" y2="592" style="stroke:#000000;stroke-width:2" />
    <line x1="700" y1="592" x2="761" y2="592" style="stroke:#000000;stroke-width:2" />
  <path d="M719.5550099345533 551.0550099345552           A15.125000000000005 15.125000000000005 0 0 1 740.9449900654463 551.0550099345551" fill = "none" stroke = "#000000" stroke-width = "2" />
  <path d="M719.5550099345534 572.4449900654482           A15.125000000000005 15.125000000000005 0 0 1 719.5550099345533 551.0550099345552" fill = "none" stroke = "#000000" stroke-width = "2" />
  <path d="M740.9449900654464 572.4449900654483           A15.125000000000005 15.125000000000005 0 0 1 719.5550099345534 572.4449900654482" fill = "none" stroke = "#000000" stroke-width = "2" />
    <line x1="730" y1="562" x2="741" y2="551" style="stroke:#000000;stroke-width:2" />
    <line x1="730" y1="539" x2="741" y2="550" style="stroke:#000000;stroke-width:2" />
    <line x1="821" y1="592" x2="821" y2="532" style="stroke:#000000;stroke-width:2" />
    <line x1="821" y1="532" x2="761" y2="532" style="stroke:#000000;stroke-width:2" />
    <line x1="761" y1="532" x2="761" y2="592" style="stroke:#000000;stroke-width:2" />
    <line x1="761" y1="592" x2="821" y2="592" style="stroke:#000000;stroke-width:2" />
    <line x1="776" y1="562" x2="806" y2="562" style="stroke:#000000;stroke-width:2" />
    <line x1="806" y1="562" x2="801" y2="567" style="stroke:#000000;stroke-width:2" />
    <line x1="806" y1="562" x2="801" y2="556" style="stroke:#000000;stroke-width:2" />
    <line x1="882" y1="592" x2="881" y2="532" style="stroke:#000000;stroke-width:2" />
    <line x1="881" y1="532" x2="821" y2="532" style="stroke:#000000;stroke-width:2" />
    <line x1="821" y1="532" x2="821" y2="592" style="stroke:#000000;stroke-width:2" />
    <line x1="821" y1="592" x2="882" y2="592" style="stroke:#000000;stroke-width:2" />
  <path d="M840.5550099345534 551.0550099345553           A15.125000000000005 15.125000000000005 0 0 1 861.9449900654464 551.055009934555" fill = "none" stroke = "#000000" stroke-width = "2" />
  <path d="M840.5550099345535 572.4449900654483           A15.125000000000005 15.125000000000005 0 0 1 840.5550099345534 551.0550099345553" fill = "none" stroke = "#000000" stroke-width = "2" />
  <path d="M861.9449900654465 572.4449900654482           A15.125000000000005 15.125000000000005 0 0 1 840.5550099345535 572.4449900654483" fill = "none" stroke = "#000000" stroke-width = "2" />
    <line x1="851" y1="562" x2="862" y2="551" style="stroke:#000000;stroke-width:2" />
    <line x1="851" y1="539" x2="862" y2="550" style="stroke:#000000;stroke-width:2" />
    <line x1="942" y1="592" x2="942" y2="532" style="stroke:#000000;stroke-width:2" />
    <line x1="942" y1="532" x2="882" y2="532" style="stroke:#000000;stroke-width:2" />
    <line x1="882" y1="532" x2="882" y2="592" style="stroke:#000000;stroke-width:2" />
    <line x1="882" y1="592" x2="942" y2="592" style="stroke:#000000;stroke-width:2" />
    <line x1="897" y1="562" x2="927" y2="562" style="stroke:#000000;stroke-width:2" />
    <line x1="927" y1="562" x2="922" y2="567" style="stroke:#000000;stroke-width:2" />
    <line x1="927" y1="562" x2="922" y2="556" style="stroke:#000000;stroke-width:2" />
    <line x1="1003" y1="592" x2="1002" y2="532" style="stroke:#000000;stroke-width:2" />
    <line x1="1002" y1="532" x2="942" y2="532" style="stroke:#000000;stroke-width:2" />
    <line x1="942" y1="532" x2="942" y2="592" style="stroke:#000000;stroke-width:2" />
    <line x1="942" y1="592" x2="1003" y2="592" style="stroke:#000000;stroke-width:2" />
  <path d="M961.5550099345534 551.055009934555           A15.125000000000005 15.125000000000005 0 0 1 982.9449900654464 551.0550099345545" fill = "none" stroke = "#000000" stroke-width = "2" />
  <path d="M961.5550099345537 572.4449900654479           A15.125000000000005 15.125000000000005 0 0 1 961.5550099345534 551.055009934555" fill = "none" stroke = "#000000" stroke-width = "2" />
  <path d="M982.9449900654467 572.4449900654477           A15.125000000000005 15.125000000000005 0 0 1 961.5550099345537 572.4449900654479" fill = "none" stroke = "#000000" stroke-width = "2" />
    <line x1="972" y1="562" x2="983" y2="551" style="stroke:#000000;stroke-width:2" />
    <line x1="972" y1="539" x2="983" y2="550" style="stroke:#000000;stroke-width:2" />
    <line x1="1063" y1="592" x2="1063" y2="532" style="stroke:#000000;stroke-width:2" />
    <line x1="1063" y1="532" x2="1003" y2="532" style="stroke:#000000;stroke-width:2" />
    <line x1="1003" y1="532" x2="1003" y2="592" style="stroke:#000000;stroke-width:2" />
    <line x1="1003" y1="592" x2="1063" y2="592" style="stroke:#000000;stroke-width:2" />
    <line x1="1018" y1="562" x2="1048" y2="562" style="stroke:#000000;stroke-width:2" />
    <line x1="1048" y1="562" x2="1043" y2="567" style="stroke:#000000;stroke-width:2" />
    <line x1="1048" y1="562" x2="1043" y2="556" style="stroke:#000000;stroke-width:2" />
    <line x1="1124" y1="592" x2="1123" y2="531" style="stroke:#000000;stroke-width:2" />
    <line x1="1123" y1="531" x2="1063" y2="532" style="stroke:#000000;stroke-width:2" />
    <line x1="1063" y1="532" x2="1063" y2="592" style="stroke:#000000;stroke-width:2" />
    <line x1="1063" y1="592" x2="1124" y2="592" style="stroke:#000000;stroke-width:2" />
  <path d="M1082.5550099345533 551.0550099345536           A15.125000000000005 15.125000000000005 0 0 1 1103.9449900654463 551.055009934553" fill = "none" stroke = "#000000" stroke-width = "2" />
  <path d="M1082.5550099345537 572.4449900654466           A15.125000000000005 15.125000000000005 0 0 1 1082.5550099345533 551.0550099345536" fill = "none" stroke = "#000000" stroke-width = "2" />
  <path d="M1103.9449900654467 572.4449900654463           A15.125000000000005 15.125000000000005 0 0 1 1082.5550099345537 572.4449900654466" fill = "none" stroke = "#000000" stroke-width = "2" />
    <line x1="1093" y1="562" x2="1104" y2="551" style="stroke:#000000;stroke-width:2" />
    <line x1="1093" y1="539" x2="1104" y2="550" style="stroke:#000000;stroke-width:2" />
    <line x1="1184" y1="592" x2="1184" y2="531" style="stroke:#000000;stroke-width:2" />
    <line x1="1184" y1="531" x2="1123" y2="531" style="stroke:#000000;stroke-width:2" />
    <line x1="1123" y1="531" x2="1124" y2="592" style="stroke:#000000;stroke-width:2" />
    <line x1="1124" y1="592" x2="1184" y2="592" style="stroke:#000000;stroke-width:2" />
    <line x1="1139" y1="562" x2="1169" y2="562" style="stroke:#000000;stroke-width:2" />
    <line x1="1169" y1="562" x2="1164" y2="567" style="stroke:#000000;stroke-width:2" />
    <line x1="1169" y1="562" x2="1164" y2="556" style="stroke:#000000;stroke-width:2" />
    <line x1="1245" y1="592" x2="1244" y2="531" style="stroke:#000000;stroke-width:2" />
    <line x1="1244" y1="531" x2="1184" y2="531" style="stroke:#000000;stroke-width:2" />
    <line x1="1184" y1="531" x2="1184" y2="592" style="stroke:#000000;stroke-width:2" />
    <line x1="1184" y1="592" x2="1245" y2="592" style="stroke:#000000;stroke-width:2" />
  <path d="M1203.5550099345535 551.0550099345514           A15.125000000000005 15.125000000000005 0 0 1 1224.9449900654465 551.0550099345506" fill = "none" stroke = "#000000" stroke-width = "2" />
  <path d="M1203.5550099345542 572.4449900654445           A15.125000000000005 15.125000000000005 0 0 1 1203.5550099345535 551.0550099345514" fill = "none" stroke = "#000000" stroke-width = "2" />
  <path d="M1224.9449900654472 572.4449900654439           A15.125000000000005 15.125000000000005 0 0 1 1203.5550099345542 572.4449900654445" fill = "none" stroke = "#000000" stroke-width = "2" />
    <line x1="1214" y1="562" x2="1225" y2="551" style="stroke:#000000;stroke-width:2" />
    <line x1="1214" y1="539" x2="1225" y2="550" style="stroke:#000000;stroke-width:2" />
    <line x1="518" y1="350" x2="518" y2="169" style="stroke:#000000;stroke-width:2" />
    <line x1="518" y1="169" x2="647" y2="41" style="stroke:#000000;stroke-width:2" />
    <line x1="647" y1="41" x2="828" y2="41" style="stroke:#000000;stroke-width:2" />
    <line x1="828" y1="41" x2="956" y2="169" style="stroke:#000000;stroke-width:2" />
    <line x1="956" y1="169" x2="956" y2="350" style="stroke:#000000;stroke-width:2" />
    <line x1="956" y1="350" x2="828" y2="478" style="stroke:#000000;stroke-width:2" />
    <line x1="828" y1="478" x2="647" y2="478" style="stroke:#000000;stroke-width:2" />
    <line x1="647" y1="478" x2="518" y2="350" style="stroke:#000000;stroke-width:2" />
</svg>