<svg width="500" height="500" viewbox = "0 0 500 500"  xmlns="http://www.w3.org/2000/svg">

<!--
<json>
{
    "glyph": "0200,0341,0337,0200,0331,0333,0200,0336,0330,0332,0200,",
    "unit": 100,
    "x0": 684,
    "y0": 399,
    "x0rel": 0,
    "y0rel": 0,
    "imgurl": "",
    "imgw": 2,
    "imgleft": -1,
    "imgtop": -1
}
</json>
-->
    <line x1="250" y1="250" x2="250" y2="150" style="stroke:#000000;stroke-width:2" />
    <line x1="250" y1="150" x2="150" y2="150" style="stroke:#000000;stroke-width:2" />
    <line x1="150" y1="150" x2="150" y2="250" style="stroke:#000000;stroke-width:2" />
    <line x1="150" y1="250" x2="250" y2="250" style="stroke:#000000;stroke-width:2" />
    <circle cx="250" cy = "250" r = "100" stroke = "#000000" stroke-width = "2" fill = "none" />
    <line x1="250" y1="250" x2="250" y2="50" style="stroke:#000000;stroke-width:2" />
    <line x1="250" y1="50" x2="50" y2="50" style="stroke:#000000;stroke-width:2" />
    <line x1="50" y1="50" x2="50" y2="250" style="stroke:#000000;stroke-width:2" />
    <line x1="50" y1="250" x2="250" y2="250" style="stroke:#000000;stroke-width:2" />
    <line x1="450" y1="450" x2="450" y2="250" style="stroke:#000000;stroke-width:2" />
    <line x1="450" y1="250" x2="250" y2="250" style="stroke:#000000;stroke-width:2" />
    <line x1="250" y1="250" x2="250" y2="450" style="stroke:#000000;stroke-width:2" />
    <line x1="250" y1="450" x2="450" y2="450" style="stroke:#000000;stroke-width:2" />
    <line x1="350" y1="350" x2="350" y2="250" style="stroke:#000000;stroke-width:2" />
    <line x1="350" y1="250" x2="250" y2="250" style="stroke:#000000;stroke-width:2" />
    <line x1="250" y1="250" x2="250" y2="350" style="stroke:#000000;stroke-width:2" />
    <line x1="250" y1="350" x2="350" y2="350" style="stroke:#000000;stroke-width:2" />
</svg>