<svg width="500" height="500" viewbox = "0 0 500 500"  xmlns="http://www.w3.org/2000/svg">

<!--
<json>
{
    "glyph": "0331,0332,0314,0337,0313,0201,0335,0201,0335,0201,0335,0201,0335,0333,0336,0200,0336,0200,0336,0200,0336,0200,0336,0200,0336,",
    "unit": 90.9090909090909,
    "x0": 634,
    "y0": 449,
    "x0rel": -0.55,
    "y0rel": 0.55,
    "imgurl": "",
    "imgw": 2,
    "imgleft": -1,
    "imgtop": -1
}
</json>
-->
    <line x1="109" y1="391" x2="109" y2="118" style="stroke:#000000;stroke-width:2" />
    <line x1="109" y1="118" x2="382" y2="118" style="stroke:#000000;stroke-width:2" />
    <line x1="382" y1="118" x2="382" y2="391" style="stroke:#000000;stroke-width:2" />
    <line x1="382" y1="391" x2="109" y2="391" style="stroke:#000000;stroke-width:2" />
    <line x1="382" y1="391" x2="382" y2="255" style="stroke:#000000;stroke-width:2" />
    <line x1="382" y1="255" x2="245" y2="255" style="stroke:#000000;stroke-width:2" />
    <line x1="245" y1="255" x2="245" y2="391" style="stroke:#000000;stroke-width:2" />
    <line x1="245" y1="391" x2="382" y2="391" style="stroke:#000000;stroke-width:2" />
    <line x1="382" y1="391" x2="382" y2="323" style="stroke:#000000;stroke-width:2" />
    <line x1="382" y1="323" x2="314" y2="323" style="stroke:#000000;stroke-width:2" />
    <line x1="314" y1="323" x2="314" y2="391" style="stroke:#000000;stroke-width:2" />
    <line x1="314" y1="391" x2="382" y2="391" style="stroke:#000000;stroke-width:2" />
    <line x1="382" y1="391" x2="382" y2="357" style="stroke:#000000;stroke-width:2" />
    <line x1="382" y1="357" x2="348" y2="357" style="stroke:#000000;stroke-width:2" />
    <line x1="348" y1="357" x2="348" y2="391" style="stroke:#000000;stroke-width:2" />
    <line x1="348" y1="391" x2="382" y2="391" style="stroke:#000000;stroke-width:2" />
    <line x1="382" y1="391" x2="382" y2="374" style="stroke:#000000;stroke-width:2" />
    <line x1="382" y1="374" x2="365" y2="374" style="stroke:#000000;stroke-width:2" />
    <line x1="365" y1="374" x2="365" y2="391" style="stroke:#000000;stroke-width:2" />
    <line x1="365" y1="391" x2="382" y2="391" style="stroke:#000000;stroke-width:2" />
    <line x1="382" y1="391" x2="382" y2="382" style="stroke:#000000;stroke-width:2" />
    <line x1="382" y1="382" x2="373" y2="382" style="stroke:#000000;stroke-width:2" />
    <line x1="373" y1="382" x2="373" y2="391" style="stroke:#000000;stroke-width:2" />
    <line x1="373" y1="391" x2="382" y2="391" style="stroke:#000000;stroke-width:2" />
</svg>