<svg width="500" height="500" viewbox = "0 0 500 500"  xmlns="http://www.w3.org/2000/svg">

<!--
<json>
{
    "glyph": "0331,0332,0314,0337,0313,0335,0306,0201,0334,0334,0201,0334,0334,0201,0336,0331,0335,0334,0334,0201,0334,0334,0201,0334,0334,0201,0336,0331,0335,0201,0335,0335,0201,0335,0335,0201,0335,0335,0330,0335,0336,0333,0201,0334,0334,0201,0334,0334,0201,0331,0335,0335,0336,0331,0335,0201,0335,0335,0201,0335,0335,0201,0335,0335,0330,0335,0335,0336,0330,0334,0334,0201,0335,0335,0201,0335,0335,0201,",
    "unit": 90.9090909090909,
    "x0": 634,
    "y0": 449,
    "x0rel": -0.55,
    "y0rel": 0.55,
    "imgurl": "",
    "imgw": 2,
    "imgleft": -1,
    "imgtop": -1
}
</json>
-->
    <line x1="109" y1="391" x2="382" y2="391" style="stroke:#000000;stroke-width:2" />
    <line x1="382" y1="391" x2="245" y2="155" style="stroke:#000000;stroke-width:2" />
    <line x1="245" y1="155" x2="109" y2="391" style="stroke:#000000;stroke-width:2" />
    <line x1="177" y1="273" x2="245" y2="391" style="stroke:#000000;stroke-width:2" />
    <line x1="245" y1="391" x2="314" y2="273" style="stroke:#000000;stroke-width:2" />
    <line x1="314" y1="273" x2="177" y2="273" style="stroke:#000000;stroke-width:2" />
    <line x1="245" y1="273" x2="211" y2="214" style="stroke:#000000;stroke-width:2" />
    <line x1="211" y1="214" x2="280" y2="214" style="stroke:#000000;stroke-width:2" />
    <line x1="280" y1="214" x2="245" y2="273" style="stroke:#000000;stroke-width:2" />
    <line x1="245" y1="214" x2="263" y2="184" style="stroke:#000000;stroke-width:2" />
    <line x1="263" y1="184" x2="228" y2="184" style="stroke:#000000;stroke-width:2" />
    <line x1="228" y1="184" x2="245" y2="214" style="stroke:#000000;stroke-width:2" />
    <line x1="245" y1="184" x2="237" y2="169" style="stroke:#000000;stroke-width:2" />
    <line x1="237" y1="169" x2="254" y2="169" style="stroke:#000000;stroke-width:2" />
    <line x1="254" y1="169" x2="245" y2="184" style="stroke:#000000;stroke-width:2" />
    <line x1="245" y1="169" x2="241" y2="162" style="stroke:#000000;stroke-width:2" />
    <line x1="241" y1="162" x2="250" y2="162" style="stroke:#000000;stroke-width:2" />
    <line x1="250" y1="162" x2="245" y2="169" style="stroke:#000000;stroke-width:2" />
</svg>