<svg width="600" height="700" viewbox = "0 0 600 700"  xmlns="http://www.w3.org/2000/svg">

<!--
<json>
{
"shapes":[
    "0260:0314,0337,0313,0305,0331,0334,0201,0335,0201,0335,0201,0335,0201,0335,0201,0335,0330,0311,0337,0330,0335,0335,0330,0334,0330,0335,0335,0330,0334,0335,0335,0342,0334,0335,0334,0350,0335,0342,0330,0335,0335,0335,0335,0201,0335,0335,0335,0335,0201,0335,0335,0335,0335,0201,0335,0335,0335,0335,0336,0336,0330,0335,0201,0335,0335,0335,0335,0305,0201,0335,0335,0201,0335,0335,0201,0335,0335,0201,0335,0335,0335,0334,0350,0335,0336,0336,0330,0334,0201,0334,0334,0334,0334,0201,0334,0334,0334,0334,0201,0334,0334,0334,0334,0201,0334,0334,0334,0334,0201,0335,0335,0335,0335,0335,0336,0336,0330,0335,0201,0335,0335,0335,0335,0201,0335,0335,0335,0335,0201,0335,0335,0335,0335,0201,0335,0335,0335,0335,0201,0335,0335,0335,0331,0334,0337,0330,0334,0334,0334,0337,0330,0335,0335,0337,0337,0334,0335,0330,0335,0335,0335,0336,0305,0201,0334,0201,0334,0201,0334,0201,0334,0201,0334,0330,0337,0330,0334,0336,0336,0201,0334,0201,0334,0201,0334,0201,0334,0330,0336,0335,0201,0334,0201,0334,0201,0334,0201,0334,0201,0334,0330,0330,0336,0330,0334,0201,0334,0201,0334,0201,0334,0201,0334,0201,0330,0330,0330,0336,0334,0201,0334,0201,0334,0201,0334,0201,0334,0330,0330,0330,0336,0334,0201,0334,0201,0334,0201,0334,0201,0334,"
],
"glyph":"0314,0337,0313,0305,0331,0334,0201,0335,0201,0335,0201,0335,0201,0335,0201,0335,0330,0311,0337,0330,0335,0335,0330,0334,0330,0335,0335,0330,0334,0335,0335,0342,0334,0335,0334,0350,0335,0342,0330,0335,0335,0335,0335,0201,0335,0335,0335,0335,0201,0335,0335,0335,0335,0201,0335,0335,0335,0335,0336,0336,0330,0335,0201,0335,0335,0335,0335,0305,0201,0335,0335,0201,0335,0335,0201,0335,0335,0201,0335,0335,0335,0334,0350,0335,0336,0336,0330,0334,0201,0334,0334,0334,0334,0201,0334,0334,0334,0334,0201,0334,0334,0334,0334,0201,0334,0334,0334,0334,0201,0335,0335,0335,0335,0335,0336,0336,0330,0335,0201,0335,0335,0335,0335,0201,0335,0335,0335,0335,0201,0335,0335,0335,0335,0201,0335,0335,0335,0335,0201,0335,0335,0335,0331,0334,0337,0330,0334,0334,0334,0337,0330,0335,0335,0337,0337,0334,0335,0330,0335,0335,0335,0336,0305,0201,0334,0201,0334,0201,0334,0201,0334,0201,0334,0330,0337,0330,0334,0336,0336,0201,0334,0201,0334,0201,0334,0201,0334,0330,0336,0335,0201,0334,0201,0334,0201,0334,0201,0334,0201,0334,0330,0330,0336,0330,0334,0201,0334,0201,0334,0201,0334,0201,0334,0201,0330,0330,0330,0336,0334,0201,0334,0201,0334,0201,0334,0201,0334,0330,0330,0330,0336,0334,0201,0334,0201,0334,0201,0334,0201,0334,",
"w":600,
"h":700,
"x0":400,
"y0":311.5,
"x0rel":-2.83,
"y0rel":-0.13,
"unit":100,
"imgurl":"",
"imgw":2,
"imgleft":-1,
"imgtop":-1
}

</json>
-->
    <line x1="400" y1="612" x2="115" y2="519" style="stroke:black;stroke-width:2" />
    <line x1="115" y1="519" x2="115" y2="219" style="stroke:black;stroke-width:2" />
    <line x1="115" y1="219" x2="400" y2="126" style="stroke:black;stroke-width:2" />
    <line x1="400" y1="126" x2="576" y2="369" style="stroke:black;stroke-width:2" />
    <line x1="576" y1="369" x2="400" y2="612" style="stroke:black;stroke-width:2" />
    <line x1="400" y1="126" x2="115" y2="519" style="stroke:black;stroke-width:2" />
    <line x1="400" y1="126" x2="400" y2="611" style="stroke:black;stroke-width:2" />
    <line x1="400" y1="611" x2="115" y2="219" style="stroke:black;stroke-width:2" />
    <line x1="115" y1="219" x2="576" y2="369" style="stroke:black;stroke-width:2" />
    <line x1="576" y1="369" x2="115" y2="519" style="stroke:black;stroke-width:2" />
    <line x1="224" y1="369" x2="400" y2="311" style="stroke:black;stroke-width:2" />
    <line x1="400" y1="311" x2="291" y2="461" style="stroke:black;stroke-width:2" />
    <line x1="291" y1="461" x2="291" y2="276" style="stroke:black;stroke-width:2" />
    <line x1="291" y1="276" x2="400" y2="426" style="stroke:black;stroke-width:2" />
    <line x1="400" y1="426" x2="224" y2="369" style="stroke:black;stroke-width:2" />
    <line x1="291" y1="391" x2="358" y2="369" style="stroke:black;stroke-width:2" />
    <line x1="358" y1="369" x2="291" y2="347" style="stroke:black;stroke-width:2" />
    <line x1="291" y1="347" x2="333" y2="404" style="stroke:black;stroke-width:2" />
    <line x1="333" y1="404" x2="333" y2="333" style="stroke:black;stroke-width:2" />
    <line x1="333" y1="333" x2="291" y2="391" style="stroke:black;stroke-width:2" />
    <line x1="307" y1="369" x2="333" y2="360" style="stroke:black;stroke-width:2" />
    <line x1="333" y1="360" x2="317" y2="382" style="stroke:black;stroke-width:2" />
    <line x1="317" y1="382" x2="317" y2="355" style="stroke:black;stroke-width:2" />
    <line x1="317" y1="355" x2="333" y2="377" style="stroke:black;stroke-width:2" />
    <line x1="333" y1="377" x2="307" y2="369" style="stroke:black;stroke-width:2" />
    <line x1="115" y1="219" x2="224" y2="183" style="stroke:black;stroke-width:2" />
    <line x1="224" y1="183" x2="224" y2="69" style="stroke:black;stroke-width:2" />
    <line x1="224" y1="69" x2="115" y2="33" style="stroke:black;stroke-width:2" />
    <line x1="115" y1="33" x2="47" y2="126" style="stroke:black;stroke-width:2" />
    <line x1="47" y1="126" x2="115" y2="219" style="stroke:black;stroke-width:2" />
    <line x1="400" y1="126" x2="400" y2="55" style="stroke:black;stroke-width:2" />
    <line x1="400" y1="55" x2="333" y2="33" style="stroke:black;stroke-width:2" />
    <line x1="333" y1="33" x2="291" y2="91" style="stroke:black;stroke-width:2" />
    <line x1="291" y1="91" x2="333" y2="148" style="stroke:black;stroke-width:2" />
    <line x1="400" y1="126" x2="426" y2="162" style="stroke:black;stroke-width:2" />
    <line x1="426" y1="162" x2="467" y2="148" style="stroke:black;stroke-width:2" />
    <line x1="467" y1="148" x2="467" y2="104" style="stroke:black;stroke-width:2" />
    <line x1="467" y1="104" x2="426" y2="91" style="stroke:black;stroke-width:2" />
    <line x1="426" y1="91" x2="400" y2="126" style="stroke:black;stroke-width:2" />
    <line x1="467" y1="219" x2="493" y2="210" style="stroke:black;stroke-width:2" />
    <line x1="493" y1="210" x2="493" y2="183" style="stroke:black;stroke-width:2" />
    <line x1="493" y1="183" x2="467" y2="175" style="stroke:black;stroke-width:2" />
    <line x1="467" y1="175" x2="451" y2="197" style="stroke:black;stroke-width:2" />
    <line x1="451" y1="197" x2="467" y2="219" style="stroke:black;stroke-width:2" />
    <line x1="515" y1="284" x2="531" y2="279" style="stroke:black;stroke-width:2" />
    <line x1="531" y1="279" x2="531" y2="263" style="stroke:black;stroke-width:2" />
    <line x1="531" y1="263" x2="515" y2="257" style="stroke:black;stroke-width:2" />
    <line x1="515" y1="257" x2="505" y2="271" style="stroke:black;stroke-width:2" />
    <line x1="535" y1="312" x2="545" y2="308" style="stroke:black;stroke-width:2" />
    <line x1="545" y1="308" x2="545" y2="298" style="stroke:black;stroke-width:2" />
    <line x1="545" y1="298" x2="535" y2="295" style="stroke:black;stroke-width:2" />
    <line x1="535" y1="295" x2="529" y2="303" style="stroke:black;stroke-width:2" />
</svg>