<svg width="700" height="800" viewbox = "0 0 700 800"  xmlns="http://www.w3.org/2000/svg">

<!--
<json>
{
"shapes":[
    "0260:0314,0337,0313,0331,0334,0305,0311,0342,0335,0337,0201,0334,0334,0201,0334,0336,0334,0334,0335,0350,0335,0330,0334,0334,0201,0334,0334,0201,0335,0337,0331,0334,0336,0201,0335,0335,0335,0336,0201,0334,0334,0334,0336,0201,0335,0335,0335,0336,0201,0334,0334,0334,0336,0201,0335,0335,0335,0336,0201,0334,0334,0334,0336,0201,0335,0335,0335,0336,0201,0331,0334,0334,0334,0337,0331,0335,0335,0335,0337,0331,0334,0334,0334,0337,0331,0335,0335,0335,0337,0331,0334,0334,0334,0337,0331,0335,0335,0335,0337,0331,0334,0334,0334,0337,0331,0335,0335,0330,0334,0334,0334,0336,0201,0335,0335,0335,0336,0201,0334,0334,0334,0336,0201,0335,0335,0335,0336,0201,0334,0334,0334,0336,0201,0335,0335,0335,0336,0201,0334,0334,0334,0336,0201,0335,0335,0337,0331,0337,0337,0331,0337,0337,0331,0337,0337,0331,0335,0330,0334,0334,0336,0201,0335,0335,0335,0335,0201,0335,0201,0335,0335,0335,0335,0201,0335,0330,0335,0201,0335,0335,0335,0201,0335,0335,0201,0334,0334,0334,0334,0201,0335,0335,0335,0201,0335,0335,0335,0335,0336,0201,0334,0201,0334,0334,0334,0337,0330,0334,0334,0334,0342,0334,"
],
"glyph":"0314,0337,0313,0331,0334,0305,0311,0342,0335,0337,0201,0334,0334,0201,0334,0336,0334,0334,0335,0350,0335,0330,0334,0334,0201,0334,0334,0201,0335,0337,0331,0334,0336,0201,0335,0335,0335,0336,0201,0334,0334,0334,0336,0201,0335,0335,0335,0336,0201,0334,0334,0334,0336,0201,0335,0335,0335,0336,0201,0334,0334,0334,0336,0201,0335,0335,0335,0336,0201,0331,0334,0334,0334,0337,0331,0335,0335,0335,0337,0331,0334,0334,0334,0337,0331,0335,0335,0335,0337,0331,0334,0334,0334,0337,0331,0335,0335,0335,0337,0331,0334,0334,0334,0337,0331,0335,0335,0330,0334,0334,0334,0336,0201,0335,0335,0335,0336,0201,0334,0334,0334,0336,0201,0335,0335,0335,0336,0201,0334,0334,0334,0336,0201,0335,0335,0335,0336,0201,0334,0334,0334,0336,0201,0335,0335,0337,0331,0337,0337,0331,0337,0337,0331,0337,0337,0331,0335,0330,0334,0334,0336,0201,0335,0335,0335,0335,0201,0335,0201,0335,0335,0335,0335,0201,0335,0330,0335,0201,0335,0335,0335,0201,0335,0335,0201,0334,0334,0334,0334,0201,0335,0335,0335,0201,0335,0335,0335,0335,0336,0201,0334,0201,0334,0334,0334,0337,0330,0334,0334,0334,0342,0334,",
"w":700,
"h":800,
"x0":350,
"y0":400,
"x0rel":-3.33,
"y0rel":0.755,
"unit":100,
"imgurl":"",
"imgw":2,
"imgleft":-1,
"imgtop":-1
}

</json>
-->
    <line x1="350" y1="700" x2="50" y2="700" style="stroke:black;stroke-width:2" />
    <line x1="350" y1="700" x2="200" y2="238" style="stroke:black;stroke-width:2" />
    <line x1="200" y1="238" x2="50" y2="700" style="stroke:black;stroke-width:2" />
    <line x1="350" y1="700" x2="443" y2="415" style="stroke:black;stroke-width:2" />
    <line x1="443" y1="415" x2="200" y2="238" style="stroke:black;stroke-width:2" />
    <line x1="350" y1="700" x2="107" y2="524" style="stroke:black;stroke-width:2" />
    <line x1="107" y1="524" x2="257" y2="415" style="stroke:black;stroke-width:2" />
    <line x1="257" y1="415" x2="165" y2="347" style="stroke:black;stroke-width:2" />
    <line x1="165" y1="347" x2="222" y2="306" style="stroke:black;stroke-width:2" />
    <line x1="222" y1="306" x2="186" y2="280" style="stroke:black;stroke-width:2" />
    <line x1="186" y1="280" x2="208" y2="264" style="stroke:black;stroke-width:2" />
    <line x1="208" y1="264" x2="195" y2="254" style="stroke:black;stroke-width:2" />
    <line x1="195" y1="254" x2="203" y2="248" style="stroke:black;stroke-width:2" />
    <line x1="443" y1="415" x2="257" y2="415" style="stroke:black;stroke-width:2" />
    <line x1="257" y1="415" x2="293" y2="306" style="stroke:black;stroke-width:2" />
    <line x1="293" y1="306" x2="222" y2="306" style="stroke:black;stroke-width:2" />
    <line x1="222" y1="306" x2="235" y2="264" style="stroke:black;stroke-width:2" />
    <line x1="235" y1="264" x2="208" y2="264" style="stroke:black;stroke-width:2" />
    <line x1="208" y1="264" x2="214" y2="248" style="stroke:black;stroke-width:2" />
    <line x1="214" y1="248" x2="203" y2="248" style="stroke:black;stroke-width:2" />
    <line x1="443" y1="415" x2="293" y2="306" style="stroke:black;stroke-width:2" />
    <line x1="293" y1="306" x2="478" y2="306" style="stroke:black;stroke-width:2" />
    <line x1="478" y1="306" x2="628" y2="415" style="stroke:black;stroke-width:2" />
    <line x1="628" y1="415" x2="443" y2="415" style="stroke:black;stroke-width:2" />
    <line x1="293" y1="306" x2="235" y2="129" style="stroke:black;stroke-width:2" />
    <line x1="235" y1="129" x2="421" y2="129" style="stroke:black;stroke-width:2" />
    <line x1="421" y1="129" x2="478" y2="306" style="stroke:black;stroke-width:2" />
    <line x1="478" y1="306" x2="535" y2="129" style="stroke:black;stroke-width:2" />
    <line x1="535" y1="129" x2="685" y2="238" style="stroke:black;stroke-width:2" />
    <line x1="685" y1="238" x2="571" y2="238" style="stroke:black;stroke-width:2" />
    <line x1="571" y1="238" x2="478" y2="306" style="stroke:black;stroke-width:2" />
    <line x1="628" y1="415" x2="685" y2="238" style="stroke:black;stroke-width:2" />
</svg>