<svg width="800" height="700" viewbox = "0 0 800 700"  xmlns="http://www.w3.org/2000/svg">

<!--
<json>
{
"shapes":[
    "0260:0336,0336,0336,0336,0333,0333,0333,0333,0333,0331,0331,0331,0331,0331,0331,0331,0331,0331,0331,0330,0330,0330,0330,0330,0330,0330,0330,0330,0337,0337,0337,0337,0314,0337,0313,0306,0201,0334,0201,0334,0334,0201,0334,0334,0201,0334,0334,0334,0201,0334,0334,0201,0335,0335,0201,0335,0335,0201,0335,0335,0336,0330,0335,0201,0335,0335,0201,0335,0335,0201,0334,0334,0330,0335,0201,0335,0335,0201,0334,0330,0335,0335,0337,0334,0201,0335,0335,0201,0334,0334,0201,0334,0334,0201,0331,0334,0334,0201,0335,0335,0201,0336,0331,0335,0201,0335,0335,0201,0335,0335,0201,0334,0334,0336,0330,0334,0201,0334,0334,0201,0334,0334,0201,0334,0336,0201,0334,0201,0334,0334,0201,0334,0334,0201,0334,0336,0330,0334,0201,0334,0334,0201,0334,0334,0201,0335,0335,0331,0337,0337,0337,0337,0334,0342,0335,0330,0350,0335,0336,0312,0337,0342,0330,0335,0335,0335,0335,0313,0336,0201,0334,0334,0334,0334,0336,0201,0335,0335,0335,0335,0336,0201,0334,0334,0334,0334,0336,0201,0335,0335,0335,0336,0334,0334,0334,0337,0331,0335,0335,0335,0335,0337,0331,0334,0334,0334,0334,0337,0331,0335,0335,0335,0335,0337,0331,0334,0334,0334,0334,0337,0331,0334,0312,0312,0334,0330,0335,0335,0335,0336,0330,0335,0335,0335,0335,0313,0337,0306,0334,0334,0201,0335,0335,0201,0335,0335,0330,0335,0201,0335,0335,0201,0335,0335,0201,0335,0335,0201,0334,0334,0201,0201,0334,0334,0201,0335,0335,0201,0334,0334,0201,0331,0330,0334,0334,0336,0330,0334,0201,0334,0334,0201,0334,0334,0201,0334,0330,0334,0337,0330,0334,0334,0201,0201,0334,0334,0201,0330,0331,0335,0335,0342,"
],
"glyph":"0336,0336,0336,0336,0333,0333,0333,0333,0333,0331,0331,0331,0331,0331,0331,0331,0331,0331,0331,0330,0330,0330,0330,0330,0330,0330,0330,0330,0337,0337,0337,0337,0314,0337,0313,0306,0201,0334,0201,0334,0334,0201,0334,0334,0201,0334,0334,0334,0201,0334,0334,0201,0335,0335,0201,0335,0335,0201,0335,0335,0336,0330,0335,0201,0335,0335,0201,0335,0335,0201,0334,0334,0330,0335,0201,0335,0335,0201,0334,0330,0335,0335,0337,0334,0201,0335,0335,0201,0334,0334,0201,0334,0334,0201,0331,0334,0334,0201,0335,0335,0201,0336,0331,0335,0201,0335,0335,0201,0335,0335,0201,0334,0334,0336,0330,0334,0201,0334,0334,0201,0334,0334,0201,0334,0336,0201,0334,0201,0334,0334,0201,0334,0334,0201,0334,0336,0330,0334,0201,0334,0334,0201,0334,0334,0201,0335,0335,0331,0337,0337,0337,0337,0334,0342,0335,0330,0350,0335,0336,0312,0337,0342,0330,0335,0335,0335,0335,0313,0336,0201,0334,0334,0334,0334,0336,0201,0335,0335,0335,0335,0336,0201,0334,0334,0334,0334,0336,0201,0335,0335,0335,0336,0334,0334,0334,0337,0331,0335,0335,0335,0335,0337,0331,0334,0334,0334,0334,0337,0331,0335,0335,0335,0335,0337,0331,0334,0334,0334,0334,0337,0331,0334,0312,0312,0334,0330,0335,0335,0335,0336,0330,0335,0335,0335,0335,0313,0337,0306,0334,0334,0201,0335,0335,0201,0335,0335,0330,0335,0201,0335,0335,0201,0335,0335,0201,0335,0335,0201,0334,0334,0201,0201,0334,0334,0201,0335,0335,0201,0334,0334,0201,0331,0330,0334,0334,0336,0330,0334,0201,0334,0334,0201,0334,0334,0201,0334,0330,0334,0337,0330,0334,0334,0201,0201,0334,0334,0201,0330,0331,0335,0335,0342,",
"w":800,
"h":700,
"x0":500,
"y0":361.5,
"x0rel":-1.83,
"y0rel":0.37,
"unit":100,
"imgurl":"",
"imgw":2,
"imgleft":-1,
"imgtop":-1
}

</json>
-->
    <line x1="531" y1="368" x2="531" y2="68" style="stroke:black;stroke-width:2" />
    <line x1="531" y1="68" x2="271" y2="-82" style="stroke:black;stroke-width:2" />
    <line x1="271" y1="-82" x2="271" y2="218" style="stroke:black;stroke-width:2" />
    <line x1="271" y1="218" x2="531" y2="68" style="stroke:black;stroke-width:2" />
    <line x1="531" y1="68" x2="271" y2="218" style="stroke:black;stroke-width:2" />
    <line x1="271" y1="218" x2="531" y2="368" style="stroke:black;stroke-width:2" />
    <line x1="531" y1="368" x2="271" y2="518" style="stroke:black;stroke-width:2" />
    <line x1="271" y1="518" x2="271" y2="218" style="stroke:black;stroke-width:2" />
    <line x1="401" y1="293" x2="401" y2="443" style="stroke:black;stroke-width:2" />
    <line x1="401" y1="443" x2="271" y2="368" style="stroke:black;stroke-width:2" />
    <line x1="271" y1="368" x2="401" y2="293" style="stroke:black;stroke-width:2" />
    <line x1="271" y1="218" x2="271" y2="68" style="stroke:black;stroke-width:2" />
    <line x1="271" y1="68" x2="401" y2="143" style="stroke:black;stroke-width:2" />
    <line x1="531" y1="68" x2="791" y2="218" style="stroke:black;stroke-width:2" />
    <line x1="791" y1="218" x2="531" y2="368" style="stroke:black;stroke-width:2" />
    <line x1="531" y1="368" x2="791" y2="518" style="stroke:black;stroke-width:2" />
    <line x1="791" y1="518" x2="791" y2="218" style="stroke:black;stroke-width:2" />
    <line x1="791" y1="518" x2="531" y2="668" style="stroke:black;stroke-width:2" />
    <line x1="531" y1="668" x2="531" y2="368" style="stroke:black;stroke-width:2" />
    <line x1="531" y1="518" x2="661" y2="443" style="stroke:black;stroke-width:2" />
    <line x1="661" y1="443" x2="661" y2="593" style="stroke:black;stroke-width:2" />
    <line x1="661" y1="593" x2="531" y2="518" style="stroke:black;stroke-width:2" />
    <line x1="531" y1="593" x2="596" y2="630" style="stroke:black;stroke-width:2" />
    <line x1="596" y1="630" x2="596" y2="555" style="stroke:black;stroke-width:2" />
    <line x1="596" y1="555" x2="531" y2="593" style="stroke:black;stroke-width:2" />
    <line x1="531" y1="593" x2="531" y2="630" style="stroke:black;stroke-width:2" />
    <line x1="531" y1="630" x2="564" y2="649" style="stroke:black;stroke-width:2" />
    <line x1="564" y1="649" x2="564" y2="611" style="stroke:black;stroke-width:2" />
    <line x1="564" y1="611" x2="531" y2="630" style="stroke:black;stroke-width:2" />
    <line x1="531" y1="649" x2="547" y2="658" style="stroke:black;stroke-width:2" />
    <line x1="547" y1="658" x2="547" y2="640" style="stroke:black;stroke-width:2" />
    <line x1="547" y1="640" x2="531" y2="649" style="stroke:black;stroke-width:2" />
    <line x1="531" y1="668" x2="271" y2="518" style="stroke:black;stroke-width:2" />
    <line x1="531" y1="368" x2="661" y2="143" style="stroke:black;stroke-width:2" />
    <line x1="661" y1="143" x2="726" y2="255" style="stroke:black;stroke-width:2" />
    <line x1="726" y1="255" x2="759" y2="199" style="stroke:black;stroke-width:2" />
    <line x1="759" y1="199" x2="775" y2="227" style="stroke:black;stroke-width:2" />
    <line x1="775" y1="227" x2="783" y2="213" style="stroke:black;stroke-width:2" />
    <line x1="531" y1="68" x2="791" y2="-82" style="stroke:black;stroke-width:2" />
    <line x1="791" y1="-82" x2="791" y2="218" style="stroke:black;stroke-width:2" />
    <line x1="531" y1="68" x2="531" y2="-232" style="stroke:black;stroke-width:2" />
    <line x1="531" y1="-232" x2="791" y2="-82" style="stroke:black;stroke-width:2" />
    <line x1="791" y1="-82" x2="531" y2="68" style="stroke:black;stroke-width:2" />
    <line x1="531" y1="68" x2="531" y2="-232" style="stroke:black;stroke-width:2" />
    <line x1="531" y1="-232" x2="271" y2="-82" style="stroke:black;stroke-width:2" />
    <line x1="271" y1="-82" x2="12" y2="68" style="stroke:black;stroke-width:2" />
    <line x1="12" y1="68" x2="271" y2="218" style="stroke:black;stroke-width:2" />
    <line x1="271" y1="218" x2="12" y2="368" style="stroke:black;stroke-width:2" />
    <line x1="12" y1="368" x2="271" y2="518" style="stroke:black;stroke-width:2" />
    <line x1="271" y1="368" x2="142" y2="293" style="stroke:black;stroke-width:2" />
    <line x1="142" y1="293" x2="142" y2="443" style="stroke:black;stroke-width:2" />
    <line x1="142" y1="443" x2="271" y2="368" style="stroke:black;stroke-width:2" />
    <line x1="12" y1="68" x2="12" y2="368" style="stroke:black;stroke-width:2" />
    <line x1="12" y1="368" x2="12" y2="668" style="stroke:black;stroke-width:2" />
    <line x1="12" y1="668" x2="271" y2="518" style="stroke:black;stroke-width:2" />
    <line x1="271" y1="518" x2="271" y2="818" style="stroke:black;stroke-width:2" />
</svg>