<svg width="1363" height="671" viewbox = "0 0 1363 671"  xmlns="http://www.w3.org/2000/svg">

<!--
<json>
{
    "glyph": "0336,0330,0330,0330,0332,0330,0332,0330,0332,0330,0332,0330,0332,0332,0331,0332,0604,0333,0333,0331,0333,0330,0333,0117,0123,0103,0111,0114,0114,0101,0124,0117,0122,0365,0331,0331,0333,0333,0333,0600,0331,0601,0337,0331,0331,0241,",
    "unit": 100,
    "x0": 683,
    "y0": 400,
    "x0rel": 0.015,
    "y0rel": 0.645,
    "imgurl": "",
    "imgw": 2,
    "imgleft": -1.5,
    "imgtop": -1
}
</json>
-->
    <text x="533" y = "100" fill = "#000000" font-size = "50px" font-family = "futura">OSCILLATOR</text>
    <circle cx="583" cy = "550" r = "3.125" stroke = "#000000" stroke-width = "2" fill = "none" />
    <circle cx="583" cy = "538" r = "3.125" stroke = "#000000" stroke-width = "2" fill = "none" />
    <circle cx="583" cy = "525" r = "3.125" stroke = "#000000" stroke-width = "2" fill = "none" />
    <circle cx="583" cy = "513" r = "3.125" stroke = "#000000" stroke-width = "2" fill = "none" />
    <circle cx="583" cy = "500" r = "3.125" stroke = "#000000" stroke-width = "2" fill = "none" />
    <circle cx="583" cy = "488" r = "3.125" stroke = "#000000" stroke-width = "2" fill = "none" />
    <circle cx="583" cy = "475" r = "3.125" stroke = "#000000" stroke-width = "2" fill = "none" />
    <circle cx="583" cy = "463" r = "3.125" stroke = "#000000" stroke-width = "2" fill = "none" />
    <circle cx="583" cy = "450" r = "3.125" stroke = "#000000" stroke-width = "2" fill = "none" />
    <circle cx="583" cy = "438" r = "3.125" stroke = "#000000" stroke-width = "2" fill = "none" />
    <line x1="583" y1="431" x2="589" y2="431" style="stroke:#000000;stroke-width:2" />
    <line x1="589" y1="431" x2="589" y2="481" style="stroke:#000000;stroke-width:2" />
    <line x1="589" y1="481" x2="589" y2="531" style="stroke:#000000;stroke-width:2" />
    <line x1="589" y1="531" x2="589" y2="556" style="stroke:#000000;stroke-width:2" />
    <line x1="589" y1="556" x2="577" y2="556" style="stroke:#000000;stroke-width:2" />
    <line x1="577" y1="556" x2="577" y2="506" style="stroke:#000000;stroke-width:2" />
    <line x1="577" y1="506" x2="577" y2="456" style="stroke:#000000;stroke-width:2" />
    <line x1="577" y1="456" x2="577" y2="431" style="stroke:#000000;stroke-width:2" />
    <line x1="577" y1="431" x2="583" y2="431" style="stroke:#000000;stroke-width:2" />
    <circle cx="583" cy = "406" r = "3.125" stroke = "#000000" stroke-width = "2" fill = "none" />
    <circle cx="583" cy = "394" r = "3.125" stroke = "#000000" stroke-width = "2" fill = "none" />
    <circle cx="583" cy = "381" r = "3.125" stroke = "#000000" stroke-width = "2" fill = "none" />
    <circle cx="583" cy = "369" r = "3.125" stroke = "#000000" stroke-width = "2" fill = "none" />
    <circle cx="583" cy = "356" r = "3.125" stroke = "#000000" stroke-width = "2" fill = "none" />
    <circle cx="583" cy = "344" r = "3.125" stroke = "#000000" stroke-width = "2" fill = "none" />
    <circle cx="583" cy = "331" r = "3.125" stroke = "#000000" stroke-width = "2" fill = "none" />
    <circle cx="583" cy = "319" r = "3.125" stroke = "#000000" stroke-width = "2" fill = "none" />
    <line x1="583" y1="313" x2="589" y2="313" style="stroke:#000000;stroke-width:2" />
    <line x1="589" y1="313" x2="589" y2="363" style="stroke:#000000;stroke-width:2" />
    <line x1="589" y1="363" x2="589" y2="413" style="stroke:#000000;stroke-width:2" />
    <line x1="589" y1="413" x2="577" y2="413" style="stroke:#000000;stroke-width:2" />
    <line x1="577" y1="413" x2="577" y2="363" style="stroke:#000000;stroke-width:2" />
    <line x1="577" y1="363" x2="577" y2="313" style="stroke:#000000;stroke-width:2" />
    <line x1="577" y1="313" x2="583" y2="313" style="stroke:#000000;stroke-width:2" />
    <circle cx="883" cy = "312" r = "3.125" stroke = "#000000" stroke-width = "2" fill = "none" />
    <circle cx="883" cy = "325" r = "3.125" stroke = "#000000" stroke-width = "2" fill = "none" />
    <circle cx="883" cy = "337" r = "3.125" stroke = "#000000" stroke-width = "2" fill = "none" />
    <circle cx="883" cy = "350" r = "3.125" stroke = "#000000" stroke-width = "2" fill = "none" />
    <circle cx="883" cy = "362" r = "3.125" stroke = "#000000" stroke-width = "2" fill = "none" />
    <circle cx="883" cy = "375" r = "3.125" stroke = "#000000" stroke-width = "2" fill = "none" />
    <line x1="883" y1="381" x2="877" y2="381" style="stroke:#000000;stroke-width:2" />
    <line x1="877" y1="381" x2="877" y2="331" style="stroke:#000000;stroke-width:2" />
    <line x1="877" y1="331" x2="877" y2="306" style="stroke:#000000;stroke-width:2" />
    <line x1="877" y1="306" x2="889" y2="306" style="stroke:#000000;stroke-width:2" />
    <line x1="889" y1="306" x2="889" y2="356" style="stroke:#000000;stroke-width:2" />
    <line x1="889" y1="356" x2="889" y2="381" style="stroke:#000000;stroke-width:2" />
    <line x1="889" y1="381" x2="883" y2="381" style="stroke:#000000;stroke-width:2" />
    <circle cx="883" cy = "406" r = "3.125" stroke = "#000000" stroke-width = "2" fill = "none" />
    <circle cx="883" cy = "419" r = "3.125" stroke = "#000000" stroke-width = "2" fill = "none" />
    <circle cx="883" cy = "431" r = "3.125" stroke = "#000000" stroke-width = "2" fill = "none" />
    <circle cx="883" cy = "444" r = "3.125" stroke = "#000000" stroke-width = "2" fill = "none" />
    <circle cx="883" cy = "456" r = "3.125" stroke = "#000000" stroke-width = "2" fill = "none" />
    <circle cx="883" cy = "469" r = "3.125" stroke = "#000000" stroke-width = "2" fill = "none" />
    <circle cx="883" cy = "481" r = "3.125" stroke = "#000000" stroke-width = "2" fill = "none" />
    <circle cx="883" cy = "494" r = "3.125" stroke = "#000000" stroke-width = "2" fill = "none" />
    <line x1="883" y1="500" x2="877" y2="500" style="stroke:#000000;stroke-width:2" />
    <line x1="877" y1="500" x2="877" y2="450" style="stroke:#000000;stroke-width:2" />
    <line x1="877" y1="450" x2="877" y2="400" style="stroke:#000000;stroke-width:2" />
    <line x1="877" y1="400" x2="889" y2="400" style="stroke:#000000;stroke-width:2" />
    <line x1="889" y1="400" x2="889" y2="450" style="stroke:#000000;stroke-width:2" />
    <line x1="889" y1="450" x2="889" y2="500" style="stroke:#000000;stroke-width:2" />
    <line x1="889" y1="500" x2="883" y2="500" style="stroke:#000000;stroke-width:2" />
    <line x1="583" y1="394" x2="608" y2="394" style="stroke:#000000;stroke-width:2" />
    <line x1="608" y1="394" x2="633" y2="394" style="stroke:#000000;stroke-width:2" />
    <line x1="633" y1="394" x2="633" y2="397" style="stroke:#000000;stroke-width:2" />
    <line x1="633" y1="397" x2="639" y2="400" style="stroke:#000000;stroke-width:2" />
    <line x1="639" y1="400" x2="627" y2="408" style="stroke:#000000;stroke-width:2" />
    <line x1="627" y1="408" x2="639" y2="415" style="stroke:#000000;stroke-width:2" />
    <line x1="639" y1="415" x2="627" y2="422" style="stroke:#000000;stroke-width:2" />
    <line x1="627" y1="422" x2="639" y2="429" style="stroke:#000000;stroke-width:2" />
    <line x1="639" y1="429" x2="627" y2="437" style="stroke:#000000;stroke-width:2" />
    <line x1="627" y1="437" x2="633" y2="440" style="stroke:#000000;stroke-width:2" />
    <line x1="633" y1="440" x2="633" y2="443" style="stroke:#000000;stroke-width:2" />
    <line x1="633" y1="443" x2="639" y2="443" style="stroke:#000000;stroke-width:2" />
    <line x1="639" y1="443" x2="633" y2="450" style="stroke:#000000;stroke-width:2" />
    <line x1="633" y1="450" x2="627" y2="443" style="stroke:#000000;stroke-width:2" />
    <line x1="627" y1="443" x2="633" y2="443" style="stroke:#000000;stroke-width:2" />
    <line x1="633" y1="393" x2="658" y2="393" style="stroke:#000000;stroke-width:2" />
    <line x1="708" y1="418" x2="708" y2="406" style="stroke:#000000;stroke-width:2" />
    <line x1="721" y1="406" x2="721" y2="381" style="stroke:#000000;stroke-width:2" />
    <line x1="721" y1="381" x2="696" y2="381" style="stroke:#000000;stroke-width:2" />
    <line x1="696" y1="381" x2="696" y2="406" style="stroke:#000000;stroke-width:2" />
    <line x1="696" y1="406" x2="721" y2="406" style="stroke:#000000;stroke-width:2" />
    <line x1="708" y1="381" x2="708" y2="368" style="stroke:#000000;stroke-width:2" />
    <line x1="696" y1="406" x2="721" y2="381" style="stroke:#000000;stroke-width:2" />
    <line x1="721" y1="406" x2="696" y2="381" style="stroke:#000000;stroke-width:2" />
    <line x1="689" y1="400" x2="689" y2="387" style="stroke:#000000;stroke-width:2" />
    <line x1="689" y1="393" x2="677" y2="393" style="stroke:#000000;stroke-width:2" />
    <line x1="677" y1="393" x2="671" y2="393" style="stroke:#000000;stroke-width:2" />
    <line x1="671" y1="393" x2="664" y2="393" style="stroke:#000000;stroke-width:2" />
    <line x1="664" y1="393" x2="658" y2="393" style="stroke:#000000;stroke-width:2" />
    <line x1="708" y1="368" x2="708" y2="362" style="stroke:#000000;stroke-width:2" />
    <line x1="708" y1="362" x2="708" y2="350" style="stroke:#000000;stroke-width:2" />
	<path d = "M708 350 L696 350 L708 337 L721 350 L708 350 Z" stroke = "#000000" stroke-width = "2" fill = "#000000" />	<path d = "M708 337 L720 337 L720 335 L708 335 L695 335 L695 337 L708 337 Z" stroke = "#000000" stroke-width = "2" fill = "#000000" />    <line x1="708" y1="350" x2="708" y2="337" style="stroke:#000000;stroke-width:2" />
    <line x1="708" y1="337" x2="708" y2="325" style="stroke:#000000;stroke-width:2" />
    <line x1="708" y1="325" x2="708" y2="318" style="stroke:#000000;stroke-width:2" />
<circle cx="708" cy = "368" r = "3" stroke = "#000000" stroke-width = "2" fill = "#000000" />
<circle cx="708" cy = "318" r = "3" stroke = "#000000" stroke-width = "2" fill = "#000000" />
    <line x1="733" y1="318" x2="733" y2="331" style="stroke:#000000;stroke-width:2" />
    <line x1="733" y1="331" x2="745" y2="331" style="stroke:#000000;stroke-width:2" />
    <circle cx="749" cy = "331" r = "3.125" stroke = "#000000" stroke-width = "2" fill = "none" />
    <circle cx="749" cy = "356" r = "3.125" stroke = "#000000" stroke-width = "2" fill = "none" />
    <line x1="746" y1="356" x2="733" y2="356" style="stroke:#000000;stroke-width:2" />
    <line x1="733" y1="356" x2="733" y2="368" style="stroke:#000000;stroke-width:2" />
    <line x1="739" y1="325" x2="739" y2="337" style="stroke:green;stroke-width:2" />
    <line x1="739" y1="337" x2="739" y2="350" style="stroke:green;stroke-width:2" />
    <line x1="739" y1="350" x2="739" y2="362" style="stroke:green;stroke-width:2" />
    <line x1="739" y1="362" x2="752" y2="362" style="stroke:green;stroke-width:2" />
    <line x1="752" y1="362" x2="764" y2="362" style="stroke:green;stroke-width:2" />
    <line x1="764" y1="362" x2="764" y2="350" style="stroke:green;stroke-width:2" />
    <line x1="764" y1="350" x2="764" y2="337" style="stroke:green;stroke-width:2" />
    <line x1="764" y1="337" x2="764" y2="325" style="stroke:green;stroke-width:2" />
    <line x1="764" y1="325" x2="752" y2="325" style="stroke:green;stroke-width:2" />
    <line x1="752" y1="325" x2="739" y2="325" style="stroke:green;stroke-width:2" />
    <line x1="733" y1="368" x2="708" y2="368" style="stroke:black;stroke-width:2" />
    <line x1="733" y1="318" x2="708" y2="318" style="stroke:black;stroke-width:2" />
    <line x1="708" y1="318" x2="708" y2="293" style="stroke:black;stroke-width:2" />
    <line x1="708" y1="293" x2="808" y2="293" style="stroke:black;stroke-width:2" />
    <line x1="808" y1="293" x2="808" y2="393" style="stroke:black;stroke-width:2" />
    <line x1="808" y1="393" x2="808" y2="406" style="stroke:black;stroke-width:2" />
    <line x1="808" y1="406" x2="833" y2="406" style="stroke:black;stroke-width:2" />
    <line x1="833" y1="406" x2="858" y2="406" style="stroke:black;stroke-width:2" />
    <line x1="858" y1="406" x2="883" y2="406" style="stroke:black;stroke-width:2" />
    <line x1="708" y1="418" x2="714" y2="418" style="stroke:black;stroke-width:2" />
    <line x1="714" y1="418" x2="708" y2="425" style="stroke:black;stroke-width:2" />
    <line x1="708" y1="425" x2="702" y2="418" style="stroke:black;stroke-width:2" />
    <line x1="702" y1="418" x2="708" y2="418" style="stroke:black;stroke-width:2" />
<circle cx="808" cy = "406" r = "3" stroke = "black" stroke-width = "2" fill = "black" />
    <line x1="808" y1="406" x2="808" y2="456" style="stroke:black;stroke-width:2" />
    <line x1="808" y1="456" x2="796" y2="456" style="stroke:black;stroke-width:2" />
    <line x1="796" y1="456" x2="796" y2="468" style="stroke:black;stroke-width:2" />
    <circle cx="796" cy = "471" r = "3.125" stroke = "black" stroke-width = "2" fill = "none" />
    <circle cx="771" cy = "471" r = "3.125" stroke = "black" stroke-width = "2" fill = "none" />
    <line x1="771" y1="468" x2="771" y2="456" style="stroke:black;stroke-width:2" />
    <line x1="771" y1="456" x2="758" y2="456" style="stroke:black;stroke-width:2" />
    <line x1="802" y1="462" x2="789" y2="462" style="stroke:green;stroke-width:2" />
    <line x1="789" y1="462" x2="777" y2="462" style="stroke:green;stroke-width:2" />
    <line x1="777" y1="462" x2="764" y2="462" style="stroke:green;stroke-width:2" />
    <line x1="764" y1="462" x2="764" y2="475" style="stroke:green;stroke-width:2" />
    <line x1="764" y1="475" x2="764" y2="487" style="stroke:green;stroke-width:2" />
    <line x1="764" y1="487" x2="777" y2="487" style="stroke:green;stroke-width:2" />
    <line x1="777" y1="487" x2="789" y2="487" style="stroke:green;stroke-width:2" />
    <line x1="789" y1="487" x2="802" y2="487" style="stroke:green;stroke-width:2" />
    <line x1="802" y1="487" x2="802" y2="475" style="stroke:green;stroke-width:2" />
    <line x1="802" y1="475" x2="802" y2="462" style="stroke:green;stroke-width:2" />
    <line x1="758" y1="456" x2="708" y2="456" style="stroke:black;stroke-width:2" />
    <line x1="708" y1="481" x2="708" y2="456" style="stroke:black;stroke-width:2" />
    <line x1="708" y1="481" x2="714" y2="481" style="stroke:black;stroke-width:2" />
    <line x1="714" y1="481" x2="708" y2="487" style="stroke:black;stroke-width:2" />
    <line x1="708" y1="487" x2="702" y2="481" style="stroke:black;stroke-width:2" />
    <line x1="702" y1="481" x2="708" y2="481" style="stroke:black;stroke-width:2" />
    <line x1="883" y1="443" x2="908" y2="443" style="stroke:red;stroke-width:2" />
    <line x1="908" y1="443" x2="908" y2="393" style="stroke:red;stroke-width:2" />
    <line x1="908" y1="393" x2="908" y2="343" style="stroke:red;stroke-width:2" />
    <line x1="908" y1="343" x2="908" y2="293" style="stroke:red;stroke-width:2" />
    <line x1="908" y1="293" x2="908" y2="243" style="stroke:red;stroke-width:2" />
    <line x1="908" y1="243" x2="908" y2="193" style="stroke:red;stroke-width:2" />
    <line x1="908" y1="193" x2="858" y2="193" style="stroke:red;stroke-width:2" />
    <line x1="858" y1="193" x2="808" y2="193" style="stroke:red;stroke-width:2" />
    <line x1="808" y1="193" x2="758" y2="193" style="stroke:red;stroke-width:2" />
    <line x1="758" y1="243" x2="758" y2="240" style="stroke:black;stroke-width:2" />
    <line x1="758" y1="240" x2="752" y2="237" style="stroke:black;stroke-width:2" />
    <line x1="752" y1="237" x2="764" y2="229" style="stroke:black;stroke-width:2" />
    <line x1="764" y1="229" x2="752" y2="222" style="stroke:black;stroke-width:2" />
    <line x1="752" y1="222" x2="764" y2="215" style="stroke:black;stroke-width:2" />
    <line x1="764" y1="215" x2="752" y2="208" style="stroke:black;stroke-width:2" />
    <line x1="752" y1="208" x2="764" y2="200" style="stroke:black;stroke-width:2" />
    <line x1="764" y1="200" x2="758" y2="197" style="stroke:black;stroke-width:2" />
    <line x1="758" y1="197" x2="758" y2="194" style="stroke:black;stroke-width:2" />
	<path d = "M764 219 L769 214 L769 219 L769 223 L764 219 Z" stroke = "black" stroke-width = "2" fill = "black" />    <line x1="764" y1="219" x2="777" y2="219" style="stroke:black;stroke-width:2" />
    <line x1="758" y1="244" x2="764" y2="244" style="stroke:black;stroke-width:2" />
    <line x1="764" y1="244" x2="758" y2="250" style="stroke:black;stroke-width:2" />
    <line x1="758" y1="250" x2="752" y2="244" style="stroke:black;stroke-width:2" />
    <line x1="752" y1="244" x2="758" y2="244" style="stroke:black;stroke-width:2" />
    <line x1="777" y1="219" x2="802" y2="219" style="stroke:black;stroke-width:2" />
    <line x1="802" y1="219" x2="827" y2="219" style="stroke:black;stroke-width:2" />
    <line x1="827" y1="219" x2="827" y2="244" style="stroke:black;stroke-width:2" />
    <line x1="827" y1="244" x2="827" y2="269" style="stroke:black;stroke-width:2" />
    <line x1="827" y1="269" x2="827" y2="294" style="stroke:black;stroke-width:2" />
    <line x1="827" y1="294" x2="827" y2="319" style="stroke:black;stroke-width:2" />
    <line x1="827" y1="319" x2="827" y2="344" style="stroke:black;stroke-width:2" />
    <line x1="827" y1="344" x2="827" y2="350" style="stroke:black;stroke-width:2" />
    <line x1="827" y1="350" x2="852" y2="350" style="stroke:black;stroke-width:2" />
    <line x1="852" y1="350" x2="877" y2="350" style="stroke:black;stroke-width:2" />
    <line x1="877" y1="350" x2="883" y2="350" style="stroke:black;stroke-width:2" />
    <line x1="583" y1="344" x2="633" y2="344" style="stroke:black;stroke-width:2" />
    <line x1="633" y1="344" x2="633" y2="294" style="stroke:black;stroke-width:2" />
    <line x1="633" y1="294" x2="633" y2="244" style="stroke:black;stroke-width:2" />
    <line x1="633" y1="244" x2="633" y2="227" style="stroke:black;stroke-width:2" />
    <line x1="633" y1="210" x2="633" y2="194" style="stroke:black;stroke-width:2" />
    <line x1="627" y1="206" x2="627" y2="231" style="stroke:black;stroke-width:2" />
    <line x1="627" y1="219" x2="614" y2="219" style="stroke:black;stroke-width:2" />
    <circle cx="611" cy = "219" r = "3.124999999999999" stroke = "black" stroke-width = "2" fill = "none" />
    <line x1="633" y1="194" x2="683" y2="194" style="stroke:red;stroke-width:2" />
    <line x1="683" y1="194" x2="733" y2="194" style="stroke:red;stroke-width:2" />
    <line x1="733" y1="194" x2="783" y2="194" style="stroke:red;stroke-width:2" />
<circle cx="633" cy = "394" r = "3" stroke = "black" stroke-width = "2" fill = "black" />
<circle cx="633" cy = "269" r = "3" stroke = "black" stroke-width = "2" fill = "black" />
    <line x1="633" y1="269" x2="583" y2="269" style="stroke:black;stroke-width:2" />
    <line x1="583" y1="269" x2="533" y2="269" style="stroke:black;stroke-width:2" />
    <line x1="533" y1="269" x2="483" y2="269" style="stroke:black;stroke-width:2" />
    <line x1="483" y1="269" x2="483" y2="272" style="stroke:black;stroke-width:2" />
    <line x1="483" y1="272" x2="489" y2="275" style="stroke:black;stroke-width:2" />
    <line x1="489" y1="275" x2="477" y2="283" style="stroke:black;stroke-width:2" />
    <line x1="477" y1="283" x2="489" y2="290" style="stroke:black;stroke-width:2" />
    <line x1="489" y1="290" x2="477" y2="297" style="stroke:black;stroke-width:2" />
    <line x1="477" y1="297" x2="489" y2="304" style="stroke:black;stroke-width:2" />
    <line x1="489" y1="304" x2="477" y2="312" style="stroke:black;stroke-width:2" />
    <line x1="477" y1="312" x2="483" y2="315" style="stroke:black;stroke-width:2" />
    <line x1="483" y1="315" x2="483" y2="318" style="stroke:black;stroke-width:2" />
    <line x1="483" y1="318" x2="489" y2="318" style="stroke:black;stroke-width:2" />
    <line x1="489" y1="318" x2="483" y2="325" style="stroke:black;stroke-width:2" />
    <line x1="483" y1="325" x2="477" y2="318" style="stroke:black;stroke-width:2" />
    <line x1="477" y1="318" x2="483" y2="318" style="stroke:black;stroke-width:2" />
    <line x1="683" y1="193" x2="683" y2="210" style="stroke:black;stroke-width:2" />
    <line x1="683" y1="210" x2="666" y2="210" style="stroke:black;stroke-width:2" />
    <line x1="683" y1="210" x2="700" y2="210" style="stroke:black;stroke-width:2" />
    <line x1="683" y1="227" x2="700" y2="227" style="stroke:black;stroke-width:2" />
    <line x1="683" y1="227" x2="666" y2="227" style="stroke:black;stroke-width:2" />
    <line x1="683" y1="227" x2="683" y2="243" style="stroke:black;stroke-width:2" />
    <line x1="683" y1="243" x2="689" y2="243" style="stroke:black;stroke-width:2" />
    <line x1="689" y1="243" x2="683" y2="250" style="stroke:black;stroke-width:2" />
    <line x1="683" y1="250" x2="677" y2="243" style="stroke:black;stroke-width:2" />
    <line x1="677" y1="243" x2="683" y2="243" style="stroke:black;stroke-width:2" />
<circle cx="683" cy = "193" r = "3" stroke = "black" stroke-width = "2" fill = "black" />
    <circle cx="633" cy = "143" r = "3.124999999999999" stroke = "black" stroke-width = "2" fill = "none" />
    <circle cx="645" cy = "143" r = "3.124999999999999" stroke = "black" stroke-width = "2" fill = "none" />
    <circle cx="658" cy = "143" r = "3.124999999999999" stroke = "black" stroke-width = "2" fill = "none" />
    <circle cx="670" cy = "143" r = "3.124999999999999" stroke = "black" stroke-width = "2" fill = "none" />
    <line x1="677" y1="143" x2="677" y2="150" style="stroke:black;stroke-width:2" />
    <line x1="677" y1="150" x2="627" y2="150" style="stroke:black;stroke-width:2" />
    <line x1="627" y1="150" x2="627" y2="137" style="stroke:black;stroke-width:2" />
    <line x1="627" y1="137" x2="639" y2="137" style="stroke:black;stroke-width:2" />
    <line x1="639" y1="137" x2="652" y2="137" style="stroke:black;stroke-width:2" />
    <line x1="652" y1="137" x2="664" y2="137" style="stroke:black;stroke-width:2" />
    <line x1="664" y1="137" x2="677" y2="137" style="stroke:black;stroke-width:2" />
    <line x1="677" y1="137" x2="677" y2="143" style="stroke:black;stroke-width:2" />
    <line x1="670" y1="143" x2="670" y2="168" style="stroke:black;stroke-width:2" />
    <line x1="633" y1="143" x2="633" y2="168" style="stroke:black;stroke-width:2" />
    <line x1="633" y1="168" x2="639" y2="168" style="stroke:black;stroke-width:2" />
    <line x1="639" y1="168" x2="633" y2="175" style="stroke:black;stroke-width:2" />
    <line x1="633" y1="175" x2="627" y2="168" style="stroke:black;stroke-width:2" />
    <line x1="627" y1="168" x2="633" y2="168" style="stroke:black;stroke-width:2" />
    <line x1="670" y1="168" x2="677" y2="168" style="stroke:black;stroke-width:2" />
    <line x1="677" y1="168" x2="670" y2="175" style="stroke:black;stroke-width:2" />
    <line x1="670" y1="175" x2="664" y2="168" style="stroke:black;stroke-width:2" />
    <line x1="664" y1="168" x2="670" y2="168" style="stroke:black;stroke-width:2" />
    <line x1="658" y1="193" x2="658" y2="143" style="stroke:red;stroke-width:2" />
    <line x1="645" y1="143" x2="645" y2="168" style="stroke:blue;stroke-width:2" />
    <line x1="645" y1="168" x2="645" y2="181" style="stroke:blue;stroke-width:2" />
    <line x1="645" y1="181" x2="645" y2="187" style="stroke:blue;stroke-width:2" />
    <line x1="645" y1="200" x2="645" y2="225" style="stroke:blue;stroke-width:2" />
    <line x1="645" y1="225" x2="645" y2="250" style="stroke:blue;stroke-width:2" />
    <line x1="645" y1="250" x2="646" y2="275" style="stroke:blue;stroke-width:2" />
    <line x1="646" y1="275" x2="646" y2="300" style="stroke:blue;stroke-width:2" />
    <line x1="646" y1="300" x2="646" y2="325" style="stroke:blue;stroke-width:2" />
    <line x1="646" y1="325" x2="646" y2="328" style="stroke:blue;stroke-width:2" />
    <line x1="646" y1="328" x2="652" y2="331" style="stroke:blue;stroke-width:2" />
    <line x1="652" y1="331" x2="639" y2="339" style="stroke:blue;stroke-width:2" />
    <line x1="639" y1="339" x2="652" y2="346" style="stroke:blue;stroke-width:2" />
    <line x1="652" y1="346" x2="639" y2="353" style="stroke:blue;stroke-width:2" />
    <line x1="639" y1="353" x2="652" y2="360" style="stroke:blue;stroke-width:2" />
    <line x1="652" y1="360" x2="639" y2="367" style="stroke:blue;stroke-width:2" />
    <line x1="639" y1="367" x2="646" y2="371" style="stroke:blue;stroke-width:2" />
    <line x1="646" y1="371" x2="646" y2="374" style="stroke:blue;stroke-width:2" />
    <line x1="646" y1="374" x2="621" y2="374" style="stroke:blue;stroke-width:2" />
    <line x1="621" y1="374" x2="608" y2="374" style="stroke:blue;stroke-width:2" />
    <line x1="608" y1="374" x2="608" y2="387" style="stroke:blue;stroke-width:2" />
    <line x1="608" y1="399" x2="608" y2="412" style="stroke:blue;stroke-width:2" />
    <line x1="608" y1="412" x2="608" y2="424" style="stroke:blue;stroke-width:2" />
    <line x1="608" y1="424" x2="608" y2="437" style="stroke:blue;stroke-width:2" />
    <line x1="608" y1="437" x2="608" y2="449" style="stroke:blue;stroke-width:2" />
    <line x1="608" y1="449" x2="596" y2="449" style="stroke:blue;stroke-width:2" />
    <line x1="596" y1="449" x2="583" y2="449" style="stroke:blue;stroke-width:2" />
    <text x="658" y = "362" fill = "blue" font-size = "12.499999999999996px" font-family = "futura">300</text>
    <text x="646" y = "437" fill = "black" font-size = "12.499999999999996px" font-family = "futura">10k</text>
    <text x="496" y = "312" fill = "black" font-size = "12.499999999999996px" font-family = "futura">10k</text>
    <text x="783" y = "212" fill = "black" font-size = "12.499999999999996px" font-family = "futura">20k</text>
    <text x="702" y = "237" fill = "black" font-size = "12.499999999999996px" font-family = "futura">1000uF</text>
    <line x1="883" y1="376" x2="896" y2="376" style="stroke:black;stroke-width:2" />
    <line x1="896" y1="376" x2="902" y2="376" style="stroke:black;stroke-width:2" />
    <line x1="914" y1="376" x2="927" y2="376" style="stroke:black;stroke-width:2" />
    <line x1="927" y1="376" x2="939" y2="376" style="stroke:black;stroke-width:2" />
    <line x1="939" y1="376" x2="939" y2="363" style="stroke:black;stroke-width:2" />
    <circle cx="939" cy = "360" r = "3.124999999999999" stroke = "black" stroke-width = "2" fill = "none" />
    <circle cx="964" cy = "360" r = "3.124999999999999" stroke = "black" stroke-width = "2" fill = "none" />
    <line x1="964" y1="363" x2="964" y2="376" style="stroke:black;stroke-width:2" />
    <line x1="964" y1="376" x2="977" y2="376" style="stroke:black;stroke-width:2" />
    <line x1="933" y1="369" x2="946" y2="369" style="stroke:green;stroke-width:2" />
    <line x1="946" y1="369" x2="958" y2="369" style="stroke:green;stroke-width:2" />
    <line x1="958" y1="369" x2="971" y2="369" style="stroke:green;stroke-width:2" />
    <line x1="971" y1="369" x2="971" y2="357" style="stroke:green;stroke-width:2" />
    <line x1="971" y1="357" x2="971" y2="344" style="stroke:green;stroke-width:2" />
    <line x1="971" y1="344" x2="958" y2="344" style="stroke:green;stroke-width:2" />
    <line x1="958" y1="344" x2="946" y2="344" style="stroke:green;stroke-width:2" />
    <line x1="946" y1="344" x2="933" y2="344" style="stroke:green;stroke-width:2" />
    <line x1="933" y1="344" x2="933" y2="357" style="stroke:green;stroke-width:2" />
    <line x1="933" y1="357" x2="933" y2="369" style="stroke:green;stroke-width:2" />
    <line x1="977" y1="376" x2="1002" y2="376" style="stroke:black;stroke-width:2" />
<circle cx="1002" cy = "376" r = "3" stroke = "black" stroke-width = "2" fill = "black" />
    <line x1="1002" y1="376" x2="1002" y2="373" style="stroke:black;stroke-width:2" />
    <line x1="1002" y1="373" x2="996" y2="369" style="stroke:black;stroke-width:2" />
    <line x1="996" y1="369" x2="1008" y2="362" style="stroke:black;stroke-width:2" />
    <line x1="1008" y1="362" x2="996" y2="354" style="stroke:black;stroke-width:2" />
    <line x1="996" y1="354" x2="1008" y2="347" style="stroke:black;stroke-width:2" />
    <line x1="1008" y1="347" x2="996" y2="340" style="stroke:black;stroke-width:2" />
    <line x1="996" y1="340" x2="1008" y2="333" style="stroke:black;stroke-width:2" />
    <line x1="1008" y1="333" x2="1002" y2="329" style="stroke:black;stroke-width:2" />
    <line x1="1002" y1="329" x2="1002" y2="326" style="stroke:black;stroke-width:2" />
    <line x1="1002" y1="376" x2="1002" y2="379" style="stroke:black;stroke-width:2" />
    <line x1="1002" y1="379" x2="1008" y2="383" style="stroke:black;stroke-width:2" />
    <line x1="1008" y1="383" x2="996" y2="390" style="stroke:black;stroke-width:2" />
    <line x1="996" y1="390" x2="1008" y2="397" style="stroke:black;stroke-width:2" />
    <line x1="1008" y1="397" x2="996" y2="404" style="stroke:black;stroke-width:2" />
    <line x1="996" y1="404" x2="1008" y2="412" style="stroke:black;stroke-width:2" />
    <line x1="1008" y1="412" x2="996" y2="419" style="stroke:black;stroke-width:2" />
    <line x1="996" y1="419" x2="1002" y2="423" style="stroke:black;stroke-width:2" />
    <line x1="1002" y1="423" x2="1002" y2="426" style="stroke:black;stroke-width:2" />
    <line x1="1002" y1="426" x2="1008" y2="426" style="stroke:black;stroke-width:2" />
    <line x1="1008" y1="426" x2="1002" y2="432" style="stroke:black;stroke-width:2" />
    <line x1="1002" y1="432" x2="996" y2="426" style="stroke:black;stroke-width:2" />
    <line x1="996" y1="426" x2="1002" y2="426" style="stroke:black;stroke-width:2" />
    <line x1="1002" y1="326" x2="1002" y2="276" style="stroke:red;stroke-width:2" />
    <line x1="1002" y1="276" x2="952" y2="276" style="stroke:red;stroke-width:2" />
    <line x1="952" y1="276" x2="927" y2="276" style="stroke:red;stroke-width:2" />
    <line x1="927" y1="276" x2="914" y2="276" style="stroke:red;stroke-width:2" />
    <line x1="914" y1="276" x2="908" y2="276" style="stroke:red;stroke-width:2" />
<circle cx="908" cy = "276" r = "3" stroke = "red" stroke-width = "2" fill = "red" />
    <circle cx="883" cy = "176" r = "3.124999999999999" stroke = "black" stroke-width = "2" fill = "none" />
    <circle cx="870" cy = "176" r = "3.124999999999999" stroke = "black" stroke-width = "2" fill = "none" />
    <circle cx="858" cy = "176" r = "3.124999999999999" stroke = "black" stroke-width = "2" fill = "none" />
    <circle cx="845" cy = "176" r = "3.124999999999999" stroke = "black" stroke-width = "2" fill = "none" />
    <line x1="839" y1="176" x2="839" y2="169" style="stroke:black;stroke-width:2" />
    <line x1="839" y1="169" x2="889" y2="169" style="stroke:black;stroke-width:2" />
    <line x1="889" y1="169" x2="889" y2="182" style="stroke:black;stroke-width:2" />
    <line x1="889" y1="182" x2="877" y2="182" style="stroke:black;stroke-width:2" />
    <line x1="877" y1="182" x2="864" y2="182" style="stroke:black;stroke-width:2" />
    <line x1="864" y1="182" x2="852" y2="182" style="stroke:black;stroke-width:2" />
    <line x1="852" y1="182" x2="839" y2="182" style="stroke:black;stroke-width:2" />
    <line x1="839" y1="182" x2="839" y2="176" style="stroke:black;stroke-width:2" />
    <line x1="845" y1="176" x2="845" y2="201" style="stroke:black;stroke-width:2" />
    <line x1="845" y1="201" x2="845" y2="226" style="stroke:black;stroke-width:2" />
    <line x1="845" y1="226" x2="845" y2="251" style="stroke:black;stroke-width:2" />
    <line x1="845" y1="251" x2="845" y2="276" style="stroke:black;stroke-width:2" />
    <line x1="845" y1="276" x2="846" y2="301" style="stroke:black;stroke-width:2" />
    <line x1="846" y1="301" x2="846" y2="326" style="stroke:black;stroke-width:2" />
    <line x1="846" y1="326" x2="871" y2="326" style="stroke:black;stroke-width:2" />
    <line x1="871" y1="326" x2="883" y2="326" style="stroke:black;stroke-width:2" />
    <line x1="883" y1="313" x2="871" y2="313" style="stroke:black;stroke-width:2" />
    <line x1="871" y1="313" x2="858" y2="313" style="stroke:black;stroke-width:2" />
    <line x1="858" y1="313" x2="858" y2="288" style="stroke:black;stroke-width:2" />
    <line x1="858" y1="288" x2="858" y2="263" style="stroke:black;stroke-width:2" />
    <line x1="858" y1="263" x2="858" y2="238" style="stroke:black;stroke-width:2" />
    <line x1="858" y1="238" x2="858" y2="213" style="stroke:black;stroke-width:2" />
    <line x1="858" y1="213" x2="858" y2="188" style="stroke:black;stroke-width:2" />
    <line x1="858" y1="188" x2="858" y2="176" style="stroke:black;stroke-width:2" />
    <line x1="870" y1="176" x2="870" y2="226" style="stroke:black;stroke-width:2" />
    <line x1="870" y1="226" x2="877" y2="226" style="stroke:black;stroke-width:2" />
    <line x1="877" y1="226" x2="870" y2="232" style="stroke:black;stroke-width:2" />
    <line x1="870" y1="232" x2="864" y2="226" style="stroke:black;stroke-width:2" />
    <line x1="864" y1="226" x2="870" y2="226" style="stroke:black;stroke-width:2" />
<circle cx="883" cy = "194" r = "3" stroke = "red" stroke-width = "2" fill = "red" />
    <line x1="883" y1="194" x2="883" y2="182" style="stroke:red;stroke-width:2" />
    <line x1="883" y1="182" x2="883" y2="176" style="stroke:red;stroke-width:2" />
</svg>