<svg width="1363" height="671" viewbox = "0 0 1363 671"  xmlns="http://www.w3.org/2000/svg">

<!--
<json>
{
    "glyph": "0331,0331,0336,0330,0333,0330,0333,0332,0220,0221,0222,0223,0224,0225,0226,",
    "unit": 100,
    "x0": 683,
    "y0": 400,
    "x0rel": 0.015,
    "y0rel": 0.645,
    "imgurl": "",
    "imgw": 2,
    "imgleft": -1.5,
    "imgtop": -1
}
</json>
-->
    <line x1="733" y1="500" x2="733" y2="497" style="stroke:#000000;stroke-width:2" />
    <line x1="733" y1="497" x2="727" y2="493" style="stroke:#000000;stroke-width:2" />
    <line x1="727" y1="493" x2="739" y2="486" style="stroke:#000000;stroke-width:2" />
    <line x1="739" y1="486" x2="727" y2="479" style="stroke:#000000;stroke-width:2" />
    <line x1="727" y1="479" x2="739" y2="472" style="stroke:#000000;stroke-width:2" />
    <line x1="739" y1="472" x2="727" y2="464" style="stroke:#000000;stroke-width:2" />
    <line x1="727" y1="464" x2="739" y2="457" style="stroke:#000000;stroke-width:2" />
    <line x1="739" y1="457" x2="733" y2="454" style="stroke:#000000;stroke-width:2" />
    <line x1="733" y1="454" x2="733" y2="450" style="stroke:#000000;stroke-width:2" />
    <line x1="733" y1="450" x2="733" y2="434" style="stroke:#000000;stroke-width:2" />
    <line x1="733" y1="434" x2="750" y2="434" style="stroke:#000000;stroke-width:2" />
    <line x1="733" y1="434" x2="716" y2="434" style="stroke:#000000;stroke-width:2" />
    <line x1="733" y1="417" x2="716" y2="417" style="stroke:#000000;stroke-width:2" />
    <line x1="733" y1="417" x2="750" y2="417" style="stroke:#000000;stroke-width:2" />
    <line x1="733" y1="417" x2="733" y2="400" style="stroke:#000000;stroke-width:2" />
    <line x1="733" y1="400" x2="733" y2="388" style="stroke:#000000;stroke-width:2" />
    <line x1="746" y1="388" x2="746" y2="363" style="stroke:#000000;stroke-width:2" />
    <line x1="746" y1="363" x2="721" y2="363" style="stroke:#000000;stroke-width:2" />
    <line x1="721" y1="363" x2="721" y2="388" style="stroke:#000000;stroke-width:2" />
    <line x1="721" y1="388" x2="746" y2="388" style="stroke:#000000;stroke-width:2" />
    <line x1="733" y1="363" x2="733" y2="350" style="stroke:#000000;stroke-width:2" />
    <line x1="721" y1="388" x2="746" y2="363" style="stroke:#000000;stroke-width:2" />
    <line x1="746" y1="388" x2="721" y2="363" style="stroke:#000000;stroke-width:2" />
    <line x1="714" y1="382" x2="714" y2="369" style="stroke:#000000;stroke-width:2" />
    <line x1="714" y1="375" x2="702" y2="375" style="stroke:#000000;stroke-width:2" />
    <line x1="702" y1="375" x2="696" y2="375" style="stroke:#000000;stroke-width:2" />
    <line x1="696" y1="375" x2="689" y2="375" style="stroke:#000000;stroke-width:2" />
    <line x1="689" y1="375" x2="683" y2="375" style="stroke:#000000;stroke-width:2" />
    <line x1="733" y1="350" x2="733" y2="344" style="stroke:#000000;stroke-width:2" />
    <line x1="733" y1="344" x2="733" y2="332" style="stroke:#000000;stroke-width:2" />
	<path d = "M733 332 L721 332 L733 319 L746 332 L733 332 Z" stroke = "#000000" stroke-width = "2" fill = "#000000" />	<path d = "M733 319 L746 319 L746 318 L733 318 L721 318 L721 319 L733 319 Z" stroke = "#000000" stroke-width = "2" fill = "#000000" />    <line x1="733" y1="332" x2="733" y2="319" style="stroke:#000000;stroke-width:2" />
    <line x1="733" y1="319" x2="733" y2="307" style="stroke:#000000;stroke-width:2" />
    <line x1="733" y1="307" x2="733" y2="300" style="stroke:#000000;stroke-width:2" />
    <line x1="733" y1="300" x2="733" y2="284" style="stroke:#000000;stroke-width:2" />
    <line x1="733" y1="267" x2="733" y2="250" style="stroke:#000000;stroke-width:2" />
    <line x1="727" y1="263" x2="727" y2="288" style="stroke:#000000;stroke-width:2" />
    <line x1="727" y1="275" x2="714" y2="275" style="stroke:#000000;stroke-width:2" />
    <circle cx="711" cy = "275" r = "3.125" stroke = "#000000" stroke-width = "2" fill = "none" />
    <line x1="733" y1="250" x2="733" y2="238" style="stroke:#000000;stroke-width:2" />
    <line x1="733" y1="238" x2="721" y2="238" style="stroke:#000000;stroke-width:2" />
    <circle cx="717" cy = "238" r = "3.125" stroke = "#000000" stroke-width = "2" fill = "none" />
    <circle cx="717" cy = "213" r = "3.125" stroke = "#000000" stroke-width = "2" fill = "none" />
    <line x1="721" y1="213" x2="733" y2="213" style="stroke:#000000;stroke-width:2" />
    <line x1="733" y1="213" x2="733" y2="200" style="stroke:#000000;stroke-width:2" />
    <line x1="727" y1="244" x2="727" y2="232" style="stroke:green;stroke-width:2" />
    <line x1="727" y1="232" x2="727" y2="219" style="stroke:green;stroke-width:2" />
    <line x1="727" y1="219" x2="727" y2="207" style="stroke:green;stroke-width:2" />
    <line x1="727" y1="207" x2="714" y2="207" style="stroke:green;stroke-width:2" />
    <line x1="714" y1="207" x2="702" y2="207" style="stroke:green;stroke-width:2" />
    <line x1="702" y1="207" x2="702" y2="219" style="stroke:green;stroke-width:2" />
    <line x1="702" y1="219" x2="702" y2="232" style="stroke:green;stroke-width:2" />
    <line x1="702" y1="232" x2="702" y2="244" style="stroke:green;stroke-width:2" />
    <line x1="702" y1="244" x2="714" y2="244" style="stroke:green;stroke-width:2" />
    <line x1="714" y1="244" x2="727" y2="244" style="stroke:green;stroke-width:2" />
    <line x1="733" y1="200" x2="733" y2="197" style="stroke:black;stroke-width:2" />
    <line x1="733" y1="197" x2="727" y2="194" style="stroke:black;stroke-width:2" />
    <line x1="727" y1="194" x2="739" y2="186" style="stroke:black;stroke-width:2" />
    <line x1="739" y1="186" x2="727" y2="179" style="stroke:black;stroke-width:2" />
    <line x1="727" y1="179" x2="739" y2="172" style="stroke:black;stroke-width:2" />
    <line x1="739" y1="172" x2="727" y2="165" style="stroke:black;stroke-width:2" />
    <line x1="727" y1="165" x2="739" y2="158" style="stroke:black;stroke-width:2" />
    <line x1="739" y1="158" x2="733" y2="154" style="stroke:black;stroke-width:2" />
    <line x1="733" y1="154" x2="733" y2="151" style="stroke:black;stroke-width:2" />
	<path d = "M739 176 L744 171 L744 176 L744 180 L739 176 Z" stroke = "black" stroke-width = "2" fill = "black" />    <line x1="739" y1="176" x2="752" y2="176" style="stroke:black;stroke-width:2" />
</svg>