<svg width="1363" height="671" viewbox = "0 0 1363 671"  xmlns="http://www.w3.org/2000/svg">

<!--
<json>
{
    "glyph": "0335,0336,0201,0334,0201,0335,0201,0335,0201,0334,0201,0334,0201,0335,0201,0335,0201,0334,0201,0335,0334,0334,0201,0335,0201,0335,0201,0334,0201,0334,0201,0335,0201,0335,0201,0334,0334,0332,0332,0332,0332,0332,0332,0332,0332,0337,",
    "unit": 214.3588810000002,
    "x0": 333,
    "y0": 300,
    "x0rel": -1.6257782200309194,
    "y0rel": -0.1656101199744552,
    "imgurl": "",
    "imgw": 2,
    "imgleft": -1.5,
    "imgtop": -1
}
</json>
-->
    <line x1="333" y1="300" x2="440" y2="300" style="stroke:#000000;stroke-width:2" />
    <line x1="440" y1="300" x2="440" y2="193" style="stroke:#000000;stroke-width:2" />
    <line x1="440" y1="193" x2="547" y2="193" style="stroke:#000000;stroke-width:2" />
    <line x1="547" y1="193" x2="547" y2="300" style="stroke:#000000;stroke-width:2" />
    <line x1="547" y1="300" x2="655" y2="300" style="stroke:#000000;stroke-width:2" />
    <line x1="655" y1="300" x2="655" y2="193" style="stroke:#000000;stroke-width:2" />
    <line x1="655" y1="193" x2="762" y2="193" style="stroke:#000000;stroke-width:2" />
    <line x1="762" y1="193" x2="762" y2="300" style="stroke:#000000;stroke-width:2" />
    <line x1="762" y1="300" x2="869" y2="300" style="stroke:#000000;stroke-width:2" />
    <line x1="869" y1="300" x2="869" y2="193" style="stroke:#000000;stroke-width:2" />
    <line x1="869" y1="193" x2="976" y2="193" style="stroke:#000000;stroke-width:2" />
    <line x1="976" y1="193" x2="976" y2="300" style="stroke:#000000;stroke-width:2" />
    <line x1="976" y1="300" x2="1083" y2="300" style="stroke:#000000;stroke-width:2" />
    <line x1="1083" y1="300" x2="1083" y2="193" style="stroke:#000000;stroke-width:2" />
    <line x1="1083" y1="193" x2="1190" y2="193" style="stroke:#000000;stroke-width:2" />
    <line x1="1190" y1="193" x2="1190" y2="300" style="stroke:#000000;stroke-width:2" />
</svg>