<svg width="500" height="500" viewbox = "0 0 500 500"  xmlns="http://www.w3.org/2000/svg">

<!--
<topfunctions>


function xcothx(inputFloat){
    if(inputFloat != 0){
        return inputFloat/Math.tanh(inputFloat);
    }
    else{
        return 1;
    }
}

function yofx(){
    y = plotparams.plotheight - plotparams.G*(funcparams.TN + 0.5*funcparams.T*xcothx( (constants.e*plotparams.g*(x - x0) + constants.h*funcparams.fGHz*1e9)/(2*constants.k*funcparams.T) ) + 0.5*funcparams.T*xcothx( (constants.e*plotparams.g*(x - x0) - constants.h*funcparams.fGHz*1e9)/(2*constants.k*funcparams.T)));
}

function yofx2(){
    y = plotparams.plotheight - plotparams.G*(funcparams.TN +  Math.abs((constants.e*plotparams.g*(x - x0))/(2*constants.k) ));
}

constants = {
    "e":1.6e-19,   //Electron Charge in coulombs
    "k":1.38065e-23,  //Boltzman constant in J/K
    "h":6.63e-34 // Plank constant in J*s
}

plotparams = {
    "G":1,//1 kelvin = 1 pixel
    "g":1e-4,//20 mV equals 200 pixels
    "plotwidth":400,
    "plotheight":400
}

funcparams = {
    "T":77,
    "TN":30,
    "fGHz":6
}




   

</topfunctions>
-->
	<path d = "M0 344 L1 344.57610545755807 L2 345.0396552348328 L3 345.50320501210655 L4 345.966754789379 L5 346.43030456664985 L6 346.89385434391875 L7 347.3574041211851 L8 347.82095389844835 L9 348.2845036757077 L10 348.74805345296227 L11 349.2116032302107 L12 349.67515300745157 L13 350.138702784683 L14 350.6022525619026 L15 351.06580233910745 L16 351.5293521162939 L17 351.99290189345743 L18 352.4564516705922 L19 352.9200014476911 L20 353.38355122474525 L21 353.8471010017437 L22 354.3106507786724 L23 354.7742005555143 L24 355.23775033224774 L25 355.7013001088461 L26 356.16484988527566 L27 356.628399661495 L28 357.09194943745194 L29 357.55549921308193 L30 358.0190489883042 L31 358.4825987630183 L32 358.946148537099 L33 359.4096983103904 L34 359.8732480826983 L35 360.33679785378104 L36 360.8003476233375 L37 361.2638973909931 L38 361.72744715628164 L39 362.1909969186229 L40 362.65454667729534 L41 363.11809643140106 L42 363.5816461798238 L43 364.0451959211755 L44 364.5087456537305 L45 364.9722953753443 L46 365.43584508335186 L47 365.8993947744424 L48 366.3629444445037 L49 366.82649408842923 L50 367.29004369987933 L51 367.7535932709852 L52 368.2171427919826 L53 368.6806922507584 L54 369.14424163228955 L55 369.60779091794916 L56 370.0713400846486 L57 370.5348891037771 L58 370.99843793989226 L59 371.461986549102 L60 371.92553487706846 L61 372.3890828565452 L62 372.85263040433927 L63 373.316177417568 L64 373.77972376904734 L65 374.2432693016143 L66 374.70681382114066 L67 375.1703570879414 L68 375.6338988062173 L69 376.0974386110881 L70 376.56097605267917 L71 377.02451057660755 L72 377.48804150006873 L73 377.9515679825598 L74 378.4150889900662 L75 378.87860325129304 L76 379.34210920422913 L77 379.8056049309753 L78 380.269088078351 L79 380.73255576129145 L80 381.19600444545716 L81 381.65942980477905 L82 382.1228265488458 L83 382.58618821408163 L84 383.04950691155614 L85 383.512773022986 L86 383.9759748350274 L87 384.43909810029754 L88 384.9021255117049 L89 385.3650360746128 L90 385.82780435912247 L91 386.29039961238374 L92 386.75278470837594 L93 387.214914910155 L94 387.6767364172701 L95 388.1381846691203 L96 388.5991823737212 L97 389.0596372310449 L98 389.519439321255 L99 389.9784581313611 L100 390.4365391997772 L101 390.89350036782264 L102 391.3491276412843 L103 391.80317068478456 L104 392.2553379978482 L105 392.70529185511623 L106 393.15264313465354 L107 393.5969462077757 L108 394.03769412043897 L109 394.47431435800377 L110 394.9061655485383 L111 395.3325355193761 L112 395.75264116994975 L113 396.16563065159994 L114 396.57058834125417 L115 396.96654304923356 L116 397.35247980174745 L117 397.7273553789072 L118 398.0901175681434 L119 398.4397278177925 L120 398.7751866634411 L121 399.09556097794416 L122 399.4000118013364 L123 399.68782128044836 L124 399.9584171299918 L125 400.2113930484638 L126 400.44652369873296 L127 400.6637731887068 L128 400.8632964334415 L129 401.0454332982865 L130 401.21069595275736 L131 401.3597503443982 L132 401.49339307710534 L133 401.6125252127057 L134 401.71812459353316 L135 401.81121821510726 L136 401.8928559878557 L137 401.9640869528046 L138 402.0259386999583 L139 402.07940041858393 L140 402.1254097170262 L141 402.16484310707693 L142 402.1985098649866 L143 402.22714885955656 L144 402.2514278722947 L145 402.27194491605854 L146 402.28923107581 L147 402.3037544368694 L148 402.31592472237196 L149 402.32609832429773 L150 402.33458347531695 L151 402.34164536755395 L152 402.34751107667915 L153 402.35237419426676 L154 402.3563991078478 L155 402.35972489692483 L156 402.3624688351721 L157 402.36472950508886 L158 402.366589542506 L159 402.36811803555327 L160 402.36937260683857 L161 402.37040120944266 L162 402.37124366751226 L163 402.3719329912619 L164 402.372496494459 L165 402.3729567402865 L166 402.37333233906224 L167 402.3736386188307 L168 402.3738881874145 L169 402.37409140222326 L170 402.374256761988 L171 402.3743912326547 L172 402.3745005179393 L173 402.3745892835091 L174 402.374661342409 L175 402.3747198081799 L176 402.3747672211067 L177 402.3748056521616 L178 402.3748367884717 L179 402.37486200350736 L180 402.37488241465553 L181 402.37489893039566 L182 402.3749122889151 L183 402.3749230896875 L184 402.37493181927414 L185 402.3749388723854 L186 402.37494456906114 L187 402.37494916867297 L188 402.3749528813292 L189 402.37495587715694 L190 402.3749582938526 L191 402.3749602428188 L192 402.37496181415077 L193 402.3749630806842 L194 402.37496410128074 L195 402.37496492349266 L196 402.37496558572286 L197 402.37496611897535 L198 402.37496654827294 L199 402.3749668938053 L200 402.3749671718575 L201 402.37496739556167 L202 402.37496757550434 L203 402.37496772021797 L204 402.37496783657747 L205 402.37496793012104 L206 402.3749680053089 L207 402.37496806573233 L208 402.37496811428224 L209 402.3749681532854 L210 402.37496818461386 L211 402.3749682097739 L212 402.37496822997696 L213 402.3749682461971 L214 402.37496825921767 L215 402.37496826966833 L216 402.3749682780551 L217 402.3749682847847 L218 402.37496829018386 L219 402.374968294515 L220 402.3749682979889 L221 402.374968300775 L222 402.37496830300904 L223 402.3749683048004 L224 402.37496830623644 L225 402.37496830738763 L226 402.3749683083103 L227 402.3749683090498 L228 402.3749683096423 L229 402.3749683101171 L230 402.3749683104975 L231 402.37496831080216 L232 402.3749683110462 L233 402.3749683112416 L234 402.3749683113981 L235 402.3749683115234 L236 402.3749683116236 L237 402.3749683117038 L238 402.37496831176793 L239 402.37496831181915 L240 402.37496831186 L241 402.37496831189253 L242 402.37496831191834 L243 402.37496831193874 L244 402.3749683119547 L245 402.3749683119671 L246 402.37496831197643 L247 402.3749683119833 L248 402.37496831198797 L249 402.3749683119907 L250 402.37496831199155 L251 402.3749683119907 L252 402.37496831198797 L253 402.3749683119833 L254 402.37496831197643 L255 402.3749683119671 L256 402.3749683119547 L257 402.37496831193874 L258 402.37496831191834 L259 402.37496831189253 L260 402.37496831186 L261 402.37496831181915 L262 402.37496831176793 L263 402.3749683117038 L264 402.3749683116236 L265 402.3749683115234 L266 402.3749683113981 L267 402.3749683112416 L268 402.3749683110462 L269 402.37496831080216 L270 402.3749683104975 L271 402.3749683101171 L272 402.3749683096423 L273 402.3749683090498 L274 402.3749683083103 L275 402.37496830738763 L276 402.37496830623644 L277 402.37496830480035 L278 402.37496830300904 L279 402.374968300775 L280 402.3749682979889 L281 402.374968294515 L282 402.37496829018386 L283 402.3749682847847 L284 402.3749682780551 L285 402.37496826966833 L286 402.37496825921767 L287 402.3749682461971 L288 402.37496822997696 L289 402.3749682097739 L290 402.37496818461386 L291 402.3749681532854 L292 402.37496811428224 L293 402.37496806573233 L294 402.3749680053089 L295 402.37496793012104 L296 402.37496783657747 L297 402.37496772021797 L298 402.37496757550434 L299 402.37496739556167 L300 402.3749671718575 L301 402.3749668938053 L302 402.37496654827294 L303 402.37496611897535 L304 402.37496558572286 L305 402.37496492349266 L306 402.37496410128074 L307 402.3749630806842 L308 402.37496181415077 L309 402.3749602428188 L310 402.3749582938526 L311 402.37495587715694 L312 402.3749528813292 L313 402.37494916867297 L314 402.37494456906114 L315 402.3749388723854 L316 402.37493181927414 L317 402.3749230896875 L318 402.3749122889151 L319 402.37489893039566 L320 402.37488241465553 L321 402.37486200350736 L322 402.3748367884717 L323 402.37480565216157 L324 402.3747672211067 L325 402.3747198081799 L326 402.374661342409 L327 402.3745892835091 L328 402.3745005179393 L329 402.3743912326547 L330 402.374256761988 L331 402.37409140222326 L332 402.3738881874145 L333 402.3736386188307 L334 402.37333233906224 L335 402.3729567402865 L336 402.372496494459 L337 402.3719329912618 L338 402.37124366751226 L339 402.37040120944266 L340 402.36937260683857 L341 402.36811803555327 L342 402.366589542506 L343 402.36472950508886 L344 402.3624688351721 L345 402.35972489692483 L346 402.3563991078478 L347 402.35237419426676 L348 402.34751107667915 L349 402.34164536755395 L350 402.33458347531695 L351 402.32609832429773 L352 402.31592472237196 L353 402.3037544368694 L354 402.28923107581 L355 402.27194491605854 L356 402.2514278722947 L357 402.22714885955656 L358 402.1985098649866 L359 402.16484310707693 L360 402.1254097170262 L361 402.07940041858393 L362 402.0259386999583 L363 401.9640869528046 L364 401.8928559878557 L365 401.81121821510726 L366 401.71812459353316 L367 401.6125252127057 L368 401.49339307710534 L369 401.3597503443982 L370 401.21069595275736 L371 401.0454332982865 L372 400.8632964334415 L373 400.6637731887068 L374 400.44652369873296 L375 400.2113930484638 L376 399.9584171299918 L377 399.68782128044836 L378 399.4000118013364 L379 399.09556097794416 L380 398.7751866634411 L381 398.4397278177925 L382 398.0901175681434 L383 397.7273553789072 L384 397.35247980174745 L385 396.96654304923356 L386 396.57058834125417 L387 396.16563065159994 L388 395.75264116994975 L389 395.3325355193761 L390 394.9061655485383 L391 394.4743143580038 L392 394.03769412043897 L393 393.5969462077757 L394 393.15264313465354 L395 392.7052918551162 L396 392.2553379978482 L397 391.80317068478456 L398 391.3491276412843 L399 390.89350036782264 L400 390.4365391997772 L401 389.9784581313611 L402 389.519439321255 L403 389.0596372310449 L404 388.5991823737212 L405 388.1381846691203 L406 387.6767364172701 L407 387.214914910155 L408 386.75278470837594 L409 386.29039961238374 L410 385.82780435912247 L411 385.3650360746128 L412 384.9021255117049 L413 384.43909810029754 L414 383.9759748350274 L415 383.5127730229859 L416 383.04950691155614 L417 382.58618821408163 L418 382.1228265488458 L419 381.65942980477905 L420 381.1960044454571 L421 380.73255576129145 L422 380.269088078351 L423 379.8056049309753 L424 379.3421092042292 L425 378.87860325129304 L426 378.4150889900662 L427 377.9515679825598 L428 377.4880415000687 L429 377.02451057660755 L430 376.56097605267917 L431 376.0974386110881 L432 375.6338988062173 L433 375.1703570879414 L434 374.70681382114066 L435 374.24326930161436 L436 373.77972376904734 L437 373.316177417568 L438 372.85263040433927 L439 372.38908285654526 L440 371.92553487706846 L441 371.461986549102 L442 370.99843793989226 L443 370.5348891037772 L444 370.0713400846486 L445 369.60779091794916 L446 369.14424163228955 L447 368.6806922507584 L448 368.2171427919826 L449 367.7535932709852 L450 367.29004369987933 L451 366.82649408842923 L452 366.3629444445037 L453 365.8993947744424 L454 365.43584508335186 L455 364.9722953753443 L456 364.5087456537305 L457 364.0451959211755 L458 363.5816461798238 L459 363.11809643140106 L460 362.6545466772953 L461 362.19099691862294 L462 361.72744715628164 L463 361.2638973909931 L464 360.8003476233375 L465 360.33679785378104 L466 359.8732480826983 L467 359.4096983103904 L468 358.946148537099 L469 358.48259876301825 L470 358.0190489883042 L471 357.55549921308193 L472 357.09194943745194 L473 356.628399661495 L474 356.16484988527566 L475 355.70130010884606 L476 355.2377503322478 L477 354.7742005555143 L478 354.3106507786724 L479 353.8471010017437 L480 353.38355122474525 L481 352.9200014476911 L482 352.4564516705922 L483 351.99290189345743 L484 351.5293521162939 L485 351.06580233910745 L486 350.6022525619026 L487 350.138702784683 L488 349.6751530074516 L489 349.2116032302107 L490 348.74805345296227 L491 348.2845036757077 L492 347.82095389844835 L493 347.3574041211851 L494 346.89385434391875 L495 346.43030456664985 L496 345.966754789379 L497 345.50320501210655 L498 345.0396552348328 L499 344.57610545755807 " stroke = "black" stroke-width = "2" fill = "none" />	<path d = "M0 344 L1 344.5761054575744 L2 345.03965523485317 L3 345.503205012132 L4 345.9667547894108 L5 346.43030456668964 L6 346.8938543439684 L7 347.35740412124727 L8 347.8209538985261 L9 348.2845036758049 L10 348.7480534530837 L11 349.2116032303625 L12 349.67515300764137 L13 350.13870278492016 L14 350.60225256219894 L15 351.0658023394778 L16 351.5293521167566 L17 351.9929018940354 L18 352.4564516713142 L19 352.9200014485931 L20 353.3835512258719 L21 353.84710100315067 L22 354.31065078042957 L23 354.77420055770835 L24 355.23775033498714 L25 355.701300112266 L26 356.1648498895448 L27 356.6283996668236 L28 357.09194944410245 L29 357.55549922138124 L30 358.0190489986601 L31 358.48259877593887 L32 358.9461485532177 L33 359.4096983304965 L34 359.87324810777534 L35 360.3367978850541 L36 360.80034766233297 L37 361.2638974396118 L38 361.7274472168906 L39 362.19099699416944 L40 362.6545467714482 L41 363.11809654872707 L42 363.58164632600585 L43 364.0451961032847 L44 364.50874588056354 L45 364.9722956578423 L46 365.43584543512117 L47 365.8993952124 L48 366.3629449896788 L49 366.8264947669576 L50 367.2900445442364 L51 367.75359432151527 L52 368.21714409879405 L53 368.68069387607284 L54 369.1442436533517 L55 369.6077934306305 L56 370.0713432079093 L57 370.53489298518815 L58 370.998442762467 L59 371.4619925397458 L60 371.92554231702456 L61 372.3890920943034 L62 372.85264187158225 L63 373.31619164886104 L64 373.7797414261398 L65 374.24329120341866 L66 374.7068409806975 L67 375.17039075797635 L68 375.6339405352552 L69 376.097490312534 L70 376.56104008981276 L71 377.0245898670916 L72 377.48813964437045 L73 377.95168942164923 L74 378.415239198928 L75 378.87878897620686 L76 379.3423387534857 L77 379.8058885307645 L78 380.26943830804333 L79 380.7329880853222 L80 381.19653786260096 L81 381.66008763987975 L82 382.1236374171586 L83 382.58718719443743 L84 383.0507369717162 L85 383.514286748995 L86 383.97783652627385 L87 384.4413863035527 L88 384.90493608083153 L89 385.3684858581103 L90 385.83203563538916 L91 386.29558541266795 L92 386.7591351899468 L93 387.22268496722563 L94 387.6862347445044 L95 388.1497845217832 L96 388.61333429906205 L97 389.0768840763409 L98 389.5404338536197 L99 390.0039836308985 L100 390.4675334081773 L101 390.93108318545615 L102 391.39463296273493 L103 391.8581827400138 L104 392.3217325172926 L105 392.7852822945714 L106 393.2488320718502 L107 393.71238184912903 L108 394.1759316264079 L109 394.63948140368666 L110 395.1030311809655 L111 395.5665809582443 L112 396.03013073552313 L113 396.493680512802 L114 396.95723029008076 L115 397.4207800673596 L116 397.8843298446384 L117 398.34787962191723 L118 398.8114293991961 L119 399.27497917647486 L120 399.7385289537537 L121 400.2020787310325 L122 400.66562850831133 L123 401.1291782855901 L124 401.59272806286896 L125 402.05627784014774 L126 402.5198276174266 L127 402.98337739470537 L128 403.4469271719842 L129 403.91047694926306 L130 404.37402672654184 L131 404.8375765038207 L132 405.30112628109947 L133 405.7646760583783 L134 406.2282258356571 L135 406.69177561293594 L136 407.1553253902148 L137 407.61887516749357 L138 408.0824249447724 L139 408.5459747220512 L140 409.00952449933004 L141 409.4730742766088 L142 409.93662405388767 L143 410.4001738311665 L144 410.8637236084453 L145 411.32727338572414 L146 411.7908231630029 L147 412.25437294028177 L148 412.71792271756055 L149 413.1814724948394 L150 413.64502227211824 L151 414.108572049397 L152 414.5721218266758 L153 415.03567160395465 L154 415.4992213812335 L155 415.9627711585123 L156 416.4263209357911 L157 416.88987071306997 L158 417.35342049034875 L159 417.81697026762754 L160 418.2805200449064 L161 418.7440698221852 L162 419.207619599464 L163 419.67116937674285 L164 420.1347191540217 L165 420.5982689313005 L166 421.06181870857927 L167 421.5253684858581 L168 421.98891826313695 L169 422.45246804041574 L170 422.9160178176946 L171 423.37956759497337 L172 423.8431173722522 L173 424.306667149531 L174 424.77021692680984 L175 425.2337667040887 L176 425.69731648136747 L177 426.16086625864625 L178 426.6244160359251 L179 427.08796581320394 L180 427.5515155904827 L181 428.01506536776157 L182 428.4786151450404 L183 428.9421649223192 L184 429.40571469959804 L185 429.8692644768768 L186 430.33281425415566 L187 430.79636403143445 L188 431.2599138087133 L189 431.72346358599214 L190 432.1870133632709 L191 432.65056314054976 L192 433.11411291782855 L193 433.5776626951074 L194 434.0412124723862 L195 434.504762249665 L196 434.96831202694386 L197 435.43186180422265 L198 435.89541158150143 L199 436.3589613587803 L200 436.8225111360591 L201 437.2860609133379 L202 437.74961069061675 L203 438.21316046789553 L204 438.6767102451744 L205 439.14026002245316 L206 439.603809799732 L207 440.06735957701085 L208 440.53090935428963 L209 440.9944591315685 L210 441.45800890884726 L211 441.9215586861261 L212 442.3851084634049 L213 442.84865824068373 L214 443.3122080179626 L215 443.77575779524136 L216 444.2393075725202 L217 444.702857349799 L218 445.16640712707783 L219 445.6299569043566 L220 446.09350668163546 L221 446.5570564589143 L222 447.0206062361931 L223 447.48415601347193 L224 447.9477057907507 L225 448.41125556802956 L226 448.87480534530835 L227 449.3383551225872 L228 449.80190489986603 L229 450.2654546771448 L230 450.72900445442366 L231 451.19255423170245 L232 451.6561040089813 L233 452.1196537862601 L234 452.5832035635389 L235 453.04675334081776 L236 453.51030311809654 L237 453.9738528953754 L238 454.4374026726542 L239 454.900952449933 L240 455.3645022272118 L241 455.82805200449064 L242 456.2916017817695 L243 456.7551515590483 L244 457.2187013363271 L245 457.6822511136059 L246 458.14580089088474 L247 458.60935066816353 L248 459.0729004454424 L249 459.5364502227212 L250 460 L251 459.5364502227212 L252 459.0729004454424 L253 458.60935066816353 L254 458.14580089088474 L255 457.6822511136059 L256 457.2187013363271 L257 456.7551515590483 L258 456.2916017817695 L259 455.82805200449064 L260 455.3645022272118 L261 454.900952449933 L262 454.4374026726542 L263 453.9738528953754 L264 453.51030311809654 L265 453.04675334081776 L266 452.5832035635389 L267 452.1196537862601 L268 451.6561040089813 L269 451.19255423170245 L270 450.72900445442366 L271 450.2654546771448 L272 449.80190489986603 L273 449.3383551225872 L274 448.87480534530835 L275 448.41125556802956 L276 447.9477057907507 L277 447.48415601347193 L278 447.0206062361931 L279 446.5570564589143 L280 446.09350668163546 L281 445.6299569043566 L282 445.16640712707783 L283 444.702857349799 L284 444.2393075725202 L285 443.77575779524136 L286 443.3122080179626 L287 442.84865824068373 L288 442.3851084634049 L289 441.9215586861261 L290 441.45800890884726 L291 440.9944591315685 L292 440.53090935428963 L293 440.06735957701085 L294 439.603809799732 L295 439.14026002245316 L296 438.6767102451744 L297 438.21316046789553 L298 437.74961069061675 L299 437.2860609133379 L300 436.8225111360591 L301 436.3589613587803 L302 435.89541158150143 L303 435.43186180422265 L304 434.96831202694386 L305 434.504762249665 L306 434.0412124723862 L307 433.5776626951074 L308 433.11411291782855 L309 432.65056314054976 L310 432.1870133632709 L311 431.72346358599214 L312 431.2599138087133 L313 430.79636403143445 L314 430.33281425415566 L315 429.8692644768768 L316 429.40571469959804 L317 428.9421649223192 L318 428.4786151450404 L319 428.01506536776157 L320 427.5515155904827 L321 427.08796581320394 L322 426.6244160359251 L323 426.16086625864625 L324 425.69731648136747 L325 425.2337667040887 L326 424.77021692680984 L327 424.306667149531 L328 423.8431173722522 L329 423.37956759497337 L330 422.9160178176946 L331 422.45246804041574 L332 421.98891826313695 L333 421.5253684858581 L334 421.06181870857927 L335 420.5982689313005 L336 420.1347191540217 L337 419.67116937674285 L338 419.207619599464 L339 418.7440698221852 L340 418.2805200449064 L341 417.81697026762754 L342 417.35342049034875 L343 416.88987071306997 L344 416.4263209357911 L345 415.9627711585123 L346 415.4992213812335 L347 415.03567160395465 L348 414.5721218266758 L349 414.108572049397 L350 413.64502227211824 L351 413.1814724948394 L352 412.71792271756055 L353 412.25437294028177 L354 411.7908231630029 L355 411.32727338572414 L356 410.8637236084453 L357 410.4001738311665 L358 409.93662405388767 L359 409.4730742766088 L360 409.00952449933004 L361 408.5459747220512 L362 408.0824249447724 L363 407.61887516749357 L364 407.1553253902148 L365 406.69177561293594 L366 406.2282258356571 L367 405.7646760583783 L368 405.30112628109947 L369 404.8375765038207 L370 404.37402672654184 L371 403.91047694926306 L372 403.4469271719842 L373 402.98337739470537 L374 402.5198276174266 L375 402.05627784014774 L376 401.59272806286896 L377 401.1291782855901 L378 400.66562850831133 L379 400.2020787310325 L380 399.7385289537537 L381 399.27497917647486 L382 398.8114293991961 L383 398.34787962191723 L384 397.8843298446384 L385 397.4207800673596 L386 396.95723029008076 L387 396.493680512802 L388 396.03013073552313 L389 395.5665809582443 L390 395.1030311809655 L391 394.63948140368666 L392 394.1759316264079 L393 393.71238184912903 L394 393.2488320718502 L395 392.7852822945714 L396 392.3217325172926 L397 391.8581827400138 L398 391.39463296273493 L399 390.93108318545615 L400 390.4675334081773 L401 390.0039836308985 L402 389.5404338536197 L403 389.0768840763409 L404 388.61333429906205 L405 388.1497845217832 L406 387.6862347445044 L407 387.22268496722563 L408 386.7591351899468 L409 386.29558541266795 L410 385.83203563538916 L411 385.3684858581103 L412 384.90493608083153 L413 384.4413863035527 L414 383.97783652627385 L415 383.514286748995 L416 383.0507369717162 L417 382.58718719443743 L418 382.1236374171586 L419 381.66008763987975 L420 381.19653786260096 L421 380.7329880853222 L422 380.26943830804333 L423 379.8058885307645 L424 379.3423387534857 L425 378.87878897620686 L426 378.415239198928 L427 377.95168942164923 L428 377.48813964437045 L429 377.0245898670916 L430 376.56104008981276 L431 376.097490312534 L432 375.6339405352552 L433 375.17039075797635 L434 374.7068409806975 L435 374.24329120341866 L436 373.7797414261398 L437 373.31619164886104 L438 372.85264187158225 L439 372.3890920943034 L440 371.92554231702456 L441 371.4619925397458 L442 370.998442762467 L443 370.53489298518815 L444 370.0713432079093 L445 369.6077934306305 L446 369.1442436533517 L447 368.68069387607284 L448 368.21714409879405 L449 367.75359432151527 L450 367.2900445442364 L451 366.8264947669576 L452 366.3629449896788 L453 365.8993952124 L454 365.43584543512117 L455 364.9722956578423 L456 364.50874588056354 L457 364.0451961032847 L458 363.58164632600585 L459 363.11809654872707 L460 362.6545467714482 L461 362.19099699416944 L462 361.7274472168906 L463 361.2638974396118 L464 360.80034766233297 L465 360.3367978850541 L466 359.87324810777534 L467 359.4096983304965 L468 358.9461485532177 L469 358.48259877593887 L470 358.0190489986601 L471 357.55549922138124 L472 357.09194944410245 L473 356.6283996668236 L474 356.1648498895448 L475 355.701300112266 L476 355.23775033498714 L477 354.77420055770835 L478 354.31065078042957 L479 353.84710100315067 L480 353.3835512258719 L481 352.9200014485931 L482 352.4564516713142 L483 351.9929018940354 L484 351.5293521167566 L485 351.0658023394778 L486 350.60225256219894 L487 350.13870278492016 L488 349.67515300764137 L489 349.2116032303625 L490 348.7480534530837 L491 348.2845036758049 L492 347.8209538985261 L493 347.35740412124727 L494 346.8938543439684 L495 346.43030456668964 L496 345.9667547894108 L497 345.503205012132 L498 345.03965523485317 L499 344.5761054575744 " stroke = "black" stroke-width = "2" fill = "none" /></svg>