<svg width="400" height="400" viewbox = "0 0 400 400"  xmlns="http://www.w3.org/2000/svg">
	<path d = "M0 129 L1 129.46742068549696 L2 130.22443890508936 L3 130.97992860568888 L4 131.73387174541904 L5 132.48625012754997 L6 133.2370454003888 L7 133.98623905719955 L8 134.7338124361541 L9 135.4797467203141 L10 136.22402293764412 L11 136.9666219610582 L12 137.70752450849852 L13 138.4467111430481 L14 139.18416227307807 L15 139.9198581524293 L16 140.65377888063 L17 141.38590440314937 L18 142.1162145116882 L19 142.84468884450672 L20 143.57130688679075 L21 144.2960479710564 L22 145.01889127759426 L23 145.73981583495333 L24 146.45880052046596 L25 147.1758240608134 L26 147.8908650326336 L27 148.60390186317147 L28 149.31491283097188 L29 150.02387606661614 L30 150.73076955350362 L31 151.43557112867677 L32 152.13825848369288 L33 152.83880916554085 L34 153.5372005776052 L35 154.23340998067624 L36 154.92741449400913 L37 155.61919109642986 L38 156.30871662749084 L39 156.99596778867553 L40 157.68092114465222 L41 158.36355312457908 L42 159.04384002345893 L43 159.72175800354614 L44 160.39728309580454 L45 161.0703912014178 L46 161.74105809335225 L47 162.40925941797275 L48 163.07497069671217 L49 163.7381673277943 L50 164.39882458801125 L51 165.05691763455522 L52 165.71242150690546 L53 166.36531112877003 L54 167.0155613100837 L55 167.66314674906096 L56 168.30804203430569 L57 168.9502216469771 L58 169.5896599630122 L59 170.226331255405 L60 170.86020969654302 L61 171.49126936060046 L62 172.11948422598945 L63 172.7448281778682 L64 173.36727501070652 L65 173.98679843090983 L66 174.60337205950012 L67 175.21696943485475 L68 175.8275640155032 L69 176.4351291829815 L70 177.03963824474403 L71 177.64106443713302 L72 178.239380928406 L73 178.8345608218197 L74 179.42657715877172 L75 180.0154029219993 L76 180.60101103883423 L77 181.18337438451496 L78 181.76246578555444 L79 182.3382580231643 L80 182.91072383673412 L81 183.47983592736654 L82 184.0455669614665 L83 184.60788957438533 L84 185.16677637411854 L85 185.7221999450571 L86 186.27413285179145 L87 186.82254764296792 L88 187.3674168551965 L89 187.90871301701054 L90 188.4464086528756 L91 188.98047628724882 L92 189.51088844868718 L93 190.03761767400331 L94 190.56063651246956 L95 191.07991753006738 L96 191.5954333137837 L97 192.10715647595092 L98 192.61505965863114 L99 193.11911553804302 L100 193.6192968290305 L101 194.11557628957223 L102 194.60792672533037 L103 195.09632099423814 L104 195.58073201112447 L105 196.06113275237524 L106 196.53749626062873 L107 197.00979564950518 L108 197.4780041083687 L109 197.94209490712007 L110 198.4020414010191 L111 198.8578170355356 L112 199.30939535122687 L113 199.75674998864068 L114 200.19985469324237 L115 200.63868332036353 L116 201.073209840173 L117 201.50340834266552 L118 201.9292530426689 L119 202.35071828486713 L120 202.76777854883753 L121 203.180408454101 L122 203.5885827651825 L123 203.99227639668155 L124 204.3914644183494 L125 204.78612206017246 L126 205.17622471745878 L127 205.56174795592747 L128 205.94266751679712 L129 206.3189593218734 L130 206.69059947863227 L131 207.05756428529827 L132 207.41983023591447 L133 207.7773740254036 L134 208.13017255461733 L135 208.4782029353724 L136 208.82144249547096 L137 209.1598687837038 L138 209.49345957483396 L139 209.82219287455854 L140 210.1460469244476 L141 210.4650002068571 L142 210.779031449814 L143 211.08811963187208 L144 211.39224398693588 L145 211.69138400905067 L146 211.98551945715678 L147 212.27463035980577 L148 212.55869701983673 L149 212.83770001901058 L150 213.11162022260018 L151 213.38043878393418 L152 213.64413714889307 L153 213.9026970603546 L154 214.15610056258706 L155 214.40433000558866 L156 214.64736804937027 L157 214.8851976681801 L158 215.11780215466825 L159 215.3451651239892 L160 215.56727051783994 L161 215.78410260843273 L162 215.99564600239952 L163 216.2018856446269 L164 216.40280682201956 L165 216.59839516719026 L166 216.7886366620749 L167 216.97351764147064 L168 217.15302479649526 L169 217.32714517796666 L170 217.49586619970003 L171 217.6591756417216 L172 217.81706165339725 L173 217.96951275647456 L174 218.11651784803627 L175 218.25806620336468 L176 218.3941474787141 L177 218.52475171399163 L178 218.64986933534345 L179 218.76949115764617 L180 218.8836083869019 L181 218.99221262253542 L182 219.09529585959274 L183 219.1928504908393 L184 219.2848693087579 L185 219.3713455074438 L186 219.4522726843974 L187 219.5276448422126 L188 219.59745639016054 L189 219.66170214566782 L190 219.72037733568794 L191 219.7734775979662 L192 219.82099898219633 L193 219.86293795106909 L194 219.8992913812117 L195 219.9300565640185 L196 219.95523120637085 L197 219.9748134312475 L198 219.98880177822448 L199 219.99719520386373 L200 219.99999308199116 L201 219.99719520386373 L202 219.98880177822448 L203 219.9748134312475 L204 219.95523120637085 L205 219.9300565640185 L206 219.8992913812117 L207 219.86293795106909 L208 219.82099898219633 L209 219.7734775979662 L210 219.72037733568794 L211 219.66170214566782 L212 219.59745639016054 L213 219.5276448422126 L214 219.45227268439734 L215 219.3713455074438 L216 219.2848693087579 L217 219.1928504908393 L218 219.09529585959274 L219 218.99221262253545 L220 218.8836083869019 L221 218.76949115764617 L222 218.64986933534345 L223 218.52475171399163 L224 218.3941474787141 L225 218.25806620336468 L226 218.11651784803627 L227 217.96951275647456 L228 217.81706165339725 L229 217.6591756417216 L230 217.49586619970003 L231 217.32714517796666 L232 217.15302479649526 L233 216.97351764147064 L234 216.7886366620749 L235 216.59839516719026 L236 216.40280682201956 L237 216.20188564462694 L238 215.99564600239952 L239 215.78410260843273 L240 215.56727051783994 L241 215.3451651239892 L242 215.11780215466825 L243 214.8851976681801 L244 214.64736804937027 L245 214.40433000558866 L246 214.15610056258706 L247 213.9026970603546 L248 213.64413714889307 L249 213.38043878393418 L250 213.11162022260018 L251 212.83770001901058 L252 212.55869701983673 L253 212.27463035980577 L254 211.98551945715678 L255 211.69138400905067 L256 211.39224398693588 L257 211.08811963187208 L258 210.779031449814 L259 210.4650002068571 L260 210.1460469244476 L261 209.82219287455854 L262 209.49345957483396 L263 209.1598687837038 L264 208.82144249547096 L265 208.4782029353724 L266 208.13017255461733 L267 207.7773740254036 L268 207.41983023591447 L269 207.0575642852983 L270 206.69059947863232 L271 206.3189593218734 L272 205.94266751679712 L273 205.56174795592747 L274 205.17622471745878 L275 204.78612206017246 L276 204.3914644183494 L277 203.99227639668155 L278 203.5885827651825 L279 203.180408454101 L280 202.76777854883755 L281 202.35071828486713 L282 201.9292530426689 L283 201.50340834266552 L284 201.073209840173 L285 200.63868332036353 L286 200.19985469324237 L287 199.75674998864068 L288 199.30939535122687 L289 198.8578170355356 L290 198.4020414010191 L291 197.94209490712007 L292 197.4780041083687 L293 197.00979564950518 L294 196.53749626062873 L295 196.06113275237524 L296 195.58073201112447 L297 195.09632099423814 L298 194.60792672533037 L299 194.11557628957223 L300 193.6192968290305 L301 193.11911553804302 L302 192.61505965863114 L303 192.10715647595092 L304 191.59543331378367 L305 191.07991753006738 L306 190.56063651246956 L307 190.03761767400331 L308 189.51088844868718 L309 188.98047628724882 L310 188.4464086528756 L311 187.90871301701054 L312 187.36741685519652 L313 186.82254764296786 L314 186.27413285179145 L315 185.7221999450571 L316 185.16677637411857 L317 184.60788957438533 L318 184.0455669614665 L319 183.47983592736654 L320 182.91072383673415 L321 182.33825802316426 L322 181.76246578555444 L323 181.18337438451496 L324 180.60101103883423 L325 180.0154029219993 L326 179.42657715877178 L327 178.8345608218197 L328 178.239380928406 L329 177.64106443713302 L330 177.03963824474403 L331 176.4351291829815 L332 175.82756401550319 L333 175.21696943485475 L334 174.60337205950012 L335 173.98679843090983 L336 173.3672750107065 L337 172.7448281778682 L338 172.11948422598945 L339 171.49126936060046 L340 170.86020969654297 L341 170.226331255405 L342 169.5896599630122 L343 168.95022164697713 L344 168.30804203430566 L345 167.66314674906096 L346 167.0155613100837 L347 166.36531112877003 L348 165.71242150690546 L349 165.05691763455522 L350 164.39882458801125 L351 163.7381673277943 L352 163.0749706967122 L353 162.40925941797275 L354 161.74105809335225 L355 161.0703912014178 L356 160.39728309580454 L357 159.72175800354614 L358 159.04384002345893 L359 158.36355312457908 L360 157.68092114465222 L361 156.99596778867556 L362 156.30871662749084 L363 155.61919109642986 L364 154.9274144940091 L365 154.23340998067624 L366 153.5372005776052 L367 152.83880916554085 L368 152.13825848369288 L369 151.43557112867677 L370 150.7307695535036 L371 150.02387606661614 L372 149.31491283097188 L373 148.60390186317147 L374 147.8908650326336 L375 147.1758240608134 L376 146.45880052046593 L377 145.73981583495333 L378 145.01889127759426 L379 144.2960479710564 L380 143.57130688679075 L381 142.84468884450672 L382 142.11621451168816 L383 141.38590440314937 L384 140.65377888063 L385 139.91985815242924 L386 139.18416227307807 L387 138.4467111430481 L388 137.70752450849847 L389 136.9666219610582 L390 136.22402293764412 L391 135.4797467203141 L392 134.7338124361541 L393 133.98623905719955 L394 133.2370454003888 L395 132.48625012755002 L396 131.73387174541904 L397 130.97992860568888 L398 130.2244389050893 L399 129.46742068549696 " stroke = "black" stroke-width = "2" fill = "none" />	<path d = "M0 136 L1 137.03798935284107 L2 137.90714518523885 L3 138.77630101763663 L4 139.64545685003446 L5 140.5146126824322 L6 141.38376851482997 L7 142.2529243472278 L8 143.12208017962553 L9 143.99123601202336 L10 144.86039184442112 L11 145.72954767681892 L12 146.5987035092167 L13 147.46785934161448 L14 148.33701517401227 L15 149.20617100641005 L16 150.07532683880783 L17 150.9444826712056 L18 151.81363850360339 L19 152.68279433600117 L20 153.55195016839897 L21 154.42110600079673 L22 155.29026183319456 L23 156.15941766559231 L24 157.02857349799007 L25 157.8977293303879 L26 158.76688516278566 L27 159.63604099518344 L28 160.50519682758124 L29 161.37435265997902 L30 162.2435084923768 L31 163.1126643247746 L32 163.98182015717236 L33 164.85097598957012 L34 165.72013182196793 L35 166.5892876543657 L36 167.45844348676349 L37 168.3275993191613 L38 169.19675515155907 L39 170.06591098395685 L40 170.93506681635466 L41 171.80422264875241 L42 172.67337848115017 L43 173.54253431354797 L44 174.41169014594576 L45 175.28084597834354 L46 176.15000181074134 L47 177.01915764313912 L48 177.88831347553693 L49 178.75746930793468 L50 179.62662514033246 L51 180.49578097273027 L52 181.36493680512802 L53 182.2340926375258 L54 183.1032484699236 L55 183.9724043023214 L56 184.84156013471917 L57 185.71071596711698 L58 186.57987179951473 L59 187.44902763191251 L60 188.3181834643103 L61 189.18733929670807 L62 190.05649512910585 L63 190.92565096150366 L64 191.79480679390144 L65 192.66396262629925 L66 193.533118458697 L67 194.40227429109478 L68 195.27143012349254 L69 196.14058595589034 L70 197.00974178828812 L71 197.87889762068593 L72 198.7480534530837 L73 199.6172092854815 L74 200.48636511787927 L75 201.35552095027705 L76 202.22467678267483 L77 203.0938326150726 L78 203.9629884474704 L79 204.83214427986817 L80 205.70130011226598 L81 206.57045594466376 L82 207.43961177706157 L83 208.30876760945932 L84 209.1779234418571 L85 210.04707927425486 L86 210.91623510665266 L87 211.78539093905044 L88 212.65454677144825 L89 213.52370260384603 L90 214.3928584362438 L91 215.26201426864162 L92 216.1311701010394 L93 217.00032593343713 L94 217.86948176583493 L95 218.7386375982327 L96 219.6077934306305 L97 220.4769492630283 L98 221.34610509542608 L99 222.2152609278239 L100 223.08441676022167 L101 223.95357259261942 L102 224.82272842501723 L103 225.69188425741498 L104 226.56104008981276 L105 227.43019592221057 L106 228.29935175460835 L107 229.16850758700613 L108 230.03766341940394 L109 230.9068192518017 L110 231.77597508419947 L111 232.64513091659728 L112 233.51428674899503 L113 234.3834425813928 L114 235.25259841379062 L115 236.1217542461884 L116 236.9909100785862 L117 237.86006591098396 L118 238.72922174338174 L119 239.59837757577955 L120 240.46753340817733 L121 241.33668924057508 L122 242.2058450729729 L123 243.07500090537067 L124 243.94415673776845 L125 244.81331257016626 L126 245.682468402564 L127 246.5516242349618 L128 247.4207800673596 L129 248.28993589975738 L130 249.15909173215513 L131 250.02824756455294 L132 250.89740339695072 L133 251.7665592293485 L134 252.63571506174628 L135 253.50487089414406 L136 254.37402672654187 L137 255.24318255893962 L138 256.1123383913374 L139 256.98149422373524 L140 257.85065005613296 L141 258.7198058885308 L142 259.5889617209285 L143 260.45811755332636 L144 261.3272733857241 L145 262.1964292181219 L146 263.0655850505197 L147 263.9347408829175 L148 264.80389671531526 L149 265.67305254771304 L150 266.5422083801109 L151 267.4113642125086 L152 268.2805200449064 L153 269.14967587730416 L154 270.018831709702 L155 270.8879875420997 L156 271.75714337449756 L157 272.6262992068953 L158 273.4954550392931 L159 274.36461087169084 L160 275.2337667040887 L161 276.10292253648646 L162 276.97207836888424 L163 277.841234201282 L164 278.7103900336798 L165 279.5795458660776 L166 280.44870169847536 L167 281.31785753087314 L168 282.1870133632709 L169 283.0561691956687 L170 283.9253250280665 L171 284.7944808604643 L172 285.66363669286204 L173 286.5327925252599 L174 287.4019483576576 L175 288.27110419005544 L176 289.14026002245316 L177 290.009415854851 L178 290.8785716872488 L179 291.74772751964656 L180 292.61688335204434 L181 293.4860391844421 L182 294.3551950168399 L183 295.2243508492377 L184 296.09350668163546 L185 296.96266251403324 L186 297.831818346431 L187 298.7009741788288 L188 299.57013001122664 L189 300.43928584362436 L190 301.3084416760222 L191 302.1775975084199 L192 303.04675334081776 L193 303.9159091732155 L194 304.7850650056133 L195 305.6542208380111 L196 306.5233766704089 L197 307.39253250280666 L198 308.26168833520444 L199 309.1308441676022 L200 310 L201 309.1308441676022 L202 308.26168833520444 L203 307.39253250280666 L204 306.5233766704089 L205 305.6542208380111 L206 304.7850650056133 L207 303.9159091732155 L208 303.04675334081776 L209 302.1775975084199 L210 301.3084416760222 L211 300.43928584362436 L212 299.57013001122664 L213 298.7009741788288 L214 297.831818346431 L215 296.96266251403324 L216 296.09350668163546 L217 295.2243508492377 L218 294.3551950168399 L219 293.4860391844421 L220 292.61688335204434 L221 291.74772751964656 L222 290.8785716872488 L223 290.009415854851 L224 289.14026002245316 L225 288.27110419005544 L226 287.4019483576576 L227 286.5327925252599 L228 285.66363669286204 L229 284.7944808604643 L230 283.9253250280665 L231 283.0561691956687 L232 282.1870133632709 L233 281.31785753087314 L234 280.44870169847536 L235 279.5795458660776 L236 278.7103900336798 L237 277.841234201282 L238 276.97207836888424 L239 276.10292253648646 L240 275.2337667040887 L241 274.36461087169084 L242 273.4954550392931 L243 272.6262992068953 L244 271.75714337449756 L245 270.8879875420997 L246 270.018831709702 L247 269.14967587730416 L248 268.2805200449064 L249 267.4113642125086 L250 266.5422083801109 L251 265.67305254771304 L252 264.80389671531526 L253 263.9347408829175 L254 263.0655850505197 L255 262.1964292181219 L256 261.3272733857241 L257 260.45811755332636 L258 259.5889617209285 L259 258.7198058885308 L260 257.85065005613296 L261 256.98149422373524 L262 256.1123383913374 L263 255.24318255893962 L264 254.37402672654187 L265 253.50487089414406 L266 252.63571506174628 L267 251.7665592293485 L268 250.89740339695072 L269 250.02824756455294 L270 249.15909173215513 L271 248.28993589975738 L272 247.4207800673596 L273 246.5516242349618 L274 245.682468402564 L275 244.81331257016626 L276 243.94415673776845 L277 243.07500090537067 L278 242.2058450729729 L279 241.33668924057508 L280 240.46753340817733 L281 239.59837757577955 L282 238.72922174338174 L283 237.86006591098396 L284 236.9909100785862 L285 236.1217542461884 L286 235.25259841379062 L287 234.3834425813928 L288 233.51428674899503 L289 232.64513091659728 L290 231.77597508419947 L291 230.9068192518017 L292 230.03766341940394 L293 229.16850758700613 L294 228.29935175460835 L295 227.43019592221057 L296 226.56104008981276 L297 225.69188425741498 L298 224.82272842501723 L299 223.95357259261942 L300 223.08441676022167 L301 222.2152609278239 L302 221.34610509542608 L303 220.4769492630283 L304 219.6077934306305 L305 218.7386375982327 L306 217.86948176583493 L307 217.00032593343713 L308 216.1311701010394 L309 215.26201426864162 L310 214.3928584362438 L311 213.52370260384603 L312 212.65454677144825 L313 211.78539093905044 L314 210.91623510665266 L315 210.04707927425486 L316 209.1779234418571 L317 208.30876760945932 L318 207.43961177706157 L319 206.57045594466376 L320 205.70130011226598 L321 204.83214427986817 L322 203.9629884474704 L323 203.0938326150726 L324 202.22467678267483 L325 201.35552095027705 L326 200.48636511787927 L327 199.6172092854815 L328 198.7480534530837 L329 197.87889762068593 L330 197.00974178828812 L331 196.14058595589034 L332 195.27143012349254 L333 194.40227429109478 L334 193.533118458697 L335 192.66396262629925 L336 191.79480679390144 L337 190.92565096150366 L338 190.05649512910585 L339 189.18733929670807 L340 188.3181834643103 L341 187.44902763191251 L342 186.57987179951473 L343 185.71071596711698 L344 184.84156013471917 L345 183.9724043023214 L346 183.1032484699236 L347 182.2340926375258 L348 181.36493680512802 L349 180.49578097273027 L350 179.62662514033246 L351 178.75746930793468 L352 177.88831347553693 L353 177.01915764313912 L354 176.15000181074134 L355 175.28084597834354 L356 174.41169014594576 L357 173.54253431354797 L358 172.67337848115017 L359 171.80422264875241 L360 170.93506681635466 L361 170.06591098395685 L362 169.19675515155907 L363 168.3275993191613 L364 167.45844348676349 L365 166.5892876543657 L366 165.72013182196793 L367 164.85097598957012 L368 163.98182015717236 L369 163.1126643247746 L370 162.2435084923768 L371 161.37435265997902 L372 160.50519682758124 L373 159.63604099518344 L374 158.76688516278566 L375 157.8977293303879 L376 157.02857349799007 L377 156.15941766559231 L378 155.29026183319456 L379 154.42110600079673 L380 153.55195016839897 L381 152.68279433600117 L382 151.81363850360339 L383 150.9444826712056 L384 150.07532683880783 L385 149.20617100641005 L386 148.33701517401227 L387 147.46785934161448 L388 146.5987035092167 L389 145.72954767681892 L390 144.86039184442112 L391 143.99123601202336 L392 143.12208017962553 L393 142.2529243472278 L394 141.38376851482997 L395 140.5146126824322 L396 139.64545685003446 L397 138.77630101763663 L398 137.90714518523885 L399 137.03798935284107 " stroke = "black" stroke-width = "2" fill = "none" /></svg>