<svg width="600" height="400" viewbox = "0 0 600 400"  xmlns="http://www.w3.org/2000/svg">

<!--
<topfunctions>









function YofX(){
    X = plotparams.g*(x - plotparams.x0) - funcparams.X0;
    Y = funcparams.a*X*X*X + funcparams.b*X*X + funcparams.c*X + funcparams.d;
    y = plotparams.y0 - plotparams.G*(Y - funcparams.Y0);
}


function YofX2(){
    X = plotparams.g*(x - plotparams.x0) - funcparams.X0;
    Y = funcparams.b*X*X + funcparams.c*X + funcparams.d;
    y = plotparams.y0 - plotparams.G*(Y - funcparams.Y0);
}

function XYofT(){
    T = plotparams.g*t;
    X = Math.exp(-T/funcparams.tau)*Math.cos(2*Math.PI*T/funcparams.T);
    Y = Math.exp(-T/funcparams.tau)*Math.sin(2*Math.PI*T/funcparams.T);
    y = plotparams.y0 - plotparams.G*(Y - funcparams.Y0);
    x = plotparams.x0 - plotparams.G*(X - funcparams.X0);    
}

constants = {
}

plotparams = {
    "G":200,//1 unit = 10 pixel
    "g":1,//1 unit equals 1 pixels
    "duration":500,
    "plotwidth":400,
    "plotheight":400,
    "x0":200,
    "y0":400
}

funcparams = {
    "tau":150,
    "T":10,
    "X0":0,
    "Y0":0
}

function plotfunction(){


    currentStroke = "blue";
    currentLineWidth = 4;
    ctx.strokeStyle = currentStroke;
    ctx.lineWidth = currentLineWidth;
    ctx.beginPath();	
    x = 0;
    y = 0;
    t= 0;
    XYofT();
    currentSVG += "	<path d = \"M";
    currentSVG += Math.round(x).toString() + " ";
    currentSVG += Math.round(y).toString() + " ";
    for(t = 1;t < plotparams.duration;t++){
        ctx.moveTo(x,y);
        XYofT();
        ctx.lineTo(x,y);
        currentSVG += "L" + x + " " + y + " ";
    }
    ctx.stroke();
    currentSVG += "\""+ " stroke = \"" + currentStroke + "\" stroke-width = \"" + currentLineWidth.toString() + "\" fill = \"" + "none" + "\" "+"/>";


    /*plot one function:
    currentStroke = "blue";
    currentLineWidth = 4;
    ctx.strokeStyle = currentStroke;
    ctx.lineWidth = currentLineWidth;
    ctx.beginPath();	
    x = 0;
    YofX();
    currentSVG += "	<path d = \"M";
    currentSVG += Math.round(x).toString() + " ";
    currentSVG += Math.round(y).toString() + " ";
    for(x = 1;x < plotparams.plotwidth;x++){
        ctx.moveTo(x-1,y);
        YofX();
        ctx.lineTo(x,y);
        currentSVG += "L" + x + " " + y + " ";
    }
    ctx.stroke();
    currentSVG += "\""+ " stroke = \"" + currentStroke + "\" stroke-width = \"" + currentLineWidth.toString() + "\" fill = \"" + "none" + "\" "+"/>";
    /*finish plot one function*/
    
    

}


     
   
   
   
   

constants = {}
plotparams = {
    "G": 379.74983358324147,
    "g": 0.1,
    "duration": 1883.0570260326017,
    "plotwidth": 600,
    "plotheight": 400,
    "x0": 300,
    "y0": 200
}
funcparams = {
    "tau": 35.90880740537453,
    "T": 10,
    "X0": 0,
    "Y0": 0
}
   

constants = {}
plotparams = {
    "G": 379.74983358324147,
    "g": 0.1,
    "duration": 1883.0570260326017,
    "plotwidth": 600,
    "plotheight": 400,
    "x0": 300,
    "y0": 200
}
funcparams = {
    "tau": 35.90880740537453,
    "T": 10,
    "X0": 0,
    "Y0": 0
}
</topfunctions>
-->

<!--
<imgurl>

</imgurl>
-->

<!--
<currentjson>
{
    "constants": {},
    "imgurl": "",
    "plotparams": {
        "G": 379.74983358324147,
        "g": 0.1,
        "duration": 1883.0570260326017,
        "plotwidth": 600,
        "plotheight": 400,
        "x0": 300,
        "y0": 200
    },
    "funcparams": {
        "tau": 35.90880740537453,
        "T": 10,
        "X0": 0,
        "Y0": 0
    }
}
</currentjson>
-->

<!--
<equation>





<p style="color:blue">

</p><p class="bigeq">
$$
(X,Y) = (e^{-t/\tau}\cos{\frac{2\pi t}{T}},e^{-t/\tau}\sin{\frac{2\pi t}{T}})

$$
</p>
<p></p>

$$
X = g(x - x_0) - X_0
$$
$$
Y = f(X)
$$
    
$$
y = y_0 - G(Y - Y_0)
$$


<p>
    X and Y, and $X_0$ and $Y_0$ in physical units of the System. x and y and x0 and y0 in pixels.  G is in pixels per Y unit and g is in X units per pixel. 
</p>








</equation>
-->
	<path d = "M-80 200 L-77.94649957954687 176.22162173927114 L-74.66282454745203 152.6690782480571 L-69.91997909238336 129.43398998364898 L-63.744770183572996 106.60621670487058 L-56.16950414069879 84.2735129071793 L-47.231828695923525 62.521193473231534 L-36.97455487034949 41.43181080061558 L-25.44545947939747 21.08484461618758 L-12.697069153482005 1.5564056297033346 L1.2135731716784903 -17.081045881537534 L16.22515827695065 -34.75896553025834 L32.27237611625043 -51.412973360836986 L49.28619557508165 -66.98308458888124 L67.19415734853953 -81.41392172774852 L85.92067871100613 -94.65490736891076 L105.38736890968892 -106.66043696342626 L125.51335387930467 -117.39003103426597 L146.21560894568913 -126.80846633351945 L167.40929816201 -134.88588554423342 L189.008118902639 -141.59788521346098 L210.92465032664364 -146.9255816906835 L233.07070431530974 -150.8556549337526 L255.35767748610078 -153.38037013253881 L277.69690288897783 -154.49757718822468 L300 -154.21068817328756 L322.17922164153174 -152.52863298335438 L344.1477964781169 -149.46579347693284 L365.8202657620278 -145.0419164822082 L387.112813032539 -139.28200613132168 L407.9435855079571 -132.21619606150892 L428.2330059492037 -123.87960209886961 L447.9040738180976 -114.31215611408538 L466.88265460224164 -103.55842180981631 L485.0977562313421 -91.66739326653618 L502.4817915666618 -78.69227713696591 L518.9708260058907 -64.6902594387941 L534.5048093097162 -49.722257950838014 L549.0277908235744 -33.85266126898023 L562.4881173381202 -17.149055624958123 L574.8386129046195 0.31805938679090673 L586.0367399964276 18.475564991649122 L596.0447414846469 37.24802611160939 L604.8297629746771 56.55800169371997 L612.3639551303243 76.32636122507003 L618.6245556931283 96.47260615184399 L623.5939509862582 116.91519490775592 L627.2597167743918 137.57187025012615 L629.61463843312 158.35998760000533 L630.6567104632577 179.1968430860178 L630.3891154667008 199.99999999999997 L628.8201827808064 220.68761238593885 L625.9633270473961 241.17874450212304 L621.8369670700665 261.39368491969617 L616.4644253892637 281.2542540488113 L609.8738090782192 300.6841039162284 L602.0978723341141 319.609009055274 L593.1738615074225 337.95714741046044 L583.1433432780764 355.65937020453714 L572.0520167496074 372.6494597651048 L559.9495102915607 388.864374360986 L546.8891640159991 404.24447915503345 L532.9277988256558 418.73376243977316 L518.125473019024 432.2800363849442 L502.5452274812801 444.8351215913457 L486.25282052922444 456.3550148131867 L469.3164535132868 466.80003928104287 L451.806488309971 476.1349771292893 L433.795157863793 484.32918350520515 L415.35627095873394 491.35668201152515 L396.56491241543654 497.1962412097592 L377.4971399217645 501.83143198779226 L358.2296787109111 505.25066567183364 L338.83961530298666 507.4472128393769 L319.40409152296127 508.4192028661752 L300.00000000000006 508.16960431602496 L280.7036823407079 506.7061863570902 L261.5906311516218 504.04146146229635 L242.73519706458856 500.1926097236946 L224.21030189252792 495.1813851813678 L206.08715901264333 489.03400463614514 L188.43500203955537 481.7810194818602 L171.32082281223302 473.4571711568669 L154.80911967619406 464.10123087579615 L138.9616569963841 453.7558243608452 L123.83723678668 442.4672423470581 L109.49148328924599 430.2852376878409 L95.97664128128912 417.2628099352132 L83.34138882830501 403.4559783138294 L71.63066514194722 388.92354404846117 L60.88551413743292 373.72684304129166 L51.14294422018986 357.9294899278882 L42.435804764505235 341.59711456899987 L34.79267967855105 324.7970920592898 L28.237798380585275 307.5982673536597 L22.79096444067858 290.0706756269517 L18.467502071229887 272.28525949342554 L15.278220578143703 254.3135842185435 L13.229396813089807 236.22755205721776 L12.322775596060808 218.09911684982734 L12.555588006751236 200.00000000000006 L13.920587373382489 182.00140894647646 L16.406102718764487 164.17375922535183 L19.99610935587924 146.58640119874195 L24.670316259354706 129.3073525015546 L30.404269775121236 112.40303722964391 L37.16947316854629 95.9380328603664 L44.93352145166324 79.97482586056151 L53.66025087296734 64.57357689741406 L63.3099023988579 49.79189652470734 L73.83929846435373 35.684632170826035 L85.20203222240781 22.303667205697764 L97.34866847612437 9.69773281193801 L110.22695543666637 -2.0877666690872445 L123.7820464116854 -13.010914302390233 L137.95673049494587 -23.03342648079419 L152.69167129746418 -32.12078370858001 L167.92565273410895 -40.24234581571034 L183.59583085727274 -47.37145123478345 L199.63799071095843 -53.48550003775068 L215.9868071645589 -58.566020495166754 L232.57610867566459 -62.59871898702289 L249.33914292554672 -65.57351316082145 L266.208843269426 -67.48454829918558 L283.11809494631206 -68.33019692571997 L299.99999999999994 -68.11304174377346 L316.7881398737219 -66.83984206795435 L333.4168346558823 -64.52148397245287 L349.82139797319564 -61.172914443191075 L365.9383865502792 -56.81305988230298 L381.7058434812358 -51.46472937321772 L397.0635342888597 -45.15450317244151 L411.9531748806675 -37.912606949804854 L426.31865054787147 -29.772772352234824 L440.10622519344736 -20.772084516860616 L453.2647400185382 -10.95081720723087 L465.74580094224683 -0.35225629150133386 L477.5039540783489 10.977487676579955 L488.496848643304 22.989676974318513 L498.6853867229727 35.633153489392555 L508.0338593804582 48.85455389501004 L516.5100686442204 62.598532325769355 L524.0854349738497 76.80798963448584 L530.7350898603903 91.42430828940125 L536.437953278629 106.38759195418375 L541.1767957700645 121.63690877996487 L544.9382849971101 137.11053742942931 L547.7130166712034 152.74621484763023 L549.495529819652 168.481384792801 L550.2843064180014 184.2534461429009 L550.0817554762093 199.99999999999991 L548.8941817277272 215.65909462476966 L546.7317391304755 231.16946724728 L543.6083694474287 246.4707818179269 L539.5417262318786 261.50386178349953 L534.5530845981857 276.2109169981336 L528.667237212775 290.53576390693047 L521.9123769920466 304.4240381713647 L514.3199670435904 317.82339894001507 L505.9245984344242 330.68372400551505 L496.76383641472154 342.95729512878495 L486.8780557675417 354.5989728543668 L476.310265994221 365.5663601858814 L465.1059270812265 375.8199545380583 L453.312756627274 385.3232874312595 L440.9805291392488 394.0430514457213 L428.16086833186336 401.9492140056582 L414.907033288942 409.0151176176856 L401.273699363641 415.21756624353907 L387.31673471082286 420.5368975434957 L373.0929733570256 424.95704078410665 L358.65998572211913 428.46556026151205 L344.0758475117141 431.053684149554 L329.39890790067665 432.7163187398903 L314.687557925837 433.45204809908455 L300.0000000000001 433.2631192250273 L285.394019449927 432.15541284175595 L270.92675896793065 430.13840002760855 L256.6544968503049 427.2250849264208 L242.6324298760416 423.43193384497465 L228.9144616562184 418.7787910918972 L215.5529972582898 413.2887819635266 L202.59874488027978 406.9882033306879 L190.10052531778047 399.90640232669375 L178.1050899318041 392.0756436810302 L166.65694778807844 383.5309662849327 L155.79820259848725 374.3100296142645 L145.56840005320936 364.4529506716403 L136.0043860878466 354.0021321434247 L127.14017658371591 343.00208249804734 L119.00683895160302 331.4992287797839 L111.63238599993034 319.5417228767912 L105.04168243762379 307.1792420635916 L99.2563643101798 294.46278463631427 L94.29477161479738 281.44446147383377 L90.17189428708903 268.17728436936534 L86.89933169809518 254.71495198512707 L84.4852657462792 241.11163428732033 L82.9344475750986 227.42175631989886 L82.24819789285255 213.6997821734538 L82.42442081799297 200.0000000000001 L83.45763112018113 186.37630891560931 L85.33899467526734 172.8820086207093 L88.05638190127414 159.5695925525523 L91.59443389257228 146.49054536588082 L95.93464092093103 133.69514551637047 L101.05543292520613 121.23227369695195 L106.93228156624332 109.14922784992939 L113.53781338033713 97.49154544780379 L120.8419335233979 86.30283370325104 L128.81195955904346 75.62460833374362 L137.4127647072667 65.4961414690955 L146.6069299362559 55.95431925090216 L156.35490424851312 47.03350963156757 L166.61517248369393 38.765440837583554 L177.34442993473013 31.179090917077474 L188.49776305082395 24.30058874561871 L200.02883548093962 18.153126817003653 L211.89007869450577 12.756886097456174 L224.03288640223758 8.12897317256028 L236.4078119892963 4.283369866505183 L248.96476816553496 1.2308954630276503 L261.6532280332176 -1.0208183929602512 L274.4224267714851 -2.4673400845229025 L287.22156313883016 -3.1074377243650986 L299.9999999999999 -2.943066240651973 L312.707463092027 -1.9793419679839133 L325.294237255354 -0.22450491311749943 L337.7113593703464 2.3101310873118734 L349.91080725667786 5.610240053273742 L361.8456838131256 9.65855708299685 L373.4703956980982 14.43496275699394 L384.7408258766152 19.916578329514778 L395.6144993874092 26.077871272143113 L406.05074171414043 32.89077069585494 L416.0108291772827 40.324792141518856 L425.4581307979714 48.34717119472418 L434.35824112176584 56.92300534904075 L442.6791035287656 66.01540351248349 L450.3911235966807 75.58564252518728 L457.46727212506914 85.59333003214407 L463.88317747192366 95.9965730334646 L469.6172068978417 106.75215141596803 L474.650536658079 117.81569575415709 L478.9672106285869 129.14186865574155 L482.5541872985335 140.68454891691493 L485.401375008624 152.39701774561382 L487.5016553615421 164.23214630691666 L488.8508947779004 176.14258384371647 L489.4479442179679 188.0809456276385 L489.29462713600174 199.9999999999999 L488.395715780044 211.8528537703148 L486.7588959953687 223.59313525037638 L484.3947207342251 235.17517421529726 L481.3165525179276 246.55417809892717 L477.5404951395444 257.6864037497801 L473.0853149362579 268.52932409483924 L467.97235199978195 279.0417890823095 L462.2254217308391 289.1841803004629 L455.8707071795307 298.9185586979833 L448.9366426473173 308.20880486161275 L441.4537890581264 317.0207513392969 L433.4547016357626 325.3223065312056 L424.9737904521306 333.08356970693376 L416.04717443577516 340.276936744614 L406.71252945274944 346.8771962265123 L397.00893109179333 352.86161556573995 L386.97669280318047 358.2100168798251 L376.6572000553143 362.90484236889523 L366.09274118515566 366.9312089989628 L355.3263356278548 370.27695233408105 L344.4015602174872 372.93265940479546 L333.3623742545535 374.8916905441755 L322.25294403691015 376.1501901665961 L311.11746754902384 376.7070865081805 L299.99999999999983 376.5640803912337 L288.9442808935945 375.7256231179383 L277.9935633036442 374.1988836408599 L267.1904460158651 371.99370519927834 L256.5767091820245 369.12255165084923 L246.19315411504226 365.6004437674609 L236.0794478337479 361.4448858022297 L226.2739729439399 356.6757826712429 L216.81368341805194 351.31534812874787 L207.73396680938333 345.3880043479103 L199.0685134084751 338.92027335085425 L190.84919281903632 331.9406607613829 L183.1059383989131 324.47953238142094 L175.86663997808512 316.5689841177243 L169.15704523078097 308.24270580872053 L163.00067004255362 299.5358395223238 L157.41871817581054 290.48483291421155 L152.43001049893442 281.1272882522486 L148.0509240049505 271.50180772647593 L144.29534080582957 261.6478356752755 L141.17460724815817 251.60549836700093 L138.6975032551731 241.41544198242872 L136.87022195926016 231.1186694469208 L135.6963596480718 220.75637676209197 L135.176916006629 210.36978948516335 L135.31030459726708 200.0000000000001 L136.09237347923477 189.68780621711016 L137.51643583032134 179.4735523307358 L139.57331039420768 169.39697224954412 L142.2513715394729 159.49703630347463 L145.53660867947076 149.81180181302892 L149.4126947667761 140.37826808879487 L153.8610635417052 131.23223640837955 L158.86099518167188 122.40817549526633 L164.3897099669805 113.93909299948703 L170.4224695491775 105.85641345356795 L176.93268538040456 98.1898631490406 L183.89203383640967 90.96736234904577 L191.2705775420717 84.21492522132539 L199.03689238657375 77.95656784330781 L207.15819969574824 72.21422459723253 L215.600503011775 67.00767323837368 L224.3287289152616 62.35446888368577 L233.30687131195913 58.2698871316193 L242.49813859590165 54.76687648668863 L251.86510309268127 51.856020224717525 L261.36985218090575 49.545507796699155 L270.97414048658163 47.84111583106164 L280.6395425443341 46.74619875593501 L290.32760532086763 46.26168902497196 L299.9999999999996 46.38610689248901 L309.61867243481737 47.11557964634599 L319.1459916810976 48.44387017019014 L328.54489603693105 50.362414670620296 L337.7790360265142 52.860369369596015 L346.81291378127094 55.92466592817749 L355.6120182886714 59.54007533454495 L364.14295599839033 63.689279957358536 L372.37357629656015 68.35295343497651 L380.2730913818475 73.50984804198524 L387.812190101733 79.1368891469963 L394.9631453336506 85.20927634984733 L401.69991452340594 91.70059086229709 L407.9982330224252 98.58290867410065 L413.8356998957732 105.8269190260842 L419.1918559043942 113.40204769357061 L424.0482533975265 121.27658456728368 L428.3885178846303 129.41781500479016 L432.1984010902338 137.79215441356547 L435.4658253297947 146.36528551703412 L438.1809190797974 155.10229774740856 L440.3360436507261 163.96782820383322 L441.92581090715635 172.92620361131682 L442.9470920148102 181.94158271509036 L443.39901722992283 190.97809854647895 L443.2829667815041 199.9999999999999 L442.60255293191994 208.97179216723254 L441.36359333553133 217.85837488098636 L439.5740758487792 226.62517893338293 L437.2441149779579 235.23829944362996 L434.38590018286357 243.66462586540183 L431.01363628540776 251.87196813983047 L427.14347626202925 259.8291785180688 L422.793446727229 267.5062685970792 L417.9833664426635 274.87452113373683 L412.7347582118756 281.9065962253291 L407.0707545448274 288.5766314690405 L401.01599749883144 294.86033573890586 L394.5965331231822 300.735076245891 L387.83970095370023 306.1799585751 L380.7740190204302 311.17589942351424 L373.4290648468758 315.705691791964 L365.8353529322809 319.7540624161848 L358.02420921961635 323.30772125359135 L350.0276430610329 326.355402874748 L341.8782171995445 328.8878996412873 L333.608916290679 330.8980865850572 L325.25301449064824 332.3809379364907 L316.84394263837385 333.33353528339944 L308.4151555573569 333.75506737450644 L300.00000000000034 333.6468216148985 L291.6315837515525 333.012167333079 L283.34264640338745 331.8565309313069 L275.16543229593464 330.1873630622928 L267.13156612022993 328.0140980059711 L259.2719316538614 325.34810544985976 L251.61655409209084 322.20263490534677 L244.19448641816888 318.592753019984 L237.03370023849953 314.5352740724443 L230.1609814883227 310.04868396208616 L223.60183139212361 305.1530580289892 L217.38037304012886 299.8699730627877 L211.51926391809266 294.2224138795545 L206.03961470222958 288.2346748653014 L200.9609146047108 281.93225690229457 L196.3009635277294 275.34176011028376 L192.07581125584858 268.4907728488356 L188.2997038873341 261.4077574392478 L184.9850376754926 254.1219330748858 L182.14232042088082 246.66315639728035 L179.78014052468902 239.06180022188062 L177.9051437827784 231.34863090195466 L176.52201796888704 223.55468482179566 L175.63348522453595 215.71114451109315 L175.2403022422834 207.8492148710923 L175.34126819832028 200.0000000000001 L175.9332403600833 192.19438110001627 L177.01115726471318 184.46289594144528 L178.56806933490805 176.8356203505359 L180.59517677013503 169.34205217714748 L183.08187452337557 162.01099818601472 L186.01580414669564 154.87046430139168 L189.3829122630402 147.94754961926495 L193.16751539688647 141.2683445841254 L197.35237087278273 134.8578337087122 L201.91875346849983 128.73980319508752 L206.8465374885713 122.93675379409655 L212.11428390446014 117.46981921775733 L217.6993321896116 112.35869039543587 L223.57789646116908 107.62154584004917 L229.72516552531812 103.27498836494337 L236.1154064100769 99.33398836571158 L242.72207095788937 95.8118338541558 L249.51790504070942 92.72008740391368 L256.4750599523429 90.06855013913838 L263.56520552668786 87.86523286912372 L270.75964452624885 86.11633444299906 L278.02942784277957 84.8262273697557 L285.3454700512879 83.99745071995069 L292.67866485976947 83.63071029663686 L300.0000000000001 83.72488603447047 L307.280671109434 84.27704655767336 L314.4921941607497 85.28247079967998 L321.6065160037667 86.73467655999707 L328.5961225943045 88.62545584713386 L335.4341444960725 90.94491683054814 L342.09445925469004 93.68153219946682 L348.5517902575314 96.82219370230526 L354.78180170908 100.35227261729348 L360.7611893688371 104.25568588290594 L366.4677667175307 108.51496759589453 L371.8805462372301 113.11134556517213 L376.9798155119827 118.02482259158235 L381.7472078776725 123.23426212680938 L386.16576737276716 128.71747794931966 L390.2200077654872 134.451327481399 L393.89596545754745 140.41180835910143 L397.1812460898492 146.5741578562152 L400.06506470133934 152.91295475435697 L402.5382793184757 159.40222324389188 L404.5934178793328 166.01553843468582 L406.22469842320425 172.7261330516983 L407.42804250348695 179.50700488809005 L408.2010818085984 186.33102458792322 L408.5431580025423 193.17104333161004 L408.4553158234095 199.9999999999999 L407.9402895044765 206.7910273974366 L407.00248260853425 213.5175571201268 L405.6479413915507 220.15342266382805 L403.8843218366425 226.672960374046 L401.7208505235047 233.0511078526497 L399.16827952184343 239.26349944697932 L396.2388355198726 245.28655846111297 L392.946163420492 251.09758574388533 L389.3052646582965 256.67484432444223 L385.3324305099675 261.99763978355344 L381.0451706888372 267.04639606742603 L376.4621375313869 271.80272647038566 L371.60304609911736 276.2494995333502 L366.4885905335476 280.37089962646985 L361.1403570149812 284.1524820065725 L355.580733687136 287.5812221629921 L349.83281791969296 290.64555928890917 L343.92032128922585 293.335433739424 L337.86747266588196 295.6423183620451 L331.698919798499 297.5592436100798 L325.43962979456296 299.0808163744343 L319.1147888935947 300.2032324944476 L312.7497019331129 300.9242829335348 L306.3696919053049 301.24335363047567 L299.99999999999994 301.16141906205814 L293.66568652538376 300.6810295773933 L287.3915330922924 299.8062925884367 L281.2019464407828 298.54284772501285 L275.1208642790919 296.89783608583593 L269.1716634951192 294.8798637395709 L263.37707108920284 292.49895965179746 L257.75907816429793 289.76652823474546 L252.33885729572611 286.6952967367732 L247.13668358758014 283.2992577077161 L242.17185970658684 279.59360679432496 L237.4626451669635 275.5946761370259 L233.0261901215062 271.319863655072 L228.87847389495553 266.78755852176687 L225.03424847569323 262.01706314480157 L221.5069871610508 257.028511978768 L218.3088385301138 251.84278750758494 L215.45058589594083 246.48143374387934 L212.94161236664024 240.96656760018936 L210.78987162193795 235.32078849331475 L209.00186448872546 229.5670865480841 L207.58262137574695 223.72874977028934 L206.53569060415109 217.8292705605705 L205.86313264717506 211.89225194154616 L205.56552026885504 205.94131386955627 L205.6419445284538 200.0000000000001 L206.0900265943464 194.09168527138436 L206.90593528851315 188.23948466797594 L208.0844102606273 182.46616351427798 L209.61879066908682 176.794049646561 L211.50104922530699 171.24494779735576 L213.7218314372364 165.84005651823048 L216.2704998684713 160.5998879543461 L219.13518321058473 155.5441907713026 L222.30282994842563 150.69187652070173 L225.75926638126614 146.06094971567308 L229.48925874680242 141.66844187150573 L233.47657918024987 137.53034974945368 L237.70407522713737 133.6615780238909 L242.15374261595 130.07588657433382 L246.80680098554922 126.78584258448537 L251.64377225235077 123.80277761048497 L256.644561293556 121.13674976006963 L261.788538615436 118.79651110338234 L267.0546246696438 116.78948041488974 L272.4213754759147 115.12172132428539 L277.8670692062766 113.79792593248793 L283.36979338398305 112.82140392699382 L288.90753234992064 112.19407720895676 L294.45825465009017 111.91648002256981 L300.00000000000006 111.9877645556799 L305.51096548540954 112.40571195915948 L310.96959066373245 113.16674871148768 L316.35464123663354 114.26596823432128 L321.6452909718127 115.6971576446544 L326.8212015606449 117.4528295095446 L331.86260010825185 119.52425845040285 L336.7503539635827 121.90152242557045 L341.46604260919486 124.57354850240645 L345.9920263435936 127.52816291346072 L350.31151150310393 130.75214517554986 L354.4086119853034 134.2312860357607 L358.26840685195486 137.9504489946276 L361.87699380607285 141.89363514401572 L365.2215383551524 146.0440510456149 L368.29031849066575 150.38417936550033 L371.07276473254063 154.89585197091475 L373.55949540645327 159.56032518734943 L375.7423470413134 164.35835690717556 L377.6143997941687 169.27028523546488 L379.16999782989683 174.2761083543495 L380.40476460334014 179.35556528422225 L381.3156130119323 184.48821721831706 L381.90075040727686 189.6535291067791 L382.159678474466 194.83095116711263 L382.09318800812184 200.00000000000017 L381.70334863410596 205.1403389928236 L380.9934935454973 210.23185769778166 L379.96819934072437 215.25474987729103 L378.63326107055576 220.1895899163212 L376.99566261896126 225.01740730940398 L375.0635425605526 229.7197589393026 L372.8461556543669 234.27879887457323 L370.35383015006727 238.67734542458004 L367.597921098176 242.89894520276948 L364.59075987064455 246.92793396220515 L361.34560011186625 250.7494939813931 L357.8765603530902 254.34970779326997 L354.1985635350508 257.71560806580055 L350.32727369447633 260.8352234588534 L346.2790300798806 263.6976202988893 L342.0707789707301 266.2929399303426 L337.72000348158946 268.61243162042945 L333.2446516392447 270.64848091232335 L328.66306302601396 272.3946333401696 L323.9938942864701 273.8456134381911 L319.25604379763655 274.9973389950609 L314.4685758043658 275.84693052373825 L309.650644322006 276.3927159360062 L304.82141710773703 276.6342304299061 L299.9999999999997 276.5722116171038 L295.2053619223168 276.2085899358399 L290.4562608435534 275.5464744134528 L285.77117098127115 274.5901338604474 L281.1682115283164 273.34497359563943 L276.665077175253 271.8175078189793 L272.2789706926181 270.01532776516694 L268.02653782742306 267.9470657870763 L263.92380475776224 265.62235553322364 L259.98611833795485 263.0517883980059 L256.22808935435734 260.2468664371422 L252.66353899887875 257.21995195361774 L249.30544875340573 253.9842139714253 L246.16591386380222 250.55357182545234 L243.25610056702558 246.9426361059833 L240.58620721916765 243.16664720537304 L238.165429456048 239.24141172254704 L236.00192950133925 235.1832369879995 L234.10280972021528 231.0088639779135 L232.47409049923027 226.7353988908943 L231.1206925156252 222.38024366455625 L230.0464234415976 217.96102571184053 L229.25396911133637 213.49552715848222 L228.74488916085897 209.00161386341728 L228.51961713300605 204.49716450324024 L228.57746502237865 200.0000000000001 L228.9166322176343 195.52781356870352 L229.53421878145707 191.09810165694168 L230.4262429917424 186.7280960439993 L231.58766305115893 182.4346973607647 L233.01240285632684 178.23441028470538 L234.6933817024522 174.14328065613932 L236.6225477844211 170.17683475311233 L238.79091534116438 166.35002095234435 L241.1886052765874 162.67715399303637 L243.80488907757086 159.17186204887648 L246.6282358375524 155.8470368013481 L249.64636218301064 152.71478669455138 L252.84628488984967 149.78639353820063 L256.21437596726753 147.07227261132178 L259.7364199781879 144.58193640453388 L263.3976733578006 142.3239621236808 L267.18292548520225 140.30596306206382 L271.0765612575809 138.5345639326736 L275.0626249118413 137.0153802357051 L279.12488483508287 135.75300172029733 L283.24689910286804 134.7509799829759 L287.41208148279657 134.01182022872638 L291.6037676405399 133.53697720406362 L295.8052812861286 133.3268552949661 L299.99999999999955 133.38081276615367 L304.1714204810083 133.69717010199156 L308.3032229623138 134.27322239334902 L312.3793345457632 135.10525569909416 L316.38399121102395 136.18856729563237 L320.3017982623079 137.51748971304215 L324.11778898300656 139.08541844199652 L327.81748127689497 140.88484318182327 L331.38693208373496 142.9073824868163 L334.81278936706735 145.1438216553043 L338.08234148266257 147.58415369405353 L341.18356374751687 150.21762317939508 L344.105162041295 153.0327728260225 L346.8366132847768 156.0174925647932 L349.36820265303004 159.15907092206453 L351.69105739470524 162.44424848518054 L353.7971771429401 165.8592732316894 L355.67946061783647 169.3899574937601 L357.3317286352582 173.02173632409347 L358.7487433517291 176.7397270253813 L359.92622369045273 180.52878960211294 L360.8608569088328 184.3735878912273 L361.55030628331247 188.25865112678056 L361.9932149027924 192.16843569345394 L362.1892055772831 196.0873868243368 L362.1388768837295 199.9999999999997 L361.84379538605384 203.8908818084167 L361.30648408134516 207.74481002871264 L360.53040713871644 211.54679270615355 L359.5199510115993 215.28212599100368 L358.2804020180999 218.93645052005292 L356.8179204974387 222.4958061265786 L355.1395116634021 225.9466846722836 L353.2529932880832 229.27608080331404 L351.16696036095044 232.47154044173578 L348.8907468794053 235.52120683383322 L346.43438493742775 238.413863987221 L343.8085612886493 241.13897733997797 L341.02457156915773 243.6867315168166 L338.0942723735543 246.04806503957298 L335.03003138515714 248.2147018720681 L331.84467576781344 250.179179692528 L328.5514390324864 251.93487480024976 L325.1639065966004 253.4760235769993 L321.69596025808966 254.79774043764104 L318.1617218091308 255.89603221871778 L314.5754960166808 256.7678089680274 L310.9517131981943 257.410891112635 L307.304871621193 257.8240129971755 L303.649479954818 258.0068227986489 L300.00000000000017 257.959878838173 L296.3707899225237 257.68464232424833 L292.77604821006355 257.18346657597135 L289.22975857013955 256.45958278824173 L285.7456359810681 255.51708241430373 L282.33707410224065 254.36089625388072 L279.017094243541 252.99677034765944 L275.79829608649374 251.43123879092224 L272.69281034171814 249.67159359063876 L269.7122535186238 247.72585170130114 L266.86768497398225 245.60271938516627 L264.1695663960678 243.3115540522924 L261.6277238706288 240.86232374485724 L259.2513126639167 238.26556443859624 L257.0487848465639 235.5323353418657 L255.0278598701963 232.67417237971878 L253.19549819640582 229.7030400565004 L251.55787806511935 226.63128189579 L250.12037547653634 223.47156966102082 L248.8875474477243 220.2368515637905 L247.86311859170743 216.94029966971368 L247.04997105351714 213.59525671366472 L246.45013782424599 210.21518253742346 L246.06479944070597 206.81360036302186 L245.89428406490262 203.40404311457704 L245.93807092423802 200.00000000000009 L246.19479708021223 196.614863561786 L246.66226748044357 193.2618774030798 L247.33746823613524 189.95408479138382 L248.21658305471485 186.7042783377239 L249.29501274532342 183.5249509437175 L250.56739770317432 180.42824820292796 L252.02764326756707 177.42592243614502 L253.66894783761023 174.5292885327406 L255.48383361945957 171.74918176222266 L257.464179869213 169.0959177113966 L259.6012584865184 166.57925449330276 L261.8857718054725 164.20835736434717 L264.30789242159506 161.9917658757621 L266.85730488651444 159.9373636748607 L269.52324909557603 158.0523510604477 L272.2945651878855 156.34322038530962 L275.15973977332413 154.81573438697188 L278.1069532968867 153.47490751590166 L281.12412834724887 152.3249903181391 L284.198978713823 151.36945691697764 L287.3190589947051 150.6109956258401 L290.4718145568237 150.0515027119801 L293.6446316493387 149.69207931809638 L296.8248874718159 149.533031536462 L300 149.57387361776534 L303.1574773740548 149.81333428459868 L306.2849666569451 150.24936610745476 L309.3703017741928 150.87915788924963 L312.40155045050994 151.69914999282526 L315.3670599637942 152.7050525346449 L318.2555015426441 153.89186635702123 L321.05591323983435 155.25390668073914 L323.7577411211784 156.7848293299245 L326.35087861669336 158.4776594114518 L328.82570388911216 160.32482232217072 L331.1731150833979 162.3181769487508 L333.38456333002716 164.44905091704803 L335.45208338438067 166.70827774061274 L337.36832179454575 169.08623571130062 L339.12656250018705 171.57288836895424 L340.720749775811 174.1578263818039 L342.1455084426969 176.83031066459756 L343.3961612849686 179.57931655756784 L344.4687436166538 182.3935788861221 L345.36001495811644 185.26163771868872 L346.0674677918719 188.17188463840165 L346.5893333794785 191.11260934330244 L346.92458463289404 194.07204638948446 L347.072936045332 197.03842189205554 L347.03484069822315 199.99999999999974 L346.81148437232525 202.9451289629345 L346.4047768022864 205.86228661036327 L345.8173401250126 208.74012506736412 L345.05249458297885 211.56751453461274 L344.1142415541066 214.3335859653052 L343.0072439899712 217.02777247682738 L341.7368043538781 219.63984934087915 L340.3088401596842 222.15997240228072 L338.72985722115226 224.5787147836729 L337.0069207300414 226.88710174089815 L335.14762428903435 229.076643541899 L333.16005703298254 231.1393662504438 L331.05276897873006 233.06784030494003 L328.83473474999363 234.85520679188272 L326.5153158293732 236.49520132313236 L324.10422149451273 237.98217543618907 L321.6114685997754 239.31111544681815 L319.04734036842495 240.4776586938472 L316.42234436331483 241.47810712655308 L313.74716980637237 242.30943819582518 L311.0326444188063 242.96931302112836 L308.2896909548839 243.45608181619505 L305.52928360238406 243.768786567275 L302.7624044223945 243.9071609686415 L300.00000000000017 243.87162763084302 L297.25293847563637 243.66329258785532 L294.5319671244291 243.28393713979779 L291.84767064775247 242.7360070781778 L289.2104303375252 242.02259935069134 L286.63038426941444 241.1474462323828 L284.1173886762135 240.11489707943468 L281.68098064715144 238.92989775096368 L279.330342292849 237.59796779291796 L277.0742665091086 236.12517548648347 L274.92112446563834 234.51811087124275 L272.8788349383494 232.7838568607194 L270.95483559591366 230.9299585748037 L269.1560563429456 228.9643910198869 L267.4888948135147 226.8955252533392 L265.95919409967087 224.73209317416485 L264.5722227903965 222.4831510863089 L263.3326573868668 220.15804218511613 L262.24456715015714 217.76635812084356 L261.3114014276422 215.31789979592799 L260.5359794942916 212.82263755484414 L259.92048293495566 210.29067092691702 L259.46645058356535 207.73218808331524 L259.17477602500156 205.15742516968447 L259.0457076552511 202.57662567547848 L259.07885128540346 200.00000000000009 L259.27317526509023 197.4376853735054 L259.62701809117084 194.89970628944175 L260.13809845785835 192.39593560100414 L260.8035276950925 189.93605643173768 L261.61982453285043 187.52952504584812 L262.5829321202519 185.18553481932204 L263.6882372198277 182.9129814477985 L264.93059148918013 180.72042952152762 L266.30433475451883 178.61608059162972 L267.80332017324076 176.60774284528742 L269.420941175832 174.7028025005235 L271.15016007096955 172.90819702381106 L272.9835381917938 171.23039026599457 L274.913267455905 169.67534960392612 L276.93120320679066 168.24852516680355 L279.0288982000573 166.9548312175551 L281.19763759409 165.79862975071808 L283.4284748015893 164.7837163591757 L285.71226805581773 163.91330841288965 L288.0397175434115 163.19003558339264 L290.4014029541659 162.61593273838662 L292.78782129742234 162.19243522129392 L295.189424834453 161.92037652113152 L297.5966589766099 161.79998832862242 L299.9999999999997 161.83090296506626 L302.3899924289716 162.0121581612146 L304.7572859428436 162.34220415425312 L307.09267166299344 162.81891306203084 L309.38711768064553 163.43959048492087 L311.631803689493 164.20098927719317 L313.8181545915459 165.0993254215422 L315.9378729493988 166.13029593249155 L317.98297016335124 167.2890987068075 L319.94579625752664 168.5704542318322 L321.81906816525594 169.96862905581378 L323.59589641052713 171.4774609178972 L325.26981008919245 173.0903854294616 L326.8347800608719 174.80046419297665 L328.28524027003476 176.6004142395094 L329.6161071225804 178.48263866148278 L330.8227968523032 180.4392583132454 L331.9012408199305 182.4621444485212 L332.8478986958864 184.54295216083767 L333.65976948654986 186.67315449060015 L334.3344003725092 188.8440770606253 L334.8698933361085 191.04693310061032 L335.2649095644333 193.27285872026894 L335.51867162273044 195.51294829066913 L335.63096340206897 197.7582897936318 L335.60212785381856 200.00000000000006 L335.43306253216485 202.2292593389891 L335.125212974418 204.43734632284568 L334.6805639572243 206.6156713935342 L334.1016286749596 208.75581006119432 L333.39143589451703 210.8495352076269 L332.5535151483816 212.88884843206543 L331.5918800352759 214.8660103209434 L330.5110097047362 216.77356952827742 L329.3158286087209 218.60439055859118 L328.01168460972025 220.35168015003492 L326.60432554082075 222.00901216144038 L325.09987431875703 223.5703508734763 L323.50480271611923 225.03007262083938 L321.8259039035931 226.38298567943835 L320.0702638773345 227.6243483398485 L318.24523189034255 228.74988510583927 L316.3583900099624 229.75580096451168 L314.4175219264104 230.6387936824887 L312.4305811394883 231.3960640906287 L310.40565865237687 232.02532432788496 L308.3509503026529 232.52480402313245 L306.27472386136026 232.8932544020421 L304.18528603115954 233.12995031433132 L302.0909494742638 233.23469018494666 L300.0000000000001 233.20779390090286 L297.92066404050996 233.05009865357613 L295.8610765412389 232.76295276420356 L293.82924939052424 232.34820752813687 L291.83304050978467 231.8082071210166 L289.8801237225259 231.14577661743334 L287.97795951665034 230.36420817980493 L286.13376681041194 229.4672454820975 L284.35449582776084 228.45906643961027 L282.6468021838943 227.34426432234102 L281.0170222764657 226.12782733537966 L279.4711500722511 224.81511675536962 L278.0148153730533 223.41184371726962 L276.65326363833276 221.92404475044722 L275.3913374354871 220.35805616752438 L274.2334595818814 218.72048741333217 L273.183618035714 217.01819348485085 L272.2453525855814 215.25824653604693 L271.42174338123897 213.4479067841064 L270.71540134056033 211.5945928356724 L270.1284604600983 209.705851553314 L269.66257204900205 207.7893275836164 L269.31890089834 205.8527326689207 L269.0981233901876 203.90381486493575 L269.0004275431618 201.95032778612733 L269.0255149834657 200.00000000000006 L269.1726048229798 198.06050469014076 L269.4404394185109 196.13942970615437 L269.8272919790442 194.2442481164407 L270.3309759807332 192.38228937715027 L270.948856342463 190.56071122757456 L271.6778623081396 188.7864724187665 L272.5145019754249 187.06630637830486 L273.4548784044851 185.40669590984285 L274.494707234452 183.81384902147013 L275.6293357297574 182.2936759719282 L276.8537631732939 180.85176761843087 L278.1626625185031 179.49337514424326 L279.5504032080223 178.2233912382908 L281.01107506242363 177.0463327929554 L282.5385131389076 175.96632517984764 L284.12632345653486 174.98708815679987 L285.7679094817402 174.11192345259246 L287.4564992654711 173.34370406904938 L289.1851731213138 172.68486533315388 L290.9468917324658 172.137397724745 L292.73452457433365 171.70284149821748 L294.54087853892855 171.382283109468 L296.35872664706017 171.17635345215143 L298.18083673462286 171.08522790015272 L299.9999999999998 171.1086281460744 L301.80905930078166 171.24582581851567 L303.6009370896134 171.4956478539976 L305.36866288101595 171.85648359260782 L307.1054001434687 172.32629355980825 L308.8044725139142 172.9026198904137 L310.4593892350664 173.58259834451388 L312.0638697195343 174.36297185911405 L313.61186714875447 175.24010557352926 L315.0975910190231 176.21000326109274 L316.5155285515822 177.26832509457697 L317.8604648886327 178.41040666786137 L319.1275020023854 179.63127919186343 L320.31207624973104 180.9256907785718 L321.40997451082677 182.2881287232073 L322.4173488558308 183.71284269110674 L323.3307296901174 185.19386871286534 L324.1470373345928 186.725053888635 L324.8635920041376 188.30008170021853 L325.47812215372255 189.91249782777163 L325.98877116835746 191.55573636651076 L326.39410237968644 193.22314633781843 L326.6931023987445 194.90801838857456 L326.88518276108493 196.60361157238216 L326.9701798871642 198.30318010662813 L326.9483533674969 200.00000000000003 L326.8203825886485 201.68739544618072 L326.58736172258534 203.3587648809359 L326.2507931082304 205.0076066017239 L325.8125790602544 206.6275438512151 L325.2750121461364 208.21234926880555 L324.6407639783435 209.75596861720032 L323.91287257407214 211.25254369453847 L323.09472834035023 212.69643434623592 L322.190058747403 214.08223949474032 L321.2029117580019 215.40481710973322 L320.1376380850524 216.65930304591097 L318.99887235389156 217.8411286803522 L317.79151324965943 218.94603728659277 L316.5207027336702 219.9700990878515 L315.1918044159067 220.90972493738806 L313.81038117361123 221.76167857966936 L312.3821721084155 222.52308745188003 L310.9130689365489 223.19145199128815 L309.40909190837436 223.76465342006506 L307.87636535482324 224.24095998531655 L306.3210929592277 224.61903163829996 L304.7495328535894 224.89792314304407 L303.1679726384571 225.0770856108382 L301.5827044253482 225.15636646328045 L300.0000000000001 225.1360078327609 L298.42608620371897 225.01664341536474 L296.8671206286971 224.79929379720122 L295.3291677213889 224.48536028106693 L293.8181753859204 224.07661724611643 L292.33995217700254 223.5752030788152 L290.9001451690222 222.98360971887413 L289.5042185848154 222.30467086908035 L288.15743326417703 221.54154892293698 L286.864827048411 220.69772066878437 L285.6311961531746 219.7769618335675 L284.4610775975865 218.78333053364588 L283.35873275301793 217.7211497039755 L282.3281320702151 216.59498858061932 L281.3729410384425 215.40964331487154 L280.49650742516286 214.17011680025593 L279.7018498394657 212.881597796324 L278.99164765698634 211.54943943547664 L278.3682323384843 210.17913720099148 L277.83358016857227 208.77630646603134 L277.3893064353431 207.34665968464358 L277.03666106584177 205.89598332662501 L276.77652572650805 204.43011464862911 L276.60941239188617 202.95491839402214 L276.5354633790912 201.47626351376553 L276.55445283975416 200.00000000000006 L276.6657896954688 198.5319359230637 L276.86852199714605 197.07781476135972 L277.1613426831786 195.64329311184244 L277.54259670593814 194.2339188669064 L278.01028949090596 192.85510994113562 L278.56209668767605 191.51213362875328 L279.19537516720504 190.21008666966551 L279.90717521502347 188.9538760987649 L280.69425386567923 187.74820094967177 L281.55308931950015 186.59753488030051 L282.47989637880744 185.50610978365648 L283.47064283705333 184.47790044301075 L284.52106675096 183.51661028616505 L285.6266945226478 182.62565828887617 L286.7828597159495 181.80816707270176 L287.9847225286349 181.06695223756665 L289.2272898401175 180.40451296425752 L290.5054357523946 179.82302391684772 L291.81392254047887 179.3243284697663 L293.14742192743523 178.9099332788599 L294.50053659832815 178.58100421038972 L295.86782186690937 178.33836363647785 L297.24380740877115 178.18248910007372 L298.62301897488163 178.11351334710318 L299.99999999999983 178.13122571807645 L301.36933302134065 178.23507488611847 L302.7256608240797 178.42417292314585 L304.0637072318437 178.69730067077984 L305.37829746215886 179.05291438756862 L306.66437796902426 179.48915363922012 L307.9170356971943 180.00385039382462 L309.13151667552887 180.5945392795123 L310.3032438797534 181.2584689576388 L311.42783429825096 181.99261456045497 L312.50111513801784 182.79369113830361 L313.51913911165343 183.65816805770993 L314.4781987502049 184.58228428830625 L315.3748396908412 185.56206451337655 L316.2058728926502 186.5933359959149 L316.9683857383424 187.6717461294945 L317.6597519842736 188.79278060093642 L318.2776405259428 189.95178208975594 L318.8200229509851 191.14396942767178 L319.28517985660585 192.36445714006834 L319.6717059134092 193.608275290232 L319.97851366261506 194.8703895464301 L320.2048360387255 196.14572139145957 L320.3502276147729 197.4291683941891 L320.4145645723337 198.71562446280345 L320.3980434035094 200.00000000000003 L320.3011783570358 201.27724188118998 L320.1247976455667 202.54235317791802 L319.87003843596864 203.7904125501363 L319.5383406491413 205.0165932326983 L319.13143960042277 206.21618154346763 L318.6513575160444 207.38459484270172 L318.100393965326 208.5173988759521 L317.481115252367 209.61032443550667 L316.7963428148409 210.65928327846507 L316.04914068115744 211.6603832428019 L315.24280204068054 212.60994250626723 L314.38083498488777 213.50450293665648 L313.46694748030075 214.34084248585475 L312.50503163671334 215.1159865840893 L311.49914733666253 215.82721849501633 L310.45350529424553 216.4720885965787 L309.37244961325985 217.04842255700163 L308.2604399162178 217.55432837982858 L307.1220331171 217.98820229649056 L305.96186491169294 218.3487334895798 L304.78463106007274 218.63490763469454 L303.59506853620087 218.84600925344878 L302.397936619694 218.98162287497536 L301.19799800466177 219.04163300795568 L300.00000000000006 219.026222929896 L298.80865589477384 218.9358723049922 L297.6286265612476 218.77135364648362 L296.4645023667927 218.53372764386313 L295.32078546428124 218.22433737967506 L294.20187252869704 217.84480146487286 L293.1120380055651 217.39700612581294 L292.05541793440676 216.88309627991015 L291.03599440782045 216.30546564076408 L290.0575807239387 215.66674589716482 L289.12380728695763 214.9697950137919 L288.23810830718537 214.2176847046206 L287.40370934861045 213.413687133024 L286.62361576839004 212.561260895313 L285.9006020888885 211.6640363469652 L285.2372023389977 210.72580033305655 L284.6357013974398 209.75048038641523 L284.098127366629 208.74212845877273 L283.626245001432 207.70490425164647 L283.22155021288887 206.64305821492346 L282.88526566259134 205.56091428201768 L282.6183374590369 204.46285241115763 L282.42143296286406 203.3532910027168 L282.29493970346385 202.23666926261205 L282.23896540506917 201.11742958162063 L282.25333911605367 199.99999999999991 L282.33761343086263 198.8887768260975 L282.4910677897436 197.78810747662334 L282.7127128372789 196.7022736050289 L283.00129581665277 195.63547458291606 L283.35530697262897 194.59181139765653 L283.772986932387 193.57527102740548 L284.2523350296821 192.58971135247103 L284.79111853426275 191.63884665956252 L285.3868827451261 190.72623379278158 L286.0369619030103 189.8552590023781 L286.73849087454425 189.02912553925225 L287.48841755769155 188.2508420399837 L288.28351595556984 187.52321174379063 L289.1203998633717 186.8488225793282 L289.9955371110165 186.23003815557846 L290.90526430228135 185.6689896873389 L291.8458019895291 185.16756888196068 L292.81327022178465 184.72742181004205 L293.8037044027631 184.34994377878817 L294.81307139460694 184.03627522267848 L295.8372858024558 183.78729862199975 L296.87222637463725 183.60363645568432 L297.9137524531601 183.48565019078296 L298.95772040936447 183.43344030679876 L300 183.44684734903856 L301.03649057967493 183.52545400111308 L302.06313710654706 183.6685881627519 L303.07594587928594 183.87532701521397 L304.07099994474703 184.14450205277643 L305.04447411742467 184.47470505509548 L305.9926495536193 184.86429497166276 L306.91192782531823 185.31140568614376 L307.7988444410721 185.81395462509428 L308.65008176362227 186.36965217241834 L309.4624812766896 186.9760118479672 L310.2330551561713 187.63036120590064 L310.9589971039757 188.3298534058331 L311.63769240587595 189.07147940740518 L312.2667271780227 189.85208073672374 L312.84389677017015 190.6683627711605 L313.3672132971546 191.5169084872371 L313.8349122737718 192.39419261481504 L314.24545833187193 193.29659613952384 L314.59755000222003 194.22042109429592 L314.8901235474657 195.16190558008685 L315.1223558363737 196.11723895526697 L315.2936662533083 197.08257713285562 L315.4037176408003 198.05405792467838 L315.45241627684976 199.02781637167718 L315.4399108924146 200.0000000000001 L315.36659073829213 200.9667839431226 L315.23308271429437 201.92438587111496 L315.04024757724693 202.86908066925298 L314.78917524788096 203.7972148094865 L314.48117924012854 204.70522035979675 L314.1177902396633 205.58962857821376 L313.700748861734 206.44708304019147 L313.2319976214061 207.27435225017175 L312.7136721522503 208.06834169046783 L312.14809171227995 208.82610526308076 L311.53774901853257 209.54485608270346 L310.88529945411267 210.2219765819526 L310.1935496937366 210.85502789280554 L309.465445795868 211.44175847126192 L308.70406081135553 211.98011193543135 L307.912581960129 212.4682340904999 L307.09429742891336 212.90447911739653 L306.2525828441273 213.28741490539767 L305.390887475116 213.61582751239553 L304.5127202236129 213.8887247400913 L303.6216354558739 214.1053388149257 L302.72121873422003 214.2651281691463 L301.81507250481513 214.36777831998415 L300.906801798357 214.41320184848294 L299.99999999999994 214.40153748306415 L299.0982347442337 214.33314829641554 L298.2050339896483 214.208619027737 L297.3238723274964 214.0287525457611 L296.4581575767428 213.79456547126833 L295.61121771687306 213.50728298102675 L294.78628820810735 213.16833281819223 L293.98649974687623 212.7793385371963 L293.2148665024144 212.34211201400882 L292.47427487819726 211.85864525539293 L291.76747283961504 211.3311015433419 L291.0970598468259 210.76180595331118 L290.46547742912696 210.15323528711528 L289.8750004344423 209.5080074634333 L289.32772898469267 208.82887041077913 L288.8255811648382 208.1186905094893 L288.37028647035993 207.38044063081992 L287.96338003479616 206.61718782254718 L287.60619765577013 205.8320806915992 L287.2998716346844 205.02833653515478 L287.04532744197047 204.2092282723518 L286.8432812164564 203.3780712292444 L286.694238104081 202.53820982993759 L286.59849143784476 201.6930042468972 L286.55612275755595 200.84581706330718 L286.56700266463355 200.00000000000003 L286.6307925039544 199.15888075894128 L286.7469468615222 198.32575003450282 L286.9147168635755 197.50384874280837 L287.1331542596756 196.6963555183012 L287.4011162693188 195.90637452535336 L287.7172711687197 195.13692363122883 L288.08010459162585 194.39092298503334 L288.4879265153501 193.67118404542856 L288.9388789006674 192.98039909789082 L289.4309439518195 192.32113130012456 L289.9619529606083 191.69580529195912 L290.52959569646237 191.10669840361533 L291.13143030241446 190.55593249368928 L291.76489365515596 190.0454664455429 L292.4273121457425 189.57708934802832 L293.1159128360966 189.15241438364177 L293.8278349452322 188.77287344427342 L294.56014161807207 188.43971249174737 L295.30983192888306 188.15398767730744 L296.0738530706918 187.91656223113682 L296.8491126815814 187.7281041298998 L297.63249125850285 187.5890845471819 L298.4208546091638 187.49977708859043 L299.2110662926806 187.4602578101737 L299.9999999999999 187.4704060157353 L300.78455182560583 187.5299058255736 L301.5616523827201 187.63824850617516 L302.3282787150995 187.7947355474502 L303.08146595957857 187.99848247122193 L303.818318714761 188.24842335189166 L304.5360220726579 188.5433160274974 L305.23185227164254 188.8817479767814 L305.90318693082304 189.26214283539517 L306.5475148277922 189.68276752199324 L307.1624451837422 190.14173994273133 L307.7457164220596 190.63703724057223 L308.2952043687928 191.166504553846 L308.8089298657507 191.72786424669764 L309.28506576947694 192.31872557240231 L309.7219433119101 192.93659472904 L310.1180578011937 193.57888526569536 L310.47207364382115 194.24292879620407 L310.78282867208065 194.9259859764876 L311.04933776359485 195.62525770072637 L311.2707957426133 196.33789647100693 L311.44657955560706 197.06101789464273 L311.5762497166166 197.79171226312565 L311.6595510207099 198.52705616659313 L311.69641252680196 199.26412409781497 L311.68694681396204 199.99999999999983 L311.6314485181758 200.73178871319902 L311.53039215932944 201.45662727472788 L311.3844292709268 202.17169602986507 L311.1943848477301 202.8742295100588 L310.96125312912125 203.5615270370461 L310.68619273850055 204.23096301258326 L310.3705212014663 204.87999685496436 L310.01570886784185 205.5061825451046 L309.6233722648294 206.1071777467119 L309.19526691065926 206.6807524669545 L308.7332796200708 207.2247972260176 L308.2394203347872 207.73733070606883 L307.7158135138401 208.21650685235608 L307.1646891201358 208.66062140148313 L306.5883732410514 209.06811781429928 L305.98927838207766 209.4375925933153 L305.36989347359963 209.76779996709632 L304.732773631816 210.05765592667504 L304.08052971553656 210.30624160166784 L303.41581772117394 210.5128059664482 L302.7413280586451 210.67676786942718 L302.05977475113616 210.7977173811974 L301.3738846017356 210.8754164600099 L300.6863863698468 210.90979893574868 L300.00000000000006 210.90096981625322 L299.31742594524957 210.8492039224873 L298.6413346267332 210.75494386166386 L297.97435607019673 210.61879734999587 L297.3190697593743 210.44153389924247 L296.67799474502385 210.2240808836499 L296.05358004720676 209.967519006238 L295.4481953870257 209.67307718564632 L294.8641222825402 209.34212688692045 L294.303545541949 208.97617592168285 L293.76854518537505 208.57686174508288 L293.2610888247323 208.14594427875357 L292.7830245291728 207.685298290708 L292.3360742015556 207.1969053646866 L291.9218274892142 206.68284549289916 L291.54173625006916 206.14528832741084 L291.19710959282213 205.5864841265615 L290.8891095075995 205.00875443381597 L290.6187471009996 204.41448252728853 L290.3868794470276 203.80610367887084 L290.19420706292 203.18609526243895 L290.0412720163385 202.55696675097727 L289.9284566678915 201.92124964268598 L289.8559830504131 201.28148735618797 L289.82391288391 200.64022513485295 L289.83214822258793 200.0000000000001 L289.8804327278943 199.3633307923246 L289.9683535590807 198.73270834032743 L290.0953438704003 198.11058579381205 L290.2606859017236 197.49936915964844 L290.46351464708897 196.90140807600267 L290.70282208351256 196.31898686008705 L290.97746194026956 195.75431586321264 L291.2861549868384 195.20952316552763 L291.62749481577634 194.68664664130318 L291.9999540949713 194.18762642400145 L292.4018912620113 193.71429779861387 L292.83155763181674 193.26838454692535 L293.2871048872103 192.85149276943406 L293.7665929207664 192.46510520563328 L294.2679979950581 192.11057607229358 L294.78922118736176 191.7891264372153 L295.3280970839344 191.5018401437239 L295.88240268819754 191.24966029891834 L296.4498665065085 191.0333863363899 L297.02817777470665 190.8536716618033 L297.6149957882699 190.71102188738655 L298.207959298712 190.6057936590215 L298.80469593880355 190.53819407726732 L299.40283163928655 190.50828071130292 L300 190.5159622024386 L300.59385157871316 190.5609994515436 L301.18206306149824 190.6430073824634 L301.7623462791367 190.76145727127422 L302.3324570348603 190.9156796290469 L302.89020370966597 191.10486762367827 L303.433455612503 191.3280810243024 L303.9601510438271 191.58425064982612 L304.46830504231065 191.8721833012449 L304.9560167859278 192.19056715560555 L305.4214766201428 192.5379775977783 L305.86297268756357 192.91288346461255 L306.2788971351289 193.31365367456263 L306.66775187669816 193.7385642144985 L307.02815389079274 194.1858054541699 L307.3588400351757 194.65348975765625 L307.65867136197255 195.1396593601434 L307.9266369190873 195.64229447748892 L308.16185702578 196.15932161530665 L308.3635860124087 196.6886220436986 L308.531214416507 197.22804040329066 L308.66427062955955 197.77539340791324 L308.76242199103024 198.32847860906676 L308.8254753284009 198.8850831872718 L308.8533769441668 199.4429927354865 L308.8462120529128 199.99999999999994 L308.8042036737428 200.55391354456685 L308.72771098545724 201.1025663040502 L308.61722715394677 201.64382399445023 L308.4733766433016 202.17559334695906 L308.296912024107 202.69583013454394 L308.0887102943036 203.2025469605651 L307.84976872982764 203.6938207800339 L307.58120028400566 204.1678001253373 L307.2842285563495 204.62271200958162 L306.960182352986 205.0568684821167 L306.6104898624363 205.46867281232883 L306.2366724718497 205.85662527937822 L305.84033825007367 206.21932854724028 L305.4231751251062 206.55549260616013 L304.98694378453484 206.86393926343982 L304.53347032849416 207.1436061683558 L304.06463870548833 207.39355035792067 L303.58238296211465 207.6129513121691 L303.0886793382789 207.80111350964526 L302.58553823993634 207.95746847578917 L302.07499612169056 208.0815763189615 L301.5591073117589 208.1731267508962 L301.0399358118636 208.23193959041987 L300.5195471045218 208.2579647513221 L300 208.25128171728932 L299.4833385548634 208.21209850882167 L298.9715840935881 208.1407501490286 L298.4667273641284 208.03769663713615 L297.97072085762306 207.90352044043075 L297.4854713216199 207.7389235172053 L297.01283249526324 207.54472388505098 L296.5545980938586 207.32185175055233 L296.11249506909706 207.07134521808433 L295.6881771699792 206.79434559696918 L295.28321882816647 206.49209232773063 L294.89910939006387 206.16591754956707 L294.53724771645784 205.81724033245973 L294.198937168959 205.44756059852207 L293.8853810008744 205.05845275828685 L293.59767816843635 204.65155908860825 L293.33681957657103 204.22858287972645 L293.1036847715988 203.7912813798014 L292.8990390914232 203.3414585658607 L292.7235312819073 202.88095777063342 L292.57769158624615 202.41165419514388 L292.4619303122438 201.93544733722658 L292.3765368804886 201.45425336628367 L292.32167935451014 200.96999747465463 L292.29740445209336 200.48460623588605 L292.3036380350327 200.00000000000003 L292.3401860727374 199.5180853555415 L292.4067360732572 199.0407476877572 L292.5028589734878 198.56984386172138 L292.6280114785542 198.10719505856093 L292.78153883865 197.65457979218516 L292.9626780499548 197.2137271330502 L293.1705614646505 196.78631016453 L293.40422079353067 196.3739396964071 L293.66259148323746 195.97815825884177 L293.9445174487853 195.60043439894827 L294.2487561407366 195.24215730078504 L294.57398392518775 194.90463174818075 L294.91880175361496 194.58907344835185 L295.2817410986117 194.29660473274976 L295.66127013063334 194.02825064999547 L296.05580011005486 193.78493546413048 L296.46369196813976 193.5674795697403 L296.8832630499189 193.37659683380147 L297.3127939914935 193.21289237236215 L297.7505357038935 193.07686076840938 L298.19471643536104 192.96888473550038 L298.64354888377653 192.88923422995018 L299.0952373308981 192.83806601258732 L299.5479847701668 192.81542365930636 L300.00000000000006 192.82123801788524 L300.44950465479803 192.85532810678566 L300.8947401462833 192.91740244993838 L301.3339744882966 193.00706083982791 L301.7655089787893 193.12379651954603 L302.187684713451 193.26699877288175 L302.59888890622653 193.4359559099686 L302.9975609928682 193.62985863451854 L303.38219849466225 193.84780377724525 L303.75136262053803 194.08879837872092 L304.10368358692244 194.35176410362558 L304.43786563593 194.63554196714213 L304.7526917337742 194.93889735312476 L305.04702793265153 195.2605253026334 L305.3198273807647 195.59905605047706 L305.57013396662836 195.95306078655727 L305.7970855853165 196.32105761804314 L305.99991701587294 196.7015177077533 L306.17796240069725 197.09287156355964 L306.33065731933965 197.49351545317307 L306.45754045078115 197.90181791832046 L306.5582548199279 198.31612636207112 L306.63254862571597 198.73477368293396 L306.6802756498826 199.1560849293016 L306.70139524712334 199.57838394789204 L306.6959719189968 200 L306.66417447557103 200.41927431965075 L306.6062747904058 200.8345665881162 L306.5226461560398 201.24426129972628 L306.413761248686 201.64677399448018 L306.2801897123317 202.04055733361577 L306.1225953738836 202.4241069950558 L305.9417331023891 202.79596736648082 L305.7384453266952 203.15473701470466 L305.51365822717435 203.4990739110279 L305.2683776183441 203.8277003933185 L305.00368454033514 204.13940784671541 L304.7207305782067 204.43306108606012 L304.42073292908003 204.70760242443254 L304.10496923794136 204.96205541349033 L303.774772223764 205.19552824268544 L303.431524118304 205.40721678584828 L303.0766509405408 205.59640728508478 L302.71161663025185 205.7624786634172 L302.3379170646368 205.9049044591116 L301.95707398223686 206.0232543761646 L301.57062883862176 206.11719544696848 L301.18013661845265 206.18649280472346 L300.7871596285673 206.23101006471805 L300.3932612966618 206.25070931514824 L300.00000000000006 206.24565071967825 L299.6089229483116 206.21599173546826 L299.2215601447044 206.16198595188732 L298.83941844796925 206.0839815565983 L298.46397575912863 205.98241943713253 L298.0966753544642 205.85783092746556 L297.7389203865544 205.7108352104505 L297.3920685740758 205.542136388265 L297.0574271002562 205.3525202342662 L296.7362477389402 205.14285064083282 L296.429722226221 204.91406577888955 L296.13897789452596 204.66717398585942 L295.86507358491474 204.40324939976767 L295.6089958521629 204.12342735812288 L295.37165547596976 203.82889958102558 L295.1538842903483 203.52090915869684 L294.95643234193113 203.20074536428012 L294.7799653865724 202.86973831333904 L294.62506273223823 202.52925349196528 L294.4922154347674 202.1806861757994 L294.3818248516589 201.82545576258224 L294.2942015575992 201.46500004106272 L294.2295646239965 201.10076941921557 L294.1880412633422 200.7342211347564 L294.1696668377749 200.36681347087932 L294.17438522979023 200.00000000000006 L294.20204957162395 199.63522387804562 L294.2524233284392 199.27391221151032 L294.3251817290819 198.91747051908607 L294.41991353683244 198.56727730917987 L294.53612315128106 198.22467879406028 L294.67323303120156 197.8909837607142 L294.83058642708465 197.56745861777216 L295.00745041083667 197.25532263705426 L295.20301918904585 196.9557434074196 L295.4164176851766 196.6698325176676 L295.64670537507067 196.3986414842432 L295.8928803592262 196.1431579384426 L296.1538836544793 195.90430208671515 L296.42860368694755 195.68292345650107 L296.71588096739936 195.47979793885324 L297.0145129296005 195.2956251378541 L297.3232589116534 195.13102603557755 L297.6408452598905 194.9865409800507 L297.9659705345189 194.86262800235403 L298.2973107959179 194.75966146767055 L298.6335249503013 194.67793106374637 L298.97326013333196 194.61764112887846 L299.31515711024946 194.5789103201936 L299.65785567112596 194.56177162163624 L300 194.56617268974748 L300.3402439968636 194.59197653399494 L300.6772565317761 194.6389625271132 L301.0097266107646 194.70682773963713 L301.33636843362996 194.79518859156585 L301.6559263243145 194.903582812882 L301.96717951509606 195.0314717034807 L302.2689467665561 195.17824268193309 L302.5600908060162 195.34321211143026 L302.83952256794765 195.52562839022374 L303.1062052207344 195.72467529290802 L303.3591579650958 195.93947554797472 L303.5974595904608 196.16909463622022 L303.82025177661205 196.41254479380092 L304.0267421289977 196.6687892030147 L304.2162069372182 196.93674635323978 L304.3879936473509 197.21529455389 L304.54152303995113 197.50327658074627 L304.6762911067756 197.7995044366009 L304.7918706205028 198.10276420680805 L304.88791239296364 198.41182099006514 L304.9641462186523 198.72542388456569 L305.02038150154357 199.04231100955118 L305.0565075645054 199.361214542268 L305.0724936418477 199.6808657503769 L305.06838855679825 199.99999999999997 L305.04432008692646 200.31736171978994 L305.00049402175125 200.6317093016913 L304.93719291795793 200.94181991942173 L304.85477455881363 201.2464942461268 L304.7536701254973 201.544561053168 L304.63438208915704 201.83488167256783 L304.49748183355734 202.11635430627317 L304.3436070191872 202.38791816609535 L304.17345870065924 202.64855742894184 L303.9877982101376 202.89730499276862 L303.78744382038303 203.13324601954977 L303.57326720179776 203.3555212524758 L303.3461896885863 203.56333009555456 L303.10717836981433 203.75593344478975 L302.8572420217544 203.93265626115326 L302.59742689843813 204.09288987663902 L302.3288123978029 204.2360940257879 L302.0525066212122 204.36179859619747 L301.7696418444544 204.46960509267373 L301.48136991856796 204.55918781084304 L301.18885761902055 204.63029471720944 L300.8932819618695 204.68274803381684 L300.5958255055528 204.71644452685268 L300.29767165692226 204.7313554996981 L300 204.72752649209417 L299.70398166575626 204.70507668824274 L299.4107747609361 204.66419803779232 L299.12151987363393 204.6051540947702 L298.83733567291256 204.52827858060564 L298.5593146192956 204.43397367844298 L298.2885188024333 204.32270806696337 L298.02597592164796 204.195014702915 L297.7726754244154 204.05148836249157 L297.5295648171329 203.8927829525941 L297.29754616176405 203.71960860385582 L297.077472771143 203.53272855810604 L296.8701461148659 203.33295586368808 L296.6763129468014 203.12114989272987 L296.49666266431575 202.8982126950895 L296.33182490834 202.665085204261 L296.1823674124034 202.42274331102217 L296.0487941077341 202.17219382104466 L295.93154349047603 201.91447031304745 L295.8309872560043 201.6506289143825 L295.74742920424217 201.38174401116657 L295.68110441879 201.1089039102397 L295.63217872158253 200.83320647032548 L295.60074840369504 200.55575471978923 L295.5868402318255 200.27765247835194 L295.5904117288966 200.00000000000003 L295.6113517261483 199.72388965415732 L295.6494811830358 199.45040166193482 L295.70455427021267 199.18059990396685 L295.7762597098674 198.91552781596704 L295.86422236669847 198.65620438770083 L295.96800508186215 198.40362028057908 L296.0871107413116 198.15873407852212 L296.2209845690699 197.92246868613793 L296.36901663514396 197.69570788760058 L296.5305445669978 197.47929307890465 L296.70485645276295 197.27402018541846 L296.89119392367195 197.08063677586267 L297.0887554025656 196.89983938300247 L297.2966995047407 196.73227104047203 L297.51414857688195 196.57851904424288 L297.74019235935685 196.43911294631556 L297.9738917567443 196.31452278725735 L298.214282701132 196.20515757322724 L298.46038009242733 196.11136400213792 L298.71118179972194 196.03342544259255 L298.965672707588 195.97156116821938 L299.22282879110276 195.9259258490049 L299.48162120337327 195.8966093002038 L299.7410203593717 195.8836364883854 L299.99999999999994 195.88696779316425 L300.2575412204658 195.90649952216302 L300.5126364472845 195.94206467577047 L300.7642933485092 195.99343395729107 L301.01153866214116 196.06031702314056 L301.2534219280767 196.1423639668237 L301.4890191094133 196.2391670295446 L301.7174360894453 196.35026252944473 L301.9378120312549 196.47513300064736 L302.1493225874091 196.61320953250794 L302.35118294794097 196.76387429873387 L302.5426507154947 196.92646326534663 L302.72302859725363 197.10026906581362 L302.8916669040586 197.28454403108518 L303.0479658479283 197.47850336172667 L303.1913776300441 197.68132842884793 L303.3214083121288 197.8921701900996 L303.43761946504287 198.1101527066243 L303.5396295893352 198.3343767465369 L303.62711530341255 198.56392346024012 L303.69981229593344 198.79785811268653 L303.75751603998066 199.03523385755128 L303.80008226751903 199.27509553820096 L303.827427203599 199.51648350032164 L303.83952756071665 199.75843740110633 L303.8364202946855 199.99999999999994 L303.81820212430586 200.24022091615788 L303.7850288180389 200.47816033798347 L303.7371142517922 200.71289267038574 L303.67472924280315 200.94351010571899 L303.5982001654622 201.16912610474716 L303.50790735574554 201.3888787744073 L303.40428331172353 201.60193412962408 L303.2878106983721 201.80748922695926 L303.15902016564314 202.0047751584483 L303.01848798943445 202.19305989459752 L302.86683354574484 202.37165096616755 L302.7047166289025 202.53989797506338 L302.5328346253053 202.69719492537973 L302.3519195546234 202.8429823664076 L302.1627349908649 202.9767493401968 L301.9660728761145 203.09803512707987 L301.7627502401059 203.20643078339577 L301.55360583908526 203.30158046650502 L301.33949672766965 203.38318254305173 L301.1212947775891 203.4509904773067 L300.899883157337 203.50481349730984 L300.6761527868253 203.5445170374195 L300.4509987811665 203.57002295676523 L300.22531689766316 203.58130953398728 L300 203.5784112395263 L299.7759345534848 203.56141828759647 L299.55399716498573 203.5304759708325 L299.335051180962 203.48578378144137 L299.11994335667845 203.42759432351008 L298.90950060934506 203.35621202191842 L298.7045268675168 203.27199163407772 L298.5058000286443 203.17533657145924 L298.3140690361707 203.06669703858768 L298.13005108703754 202.94656799785136 L297.95442897988704 202.81548696912338 L297.78784861363494 202.674031673786 L297.6309166454448 202.52281753331505 L297.4841983164508 202.36249503309358 L297.3482154528739 202.19374696260076 L297.2234446494382 202.01728554354398 L297.11031564123795 201.83384945788183 L297.0092098694293 201.6442007880134 L296.92045924532613 201.44912188168698 L296.8443451166713 201.24941215440919 L296.7810974390373 201.04588484231138 L296.7308941544828 200.83936371855182 L296.69386077876686 200.63067978640515 L296.67007019758694 200.42066796220803 L296.6595426714858 200.21016376129847 L296.66224604824794 200 L296.6780961807954 199.79100352656604 L296.7069575477939 199.5839919938161 L296.74864407339635 199.37977068595652 L296.80292014178536 199.17912941179978 L296.86950180143106 198.98283947626336 L296.94805815326356 198.79165074165516 L297.0382129162623 198.60628878983724 L297.1395461633059 198.42745219589477 L297.2515962194898 198.2558099234449 L297.37386171452397 198.0919988511786 L297.5058037802634 197.9366214396613 L297.64684838389724 197.790243546814 L297.7963887868443 197.65339239986218 L297.95378811896035 197.52655473088194 L298.11838205726536 197.41017508238582 L298.2894815980475 197.3046542886863 L298.4663759108939 197.21034813804835 L298.6483352629389 197.12756621990297 L298.83461400140857 197.05657096063948 L299.02445358237685 196.99757685073104 L299.2170856335326 196.95074986517898 L299.4117350386921 196.91620707848713 L299.60762303177285 196.89401647460386 L299.8039702879757 196.88419695149872 L300 196.88671851927475 L300.1949409272475 196.90150268995967 L300.3880304061376 196.9284230563748 L300.57851730988165 196.9673060567487 L300.7656649463254 197.0179319210289 L300.9487538827755 197.0800357941506 L301.1270846870778 197.1533090308507 L301.2999805746021 197.23740065596758 L301.4667899512204 197.33191898355045 L301.62688884282596 197.43643338751008 L301.7796832024452 197.55047621598817 L301.92461108652304 197.6735448410975 L302.06114469252765 197.8051038351985 L302.18879225061005 197.94458726442818 L302.3070997626684 198.09140108978463 L302.41565258280843 198.24492566570362 L302.5140768338482 198.40451832573123 L302.6020406551915 198.56951604461378 L302.6792552780865 198.7392381658831 L302.7454759249884 198.91298918381727 L302.8005025304556 199.0900615685049 L302.84418028172934 199.26973862263358 L302.87639997786476 199.45129735856108 L302.8970982070077 199.63401138421142 L302.90625734212506 199.8171537863667 L302.90390535621685 199.99999999999997 L302.89011545873893 200.1818306524112 L302.8650055556646 200.36193437109176 L302.8287375362932 200.53961054444653 L302.78151639058035 200.7141720247486 L302.7235891614119 200.88494776298916 L302.6552437368693 201.05128536561134 L302.5768074881389 201.21255356347848 L302.4886457592917 201.36814458383049 L302.3911602157136 201.5174764164117 L302.284787058482 201.65999496542335 L302.1699951124759 201.79517607944868 L302.0472837964597 201.922527452023 L301.91718098380005 202.04159038607455 L301.78024076285993 202.15194141603243 L301.63704110645807 202.25319378199703 L301.4881814600894 202.3449987509809 L301.3342802588671 202.4270467808598 L301.17597238337504 202.49906852331748 L301.0139065648003 202.56083566272363 L300.84874274986237 202.61216158854822 L300.6811494361502 202.65290189958543 L300.51180098854206 202.6829547389328 L300.34137494739326 202.70226095934507 L300.17054933915256 202.7108041192522 L300.00000000000006 202.70861031039848 L299.83039792298564 202.69574781871702 L299.6624066390015 202.67232662070356 L299.496679641725 202.63849771818894 L299.333857866445 202.5944523150312 L299.1745672324117 202.54042083985152 L299.0194162580507 202.47667181952335 L298.868993758038 202.40351060868522 L298.72386663086473 202.3212779810871 L298.5845777451115 202.23034858909256 L298.45164393222063 202.13112929814338 L298.3255540930886 202.02405740344915 L298.20676742531384 201.90959873658784 L298.0957117774196 201.78824567009508 L297.99278213583636 201.66051502847736 L297.8983392498736 201.52694591440647 L297.8127083993353 201.38809745913798 L297.736178308848 201.24454650644572 L297.66900021236626 201.09688523957382 L297.61138707071166 200.94571876088165 L297.5635129443798 200.79166263398753 L297.52551252322695 200.63534039831174 L297.49748081401896 200.4773810659736 L297.4794729861979 200.31841661101024 L297.47150437559617 200.15907946086165 L297.473550645206 200 L297.4855481014975 199.84180409548037 L297.5073941641749 199.68511065404903 L297.53894798666585 199.53052922026592 L297.58003122405967 199.37865762488605 L297.63042894464803 199.2300796924928 L297.68989068067503 199.0853630170946 L297.7581316133808 198.94505681407804 L297.8348338869196 198.8096898565639 L297.91964804525554 198.67976850383548 L298.01219458568596 198.55577482910155 L298.1120656222202 198.43816485342572 L298.21882665164264 198.32736689219612 L298.33201841472714 198.2237800200309 L298.45115884473427 198.12777265951513 L298.5757450950225 198.0396812986466 L298.70525563734026 197.95980934133243 L298.8391524221296 197.88842609473113 L298.97688309198065 197.82576589667275 L299.1178832392119 197.77202738582008 L299.2615786984293 197.7273729166563 L299.40738786482984 197.69192812080104 L299.55472402896436 197.6657816155727 L299.7029977186626 197.64898486012763 L299.85161903884364 197.64155215892438 L300 197.64346081168097 L300.1475568262331 197.65465140841997 L300.29371223385476 197.6750282676323 L300.43789767173234 197.70446001503706 L300.5795555147547 197.7427802998739 L300.71814120203146 197.78978864514042 L300.85312531169984 197.84525142767637 L300.98399556450954 197.90890298351042 L301.11025874868153 197.9804468334136 L301.23144255888656 198.0595570231602 L301.3470973425693 198.14587957257285 L301.45679774724647 198.2390340270345 L301.56014426283286 198.33861510477976 L301.65676465349674 198.44419443293745 L301.74631527401215 198.5553223649865 L301.8284822660578 198.6715298720054 L301.9029826304136 198.79233049984825 L301.96956517151466 198.91722238416298 L302.0280113113481 199.04569031498517 L302.0781357702081 199.17720784249022 L302.1197871123648 199.311239415372 L302.1528481552455 199.4472425432348 L302.17723624127274 199.5846699743372 L302.1929033720497 199.72297188001656 L302.1998362051292 199.86159803714176 L302.19805591414126 199.99999999999997 L302.18761791359077 200.1376332531117 L302.1686114501611 200.27395933658997 L302.1411590628776 200.40844793581667 L302.10541591498736 200.54057892739243 L302.06156900090286 200.66984437353653 L302.0098362320305 200.7957504573574 L301.95046540576175 200.9178193516917 L301.88373306234064 201.0355910145111 L301.80994323473954 201.14862490422516 L301.72942609706547 201.25650160856037 L301.6425365173916 201.3588243810734 L301.5496525212503 201.45522057975174 L301.4511736723441 201.54534300257336 L301.34751937731795 201.62887111533064 L301.23912712170153 201.7055121674754 L301.1264506443579 201.7750021922073 L301.0099580579808 201.8371068875042 L300.8901299233498 201.89162237528242 L300.76745728519523 201.9383758363691 L300.64243967763116 201.9772260194737 L300.51558310718997 202.00806362285067 L300.38739802153674 202.03081154785548 L300.2583972719534 202.045425024106 L300.12909407766153 202.05189160646867 L300 202.0502310445929 L299.8716229343928 202.04049502621663 L299.7444651279254 202.0227667959561 L299.6190212302045 201.99716065177446 L299.4957763850035 201.96382132179446 L299.3752043699912 201.92292322457712 L299.257765791613 201.87466961643077 L299.14390634193603 201.81929162973975 L299.03405512398825 201.75704720671115 " stroke = "blue" stroke-width = "4" fill = "none" /></svg>