<svg width="600" height="400" viewbox = "0 0 600 400"  xmlns="http://www.w3.org/2000/svg">

<!--
<topfunctions>











function YofX(){
    X = plotparams.g*(x - plotparams.x0) - funcparams.X0;
    Y = funcparams.a*X*X*X + funcparams.b*X*X + funcparams.c*X + funcparams.d;
    y = plotparams.y0 - plotparams.G*(Y - funcparams.Y0);
}


function YofX2(){
    X = plotparams.g*(x - plotparams.x0) - funcparams.X0;
    Y = funcparams.b*X*X + funcparams.c*X + funcparams.d;
    y = plotparams.y0 - plotparams.G*(Y - funcparams.Y0);
}

function XYofT(){
    T = plotparams.g*t;
    X = Math.exp(-T/funcparams.tau)*Math.cos(2*Math.PI*T/funcparams.T);
    Y = Math.exp(-T/funcparams.tau)*Math.sin(2*Math.PI*T/funcparams.T);
    y = plotparams.y0 - plotparams.G*(Y - funcparams.Y0);
    x = plotparams.x0 - plotparams.G*(X - funcparams.X0);    
}

constants = {
}

plotparams = {
    "G":200,//1 unit = 10 pixel
    "g":1,//1 unit equals 1 pixels
    "duration":500,
    "plotwidth":400,
    "plotheight":400,
    "x0":200,
    "y0":400
}

funcparams = {
    "tau":150,
    "T":10,
    "X0":0,
    "Y0":0
}

function plotfunction(){


    currentStroke = "blue";
    currentLineWidth = 4;
    ctx.strokeStyle = currentStroke;
    ctx.lineWidth = currentLineWidth;
    ctx.beginPath();	
    x = 0;
    y = 0;
    t= 0;
    XYofT();
    currentSVG += "	<path d = \"M";
    currentSVG += Math.round(x).toString() + " ";
    currentSVG += Math.round(y).toString() + " ";
    for(t = 1;t < plotparams.duration;t++){
        ctx.moveTo(x,y);
        XYofT();
        ctx.lineTo(x,y);
        currentSVG += "L" + x + " " + y + " ";
    }
    ctx.stroke();
    currentSVG += "\""+ " stroke = \"" + currentStroke + "\" stroke-width = \"" + currentLineWidth.toString() + "\" fill = \"" + "none" + "\" "+"/>";


    /*plot one function:
    currentStroke = "blue";
    currentLineWidth = 4;
    ctx.strokeStyle = currentStroke;
    ctx.lineWidth = currentLineWidth;
    ctx.beginPath();	
    x = 0;
    YofX();
    currentSVG += "	<path d = \"M";
    currentSVG += Math.round(x).toString() + " ";
    currentSVG += Math.round(y).toString() + " ";
    for(x = 1;x < plotparams.plotwidth;x++){
        ctx.moveTo(x-1,y);
        YofX();
        ctx.lineTo(x,y);
        currentSVG += "L" + x + " " + y + " ";
    }
    ctx.stroke();
    currentSVG += "\""+ " stroke = \"" + currentStroke + "\" stroke-width = \"" + currentLineWidth.toString() + "\" fill = \"" + "none" + "\" "+"/>";
    /*finish plot one function*/
    
    

}


     
   
   
   
   

constants = {}
plotparams = {
    "G": 379.74983358324147,
    "g": 0.1,
    "duration": 1883.0570260326017,
    "plotwidth": 600,
    "plotheight": 400,
    "x0": 300,
    "y0": 200
}
funcparams = {
    "tau": 35.90880740537453,
    "T": 10,
    "X0": 0,
    "Y0": 0
}
   

constants = {}
plotparams = {
    "G": 379.74983358324147,
    "g": 0.1,
    "duration": 1883.0570260326017,
    "plotwidth": 600,
    "plotheight": 400,
    "x0": 300,
    "y0": 200
}
funcparams = {
    "tau": 35.90880740537453,
    "T": 10,
    "X0": 0,
    "Y0": 0
}
   

constants = {}
plotparams = {
    "G": 379.74983358324147,
    "g": 0.1,
    "duration": 1883.0570260326017,
    "plotwidth": 600,
    "plotheight": 400,
    "x0": 300,
    "y0": 200
}
funcparams = {
    "tau": 7.104366111715039,
    "T": 10,
    "X0": 0,
    "Y0": 0
}
</topfunctions>
-->

<!--
<imgurl>

</imgurl>
-->

<!--
<currentjson>
{
    "constants": {},
    "imgurl": "",
    "plotparams": {
        "G": 379.74983358324147,
        "g": 0.1,
        "duration": 1883.0570260326017,
        "plotwidth": 600,
        "plotheight": 400,
        "x0": 300,
        "y0": 200
    },
    "funcparams": {
        "tau": 7.104366111715039,
        "T": 10,
        "X0": 0,
        "Y0": 0
    }
}
</currentjson>
-->

<!--
<equation>






<p style="color:blue">

</p><p class="bigeq">
$$
(X,Y) = (e^{-t/\tau}\cos{\frac{2\pi t}{T}},e^{-t/\tau}\sin{\frac{2\pi t}{T}})

$$
</p>
<p></p>

$$
X = g(x - x_0) - X_0
$$
$$
Y = f(X)
$$
    
$$
y = y_0 - G(Y - Y_0)
$$


<p>
    X and Y, and $X_0$ and $Y_0$ in physical units of the System. x and y and x0 and y0 in pixels.  G is in pixels per Y unit and g is in X units per pixel. 
</p>









</equation>
-->
	<path d = "M-80 200 L-73.70309968865138 176.488593831431 L-66.2969886895068 153.7259290921735 L-57.59950260500483 131.7842465698104 L-47.68203329752498 110.73042656527669 L-36.618976613188295 90.62586437261108 L-24.48734495702587 71.52637163110543 L-11.366379929516938 53.48210323480606 L2.6628333941507094 36.537509388617565 L17.51774901135667 20.73131230889743 L33.11473789058067 6.096506979649149 L49.36945980586043 -7.33961470653864 L66.19722775591688 -19.555417170605125 L83.51336368450242 -30.53485255173419 L101.23354428970245 -40.267371180638065 L119.27413578408047 -48.74781206831986 L137.5525165443004 -55.97627441261156 L155.98738666781787 -61.95797117453867 L174.49906353501027 -66.7030658206325 L193.00976255733454 -70.22649336568276 L211.4438623753902 -72.54776688308749 L229.72815385474763 -73.69077067695213 L247.79207231171978 -73.6835413314468 L265.56791248555186 -72.55803786873577 L282.9910258574365 -70.34990225712096 L300 -67.09821151601085 L316.5368197231211 -62.84522266406384 L332.5470098628398 -57.63611175150578 L347.97975963938615 -51.51870820734689 L362.78802858773406 -44.543225717208685 L376.92863413929985 -36.76199082790137 L390.36232100621174 -28.229170450978813 L403.053812589736 -19.000499409458598 L414.9718447017634 -9.133009139955163 L426.0891819525182 1.3152413731217507 L436.38261721868616 12.285431393659763 L445.83295466381264 23.718239964751973 L454.42497683693057 35.55410222400772 L462.147396425858 47.73345960055141 L468.99279328830767 60.197003041057485 L474.957537426821 72.88590846432494 L480.0416986124978 85.74206369788155 L484.2489433974823 98.70828620563175 L487.58642028716747 111.72853097238965 L490.06463387006534 124.74808796895717 L491.69730872626747 137.7137686799955 L492.50124395440577 150.57408123600698 L492.4961591720461 163.27939375004308 L491.7045328555613 175.78208551905544 L490.15143389279945 188.03668580883019 L487.8643472253518 199.99999999999997 L484.87299445704684 211.631222930451 L481.2091503015292 222.89203932633959 L476.9064557345587 233.74671126969437 L472.0002287061043 244.1621527049959 L466.52727325353953 254.10799104003416 L460.5256878404315 263.5566159475466 L454.0346737256898 272.4832155234929 L447.0943441453785 280.8658000051663 L439.7455350644593 288.6852132975383 L432.0296182282925 295.9251325991663 L423.98831721407026 302.57205645953655 L415.66352715065585 308.61528163778445 L407.0971387417559 314.046869168228 L398.3308671921423 318.8616000710049 L389.4060865999537 323.0569211762563 L380.3636703401388 326.6328815576997 L371.2438379250454 329.5920600960443 L362.0860087881974 331.93948471450835 L352.9286633966249 333.6825438476774 L343.8092120559126 334.83089072110175 L334.76387173058333 335.3963410323878 L325.8275511607228 335.3927646351017 L317.0337445140448 334.83597183462314 L308.4144337710819 333.74359491019686 L300 332.13496547988666 L291.8191436368689 330.0309883250091 L283.89881384719763 327.45401228797374 L276.264147005329 324.4276988523799 L268.93841429000713 320.97688900678605 L261.9429783572254 317.1274689838898 L255.29725901544464 312.9062354550268 L249.0187077935591 308.3407607460229 L243.1227912586911 303.4592586246364 L237.62298290909962 298.2904511922142 L232.53076343730044 292.86343739289237 L227.85562912997017 287.207563632806 L223.60510814443634 281.35229697948466 L219.78478437658896 275.32710138801076 L216.3983286119397 269.16131737575205 L213.44753663034845 262.88404554167806 L210.93237391566544 256.5240342995653 L208.85102660422507 250.1095721669222 L207.199958290793 243.6683849233599 L205.9739722972164 237.22753792352248 L205.16627899766314 230.81334382071552 L204.76856778494033 224.45127592814458 L204.77108325495328 218.1658874153402 L205.16270518086571 211.9807365080115 L205.93103184492907 205.91831783037046 L207.0624662942181 200.00000000000003 L208.5423050866035 194.24596955673775 L210.35482909515156 188.67518127889528 L212.4833959427175 183.3053149125505 L214.9105336437217 178.15273831272984 L217.61803503690962 173.23247696912276 L220.58705260121516 168.5581898636409 L223.79819325660452 164.14215158271912 L227.23161276289153 159.9952405838347 L230.86710934189927 156.12693349335973 L234.68421616191802 152.54530529162832 L238.6622923380813 149.25703522103356 L242.78061211795978 146.26741823414827 L247.01845193827415 143.58038178129232 L251.35517505604037 141.19850772072706 L255.77031347561646 139.12305911973104 L260.24364691189754 137.3540117012643 L264.7552785492305 135.89008967874815 L269.2857073753912 134.7288057107018 L273.8158968900832 133.86650469758973 L278.3273400078081 133.2984111352344 L282.80211999550403 133.0186797325481 L287.2229673059884 133.0204489961057 L291.57331218887026 133.29589748021613 L295.83733298113805 133.83630239861986 L300 134.63210029272602 L304.04711498067616 135.67294945136427 L307.96534602163837 136.94779377833856 L311.742258019195 138.4449278065817 L315.3663385922538 140.15206256138654 L318.82701951650427 142.05639197997755 L322.11469370507746 144.1446596005394 L325.22072778991355 146.4032252406816 L328.13747037454294 148.8181313931354 L330.8582560447072 151.37516907518796 L333.3774052381935 154.0599428779106 L335.6902200893551 156.85793497155228 L337.7929763770413 159.75456783450113 L339.68291171700986 162.73526548489042 L341.3582101513248 165.78551300617494 L342.8179832977373 168.89091417077057 L344.062248231578 172.03724697906003 L345.0919022812546 175.21051694465854 L345.908694926035 178.3970079707378 L346.5151969914012 181.5833306763608 L346.91476734287994 184.75646804611395 L347.1115172839066 187.90381829078294 L347.1102728669506 191.01323482132867 L346.91653532985555 194.0730632529345 L346.5364398711212 197.07217537033893 L345.97671297871335 199.99999999999997 L345.24462852693887 202.8465507487874 L344.3479628550064 205.60245058282402 L343.2949490391206 208.2589532337452 L342.09423056737637 210.80796143295947 L340.7548146233494 213.24204198744707 L339.28602518016294 215.5544377231591 L337.69745610198515 217.73907633416107 L335.9989244444116 219.79057618725133 L334.2004241390637 221.70424914284453 L332.3120802410141 223.47610046341845 L330.344103910397 225.10282589074507 L328.30674829179986 226.58180598244255 L326.21026544682593 227.91109780707177 L324.064864486597 229.0894241050424 L321.88067104198973 230.1161600299718 L319.66768820010503 230.9913175918463 L317.43575902591357 231.7155279293566 L315.194530778236 232.29002154411805 L312.95342091926824 232.71660663412723 L310.7215850067717 232.99764566776622 L308.50788654788533 233.13603034293047 L306.32086888330747 233.13515507844335 L304.16872916038477 232.99888918683428 L302.05929444349204 232.731547878807 L300 232.33786225032657 L297.9978697901812 231.82294840322206 L296.05949917960635 231.19227584955402 L294.1910398829861 230.4516353487515 L292.39818713904793 229.607106324707 L290.68616910692674 228.66502400764597 L289.05973846573846 227.6319464426951 L287.5231661905079 226.51462150367593 L286.0802374694722 225.3199540467861 L284.7342497200043 224.05497333451902 L283.4880126530068 222.72680085545025 L282.3438503286503 221.34261866041456 L281.3036051397777 219.90963833014118 L280.36864365318235 218.43507068363874 L279.5398642333192 216.926096330563 L278.81770636781016 215.38983716448305 L278.2021616093945 213.8333288874269 L277.69278604473607 212.2634946493658 L277.28871419674533 210.68711987941452 L276.9886742638092 209.1108283785258 L276.7910045965367 207.54105973636422 L276.69367131033397 205.98404812789255 L276.69428693029863 204.4458025380241 L276.7901299635818 202.93208845551564 L276.97816529348484 201.44841107012894 L277.25506528913326 200 L277.617231524596 198.5917955691545 L278.06081700177054 197.2284366482182 L278.5817487722312 195.91425006462276 L279.17575085451574 194.6532415820147 L279.8383673449919 193.4490884421754 L280.5649856224828 192.30513345655453 L281.35085954921584 191.22438062855036 L282.1911325733821 190.2094922819325 L283.0808606416229 189.2627876653352 L284.01503483308124 188.38624299754923 L284.98860363024914 187.58149291343202 L285.9964947456767 186.84983326564674 L287.0336364276726 186.19222523314386 L288.09497817238645 185.6093006833213 L289.17551077410803 185.10136873114732 L290.2702856502119 184.66842343521517 L291.3744333819076 184.31015256771678 L292.4831814167915 184.02594739268375 L293.5918708841247 183.81491338454623 L294.69597247874293 183.67588181710286 L295.79110137454353 183.60742215137918 L296.8730311335363 183.60785514957163 L297.93770658150055 183.67526664132836 L298.9812556263132 183.8075218679996 L300 184.00228033019198 L300.9904649104878 184.25701106397747 L301.94938759387753 184.56900827142806 L302.87372476280945 184.93540723176207 L303.76065895112237 185.35320042028815 L304.60760375951816 185.8192537635042 L305.41220801129896 186.33032296014184 L306.1723588314507 186.88306979962513 L306.88618366637496 187.4740784113268 L307.55205126542336 188.09987138013562 L308.16857164904116 188.75692566618642 L308.734595091782 189.4416882691286 L309.2492101516963 190.1505915800094 L309.71174078061773 190.88006836670314 L310.1217425526719 191.62656634181874 L310.4789980508965 192.38656226513837 L310.7835114541984 193.15657553587735 L311.035502368965 193.93318123337718 L311.2353989515089 194.71302256825032 L311.3838303691365 195.4928227094568 L311.4816186490101 196.26939595630154 L311.52976996511006 197.03965822788123 L311.52946541450183 197.8006368460577 L311.48205133478 198.54947959159094 L311.389029214996 199.28346301659641 L311.25204525258494 200 L311.0728796087971 200.6966465361272 L310.85343541491363 201.37110774997103 L310.5957275810929 202.02124313602215 L310.3018714590613 202.64507102080478 L309.97407140904033 203.24077225243067 L309.6146093202889 203.80669312355 L309.225833133466 204.34134753703364 L308.8101454116662 204.8434184265583 L308.36999200548576 205.31175844697148 L307.90785085583167 205.7453899518853 L307.4262209764105 206.14350427837675 L306.9276116559339 206.5054603609518 L306.4145319180711 206.8307826990568 L305.88948027506626 207.11915870438833 L305.35493480874504 207.3704354560585 L304.8133436103571 207.584615893314 L304.2671156083641 207.761854476982 L303.71861181088923 207.90245235211955 L303.1701369871063 208.00685204548353 L302.62393180938113 208.0756317324027 L302.0821654754873 208.10949910843573 L301.5469288277211 208.10928490183028 L301.0202279832431 208.07593606326762 L300.50397848748554 208.01050866968248 L300 207.91416057909575 L299.51001151968217 207.78814387338898 L299.0356271539149 207.63379712579263 L298.57835243382095 207.4525375295534 L298.13958117552426 207.24585292380377 L297.72059288509155 207.01529375207397 L297.32255070266507 206.76246498818128 L296.94649987922395 206.4890180633977 L296.5933667774107 206.19664282785317 L296.2639583859616 205.88705957807483 L295.9589623354654 205.5620111814085 L295.67894740147216 205.22325532681802 L295.42436447936547 204.87255693022396 L295.1955480139199 204.5116807211282 L294.99271786507853 204.1423840357897 L294.8159815902174 203.7664098406698 L294.6653371220082 203.385480008266 L294.540675819954 203.00128886580876 L294.44178587275417 202.6154970356112 L294.36835602785544 202.22972558414887 L294.3199796238649 201.84555049521055 L294.29615890093845 201.4644974807109 L294.29630956381214 201.08803714099926 L294.3197655718166 200.71758048474058 L294.365784129997 200.35447481669647 L294.43355085535904 200 L294.52218509226657 199.65536509780284 L294.63074535112776 199.3217053974891 L294.7582348447209 199.00007981899674 L294.90360709682363 198.69146870717654 L295.065771598218 198.3967720065492 L295.2435994856416 198.1168078153056 L295.4359292198381 197.85231131393127 L295.6415722395299 197.60393406243546 L295.8593185688722 197.3722436588236 L296.0879423567657 197.15772375018187 L296.3262073272805 196.9607743865399 L296.5728721213844 196.78171270655022 L296.8266955111635 196.62077394297202 L297.086441468764 196.47811273497126 L297.3508840733733 196.35380473335874 L297.61881224068304 196.2478484840728 L297.88903426043316 196.1601675744862 L298.16038212882046 196.09061302647032 L298.4317156637618 196.03896591958608 L298.7019263922201 196.0049402272941 L298.9699412000352 195.9881858486795 L299.23472573593585 195.98829181787434 L299.4952875626449 196.00478967312864 L299.7506790492211 196.03715696733005 L300 196.0848209016989 L300.2424000167012 196.14716206438933 L300.4770805914571 196.22351825580606 L300.7032969296778 196.31318838259585 L300.92035950280217 196.41543640249438 L301.1276353320883 196.52949530249478 L301.3245490056615 196.65457109315494 L301.51058343206984 196.7898468022725 L301.68528033458017 196.93448645162312 L301.8482404913924 197.087639000981 L301.9991237278434 197.24844224421136 L302.13764866751654 197.4160266428427 L302.2635922499666 197.58951908318812 L302.37678902351024 197.768046543783 L302.47713022221507 197.9507396606409 L302.5645626368511 198.13673617859408 L302.6390872901372 198.32518427777546 L302.7007579271292 198.51524576511426 L302.7496793320513 198.7060991215491 L302.7860054832667 198.89694239651067 L302.80993755842 199.08699594208474 L302.8217218020648 199.27550498013156 L302.82164726830626 199.46174199650844 L302.8100434511546 199.6450089574091 L302.78727781539055 199.82463934370122 L302.7537532407947 200 L302.7099053925907 200.1704927960637 L302.6562000308973 200.3355560989318 L302.5931302718774 200.49466605504242 L302.5212138131175 200.64733768236488 L302.4409901355714 200.79312577335736 L302.35301769415105 200.93162561031102 L302.2578711087637 201.06247349536528 L302.1561383672604 201.1853470981727 L302.0484180513971 201.29996562485437 L301.9353165965063 201.40608981251643 L301.8174455951419 201.50352175419215 L301.6954191544966 201.59210455963256 L301.5698513168982 201.6717218578881 L301.44135355217617 201.74229714810625 L301.31053233015024 201.80379300541173 L301.1779867809396 201.85621014913696 L301.0443064502144 201.89958638103198 L300.91006915592885 201.93399540140274 L300.7758389524786 201.9595455114037 L300.64216420761795 201.97637820994896 L300.50957579686917 201.98466669390137 L300.37858541953847 201.98461427035343 L300.24968403984684 201.97645268992895 L300.1233404560727 201.96044041010984 L300 201.9368607976268 L299.880083368371 201.9060202789527 L299.76398558745296 201.8682464478972 L299.65207511125726 201.82388613922762 L299.5446930533844 201.77330347713118 L299.4421525519258 201.71687790719312 L299.3447382663249 201.6550022203907 L299.2527060045886 201.58808057740006 L299.16628247875656 201.5165265412817 L299.08566518606574 201.44076112635173 L299.0110224128072 201.36121087076336 L298.94249335745366 201.27830594001733 L298.88018836924357 201.19247826829334 L298.8241892980415 201.10415974414815 L298.77454995095707 201.0137804467638 L298.7312966508912 200.92176693855038 L298.69442889189924 200.82854061951684 L298.6639200860042 200.7345161484205 L298.6397183958696 200.64009993529388 L298.62174764754593 200.54568870952792 L298.6099083173374 200.45166816726663 L298.6040785866987 200.35841170143863 L298.6041154589621 200.26627921732216 L298.60985593161473 200.17561603610966 L298.621118217793 200.08675188850967 L298.63770301063687 200 L298.65939478414566 199.91565626892603 L298.6859631242074 199.83399853822584 L298.7171640835235 199.7552859611597 L298.7527415542289 199.6797584610259 L298.792428652106 199.60763628446273 L298.83594910641483 199.5391196475636 L298.88301864950284 199.47438847367582 L298.93334640052154 199.41360222140855 L298.9866362377589 199.35689980104985 L299.0425881542951 199.30439957727933 L299.1008995919044 199.25619945577012 L299.16126674835516 199.21237705099793 L299.2233858535048 199.17298993231645 L299.28695440984 199.13807594512133 L299.35167239337994 199.10765360370578 L299.4172434111342 199.08172255221214 L299.48337581159274 199.06026408990508 L299.5497837450111 199.04324175683485 L299.61618817055404 199.03060197582016 L299.68231780765433 199.02227474656397 L299.74791002924906 199.0181743876184 L299.8127116948557 199.0182003218381 L299.8764799217532 199.02223790090508 L299.93898279283513 199.03015926447074 L300 199.04182422944297 L300.0593234222379 199.05708120494742 L300.1167576378653 199.07576812851096 L300.17212037064076 199.09771341905207 L300.2252428697756 199.1227369423174 L300.2759702241207 199.150650984473 L300.3241616110719 199.18126122964566 L300.36969048099036 199.21436773730903 L300.41244467817364 199.24976591552513 L300.4523264996442 199.28724748617856 L300.48925269324116 199.32660143848105 L300.5231543967086 199.36761496717546 L300.55397701966683 199.41007439202934 L300.5816800705341 199.45376605538016 L300.6062369306352 199.49847719467306 L300.6276345778851 199.5439967871198 L300.64587326257737 199.5901163638006 L300.6609661379317 199.63663079073015 L300.67293884816564 199.68333901461313 L300.6818290769543 199.73004477122112 L300.6876860592213 199.7765572545342 L300.6905700592763 199.8226917450013 L300.69055181836325 199.86827019548664 L300.6877119747286 199.91312177368258 L300.68214045934127 199.9570833599803 L300.6739358704094 200 L300.6632048298401 200.0417253111904 L300.65006132477134 200.08212184311023 L300.63462603728374 200.12106139120542 L300.61702566535746 200.15842526409065 L300.5973922380941 200.1941045045334 L300.5758624281596 200.22800006452266 L300.5525768643373 200.2600229349814 L300.52767944699485 200.29009423085193 L300.5013166691843 200.31814523244492 L300.47363694599153 200.34411738409744 L300.4447899546476 200.36796225133034 L300.41492598780013 200.38964143783238 L300.38419532222207 200.40912646372524 L300.35274760510976 200.426398606682 L300.32073125998926 200.44144870757913 L300.28829291411535 200.45427694246143 L300.2555768491066 200.4648925626863 L300.2227244764156 200.4733136051929 L300.18987383909 200.47956657490982 L300.15715914112985 200.4836861013719 L300.12471030559857 200.48571457166622 L300.0926525624959 200.485701741864 L300.06110606724985 200.48370432912353 L300.0301855505383 200.47978558666787 L300 200.47401486384953 L299.97065237425187 200.4664671535142 L299.94223934948394 200.45722262886548 L299.9148510987628 200.44636617201525 L299.888571104039 200.43398689637695 L299.8634760007164 200.42017766502457 L299.83963545451775 200.40503460709743 L299.8171120702507 200.388656634282 L299.7959613319628 200.37114495934384 L299.7762315738586 200.3526026186209 L299.75796398124334 200.3331340003195 L299.7411926206567 200.31284438037974 L299.72594449826204 200.29183946759684 L299.7122396454693 200.2702249596005 L299.7000912306846 200.24810611120577 L299.68950569600554 200.2255873165554 L299.6804829176105 200.20277170637937 L299.6730163885289 200.17976076159704 L299.6670934224241 200.15665394438784 L299.6626953769732 200.13354834775325 L299.65979789538665 200.11053836448878 L299.6583711645765 200.08771537638 L299.6583801884573 200.06516746433175 L299.6597850748416 200.04297914003337 L299.6625413343807 200.0212310996593 L299.66660018999465 200 L299.6719088952351 199.97935825731483 L299.67841106003317 199.95937386909884 L299.6860469822948 199.9401102588554 L299.69475398382696 199.92162614387064 L299.70446674910147 199.90397542589133 L299.715117665393 199.88720710451742 L299.72663716286314 199.87136521303256 L299.7389540532025 199.85648877631203 L299.7519958654864 199.84261179036693 L299.7656891779493 199.82976322300826 L299.7799599444355 199.81796703504128 L299.79473381433934 199.8072422213339 L299.8099364449084 199.7976028710398 L299.8254938048453 199.78905824619787 L299.84133246820915 199.78161287787728 L299.8573798976844 199.77526667898766 L299.8735647163548 199.77001507283126 L299.889816967191 199.7658491364343 L299.9060683595323 199.76275575766175 L299.92225250191615 199.7607178050908 L299.938305120683 199.75971430959453 L299.9541642638581 199.7597206565688 L299.9697704898852 199.76070878772103 L299.98506704086213 199.7626474113313 L300 199.76550221989052 L300.0145184331004 199.7692361140224 L300.0285745139165 199.77380943159875 L300.0421236333323 199.7791801809684 L300.0551244923644 199.78530427723192 L300.06753917905377 199.7921357805119 L300.0793332293812 199.7996271351904 L300.09047567240134 199.807729409108 L300.10093905984854 199.8163925317486 L300.1106994805239 199.82556553046484 L300.1197365598286 199.8351967638325 L300.1280334448567 199.8452341512606 L300.13557677550955 199.8556253980223 L300.14235664213766 199.86631821491446 L300.1483665302575 199.8772605317967 L300.1536032529276 199.8884007043081 L300.1580668714034 199.899687713105 L300.1617606047191 199.91107135501414 L300.1646907288759 199.9225024255442 L300.16686646633417 199.9339328922492 L300.1682998665327 199.94531605849016 L300.16900567817135 199.95660671719125 L300.1690012140075 199.96776129424074 L300.1683062089274 199.97873798123757 L300.1669426720584 199.989496857337 L300.16493473369223 200 L300.16230848778923 200.0102115845017 L300.15909183082897 200.02009797210448 L300.1553142977683 200.02962778684972 L300.15100689585665 200.03877198097058 L300.14620193704775 200.04750388897423 L300.1409328697316 200.05579927048697 L300.1352341104927 200.06363634199937 L300.1291408765823 200.0709957976894 L300.12268901976853 200.07786081954188 L300.11591486220556 200.08421707702024 L300.1088550349371 200.0900527165813 L300.10154631961973 200.09535834135863 L300.0940254940251 200.10012698136984 L300.08632918184634 200.10435405463298 L300.07849370730327 200.10803731960297 L300.07055495500794 200.11117681936395 L300.0625482355164 200.1137748180336 L300.05450815695866 200.11583572985657 L300.04646850310314 200.11736604147868 L300.03846211817427 200.11837422790975 L300.0305207987076 200.11887066269307 L300.0226751926884 200.11886752280972 L300.014954706184 200.11837868885254 L300.0073874176431 200.11741964100878 L300 200.11600735139336 L299.9928176506849 200.1141601732733 L299.98586402960717 200.1118977277232 L299.9791612051437 200.10924078824564 L299.9727296081305 200.10621116388472 L299.96658799382385 200.1028315813523 L299.9607534117649 200.09912556667618 L299.9552411834521 200.0951173268668 L299.95006488769445 200.09083163208598 L299.9452363534947 200.08629369878483 L299.9407656602797 200.0815290742621 L299.93666114527537 200.0765635230748 L299.93292941779674 200.0714229157141 L299.9295753802022 200.06613311993857 L299.92660225524287 200.06071989513524 L299.9240116195163 200.05520879005564 L299.92180344271924 200.04962504425188 L299.9199761323775 200.04399349351192 L299.9185265837186 200.0383384795704 L299.91745023434015 200.03268376434443 L299.9167411233181 200.0270524489202 L299.91639195438887 200.02146689748858 L299.9163941628355 200.01594866640414 L299.9167379857003 200.01051843851465 L299.91741253494604 200.0051959628832 L299.91840587318364 200 L299.91970509158637 199.994948272555 L299.92129638961114 199.9900574218181 L299.92316515615113 199.98534296964996 L299.9252960517482 199.98081928614175 L299.92767309149974 199.97649956286062 L299.9302797283019 199.97239579165375 L299.9330989360796 199.96851874894395 L299.93611329266344 199.96487798542844 L299.939305061985 199.96148182107245 L299.9426562752734 199.9583373452719 L299.9461488109483 199.95545042204026 L299.94976447292026 199.95282570005944 L299.9534850670219 199.95046662741836 L299.95729247530926 199.9483754708489 L299.96116872798945 199.94655333925581 L299.96509607274606 199.94500021132512 L299.96905704125135 199.94371496698528 L299.97303451267146 199.942695422485 L299.9770117739891 199.94193836884466 L299.98097257698436 199.9414396134299 L299.9849011917349 199.94119402439136 L299.9887824565124 199.94119557770907 L299.9926018239727 199.94143740657677 L299.9963454035513 199.94191185286004 L300 199.94261052035964 L300.0035531480103 199.9435243296126 L300.00699314289403 199.94464357396456 L300.0103090673028 199.9459579766487 L300.01349081398877 199.94745674861008 L300.01652910462275 199.9491286468183 L300.01941550470224 199.9509620328171 L300.022142434597 199.95294493126423 L300.0247031767951 199.9550650882234 L300.02709187942315 199.95731002897642 L300.02930355613296 199.9596671151331 L300.03133408245253 199.96212360082424 L300.03318018871727 199.96466668777455 L300.03483944970316 199.96728357906045 L300.0363102710974 199.96996153137044 L300.0375918729485 199.97268790559554 L300.0386842702476 199.97545021558946 L300.03958825080053 199.97823617495024 L300.0403053505554 199.98103374168687 L300.040837826558 199.98383116064727 L300.0411886277104 199.98661700359608 L300.0413613635148 199.9893802068441 L300.041360270984 199.99211010634326 L300.04119017990735 199.9947964701742 L300.04085647665715 199.99742952836596 L300.040365066726 200 L300.03972233618197 200.00249911756342 L300.03893511223026 200.0049186485278 L300.0380106230663 200.0072509141426 L300.0369564572052 200.00948880544408 L300.03578052246667 200.0116257964909 L300.03449100479475 200.01365595484984 L300.0330963270833 200.0155739493647 L300.0316051081759 200.01737505525273 L300.0300261222039 200.01905515658098 L300.02836825841786 200.02061074618604 L300.02664048166406 200.02203892310789 L300.02485179364874 200.02333738761786 L300.02301119512737 200.02450443392723 L300.02112764914716 200.02553894067123 L300.01921004546426 200.02644035926846 L300.0172671662481 200.02720870026312 L300.01530765317705 200.0278445177608 L300.0133399760226 200.02834889207534 L300.011372402807 200.02872341070676 L300.0094129716147 200.02897014777452 L300.0074694641255 200.0290916420329 L300.0055493809303 200.02909087359805 L300.003659918681 200.028971239517 L300.0018079491167 200.0287365283113 L300 200.0283908936273 L299.99824223798794 200.02793882712555 L299.9965404534547 200.02738513074186 L299.99490004727306 200.02673488844965 L299.99332601955444 200.02599343765428 L299.9918229603398 200.0251663403451 L299.9903950422242 200.02425935413098 L299.9890460148927 200.02327840328007 L299.9877792015359 200.02222954988258 L299.9865974971077 200.02111896525074 L299.9855033683824 200.0199529016662 L299.98449885575906 200.01873766458107 L299.98358557675886 200.0174795853731 L299.9827647311536 200.0161849947513 L299.98203710765864 200.0148601969025 L299.9814030921204 200.01351144446394 L299.9808626771225 200.01214491440138 L299.98041547293315 200.01076668486598 L299.9800607197103 200.0093827130974 L299.9797973008809 200.00799881443456 L299.97962375760665 200.00662064248883 L299.97953830424694 200.0052536705285 L299.979538844728 200.0039031741173 L299.97962298972624 200.00257421504247 L299.97978807457343 200.00127162656275 L299.9800311777898 200 L299.9803491401519 199.9987636726914 L299.98073858420355 199.99756671731444 L299.9811959341164 199.99641293258952 L299.98171743581 199.9953058353604 L299.98229917724217 199.99424865404646 L299.98293710878085 199.9932443234553 L299.983627063574 199.99229548093936 L299.98436477783173 199.99140446387491 L299.9851459109427 199.9905733084368 L299.98596606534545 199.9898037496382 L299.98682080608074 199.9890972226001 L299.98770567995473 199.988454865011 L299.9886162342438 199.98787752073403 L299.9895480348787 199.98736574451462 L299.99049668404786 199.98691980773893 L299.9914578371634 199.98653970519078 L299.9924272191392 199.98622516275103 L299.99340063993225 199.9859756459824 L299.99437400930617 199.98579036953987 L299.99534335077607 199.98566830734507 L299.9963048147018 199.9856082034621 L299.99725469049946 199.9856085836111 L299.99818941794547 199.985667767254 L299.9991055975524 199.98578388018822 L300 199.98595486758188 L300.00086957460877 199.9861785073856 L300.00171145684857 199.9864524240552 L300.00252297487765 199.98677410252074 L300.0033016551132 199.9871409023383 L300.0040452268366 199.98755007196087 L300.00475162584183 199.98799876306745 L300.0054189971389 199.9884840448898 L300.00604569672714 199.9890029184782 L300.0066302924567 199.9895523308504 L300.0071715640007 199.9901291889679 L300.0076685019624 199.99073037348867 L300.0081203061452 199.99135275224506 L300.0085263830152 199.99199319340022 L300.00888634239055 199.99264857823798 L300.00919999339106 199.99331581354403 L300.00946733968544 199.99399184353922 L300.0096885740763 199.99467366132845 L300.00986407246165 199.99535831983226 L300.0099943872164 199.99604294217025 L300.01008024003596 199.99672473146956 L300.0101225142866 199.99740098007402 L300.0101222469076 199.998069078133 L300.01008061991064 199.99872652155233 L300.0099989515218 199.99937091929212 L300.00987868701344 200 L300.0097213892708 200.0006116179712 L300.0095287291402 200.00120375842965 L300.00930247560365 200.0017745421273 L300.0090444858257 200.002322229262 L300.00875669511527 200.00284522271684 L300.00844110684767 200.00334207062625 L300.00809978238783 200.0038114682773 L300.00773483105615 200.00425225935706 L300.00734840017714 200.0046634365585 L300.00694266524886 200.005044141561 L300.00651982027017 200.0053936644023 L300.0060820682608 200.00571144226154 L300.0056316120078 200.00599705767496 L300.0051706450697 200.00625023620694 L300.00470134306835 200.00647084360122 L300.00422585529543 200.0066588824383 L300.00374629665976 200.00681448832643 L300.00326473999877 200.00693792565465 L300.00278320877516 200.00702958293758 L300.002303670178 200.0070899677818 L300.00182802864555 200.00711970150581 L300.00135811982426 200.007119513444 L300.00089570497653 200.00709023496785 L300.0004424658475 200.0070327932558 L300 200.00694820484455 L299.9995698166219 200.00683756899426 L299.9991533328122 200.00670206089978 L299.9987518703458 200.00654292478015 L299.9983666529179 200.00636146687762 L299.9979988038655 200.00615904839773 L299.9976493443628 200.0059370784207 L299.99731919208364 200.0056970068138 L299.9970091603242 200.00544031717402 L299.99671995757694 200.0051685198287 L299.99645218754443 200.00488314492105 L299.9962063495808 200.0045857356069 L299.9959828395477 200.0042778413869 L299.99578195106966 200.00396101159816 L299.9956038771718 200.00363678908684 L299.99544871228363 200.00330670408314 L299.9953164545902 200.002972268298 L299.99520700871096 200.00263496925908 L299.9951201886871 200.0022962649029 L299.9950557212557 200.00195757843815 L299.9950132493901 200.00162029349335 L299.994992336084 200.00128574956102 L299.9949924683579 200.00095523774866 L299.99501306146396 200.00062999684562 L299.9950534632685 200.00031120971252 L299.99511295878733 200 L299.99519077485235 199.9996974292001 L299.9952860848867 199.99940449403368 L299.99539801376505 199.99912212417522 L299.995525642738 199.99885118031443 L299.9956680143974 199.9985924525539 L299.99582413766234 199.99834665913963 L299.99599299276423 199.9981144455203 L299.9961735362105 199.99789638373028 L299.99636470570795 199.99769297209002 L299.99656542502555 199.99750463521542 L299.9967746087799 199.9973317243288 L299.9969911671249 199.99717451786074 L299.9972140103297 199.99703322233285 L299.9974420532286 199.99690797351 L299.99767421952953 199.99679883780942 L299.9979094459659 199.99670581395463 L299.9981466862807 199.99662883485942 L299.9983849150296 199.99656776972904 L299.99862313119456 199.99652242636324 L299.99886036159614 199.99649255364614 L299.9990956640982 199.9964778442081 L299.9993281305963 199.99647793724333 L299.9995568897842 199.99649242146774 L299.9997811096931 199.996520838201 L300 199.99656268455684 L300.0002128141012 199.99661741672512 L300.00041885095 199.99668445333043 L300.000617456657 199.99676317885076 L300.0008080258534 199.99685294708075 L300.00099000281824 199.99695308462455 L300.0011628823709 199.99706289440235 L300.00132621053314 199.99718165915672 L300.0014795849627 199.99730864494407 L300.00162265516445 199.9974431045971 L300.00175512248353 199.99758428114546 L300.0018767398866 199.9977314111814 L300.00198731153864 199.99788372815834 L300.00208669218205 199.99804046561067 L300.0021747863262 199.99820086028387 L300.00225154725626 199.9983641551645 L300.0023169758702 199.99852960240082 L300.0023711193532 199.9986964661047 L300.00241406970014 199.99886402502676 L300.0024459620957 199.99903157509786 L300.002466973163 199.99919843182926 L300.00247731909144 199.9993639325666 L300.00247725365483 199.99952743859185 L300.0024670661311 199.99968833706907 L300.00244707913447 199.9998460428305 L300.0024176463716 200 L300.002379150333 200.00014968345155 L300.0023319999308 200.0002946001018 L300.00227662809436 200.00043429003566 L300.0022134893341 200.00056832746515 L300.00214305728525 200.00069632152213 L300.0020658222408 200.00081791688635 L300.0019822886861 200.00093279425076 L300.0018929728427 200.00104067062674 L300.0017984002329 200.00114129949247 L300.00169910327406 200.0012344707881 L300.00159561891155 200.00132001076196 L300.00148848629806 200.00139778167295 L300.0013782445297 200.00146768135366 L300.0012654304438 200.00152964264043 L300.0011505764881 200.00158363267633 L300.0010342086664 200.00162965209284 L300.00091684456794 200.00166773407784 L300.00079899148557 200.00169794333627 L300.0006811446286 200.00172037495062 L300.00056378543417 200.00173515314933 L300.0004473799824 200.00174242998983 L300.00033237751745 200.0017423839648 L300.0002192090795 200.00173521853873 L300.0001082862479 200.00172116062328 L300 200.00170045899912 L299.99989471968473 200.00167338269216 L299.9997927921138 200.001640219312 L299.9996945407699 200.00160127336082 L299.9996002651323 200.00155686451993 L299.99951024011926 200.00150732592206 L299.99942471564646 200.00145300241644 L299.9993439162995 200.00139424883426 L299.9992680411192 200.0013314282615 L299.9991972634975 200.00126491032597 L299.9991317311806 200.00119506950512 L299.9990715663773 200.00112228346094 L299.99901686596826 200.00104693140833 L299.9989677018132 200.00096939252202 L299.9989241211519 200.00089004438829 L299.99888614709437 200.00080926150588 L299.99885377919645 200.00072741384116 L299.99882699411535 200.00064486544213 L299.99880574634074 200.00056197311477 L299.9987899689959 200.00047908516603 L299.99877957470443 200.00039654021631 L299.99877445651634 200.00031466608434 L299.99877448888816 200.0002337787475 L299.9987795287126 200.00015418137914 L299.9987894163906 200.00007616346497 L299.99880397694153 200 L299.99882302114514 199.999925950767 L299.9988463467104 199.99985425969697 L299.9988737394648 199.99978515431255 L299.99890497455937 199.99971884525334 L299.9989398176843 199.99965552588404 L299.9989780262888 199.99959537198347 L299.99901935080123 199.99953854151465 L299.99906353584396 199.99948517447362 L299.9991103214382 199.99943539281605 L299.999159444194 199.99938930045977 L299.99921063848166 199.99934698336062 L299.99926363757925 199.99930850965995 L299.999318174793 199.99927392990054 L299.9993739845465 199.99924327730858 L299.9994308034349 199.99921656813862 L299.9994883712412 199.99919380207822 L299.99954643191114 199.9991749627092 L299.99960473448414 199.99916001802166 L299.99966303397736 199.99914892097772 L299.99972109222125 199.99914161012092 L299.99977867864334 199.99913801022757 L299.9998355710001 199.99913803299643 L299.99989155605357 199.9991415777724 L299.99994643019306 199.9991485323011 L300 199.9991587735093 L300.0000520827554 199.9991721683084 L300.0001025068896 199.99918857441637 L300.000151112374 199.99920784119425 L300.0001977510544 199.99922981049394 L300.00024228692723 199.99925431751285 L300.00028459635786 199.99928119165213 L300.0003245682426 199.99931025737484 L300.0003621041148 199.99934133506034 L300.00039711819653 199.99937424185168 L300.0004295373968 199.9994087924928 L300.00045930125845 199.99944480015225 L300.000486361854 199.99948207723025 L300.00051068363393 199.99952043614704 L300.00053224322863 199.99955969010853 L300.0005510292053 199.99959965384815 L300.00056704178377 199.9996401443415 L300.00058029251187 199.99968098149196 L300.0005908039037 199.9997219887857 L300.00059860904366 199.9997629939133 L300.00060375115726 199.99980382935738 L300.0006062831533 199.9998443329442 L300.0006062671387 199.99988434835802 L300.00060377390963 199.99992372561726 L300.00059888242055 199.9999623215118 L300.00059167923536 200 L300.00058225796226 200.00003663256595 L300.0005707186758 200.00007209853558 L300.00055716732845 200.00010628535225 L300.00054171515404 200.0001390888113 L300.00052447806706 200.00017041325424 L300.00050557605863 200.0002001717222 L300.0004851325933 200.00022828607007 L300.0004632740078 200.00025468704104 L300.0004401289151 200.00027931430293 L300.00041582761554 200.00030211644702 L300.00039050151776 200.00032305095047 L300.00036428257044 200.0003420841034 L300.00033730270854 200.00035919090203 L300.0003096933142 200.00037435490916 L300.0002815846952 200.00038756808357 L300.0002531055824 200.0003988305798 L300.0002243826472 200.00040815052006 L300.00019554004126 200.00041554373982 L300.0001666989588 200.00042103350896 L300.00013797722386 200.00042465023034 L300.00010948890167 200.00042643111752 L300.0000813439375 200.00042641985365 L300.0000536478213 200.0004246662333 L300.0000265012804 200.00042122578944 L300 200.000416159407 L299.99997423437225 200.00040953292563 L299.9999492892736 200.0004014167331 L299.99992524387113 200.00039188535132 L299.99990217145745 200.000381017017 L299.99988013931437 200.00036889325892 L299.99985920860456 200.00035559847328 L299.99983943429163 200.00034121949918 L299.99982086508766 200.00032584519593 L299.9998035434274 200.0003095660239 L299.9997875054693 200.00029247363025 L299.99977278112203 200.00027466044156 L299.99975939409546 200.0002562192645 L299.9997473619761 200.00023724289576 L299.99973669632516 200.00021782374347 L299.9997274027983 200.00019805346 L299.99971948128706 200.00017802258856 L299.9997129260784 200.0001578202239 L299.9997077260346 200.00013753368845 L299.99970386478867 200.00011724822457 L299.99970132095655 200.00009704670407 L299.99970006836406 200.0000770093552 L299.99970007628656 200.00005721350823 L299.9997013097008 200.00003773335985 L299.9997037295476 200.00001863975695 L299.9997072930032 200 L299.99971195375923 199.9999818776666 L299.99971766230817 199.99996433245488 L299.99972436623483 199.99994742004722 L299.99973201051114 199.99993119199422 L299.9997405377936 199.9999156956187 L299.9997498887219 199.99990097393967 L299.9997600022175 199.99988706561598 L299.9997708157809 199.99987400490934 L299.99978226578656 199.9998618216664 L299.9997942877741 199.99985054131935 L299.99980681673503 199.99984018490446 L299.99981978739356 199.99983076909822 L299.99983313448075 199.99982230627015 L299.99984679300115 199.9998148045518 L299.99986069849075 199.9998082679212 L299.9998747872657 199.99980269630188 L299.9998889966609 199.99979808567576 L299.9999032652579 199.999794428209 L299.9999175331012 199.99979171238977 L299.9999317419027 199.99978992317767 L299.9999458352336 199.99978904216292 L299.9999597587033 199.99978904773522 L299.9999734601255 199.9997899152609 L299.99998688966974 199.99979161726756 L300 199.99979412363504 L300.00001274639885 199.99979740179208 L300.0000250868774 199.9998014169175 L300.00003698227124 199.9998061321449 L300.00004839632214 199.9998115087701 L300.0000592957454 199.99981750646043 L300.0000696502836 199.99982408346457 L300.0000794327458 199.99983119682273 L300.0000886190339 199.99983880257577 L300.0000971881552 199.99984685597238 L300.00010512222195 199.99985531167425 L300.0001124064382 199.9998641239574 L300.0001190290744 199.9998732469099 L300.00012498143053 199.99988263462467 L300.0001302577872 199.99989224138693 L300.00013485534635 199.99990202185575 L300.00013877416194 199.99991193123884 L300.00014201705994 199.9999219254606 L300.0001445895504 199.99993196132212 L300.00014649973025 199.99994199665352 L300.00014775817806 199.99995199045767 L300.0001483778425 199.9999619030452 L300.0001483739232 199.9999716961604 L300.0001477637463 199.99998133309776 L300.0001465666347 199.99999077880895 L300.0001448037735 200 L300.0001424980716 200.00000896521877 L300.00013967402083 200.00001764493223 L300.0001363575512 200.00002601159403 L300.00013257588535 200.00003403970177 L300.0001283573914 200.00004170584464 L300.0001237314354 200.00004898874084 L300.0001187282331 200.00005586926565 L300.0001133787033 200.0000623304696 L300.0001077143221 200.0000683575874 L300.0001017669782 200.00007393803762 L300.0000955688318 200.00007906141346 L300.0000891521751 200.00008371946498 L300.00008254929713 200.00008790607293 L300.00007579235137 200.00009161721457 L300.00006891322863 200.00009485092195 L300.0000619434336 200.0000976072329 L300.000054913967 200.0000998881352 L300.000047855213 200.00010169750428 L300.00004079683185 200.0001030410351 L300.00003376765903 200.00010392616824 L300.00002679561015 200.00010436201111 L300.0000199075925 200.00010435925446 L300.000013129423 200.00010393008472 L300.00000648575303 200.00010308809257 L300 200.0001018481787 L299.9999936942859 200.00010022645625 L299.9999875893827 200.00009824015146 L299.99998170466546 200.00009590750233 L299.99997605807124 200.00009324765603 L299.99997066606613 200.0000902805654 L299.9999655436187 200.000087026885 L299.99996070418047 200.0000835078673 L299.9999561596728 200.00007974525911 L299.999951920481 200.00007576119918 L299.9999479954542 200.0000715781166 L299.9999443919121 200.0000672186313 L299.99994111565724 200.00006270545612 L299.9999381709937 200.00005806130162 L299.9999355607508 200.00005330878307 L299.9999332863128 200.00004847033097 L299.99993134765305 200.00004356810422 L299.9999297433734 200.00003862390733 L299.9999284707481 200.000033659111 L299.99992752577157 200.00002869457694 L299.99992690321045 200.00002375058665 L299.999926596659 200.00001884677468 L299.99992659859794 200.0000140020663 L299.9999269004558 200.00000923462 L299.9999274926735 200.00000456177432 L299.99992836477077 200 L299.99992950541423 199.9999955648566 L299.99993090248785 199.99999127095424 L299.99993254316377 199.99998713192028 L299.9999344139748 199.99998316037087 L299.9999365008871 199.99997936788753 L299.99993878937323 199.99997576499842 L299.99994126448513 199.99997236116465 L299.99994391092713 199.99996916477124 L299.99994671312794 199.99996618312267 L299.9999496553119 199.99996342244305 L299.9999527215693 199.9999608878806 L299.99995589592487 199.9999585835167 L299.9999591624052 199.99995651237856 L299.9999625051037 199.9999546764562 L299.9999659082439 199.99995307672324 L299.9999693562401 199.99995171316095 L299.9999728337562 199.99995058478595 L299.99997632576094 199.99994968968102 L299.99997981758116 199.99994902502888 L299.99998329495196 199.99994858714862 L299.99998674406316 199.99994837153474 L299.9999901516037 199.99994837289844 L299.9999935048017 199.99994858521111 L299.999996791462 199.9999490017493 L300 199.99994961514156 L300.0000031194717 199.99995041741664 L300.00000613960117 199.99995140005265 L300.0000090508034 199.9999525540271 L300.00001184420483 199.9999538698678 L300.0000145116597 199.99995533770397 L300.0000170457628 199.99995694731768 L300.0000194398597 199.99995868819525 L300.0000216880528 199.99996054957836 L300.0000237852045 199.9999625205149 L300.000025726937 199.99996458990904 L300.00002750962926 199.99996674657058 L300.0000291304107 199.99996897926334 L300.0000305871521 199.99997127675232 L300.0000318784537 199.99997362784958 L300.0000330036308 199.99997602145865 L300.00003396269653 199.9999784466174 L300.00003475634253 199.99998089253899 L300.00003538591733 199.99998334865126 L300.00003585340244 199.99998580463375 L300.0000361613869 199.99998825045316 L300.0000363130396 199.99999067639612 L300.0000363120804 199.9999930731002 L300.0000361627496 199.9999954315823 L300.00003586977624 199.99999774326497 L300.0000354383449 200 L300.00003487406224 200.00000219409003 L300.0000341829222 200.0000043183073 L300.0000333712707 200.00000636591037 L300.00003244577016 200.00000833065786 L300.00003141336305 200.00001020682038 L300.0000302812363 200.0000119891896 L300.00002905678474 200.00001367308502 L300.0000277475752 200.00001525435854 L300.0000263613109 200.00001672939663 L300.00002490579624 200.00001809512014 L300.0000233889017 200.00001934898222 L300.0000218185304 200.0000204889638 L300.00002020258444 200.00002151356733 L300.000018548933 200.0000224218083 L300.0000168653807 200.00002321320505 L300.0000151596378 200.00002388776687 L300.00001343929137 200.00002444598024 L300.0000117117773 200.0000248887936 L300.00000998435445 200.00002521760072 L300.00000826407984 200.0000254342225 L300.0000065577854 200.0000255408879 L300.00000487205625 200.00002554021324 L300.0000032132106 200.000025435181 L300.00000158728153 200.00002522911726 L300 200.0000249256687 L299.99999845678 200.00002452877877 L299.99999696270527 200.00002404266328 L299.9999955225174 200.00002347178574 L299.99999414060625 200.00002282083204 L299.99999282100157 200.00002209468536 L299.9999915673667 200.00002129840053 L299.99999038299364 200.00002043717876 L299.9999892708001 200.0000195163422 L299.99998823332754 200.00001854130898 L299.9999872727417 200.00001751756824 L299.99998639083395 200.00001645065583 L299.9999855890244 200.00001534613034 L299.99998486836637 200.00001420954982 L299.9999842295523 200.00001304644897 L299.99998367292096 200.00001186231728 L299.9999831984658 200.00001066257784 L299.99998280584475 200.00000945256684 L299.99998249439057 200.00000823751452 L299.9999822631231 200.00000702252635 L299.9999821107615 200.00000581256595 L299.99998203573807 200.00000461243852 L299.9999820362126 200.00000342677572 L299.99998211008733 200.00000226002155 L299.9999822550229 200.00000111641933 L299.9999824684544 200 L299.99998274760816 199.9999989145715 L299.99998308951893 199.99999786370944 L299.99998349104743 199.99999685074886 L299.9999839488977 199.99999587877738 L299.9999844596352 199.9999949506294 L299.9999850197046 199.99999406888148 L299.99998562544755 199.99999323584908 L299.9999862731208 199.9999924535843 L299.9999869589134 199.99999172387479 L299.9999876789646 199.99999104824377 L299.9999884293807 199.99999042795127 L299.9999892062521 199.99998986399606 L299.99999000566953 199.999989357119 L299.99999082374006 199.99998890780716 L299.99999165660273 199.9999885162988 L299.99999250044317 199.99998818258933 L299.99999335150807 199.9999879064381 L299.99999420611886 199.99998768737586 L299.9999950606845 199.99998752471316 L299.9999959117139 199.99998741754916 L299.9999967558272 199.99998736478122 L299.9999975897668 199.99998736511498 L299.99999841040693 199.999987417075 L299.999999214763 199.9999875190159 L300 199.99998766913356 L300.00000076343946 199.9999878654772 L300.00000150256653 199.99998810596122 L300.00000221503547 199.99998838837752 L300.00000289867455 199.9999887104079 L300.0000035514903 199.9999890696367 L300.0000041716704 199.99998946356322 L300.00000475758634 199.9999898896144 L300.00000530779465 199.99999034515736 L300.0000058210381 199.99999082751168 L300.0000062962452 199.9999913339619 L300.00000673252987 199.9999918617694 L300.0000071291895 199.99999240818428 L300.000007485703 199.99999297045696 L300.00000780172786 199.9999935458494 L300.0000080770965 199.9999941316459 L300.00000831181205 199.99999472516365 L300.0000085060439 199.9999953237628 L300.000008660122 199.9999959248559 L300.0000087745313 199.99999652591728 L300.00000884990544 199.99999712449141 L300.00000888701993 199.99999771820112 L300.00000888678517 199.99999830475505 L300.00000885023894 199.9999988819548 L300.00000877853853 199.99999944770116 L300.0000086729528 200 L300.00000853485386 200.0000005369675 L300.0000083657087 200.00000105683478 L300.00000816707035 200.00000155795198 L300.0000079405693 200.00000203879165 L300.0000076879046 200.0000024979516 L300.00000741083517 200.0000029341572 L300.00000711117076 200.00000334626296 L300.0000067907632 200.00000373325366 L300.0000064514978 200.000004094245 L300.0000060952845 200.0000044284834 L300.00000572404946 200.00000473534556 L300.0000053397269 200.00000501433732 L300.0000049442507 200.0000052650922 L300.00000453954664 200.00000548736926 L300.0000041275249 200.00000568105062 L300.00000371007235 200.00000584613855 L300.0000032890458 200.0000059827521 L300.0000028662651 200.0000060911234 L300.00000244350673 200.00000617159353 L300.00000202249777 200.00000622460814 L300.00000160491027 200.00000625071274 L300.00000119235574 200.00000625054764 L300.0000007863805 200.00000622484274 L300.0000003884611 200.00000617441202 L300 200.00000610014797 L299.99999962232226 200.00000600301567 L299.999999256672 200.00000588404689 L299.9999989042097 200.000005744334 L299.99999856600965 200.00000558502379 L299.99999824305803 200.0000054073113 L299.99999793625153 200.00000521243368 L299.9999976463957 200.0000050016638 L299.99999737420455 200.00000477630417 L299.9999971203002 200.0000045376808 L299.99999688521257 200.00000428713707 L299.99999666938015 200.0000040260278 L299.9999964731504 200.00000375571332 L299.9999962967812 200.0000034775539 L299.99999614044197 200.00000319290407 L299.9999960042156 200.0000029031073 L299.9999958881005 200.00000260949076 L299.99999579201295 200.00000231336045 L299.9999957157897 200.00000201599636 L299.99999565919074 200.00000171864798 L299.9999956219027 200.00000142253003 L299.999995603542 200.00000112881855 L299.99999560365814 200.00000083864705 L299.99999562173775 200.00000055310315 L299.99999565720833 200.00000027322528 L299.9999957094422 200 L299.9999957777605 199.9999997343592 L299.9999958614375 199.99999947717797 L299.999995959705 199.9999992292725 L299.99999607175636 199.99999899139846 L299.999996196751 199.99999876424948 L299.9999963338188 199.99999854845618 L299.99999648206443 199.99999834458518 L299.9999966405718 199.9999981531387 L299.9999968084083 199.9999979745543 L299.999996984629 199.99999780920473 L299.99999716828097 199.9999976573983 L299.9999973584075 199.99999751937955 L299.9999975540518 199.9999973953297 L299.99999775426113 199.999997285368 L299.99999795809055 199.99999718955277 L299.99999816460667 199.99999710788288 L299.99999837289084 199.99999704029938 L299.9999985820428 199.9999969866875 L299.99999879118366 199.99999694687847 L299.99999899945914 199.99999692065185 L299.999999206042 199.99999690773777 L299.999999410135 199.99999690781945 L299.9999996109732 199.9999969205358 L299.99999980782616 199.99999694548416 L300 199.999996982223 L300.00000018683926 199.99999703027487 L300.0000003677285 199.99999708912938 L300.0000005420935 199.99999715824615 L300.00000070940297 199.99999723705778 L300.0000008691689 199.99999732497312 L300.0000010209478 199.9999974213802 L300.0000011643411 199.9999975256492 L300.0000012989955 199.99999763713586 L300.00000142460345 199.99999775518415 L300.0000015409026 199.99999787912952 L300.0000016476761 199.99999800830173 L300.000001744752 199.9999981420278 L300.00000183200285 199.9999982796348 L300.00000190934475 199.99999842045267 L300.0000019767367 199.99999856381672 L300.0000020341795 199.99999870907047 L300.0000020817145 199.99999885556775 L300.0000021194226 199.99999900267542 L300.0000021474224 199.99999914977533 L300.000002165869 199.9999992962665 L300.00000217495216 199.9999994415672 L300.0000021748947 199.99999958511665 L300.0000021659506 199.9999997263768 L300.0000021484031 199.99999986483394 L300.0000021225627 200 L300.00000208876526 200.00000013141397 L300.0000020473698 200.00000025864296 L300.0000019987563 200.00000038128314 L300.00000194332387 200.00000049896076 L300.00000188148834 200.00000061133264 L300.00000181368017 200.00000071808677 L300.0000017403422 200.00000081894288 L300.00000166192774 200.0000009136525 L300.0000015788981 200.0000010019992 L300.00000149172075 200.00000108379857 L300.00000140086706 200.00000115889804 L300.0000013068104 200.00000122717668 L300.00000121002415 200.00000128854484 L300.0000011109795 200.00000134294348 L300.00000101014393 200.0000013903438 L300.00000090797926 200.00000143074638 L300.00000080493993 200.0000014641803 L300.0000007014713 200.0000014907024 L300.0000005980081 200.00000151039615 L300.0000004949731 200.0000015233706 L300.0000003927754 200.00000152975926 L300.0000002918095 200.00000152971887 L300.00000019245374 200.000001523428 L300.0000000950695 200.0000015110859 L300 200.000001492911 L299.9999999075696 200.00000146913948 L299.9999998180827 200.00000144002382 L299.9999997318233 200.0000014058314 L299.9999996490544 200.00000136684284 L299.99999957001734 200.0000013233506 L299.99999949493144 200.00000127565752 L299.999999423994 200.00000122407505 L299.9999993573797 200.00000116892198 L299.9999992952408 200.00000111052285 L299.99999923770696 200.00000104920636 L299.9999991848855 200.00000098530415 L299.9999991368615 200.00000091914913 L299.999999093698 200.0000008510742 L299.99999905543655 200.00000078141082 L299.9999990220974 200.00000071048783 L299.99999899368015 200.00000063863 L299.9999989701643 200.00000056615698 L299.9999989515099 200.000000493382 L299.99999893765823 200.00000042061086 L299.9999989285326 200.00000034814084 L299.9999989240391 200.0000002762598 L299.99999892406754 200.0000002052451 L299.99999892849223 200.0000001353629 L299.9999989371731 200.00000006686741 L299.9999989499565 200 L299.99999896667623 199.99999993498878 L299.9999989871548 199.9999998720479 L299.9999990112042 199.9999998113771 L299.9999990386269 199.99999975316135 L299.99999906921727 199.99999969757036 L299.9999991027624 199.9999996447585 L299.99999913904304 199.99999959486442 L299.99999917783515 199.99999954801103 L299.9999992189104 199.99999950430544 L299.9999992620375 199.99999946383883 L299.9999993069833 199.9999994266867 L299.99999935351366 199.99999939290888 L299.99999940139435 199.99999936254974 L299.9999994503923 199.99999933563842 L299.9999995002762 199.9999993121892 L299.9999995508176 199.99999929220184 L299.9999996017917 199.99999927566188 L299.99999965297826 199.99999926254125 L299.99999970416206 199.99999925279866 L299.99999975513407 199.99999924638013 L299.9999998056918 199.9999992432196 L299.9999998556402 199.9999992432396 L299.9999999047921 199.99999924635173 L299.9999999529686 199.99999925245743 L300 199.99999926144866 L300.00000004572587 199.99999927320857 L300.0000000899955 199.99999928761224 L300.0000001326685 199.99999930452742 L300.00000017361475 199.99999932381527 L300.00000021271484 199.9999993453311 L300.0000002498602 199.99999936892516 L300.00000028495333 199.99999939444328 L300.00000031790785 199.9999994217278 L300.0000003486483 199.9999994506182 L300.0000003771106 199.9999994809518 L300.00000040324164 199.99999951256456 L300.0000004269994 199.99999954529181 L300.0000004483526 199.99999957896887 L300.00000046728076 199.99999961343173 L300.0000004837738 199.99999964851773 L300.000000497832 199.9999996840662 L300.00000050946545 199.999999719919 L300.00000051869387 199.99999975592118 L300.00000052554634 199.99999979192148 L300.00000053006084 199.9999998277728 L300.0000005322838 199.99999986333273 L300.0000005322697 199.99999989846413 L300.00000053008085 199.9999999330352 L300.0000005257864 199.9999999669203 L300.00000051946233 200 L300.000000511191 200.0000000321614 L300.00000050106013 200.00000006329861 L300.00000048916274 200.0000000933128 L300.0000004755966 200.00000012211245 L300.00000046046335 200.0000001496136 L300.00000044386843 200.00000017573996 L300.0000004259202 200.00000020042282 L300.0000004067295 200.00000022360143 L300.0000003864094 200.00000024522285 L300.00000036507413 200.0000002652419 L300.0000003428392 200.00000028362126 L300.0000003198204 200.00000030033132 L300.0000002961335 200.00000031535018 L300.00000027189395 200.00000032866336 L300.0000002472161 200.00000034026382 L300.00000022221303 200.00000035015168 L300.0000001969958 200.00000035833406 L300.0000001716736 200.00000036482493 L300.00000014635265 200.00000036964465 L300.00000012113657 200.00000037281993 L300.00000009612535 200.00000037438346 L300.00000007141557 200.00000037437357 L300.0000000470999 200.00000037283397 L300.0000000232667 200.00000036981345 L300 200.00000036536545 L299.99999997737916 200.00000035954776 L299.9999999554787 200.00000035242218 L299.9999999343682 200.00000034405414 L299.9999999141118 200.00000033451232 L299.9999998947688 200.00000032386833 L299.9999998763928 200.00000031219622 L299.999999859032 200.00000029957226 L299.9999998427292 200.00000028607445 L299.9999998275218 200.00000027178223 L299.9999998134413 200.00000025677602 L299.9999998005141 200.000000241137 L299.99999978876104 200.00000022494666 L299.9999997781975 200.00000020828642 L299.9999997688336 200.00000019123746 L299.9999997606744 200.0000001738802 L299.99999975371975 200.0000001562942 L299.99999974796464 200.00000013855762 L299.99999974339926 200.00000012074713 L299.9999997400093 200.0000001029376 L299.99999973777597 200.00000008520175 L299.9999997366763 200.00000006761005 L299.9999997366832 200.00000005023037 L299.9999997377661 200.00000003312786 L299.9999997398906 200.0000000163647 L299.9999997430191 200 L299.99999974711096 199.99999998408958 L299.9999997521228 199.9999999686858 L299.99999975800847 199.99999995383766 L299.99999976471975 199.99999993959028 L299.9999997722062 199.99999992598532 L299.9999997804158 199.99999991306046 L299.9999997892949 199.99999990084973 L299.9999997987887 199.99999988938313 L299.99999980884115 199.9999998786869 L299.9999998193958 199.99999986878336 L299.99999983039555 199.999999859691 L299.9999998417831 199.99999985142443 L299.9999998535011 199.99999984399452 L299.99999986549255 199.9999998374084 L299.9999998777008 199.9999998316696 L299.99999989007 199.99999982677804 L299.9999999025451 199.99999982273016 L299.9999999150721 199.99999981951908 L299.99999992759854 199.99999981713475 L299.9999999400731 199.9999998155639 L299.9999999524463 199.99999981479044 L299.99999996467034 199.99999981479533 L299.9999999766994 199.99999981555698 L299.99999998848983 199.99999981705125 L300 199.99999981925168 L300.00000001119065 199.99999982212972 L300.00000002202495 199.99999982565478 L300.00000003246845 199.99999982979452 L300.0000000424894 199.9999998345149 L300.00000005205845 199.99999983978054 L300.0000000611492 199.9999998455548 L300.00000006973767 199.99999985179994 L300.0000000778027 199.9999998584774 L300.00000008532595 199.99999986554784 L300.0000000922916 199.99999987297147 L300.00000009868677 199.99999988070817 L300.0000001045011 199.99999988871764 L300.00000010972695 199.99999989695954 L300.0000001143593 199.99999990539376 L300.0000001183957 199.9999999139805 L300.0000001218362 199.9999999226804 L300.0000001246833 199.99999993145477 L300.0000001269418 199.99999994026572 L300.00000012861886 199.9999999490762 L300.0000001297237 199.9999999578502 L300.0000001302677 199.99999996655293 L300.00000013026425 199.99999997515076 L300.00000012972856 199.99999998361147 L300.0000001286776 199.9999999919043 L300.00000012712985 200 L300.0000001251056 200.00000000787097 L300.00000012262626 200.0000000154913 L300.00000011971457 200.00000002283676 L300.00000011639446 200.00000002988503 L300.0000001126908 200.0000000366155 L300.0000001086295 200.00000004300946 L300.00000010423696 200.0000000490502 L300.0000000995404 200.0000000547228 L300.0000000945673 200.00000006001426 L300.0000000893459 200.0000000649136 L300.00000008390424 200.00000006941164 L300.0000000782708 200.00000007350116 L300.0000000724738 200.00000007717676 L300.0000000665416 200.00000008043494 L300.0000000605021 200.000000083274 L300.000000054383 200.00000008569387 L300.0000000482115 200.00000008769638 L300.0000000420143 200.0000000892849 L300.00000003581744 200.00000009046445 L300.0000000296462 200.00000009124156 L300.0000000235251 200.0000000916242 L300.0000000174778 200.00000009162179 L300.00000001152694 200.000000091245 L300.0000000056941 200.00000009050578 L300 200.0000000894172 L299.9999999944639 200.0000000879934 L299.99999998910414 200.00000008624954 L299.9999999839377 200.0000000842016 L299.99999997898027 200.0000000818664 L299.9999999742464 200.00000007926144 L299.9999999697492 200.0000000764049 L299.9999999655004 200.0000000733154 L299.9999999615106 200.00000007001202 L299.99999995778876 200.00000006651425 L299.9999999543428 200.0000000628417 L299.9999999511791 200.00000005901433 L299.99999994830273 200.000000055052 L299.9999999457175 200.00000005097468 L299.99999994342585 200.00000004680223 L299.999999941429 200.00000004255432 L299.99999993972693 200.00000003825045 L299.99999993831847 200.0000000339097 L299.9999999372012 200.00000002955088 L299.9999999363715 200.0000000251923 L299.999999935825 200.00000002085173 L299.9999999355558 200.00000001654644 L299.9999999355575 200.00000001229304 L299.99999993582253 200.0000000081075 L299.9999999363425 200.000000004005 L299.99999993710816 200 L299.99999993810957 199.9999999961062 L299.99999993933613 199.99999999233637 L299.99999994077655 199.9999999887025 L299.99999994241904 199.9999999852157 L299.9999999442512 199.99999998188613 L299.9999999462604 199.99999997872297 L299.9999999484334 199.9999999757346 L299.99999995075683 199.99999997292835 L299.999999953217 199.9999999703106 L299.9999999558001 199.99999996788688 L299.9999999584921 199.9999999656617 L299.999999961279 199.99999996363857 L299.9999999641468 199.9999999618202 L299.9999999670815 199.99999996020838 L299.99999997006927 199.9999999588039 L299.99999997309646 199.99999995760678 L299.9999999761495 199.9999999566161 L299.9999999792153 199.99999995583025 L299.99999998228094 199.99999995524672 L299.9999999853339 199.9999999548623 L299.999999988362 199.999999954673 L299.99999999135366 199.9999999546742 L299.9999999942976 199.99999995486058 L299.99999999718307 199.9999999552263 L300 199.99999995576482 L300.0000000027387 199.99999995646917 L300.00000000539023 199.99999995733188 L300.00000000794614 199.999999958345 L300.0000000103986 199.99999995950023 L300.00000001274043 199.99999996078893 L300.0000000149653 199.99999996220208 L300.0000000170671 199.99999996373046 L300.00000001904095 199.99999996536465 L300.0000000208821 199.99999996709505 L300.00000002258685 199.99999996891185 L300.000000024152 199.99999997080528 L300.00000002557493 199.99999997276547 L300.00000002685385 199.99999997478255 L300.00000002798754 199.99999997684668 L300.0000000289754 199.99999997894813 L300.0000000298174 199.9999999810773 L300.0000000305142 199.99999998322468 L300.0000000310669 199.999999985381 L300.0000000314773 199.99999998753722 L300.00000003174773 199.99999998968454 L300.00000003188086 199.99999999181438 L300.00000003188006 199.99999999391855 L300.0000000317489 199.99999999598919 L300.0000000314917 199.99999999801872 L300.00000003111296 200 L300.0000000306175 200.00000000192628 L300.00000003001077 200.00000000379123 L300.0000000292982 200.00000000558893 L300.00000002848566 200.00000000731387 L300.00000002757923 200.00000000896102 L300.00000002658527 200.00000001052587 L300.0000000255103 200.00000001200422 L300.0000000243609 200.0000000133925 L300.0000000231438 200.00000001468752 L300.00000002186596 200.00000001588654 L300.0000000205342 200.00000001698737 L300.0000000191555 200.0000000179882 L300.0000000177368 200.00000001888776 L300.00000001628496 200.00000001968513 L300.0000000148069 200.00000002037993 L300.0000000133093 200.00000002097218 L300.000000011799 200.00000002146226 L300.0000000102823 200.000000021851 L300.0000000087657 200.0000000221397 L300.00000000725544 200.00000002232989 L300.0000000057574 200.0000000224235 L300.0000000042774 200.00000002242294 L300.000000002821 200.0000000223307 L300.0000000013936 200.0000000221498 L300 200.00000002188338 L299.99999999864514 200.00000002153493 L299.9999999973334 200.00000002110815 L299.999999996069 200.00000002060696 L299.9999999948558 200.00000002003546 L299.9999999936972 200.00000001939793 L299.9999999925966 200.00000001869884 L299.99999999155676 200.00000001794274 L299.99999999058036 200.00000001713428 L299.9999999896695 200.00000001627828 L299.9999999888262 200.00000001537947 L299.9999999880519 200.00000001444278 L299.99999998734796 200.00000001347308 L299.99999998671524 200.00000001247523 L299.9999999861544 200.00000001145406 L299.9999999856657 200.00000001041448 L299.9999999852492 200.00000000936117 L299.99999998490443 200.00000000829885 L299.999999984631 200.0000000072321 L299.999999984428 200.0000000061654 L299.9999999842942 200.00000000510312 L299.99999998422834 200.00000000404947 L299.9999999842288 200.00000000300852 L299.99999998429365 200.00000000198418 L299.99999998442087 200.00000000098015 L299.9999999846082 200 L299.99999998485333 199.99999999904705 L299.9999999851535 199.99999999812445 L299.999999985506 199.99999999723514 L299.999999985908 199.9999999963818 L299.9999999863564 199.99999999556692 L299.99999998684814 199.9999999947928 L299.9999999873799 199.99999999406145 L299.99999998794857 199.99999999337464 L299.99999998855066 199.99999999273402 L299.9999999891828 199.99999999214083 L299.9999999898416 199.99999999159627 L299.9999999905237 199.99999999110113 L299.99999999122554 199.99999999065614 L299.99999999194375 199.99999999026164 L299.99999999267493 199.99999998991794 L299.99999999341577 199.99999998962494 L299.999999994163 199.9999999893825 L299.9999999949133 199.99999998919017 L299.99999999566353 199.99999998904738 L299.9999999964107 199.99999998895328 L299.9999999971518 199.99999998890695 L299.99999999788395 199.99999998890726 L299.99999999860444 199.99999998895288 L299.9999999993106 199.99999998904238 L300 199.99999998917417 L300.00000000067024 199.99999998934655 L300.00000000131917 199.99999998955767 L300.00000000194467 199.99999998980562 L300.0000000025449 199.99999999008836 L300.00000000311803 199.99999999040372 L300.0000000036625 199.9999999907496 L300.0000000041769 199.99999999112362 L300.00000000465997 199.99999999152357 L300.00000000511056 199.99999999194705 L300.00000000552774 199.99999999239168 L300.0000000059108 199.99999999285507 L300.00000000625903 199.9999999933348 L300.00000000657207 199.99999999382845 L300.0000000068495 199.9999999943336 L300.0000000070913 199.9999999948479 L300.00000000729733 199.99999999536897 L300.00000000746786 199.9999999958945 L300.0000000076031 199.99999999642225 L300.0000000077036 199.99999999694995 L300.00000000776976 199.99999999747547 L300.0000000078023 199.9999999979967 L300.0000000078021 199.99999999851167 L300.00000000777004 199.99999999901843 L300.00000000770706 199.99999999951513 L300.0000000076144 200 L300.00000000749316 200.00000000047143 L300.0000000073446 200.00000000092786 L300.00000000717023 200.0000000013678 L300.0000000069714 200.00000000178994 L300.0000000067496 200.00000000219308 L300.0000000065063 200.00000000257603 L300.0000000062432 200.00000000293784 L300.0000000059619 200.0000000032776 L300.00000000566405 200.00000000359452 L300.00000000535135 200.00000000388798 L300.0000000050254 200.00000000415739 L300.000000004688 200.00000000440232 L300.0000000043408 200.00000000462248 L300.00000000398546 200.00000000481762 L300.00000000362377 200.00000000498767 L300.00000000325724 200.0000000051326 L300.0000000028876 200.00000000525253 L300.0000000025164 200.0000000053477 L300.00000000214527 200.00000000541831 L300.0000000017756 200.00000000546487 L300.00000000140903 200.00000000548778 L300.0000000010468 200.00000000548764 L300.0000000006904 200.00000000546507 L300.00000000034106 200.0000000054208 L300 200.0000000053556 L299.99999999966843 200.00000000527032 L299.9999999993474 200.00000000516587 L299.999999999038 200.0000000050432 L299.99999999874103 200.00000000490334 L299.9999999984575 200.00000000474733 L299.9999999981881 200.00000000457624 L299.9999999979337 200.00000000439118 L299.9999999976947 200.00000000419334 L299.9999999974718 200.00000000398384 L299.9999999972654 200.0000000037639 L299.9999999970759 200.00000000353464 L299.9999999969036 200.00000000329732 L299.9999999967488 200.00000000305312 L299.9999999966115 200.0000000028032 L299.9999999964919 200.00000000254877 L299.99999999639 200.000000002291 L299.99999999630563 200.00000000203102 L299.99999999623867 200.00000000176993 L299.999999996189 200.00000000150888 L299.99999999615625 200.0000000012489 L299.99999999614016 200.00000000099104 L299.9999999961403 200.0000000007363 L299.99999999615613 200.00000000048558 L299.9999999961873 200.00000000023988 L299.9999999962331 200 L299.9999999962931 199.99999999976677 L299.99999999636657 199.999999999541 L299.99999999645286 199.99999999932334 L299.9999999965512 199.9999999991145 L299.99999999666096 199.9999999989151 L299.9999999967813 199.99999999872563 L299.99999999691147 199.99999999854663 L299.9999999970506 199.99999999837857 L299.99999999719796 199.99999999822177 L299.9999999973527 199.9999999980766 L299.9999999975139 199.99999999794332 L299.99999999768085 199.99999999782216 L299.99999999785257 199.99999999771325 L299.9999999980284 199.9999999976167 L299.99999999820733 199.99999999753257 L299.9999999983886 199.9999999974609 L299.99999999857147 199.99999999740155 L299.99999999875513 199.99999999735448 L299.99999999893873 199.99999999731952 L299.9999999991216 199.9999999972965 L299.99999999930293 199.99999999728516 L299.99999999948216 199.99999999728524 L299.9999999996584 199.99999999729638 L299.9999999998313 199.9999999973183 L300 199.99999999735056 L300.00000000016405 199.99999999739273 L300.00000000032287 199.9999999974444 L300.00000000047595 199.99999999750509 L300.00000000062283 199.9999999975743 L300.00000000076307 199.99999999765146 L300.00000000089636 199.9999999977361 L300.0000000010222 199.99999999782764 L300.00000000114045 199.99999999792553 L300.0000000012507 199.99999999802918 L300.0000000013528 199.99999999813798 L300.00000000144655 199.99999999825138 L300.0000000015318 199.9999999983688 L300.0000000016084 199.9999999984896 L300.0000000016763 199.99999999861325 L300.0000000017355 199.9999999987391 L300.0000000017859 199.99999999886663 L300.00000000182763 199.99999999899526 L300.0000000018607 199.9999999991244 L300.0000000018853 199.99999999925356 L300.0000000019015 199.99999999938217 L300.0000000019095 199.99999999950973 L300.0000000019094 199.99999999963575 L300.0000000019016 199.99999999975978 L300.0000000018862 199.99999999988134 L300.0000000018635 200 L300.0000000018338 200.00000000011536 L300.0000000017975 200.00000000022706 L300.0000000017548 200.00000000033475 L300.00000000170616 200.00000000043806 L300.00000000165187 200.00000000053672 L300.0000000015923 200.00000000063045 L300.00000000152795 200.00000000071898 L300.00000000145906 200.00000000080215 L300.0000000013862 200.0000000008797 L300.0000000013097 200.00000000095153 L300.00000000122986 200.00000000101744 L300.0000000011473 200.00000000107738 L300.00000000106235 200.00000000113127 L300.0000000009754 200.00000000117902 L300.00000000088687 200.00000000122066 L300.0000000007972 200.00000000125613 L300.0000000007067 200.00000000128546 L300.00000000061584 200.00000000130876 L300.000000000525 200.00000000132604 L300.00000000043457 200.00000000133744 L300.0000000003448 200.00000000134304 L300.0000000002562 200.000000001343 L300.00000000016894 200.0000000013375 L300.00000000008345 200.00000000132664 L300 200.0000000013107 L299.9999999999188 200.00000000128983 L299.99999999984027 200.00000000126425 L299.99999999976455 200.00000000123424 L299.9999999996919 200.00000000120002 L299.9999999996225 200.00000000116182 L299.99999999955656 200.00000000111996 L299.9999999994943 200.00000000107468 L299.99999999943583 200.00000000102625 " stroke = "blue" stroke-width = "4" fill = "none" /></svg>