<svg width="400" height="200" viewbox = "0 0 400 200"  xmlns="http://www.w3.org/2000/svg">
	<path d = "M0 -399 L1 -396.54003549064316 L2 -393.6428493826684 L3 -390.7456632746962 L4 -387.84847716672743 L5 -384.9512910587623 L6 -382.0541049508014 L7 -379.15691884284547 L8 -376.25973273489535 L9 -373.3625466269517 L10 -370.4653605190158 L11 -367.5681744110889 L12 -364.67098830317207 L13 -361.7738021952671 L14 -358.87661608737585 L15 -355.9794299795003 L16 -353.08224387164296 L17 -350.185057763807 L18 -347.28787165599533 L19 -344.39068554821165 L20 -341.4934994404607 L21 -338.5963133327475 L22 -335.6991272250775 L23 -332.8019411174579 L24 -329.90475500989646 L25 -327.0075689024018 L26 -324.1103827949846 L27 -321.21319668765716 L28 -318.3160105804328 L29 -315.4188244733281 L30 -312.52163836636123 L31 -309.6244522595538 L32 -306.72726615293027 L33 -303.8300800465194 L34 -300.9328939403539 L35 -298.0357078344718 L36 -295.13852172891717 L37 -292.24133562374055 L38 -289.34414951900044 L39 -286.44696341476435 L40 -283.54977731111006 L41 -280.6525912081278 L42 -277.7554051059211 L43 -274.8582190046098 L44 -271.9610329043323 L45 -269.06384680524786 L46 -266.1666607075409 L47 -263.26947461142356 L48 -260.372288517141 L49 -257.47510242497594 L50 -254.57791633525449 L51 -251.68073024835303 L52 -248.78354416470563 L53 -245.88635808481274 L54 -242.9891720092519 L55 -240.09198593868894 L56 -237.19479987389195 L57 -234.29761381574644 L58 -231.40042776527372 L59 -228.503241723651 L60 -225.60605569223594 L61 -222.7088696725935 L62 -219.81168366652764 L63 -216.914497676118 L64 -214.01731170376144 L65 -211.12012575222036 L66 -208.2229398246787 L67 -205.32575392480476 L68 -202.42856805682607 L69 -199.53138222561313 L70 -196.63419643677742 L71 -193.73701069678322 L72 -190.83982501307662 L73 -187.94263939423433 L74 -185.04545385013415 L75 -182.14826839215124 L76 -179.25108303338448 L77 -176.3538977889158 L78 -173.45671267610885 L79 -170.559527714953 L80 -167.66234292845706 L81 -164.7651583431039 L82 -161.8679739893713 L83 -158.97078990233126 L84 -156.07360612233833 L85 -153.17642269582086 L86 -150.27923967618824 L87 -147.38205712487513 L88 -144.48487511253882 L89 -141.5876937204344 L90 -138.69051304199388 L91 -135.79333318463728 L92 -132.896154271853 L93 -129.99897644558246 L94 -127.10179986895764 L95 -124.20462472943973 L96 -121.307451242419 L97 -118.4102796553417 L98 -115.51311025244138 L99 -112.61594336016117 L100 -109.71877935336681 L101 -106.82161866246514 L102 -103.92446178155609 L103 -101.02730927776952 L104 -98.13016180195348 L105 -95.23302010090794 L106 -92.3358850313848 L107 -89.4387575761042 L108 -86.54163886207186 L109 -83.64453018152591 L110 -80.74743301587978 L111 -77.8503490630846 L112 -74.95328026889041 L113 -72.05622886254844 L114 -69.15919739757601 L115 -66.26218879828315 L116 -63.3652064128604 L117 -60.46825407392976 L118 -57.571336167583695 L119 -54.67445771207218 L120 -51.777624447450734 L121 -48.880842937674856 L122 -45.98412068681853 L123 -43.0874662713137 L124 -40.190889490348695 L125 -37.2944015368368 L126 -34.398015191671846 L127 -31.501745044325958 L128 -28.605607743224652 L129 -25.709622279756275 L130 -22.813810310239717 L131 -19.918196520694778 L132 -17.022809039833817 L133 -14.127679906322271 L134 -11.232845597058656 L135 -8.338347623982656 L136 -5.444233207758771 L137 -2.5505560375917185 L138 0.3426228725809892 L139 3.2352342202076727 L140 6.127199330092992 L141 9.0184289365327 L142 11.908821816624936 L143 14.798263258395593 L144 17.686623345942223 L145 20.573755042320414 L146 23.459492049384437 L147 26.34364642227962 L148 29.226005914795962 L149 32.10633103036906 L150 34.984351752212035 L151 37.85976392493717 L152 40.73222525915483 L153 43.601350930011904 L154 46.46670874055775 L155 49.32781382132853 L156 52.18412283876461 L157 55.03502768719022 L158 57.87984864227286 L159 60.717826958355715 L160 63.54811689804461 L161 66.36977719018387 L162 69.18176192212542 L163 71.98291088425435 L164 74.77193939934055 L165 77.54742768668271 L166 80.30780983141557 L167 83.05136245291243 L168 85.77619319301542 L169 88.48022917482719 L170 91.16120561582429 L171 93.81665481473675 L172 96.44389576940014 L173 99.04002472177373 L174 101.60190696537737 L175 104.12617028805732 L176 106.60920045740346 L177 109.04713918513632 L178 111.43588502784347 L179 113.7710976917958 L180 116.04820620625071 L181 118.2624214096486 L182 120.40875315355973 L183 122.4820325676317 L184 124.47693964323284 L185 126.3880362830005 L186 128.2098048283026 L187 129.93669191838913 L188 131.56315735712693 L189 133.08372747086867 L190 134.49305224123515 L191 135.78596529809266 L192 136.95754567085288 L193 138.00318003133134 L194 138.91862402987493 L195 139.70006123879296 L196 140.3441581822944 L197 140.8481139567865 L198 141.20970303305532 L199 141.42730998237704 L200 141.49995507787472 L201 141.42730998237704 L202 141.20970303305532 L203 140.8481139567865 L204 140.34415818229436 L205 139.70006123879296 L206 138.91862402987493 L207 138.00318003133134 L208 136.95754567085288 L209 135.78596529809266 L210 134.49305224123515 L211 133.08372747086867 L212 131.5631573571269 L213 129.93669191838913 L214 128.2098048283026 L215 126.3880362830005 L216 124.47693964323284 L217 122.4820325676317 L218 120.40875315355973 L219 118.2624214096486 L220 116.04820620625071 L221 113.7710976917958 L222 111.43588502784347 L223 109.04713918513632 L224 106.60920045740346 L225 104.12617028805732 L226 101.60190696537737 L227 99.04002472177373 L228 96.44389576940014 L229 93.81665481473675 L230 91.16120561582429 L231 88.48022917482719 L232 85.77619319301542 L233 83.05136245291243 L234 80.30780983141557 L235 77.54742768668271 L236 74.77193939934057 L237 71.98291088425435 L238 69.18176192212542 L239 66.36977719018387 L240 63.54811689804461 L241 60.717826958355715 L242 57.87984864227286 L243 55.03502768719022 L244 52.18412283876461 L245 49.32781382132853 L246 46.46670874055775 L247 43.601350930011904 L248 40.73222525915483 L249 37.85976392493717 L250 34.984351752212035 L251 32.10633103036906 L252 29.226005914795962 L253 26.34364642227962 L254 23.459492049384437 L255 20.573755042320414 L256 17.686623345942223 L257 14.798263258395593 L258 11.908821816624936 L259 9.0184289365327 L260 6.127199330092992 L261 3.2352342202076727 L262 0.3426228725809892 L263 -2.5505560375917185 L264 -5.444233207758771 L265 -8.338347623982656 L266 -11.232845597058656 L267 -14.127679906322271 L268 -17.022809039833817 L269 -19.918196520694778 L270 -22.813810310239717 L271 -25.709622279756275 L272 -28.605607743224652 L273 -31.501745044325958 L274 -34.398015191671846 L275 -37.2944015368368 L276 -40.190889490348695 L277 -43.0874662713137 L278 -45.98412068681853 L279 -48.880842937674856 L280 -51.77762444745076 L281 -54.67445771207218 L282 -57.571336167583695 L283 -60.46825407392976 L284 -63.3652064128604 L285 -66.26218879828315 L286 -69.15919739757601 L287 -72.05622886254844 L288 -74.95328026889041 L289 -77.8503490630846 L290 -80.74743301587978 L291 -83.64453018152591 L292 -86.54163886207186 L293 -89.4387575761042 L294 -92.3358850313848 L295 -95.23302010090794 L296 -98.13016180195348 L297 -101.02730927776952 L298 -103.92446178155609 L299 -106.82161866246514 L300 -109.71877935336681 L301 -112.61594336016117 L302 -115.51311025244138 L303 -118.4102796553417 L304 -121.307451242419 L305 -124.20462472943973 L306 -127.10179986895764 L307 -129.99897644558246 L308 -132.896154271853 L309 -135.79333318463728 L310 -138.69051304199388 L311 -141.5876937204344 L312 -144.48487511253882 L313 -147.38205712487513 L314 -150.27923967618824 L315 -153.17642269582086 L316 -156.07360612233833 L317 -158.97078990233126 L318 -161.8679739893713 L319 -164.7651583431039 L320 -167.66234292845706 L321 -170.559527714953 L322 -173.45671267610885 L323 -176.3538977889158 L324 -179.25108303338448 L325 -182.14826839215124 L326 -185.04545385013415 L327 -187.94263939423433 L328 -190.83982501307662 L329 -193.73701069678322 L330 -196.63419643677742 L331 -199.53138222561313 L332 -202.42856805682607 L333 -205.32575392480476 L334 -208.2229398246787 L335 -211.12012575222036 L336 -214.01731170376144 L337 -216.914497676118 L338 -219.81168366652764 L339 -222.7088696725935 L340 -225.60605569223594 L341 -228.503241723651 L342 -231.40042776527372 L343 -234.29761381574644 L344 -237.19479987389195 L345 -240.09198593868894 L346 -242.9891720092519 L347 -245.88635808481274 L348 -248.78354416470563 L349 -251.68073024835303 L350 -254.57791633525449 L351 -257.47510242497594 L352 -260.372288517141 L353 -263.26947461142356 L354 -266.1666607075409 L355 -269.06384680524786 L356 -271.9610329043323 L357 -274.8582190046098 L358 -277.7554051059211 L359 -280.6525912081278 L360 -283.54977731111006 L361 -286.44696341476435 L362 -289.34414951900044 L363 -292.24133562374055 L364 -295.1385217289172 L365 -298.03570783447185 L366 -300.9328939403539 L367 -303.8300800465194 L368 -306.7272661529303 L369 -309.6244522595538 L370 -312.52163836636123 L371 -315.4188244733282 L372 -318.31601058043293 L373 -321.21319668765716 L374 -324.11038279498473 L375 -327.00756890240166 L376 -329.90475500989635 L377 -332.8019411174579 L378 -335.6991272250775 L379 -338.5963133327475 L380 -341.4934994404607 L381 -344.39068554821165 L382 -347.28787165599533 L383 -350.185057763807 L384 -353.08224387164296 L385 -355.9794299795003 L386 -358.87661608737585 L387 -361.7738021952671 L388 -364.67098830317207 L389 -367.5681744110889 L390 -370.4653605190158 L391 -373.3625466269517 L392 -376.25973273489535 L393 -379.15691884284547 L394 -382.0541049508014 L395 -384.9512910587623 L396 -387.84847716672743 L397 -390.7456632746962 L398 -393.6428493826684 L399 -396.54003549064316 " stroke = "black" stroke-width = "2" fill = "none" /></svg>