<svg width="200" height="200" viewbox = "0 0 200 200"  xmlns="http://www.w3.org/2000/svg">
	<path d = "M0 -7 L1 -5.695697215042202 L2 -3.935151227100988 L3 -2.181474367394202 L4 -0.4348379610599693 L5 1.3045835163060246 L6 3.03661242997876 L7 4.761067979899252 L8 6.477766197049419 L9 8.186519942520192 L10 9.88713890938672 L11 11.579429627505107 L12 13.263195471345767 L13 14.938236670978455 L14 16.6043503263229 L15 18.261330424780255 L16 19.908967862357684 L17 21.547050468398993 L18 23.17536303403196 L19 24.79368734444145 L20 26.40180221507555 L21 27.99948353188887 L22 29.58650429572566 L23 31.16263467094049 L24 32.72764203835243 L25 34.2812910526232 L26 35.82334370414668 L27 37.35355938553133 L28 38.87169496275294 L29 40.37750485104809 L30 41.870741095614505 L31 43.35115345717628 L32 44.818489502465866 L33 46.272494699667476 L34 47.71291251885833 L35 49.13948453747611 L36 50.551950550832316 L37 51.950048687682425 L38 53.333515530853674 L39 54.70208624292184 L40 56.05549469691792 L41 57.393473612035336 L42 58.71575469429641 L43 60.02206878212647 L44 61.31214599677185 L45 62.58571589748561 L46 63.84250764139392 L47 65.08225014794166 L48 66.30467226780533 L49 67.50950295614638 L50 68.69647145006687 L51 69.86530745011513 L52 71.01574130567639 L53 72.14750420407047 L54 73.26032836316485 L55 74.35394722729893 L56 75.42809566630251 L57 76.4825101773775 L58 77.51692908960163 L59 78.5310927707978 L60 79.5247438365035 L61 80.49762736076089 L62 81.44949108843878 L63 82.38008564878531 L64 83.2891647699016 L65 84.17648549381597 L66 85.04180839182939 L67 85.88489777979575 L68 86.70552193299068 L69 87.50345330021878 L70 88.27846871680003 L71 89.030349616074 L72 89.75888223905403 L73 90.46385784186144 L74 91.14507290056721 L75 91.80232931306736 L76 92.43543459761783 L77 93.04420208765588 L78 93.62845112253643 L79 94.18800723381489 L80 94.72270232671247 L81 95.23237485640472 L82 95.71686999878037 L83 96.17603981532537 L84 96.60974341179511 L85 97.01784709034776 L86 97.40022449482176 L87 97.75675674885338 L88 98.08733258654179 L89 98.39184847538307 L90 98.67020873121055 L91 98.9223256248923 L92 99.14811948055511 L93 99.34751876512016 L94 99.52046016895441 L95 99.6668886774601 L96 99.78675763344415 L97 99.88002879012927 L98 99.94667235468881 L99 99.98666702220866 L100 100 L101 99.98666702220866 L102 99.94667235468881 L103 99.88002879012927 L104 99.78675763344415 L105 99.6668886774601 L106 99.52046016895441 L107 99.34751876512016 L108 99.14811948055511 L109 98.9223256248923 L110 98.67020873121055 L111 98.39184847538307 L112 98.08733258654179 L113 97.75675674885338 L114 97.40022449482176 L115 97.01784709034776 L116 96.60974341179511 L117 96.17603981532537 L118 95.71686999878037 L119 95.23237485640472 L120 94.72270232671247 L121 94.18800723381489 L122 93.62845112253643 L123 93.04420208765588 L124 92.43543459761783 L125 91.80232931306736 L126 91.14507290056721 L127 90.46385784186144 L128 89.75888223905403 L129 89.030349616074 L130 88.27846871680003 L131 87.50345330021878 L132 86.70552193299068 L133 85.88489777979575 L134 85.04180839182939 L135 84.17648549381597 L136 83.2891647699016 L137 82.38008564878531 L138 81.44949108843878 L139 80.49762736076089 L140 79.5247438365035 L141 78.5310927707978 L142 77.51692908960163 L143 76.4825101773775 L144 75.42809566630251 L145 74.35394722729893 L146 73.26032836316485 L147 72.14750420407047 L148 71.01574130567639 L149 69.86530745011513 L150 68.69647145006687 L151 67.50950295614638 L152 66.30467226780533 L153 65.08225014794166 L154 63.84250764139392 L155 62.58571589748561 L156 61.31214599677185 L157 60.02206878212647 L158 58.71575469429641 L159 57.393473612035336 L160 56.05549469691792 L161 54.70208624292184 L162 53.333515530853674 L163 51.950048687682425 L164 50.551950550832316 L165 49.13948453747611 L166 47.71291251885833 L167 46.272494699667476 L168 44.818489502465866 L169 43.35115345717628 L170 41.870741095614505 L171 40.37750485104809 L172 38.87169496275294 L173 37.35355938553133 L174 35.82334370414668 L175 34.2812910526232 L176 32.72764203835243 L177 31.16263467094049 L178 29.58650429572566 L179 27.99948353188887 L180 26.40180221507555 L181 24.79368734444145 L182 23.17536303403196 L183 21.547050468398993 L184 19.908967862357684 L185 18.261330424780255 L186 16.6043503263229 L187 14.938236670978455 L188 13.263195471345767 L189 11.579429627505107 L190 9.88713890938672 L191 8.186519942520192 L192 6.477766197049419 L193 4.761067979899252 L194 3.03661242997876 L195 1.3045835163060246 L196 -0.4348379610599693 L197 -2.181474367394202 L198 -3.935151227100988 L199 -5.695697215042202 " stroke = "black" stroke-width = "2" fill = "none" /></svg>