<svg width="600" height="400" viewbox = "0 0 600 400"  xmlns="http://www.w3.org/2000/svg">

<!--
<topfunctions>









function YofX(){
    X = plotparams.g*(x - plotparams.x0) - funcparams.X0;
    Y = Math.cosh(X);
    y = plotparams.y0 - plotparams.G*(Y - funcparams.Y0);
}


constants = {
}

plotparams = {
    "G":200,//1 unit = 10 pixel
    "g":0.008,//1 unit equals 10 pixels
    "plotwidth":400,
    "plotheight":400,
    "x0":200,
    "y0":400
}

funcparams = {
    "A":1,
    "X0":0,
    "Y0":0
}

function plotfunction(){
    /*plot one function:*/
    currentStroke = "red";
    currentLineWidth = 4;
    ctx.strokeStyle = currentStroke;
    ctx.lineWidth = currentLineWidth;
    ctx.beginPath();	
    x = 0;
    YofX();
    currentSVG += "	<path d = \"M";
    currentSVG += Math.round(x).toString() + " ";
    currentSVG += Math.round(y).toString() + " ";
    for(x = 1;x < plotparams.plotwidth;x++){
        ctx.moveTo(x-1,y);
        YofX();
        ctx.lineTo(x,y);
        currentSVG += "L" + x + " " + y + " ";
    }
    ctx.stroke();
    currentSVG += "\""+ " stroke = \"" + currentStroke + "\" stroke-width = \"" + currentLineWidth.toString() + "\" fill = \"" + "none" + "\" "+"/>";
    /*finish plot one function*/

    
    
    
}


   

constants = {}
plotparams = {
    "G": 210,
    "g": 0.008,
    "plotwidth": 400,
    "plotheight": 400,
    "x0": 205,
    "y0": 425
}
funcparams = {
    "A": 1,
    "X0": 0,
    "Y0": 0
}
   

constants = {}
plotparams = {
    "G": 210,
    "g": 0.0045,
    "plotwidth": 600,
    "plotheight": 400,
    "x0": 304,
    "y0": 439
}
funcparams = {
    "A": 1,
    "X0": 0,
    "Y0": 0
}   

constants = {}
plotparams = {
    "G": 210,
    "g": 0.0045,
    "plotwidth": 600,
    "plotheight": 400,
    "x0": 304,
    "y0": 439
}
funcparams = {
    "A": 1,
    "X0": 0,
    "Y0": 0
}
   
   
   

constants = {}
plotparams = {
    "G": 210,
    "g": 0.0045,
    "plotwidth": 600,
    "plotheight": 400,
    "x0": 304,
    "y0": 439
}
funcparams = {
    "A": 1,
    "X0": 0,
    "Y0": 0
}
   
   
   

constants = {}
plotparams = {
    "G": 210,
    "g": 0.0045,
    "plotwidth": 600,
    "plotheight": 400,
    "x0": 304,
    "y0": 439
}
funcparams = {
    "A": 1,
    "X0": 0,
    "Y0": 0
}
</topfunctions>
-->

<!--
<imgurl>
http://res.cloudinary.com/geometron/image/upload/v1529154797/ARL2yf1_sgigkc.jpg
</imgurl>
-->

<!--
<currentjson>
{
    "constants": {},
    "imgurl": "http://res.cloudinary.com/geometron/image/upload/v1529154797/ARL2yf1_sgigkc.jpg",
    "plotparams": {
        "G": 210,
        "g": 0.0045,
        "plotwidth": 600,
        "plotheight": 400,
        "x0": 304,
        "y0": 439
    },
    "funcparams": {
        "A": 1,
        "X0": 0,
        "Y0": 0
    }
}
</currentjson>
-->

<!--
<equation>


$$
X = g(x - x_0) - X_0
$$
$$
Y = f(X)
$$
<div class="bigeq">
    
 $$
 Y = \cosh{(X)},
 $$
</div>
$$
y = y_0 - G(Y - Y_0)
$$


<p>
    X and Y, and $X_0$ and $Y_0$ in physical units of the System. x and y and x0 and y0 in pixels.  G is in pixels per Y unit and g is in X units per pixel. 
</p>



</equation>
-->
	<path d = "M0 0 L1 1.6101199907055843 L2 3.3322546853219706 L3 5.045567093208319 L4 6.7500919089991385 L5 8.445863649380328 L6 10.13291665378756 L7 11.811285085101872 L8 13.481002930341276 L9 15.142104001349196 L10 16.7946219354792 L11 18.438590196275698 L12 20.07404207415243 L13 21.701010687065605 L14 23.31952898118527 L15 24.929629731562272 L16 26.531345542791826 L17 28.124708849673652 L18 29.70975191786937 L19 31.286506844555106 L20 32.855005559072254 L21 34.41527982357309 L22 35.96736123366503 L23 37.511281219049465 L24 39.047071044159 L25 40.57476180879007 L26 42.09438444873274 L27 43.605969736397526 L28 45.109548281438094 L29 46.605150531371464 L30 48.09280677219414 L31 49.57254712899589 L32 51.04440156656949 L33 52.5083998900177 L34 53.96457174535652 L35 55.41294662011586 L36 56.853553843936254 L37 58.286422589163294 L38 59.71158187143823 L39 61.12906055028492 L40 62.53888732969517 L41 63.94109075870955 L42 65.3356992319953 L43 66.72274099042164 L44 68.1022441216316 L45 69.47423656061073 L46 70.83874609025298 L47 72.19580034192262 L48 73.54542679601485 L49 74.8876527825114 L50 76.22250548153431 L51 77.55001192389659 L52 78.8701989916488 L53 80.18309341862431 L54 81.48872179098004 L55 82.78711054773521 L56 84.07828598130652 L57 85.36227423804064 L58 86.63910131874349 L59 87.90879307920733 L60 89.17137523073353 L61 90.4268733406538 L62 91.67531283284785 L63 92.91671898825803 L64 94.15111694540138 L65 95.3785317008788 L66 96.59898810988085 L67 97.81251088669171 L68 99.019124605189 L69 100.21885369934176 L70 101.41172246370508 L71 102.5977550539123 L72 103.7769754871639 L73 104.94940764271382 L74 106.1150752623534 L75 107.27400195089172 L76 108.42621117663384 L77 109.57172627185605 L78 110.71057043327795 L79 111.84276672253287 L80 112.96833806663437 L81 114.0873072584406 L82 115.19969695711592 L83 116.30552968858973 L84 117.40482784601272 L85 118.49761369020996 L86 119.58390935013233 L87 120.66373682330402 L88 121.73711797626811 L89 122.80407454502983 L90 123.8646281354961 L91 124.91880022391331 L92 125.96661215730222 L93 127.00808515389048 L94 128.04324030354167 L95 129.0720985681831 L96 130.09468078222966 L97 131.11100765300625 L98 132.12109976116653 L99 133.12497756111048 L100 134.12266138139762 L101 135.11417142515955 L102 136.09952777050842 L103 137.07875037094402 L104 138.0518590557574 L105 139.01887353043264 L106 139.979813377046 L107 140.93469805466214 L108 141.8835468997284 L109 142.82637912646646 L110 143.76321382726087 L111 144.69406997304657 L112 145.61896641369225 L113 146.53792187838235 L114 147.45095497599652 L115 148.35808419548619 L116 149.25932790624898 L117 150.15470435850096 L118 151.04423168364576 L119 151.9279278946422 L120 152.80581088636865 L121 153.67789843598575 L122 154.54420820329625 L123 155.40475773110245 L124 156.2595644455617 L125 157.10864565653918 L126 157.95201855795847 L127 158.78970022814957 L128 159.62170763019503 L129 160.4480576122731 L130 161.26876690799918 L131 162.0838521367645 L132 162.8933298040729 L133 163.69721630187468 L134 164.49552790889902 L135 165.28828079098315 L136 166.07549100139994 L137 166.85717448118334 L138 167.63334705945022 L139 168.40402445372195 L140 169.16922227024213 L141 169.92895600429273 L142 170.6832410405076 L143 171.43209265318472 L144 172.1755260065948 L145 172.91355615528852 L146 173.64619804440179 L147 174.37346650995778 L148 175.0953762791678 L149 175.81194197072932 L150 176.5231780951222 L151 177.22909905490206 L152 177.9297191449927 L153 178.6250525529747 L154 179.3151133593734 L155 179.99991553794365 L156 180.67947295595314 L157 181.35379937446254 L158 182.0229084486051 L159 182.68681372786233 L160 183.34552865633884 L161 183.99906657303444 L162 184.64744071211427 L163 185.29066420317685 L164 185.92875007151977 L165 186.56171123840375 L166 187.18956052131398 L167 187.81231063421995 L168 188.42997418783267 L169 189.0425636898603 L170 189.65009154526103 L171 190.25257005649487 L172 190.85001142377217 L173 191.44242774530105 L174 192.02983101753225 L175 192.61223313540214 L176 193.18964589257345 L177 193.76208098167427 L178 194.32954999453474 L179 194.89206442242173 L180 195.44963565627168 L181 196.0022749869211 L182 196.54999360533526 L183 197.09280260283498 L184 197.63071297132095 L185 198.16373560349655 L186 198.69188129308833 L187 199.21516073506447 L188 199.73358452585163 L189 200.24716316354923 L190 200.7559070481422 L191 201.2598264817117 L192 201.75893166864344 L193 202.25323271583449 L194 202.7427396328979 L195 203.22746233236558 L196 203.70741062988864 L197 204.1825942444366 L198 204.6530227984938 L199 205.11870581825463 L200 205.5796527338161 L201 206.035872879369 L202 206.4873754933869 L203 206.93416971881317 L204 207.37626460324609 L205 207.81366909912222 L206 208.2463920638975 L207 208.6744422602268 L208 209.09782835614118 L209 209.51655892522362 L210 209.93064244678237 L211 210.34008730602298 L212 210.74490179421778 L213 211.145094108874 L214 211.54067235389965 L215 211.9316445397678 L216 212.3180185836785 L217 212.6998023097194 L218 213.07700344902395 L219 213.44962963992808 L220 213.81768842812497 L221 214.18118726681763 L222 214.54013351686996 L223 214.89453444695576 L224 215.244397233706 L225 215.5897289618541 L226 215.9305366243793 L227 216.26682712264846 L228 216.59860726655563 L229 216.92588377466006 L230 217.2486632743222 L231 217.56695230183806 L232 217.88075730257123 L233 218.19008463108364 L234 218.4949405512644 L235 218.79533123645624 L236 219.09126276958077 L237 219.38274114326174 L238 219.66977225994606 L239 219.95236193202376 L240 220.23051588194528 L241 220.50423974233766 L242 220.7735390561184 L243 221.03841927660784 L244 221.29888576763946 L245 221.5549438036686 L246 221.80659856987924 L247 222.05385516228904 L248 222.29671858785238 L249 222.535193764562 L250 222.7692855215483 L251 222.9989985991774 L252 223.22433764914703 L253 223.44530723458055 L254 223.66191183011964 L255 223.8741558220148 L256 224.08204350821413 L257 224.28557909845028 L258 224.484766714326 L259 224.6796103893973 L260 224.87011406925527 L261 225.05628161160587 L262 225.2381167863483 L263 225.41562327565097 L264 225.58880467402636 L265 225.75766448840378 L266 225.92220613820018 L267 226.0824329553896 L268 226.23834818457058 L269 226.3899549830318 L270 226.53725642081616 L271 226.68025548078282 L272 226.81895505866754 L273 226.95335796314163 L274 227.08346691586837 L275 227.20928455155857 L276 227.33081341802372 L277 227.44805597622738 L278 227.56101460033545 L279 227.66969157776387 L280 227.77408910922523 L281 227.87420930877306 L282 227.9700542038448 L283 228.06162573530293 L284 228.14892575747393 L285 228.2319560381864 L286 228.3107182588063 L287 228.38521401427127 L288 228.45544481312294 L289 228.52141207753738 L290 228.58311714335395 L291 228.6405612601023 L292 228.69374559102778 L293 228.74267121311493 L294 228.78733911710924 L295 228.8277502075373 L296 228.8639053027251 L297 228.89580513481454 L298 228.92345034977828 L299 228.94684150743288 L300 228.96597908145006 L301 228.98086345936645 L302 228.99149494259112 L303 228.99787374641198 L304 229 L305 228.99787374641198 L306 228.99149494259112 L307 228.98086345936645 L308 228.96597908145006 L309 228.94684150743288 L310 228.92345034977828 L311 228.89580513481454 L312 228.8639053027251 L313 228.8277502075373 L314 228.78733911710924 L315 228.74267121311493 L316 228.69374559102778 L317 228.6405612601023 L318 228.58311714335395 L319 228.52141207753738 L320 228.45544481312294 L321 228.38521401427127 L322 228.3107182588063 L323 228.2319560381864 L324 228.14892575747393 L325 228.06162573530293 L326 227.9700542038448 L327 227.87420930877306 L328 227.77408910922523 L329 227.66969157776387 L330 227.56101460033545 L331 227.44805597622738 L332 227.33081341802372 L333 227.20928455155857 L334 227.08346691586837 L335 226.95335796314163 L336 226.81895505866754 L337 226.68025548078282 L338 226.53725642081616 L339 226.3899549830318 L340 226.23834818457058 L341 226.0824329553896 L342 225.92220613820018 L343 225.75766448840378 L344 225.58880467402636 L345 225.41562327565097 L346 225.2381167863483 L347 225.05628161160587 L348 224.87011406925527 L349 224.6796103893973 L350 224.484766714326 L351 224.28557909845028 L352 224.08204350821413 L353 223.8741558220148 L354 223.66191183011964 L355 223.44530723458055 L356 223.22433764914703 L357 222.9989985991774 L358 222.7692855215483 L359 222.535193764562 L360 222.29671858785238 L361 222.05385516228904 L362 221.80659856987924 L363 221.5549438036686 L364 221.29888576763946 L365 221.03841927660784 L366 220.7735390561184 L367 220.50423974233766 L368 220.23051588194528 L369 219.95236193202376 L370 219.66977225994606 L371 219.38274114326174 L372 219.09126276958077 L373 218.79533123645624 L374 218.4949405512644 L375 218.19008463108364 L376 217.88075730257123 L377 217.56695230183806 L378 217.2486632743222 L379 216.92588377466006 L380 216.59860726655563 L381 216.26682712264846 L382 215.9305366243793 L383 215.5897289618541 L384 215.244397233706 L385 214.89453444695576 L386 214.54013351686996 L387 214.18118726681763 L388 213.81768842812497 L389 213.44962963992808 L390 213.07700344902395 L391 212.6998023097194 L392 212.3180185836785 L393 211.9316445397678 L394 211.54067235389965 L395 211.145094108874 L396 210.74490179421778 L397 210.34008730602298 L398 209.93064244678237 L399 209.51655892522362 L400 209.09782835614118 L401 208.6744422602268 L402 208.2463920638975 L403 207.81366909912222 L404 207.37626460324609 L405 206.93416971881317 L406 206.4873754933869 L407 206.035872879369 L408 205.5796527338161 L409 205.11870581825463 L410 204.6530227984938 L411 204.1825942444366 L412 203.70741062988864 L413 203.22746233236558 L414 202.7427396328979 L415 202.25323271583449 L416 201.75893166864344 L417 201.2598264817117 L418 200.7559070481422 L419 200.24716316354923 L420 199.73358452585163 L421 199.21516073506447 L422 198.69188129308833 L423 198.16373560349655 L424 197.63071297132095 L425 197.09280260283498 L426 196.54999360533526 L427 196.0022749869211 L428 195.44963565627168 L429 194.89206442242173 L430 194.32954999453474 L431 193.76208098167427 L432 193.18964589257345 L433 192.61223313540214 L434 192.02983101753225 L435 191.44242774530105 L436 190.85001142377217 L437 190.25257005649487 L438 189.65009154526103 L439 189.0425636898603 L440 188.42997418783267 L441 187.81231063421995 L442 187.18956052131398 L443 186.56171123840375 L444 185.92875007151977 L445 185.29066420317685 L446 184.64744071211427 L447 183.99906657303444 L448 183.34552865633884 L449 182.68681372786233 L450 182.0229084486051 L451 181.35379937446254 L452 180.67947295595314 L453 179.99991553794365 L454 179.3151133593734 L455 178.6250525529747 L456 177.9297191449927 L457 177.22909905490206 L458 176.5231780951222 L459 175.81194197072932 L460 175.0953762791678 L461 174.37346650995778 L462 173.64619804440179 L463 172.91355615528852 L464 172.1755260065948 L465 171.43209265318472 L466 170.6832410405076 L467 169.92895600429273 L468 169.16922227024213 L469 168.40402445372195 L470 167.63334705945022 L471 166.85717448118334 L472 166.07549100139994 L473 165.28828079098315 L474 164.49552790889902 L475 163.69721630187468 L476 162.8933298040729 L477 162.0838521367645 L478 161.26876690799918 L479 160.4480576122731 L480 159.62170763019503 L481 158.78970022814957 L482 157.95201855795847 L483 157.10864565653918 L484 156.2595644455617 L485 155.40475773110245 L486 154.54420820329625 L487 153.67789843598575 L488 152.80581088636865 L489 151.9279278946422 L490 151.04423168364576 L491 150.15470435850096 L492 149.25932790624898 L493 148.35808419548619 L494 147.45095497599652 L495 146.53792187838235 L496 145.61896641369225 L497 144.69406997304657 L498 143.76321382726087 L499 142.82637912646646 L500 141.8835468997284 L501 140.93469805466214 L502 139.979813377046 L503 139.01887353043264 L504 138.0518590557574 L505 137.07875037094402 L506 136.09952777050842 L507 135.11417142515955 L508 134.12266138139762 L509 133.12497756111048 L510 132.12109976116653 L511 131.11100765300625 L512 130.09468078222966 L513 129.0720985681831 L514 128.04324030354167 L515 127.00808515389048 L516 125.96661215730222 L517 124.91880022391331 L518 123.8646281354961 L519 122.80407454502983 L520 121.73711797626811 L521 120.66373682330402 L522 119.58390935013233 L523 118.49761369020996 L524 117.40482784601272 L525 116.30552968858973 L526 115.19969695711592 L527 114.0873072584406 L528 112.96833806663437 L529 111.84276672253287 L530 110.71057043327795 L531 109.57172627185605 L532 108.42621117663384 L533 107.27400195089172 L534 106.1150752623534 L535 104.94940764271382 L536 103.7769754871639 L537 102.5977550539123 L538 101.41172246370508 L539 100.21885369934176 L540 99.019124605189 L541 97.81251088669171 L542 96.59898810988085 L543 95.3785317008788 L544 94.15111694540138 L545 92.91671898825803 L546 91.67531283284785 L547 90.4268733406538 L548 89.17137523073353 L549 87.90879307920733 L550 86.63910131874349 L551 85.36227423804064 L552 84.07828598130652 L553 82.78711054773521 L554 81.48872179098004 L555 80.18309341862431 L556 78.8701989916488 L557 77.55001192389659 L558 76.22250548153431 L559 74.8876527825114 L560 73.54542679601485 L561 72.19580034192262 L562 70.83874609025298 L563 69.47423656061073 L564 68.1022441216316 L565 66.72274099042164 L566 65.3356992319953 L567 63.94109075870955 L568 62.53888732969517 L569 61.12906055028492 L570 59.71158187143823 L571 58.286422589163294 L572 56.853553843936254 L573 55.41294662011586 L574 53.96457174535652 L575 52.5083998900177 L576 51.04440156656949 L577 49.57254712899589 L578 48.09280677219414 L579 46.605150531371464 L580 45.109548281438094 L581 43.605969736397526 L582 42.09438444873274 L583 40.57476180879007 L584 39.047071044159 L585 37.511281219049465 L586 35.96736123366503 L587 34.41527982357309 L588 32.855005559072254 L589 31.286506844555106 L590 29.70975191786937 L591 28.124708849673652 L592 26.531345542791826 L593 24.929629731562272 L594 23.31952898118527 L595 21.701010687065605 L596 20.07404207415243 L597 18.438590196275698 L598 16.7946219354792 L599 15.142104001349196 " stroke = "red" stroke-width = "4" fill = "none" /></svg>