<svg width="400" height="260" viewbox = "0 0 400 260"  xmlns="http://www.w3.org/2000/svg">

<!--
<topfunctions>


function xcothx(inputFloat){
    if(inputFloat != 0){
        return inputFloat/Math.tanh(inputFloat);
    }
    else{
        return 1;
    }
}


function YofX(){
    X = plotparams.g*(x - plotparams.x0) - funcparams.X0;
    Y = funcparams.TN + 0.5*funcparams.T*xcothx( (constants.e*X + constants.h*funcparams.fGHz*1e9)/(2*constants.k*funcparams.T) ) + 0.5*funcparams.T*xcothx( (constants.e*X - constants.h*funcparams.fGHz*1e9)/(2*constants.k*funcparams.T));
    y = plotparams.y0 - plotparams.G*(Y - funcparams.Y0);
}

function YofX2(){
    X = plotparams.g*(x - plotparams.x0) - funcparams.X0;
    Y = funcparams.TN +  Math.abs((constants.e*X)/(2*constants.k));
    y = plotparams.y0 - plotparams.G*(Y - funcparams.Y0);
}


constants = {
    "e":1.6e-19,   //Electron Charge in coulombs
    "k":1.38065e-23,  //Boltzman constant in J/K
    "h":6.63e-34 // Plank constant in J*s
}

plotparams = {
    "G":1,//1 kelvin = 1 pixel
    "g":1e-4,//20 mV equals 200 pixels
    "plotwidth":400,
    "plotheight":400,
    "x0":200,
    "y0":400
}

funcparams = {
    "T":77,
    "TN":30,
    "fGHz":6,
    "X0":0,
    "Y0":0
}

function plotfunction(){
    /*plot one function:*/
    currentStroke = "black";
    currentLineWidth = 2;
    ctx.strokeStyle = currentStroke;
    ctx.lineWidth = currentLineWidth;
    ctx.beginPath();	
    x = 0;
    YofX();
    currentSVG += "	<path d = \"M";
    currentSVG += Math.round(x).toString() + " ";
    currentSVG += Math.round(y).toString() + " ";
    for(x = 1;x < plotparams.plotwidth;x++){
        ctx.moveTo(x-1,y);
        YofX();
        ctx.lineTo(x,y);
        currentSVG += "L" + x + " " + y + " ";
    }
    ctx.stroke();
    currentSVG += "\""+ " stroke = \"" + currentStroke + "\" stroke-width = \"" + currentLineWidth.toString() + "\" fill = \"" + "none" + "\" "+"/>";
    /*finish plot one function*/


    /*plot second function:*/

    currentStroke = "black";
    ctx.strokeStyle = currentStroke;
    ctx.lineWidth = currentLineWidth;
    
    ctx.beginPath();	
    x = 0;
    YofX2();
    currentSVG += "	<path d = \"M";
    currentSVG += Math.round(x).toString() + " ";
    currentSVG += Math.round(y).toString() + " ";
    for(x = 1;x < plotparams.plotwidth;x++){
        ctx.moveTo(x-1,y);
        YofX2();
        ctx.lineTo(x,y);
        currentSVG += "L" + x + " " + y + " ";
    }
    ctx.stroke();
    currentSVG += "\""+ " stroke = \"" + currentStroke + "\" stroke-width = \"" + currentLineWidth.toString() + "\" fill = \"" + "none" + "\" "+"/>";
/*second function finished here*/    
}


   

constants = {
    "e": 1.6e-19,
    "k": 1.38065e-23,
    "h": 6.63e-34
}
plotparams = {
    "G": 1.85,
    "g": 0.0001,
    "plotwidth": 400,
    "plotheight": 260,
    "x0": 204,
    "y0": 250
}
funcparams = {
    "T": 10,
    "TN": 30,
    "fGHz": 6,
    "X0": 0,
    "Y0": 0
}
</topfunctions>
-->
<!--<currentjson>
{
    "constants": {
        "e": 1.6e-19,
        "k": 1.38065e-23,
        "h": 6.63e-34
    },
    "imgurl": "https://i.imgur.com/fAu4RVG.png",
    "plotparams": {
        "G": 1.85,
        "g": 0.0001,
        "plotwidth": 400,
        "plotheight": 260,
        "x0": 204,
        "y0": 250
    },
    "funcparams": {
    "T": 10,
    "TN": 30,
    "fGHz": 6,
    "X0": 0,
    "Y0": 0
    }
}
</currentjson>-->
<!--
<imgurl>
https://i.imgur.com/fAu4RVG.png
</imgurl>
-->

<!--
<equation>




$$
X = g(x - x_0) - X_0
$$
$$
Y = f(X)
$$
<div class="bigeq">
    
 $$
 Y = T_N + \frac{1}{2}T\left[
 
 \left(\frac{eX + hf}{2kT}\right)\coth{\left(\frac{eX + hf}{2kT}\right)}   +
 \left(\frac{eX - hf}{2kT}\right)\coth{\left(\frac{eX - hf}{2kT}\right)}   
 
 \right],
 $$
</div>
$$
y = y_0 - G(Y - Y_0)
$$


<p>
    X and Y, and $X_0$ and $Y_0$ in physical units of the System. x and y and x0 and y0 in pixels.  G is in pixels per Y unit and g is in X units per pixel. 
</p>
</equation>
-->
	<path d = "M0 -24 L1 -23.107648597750767 L2 -22.03568974089427 L3 -20.963730884400718 L4 -19.89177202831263 L5 -18.8198131726773 L6 -17.747854317547592 L7 -16.675895462982453 L8 -15.603936609047821 L9 -14.531977755817195 L10 -13.4600189033726 L11 -12.388060051805667 L12 -11.316101201218771 L13 -10.244142351725941 L14 -9.172183503454619 L15 -8.10022465654697 L16 -7.028265811161759 L17 -5.956306967475939 L18 -4.884348125687296 L19 -3.81238928601627 L20 -2.7404304487089917 L21 -1.6684716140401292 L22 -0.5965127823160117 L23 0.47544604612139096 L24 1.54740487089083 L25 2.619363691566633 L26 3.691322507674073 L27 4.763281318683596 L28 5.835240124004429 L29 6.907198922977585 L30 7.979157714868137 L31 9.051116498856175 L32 10.123075274027286 L33 11.195034039361843 L34 12.266992793722608 L35 13.338951535841261 L36 14.41091026430388 L37 15.482868977533371 L38 16.55482767377171 L39 17.62678635105854 L40 18.69874500720843 L41 19.770703639784983 L42 20.842662246072194 L43 21.914620823042412 L44 22.986579367320928 L45 24.05853787514647 L46 25.130496342326865 L47 26.202454764190037 L48 27.274413135529556 L49 28.34637145054367 L50 29.418329702767608 L51 30.49028788499831 L52 31.56224598921071 L53 32.6342040064641 L54 33.70616192679881 L55 34.778119739120285 L56 35.85007743107087 L57 36.92203498888691 L58 37.99399239723945 L59 39.06594963905795 L60 40.13790669533313 L61 41.209863544898724 L62 42.281820164188105 L63 43.353776526964225 L64 44.425732604018805 L65 45.497688362838716 L66 46.56964376723451 L67 47.641598776927935 L68 48.71355334709361 L69 49.78550742784941 L70 50.85746096369087 L71 51.929413892862414 L72 53.001366146659365 L73 54.07331764865225 L74 55.14526831382625 L75 56.21721804762461 L76 57.28916674488798 L77 58.36111428867602 L78 59.433060548960015 L79 60.50500538117217 L80 61.57694862459539 L81 62.648890100577745 L82 63.720829610551306 L83 64.792766933835 L84 65.86470182519855 L85 66.93663401216091 L86 68.00856319199642 L87 69.08048902841577 L88 70.15241114788833 L89 71.22432913556759 L90 72.29624253077694 L91 73.36815082201059 L92 74.44005344139751 L93 75.51194975857203 L94 76.58383907388983 L95 77.65572061091964 L96 78.72759350813575 L97 79.79945680972884 L98 80.87130945544229 L99 81.94315026933506 L100 83.0149779473596 L101 84.08679104363299 L102 85.15858795526907 L103 86.23036690562373 L104 87.30212592579284 L105 88.37386283418675 L106 89.44557521398752 L107 90.51726038827616 L108 91.58891539259938 L109 92.66053694471975 L110 93.73212141127303 L111 94.80366477102751 L112 95.87516257441456 L113 96.94660989896767 L114 98.0180013002755 L115 99.08933075801835 L116 100.16059161661977 L117 101.23177652000385 L118 102.30287733990482 L119 103.3738850971273 L120 104.44478987510692 L121 105.51558072506452 L122 106.58624556199163 L123 107.65677105064199 L124 108.72714248064028 L125 109.79734362975012 L126 110.8673566142709 L127 111.93716172545749 L128 113.0067372507784 L129 114.0760592787444 L130 115.14510148595588 L131 116.213834904929 L132 117.28222767117191 L133 118.35024474789273 L134 119.41784762662925 L135 120.48499400200319 L136 121.55163741871354 L137 122.61772688880087 L138 123.6832064771386 L139 124.7480148530365 L140 125.81208480578516 L141 126.87534272192445 L142 127.93770802199134 L143 128.9990925544966 L144 130.059399944897 L145 131.1185248973793 L146 132.17635244735635 L147 133.23275716270098 L148 134.2876022919183 L149 135.34073885768646 L150 136.39200469448866 L151 137.44122342942467 L152 138.48820340573454 L153 139.53273654910168 L154 140.57459717743706 L155 141.61354075558626 L156 142.64930259726208 L157 143.68159651748977 L158 144.71011343997168 L159 145.73451996503857 L160 146.75445690526195 L161 147.76953779735442 L162 148.77934740069105 L163 149.78344019462986 L164 150.78133888879515 L165 151.77253296259363 L166 152.75647725244426 L167 153.73259060748904 L168 154.70025463688432 L169 155.6588125741005 L170 156.60756828594003 L171 157.5457854561479 L172 158.4726869754743 L173 159.38745457176685 L174 160.28922871503767 L175 161.17710883336585 L176 162.0501538758611 L177 162.90738325861875 L178 163.74777822853588 L179 164.5702836779305 L180 165.37381044001245 L181 166.15723809131973 L182 166.9194182821883 L183 167.6591786101376 L184 168.37532704371586 L185 169.0666568958965 L186 169.73195233661863 L187 170.369994423649 L188 170.979567619776 L189 171.55946675265432 L190 172.10850436167067 L191 172.6255183643138 L192 173.10937996305995 L193 173.55900170310503 L194 173.97334558178648 L195 174.35143110262976 L196 174.69234316100423 L197 174.9952396447147 L198 175.25935863177267 L199 175.48402506928704 L200 175.66865682201396 L201 175.8127699866203 L202 175.91598337806104 L203 175.97802210744473 L204 175.99872018605896 L205 175.97802210744473 L206 175.91598337806104 L207 175.8127699866203 L208 175.66865682201396 L209 175.48402506928704 L210 175.25935863177267 L211 174.9952396447147 L212 174.69234316100423 L213 174.35143110262976 L214 173.97334558178648 L215 173.55900170310503 L216 173.10937996305995 L217 172.6255183643138 L218 172.10850436167067 L219 171.55946675265434 L220 170.979567619776 L221 170.369994423649 L222 169.73195233661863 L223 169.0666568958965 L224 168.37532704371586 L225 167.6591786101376 L226 166.9194182821883 L227 166.15723809131973 L228 165.37381044001245 L229 164.5702836779305 L230 163.74777822853588 L231 162.90738325861875 L232 162.0501538758611 L233 161.17710883336585 L234 160.28922871503767 L235 159.38745457176685 L236 158.4726869754743 L237 157.54578545614788 L238 156.60756828594003 L239 155.6588125741005 L240 154.70025463688432 L241 153.73259060748904 L242 152.75647725244426 L243 151.77253296259366 L244 150.78133888879515 L245 149.7834401946299 L246 148.77934740069105 L247 147.76953779735442 L248 146.75445690526195 L249 145.7345199650386 L250 144.71011343997168 L251 143.68159651748977 L252 142.64930259726208 L253 141.61354075558626 L254 140.57459717743706 L255 139.53273654910168 L256 138.48820340573454 L257 137.44122342942467 L258 136.39200469448866 L259 135.34073885768646 L260 134.2876022919183 L261 133.23275716270098 L262 132.17635244735635 L263 131.1185248973793 L264 130.059399944897 L265 128.9990925544966 L266 127.93770802199134 L267 126.87534272192443 L268 125.81208480578516 L269 124.7480148530365 L270 123.6832064771386 L271 122.61772688880087 L272 121.55163741871354 L273 120.48499400200319 L274 119.41784762662925 L275 118.35024474789273 L276 117.28222767117191 L277 116.213834904929 L278 115.14510148595588 L279 114.0760592787444 L280 113.0067372507784 L281 111.93716172545749 L282 110.8673566142709 L283 109.79734362975012 L284 108.72714248064028 L285 107.65677105064199 L286 106.5862455619916 L287 105.51558072506455 L288 104.44478987510692 L289 103.3738850971273 L290 102.30287733990482 L291 101.23177652000385 L292 100.16059161661977 L293 99.08933075801838 L294 98.0180013002755 L295 96.9466098989677 L296 95.87516257441456 L297 94.80366477102751 L298 93.73212141127303 L299 92.66053694471975 L300 91.58891539259938 L301 90.51726038827616 L302 89.44557521398752 L303 88.37386283418675 L304 87.30212592579284 L305 86.23036690562373 L306 85.15858795526907 L307 84.08679104363299 L308 83.0149779473596 L309 81.94315026933506 L310 80.87130945544229 L311 79.79945680972884 L312 78.72759350813578 L313 77.65572061091964 L314 76.58383907388983 L315 75.51194975857203 L316 74.44005344139751 L317 73.36815082201059 L318 72.29624253077694 L319 71.22432913556759 L320 70.15241114788833 L321 69.08048902841577 L322 68.00856319199642 L323 66.93663401216091 L324 65.86470182519852 L325 64.79276693383503 L326 63.720829610551306 L327 62.648890100577745 L328 61.57694862459539 L329 60.50500538117217 L330 59.433060548960015 L331 58.36111428867599 L332 57.28916674488795 L333 56.21721804762461 L334 55.14526831382625 L335 54.07331764865225 L336 53.001366146659365 L337 51.929413892862414 L338 50.85746096369087 L339 49.78550742784941 L340 48.71355334709361 L341 47.641598776927964 L342 46.56964376723451 L343 45.497688362838716 L344 44.425732604018805 L345 43.3537765269642 L346 42.28182016418813 L347 41.209863544898724 L348 40.13790669533313 L349 39.06594963905795 L350 37.99399239723945 L351 36.92203498888691 L352 35.85007743107087 L353 34.77811973912026 L354 33.70616192679881 L355 32.634204006464074 L356 31.56224598921068 L357 30.49028788499831 L358 29.418329702767608 L359 28.34637145054367 L360 27.274413135529556 L361 26.202454764190037 L362 25.130496342326865 L363 24.0585378751465 L364 22.986579367320928 L365 21.914620823042412 L366 20.842662246072194 L367 19.770703639784983 L368 18.69874500720843 L369 17.62678635105854 L370 16.554827673771683 L371 15.482868977533371 L372 14.41091026430388 L373 13.33895153584129 L374 12.266992793722608 L375 11.195034039361843 L376 10.123075274027286 L377 9.051116498856175 L378 7.979157714868137 L379 6.907198922977585 L380 5.835240124004429 L381 4.763281318683596 L382 3.691322507674073 L383 2.619363691566633 L384 1.54740487089083 L385 0.47544604612139096 L386 -0.5965127823160117 L387 -1.6684716140401292 L388 -2.7404304487089917 L389 -3.81238928601627 L390 -4.884348125687296 L391 -5.956306967475939 L392 -7.028265811161759 L393 -8.10022465654697 L394 -9.172183503454619 L395 -10.244142351725941 L396 -11.316101201218771 L397 -12.388060051805667 L398 -13.4600189033726 L399 -14.531977755817195 " stroke = "black" stroke-width = "2" fill = "none" />	<path d = "M0 -24 L1 -23.10764857132517 L2 -22.035689711367866 L3 -20.96373085141056 L4 -19.891771991453254 L5 -18.819813131496062 L6 -17.747854271538756 L7 -16.675895411581507 L8 -15.603936551624201 L9 -14.53197769166701 L10 -13.460018831709704 L11 -12.388059971752455 L12 -11.316101111795206 L13 -10.2441422518379 L14 -9.172183391880594 L15 -8.100224531923402 L16 -7.028265671966096 L17 -5.956306812008876 L18 -4.884347952051627 L19 -3.812389092094321 L20 -2.7404302321370153 L21 -1.668471372179738 L22 -0.5965125122225459 L23 0.4754463477347599 L24 1.5474052076920088 L25 2.619364067649343 L26 3.691322927606535 L27 4.763281787563841 L28 5.83524064752109 L29 6.907199507478339 L30 7.979158367435616 L31 9.051117227392922 L32 10.123076087350114 L33 11.19503494730742 L34 12.266993807264726 L35 13.338952667221946 L36 14.410911527179195 L37 15.4828703871365 L38 16.55482924709375 L39 17.626788107051027 L40 18.698746967008248 L41 19.770705826965525 L42 20.84266468692283 L43 21.914623546880108 L44 22.986582406837385 L45 24.058541266794606 L46 25.130500126751883 L47 26.202458986709132 L48 27.274417846666438 L49 28.346376706623687 L50 29.418335566580964 L51 30.490294426538213 L52 31.56225328649552 L53 32.63421214645277 L54 33.70617100641002 L55 34.778129866367266 L56 35.85008872632454 L57 36.92204758628182 L58 37.9940064462391 L59 39.06596530619632 L60 40.137924166153596 L61 41.20988302611087 L62 42.28184188606815 L63 43.3538007460254 L64 44.42575960598268 L65 45.497718465939926 L66 46.5696773258972 L67 47.64163618585451 L68 48.71359504581176 L69 49.785553905769035 L70 50.857512765726284 L71 51.92947162568356 L72 53.00143048564084 L73 54.07338934559809 L74 55.14534820555534 L75 56.21730706551264 L76 57.28926592546989 L77 58.36122478542717 L78 59.43318364538439 L79 60.505142505341695 L80 61.577101365298944 L81 62.64906022525622 L82 63.72101908521347 L83 64.79297794517072 L84 65.864936805128 L85 66.93689566508527 L86 68.00885452504255 L87 69.08081338499983 L88 70.15277224495705 L89 71.22473110491435 L90 72.29668996487163 L91 73.36864882482888 L92 74.44060768478616 L93 75.51256654474341 L94 76.58452540470066 L95 77.65648426465796 L96 78.72844312461521 L97 79.80040198457246 L98 80.87236084452974 L99 81.94431970448699 L100 83.01627856444429 L101 84.08823742440157 L102 85.16019628435882 L103 86.23215514431607 L104 87.30411400427337 L105 88.37607286423062 L106 89.4480317241879 L107 90.51999058414515 L108 91.5919494441024 L109 92.6639083040597 L110 93.73586716401695 L111 94.8078260239742 L112 95.87978488393148 L113 96.95174374388873 L114 98.023702603846 L115 99.09566146380328 L116 100.16762032376053 L117 101.23957918371781 L118 102.31153804367506 L119 103.38349690363236 L120 104.45545576358961 L121 105.52741462354686 L122 106.59937348350414 L123 107.67133234346142 L124 108.74329120341869 L125 109.81525006337594 L126 110.88720892333322 L127 111.95916778329047 L128 113.03112664324777 L129 114.10308550320502 L130 115.17504436316227 L131 116.24700322311955 L132 117.3189620830768 L133 118.39092094303408 L134 119.46287980299135 L135 120.53483866294857 L136 121.60679752290588 L137 122.67875638286313 L138 123.75071524282042 L139 124.82267410277767 L140 125.89463296273495 L141 126.96659182269221 L142 128.03855068264946 L143 129.11050954260674 L144 130.18246840256398 L145 131.2544272625213 L146 132.32638612247854 L147 133.39834498243582 L148 134.4703038423931 L149 135.54226270235034 L150 136.6142215623076 L151 137.68618042226487 L152 138.75813928222215 L153 139.8300981421794 L154 140.9020570021367 L155 141.97401586209395 L156 143.0459747220512 L157 144.11793358200848 L158 145.18989244196575 L159 146.261851301923 L160 147.33381016188025 L161 148.40576902183753 L162 149.4777278817948 L163 150.54968674175205 L164 151.62164560170936 L165 152.6936044616666 L166 153.7655633216239 L167 154.8375221815811 L168 155.9094810415384 L169 156.98143990149566 L170 158.05339876145294 L171 159.12535762141022 L172 160.19731648136747 L173 161.26927534132471 L174 162.341234201282 L175 163.41319306123927 L176 164.48515192119655 L177 165.5571107811538 L178 166.62906964111107 L179 167.70102850106832 L180 168.7729873610256 L181 169.84494622098288 L182 170.91690508094013 L183 171.9888639408974 L184 173.06082280085468 L185 174.13278166081193 L186 175.20474052076918 L187 176.27669938072648 L188 177.34865824068373 L189 178.42061710064098 L190 179.4925759605983 L191 180.56453482055554 L192 181.63649368051279 L193 182.70845254047006 L194 183.78041140042734 L195 184.8523702603846 L196 185.92432912034187 L197 186.99628798029914 L198 188.0682468402564 L199 189.14020570021367 L200 190.21216456017092 L201 191.2841234201282 L202 192.35608228008545 L203 193.42804114004272 L204 194.5 L205 193.42804114004272 L206 192.35608228008545 L207 191.2841234201282 L208 190.21216456017092 L209 189.14020570021367 L210 188.0682468402564 L211 186.99628798029914 L212 185.92432912034187 L213 184.8523702603846 L214 183.78041140042734 L215 182.70845254047006 L216 181.63649368051279 L217 180.56453482055554 L218 179.4925759605983 L219 178.42061710064098 L220 177.34865824068373 L221 176.27669938072648 L222 175.20474052076918 L223 174.13278166081193 L224 173.06082280085468 L225 171.9888639408974 L226 170.91690508094013 L227 169.84494622098288 L228 168.7729873610256 L229 167.70102850106832 L230 166.62906964111107 L231 165.5571107811538 L232 164.48515192119655 L233 163.41319306123927 L234 162.341234201282 L235 161.26927534132471 L236 160.19731648136747 L237 159.12535762141022 L238 158.05339876145294 L239 156.98143990149566 L240 155.9094810415384 L241 154.8375221815811 L242 153.7655633216239 L243 152.6936044616666 L244 151.62164560170936 L245 150.54968674175205 L246 149.4777278817948 L247 148.40576902183753 L248 147.33381016188025 L249 146.261851301923 L250 145.18989244196575 L251 144.11793358200848 L252 143.0459747220512 L253 141.97401586209395 L254 140.9020570021367 L255 139.8300981421794 L256 138.75813928222215 L257 137.68618042226487 L258 136.6142215623076 L259 135.54226270235034 L260 134.4703038423931 L261 133.39834498243582 L262 132.32638612247854 L263 131.2544272625213 L264 130.18246840256398 L265 129.11050954260674 L266 128.03855068264946 L267 126.96659182269221 L268 125.89463296273495 L269 124.82267410277767 L270 123.75071524282042 L271 122.67875638286313 L272 121.60679752290588 L273 120.53483866294857 L274 119.46287980299135 L275 118.39092094303408 L276 117.3189620830768 L277 116.24700322311955 L278 115.17504436316227 L279 114.10308550320502 L280 113.03112664324777 L281 111.95916778329047 L282 110.88720892333322 L283 109.81525006337594 L284 108.74329120341869 L285 107.67133234346142 L286 106.59937348350414 L287 105.52741462354686 L288 104.45545576358961 L289 103.38349690363236 L290 102.31153804367506 L291 101.23957918371781 L292 100.16762032376053 L293 99.09566146380328 L294 98.023702603846 L295 96.95174374388873 L296 95.87978488393148 L297 94.8078260239742 L298 93.73586716401695 L299 92.6639083040597 L300 91.5919494441024 L301 90.51999058414515 L302 89.4480317241879 L303 88.37607286423062 L304 87.30411400427337 L305 86.23215514431607 L306 85.16019628435882 L307 84.08823742440157 L308 83.01627856444429 L309 81.94431970448699 L310 80.87236084452974 L311 79.80040198457246 L312 78.72844312461521 L313 77.65648426465796 L314 76.58452540470066 L315 75.51256654474341 L316 74.44060768478616 L317 73.36864882482888 L318 72.29668996487163 L319 71.22473110491435 L320 70.15277224495705 L321 69.08081338499983 L322 68.00885452504255 L323 66.93689566508527 L324 65.864936805128 L325 64.79297794517072 L326 63.72101908521347 L327 62.64906022525622 L328 61.577101365298944 L329 60.505142505341695 L330 59.43318364538439 L331 58.36122478542717 L332 57.28926592546989 L333 56.21730706551264 L334 55.14534820555534 L335 54.07338934559809 L336 53.00143048564084 L337 51.92947162568356 L338 50.857512765726284 L339 49.785553905769035 L340 48.71359504581176 L341 47.64163618585451 L342 46.5696773258972 L343 45.497718465939926 L344 44.42575960598268 L345 43.3538007460254 L346 42.28184188606815 L347 41.20988302611087 L348 40.137924166153596 L349 39.06596530619632 L350 37.9940064462391 L351 36.92204758628182 L352 35.85008872632454 L353 34.778129866367266 L354 33.70617100641002 L355 32.63421214645277 L356 31.56225328649552 L357 30.490294426538213 L358 29.418335566580964 L359 28.346376706623687 L360 27.274417846666438 L361 26.202458986709132 L362 25.130500126751883 L363 24.058541266794606 L364 22.986582406837385 L365 21.914623546880108 L366 20.84266468692283 L367 19.770705826965525 L368 18.698746967008248 L369 17.626788107051027 L370 16.55482924709375 L371 15.4828703871365 L372 14.410911527179195 L373 13.338952667221946 L374 12.266993807264726 L375 11.19503494730742 L376 10.123076087350114 L377 9.051117227392922 L378 7.979158367435616 L379 6.907199507478339 L380 5.83524064752109 L381 4.763281787563841 L382 3.691322927606535 L383 2.619364067649343 L384 1.5474052076920088 L385 0.4754463477347599 L386 -0.5965125122225459 L387 -1.668471372179738 L388 -2.7404302321370153 L389 -3.812389092094321 L390 -4.884347952051627 L391 -5.956306812008876 L392 -7.028265671966096 L393 -8.100224531923402 L394 -9.172183391880594 L395 -10.2441422518379 L396 -11.316101111795206 L397 -12.388059971752455 L398 -13.460018831709704 L399 -14.53197769166701 " stroke = "black" stroke-width = "2" fill = "none" /></svg>