<svg width="400" height="400" viewbox = "0 0 400 400"  xmlns="http://www.w3.org/2000/svg">
	<path d = "M0 -4 L1 -2.9546440423386002 L2 -2.046653006180861 L3 -1.1411786248499993 L4 -0.2382412961214868 L5 0.6621384930075465 L6 1.5599401671515238 L7 2.455143063393109 L8 3.3477264321627445 L9 4.237669438141438 L10 5.124951161186914 L11 6.009550597284033 L12 6.891446659517783 L13 7.7706181790709365 L14 8.647043906245756 L15 9.520702511509057 L16 10.39157258656195 L17 11.259632645434067 L18 12.124861125601512 L19 12.987236389130203 L20 13.84673672384281 L21 14.703340344511219 L22 15.557025394073207 L23 16.407769944874303 L24 17.25555199993414 L25 18.100349494238344 L26 18.942140296054504 L27 19.780902208274426 L28 20.616612969780704 L29 21.449250256837956 L30 22.27879168451085 L31 23.10521480810553 L32 23.92849712463743 L33 24.74861607432399 L34 25.565549042102248 L35 26.379273359172032 L36 27.189766304564387 L37 27.99700510673506 L38 28.800966945183006 L39 29.601628952094018 L40 30.398968214009983 L41 31.192961773522427 L42 31.98358663099134 L43 32.770819746288964 L44 33.55463804056848 L45 34.33501839805706 L46 35.1119376678738 L47 35.88537266587264 L48 36.655300176508376 L49 37.421696954728986 L50 38.18453972789018 L51 38.94380519769538 L52 39.699470042158566 L53 40.4515109175922 L54 41.19990446061729 L55 41.94462729019756 L56 42.685656009697425 L57 43.422967208961666 L58 44.15653746641925 L59 44.886343351208836 L60 45.61236142532749 L61 46.33456824580094 L62 47.05294036687599 L63 47.767454342235 L64 48.47808672723113 L65 49.184814081145305 L66 49.88761296946393 L67 50.586459966177244 L68 51.28133165609768 L69 51.9722046371985 L70 52.659055522972835 L71 53.34186094481021 L72 54.0205975543941 L73 54.69524202611717 L74 55.365771059515 L75 56.032161381717515 L76 56.694389749918855 L77 57.35243295386334 L78 58.006267818349215 L79 58.6558712057481 L80 59.30122001854079 L81 59.94229120186901 L82 60.57906174610105 L83 61.21150868941368 L84 61.83960912038714 L85 62.46334018061452 L86 63.082679067324136 L87 63.69760303601515 L88 64.30808940310493 L89 64.91411554858894 L90 65.51565891871144 L91 66.11269702864746 L92 66.70520746519452 L93 67.29316788947483 L94 67.87655603964618 L95 68.45534973362169 L96 69.02952687179783 L97 69.5990654397898 L98 70.1639435111739 L99 70.72413925023665 L100 71.27963091472918 L101 71.83039685862764 L102 72.37641553489686 L103 72.91766549825991 L104 73.45412540796934 L105 73.98577403058232 L106 74.51259024273713 L107 75.0345530339319 L108 75.55164150930341 L109 76.06383489240704 L110 76.57111252799518 L111 77.07345388479564 L112 77.57083855828722 L113 78.06324627347374 L114 78.55065688765444 L115 79.03305039319076 L116 79.51040692026851 L117 79.98270673965465 L118 80.44993026544898 L119 80.91205805782863 L120 81.36907082578495 L121 81.82094942985327 L122 82.26767488483364 L123 82.70922836250168 L124 83.14559119431027 L125 83.57674487407934 L126 84.00267106067531 L127 84.42335158067709 L128 84.83876843102985 L129 85.24890378168527 L130 85.65373997822644 L131 86.05325954447852 L132 86.44744518510333 L133 86.8362797881772 L134 87.21974642775126 L135 87.59782836639454 L136 87.97050905771778 L137 88.33777214887743 L138 88.69960148306052 L139 89.05598110194774 L140 89.40689524815508 L141 89.75232836765394 L142 90.0922651121669 L143 90.42669034154125 L144 90.755589126097 L145 91.07894674895044 L146 91.39674870831158 L147 91.70898071975529 L148 92.01562871846545 L149 92.31667886145078 L150 92.61211752973321 L151 92.90193133050536 L152 93.18610709926043 L153 93.46463190188967 L154 93.73749303674992 L155 94.00467803669926 L156 94.26617467109998 L157 94.52197094778853 L158 94.77205511501262 L159 95.01641566333313 L160 95.25504132749211 L161 95.48792108824478 L162 95.71504417415588 L163 95.93640006335988 L164 96.15197848528294 L165 96.36176942232873 L166 96.56576311152526 L167 96.76395004613295 L168 96.95632097721403 L169 97.14286691516185 L170 97.32357913119017 L171 97.4984491587818 L172 97.667468795096 L173 97.83063010233445 L174 97.98792540906493 L175 98.13934731150317 L176 98.28488867475079 L177 98.424542633991 L178 98.55830259564016 L179 98.68616223845515 L180 98.80811551459647 L181 98.92415665064692 L182 99.03428014858474 L183 99.1384807867114 L184 99.23675362053388 L185 99.3290939836009 L186 99.41549748829254 L187 99.49596002656392 L188 99.57047777064139 L189 99.63904717367234 L190 99.70166497032722 L191 99.75832817735443 L192 99.80903409408785 L193 99.85378030290559 L194 99.89256466964218 L195 99.9253853439514 L196 99.95224075962176 L197 99.97312963484319 L198 99.98805097242575 L199 99.99700405996936 L200 99.99998846998528 L201 99.99700405996936 L202 99.98805097242575 L203 99.97312963484319 L204 99.95224075962176 L205 99.9253853439514 L206 99.89256466964218 L207 99.85378030290565 L208 99.80903409408785 L209 99.75832817735443 L210 99.70166497032722 L211 99.63904717367234 L212 99.57047777064133 L213 99.49596002656392 L214 99.41549748829254 L215 99.3290939836009 L216 99.23675362053388 L217 99.1384807867114 L218 99.03428014858474 L219 98.92415665064692 L220 98.80811551459647 L221 98.6861622384551 L222 98.55830259564021 L223 98.424542633991 L224 98.28488867475079 L225 98.13934731150317 L226 97.98792540906493 L227 97.8306301023344 L228 97.66746879509606 L229 97.4984491587818 L230 97.32357913119017 L231 97.14286691516185 L232 96.95632097721403 L233 96.76395004613295 L234 96.56576311152526 L235 96.36176942232873 L236 96.15197848528288 L237 95.93640006335988 L238 95.71504417415588 L239 95.48792108824478 L240 95.25504132749211 L241 95.01641566333319 L242 94.77205511501262 L243 94.52197094778853 L244 94.26617467109998 L245 94.00467803669926 L246 93.73749303674992 L247 93.46463190188967 L248 93.18610709926043 L249 92.90193133050542 L250 92.61211752973321 L251 92.31667886145084 L252 92.0156287184654 L253 91.70898071975529 L254 91.39674870831152 L255 91.07894674895044 L256 90.755589126097 L257 90.42669034154125 L258 90.0922651121669 L259 89.75232836765389 L260 89.40689524815508 L261 89.05598110194774 L262 88.69960148306052 L263 88.33777214887743 L264 87.97050905771778 L265 87.59782836639454 L266 87.2197464277512 L267 86.8362797881772 L268 86.44744518510333 L269 86.05325954447852 L270 85.65373997822644 L271 85.24890378168527 L272 84.83876843102985 L273 84.42335158067709 L274 84.00267106067531 L275 83.57674487407934 L276 83.14559119431027 L277 82.70922836250168 L278 82.26767488483364 L279 81.82094942985327 L280 81.36907082578495 L281 80.91205805782863 L282 80.44993026544898 L283 79.98270673965459 L284 79.51040692026851 L285 79.03305039319076 L286 78.55065688765444 L287 78.06324627347374 L288 77.57083855828716 L289 77.07345388479564 L290 76.57111252799518 L291 76.06383489240704 L292 75.55164150930341 L293 75.0345530339319 L294 74.51259024273713 L295 73.98577403058232 L296 73.45412540796934 L297 72.91766549825991 L298 72.37641553489686 L299 71.83039685862764 L300 71.27963091472924 L301 70.72413925023665 L302 70.1639435111739 L303 69.5990654397898 L304 69.02952687179783 L305 68.45534973362169 L306 67.87655603964618 L307 67.29316788947483 L308 66.70520746519452 L309 66.1126970286474 L310 65.51565891871144 L311 64.91411554858894 L312 64.30808940310493 L313 63.69760303601515 L314 63.082679067324136 L315 62.46334018061452 L316 61.83960912038714 L317 61.21150868941368 L318 60.57906174610105 L319 59.94229120186901 L320 59.30122001854079 L321 58.6558712057481 L322 58.006267818349215 L323 57.352432953863286 L324 56.694389749918855 L325 56.032161381717515 L326 55.365771059515 L327 54.69524202611717 L328 54.0205975543941 L329 53.34186094481021 L330 52.65905552297278 L331 51.97220463719856 L332 51.28133165609768 L333 50.586459966177244 L334 49.88761296946393 L335 49.184814081145305 L336 48.47808672723113 L337 47.767454342235055 L338 47.05294036687599 L339 46.33456824580094 L340 45.61236142532755 L341 44.886343351208836 L342 44.15653746641925 L343 43.42296720896172 L344 42.685656009697425 L345 41.944627290197616 L346 41.19990446061723 L347 40.4515109175922 L348 39.699470042158566 L349 38.94380519769538 L350 38.18453972789024 L351 37.42169695472904 L352 36.655300176508376 L353 35.88537266587264 L354 35.1119376678738 L355 34.33501839805706 L356 33.554638040568534 L357 32.77081974628902 L358 31.98358663099134 L359 31.192961773522427 L360 30.398968214009983 L361 29.601628952094018 L362 28.800966945183006 L363 27.99700510673506 L364 27.189766304564387 L365 26.379273359171975 L366 25.565549042102248 L367 24.74861607432399 L368 23.928497124637488 L369 23.10521480810553 L370 22.278791684510793 L371 21.449250256837956 L372 20.616612969780704 L373 19.780902208274426 L374 18.942140296054504 L375 18.100349494238287 L376 17.25555199993414 L377 16.407769944874303 L378 15.557025394073207 L379 14.703340344511162 L380 13.846736723842753 L381 12.987236389130203 L382 12.124861125601512 L383 11.259632645434067 L384 10.39157258656195 L385 9.520702511509057 L386 8.647043906245756 L387 7.7706181790709365 L388 6.891446659517783 L389 6.00955059728409 L390 5.124951161186971 L391 4.237669438141438 L392 3.3477264321627445 L393 2.455143063393109 L394 1.5599401671515238 L395 0.6621384930075465 L396 -0.2382412961214868 L397 -1.1411786248499993 L398 -2.046653006180861 L399 -2.9546440423386002 " stroke = "black" stroke-width = "2" fill = "none" />	<path d = "M0 18 L1 19.38398580378805 L2 20.54286024698513 L3 21.701734690182207 L4 22.860609133379228 L5 24.01948357657625 L6 25.178358019773327 L7 26.33723246297035 L8 27.496106906167427 L9 28.654981349364448 L10 29.813855792561526 L11 30.97273023575849 L12 32.13160467895557 L13 33.29047912215265 L14 34.44935356534967 L15 35.60822800854669 L16 36.76710245174377 L17 37.925976894940845 L18 39.08485133813787 L19 40.24372578133489 L20 41.402600224531966 L21 42.56147466772899 L22 43.72034911092601 L23 44.87922355412309 L24 46.03809799732011 L25 47.196972440517186 L26 48.35584688371421 L27 49.514721326911285 L28 50.67359577010831 L29 51.83247021330533 L30 52.991344656502406 L31 54.150219099699484 L32 55.30909354289645 L33 56.46796798609353 L34 57.62684242929055 L35 58.785716872487626 L36 59.94459131568465 L37 61.103465758881725 L38 62.26234020207875 L39 63.42121464527577 L40 64.58008908847285 L41 65.73896353166992 L42 66.89783797486695 L43 68.05671241806397 L44 69.21558686126104 L45 70.37446130445807 L46 71.53333574765509 L47 72.69221019085217 L48 73.85108463404924 L49 75.00995907724621 L50 76.16883352044329 L51 77.32770796364036 L52 78.48658240683739 L53 79.6454568500344 L54 80.80433129323148 L55 81.9632057364285 L56 83.12208017962553 L57 84.2809546228226 L58 85.43982906601968 L59 86.59870350921665 L60 87.75757795241373 L61 88.9164523956108 L62 90.07532683880783 L63 91.23420128200485 L64 92.39307572520192 L65 93.551950168399 L66 94.71082461159597 L67 95.86969905479305 L68 97.02857349799012 L69 98.18744794118714 L70 99.34632238438417 L71 100.50519682758124 L72 101.66407127077827 L73 102.82294571397529 L74 103.98182015717236 L75 105.14069460036944 L76 106.29956904356641 L77 107.45844348676349 L78 108.61731792996056 L79 109.77619237315758 L80 110.9350668163546 L81 112.09394125955168 L82 113.2528157027487 L83 114.41169014594573 L84 115.5705645891428 L85 116.72943903233988 L86 117.8883134755369 L87 119.04718791873393 L88 120.206062361931 L89 121.36493680512802 L90 122.52381124832505 L91 123.68268569152212 L92 124.84156013471915 L93 126.00043457791617 L94 127.15930902111324 L95 128.31818346431032 L96 129.47705790750734 L97 130.63593235070437 L98 131.79480679390144 L99 132.95368123709846 L100 134.11255568029554 L101 135.27143012349256 L102 136.43030456668964 L103 137.58917900988666 L104 138.74805345308368 L105 139.90692789628076 L106 141.06580233947778 L107 142.2246767826748 L108 143.38355122587188 L109 144.54242566906893 L110 145.70130011226598 L111 146.860174555463 L112 148.01904899866005 L113 149.1779234418571 L114 150.33679788505415 L115 151.4956723282512 L116 152.65454677144822 L117 153.81342121464527 L118 154.97229565784232 L119 156.13117010103937 L120 157.29004454423642 L121 158.44891898743347 L122 159.60779343063052 L123 160.76666787382754 L124 161.92554231702462 L125 163.08441676022164 L126 164.2432912034187 L127 165.40216564661574 L128 166.56104008981276 L129 167.71991453300984 L130 168.87878897620686 L131 170.0376634194039 L132 171.19653786260096 L133 172.35541230579798 L134 173.51428674899506 L135 174.67316119219208 L136 175.83203563538913 L137 176.99091007858618 L138 178.1497845217832 L139 179.30865896498028 L140 180.4675334081773 L141 181.62640785137435 L142 182.7852822945714 L143 183.94415673776845 L144 185.1030311809655 L145 186.26190562416252 L146 187.42078006735957 L147 188.57965451055662 L148 189.73852895375367 L149 190.89740339695072 L150 192.05627784014777 L151 193.21515228334482 L152 194.37402672654184 L153 195.5329011697389 L154 196.69177561293594 L155 197.850650056133 L156 199.00952449933004 L157 200.16839894252706 L158 201.3272733857241 L159 202.48614782892116 L160 203.6450222721182 L161 204.80389671531526 L162 205.9627711585123 L163 207.12164560170936 L164 208.28052004490638 L165 209.43939448810343 L166 210.59826893130048 L167 211.75714337449753 L168 212.91601781769458 L169 214.0748922608916 L170 215.23376670408865 L171 216.3926411472857 L172 217.55151559048275 L173 218.7103900336798 L174 219.86926447687682 L175 221.02813892007387 L176 222.18701336327092 L177 223.34588780646797 L178 224.50476224966502 L179 225.66363669286207 L180 226.82251113605912 L181 227.98138557925614 L182 229.1402600224532 L183 230.29913446565024 L184 231.4580089088473 L185 232.61688335204434 L186 233.77575779524136 L187 234.9346322384384 L188 236.09350668163546 L189 237.2523811248325 L190 238.41125556802956 L191 239.5701300112266 L192 240.72900445442363 L193 241.88787889762068 L194 243.04675334081773 L195 244.20562778401478 L196 245.36450222721183 L197 246.52337667040888 L198 247.6822511136059 L199 248.84112555680295 L200 250 L201 248.84112555680295 L202 247.6822511136059 L203 246.52337667040888 L204 245.36450222721183 L205 244.20562778401478 L206 243.04675334081773 L207 241.88787889762068 L208 240.72900445442363 L209 239.5701300112266 L210 238.41125556802956 L211 237.2523811248325 L212 236.09350668163546 L213 234.9346322384384 L214 233.77575779524136 L215 232.61688335204434 L216 231.4580089088473 L217 230.29913446565024 L218 229.1402600224532 L219 227.98138557925614 L220 226.82251113605912 L221 225.66363669286207 L222 224.50476224966502 L223 223.34588780646797 L224 222.18701336327092 L225 221.02813892007387 L226 219.86926447687682 L227 218.7103900336798 L228 217.55151559048275 L229 216.3926411472857 L230 215.23376670408865 L231 214.0748922608916 L232 212.91601781769458 L233 211.75714337449753 L234 210.59826893130048 L235 209.43939448810343 L236 208.28052004490638 L237 207.12164560170936 L238 205.9627711585123 L239 204.80389671531526 L240 203.6450222721182 L241 202.48614782892116 L242 201.3272733857241 L243 200.16839894252706 L244 199.00952449933004 L245 197.850650056133 L246 196.69177561293594 L247 195.5329011697389 L248 194.37402672654184 L249 193.21515228334482 L250 192.05627784014777 L251 190.89740339695072 L252 189.73852895375367 L253 188.57965451055662 L254 187.42078006735957 L255 186.26190562416252 L256 185.1030311809655 L257 183.94415673776845 L258 182.7852822945714 L259 181.62640785137435 L260 180.4675334081773 L261 179.30865896498028 L262 178.1497845217832 L263 176.99091007858618 L264 175.83203563538913 L265 174.67316119219208 L266 173.51428674899506 L267 172.35541230579798 L268 171.19653786260096 L269 170.0376634194039 L270 168.87878897620686 L271 167.71991453300984 L272 166.56104008981276 L273 165.40216564661574 L274 164.2432912034187 L275 163.08441676022164 L276 161.92554231702462 L277 160.76666787382754 L278 159.60779343063052 L279 158.44891898743347 L280 157.29004454423642 L281 156.13117010103937 L282 154.97229565784232 L283 153.81342121464527 L284 152.65454677144822 L285 151.4956723282512 L286 150.33679788505415 L287 149.1779234418571 L288 148.01904899866005 L289 146.860174555463 L290 145.70130011226598 L291 144.54242566906893 L292 143.38355122587188 L293 142.2246767826748 L294 141.06580233947778 L295 139.90692789628076 L296 138.74805345308368 L297 137.58917900988666 L298 136.43030456668964 L299 135.27143012349256 L300 134.11255568029554 L301 132.95368123709846 L302 131.79480679390144 L303 130.63593235070437 L304 129.47705790750734 L305 128.31818346431032 L306 127.15930902111324 L307 126.00043457791617 L308 124.84156013471915 L309 123.68268569152212 L310 122.52381124832505 L311 121.36493680512802 L312 120.206062361931 L313 119.04718791873393 L314 117.8883134755369 L315 116.72943903233988 L316 115.5705645891428 L317 114.41169014594573 L318 113.2528157027487 L319 112.09394125955168 L320 110.9350668163546 L321 109.77619237315758 L322 108.61731792996056 L323 107.45844348676349 L324 106.29956904356641 L325 105.14069460036944 L326 103.98182015717236 L327 102.82294571397529 L328 101.66407127077827 L329 100.50519682758124 L330 99.34632238438417 L331 98.18744794118714 L332 97.02857349799012 L333 95.86969905479305 L334 94.71082461159597 L335 93.551950168399 L336 92.39307572520192 L337 91.23420128200485 L338 90.07532683880783 L339 88.9164523956108 L340 87.75757795241373 L341 86.59870350921665 L342 85.43982906601968 L343 84.2809546228226 L344 83.12208017962553 L345 81.9632057364285 L346 80.80433129323148 L347 79.6454568500344 L348 78.48658240683739 L349 77.32770796364036 L350 76.16883352044329 L351 75.00995907724621 L352 73.85108463404924 L353 72.69221019085217 L354 71.53333574765509 L355 70.37446130445807 L356 69.21558686126104 L357 68.05671241806397 L358 66.89783797486695 L359 65.73896353166992 L360 64.58008908847285 L361 63.42121464527577 L362 62.26234020207875 L363 61.103465758881725 L364 59.94459131568465 L365 58.785716872487626 L366 57.62684242929055 L367 56.46796798609353 L368 55.30909354289645 L369 54.150219099699484 L370 52.991344656502406 L371 51.83247021330533 L372 50.67359577010831 L373 49.514721326911285 L374 48.35584688371421 L375 47.196972440517186 L376 46.03809799732011 L377 44.87922355412309 L378 43.72034911092601 L379 42.56147466772899 L380 41.402600224531966 L381 40.24372578133489 L382 39.08485133813787 L383 37.925976894940845 L384 36.76710245174377 L385 35.60822800854669 L386 34.44935356534967 L387 33.29047912215265 L388 32.13160467895557 L389 30.97273023575849 L390 29.813855792561526 L391 28.654981349364448 L392 27.496106906167427 L393 26.33723246297035 L394 25.178358019773327 L395 24.01948357657625 L396 22.860609133379228 L397 21.701734690182207 L398 20.54286024698513 L399 19.38398580378805 " stroke = "black" stroke-width = "2" fill = "none" /></svg>