<svg width="600" height="400" viewbox = "0 0 600 400"  xmlns="http://www.w3.org/2000/svg">

<!--
<topfunctions>


function YofX(){
    X = plotparams.g*(x - plotparams.x0) - funcparams.X0;
    Y = funcparams.a*X*X*X + funcparams.b*X*X + funcparams.c*X + funcparams.d;
    y = plotparams.y0 - plotparams.G*(Y - funcparams.Y0);
}


function YofX2(){
    X = plotparams.g*(x - plotparams.x0) - funcparams.X0;
    Y = funcparams.b*X*X + funcparams.c*X + funcparams.d;
    y = plotparams.y0 - plotparams.G*(Y - funcparams.Y0);
}

function XYofT(){
    T = plotparams.g*t;
    X = Math.exp(-T/funcparams.tau)*Math.cos(2*Math.PI*T/funcparams.T);
    Y = Math.exp(-T/funcparams.tau)*Math.sin(2*Math.PI*T/funcparams.T);
    y = plotparams.y0 - plotparams.G*(Y - funcparams.Y0);
    x = plotparams.x0 - plotparams.G*(X - funcparams.X0);    
}


function plotfunction(){


    currentStroke = "blue";
    currentLineWidth = 4;
    ctx.strokeStyle = currentStroke;
    ctx.lineWidth = currentLineWidth;
    ctx.beginPath();	
    x = 0;
    y = 0;
    t= 0;
    XYofT();
    currentSVG += "	<path d = \"M";
    currentSVG += Math.round(x).toString() + " ";
    currentSVG += Math.round(y).toString() + " ";
    for(t = 1;t < plotparams.duration;t++){
        ctx.moveTo(x,y);
        XYofT();
        ctx.lineTo(x,y);
        currentSVG += "L" + x + " " + y + " ";
    }
    ctx.stroke();
    currentSVG += "\""+ " stroke = \"" + currentStroke + "\" stroke-width = \"" + currentLineWidth.toString() + "\" fill = \"" + "none" + "\" "+"/>";


    /*plot one function:
    currentStroke = "blue";
    currentLineWidth = 4;
    ctx.strokeStyle = currentStroke;
    ctx.lineWidth = currentLineWidth;
    ctx.beginPath();	
    x = 0;
    YofX();
    currentSVG += "	<path d = \"M";
    currentSVG += Math.round(x).toString() + " ";
    currentSVG += Math.round(y).toString() + " ";
    for(x = 1;x < plotparams.plotwidth;x++){
        ctx.moveTo(x-1,y);
        YofX();
        ctx.lineTo(x,y);
        currentSVG += "L" + x + " " + y + " ";
    }
    ctx.stroke();
    currentSVG += "\""+ " stroke = \"" + currentStroke + "\" stroke-width = \"" + currentLineWidth.toString() + "\" fill = \"" + "none" + "\" "+"/>";
    /*finish plot one function*/
    

}


     
   
   
   

   
   
   
   
   

constants = {}
plotparams = {
    "G": 379.74983358324147,
    "g": 0.017985878990921366,
    "duration": 1883.0570260326017,
    "plotwidth": 600,
    "plotheight": 400,
    "x0": 115.66298682885942,
    "y0": 200
}
funcparams = {
    "tau": 7.814802722886543,
    "T": 10,
    "X0": 0,
    "Y0": 0
}
</topfunctions>
-->

<!--
<imgurl>

</imgurl>
-->

<!--
<currentjson>
{
    "constants": {},
    "imgurl": "",
    "plotparams": {
        "G": 379.74983358324147,
        "g": 0.017985878990921366,
        "duration": 1883.0570260326017,
        "plotwidth": 600,
        "plotheight": 400,
        "x0": 115.66298682885942,
        "y0": 200
    },
    "funcparams": {
        "tau": 7.814802722886543,
        "T": 10,
        "X0": 0,
        "Y0": 0
    }
}
</currentjson>
-->

<!--
<equation>






<p style="color:blue">

</p><p class="bigeq">
$$
(X,Y) = (e^{-t/\tau}\cos{\frac{2\pi t}{T}},e^{-t/\tau}\sin{\frac{2\pi t}{T}})

$$
</p>
<p></p>

$$
X = g(x - x_0) - X_0
$$
$$
Y = f(X)
$$
    
$$
y = y_0 - G(Y - Y_0)
$$


<p>
    X and Y, and $X_0$ and $Y_0$ in physical units of the System. x and y and x0 and y0 in pixels.  G is in pixels per Y unit and g is in X units per pixel. 
</p>









</equation>
-->
	<path d = "M-264 200 L-263.1896593107829 195.71845661720627 L-262.24631867136947 191.4571441686885 L-261.2571619730652 187.21653521810325 L-260.2225308842681 182.99709741154192 L-259.1427715387014 178.79929343805813 L-258.01823446897475 174.6235809910342 L-256.8492745398673 170.4704127303878 L-255.6362508813417 166.3402362456204 L-254.37952682130106 162.23349401970793 L-253.07946981809567 158.1506233938352 L-251.73645139279358 154.0920565329743 L-250.35084706122132 150.05822039230833 L-248.9230362657883 146.0495366845001 L-247.453402307102 142.06642184780753 L-245.94233227538558 138.10928701504474 L-244.3902169817078 134.1785379833902 L-242.79745088903502 130.27457518504127 L-241.1644320431147 126.39779365871549 L-239.49156200320158 122.54858302199861 L-237.77924577263536 118.72732744453886 L-236.02789172928 114.93440562208718 L-234.23791155583547 111.17019075138333 L-232.40972017002963 107.43505050588671 L-230.54373565470314 103.72934701235191 L-228.64037918779388 100.05343682824746 L-226.7000749722331 96.40767092001795 L-224.72325016576184 92.79239464218706 L-222.71033481067735 89.2079477173021 L-220.66176176352013 85.65466421671752 L-218.57796662470935 82.13287254221657 L-216.45938766813805 78.64289540847005 L-214.3064657707365 75.18504982632983 L-212.1196443420145 71.7596470869565 L-209.89936925358955 68.36699274677852 L-207.64608876871358 65.0073866132814 L-205.36025347180498 61.68112273162555 L-203.04231619799657 58.38848937208968 L-200.6927319627083 55.12976901833818 L-198.31195789125445 51.905238356511035 L-195.90045314849323 48.71516826513195 L-193.4586788685304 45.55982380583467 L-190.98709808448234 42.43946421490293 L-188.48617565831142 39.354342895622864 L-185.95637821074018 36.304707411444184 L-183.39817405125382 33.29079947994771 L-180.81203310820058 30.312854967616687 L-178.19842685899766 27.371103885408445 L-175.55782826045305 24.46577038512288 L-172.8907116792098 21.597072756566007 L-170.19755282232376 18.76522342550365 L-167.4788286679816 15.970428952403267 L-164.73501739636862 13.21289003195946 L-161.9665983206944 10.492801493400123 L-159.17405181838478 7.8103523015698215 L-156.35785926244898 5.165725558785937 L-153.5185029530296 2.559098507464796 L-150.6564660491436 -0.009357466487330157 L-147.7722325006232 -2.5394768295210497 L-144.8662869802646 -5.03109989553343 L-141.93911481619165 -7.484072820204176 L-138.99120192444377 -9.898247594582472 L-136.02303474179536 -12.273482037929142 L-133.03510015881415 -14.609639789818061 L-130.0278854531677 -16.90659030150161 L-127.00187822318365 -19.16420882654461 L-123.95756632167364 -21.382376410731155 L-120.89543779002658 -23.56097988124938 L-117.81598079257999 -25.699911835158645 L-114.71968355127608 -27.799070627143777 L-111.60703428061082 -29.858360356561803 L-108.4785211228823 -31.877690853785964 L-105.33463208374589 -33.85697766585153 L-102.17585496808421 -35.79614204140924 L-99.00267731619739 -37.69511091499112 L-95.81558634032199 -39.55381689059419 L-92.61506886148506 -41.37219822458712 L-89.40161124669989 -43.15019880794512 L-86.17569934651017 -44.8877681478192 L-82.93781843289027 -46.584861348444434 L-79.68845313750661 -48.241439091393175 L-76.42808739034855 -49.85746761517896 L-73.15720435873284 -51.43291869421682 L-69.87628638669072 -52.96776961714525 L-66.58581493474215 -54.462003164516176 L-63.28627052006338 -55.915607585858766 L-59.978132657055326 -57.32857657612283 L-56.661879798317344 -58.70090925150714 L-53.33798927603321 -60.032610124680616 L-50.00693724377486 -61.323689079399685 L-46.669198618729965 -62.574161344531035 L-43.32524702435872 -63.78404746748299 L-39.97555473348582 -64.95337328705403 L-36.62059261183255 -66.08216990570372 L-33.26083006199586 -67.17047366125183 L-29.896734967877833 -68.21832609801373 L-26.528773639572407 -69.2257739373764 L-23.157410758714107 -70.1928690478237 L-19.783109324293903 -71.11966841441506 L-16.406330598946468 -72.00623410772641 L-13.027534055715662 -72.85263325225827 L-9.647177325301087 -73.65893799431842 L-6.26571614379165 -74.42522546938602 L-2.883604300890724 -75.15157776896302 L0.4987064113626758 -75.83808190692037 L3.880766249372499 -76.48482978534582 L7.2621275682587765 -77.09191815989931 L10.642344871621319 -77.65944860468431 L14.02097486079036 -78.1875274766399 L17.39757648355892 -78.6762658794629 L20.771710982393273 -79.12577962706507 L24.14294194211756 -79.53618920657283 L27.5108353370687 -79.90761974087798 L30.87495957771762 -80.24020095074371 L34.23488555675303 -80.53406711647591 L37.590186694624165 -80.7893570391642 L40.9404389845389 -81.00621400150186 L44.28522103691414 -81.18478572819095 L47.62411412327441 -81.32522434593938 L50.9567022195955 -81.4276863430581 L54.28257204909103 -81.49233252866452 L57.60131312443721 -81.5193279915 L60.912517789433785 -81.50884205836923 L64.2157812600978 -81.46104825220732 L67.51070166518787 -81.37612424978266 L70.7968800861555 -81.25425183904349 L74.07392059652085 -81.09561687611404 L77.34143030067176 -80.90040924194898 L80.59901937208082 -80.66882279865206 L83.84630109094101 -80.40105534546802 L87.08289188121547 -80.09730857445328 L90.30841134710005 -79.75778802583409 L93.52248230889684 -79.38270304305905 L96.72473083829541 -78.97226672755318 L99.91478629306152 -78.52669589318123 L103.09228135112939 -78.04621102042728 L106.25685204409784 -77.53103621029862 L109.40813779012696 -76.98139913796047 L112.54578142623417 -76.39753100610955 L115.66942923998914 -75.77966649809349 L118.77873100060405 -75.1280437307841 L121.87333998942026 -74.44290420721074 L124.95291302978804 -73.7244927689627 L128.0171105163395 -72.97305754836617 L131.06559644365288 -72.18884992044542 L134.0980384343079 -71.37212445467293 L137.11410776633048 -70.5231388665182 L140.11347940002628 -69.6421539688011 L143.09583200420315 -68.72943362285787 L146.06084798177966 -67.78524468952673 L149.00821349478184 -66.80985697996044 L151.93761848872555 -65.80354320627345 L154.84875671638528 -64.76657893203077 L157.74132576094735 -63.699242522585564 L160.61502705855102 -62.601815095273366 L163.46956592021175 -61.47458046946929 L166.30465155313172 -60.31782511651704 L169.11999708139504 -59.131838109534556 L171.91531956604712 -57.916911073106576 L174.69034002456092 -56.6733381328678 L177.44478344968755 -55.40141586498737 L180.17837882769342 -54.101443245559494 L182.89085915598395 -52.77372159990722 L185.58196146011295 -51.41855455180911 L188.2514268101804 -50.03624797265206 L190.89900033661831 -48.62710993052107 L193.5244312453642 -47.1914506392302 L196.12747283242498 -45.72958240730338 L198.70788249783124 -44.24181958691142 L201.26542175898197 -42.72847852277249 L203.79985626338313 -41.18987750102224 L206.31095580077772 -39.62633669806215 L208.79849431467218 -38.038178129391184 L211.2622499132578 -36.42572559842853 L213.7020048797294 -34.78930464533431 L216.11754568200308 -33.129242495834234 L218.50866298183297 -31.445868010056984 L220.87515164333098 -29.739511631388012 L223.2168107408886 -28.01050533534928 L225.53344356650445 -26.259182578509865 L227.82485763651766 -24.48587824743521 L230.09086469775073 -22.69092860768029 L232.33128073306221 -20.874671252834673 L234.54592596631136 -19.037445053625476 L236.7346248667388 -17.1795901070833 L238.89720615276127 -15.301447685780971 L241.03350279518762 -13.403360187147655 L243.1433520198537 -11.485671082867356 L245.22659530968212 -9.548724868366662 L247.28307840616628 -7.592867012399381 L249.3126513102835 -5.618443906732779 L251.31516828283816 -3.625802815942933 L253.290487844238 -1.6152918273246542 L255.2384727737067 0.4127401990780868 L257.1589901079341 2.4579436803138037 L259.0519111391688 4.519968360233577 L260.9171114127533 6.598463359060872 L262.7544707241078 8.693077222817493 L264.5638731151624 10.803457972597641 L266.34520687024286 12.929253153686659 L268.09836451141246 15.070109884516285 L269.82324279327224 17.22567490545191 L271.51974269722456 19.395594627406837 L273.18776942520043 21.57951518027545 L274.8272323928573 23.777082461182772 L276.43804522224826 25.987942182542156 L278.02012573396627 28.21173991991779 L279.57339593876776 30.44812115968446 L281.097782028679 32.69673134648144 L282.5932143675877 34.957215930453 L284.0596274813246 37.229220414271595 L285.4969600472391 39.51239039993902 L286.90515488326974 41.80637163535721 L288.2841589365181 44.11081006066851 L289.6339232713248 46.4253518543554 L290.95440305685594 48.74964347909844 L292.24555755420033 51.083331727384945 L293.5073501029837 53.426063766864786 L294.73974810750315 55.77748718544814 L295.9427230223856 58.13725003614036 L297.11625033777494 60.50500088160874 L298.26030956405145 62.88038883847821 L299.37488421608816 65.26306362134869 L300.4599617970477 67.65267558653159 L301.5155337817251 70.04887577550042 L302.541595599439 72.45131595805083 L303.53814661647755 74.85964867516563 L304.5051901181022 77.27352728158063 L305.44273329011355 79.69260598804709 L306.35078719998575 82.116539903287 L307.22936677757036 84.54498507563524 L308.0784907953781 86.97759853436732 L308.89818184844034 89.41403833070585 L309.6884663337561 91.85396357850428 L310.4493744293283 94.29703449460133 L311.1809400727962 96.74291243884579 L311.88320093966473 99.19125995378334 L312.5561984211398 101.64174080400606 L313.19997760157133 104.09402001515875 L313.8145872355097 106.54776391259767 L314.4000797243817 109.00264015970114 L314.9565110927877 111.45831779582434 L315.48394096442865 113.91446727389946 L315.98243253766526 116.37076049767414 L316.45205256071523 118.82687085858684 L316.8928713064929 121.28247327227552 L317.3049625470976 123.73724421471627 L317.6884035279538 126.19086175798898 L318.04327494161026 128.64300560566653 L318.36966090120063 131.09335712782638 L318.66764891357366 133.5415993956779 L318.9373298520948 135.98741721580703 L319.1787979291276 138.43049716403257 L319.3921506681971 140.87052761887202 L319.5774888758424 143.30719879461486 L319.7349166131623 145.7402027739999 L319.86454116706057 148.16923354049575 L319.9664730211944 150.59398701017875 L320.0408258266323 153.01416106321037 L320.0877163722266 155.42945557490788 L320.10726455470575 157.8395724464082 L320.0995933484908 160.24421563492137 L320.06482877524326 162.64309118357403 L320.0030998731472 165.0359072508364 L319.9145386659333 167.4223741395357 L319.7992801316481 169.80220432545093 L319.65746217117487 172.17511248548732 L319.4892255765116 174.540815525431 L319.29471399881044 176.89903260727812 L319.07407391618494 179.2494851761413 L318.82745460128945 181.5918969867282 L318.55500808867765 183.9259941293924 L318.256889141943 186.2515050557546 L317.9332552206494 188.56816060389312 L317.58426644705474 190.87569402310174 L317.2100855726349 193.17384099821348 L316.81087794441214 195.46233967349107 L316.3868114710935 197.7409306760789 L315.93805658902517 200.00935713901984 L315.4647862279678 202.26736472383314 L314.9671757766976 204.5147016426528 L314.44540304843997 206.7511186799263 L313.8996482461392 208.97636921367155 L313.33009392757094 211.1902092362937 L312.7369249703029 213.392397374957 L312.120328536508 215.58269491151617 L311.480494037636 217.76086580200126 L310.8176130989491 219.92667669566063 L310.1318795239267 222.07989695355718 L309.4234892585444 224.22029866672057 L308.6926403554326 226.3476566738533 L307.93953293792083 228.4617485785905 L307.16436916397134 230.56235476631448 L306.36735319000934 232.64925842052207 L305.54869113465367 234.72224553874588 L304.70859104235336 236.78110494802928 L303.8472628469366 238.82562831995406 L302.96491833507554 240.85561018522202 L302.06177110967303 242.87084794779082 L301.1380365531768 244.87114189856254 L300.19393179082624 246.85629522862678 L299.2296756538358 248.8261140420586 L298.24548864252216 250.7804073682701 L297.24159288937824 252.71898717391787 L296.2182121221009 254.64166837436565 L295.1755716265769 256.5482688447028 L294.113898209831 258.438609430321 L293.0334201629435 260.3125139570452 L291.9343672239405 262.16980924082594 L290.81697054066336 264.01032509698746 L289.6814626336202 265.83389434903756 L288.52807735882743 267.64035283703606 L287.3570498706431 269.42953942552657 L286.1686165846007 271.2012960110277 L284.963015140244 272.95546752909024 L283.7404843639718 274.6919019609169 L282.5012642318951 276.4104503395485 L281.2455958327125 278.11096675561623 L279.9737213306085 279.7933083626616 L278.6858839281789 281.45733538202626 L277.38232782938974 283.10291110731134 L276.0632982025726 284.72990190840966 L274.7290411434617 286.33817723511015 L273.37980363827904 287.92760962027785 L272.01583352686913 289.49807468260923 L270.6373794658912 291.0494511289669 L269.2446908920707 292.5816207562922 L267.8380179855179 294.0944684530996 L266.4176116331141 295.58788220055453 L264.98372339197397 297.06175307313504 L263.53660545298584 298.5159752388802 L262.07651060443567 299.95044595922684 L260.60369219571885 301.3650655884368 L259.1184041011435 302.75973757261625 L257.62090068383134 304.13436844832916 L256.1114367597189 305.48886784080685 L254.59026756166446 306.82314846175615 L253.0576487036633 308.13712610676833 L251.51383614517835 309.43071965232974 L249.9590861555875 310.70385105243906 L248.3936552787539 311.95644533482937 L246.81780029772182 313.1884305968018 L245.23177819954395 314.3997380006698 L243.63584614024165 315.59030176881794 L242.03026140990514 316.76005917837756 L240.41528139793547 317.9089505555209 L238.7911635584328 319.0369192693777 L237.15816537573562 320.14391172557475 L235.51654433011373 321.2298773594036 L233.86655786361925 322.2947686286165 L232.20846334610025 323.3385410058548 L230.5425180413792 324.36115297071166 L228.86897907360117 325.36256600143315 L227.18810339375509 326.3427445662584 L225.50014774637208 327.30165611440304 L223.8053686364031 328.23927106668964 L222.1040222962818 329.15556280582484 L220.396364653174 330.05050766632974 L218.68265129641796 330.9240849241238 L216.96313744516 331.7762767857672 L215.23807791618628 332.6070683773628 L213.50772709195735 333.41644773312225 L211.77233888884598 334.2044057835983 L210.03216672558315 334.9709363435874 L208.28746349191545 335.71603609970407 L206.53848151747547 336.43970459763227 L204.7854725408701 337.1419442290562 L203.02868767898985 337.82276021827147 L201.26837739654087 338.48216060848415 L199.50479147580296 339.12015624779764 L197.73817898661838 339.7367607748913 L195.9687882566119 340.33199060439586 L194.19686684164645 340.9058649119659 L192.4226614965174 341.45840561905584 L190.64641814588657 341.9896373774011 L188.86838185546105 342.4995875532078 L187.08879680341713 342.9882862110559 L185.30790625207527 343.4557660975165 L183.52595251982416 343.9020626244903 L181.7431769533006 344.32721385226773 L179.95981989982587 344.73126047231585 L178.17612068010095 345.11424578979506 L176.3923175611635 345.4762157058092 L174.60864772960895 345.8172186993929 L172.82534726507794 346.1373058092394 L171.04265111401202 346.4365306151726 L169.26079306368135 346.714949219367 L167.48000571648373 346.9726202273191 L165.70052046452054 347.2096047285746 L163.9225674644493 347.42596627721343 L162.14637561261537 347.6217708720982 L160.3721725204664 347.7970869368885 L158.6001844902483 347.9519852998256 L156.83063649098762 348.0865391732905 L155.06375213476173 348.20082413313946 L153.29975365325708 348.2949180978215 L151.5388618746183 348.36890130728 L149.7812962005903 348.4228563016437 L148.02727458395466 348.45686789971023 L146.27701350626143 348.47102317722613 L144.53072795585928 348.4654114449667 L142.7886314062234 348.4401242266207 L141.0509357945854 348.395255236482 L139.3178515008636 348.3309003569542 L137.58958732689908 348.24715761586947 L135.8663504759936 348.14412716362807 L134.14834653275597 348.0219112501603 L132.4357794432544 347.8806142017163 L130.72885149547832 347.72034239748643 L129.0277633001092 347.5412042460569 L127.33271377160287 347.34331016170415 L125.6439001095832 347.1267725405318 L123.96151778054978 346.89170573645447 L122.28576049989813 346.6382260370318 L120.61682021425614 346.36645163915705 L118.95488708413576 346.07650262460413 L117.3001494669015 345.7685009354362 L115.65279390005627 345.4425703492811 L114.01300508484607 345.0988364544763 L112.38096587018258 344.7374266250879 L110.756857236886 344.3584699958069 L109.14085828224864 343.9620974367283 L107.53314620491882 343.5484415280142 L105.93389629010555 343.11763653444757 L104.34328189510614 342.6698183798786 L102.76147443515563 342.20512462156887 L101.18864336959868 341.72369442443585 L99.62495618838528 341.2256685352029 L98.0705783988887 340.7111892564578 L96.525673513048 340.18040042062455 L94.99040303483363 339.6334473638503 L93.46492644803841 339.0704768998145 L91.94940120439067 338.49163729346077 L90.44398271199313 337.8970782346575 L88.94882432408565 337.28695081179035 L87.46407732813205 336.66140748529017 L85.98989093523147 336.02060206110065 L84.52641226985368 335.3646896640889 L83.0737863598984 334.69382671140386 L81.63215612707916 334.0081708857848 L80.20166237762933 333.30788110882486 L78.78244379333321 332.5931175141927 L77.37463692287912 331.8640414208168 L75.97837617353574 331.12081530603524 L74.59379380315062 330.3636027787147 L73.2210199124712 329.5925685523439 L71.86018243778614 328.8078784181025 L70.5114071438891 328.00969921791256 L69.17481761736173 327.1981988174718 L67.85053526017796 326.37354607927773 L66.53867928362598 325.5359108356412 L65.23936670254997 324.6854638616957 L63.95271232990925 323.82237684840675 L62.67882877165478 322.9468223755815 L61.41782642192194 322.05897388488665 L60.169813458539345 321.15900565287404 L58.93489583885118 320.2470927640202 L57.71317729585482 319.32341108378296 L56.50475933465095 318.388137231677 L55.30974122920461 317.44144855437384 L54.12822001941893 316.48352309882875 L52.960290508516785 315.51453958543766 L51.80604526073317 314.5346773812287 L50.665574599314056 313.5441164730903 L49.538966604822576 312.5430374410412 L48.42630711374922 311.5316214315424 L47.32767971742848 310.5100501308592 L46.24316576125625 309.47850573847126 L45.17284434420996 308.4371709405389 L44.11679231866849 307.38622888342496 L43.07508429053203 306.3258631472789 L42.047792619637875 305.2562577196825 L41.03498742047404 304.17759696936486 L40.03673656318625 303.0900656199856 L39.05310567487851 301.9938487239923 L38.084158141206345 300.8891316365548 L37.129955108258315 299.7760999895776 L36.190555484727994 298.6549396657965 L35.266015944370864 297.5258367729596 L34.35639092874857 296.38897761809784 L33.46173265025533 295.2445486818869 L32.58209109542709 294.0927365931043 L31.717514028529692 292.9337281031826 L30.86804699542739 291.76771006086614 L30.033733327725656 290.5948693869674 L29.214614147191142 289.41539304923356 L28.410728370442357 288.22946803731895 L27.622112713913268 287.03728133787234 L26.848801699085143 285.8390199097372 L26.09082765798516 284.6348706592695 L25.348220738952037 283.42502041577757 L24.621008912662646 282.2096559070826 L23.909217978422248 280.98896373520745 L23.212871570711854 279.76313035219084 L22.531991165994725 278.5323420360355 L21.866596089776266 277.29678486678756 L21.21670352391824 276.0566447027533 L20.582328514202842 274.81210715685404 L19.963483978146698 273.5633575731227 L19.360180713059805 272.3105810033432 L18.772427404350452 271.0539621838368 L18.200230634071005 269.79368551239605 L17.643594889703976 268.5299350253699 L17.102522573186207 267.2628943749031 L16.577014010167503 265.9927468063288 L16.067067459502752 264.71967513572116 L15.572679122974762 263.44386172760676 L15.093843155245096 262.16548847283883 L14.630551674031082 260.8847367666358 L14.182794770506632 259.60178748678646 L13.750560519923468 258.3168209720235 L13.333834992451841 257.03001700056865 L12.932602264237318 255.74155476885056 L12.546844428671022 254.45161287039684 L12.176541607871968 253.16036927490424 L11.821671964377302 251.86800130748622 L11.48221171303976 250.57468562810323 L11.15813513312844 249.2805982111741 L10.849414580631176 247.98591432537324 L10.556020500755153 246.6908085136127 L10.277921440624226 245.39545457321475 L10.015084062169478 244.10002553627214 L9.767473155210695 242.80469365020184 L9.535051650726459 241.50963035849074 L9.317780634309813 240.2150062816383 L9.1156193598069 238.92099119829376 L8.928525263136365 237.62775402659372 L8.756453976286096 236.335462805698 L8.59935934148524 235.0442846775276 L8.457193425549093 233.75438586870646 L8.32990653439289 232.46593167270566 L8.217447227713265 231.17908643219556 L8.119762333833506 229.89401352160303 L8.036796964710945 228.6108753298794 L7.968494531102749 227.32983324347677 L7.914796757887899 226.05104762953653 L7.875643699542664 224.77467781928885 L7.850973755766574 223.50088209166847 L7.8407236872561015 222.22981765714212 L7.844828631623628 220.96164064175514 L7.863222119458598 219.69650607139317 L7.895836090528007 218.4345678562622 L7.942600910113768 217.17597877558984 L8.00344538548407 215.92089046254404 L8.078296782495485 214.66945338937626 L8.167080842323713 213.42181685278376 L8.269721798319793 212.17812895949834 L8.38614239298866 210.93853661209587 L8.51626389508806 209.703185495034 L8.660006116843974 208.472220060913 L8.817287431280775 207.24578351696474 L8.98802478966239 206.02401781176803 L9.172133739042238 204.8070636221933 L9.369528439918781 203.59506034057418 L9.580121683994108 202.38814606211008 L9.803824912032525 201.1864575724978 L10.040548231816459 199.9901303357936 L10.290200436196642 198.7992984825078 L10.552689021234116 197.61409479792903 L10.827920204430825 196.43465071068198 L11.115798943046244 195.26109628151738 L11.416228952496951 194.0935601923347 L11.729112724836867 192.9321697354386 L12.054351547314454 191.77705080302925 L12.391845521005152 190.62832787692562 L12.741493579515051 189.48612401852472 L13.103193507753943 188.35056085899456 L13.476841960774692 187.22175858970152 L13.86233448267555 186.09983595287412 L14.259565525563886 184.98491023249957 L14.668428468576494 183.8770972454595 L15.088815636956483 182.77651133289623 L15.520618321180876 181.68326535181936 L15.963726796139056 180.5974706669433 L16.418030340356623 179.51923714276424 L16.883417255264277 178.44867313587037 L17.35977488450716 177.3858854874877 L17.846989633293035 176.33097951626192 L18.3449469877757 175.2840590112748 L18.853531534471955 174.245226225296 L19.372626979708087 173.21458186827 L19.9021161690944 172.19222510103648 L20.441881107024287 171.17825352928676 L20.991802976195345 170.172763197753 L21.55176215715008 169.17584858463198 L22.121638247832948 168.1876025962424 L22.701310083162014 167.20811656191404 L23.29065575461121 166.23748022911232 L23.889552629802154 165.27578175879182 L24.49787737210137 164.32310772098444 L25.11550596022137 163.37954309061752 L25.742313707822262 162.4451712435631 L26.378175283112014 161.5200739529175 L27.022964728441877 160.60433138551124 L27.676555479895214 159.69802209864707 L28.338820386866658 158.80122303706742 L29.00963173162927 157.91400953014943 L29.688861248887136 157.03645528932734 L30.37638014531052 156.16863240574142 L31.072059119051914 155.31061134811245 L31.77576837923948 154.46246096084155 L32.48737766544622 153.624248462334 L33.2067562671314 152.79603944354741 L33.93377304305356 151.97789786676057 L34.66829644064997 151.16988606456698 L35.41019451538365 150.37206473908563 L36.159334950051274 149.58449296139565 L36.91558507405382 148.8072281711868 L37.67881188262463 148.04032617662978 L38.448882056013204 147.28384115446366 L39.225661978624345 146.5378256502977 L40.0090177581061 145.8023305791308 L40.798815244389246 145.07740522608287 L41.59492004867192 144.36309724734002 L42.39719756234949 143.65945267131147 L43.20551297588648 142.96651589999695 L44.0197312976282 142.2843297105641 L44.839717372550666 141.6129352571337 L45.665335900946204 140.9523720727719 L46.496451457040976 140.30267807169008 L47.332928507546185 139.66388955164646 L48.17463143013583 139.0360411965546 L49.02142453185331 138.41916607929113 L49.873172067442354 137.81329566470578 L50.72973825759938 137.21845981283175 L51.59098730714916 136.63468678229196 L52.45678342313609 136.0620032339049 L53.32699083283525 135.5004342344833 L54.20147380167511 134.95000326082913 L55.08009665107474 134.41073220392008 L55.96272377619123 133.8826413732871 L56.84921966357557 133.36574950158246 L57.73944890873538 132.8600737493355 L58.63327623360289 132.36562970989525 L59.53056650390523 131.88243141455877 L60.431184746436735 131.41049133788232 L61.33499616622985 130.9498204031757 L62.24186616362378 130.50042798817648 L63.15166035122902 130.0623219309037 L64.06424457078509 129.63550853568893 L64.97948490991217 129.2199925793825 L65.89724771875017 128.81577731773555 L66.81739962649021 128.4228644919525 L67.73980755779012 128.04125433541614 L68.66433874907696 127.67094558058098 L69.59086076473278 127.31193546603447 L70.51924151316273 126.9642197437239 L71.44934926274334 126.62779268634763 L72.3810526576504 126.30264709490812 L73.31422073356379 125.98877430642622 L74.24872293324836 125.6861642018139 L75.1844291220094 125.39480521390414 L76.12120960302062 125.11468433563621 L77.05893513252431 124.84578712839416 L77.99747693490104 124.58809773049737 L78.93670671760833 124.34159886584048 L79.87649668598597 124.10627185268197 L80.81671955792874 123.88209661257804 L81.75724857842133 123.6690516794619 L82.6979575339399 123.46711420886419 L83.63872076671197 123.27625998727527 L84.57941318883992 123.09646344164531 L85.51991029628273 122.92769764902133 L86.4600881826956 122.76993434631964 L87.39982355312883 122.62314394023025 L88.33899373757944 122.48729551725339 L89.2774767044006 122.36235685386426 L90.21515107356291 122.24829442680549 L91.15189612976918 122.14507342350456 L92.08759183542054 122.0526577526145 L93.02211884343268 121.97101005467594 L93.95535850990235 121.90009171289839 L94.88719290662239 121.83986286405877 L95.81750483344251 121.7902824095158 L96.74617783047995 121.75130802633683 L97.67309619017227 121.72289617853707 L98.59814496917782 121.70500212842728 L99.52121000011905 121.69757994806936 L100.44217790316756 121.70058253083718 L101.36093609747451 121.71396160308048 L102.27737281243897 121.73766773589048 L103.19137709882061 121.77165035696434 L104.1028388396891 121.81585776256705 L105.01164876121462 121.87023712958874 L105.91769844329683 121.93473452769469 L106.82088033003117 122.00929493156691 L107.72108774001268 122.09386223323443 L108.6182148764766 122.18837925449104 L109.5121568372745 122.29278775939765 L110.40280962468678 122.40702846686774 L111.29007015506912 122.53104106333386 L112.17383626833396 122.66476421549258 L113.05400673726568 122.80813558312668 L113.93048127666884 122.96109183200174 L114.80316055235086 123.12356864683561 L115.67194618993442 123.2955007443382 L116.53674078350555 123.47682188632042 L117.39744790409055 123.6674648928689 L118.25397210796594 123.86736165558585 L119.10621894479897 124.07644315089071 L119.95409496561912 124.29463945338276 L120.7975077306197 124.52187974926154 L121.63636581679046 124.75809234980377 L122.47057882537943 125.00320470489451 L123.3000573891851 125.25714341661028 L124.124713179678 125.51983425285253 L124.94445891395154 125.79120216102912 L125.75920836150289 126.07117128178166 L126.56887635084216 126.35966496275721 L127.37337877593163 126.65660577242174 L128.17263260245272 126.9619155139135 L128.96655587390381 127.2755152389345 L129.75506771752492 127.59732526167781 L130.53808835005344 127.92726517278884 L131.31553908330696 128.26525385335827 L132.08734232959685 128.61120948894546 L132.85342160696942 128.96504958362885 L133.6137015442773 129.32669097408308 L134.3681078860801 129.69604984367993 L135.11656749737364 130.07304173661035 L135.85900836814994 130.45758157202786 L136.5953596177859 130.84958365820856 L137.32555149926267 131.24896170672812 L138.04951540321545 131.65562884665246 L138.7671838618123 132.06949763874047 L139.4784905524657 132.4904800896572 L140.1833703013736 132.9184876661953 L140.8817590868913 133.353431309502 L141.57359404273808 133.7952214493123 L142.2588134610308 134.2437680181822 L142.93735679515493 134.6989804657249 L143.60916466246493 135.1607677728444 L144.27417884681816 135.62903846596544 L144.93234230094507 136.10370063126064 L145.58359914864872 136.58466192886758 L146.22789468684365 137.0718296071001 L146.8651753874264 137.56511051664705 L147.49538889898244 138.06441112475915 L148.11848404833017 138.56963752942193 L148.73441084189966 139.08069547351215 L149.3431204669498 139.59749035893648 L149.94456529262328 140.1199272607505 L150.53869887083857 140.6479109412562 L151.12547593702254 141.18134586407638 L151.70485241068116 141.7201362082037 L152.27678539581137 142.2641858820234 L152.84123318115405 142.81339853730742 L153.39815524028737 143.36767758317782 L153.9475122315642 143.9269262000393 L154.48926599789087 144.49104735347677 L155.02337956635125 145.05994380811893 L155.5498171476745 145.63351814146392 L156.06854413554825 146.21167275766646 L156.57952710577837 146.79430990128498 L157.08273381529568 147.38133167098698 L157.57813320100985 147.97264003320964 L158.06569537851308 148.56813683577712 L158.54539164063212 149.167723821469 L159.01719445583146 149.7713026415419 L159.4810774664681 150.37877486920075 L159.93701548689745 150.9900420130179 L160.38498450143382 151.60500553030013 L160.82496166216362 152.2235668404003 L161.25692528661492 152.84562733797367 L161.680854855282 153.47108840617554 L162.09673100900787 154.0998514298012 L162.5045355462238 154.73181780836381 L162.90425142004915 155.36688896911176 L163.29586273524995 156.00496637998117 L163.67935474505998 156.64595156248475 L164.05471384786279 157.28974610453332 L164.42192758373784 157.93625167319024 L164.78098463087096 158.58537002735693 L165.13187480182953 159.237003030387 L165.4745890397053 159.89105266263 L165.80911941412398 160.54742103390052 L166.13545911712401 161.20601039587396 L166.4536024589059 161.8667231544064 L166.7635448634514 162.52946188177654 L167.0652828640162 163.19412932885075 L167.3588140984959 163.86062843716752 L167.64413730466552 164.5288623509407 L167.92125231529718 165.1987344289831 L168.19016005315225 165.8701482565431 L168.45086252585426 166.5430076570606 L168.70336282063974 167.2172167038351 L168.94766509899029 167.89267973160696 L169.18377459114777 168.5693013480531 L169.41169759051093 169.24698644519003 L169.63144144791872 169.9256402106905 L169.84301456581818 170.60516813910638 L170.04642639231986 171.2854760430002 L170.24168741514228 171.96647006398368 L170.42880915544544 172.64805668366108 L170.60780416155626 173.33014273447776 L170.7786860025862 174.01263541047265 L170.94146926194244 174.69544227793222 L171.09616953073504 175.3784712859475 L171.2428034010797 176.0616307768707 L171.38138845929933 176.74482949667217 L171.51194327902422 177.42797660519656 L171.63448741419333 178.11098168631585 L171.7490413919575 178.79375475798096 L171.85562670548592 179.47620628216796 L171.95426580667774 180.15824717472137 L172.04498209877988 180.83978881509077 L172.1277999289121 181.5207430559615 L172.20274458050181 182.20102223277857 L172.2698422656289 182.880539173163 L172.3291201172825 183.55920720621842 L172.3806061815315 184.23694017173017 L172.4243294096093 184.91365242925264 L172.46031964991516 185.5892588670869 L172.48860763993335 186.26367491114715 L172.50922499807086 186.93681653371394 L172.52220421541648 187.6086002620762 L172.52757864742108 188.27894318705845 L172.52538250550225 188.94776297143542 L172.5156508485731 189.61497785823082 L172.49841957449814 190.28050667890247 L172.47372541147672 190.9442688614101 L172.44160590935599 191.6061844381686 L172.40209943087459 192.2661740538831 L172.3552451428389 192.92415897326765 L172.30108300723293 193.58006108864635 L172.2396537722636 194.23380292743522 L172.17099896334273 194.88530765950685 L172.09516087400743 195.53449910443456 L172.01218255678023 196.18130173861854 L171.9221078139704 196.82564070229057 L171.82498118841792 197.46744180639962 L171.7208479541821 198.1066315393767 L171.60975410717546 198.74313707377786 L171.49174635574508 199.37688627280716 L171.36687211120255 200.0078076967172 L171.2351794783044 200.6358306090873 L171.0967172456837 201.26088498298176 L170.95153487623546 201.88290150698208 L170.7996824974563 202.50181159110033 L170.64121089174037 203.11754737256712 L170.47617148663312 203.73004172149658 L170.30461634504388 204.33922824643037 L170.12659815541952 204.94504129975468 L169.94217022187965 205.54741598299702 L169.7513864543161 206.14628815199728 L169.5543013584569 206.7415944219551 L169.3509700258972 207.33327217235444 L169.14144812409793 207.92125955176263 L168.92579188635432 208.50549548250632 L168.704058101735 209.08591966522334 L168.47630410499403 209.66247258328923 L168.24258776645632 210.23509550712134 L168.00296748187887 210.80373049835686 L167.7575021622887 211.36832041390795 L167.50625122379873 211.92880890989272 L167.24927457740426 212.48514044544086 L166.9866326187595 213.0372602863769 L166.71838621793785 213.58511450877802 L166.4445967091754 214.12865000240927 L166.16532588060045 214.66781447403412 L165.88063596394966 215.20255645060155 L165.5905896242729 215.73282528231007 L165.2952499496273 216.25857114554844 L164.99468044076343 216.77974504571222 L164.68894500080285 217.2962988198991 L164.37810792491092 217.8081851394797 L164.0622338899642 218.31535751254705 L163.7413879442147 218.81777028624373 L163.4156354969529 219.31537864896592 L163.08504230816948 219.80813863244734 L162.74967447821888 220.29600711371998 L162.40959843748436 220.77894181695527 L162.06488093604747 221.2569013151829 L161.71558903336165 221.72984503189045 L161.36179008793323 222.19773324250156 L161.00355174700925 222.66052707573556 L160.64094193627497 223.11818851484625 L160.27402884956126 223.57068039874275 L159.90288093856384 224.01796642299115 L159.52756690257584 224.46001114069762 L159.14815567823405 224.89677996327453 L158.76471642928135 225.3282391610879 L158.3773185363455 225.75435586398936 L157.9860315867366 226.17509806173013 L157.5909253642636 226.59043460426008 L157.19206983907154 227.00033520191116 L156.78953515750098 227.40477042546487 L156.3833916319704 227.8037117061066 L155.97370973088292 228.19713133526508 L155.56056006855937 228.58500246433812 L155.14401339519677 228.96729910430736 L154.72414058685698 229.34399612523777 L154.30101263548238 229.71506925566845 L153.87470063894386 230.08049508189015 L153.4452757911195 230.44025104711318 L153.0128093720059 230.7943154505258 L152.5773727378645 231.1426674462422 L152.13903731140215 231.48528704214286 L151.69787457198788 231.82215509860674 L151.25395604590815 232.15325332713564 L150.80735329665907 232.47856428887286 L150.3581379152797 232.79807139301485 L149.90638151072545 233.1117588951185 L149.45215570028262 233.41961189530355 L148.99553210002784 233.7216163363508 L148.53658231532884 234.0177590016983 L148.07537793139272 234.30802751333374 L147.6119905038586 234.5924103295866 L147.14649154943837 234.87089674281853 L146.67895253660518 235.14347687701405 L146.20944487633088 235.410141685272 L145.7380399128741 235.6708829471985 L145.26480891461978 235.9256932662015 L144.78982306496923 236.17456606669 L144.31315345328548 236.41749559117534 L143.83487106589118 236.65447689727853 L143.355046777122 236.88550585464267 L142.87375134043592 237.11057914175203 L142.3910553795794 237.3296942426581 L141.90702937981177 237.54284944361365 L141.42174367918722 237.7500438296167 L140.93526845989737 237.95127728086322 L140.44767373967386 238.14655046911145 L139.95902936325263 238.33586485395728 L139.46940499389953 238.5192226790225 L138.97887010499977 238.6966269680568 L138.4874939717106 238.8680815209534 L137.99534566267954 239.03359090968058 L137.50249403182656 239.19316047412934 L137.00900771019369 239.34679631787805 L136.51495509786153 239.49450530387526 L136.02040435593312 239.63629505004187 L135.52542339858618 239.77217392479275 L135.03007988519542 239.90215104247983 L134.53444121252423 240.02623625875702 L134.03857450698686 240.1444401658677 L133.5425466169828 240.25677408785677 L133.04642410530246 240.36325007570684 L132.55027324160656 240.4638809024008 L132.05415999497754 240.55868005791126 L131.55815002654657 240.6476617441173 L131.0623086821942 240.7308408696509 L130.56670098532715 240.80823304467273 L130.07139162973047 240.8798545755787 L129.57644497249615 240.94572245963911 L129.08192502703025 241.00585437956994 L128.58789545613553 241.06026869803875 L128.09441956517423 241.1089844521053 L127.60156029530904 241.15202134759792 L127.10938021682318 241.18939975342778 L126.6179415225208 241.2211406958403 L126.12730602120733 241.2472658526065 L125.63753513125111 241.26779754715426 L125.14868987422683 241.2827587426406 L124.66083086863904 241.29217303596704 L124.17401832373048 241.2960646517373 L123.68831203337098 241.2944584361605 L123.20377137003094 241.28737985089919 L122.72045527883775 241.27485496686398 L122.23842227171608 241.25691045795642 L121.75773042161339 241.23357359475995 L121.27843735680933 241.20487223818077 L120.80060025531056 241.17083483303986 L120.32427583933122 241.13149040161684 L119.84952036985935 241.08686853714653 L119.37638964130899 241.03699939727008 L118.90493897625903 240.98191369744094 L118.43522322027874 240.92164270428734 L117.96729673684108 240.85621822893185 L117.50121340232172 240.7856726202696 L117.03702660108735 240.71003875820585 L116.57478922067081 240.62935004685423 L116.11455364703494 240.54364040769667 L115.65637175992426 240.45294427270605 L115.200294928305 240.35729657743258 L114.74637400589512 240.2567327540554 L114.29465932678124 240.15128872439993 L113.84520070112639 240.04100089292234 L113.39804741096597 239.92590613966232 L112.9532482060941 239.80604181316497 L112.51085130003793 239.68144572337317 L112.07090436612306 239.5521561344912 L111.63345453362824 239.418211757821 L111.19854838402966 239.27965174457188 L110.76623194733531 239.1365156786449 L110.33655069850946 238.9888435693931 L109.90954955398763 238.83667584435835 L109.48527286828045 238.68005334198617 L109.06376443066888 238.51901730431933 L108.64506746198934 238.35360936967172 L108.22922461150868 238.18387156528306 L107.81627795388938 238.0098462999557 L107.40626898624565 237.83157635667493 L106.99923862528831 237.6491048852128 L106.59522720456178 237.46247539471847 L106.19427447176896 237.27173174629348 L105.79641958618764 237.07691814555534 L105.40170111617654 236.87807913518947 L105.01015703677083 236.67525958749013 L104.62182472736782 236.46850469689252 L104.23674096950197 236.25785997249565 L103.85494194470994 236.04337123057877 L103.47646323248475 235.82508458711055 L103.10133980831883 235.6030464502531 L102.72960604183729 235.37730351286206 L102.36129569501918 235.14790274498296 L101.99644192050769 234.91489138634515 L101.63507726000964 234.67831693885495 L101.27723364278239 234.43822715908772 L100.92294238420995 234.1946700507815 L100.5722341844664 233.94769385733153 L100.22513912726713 233.69734705428783 L99.88168667870852 233.4436783418566 L99.54190568619308 233.18673663740566 L99.20582437744389 232.92657106797608 L98.87347035960376 232.66323096280007 L98.54487061842235 232.39676584582648 L98.2200515175287 232.12722542825483 L97.89903879778961 231.85465960107868 L97.58185757675415 231.57911842763923 L97.26853234818331 231.3006521361911 L96.9590869816637 231.01931111247876 L96.65354472230734 230.73514589232795 L96.35192819053454 230.44820715424996 L96.05425938194108 230.15854571206148 L95.76055966724886 229.86621250752015 L95.47084979233972 229.57125860297708 L95.18514987837236 229.27373517404735 L94.90347942198072 228.97369350229846 L94.62585729555526 228.67118496795896 L94.35230174760528 228.36626104264727 L94.08283040320264 228.05897328212166 L93.81746026450593 227.74937331905244 L93.55620771136489 227.437512855817 L93.29908850200485 227.123443657319 L93.04611777379064 226.80721754383208 L92.79731004406861 226.48888638386887 L92.55267921108798 226.16850208707658 L92.3122385549997 225.84611659715983 L92.07600073893266 225.52178188483143 L91.84397781014691 225.1955499407914 L91.61618120126356 224.86747276873672 L91.39262173157013 224.53760237840027 L91.1733096084017 224.20599077862164 L90.95825442859666 223.8726899704497 L90.74746518002695 223.53775194027776 L90.54095024320213 223.20122865301278 L90.33871739294632 222.86317204527748 L90.14077380014834 222.52363401864918 L89.94712603358342 222.18266643293276 L89.75778006180693 221.84032109947114 L89.57274125511876 221.4966497744925 L89.39201438759794 221.1517041524949 L89.21560363920773 220.80553585967073 L89.04351259796886 220.45819644736895 L88.87574426220208 220.10973738559827 L88.71230104283862 219.7602100565707 L88.55318476579757 219.40966574828636 L88.39839667443034 219.05815564816015 L88.24793743203105 218.70573083669115 L88.1018071244123 218.35244228117529 L87.96000526254622 217.99834082946234 L87.82253078526864 217.643477203756 L87.68938206204808 217.2879019944612 L87.56055689581649 216.93166565407532 L87.43605252586269 216.5748184911269 L87.31586563078739 216.21741066416084 L87.19999233151852 215.8594921757709 L87.08842819438739 215.50111286668104 L86.98116823426392 215.1423224098747 L86.87820691775055 214.78317030477353 L86.77953816643458 214.423705871466 L86.68515536019771 214.0639782449864 L86.59505134058222 213.7040363696443 L86.50921841421327 213.34392899340554 L86.42764835627621 212.98370466232512 L86.35033241404889 212.6234117150329 L86.27726131048733 212.2630982772708 L86.2084252478647 211.90281225648494 L86.14381391146286 211.54260133647088 L86.08341647331508 211.1825129720724 L86.02722159600026 210.82259438393663 L85.9752174364869 210.46289255332266 L85.92739165002669 210.10345421696732 L85.8837313940967 209.74432586200544 L85.84422333238965 209.38555372094777 L85.80885363885125 209.0271837667151 L85.77760800176415 208.66926170773024 L85.75047162787735 208.31183298306664 L85.72742924658074 207.95494275765597 L85.70846511412378 207.5986359175538 L85.69356301787747 207.24295706526385 L85.68270628063911 206.8879505151215 L85.67587776497889 206.5336602887365 L85.6730598776276 206.18013011049635 L85.67423457390461 205.82740340312813 L85.67938336218548 205.47552328332227 L85.68848730840843 205.12453255741647 L85.70152704061866 204.77447371714047 L85.71848275354998 204.42538893542206 L85.73933421324311 204.07732006225538 L85.76406076169917 203.7303086206297 L85.79264132156857 203.38439580252214 L85.82505440087375 203.03962246495072 L85.86127809776534 202.69602912609142 L85.90129010531075 202.35365596145755 L85.94506771631471 202.01254280014206 L85.9925878281706 201.67272912112327 L86.04382694774215 201.3342540496336 L86.09876119627434 200.99715635359274 L86.15736631433312 200.66147444010377 L86.21961766677286 200.3272463520135 L86.2854902477308 199.99450976453747 L86.35495868564783 199.66330198194848 L86.42799724831477 199.3336599343298 L86.5045798479432 199.0056201743934 L86.58468004626043 198.67921887436208 L86.66827105962716 198.35449182291705 L86.75532576417794 198.0314744222102 L86.84581670098298 197.71020168494115 L86.9397160812305 197.3907082315001 L87.03699579142942 197.07302828717462 L87.13762739863105 196.75719567942338 L87.24158215566919 196.44324383521354 L87.34883100641783 196.13120577842463 L87.45934459106587 195.82111412731751 L87.57309325140773 195.51300109206835 L87.69004703614945 195.20689847236878 L87.81017570622892 194.90283765509145 L87.93344874015052 194.6008496120201 L88.05983533933212 194.30096489764674 L88.18930443346454 194.00321364703296 L88.32182468588256 193.7076255737375 L88.45736449894643 193.4142299678088 L88.59589201943345 193.12305569384327 L88.73737514393838 192.8341311891091 L88.88178152428284 192.54748446173468 L89.02907857293181 192.26314308896295 L89.17923346841718 191.98113421547083 L89.3322131607674 191.70148455175388 L89.48798437694293 191.42422037257495 L89.64651362627554 191.1493675154797 L89.80776720591226 190.87695137937493 L89.97171120626187 190.6069969231736 L90.13831151644453 190.33952866450227 L90.30753382974235 190.07457067847508 L90.4793436490513 189.81214659653102 L90.65370629233337 189.55227960533534 L90.83058689806813 189.2949924457457 L91.00995043070306 189.04030741184152 L91.19176168610198 188.78824635001746 L91.37598529699089 188.5388306581405 L91.5625857384003 188.29208128477003 L91.75152733310365 188.0480187284418 L91.94277425705079 187.80666303701418 L92.13629054479622 187.56803380707754 L92.33204009492094 187.33215018342653 L92.52998667544755 187.09903085859403 L92.73009392924777 186.8686940724479 L92.9323253794418 186.64115761184945 L93.13664443478878 186.41643881037325 L93.34301439506741 186.19455454808903 L93.55139845644682 185.97552125140407 L93.76175971684594 185.75935489296725 L93.97406118128197 185.5460709916328 L94.1882657672057 185.33568461248564 L94.40433630982501 185.12821036692569 L94.62223556741395 184.9236624128126 L94.84192622660838 184.72205445466977 L95.0633709076858 184.5233997439482 L95.286532169831 184.32771107934803 L95.5113725163848 184.13500080719973 L95.73785440007609 183.94528082190337 L95.9659402282368 183.7585625664256 L96.19559236799932 183.57485703285417 L96.42677315147444 183.39417476301017 L96.6594448809108 183.21652584911703 L96.89356983383489 183.04191993452562 L97.12911026816987 182.87036621449647 L97.36602842733416 182.70187343703716 L97.60428654531815 182.5364499037957 L97.84384685173936 182.3741034710082 L98.08467157687427 182.21484155050268 L98.32672295666757 182.05867111075582 L98.56996323771716 181.90559867800465 L98.81435468223526 181.7556303374114 L99.05985957298446 181.60877173428148 L99.30644021818823 181.46502807533466 L99.55405895641593 181.32440413002803 L99.80267816144087 181.18690423193144 L100.05226024707164 181.05253228015408 L100.30276767195613 180.9212917408223 L100.55416294435696 180.7931856486083 L100.80640862689914 180.66821660830857 L101.05946734128798 180.5463867964727 L101.31330177299805 180.42769796308104 L101.5678746759319 180.31215143327162 L101.82314887704825 180.19974810911538 L102.07908728095961 180.0904884714391 L102.33565287449765 179.98437258169668 L102.5928087312477 179.88140008388638 L102.8505180160505 179.78157020651545 L103.10874398947051 179.6848817646108 L103.36745001223238 179.59133316177468 L103.62659954962236 179.50092239228653 L103.88615617585673 179.41364704324837 L104.14608357841469 179.32950429677538 L104.40634556233724 179.24849093222954 L104.66690605449034 179.1706033284965 L104.92772910779223 179.09583746630545 L105.18877890540425 179.02418893059104 L105.45001976488649 178.9556529128967 L105.71141614231489 178.89022421381944 L105.97293263636199 178.82789724549534 L106.23453399233964 178.7686660341249 L106.4961851062043 178.7125242225381 L106.75785102852298 178.6594650727988 L107.01949696840103 178.60948146884743 L107.28108829737124 178.56256591918162 L107.54259055324258 178.5187105595747 L107.80396944390986 178.47790715583113 L108.06519085112313 178.44014710657785 L108.32622083421691 178.40542144609225 L108.58702563379822 178.3737208471651 L108.84757167539429 178.3450356239982 L109.10782557305835 178.31935573513672 L109.36775413293422 178.29667078643496 L109.62732435677911 178.2769700340552 L109.88650344544378 178.26024238749957 L110.14525880231102 178.24647641267364 L110.40355803669077 178.2356603349817 L110.66136896717272 178.227782042453 L110.91865962493586 178.22282908889827 L111.17539825701402 178.22078869709637 L111.43155332951852 178.22164776200998 L111.68709353081664 178.22539285403002 L111.94198777466528 178.23201022224853 L112.19620520330186 178.2414857977588 L112.44971519048947 178.2538051969827 L112.70248734451755 178.26895372502463 L112.95449151115787 178.286916379051 L113.20569777657543 178.30767785169553 L113.45607647019423 178.3312225344889 L113.70559816751673 178.35753452131286 L113.95423369289898 178.38659761187787 L114.20195412227925 178.41839531522388 L114.44873078586053 178.45291085324354 L114.69453527074748 178.4901271642273 L114.93933942353729 178.53002690642995 L115.18311535286337 178.57259246165802 L115.42583543189363 178.61780593887704 L115.66747230078106 178.66564917783887 L115.9079988690691 178.71610375272786 L116.14738831804867 178.7691509758255 L116.38561410306919 178.82477190119312 L116.6226499558026 178.88294732837173 L116.85846988645997 178.943657806099 L117.09304818596115 179.00688363604195 L117.32635942805743 179.07260487654588 L117.55837847140636 179.14080134639778 L117.78908046159991 179.21145262860463 L118.0184408331446 179.28453807418566 L118.24643531139466 179.36003680597756 L118.47303991443762 179.43792772245303 L118.69823095493213 179.51818950155126 L118.92198504189864 179.6008006045201 L119.1442790824622 179.68573927976934 L119.36509028354791 179.77298356673467 L119.58439615352877 179.86251129975153 L119.80217450382578 179.95430011193832 L120.0184034504608 180.0483274390887 L120.2330614155614 180.14457052357173 L120.44612712881894 180.24300641824053 L120.65757962889802 180.34361199034728 L120.86739826479953 180.4463639254656 L121.07556269717573 180.5512387314184 L121.28205289959814 180.658212742212 L121.48684915977744 180.76726212197434 L121.68993208073728 180.87836286889853 L121.89128258193993 180.9914908191898 L122.09088190036488 181.10662165101587 L122.2887115915405 181.22373088846027 L122.48475353052909 181.34279390547795 L122.67898991286411 181.46378592985255 L122.87140325544121 181.58668204715485 L123.06197639736267 181.71145720470224 L123.2506925007346 181.83808621551788 L123.43753505141804 181.9665437622899 L123.62248785973341 182.0968044013293 L123.80553506111923 182.22884256652713 L123.98666111674369 182.36263257330882 L124.1658508140712 182.49814862258685 L124.34308926738233 182.63536480471012 L124.51836191824822 182.77425510340976 L124.69165453595969 182.91479339974137 L124.86295321791025 183.0569534760222 L125.03224438993449 183.20070901976393 L125.19951480660077 183.3460336275996 L125.36475155145926 183.49290080920468 L125.52794203724527 183.64128399121165 L125.68907400603752 183.79115652111767 L125.8481355293725 183.94249167118477 L126.00511500831423 184.09526264233213 L126.16000117348011 184.24944256801984 L126.31278308502299 184.4050045181241 L126.46345013256929 184.56192150280245 L126.61199203511428 184.7201664763501 L126.75839884087327 184.87971234104484 L126.90266092709055 185.04053195098214 L127.04476899980544 185.20259811589875 L127.1847140935752 185.36588360498408 L127.32248757115639 185.53036115068045 L127.45808112314353 185.69600345246988 L127.59148676756652 185.86278318064842 L127.72269684944564 186.03067298008665 L127.85170404030599 186.19964547397655 L127.97850133765057 186.36967326756402 L128.10308206439228 186.54072895186653 L128.22543986824547 186.71278510737517 L128.34556872107754 186.88581430774244 L128.46346291822007 187.05978912345228 L128.57911707774022 187.23468212547496 L128.6925261396728 187.41046588890438 L128.80368536521337 187.58711299657875 L128.91259033587184 187.76459604268297 L129.01923695258776 187.94288763633313 L129.12362143480766 188.12196040514323 L129.2257403195236 188.30178699877206 L129.32559046027464 188.4823400924514 L129.42316902611046 188.66359239049467 L129.51847350051833 188.8455166297855 L129.61150168031267 189.0280855832458 L129.70225167448876 189.21127206328347 L129.79072190303987 189.39504892521862 L129.87691109573865 189.57938907068876 L129.9608182908831 189.76426545103195 L130.04244283400735 189.94965107064786 L130.12178437655743 190.13551899033652 L130.19884287453272 190.32184233061386 L130.273618587093 190.5085942750046 L130.34611207513214 190.69574807331142 L130.41632419981755 190.88327704486 L130.4842561210972 191.07115458172063 L130.5499092961735 191.25935415190494 L130.61328547794466 191.44784930253746 L130.67438671341435 191.63661366300317 L130.73321534206931 191.82562094806886 L130.78977399422556 192.0148449609789 L130.84406558934387 192.2042595965254 L130.8960933343144 192.39383884409176 L130.94586072171128 192.5835567906702 L130.99337152801698 192.77338762385153 L131.03862981181743 192.96330563478904 L131.0816399119679 193.15328522113424 L131.12240644573006 193.343300889945 L131.16093430688082 193.5333272605661 L131.1972286637929 193.72333906748182 L131.23129495748805 193.91331116313947 L131.2631388996628 194.10321852074512 L131.29276647068755 194.2930362370295 L131.32018391757902 194.48273953498608 L131.34539775194685 194.6723037665786 L131.3684147479142 194.86170441541958 L131.38924194001336 195.05091709941937 L131.40788662105643 195.23991757340454 L131.42435633998122 195.42868173170655 L131.4386588996735 195.61718561071993 L131.45080235476507 195.80540539142967 L131.46079500940914 195.9933174019082 L131.46864541503197 196.1808981197809 L131.474362368063 196.36812417466075 L131.4779549076421 196.5549723505518 L131.47943231330555 196.74141958822048 L131.47880410265063 196.92744298753598 L131.47608002897937 197.11301980977825 L131.47127007892178 197.29812747991406 L131.4643844700392 197.4827435888412 L131.45543364840768 197.66684589559986 L131.44442828618267 197.85041232955206 L131.43137927914427 198.0334209925279 L131.4162977442245 198.21585016093988 L131.39919501701655 198.39767828786322 L131.38008264926623 198.57888400508418 L131.3589724063464 198.75944612511495 L131.33587626471478 198.93934364317514 L131.31080640935514 199.1185557391397 L131.28377523120272 199.29706177945434 L131.25479532455427 199.47484131901635 L131.22387948446269 199.65187410302227 L131.19104070411734 199.8281400687816 L131.15629217220985 200.0036193474974 L131.11964727028607 200.1782922660117 L131.0811195700848 200.35213934851805 L131.0407228308634 200.5251413182396 L130.99847099671058 200.69727909907306 L130.9543781938474 200.8685338171984 L130.90845872791624 201.0388868026544 L130.86072708125843 201.20831959088028 L130.81119791018102 201.3768139242221 L130.75988604221288 201.5443517534058 L130.70680647335092 201.7109152389751 L130.6519743652963 201.87648675269523 L130.59540504268156 202.04104887892225 L130.53711399028884 202.20458441593766 L130.47711685025953 202.36707637724882 L130.4154294192959 202.52850799285434 L130.35206764585504 202.6888627104754 L130.2870476273357 202.84812419675248 L130.22038560725807 203.00627633840702 L130.15209797243725 203.16330324336934 L130.08220125015066 203.31918924187138 L130.01071210529977 203.47391888750516 L129.93764733756683 203.62747695824692 L129.86302387856625 203.77984845744626 L129.78685878899225 203.9310186147817 L129.70916925576188 204.08097288718065 L129.6299725891548 204.22969695970608 L129.54928621994958 204.3771767464084 L129.46712769655733 204.52339839114273 L129.3835146821528 204.66834826835247 L129.29846495180345 204.81201298381842 L129.21199638959678 204.95437937537386 L129.12412698576657 205.09543451358505 L129.03487483381807 205.23516570239872 L128.94425812765257 205.37356047975476 L128.85229515869239 205.5106066181652 L128.75900431300542 205.64629212525966 L128.66440406843077 205.78060524429713 L128.56851299170535 205.9135344546436 L128.47134973559173 206.045068472217 L128.372933036008 206.17519624989757 L128.27328170915948 206.30390697790637 L128.1724146486732 206.4311900841491 L128.0703508227352 206.55703523452775 L127.96710927123098 206.681432333219 L127.86270910288964 206.80437152291944 L127.75716949243213 206.9258431850584 L127.65050967772353 207.04583793997793 L127.5427489569304 207.16434664708018 L127.4339066856828 207.28136040494275 L127.32400227424208 207.39687055140112 L127.21305518467419 207.51086866359964 L127.10108492802918 207.62334655801007 L126.9881110615271 207.73429629041843 L126.87415318575079 207.84371015588036 L126.7592309418457 207.95158068864436 L126.64336400872733 208.0579006620443 L126.5265721002963 208.16266308836035 L126.40887496266178 208.26586121864872 L126.29029237137304 208.36748854254105 L126.17084412866038 208.46753878801223 L126.0505500606845 208.5660059211185 L125.92943001479607 208.66288414570442 L125.80750385680439 208.75816790308033 L125.68479146825646 208.85185187166923 L125.56131274372657 208.94393096662412 L125.43708758811647 209.03440033941538 L125.31213591396649 209.12325537738917 L125.18647763877803 209.21049170329616 L125.06013268234791 209.29610517479122 L124.93312096411441 209.3800918839044 L124.80546240051551 209.4624481564833 L124.67717690235989 209.54317055160652 L124.54828437221076 209.62225586096935 L124.41880470178234 209.69970110824124 L124.28875776935024 209.7755035483955 L124.15816343717543 209.8496606670111 L124.0270415489421 209.92217017954735 L123.89541192720935 209.9930300305915 L123.76329437087827 210.0622383930791 L123.63070865267301 210.12979366748772 L123.49767451663713 210.19569448100444 L123.36421167564548 210.2599396866666 L123.2303398089313 210.32252836247702 L123.09607855962945 210.38345981049306 L122.9614475323353 210.44273355589038 L122.82646629068051 210.5003493460012 L122.69115435492489 210.55630714932767 L122.5555311995653 210.61060715453021 L122.41961625096157 210.6632497693916 L122.28342888497963 210.71423561975638 L122.14698842465239 210.7635655484465 L122.01031413785809 210.8112406141529 L121.87342523501681 210.8572620903037 L121.73634086680516 210.9016314639091 L121.59908012188923 210.94435043438313 L121.46166202467653 210.98542091234273 L121.32410553308644 211.02484501838418 L121.18642953633974 211.06262508183755 L121.04865285276793 211.09876363949874 L120.910794227641 211.1332634343404 L120.77287233101607 211.16612741420073 L120.63490575560479 211.19735873045187 L120.49691301466177 211.22696073664653 L120.35891253989249 211.2549369871449 L120.22092267938189 211.2812912357205 L120.08296169554376 211.30602743414644 L119.94504776309098 211.32914973076157 L119.80719896702595 211.35066246901744 L119.66943330065324 211.37057018600572 L119.53176866361275 211.38887761096697 L119.3942228599346 211.40558966378063 L119.25681359611573 211.42071145343652 L119.11955847921809 211.43424827648857 L118.982475014989 211.4462056154905 L118.84558060600314 211.45658913741414 L118.70889254982724 211.46540469205047 L118.57242803720702 211.47265831039374 L118.43620415027647 211.47835620300904 L118.30023786078979 211.48250475838353 L118.16454602837635 211.4851105412614 L118.02914539881807 211.48618029096363 L117.89405260235041 211.48572091969154 L117.75928415198604 211.48373951081598 L117.62485644186188 211.48024331715095 L117.49078574560968 211.47523975921328 L117.35708821474971 211.46873642346756 L117.22377987710848 211.4607410605575 L117.09087663525985 211.45126158352318 L116.9583942649899 211.44030606600552 L116.82634841378592 211.42788274043707 L116.694754599349 211.41399999622053 L116.56362820813091 211.39866637789453 L116.43298449389543 211.3818905832873 L116.30283857630313 211.36368146165844 L116.17320543952093 211.34404801182944 L116.04409993085616 211.32299938030243 L115.91553675941474 211.30054485936827 L115.78753049478394 211.27669388520405 L115.66009556573968 211.25145603596005 L115.53324625897883 211.2248410298367 L115.40699671787543 211.19685872315196 L115.28136094126232 211.16751910839878 L115.15635278223729 211.1368323122941 L115.03198594699418 211.10480859381838 L114.90827399367835 211.0714583422469 L114.78523033126784 211.0367920751727 L114.6628682184787 211.00082043652174 L114.5412007626961 210.96355419456003 L114.42024091892941 210.925004239894 L114.30000148879327 210.88518158346315 L114.18049511951317 210.84409735452653 L114.06173430295604 210.80176279864233 L113.94373137468631 210.75818927564166 L113.82649851304666 210.7133882575962 L113.71004773826401 210.6673713267805 L113.59439091158065 210.6201501736289 L113.4795397344102 210.57173659468737 L113.36550574751911 210.52214249056098 L113.25230033023281 210.4713798638567 L113.13993469966712 210.41946081712229 L113.02841990998473 210.36639755078127 L112.9177668516765 210.3122023610645 L112.80798625086825 210.25688763793843 L112.69908866865201 210.20046586303056 L112.59108450044258 210.14294960755208 L112.48398397535892 210.08435153021838 L112.37779715563038 210.02468437516728 L112.27253393602804 209.96396096987573 L112.16820404332053 209.9021942230747 L112.06481703575506 209.83939712266326 L111.96238230256282 209.77558273362138 L111.8609090634892 209.71076419592222 L111.76040636834873 209.64495472244408 L111.66088309660478 209.5781675968823 L111.56234795697331 209.51041617166135 L111.46480948705143 209.44171386584702 L111.36827605297043 209.37207416306012 L111.27275584907302 209.30151060939048 L111.17825689761477 209.23003681131246 L111.08478704849 209.15766643360223 L110.99235397898167 209.0844131972567 L110.90096519353513 209.0102908774145 L110.81062802355619 208.93531330127922 L110.72134962723293 208.85949434604586 L110.63313698938133 208.78284793682943 L110.5459969213144 208.70538804459702 L110.45993606073536 208.6271286841035 L110.37496087165398 208.54808391183053 L110.2910776443265 208.4682678239296 L110.20829249521896 208.38769455416946 L110.12661136699356 208.3063782718877 L110.04604002851835 208.22433317994717 L109.96658407489974 208.14157351269733 L109.88824892753814 208.05811353394074 L109.81103983420624 207.973967534905 L109.73496186914994 207.88914983222037 L109.66001993321208 207.8036747659033 L109.5862187539782 207.71755669734617 L109.5135628859451 207.63081000731322 L109.44205671071128 207.5434490939435 L109.37170443718948 207.45548837076026 L109.3025101018413 207.36694226468774 L109.23447756893343 207.2778252140751 L109.16761053081575 207.18815166672812 L109.10191250822093 207.0979360779484 L109.03738685058514 207.00719290858078 L108.97403673639056 206.91593662306914 L108.91186517352844 206.82418168752008 L108.85087499968357 206.73194256777597 L108.79106888273918 206.63923372749628 L108.73244932120302 206.5460696262486 L108.67501864465336 206.45246471760836 L108.61877901420581 206.35843344726857 L108.56373242300012 206.2639902511589 L108.50988069670728 206.16914955357518 L108.4572254940561 206.07392576531836 L108.40576830737997 205.97833328184447 L108.35551046318292 205.88238648142473 L108.30645312272509 205.78609972331637 L108.25859728262763 205.6894873459447 L108.21194377549648 205.5925636650959 L108.16649327056516 205.49534297212148 L108.12224627435612 205.3978395321538 L108.0792031313609 205.30006758233364 L108.03736402473848 205.20204133004958 L107.99672897703192 205.10377495118917 L107.95729785090293 205.00528258840254 L107.91907034988444 204.9065783493783 L107.88204601915055 204.80767630513202 L107.84622424630436 204.7085904883075 L107.81160426218275 204.60933489149073 L107.7781851416784 204.5099234655372 L107.74596580457872 204.41037011791218 L107.71494501642151 204.31068871104446 L107.68512138936715 204.2108930606937 L107.65649338308721 204.11099693433147 L107.62905930566902 204.0110140495359 L107.60281731453645 203.91095807240072 L107.57776541738625 203.810842615958 L107.55390147314004 203.71068123861545 L107.5312231929118 203.61048744260833 L107.50972814099026 203.51027467246536 L107.48941373583644 203.41005631348975 L107.47027725109592 203.30984569025506 L107.45231581662577 203.20965606511587 L107.43552641953563 203.10950063673363 L107.41990590524317 203.00939253861762 L107.40545097854339 202.9093448376816 L107.39215820469163 202.80937053281534 L107.38002401050028 202.70948255347227 L107.36904468544873 202.6096937582727 L107.35921638280637 202.5100169336227 L107.35053512076863 202.41046479234882 L107.3429967836057 202.31104997234937 L107.33659712282372 202.2117850352612 L107.33133175833824 202.1126824651431 L107.3271961796598 202.0137546671755 L107.32418574709135 201.9150139663765 L107.32229569293732 201.8164726063345 L107.32152112272404 201.71814274795736 L107.32185701643158 201.62003646823857 L107.32329822973642 201.5221657590398 L107.32583949526489 201.4245425258907 L107.32947542385735 201.32717858680547 L107.33420050584252 201.23008567111646 L107.34000911232215 201.13327541832504 L107.34689549646548 201.0367593769696 L107.35485379481341 200.94054900351077 L107.36387802859224 200.84465566123404 L107.37396210503655 200.74909061916975 L107.38509981872129 200.65386505103052 L107.39728485290257 200.55899003416638 L107.41051078086714 200.4644765485372 L107.42477106729021 200.370335475703 L107.44005906960149 200.27657759783182 L107.4563680393592 200.18321359672552 L107.47369112363175 200.09025405286295 L107.492021366387 199.99770944446163 L107.5113517098888 199.90559014655668 L107.53167499610068 199.81390643009792 L107.55298396809621 199.72266846106496 L107.57527127147628 199.63188629960038 L107.59852945579253 199.5415698991607 L107.62275097597725 199.4517291056854 L107.64792819377902 199.3623736567843 L107.67405337920434 199.27351318094296 L107.70111871196464 199.1851571967458 L107.72911628292877 199.09731511211803 L107.75803809558047 199.00999622358543 L107.78787606748088 198.923209715552 L107.81862203173563 198.8369646595963 L107.85026773846644 198.75127001378587 L107.88280485628701 198.66613462200976 L107.91622497378286 198.58156721332918 L107.95051960099508 198.49757640134663 L107.9856801709076 198.41417068359314 L108.02169804093803 198.33135844093346 L108.05856449443141 198.2491479369901 L108.09627074215717 198.16754731758493 L108.13480792380872 198.08656461019922 L108.17416710950566 198.00620772345198 L108.21433930129822 197.92648444659625 L108.25531543467397 197.84740244903378 L108.29708638006623 197.76896927984765 L108.33964294436448 197.69119236735307 L108.38297587242599 197.6140790186662 L108.42707584858887 197.53763641929123 L108.47193349818619 197.46187163272532 L108.51753938906099 197.38679160008152 L108.56388403308189 197.3124031397299 L108.61095788765931 197.23871294695616 L108.65875135726176 197.16572759363874 L108.70725479493234 197.09345352794332 L108.75645850380509 197.02189707403528 L108.80635273862083 196.95106443181007 L108.85692770724278 196.880961676641 L108.90817357217111 196.81159475914515 L108.96008045205679 196.7429695049664 L109.01263842321409 196.67509161457656 L109.065837521132 196.6079666630936 L109.11966774198397 196.54160010011753 L109.17411904413596 196.47599724958368 L109.2291813496525 196.41116330963354 L109.28484454580092 196.34710335250224 L109.34109848655292 196.2838223244241 L109.39793299408396 196.22132504555475 L109.45533786026988 196.15961620991038 L109.51330284818056 196.09870038532443 L109.57181769357078 196.03858201342067 L109.63087210636756 195.97926540960358 L109.69045577215444 195.92075476306525 L109.75055835365187 195.86305413680907 L109.81116949219398 195.8061674676903 L109.87227880920139 195.7500985664727 L109.9338759076499 195.69485111790215 L109.99595037353485 195.6404286807963 L110.05849177733111 195.58683468815056 L110.12148967544823 195.53407244726054 L110.18493361168098 195.48214513986045 L110.24881311865477 195.4310558222773 L110.31311771926596 195.3808074256015 L110.37783692811692 195.3314027558729 L110.44296025294543 195.28284449428276 L110.5084771960485 195.23513519739134 L110.57437725570054 195.18827729736105 L110.64064992756522 195.14227310220488 L110.70728470610158 195.09712479605034 L110.77427108596348 195.05283443941852 L110.84159856339275 195.00940396951844 L110.90925663760586 194.96683520055618 L110.97723481217368 194.925129824059 L111.04552259639425 194.88428940921443 L111.11410950665866 194.84431540322362 L111.18298506780968 194.80520913166984 L111.25213881449292 194.7669717989007 L111.32156029250055 194.72960448842557 L111.39123906010747 194.6931081633263 L111.46116468939951 194.65748366668277 L111.53132676759384 194.62273172201202 L111.60171489835112 194.58885293372137 L111.67231870307975 194.55584778757503 L111.7431278222315 194.5237166511748 L111.81413191658875 194.49245977445372 L111.88532066854313 194.46207729018343 L111.95668378336553 194.4325692144945 L112.02821099046695 194.40393544741 L112.09989204465063 194.37617577339202 L112.17171672735506 194.34928986190093 L112.24367484788748 194.32327726796743 L112.31575624464828 194.29813743277703 L112.38795078634588 194.2738696842671 L112.46024837320182 194.25047323773623 L112.53263893814643 194.22794719646538 L112.6051124480044 194.20629055235153 L112.67765890467054 194.18550218655295 L112.75026834627546 194.16558087014621 L112.82293084834113 194.14652526479475 L112.89563652492613 194.128333923429 L112.96837552976046 194.11100529093775 L113.04113805737002 194.09453770487073 L113.1139143441904 194.07892939615212 L113.18669466967003 194.0641784898049 L113.2594693573626 194.05028300568617 L113.3322287760085 194.03724085923275 L113.40496334060545 194.02504986221746 L113.47766351346783 194.0137077235154 L113.55031980527518 194.00321204988074 L113.62292277610932 193.99356034673315 L113.69546303648005 193.98475001895417 L113.76793124833951 193.97677837169343 L113.8403181260852 193.9696426111842 L113.9126144375513 193.96333984556838 L113.98481100498829 193.9578670857307 L114.05689870603106 193.9532212461421 L114.12886847465487 193.94939914571194 L114.2007113021199 193.9463975086489 L114.27241823790347 193.94421296533068 L114.34398039062052 193.942842053182 L114.41538892893185 193.94228121756106 L114.48663508244023 193.9425268126539 L114.55771014257442 193.94357510237703 L114.62860546346083 193.94542226128772 L114.6993124627829 193.94806437550193 L114.76982262262803 193.95149744362004 L114.84012749032229 193.9557173776595 L114.91021867925224 193.96072000399516 L114.98008786967465 193.96650106430624 L115.04972680951327 193.97305621653047 L115.11912731514334 193.9803810358248 L115.18828127216287 193.98847101553275 L115.25718063615182 193.9973215681582 L115.32581743341802 194.00692802634546 L115.39418376173049 194.01728564386514 L115.46227179103997 194.02838959660644 L115.53007376418631 194.04023498357486 L115.59758199759332 194.05281682789567 L115.66478888195012 194.06613007782283 L115.73168688288018 194.0801696077531 L115.79826854159684 194.09493021924558 L115.86452647554586 194.1104066420458 L115.9304533790351 194.12659353511512 L115.99604202385099 194.14348548766438 L116.06128525986185 194.16107702019227 L116.12617601560812 194.1793625855281 L116.19070729887949 194.19833656987862 L116.25487219727874 194.21799329387883 L116.31866387877255 194.23832701364694 L116.38207559222896 194.25933192184274 L116.44510066794177 194.2810021487297 L116.5077325181417 194.3033317632405 L116.56996463749412 194.32631477404556 L116.6317906035839 194.349945130625 L116.69320407738672 194.37421672434337 L116.75419880372748 194.399123389527 L116.81476861172509 194.42465890454432 L116.87490741522427 194.45081699288826 L116.93460921321419 194.47759132426137 L116.99386809023359 194.50497551566264 L117.05267821676307 194.5329631324767 L117.11103384960384 194.56154768956478 L117.1689293322435 194.5907226523571 L117.22635909520848 194.6204814379472 L117.28331765640345 194.65081741618744 L117.33979962143748 194.68172391078568 L117.39579968393707 194.71319420040322 L117.45131262584621 194.7452215197536 L117.50633331771294 194.7777990607021 L117.56085671896342 194.810919973366 L117.61487787816253 194.84457736721524 L117.66839193326149 194.87876431217362 L117.72139411183264 194.91347383971976 L117.77387973129107 194.94869894398863 L117.82584419910353 194.98443258287253 L117.87728301298414 195.02066767912214 L117.92819176107749 195.05739712144705 L117.97856612212875 195.09461376561563 L118.02840186564107 195.1323104355545 L118.07769485202006 195.1704799244469 L118.12644103270577 195.20911499583033 L118.17463645029174 195.2482083846929 L118.22227723863169 195.28775279856848 L118.26935962293322 195.32774091863052 L118.31587991983938 195.36816540078436 L118.36183453749742 195.40901887675773 L118.4072199756153 195.45029395518966 L118.45203282550563 195.49198322271724 L118.49626977011722 195.53407924506047 L118.53992758405462 195.57657456810486 L118.58300313358501 195.61946171898157 L118.62549337663322 195.66273320714532 L118.66739536276437 195.70638152544947 L118.70870623315466 195.75039915121852 L118.7494232205499 195.79477854731758 L118.78954364921228 195.83951216321904 L118.82906493485504 195.884592436066 L118.86798458456563 195.93001179173243 L118.90630019671661 195.9757626458801 L118.94400946086533 196.0218374050118 L118.9811101576417 196.06822846752115 L119.01760015862442 196.11492822473855 L119.05347742620582 196.1619290619732 L119.08874001344506 196.20922335955132 L119.1233860639103 196.25680349385019 L119.15741381150913 196.30466183832766 L119.19082158030834 196.35279076454802 L119.22360778434202 196.40118264320267 L119.25577092740902 196.44982984512663 L119.28730960285911 196.49872474231023 L119.3182224933685 196.54785970890612 L119.34850837070437 196.59722712223123 L119.37816609547868 196.6468193637637 L119.40719461689142 196.69662882013495 L119.43559297246318 196.74664788411593 " stroke = "blue" stroke-width = "4" fill = "none" /></svg>