<svg width="400" height="400" viewbox = "0 0 400 400"  xmlns="http://www.w3.org/2000/svg">
	<path d = "M0 244 L1 244.69199290189405 L2 245.2714301234926 L3 245.85086734509107 L4 246.4303045666896 L5 247.00974178828815 L6 247.58917900988666 L7 248.16861623148517 L8 248.7480534530837 L9 249.32749067468222 L10 249.90692789628073 L11 250.48636511787927 L12 251.0658023394778 L13 251.64523956107632 L14 252.22467678267483 L15 252.80411400427337 L16 253.38355122587188 L17 253.9629884474704 L18 254.54242566906893 L19 255.12186289066744 L20 255.70130011226595 L21 256.2807373338645 L22 256.860174555463 L23 257.43961177706154 L24 258.0190489986601 L25 258.59848622025856 L26 259.1779234418571 L27 259.75736066345564 L28 260.3367978850541 L29 260.9162351066527 L30 261.4956723282512 L31 262.0751095498497 L32 262.6545467714483 L33 263.23398399304676 L34 263.81342121464525 L35 264.39285843624384 L36 264.9722956578423 L37 265.5517328794408 L38 266.1311701010394 L39 266.7106073226379 L40 267.2900445442364 L41 267.86948176583496 L42 268.44891898743344 L43 269.028356209032 L44 269.6077934306305 L45 270.187230652229 L46 270.7666678738276 L47 271.3461050954261 L48 271.92554231702456 L49 272.50497953862316 L50 273.08441676022164 L51 273.6638539818201 L52 274.2432912034187 L53 274.8227284250172 L54 275.40216564661574 L55 275.9816028682143 L56 276.56104008981276 L57 277.14047731141125 L58 277.71991453300984 L59 278.2993517546083 L60 278.87878897620686 L61 279.4582261978054 L62 280.0376634194039 L63 280.6171006410024 L64 281.19653786260096 L65 281.77597508419944 L66 282.35541230579804 L67 282.9348495273965 L68 283.514286748995 L69 284.0937239705936 L70 284.6731611921921 L71 285.25259841379057 L72 285.83203563538916 L73 286.41147285698764 L74 286.9909100785861 L75 287.5703473001847 L76 288.1497845217832 L77 288.7292217433817 L78 289.30865896498017 L79 289.8880961865787 L80 290.4675334081772 L81 291.0469706297757 L82 291.62640785137415 L83 292.20584507297264 L84 292.78528229457106 L85 293.3647195161695 L86 293.94415673776786 L87 294.52359395936617 L88 295.1030311809644 L89 295.6824684025626 L90 296.2619056241607 L91 296.8413428457586 L92 297.4207800673563 L93 298.0002172889538 L94 298.579654510551 L95 299.15909173214766 L96 299.73852895374375 L97 300.31796617533905 L98 300.8974033969333 L99 301.47684061852624 L100 302.05627784011733 L101 302.6357150617061 L102 303.2151522832917 L103 303.794589504873 L104 304.3740267264489 L105 304.95346394801743 L106 305.5329011695764 L107 306.11233839112265 L108 306.69177561265207 L109 307.2712128341593 L110 307.8506500556373 L111 308.4300872770766 L112 309.0095244984648 L113 309.58896171978574 L114 310.1683989410178 L115 310.74783616213256 L116 311.32727338309263 L117 311.9067106038487 L118 312.4861478243357 L119 313.0655850444681 L120 313.64502226413276 L121 314.22445948318114 L122 314.8038967014174 L123 315.3833339185836 L124 315.9627711343404 L125 316.54220834824093 L126 317.1216455596974 L127 317.70108276793644 L128 318.28051997194103 L129 318.8599571703737 L130 319.4393943614766 L131 320.0188315429395 L132 320.59826871172714 L133 321.17770586385296 L134 321.7571429940826 L135 322.336580095545 L136 322.9160171592241 L137 323.49545417329256 L138 324.07489112224096 L139 324.6543279857383 L140 325.23376473714336 L141 325.813201341559 L142 326.39263775329255 L143 326.97207391254057 L144 327.5515097410653 L145 328.13094513655847 L146 328.710379965299 L147 329.28981405259384 L148 329.8692471703418 L149 330.44867902086617 L150 331.0281092159123 L151 331.60753724938616 L152 332.1869624620004 L153 332.7663839954653 L154 333.3458007331922 L155 333.92521122361586 L156 334.50461358115103 L157 335.0840053584092 L158 335.6633833815438 L159 336.2427435383713 L160 336.8220805061202 L161 337.401387402154 L162 337.98065533663697 L163 338.5598728406658 L164 339.139025136661 L165 339.7180932095392 L166 340.29705262709047 L167 340.87587204577125 L168 341.45451132348063 L169 342.03291914355583 L170 342.611030033991 L171 343.18876064270614 L172 343.7660051037528 L173 344.3426293012227 L174 344.9184638084903 L175 345.49329525226966 L176 346.0668558269821 L177 346.6388106698427 L178 347.20874280760745 L179 347.7761354112404 L180 348.3403511567834 L181 348.9006086042115 L182 349.45595568823734 L183 350.00524068427615 L184 350.5470813861281 L185 351.0798337208348 L186 351.6015616301651 L187 352.11001074648925 L188 352.6025891324716 L189 353.0763590485287 L190 353.5280442236366 L191 353.95405725593713 L192 354.35055135713594 L193 354.71349948845335 L194 355.0388018940313 L195 355.32242013602155 L196 355.56053219105786 L197 355.7496994295024 L198 355.88703301690884 L199 355.9703451927582 L200 355.9982706473128 L201 355.9703451927582 L202 355.88703301690884 L203 355.7496994295024 L204 355.56053219105786 L205 355.32242013602155 L206 355.0388018940313 L207 354.71349948845335 L208 354.35055135713594 L209 353.95405725593713 L210 353.5280442236366 L211 353.0763590485287 L212 352.6025891324716 L213 352.11001074648925 L214 351.6015616301651 L215 351.0798337208348 L216 350.5470813861281 L217 350.00524068427615 L218 349.45595568823734 L219 348.9006086042116 L220 348.3403511567834 L221 347.7761354112404 L222 347.20874280760745 L223 346.6388106698427 L224 346.0668558269821 L225 345.49329525226966 L226 344.9184638084903 L227 344.3426293012227 L228 343.7660051037528 L229 343.18876064270614 L230 342.611030033991 L231 342.03291914355583 L232 341.45451132348063 L233 340.87587204577125 L234 340.29705262709047 L235 339.7180932095392 L236 339.139025136661 L237 338.5598728406658 L238 337.98065533663697 L239 337.401387402154 L240 336.8220805061202 L241 336.2427435383713 L242 335.6633833815438 L243 335.0840053584092 L244 334.50461358115103 L245 333.92521122361586 L246 333.3458007331922 L247 332.7663839954653 L248 332.1869624620004 L249 331.60753724938616 L250 331.0281092159123 L251 330.44867902086617 L252 329.8692471703418 L253 329.2898140525938 L254 328.710379965299 L255 328.13094513655847 L256 327.5515097410653 L257 326.97207391254057 L258 326.39263775329255 L259 325.813201341559 L260 325.23376473714336 L261 324.6543279857383 L262 324.07489112224096 L263 323.49545417329256 L264 322.9160171592241 L265 322.336580095545 L266 321.7571429940826 L267 321.17770586385296 L268 320.59826871172714 L269 320.01883154293955 L270 319.4393943614766 L271 318.8599571703737 L272 318.28051997194103 L273 317.7010827679365 L274 317.1216455596974 L275 316.54220834824093 L276 315.9627711343404 L277 315.3833339185836 L278 314.8038967014174 L279 314.22445948318114 L280 313.64502226413276 L281 313.0655850444681 L282 312.4861478243357 L283 311.9067106038487 L284 311.32727338309263 L285 310.74783616213256 L286 310.1683989410178 L287 309.58896171978574 L288 309.0095244984648 L289 308.4300872770766 L290 307.8506500556373 L291 307.2712128341593 L292 306.69177561265207 L293 306.11233839112265 L294 305.5329011695764 L295 304.95346394801743 L296 304.3740267264489 L297 303.794589504873 L298 303.2151522832917 L299 302.6357150617061 L300 302.05627784011733 L301 301.47684061852624 L302 300.8974033969333 L303 300.31796617533905 L304 299.73852895374375 L305 299.15909173214766 L306 298.579654510551 L307 298.0002172889538 L308 297.4207800673563 L309 296.8413428457586 L310 296.2619056241607 L311 295.6824684025626 L312 295.1030311809644 L313 294.52359395936617 L314 293.94415673776786 L315 293.3647195161695 L316 292.78528229457106 L317 292.2058450729726 L318 291.62640785137415 L319 291.0469706297757 L320 290.4675334081772 L321 289.8880961865787 L322 289.30865896498017 L323 288.7292217433817 L324 288.1497845217832 L325 287.5703473001847 L326 286.9909100785861 L327 286.41147285698764 L328 285.83203563538916 L329 285.25259841379057 L330 284.6731611921921 L331 284.0937239705936 L332 283.514286748995 L333 282.9348495273965 L334 282.35541230579804 L335 281.77597508419944 L336 281.19653786260096 L337 280.6171006410024 L338 280.0376634194039 L339 279.4582261978054 L340 278.87878897620686 L341 278.2993517546083 L342 277.71991453300984 L343 277.14047731141125 L344 276.56104008981276 L345 275.9816028682143 L346 275.40216564661574 L347 274.8227284250172 L348 274.2432912034187 L349 273.6638539818201 L350 273.08441676022164 L351 272.50497953862316 L352 271.92554231702456 L353 271.3461050954261 L354 270.7666678738276 L355 270.187230652229 L356 269.6077934306305 L357 269.028356209032 L358 268.44891898743344 L359 267.86948176583496 L360 267.2900445442364 L361 266.7106073226379 L362 266.1311701010394 L363 265.5517328794408 L364 264.9722956578423 L365 264.39285843624384 L366 263.81342121464525 L367 263.23398399304676 L368 262.6545467714483 L369 262.0751095498497 L370 261.4956723282512 L371 260.9162351066527 L372 260.3367978850541 L373 259.75736066345564 L374 259.1779234418571 L375 258.59848622025856 L376 258.0190489986601 L377 257.43961177706154 L378 256.860174555463 L379 256.2807373338645 L380 255.70130011226595 L381 255.12186289066744 L382 254.54242566906893 L383 253.9629884474704 L384 253.38355122587188 L385 252.80411400427337 L386 252.22467678267483 L387 251.64523956107632 L388 251.0658023394778 L389 250.48636511787927 L390 249.90692789628073 L391 249.32749067468222 L392 248.7480534530837 L393 248.16861623148517 L394 247.58917900988666 L395 247.00974178828815 L396 246.4303045666896 L397 245.85086734509107 L398 245.2714301234926 L399 244.69199290189405 " stroke = "black" stroke-width = "2" fill = "none" /></svg>