<svg width="400" height="400" viewbox = "0 0 400 400"  xmlns="http://www.w3.org/2000/svg">
	<path d = "M0 274 L1 274.691992901894 L2 275.27143012349256 L3 275.85086734509105 L4 276.4303045666896 L5 277.0097417882881 L6 277.58917900988666 L7 278.1686162314852 L8 278.7480534530837 L9 279.3274906746822 L10 279.90692789628076 L11 280.48636511787925 L12 281.0658023394778 L13 281.6452395610763 L14 282.2246767826748 L15 282.80411400427334 L16 283.3835512258719 L17 283.96298844747037 L18 284.5424256690689 L19 285.12186289066744 L20 285.701300112266 L21 286.2807373338645 L22 286.860174555463 L23 287.43961177706154 L24 288.01904899866 L25 288.59848622025856 L26 289.1779234418571 L27 289.75736066345564 L28 290.3367978850541 L29 290.91623510665266 L30 291.4956723282512 L31 292.0751095498497 L32 292.6545467714482 L33 293.23398399304676 L34 293.81342121464525 L35 294.39285843624384 L36 294.9722956578423 L37 295.55173287944086 L38 296.13117010103934 L39 296.7106073226379 L40 297.29004454423637 L41 297.86948176583496 L42 298.44891898743344 L43 299.028356209032 L44 299.6077934306305 L45 300.187230652229 L46 300.76666787382754 L47 301.3461050954261 L48 301.92554231702456 L49 302.5049795386231 L50 303.08441676022164 L51 303.6638539818201 L52 304.2432912034187 L53 304.8227284250172 L54 305.4021656466157 L55 305.9816028682142 L56 306.56104008981276 L57 307.1404773114113 L58 307.71991453300984 L59 308.2993517546083 L60 308.87878897620686 L61 309.4582261978054 L62 310.0376634194039 L63 310.6171006410024 L64 311.19653786260096 L65 311.77597508419944 L66 312.355412305798 L67 312.9348495273965 L68 313.514286748995 L69 314.0937239705936 L70 314.6731611921921 L71 315.2525984137906 L72 315.83203563538916 L73 316.41147285698764 L74 316.9909100785862 L75 317.5703473001847 L76 318.1497845217832 L77 318.72922174338174 L78 319.3086589649803 L79 319.88809618657876 L80 320.4675334081773 L81 321.04697062977584 L82 321.6264078513743 L83 322.20584507297286 L84 322.7852822945714 L85 323.36471951616994 L86 323.9441567377684 L87 324.52359395936696 L88 325.1030311809655 L89 325.68246840256404 L90 326.2619056241625 L91 326.84134284576106 L92 327.4207800673596 L93 328.0002172889581 L94 328.5796545105566 L95 329.15909173215516 L96 329.73852895375364 L97 330.3179661753522 L98 330.8974033969507 L99 331.4768406185492 L100 332.05627784014774 L101 332.6357150617463 L102 333.21515228334476 L103 333.79458950494336 L104 334.37402672654184 L105 334.9534639481404 L106 335.5329011697389 L107 336.1123383913374 L108 336.69177561293594 L109 337.2712128345345 L110 337.85065005613296 L111 338.4300872777315 L112 339.00952449933004 L113 339.5889617209285 L114 340.16839894252706 L115 340.7478361641256 L116 341.32727338572414 L117 341.9067106073227 L118 342.48614782892116 L119 343.0655850505197 L120 343.6450222721182 L121 344.2244594937167 L122 344.80389671531526 L123 345.38333393691374 L124 345.9627711585123 L125 346.5422083801108 L126 347.12164560170936 L127 347.70108282330784 L128 348.2805200449064 L129 348.8599572665049 L130 349.4393944881034 L131 350.01883170970194 L132 350.5982689313005 L133 351.17770615289896 L134 351.7571433744975 L135 352.33658059609604 L136 352.9160178176946 L137 353.4954550392931 L138 354.0748922608916 L139 354.65432948249014 L140 355.2337667040887 L141 355.81320392568716 L142 356.3926411472857 L143 356.97207836888424 L144 357.5515155904827 L145 358.13095281208126 L146 358.71039003367974 L147 359.2898272552782 L148 359.8692644768765 L149 360.4487016984743 L150 361.02813892007066 L151 361.60757614166243 L152 362.18701336324057 L153 362.76645058477686 L154 363.34588780618634 L155 363.9253250272115 L156 364.50476224707603 L157 365.08419946344526 L158 365.6636366693238 L159 366.2430738438361 L160 366.82251092496983 L161 367.4019477294873 L162 367.9813837192671 L163 368.5608173254036 L164 369.1402440131698 L165 369.71965081282326 L166 370.2990011113643 L167 370.8781932557465 L168 371.4569510897806 L169 372.0345461672801 L170 372.6091347999443 L171 373.17632296377906 L172 373.72654138713455 L173 374.24163576230836 L174 374.69379666586025 L175 375.05284826211596 L176 375.3026739881893 L177 375.4528045537768 L178 375.5313524292565 L179 375.56798622901465 L180 375.58364586882925 L181 375.5899312242312 L182 375.59234315170966 L183 375.59323918507164 L184 375.593564190497 L185 375.59367995204497 L186 375.5937206036639 L187 375.59373471809636 L188 375.59373957346315 L189 375.59374123087315 L190 375.59374179296435 L191 375.5937419825303 L192 375.59374204615347 L193 375.5937420674171 L194 375.59374207449724 L195 375.5937420768469 L196 375.59374207762437 L197 375.59374207788085 L198 375.593742077965 L199 375.59374207799175 L200 375.5937420779979 L201 375.59374207799175 L202 375.593742077965 L203 375.59374207788085 L204 375.59374207762437 L205 375.5937420768469 L206 375.59374207449724 L207 375.5937420674171 L208 375.59374204615347 L209 375.5937419825303 L210 375.5937417929644 L211 375.59374123087315 L212 375.59373957346315 L213 375.59373471809636 L214 375.5937206036639 L215 375.59367995204497 L216 375.593564190497 L217 375.59323918507164 L218 375.59234315170966 L219 375.5899312242312 L220 375.58364586882925 L221 375.56798622901465 L222 375.5313524292565 L223 375.4528045537768 L224 375.3026739881893 L225 375.05284826211596 L226 374.69379666586025 L227 374.24163576230836 L228 373.72654138713455 L229 373.17632296377906 L230 372.6091347999443 L231 372.0345461672801 L232 371.4569510897806 L233 370.8781932557465 L234 370.2990011113643 L235 369.71965081282326 L236 369.1402440131698 L237 368.5608173254036 L238 367.9813837192671 L239 367.4019477294873 L240 366.82251092496983 L241 366.24307384383604 L242 365.6636366693238 L243 365.08419946344526 L244 364.50476224707603 L245 363.9253250272115 L246 363.34588780618634 L247 362.76645058477686 L248 362.18701336324057 L249 361.60757614166243 L250 361.02813892007066 L251 360.4487016984743 L252 359.8692644768765 L253 359.28982725527817 L254 358.71039003367974 L255 358.13095281208126 L256 357.5515155904827 L257 356.97207836888424 L258 356.3926411472857 L259 355.81320392568716 L260 355.2337667040887 L261 354.65432948249014 L262 354.0748922608916 L263 353.4954550392931 L264 352.9160178176946 L265 352.33658059609604 L266 351.7571433744975 L267 351.177706152899 L268 350.5982689313005 L269 350.01883170970194 L270 349.43939448810346 L271 348.8599572665049 L272 348.2805200449064 L273 347.70108282330784 L274 347.12164560170936 L275 346.5422083801108 L276 345.9627711585123 L277 345.38333393691374 L278 344.80389671531526 L279 344.2244594937167 L280 343.6450222721182 L281 343.0655850505197 L282 342.48614782892116 L283 341.9067106073227 L284 341.32727338572414 L285 340.7478361641256 L286 340.16839894252706 L287 339.5889617209285 L288 339.00952449933004 L289 338.4300872777315 L290 337.85065005613296 L291 337.2712128345345 L292 336.69177561293594 L293 336.1123383913374 L294 335.5329011697389 L295 334.9534639481404 L296 334.37402672654184 L297 333.79458950494336 L298 333.21515228334476 L299 332.6357150617463 L300 332.05627784014774 L301 331.4768406185492 L302 330.8974033969507 L303 330.3179661753522 L304 329.73852895375364 L305 329.15909173215516 L306 328.5796545105566 L307 328.0002172889581 L308 327.4207800673596 L309 326.84134284576106 L310 326.2619056241625 L311 325.68246840256404 L312 325.1030311809655 L313 324.52359395936696 L314 323.9441567377684 L315 323.36471951616994 L316 322.7852822945714 L317 322.20584507297286 L318 321.6264078513743 L319 321.04697062977584 L320 320.4675334081773 L321 319.88809618657876 L322 319.3086589649803 L323 318.72922174338174 L324 318.1497845217832 L325 317.5703473001847 L326 316.9909100785862 L327 316.41147285698764 L328 315.83203563538916 L329 315.2525984137906 L330 314.6731611921921 L331 314.0937239705936 L332 313.51428674899506 L333 312.9348495273965 L334 312.355412305798 L335 311.77597508419944 L336 311.19653786260096 L337 310.6171006410024 L338 310.0376634194039 L339 309.4582261978054 L340 308.87878897620686 L341 308.2993517546083 L342 307.71991453300984 L343 307.1404773114113 L344 306.56104008981276 L345 305.9816028682143 L346 305.40216564661574 L347 304.8227284250172 L348 304.2432912034187 L349 303.6638539818202 L350 303.08441676022164 L351 302.5049795386231 L352 301.92554231702456 L353 301.3461050954261 L354 300.76666787382754 L355 300.187230652229 L356 299.6077934306305 L357 299.028356209032 L358 298.44891898743344 L359 297.86948176583496 L360 297.29004454423637 L361 296.7106073226379 L362 296.1311701010394 L363 295.55173287944086 L364 294.9722956578423 L365 294.39285843624384 L366 293.8134212146453 L367 293.23398399304676 L368 292.6545467714482 L369 292.0751095498497 L370 291.4956723282512 L371 290.91623510665266 L372 290.3367978850541 L373 289.75736066345564 L374 289.1779234418571 L375 288.59848622025856 L376 288.01904899866 L377 287.43961177706154 L378 286.860174555463 L379 286.2807373338645 L380 285.701300112266 L381 285.12186289066744 L382 284.5424256690689 L383 283.96298844747037 L384 283.3835512258719 L385 282.80411400427334 L386 282.2246767826748 L387 281.6452395610763 L388 281.0658023394778 L389 280.48636511787925 L390 279.90692789628076 L391 279.3274906746822 L392 278.7480534530837 L393 278.1686162314852 L394 277.58917900988666 L395 277.0097417882881 L396 276.4303045666896 L397 275.85086734509105 L398 275.27143012349256 L399 274.691992901894 " stroke = "black" stroke-width = "2" fill = "none" /></svg>