<svg width="600" height="400" viewbox = "0 0 600 400"  xmlns="http://www.w3.org/2000/svg">

<!--
<topfunctions>





function YofX(){
    X = plotparams.g*(x - plotparams.x0) - funcparams.X0;
    Y = funcparams.a*X*X*X + funcparams.b*X*X + funcparams.c*X + funcparams.d;
    y = plotparams.y0 - plotparams.G*(Y - funcparams.Y0);
}


function YofX2(){
    X = plotparams.g*(x - plotparams.x0) - funcparams.X0;
    Y = funcparams.b*X*X + funcparams.c*X + funcparams.d;
    y = plotparams.y0 - plotparams.G*(Y - funcparams.Y0);
}

function XYofT(){
    T = plotparams.g*t;
    X = Math.exp(-T/funcparams.tau)*Math.cos(2*Math.PI*T/funcparams.T);
    Y = Math.exp(-T/funcparams.tau)*Math.sin(2*Math.PI*T/funcparams.T);
    y = plotparams.y0 - plotparams.G*(Y - funcparams.Y0);
    x = plotparams.x0 - plotparams.G*(X - funcparams.X0);    
}


function plotfunction(){


    currentStroke = "blue";
    currentLineWidth = 4;
    ctx.strokeStyle = currentStroke;
    ctx.lineWidth = currentLineWidth;
    ctx.beginPath();	
    x = 0;
    y = 0;
    t= 0;
    XYofT();
    currentSVG += "	<path d = \"M";
    currentSVG += Math.round(x).toString() + " ";
    currentSVG += Math.round(y).toString() + " ";
    for(t = 1;t < plotparams.duration;t++){
        ctx.moveTo(x,y);
        XYofT();
        ctx.lineTo(x,y);
        currentSVG += "L" + x + " " + y + " ";
    }
    ctx.stroke();
    currentSVG += "\""+ " stroke = \"" + currentStroke + "\" stroke-width = \"" + currentLineWidth.toString() + "\" fill = \"" + "none" + "\" "+"/>";


    /*plot one function:
    currentStroke = "blue";
    currentLineWidth = 4;
    ctx.strokeStyle = currentStroke;
    ctx.lineWidth = currentLineWidth;
    ctx.beginPath();	
    x = 0;
    YofX();
    currentSVG += "	<path d = \"M";
    currentSVG += Math.round(x).toString() + " ";
    currentSVG += Math.round(y).toString() + " ";
    for(x = 1;x < plotparams.plotwidth;x++){
        ctx.moveTo(x-1,y);
        YofX();
        ctx.lineTo(x,y);
        currentSVG += "L" + x + " " + y + " ";
    }
    ctx.stroke();
    currentSVG += "\""+ " stroke = \"" + currentStroke + "\" stroke-width = \"" + currentLineWidth.toString() + "\" fill = \"" + "none" + "\" "+"/>";
    /*finish plot one function*/
    

}


   
   
   
   

</topfunctions>
-->

<!--
<imgurl>

</imgurl>
-->

<!--
<currentjson>
{
    "constants": {},
    "imgurl": "",
    "plotparams": {
        "G": 177.15610000000012,
        "g": 0.017985878990921366,
        "duration": 1883.0570260326017,
        "plotwidth": 600,
        "plotheight": 400,
        "x0": 483.1530000000002,
        "y0": 200
    },
    "funcparams": {
        "tau": 7.814802722886543,
        "T": 10,
        "X0": 0,
        "Y0": 0
    }
}
</currentjson>
-->

<!--
<equation>







<p style="color:blue">

</p><p class="bigeq">
$$
(X,Y) = (e^{-t/\tau}\cos{\frac{2\pi t}{T}},e^{-t/\tau}\sin{\frac{2\pi t}{T}})

$$
</p>
<p></p>

$$
X = g(x - x_0) - X_0
$$
$$
Y = f(X)
$$
    
$$
y = y_0 - G(Y - Y_0)
$$


<p>
    X and Y, and $X_0$ and $Y_0$ in physical units of the System. x and y and x0 and y0 in pixels.  G is in pixels per Y unit and g is in X units per pixel. 
</p>










</equation>
-->
	<path d = "M306 200 L306.41544456387055 198.00262841323857 L306.8555199342087 196.01469470662542 L307.31696883415157 194.03641933459397 L307.7996318728698 192.06802045749714 L308.3033475764271 190.1097139231932 L308.82795241877403 188.16171324902288 L309.37328085287214 186.22422960417853 L309.9391653419433 184.29747179246584 L310.52543639083945 182.38164623545873 L311.1319225775281 180.47695695604756 L311.7584505846892 178.5836055623813 L312.4048452314182 176.7017912322039 L313.0709295050308 174.83171069758484 L313.75652459296487 172.97355823004486 L314.46144991477433 171.127525626076 L315.1855231542114 169.2938021930569 L315.928560291391 167.4725747355629 L316.69037563503446 165.66402754207115 L317.4707818547857 163.8683423720609 L318.26959001359774 162.08569844350833 L319.0866096001831 160.31627242077607 L319.92164856152414 158.5602384028975 L320.7745133354384 156.81776791225494 L321.6450088831953 155.08902988365196 L322.5329387221784 153.37419065377912 L323.4381049585895 151.67341395107303 L324.3603083201901 149.98686088596773 L325.2993481890745 148.31468994153883 L326.2550226344721 146.65705696453864 L327.2271284455725 145.01411515682275 L328.21546116437 143.3860150671668 L329.219815118523 141.77290458347275 L330.2399834542226 140.17492892536444 L331.27575816906864 138.59223063717084 L332.3269301449459 137.02494958129654 L333.39328918089757 135.47322293197902 L334.4746240259925 133.93718516943076 L335.5707224121789 132.41696807436603 L336.6813710871241 130.9127007229111 L337.80635584703293 129.4245094818964 L338.94546156944193 127.95251800453033 L340.0984722459849 126.49684722645246 L341.2651710151257 125.05761536216592 L342.44534019485343 123.63493790184707 L343.63876131533704 122.22892760853132 L344.8452151515339 120.83969451567383 L346.0644817557494 119.4673459250837 L347.2963404901419 118.11198640522991 L348.5405700591716 116.77371778991797 L349.7969485419862 115.4526391773354 L351.0652534247413 114.1488469294647 L352.34526163285136 112.86243467186206 L353.6367495631668 111.59349329380024 L354.9394931160731 110.34211094877377 L356.2532677275089 109.10837305536505 L357.5778484008981 107.89236229846941 L358.91300973899354 106.69415863087697 L360.2585259756268 105.51383927521019 L361.6141710073615 104.3514787262146 L362.97971842504603 103.20714875340104 L364.35494154526185 102.0809184040374 L365.73961344166366 100.97285400648782 L367.1335069762083 99.88301917389747 L368.53639483026757 98.81147480822057 L369.9480495356231 97.7582791045898 L371.3682435053379 96.72348755602478 L372.796749064502 95.70715295847748 L374.2333384808494 94.70932541621238 L375.6777839952407 93.73005234751918 L377.12985785201045 92.76937849075556 L378.5893323291741 91.82734591071791 L380.05597976849174 90.90399400533752 L381.5295726053855 89.99935951270005 L383.0098833987073 89.11347651838554 L384.496684860353 88.24637646312678 L385.9897498847207 87.39808815078345 L387.48885157800913 86.56863775662974 L388.99376328735406 85.75804883595234 L390.50425862979796 84.96634233295688 L392.0201115210918 84.19353658998013 L393.54109620432405 83.43964735700462 L395.06698727837556 82.70468780147407 L396.597559726196 81.98866851840624 L398.1325889428994 81.29159754080074 L399.67185076367684 80.61348035033892 L401.21512149152136 79.95431988837322 L402.7621779247643 79.31411656720347 L404.312797384419 78.69286828163632 L405.86675774133016 78.0905704208264 L407.4238374431247 77.50721588039505 L408.983815540963 76.94279507482463 L410.54647171608684 76.39729595012493 L412.11158630616217 75.87070399676904 L413.6789403314133 75.36300226289588 L415.2483155205467 74.87417136777573 L416.8194943364622 74.40418951553667 L418.3922600017477 73.95303250914827 L419.96639652395703 73.52067376465969 L421.5416887206668 73.1070843256892 L423.1179222443111 72.71223287816187 L424.69488360679117 72.33608576529272 L426.27236020385806 71.9786070028114 L427.8501403392661 71.6397582944264 L429.4280132486947 71.31949904752477 L431.00576912343723 71.01778638910432 L432.5831991338534 70.73457518193558 L434.16009545258464 70.46981804094966 L435.73625127752996 70.22346534984956 L437.31146085457965 69.9954652779407 L438.88551950010617 69.78576379717856 L440.45822362320905 69.59430469942941 L442.02937074771336 69.42102961394082 L443.59875953391855 69.26587802501936 L445.166189800097 69.12878728991137 L446.73146254374 69.00969265688411 L448.2943799625498 68.90852728350373 L449.8547454751759 68.8252222551065 L451.4123637416942 68.75970660346036 L452.9670406838271 68.71190732561345 L454.51858350490363 68.68174940292567 L456.0668007095578 68.66915582028074 L457.61150212316363 68.67404758547463 L459.15249891100564 68.69634374877748 L460.68960359718375 68.73596142266553 L462.22263008325115 68.79281580171931 L463.7513936665828 68.86682018268519 L465.2757110584762 68.95788598469647 L466.79540040197907 69.065922769651 L468.3102812894475 69.19083826274132 L469.82017477982936 69.33253837313458 L471.3249034156747 69.49092721479829 L472.8242912398707 69.66590712746867 L474.3181638121009 69.85737869775824 L475.8063482250276 70.065240780399 L477.2886731201962 70.28939051961783 L478.76496870366145 70.529723370641 L480.23506676133377 70.78613312132362 L481.69880067404586 71.05851191390133 L483.15600543233853 71.34675026686048 L484.6065176509645 71.65073709692302 L486.0501755831107 71.97035974114334 L487.48681913433717 72.30550397911317 L488.9162898762335 72.65605405527096 L490.33843105979076 73.02189270131278 L491.7530876284892 73.40290115870086 L493.16010623110196 73.79895920126677 L494.55933523421277 74.2099451579051 L495.95062473444904 74.63573593535519 L497.33382657042824 75.07620704106654 L498.7087943344194 75.53123260614507 L500.0753833837174 76.00068540837677 L501.4334508517313 76.4844368953248 L502.78285565878576 76.98235720749754 L504.12345852263616 77.49431520158328 L505.45512196869635 78.02017847374883 L506.7777103399801 78.55981338299816 L508.0910898067554 79.11308507458833 L509.39512837591184 79.67985750349834 L510.6896959000415 80.25999345794885 L511.97466408623325 80.85335458296815 L513.2499065045802 81.45980140400185 L514.5152985964015 82.07919335056283 L515.7707176821771 82.71138877991766 L517.0160429691977 83.35624500080688 L518.2511555589289 84.01361829719528 L519.4759384540896 84.68336395204915 L520.6902765654463 85.36533627113715 L521.8940567183229 86.05938860685166 L523.0871676588258 86.76537338204693 L524.2695000597871 87.48314211389166 L525.440946526423 88.21254543773158 L526.6014016017107 88.95343313095991 L527.7507617714839 89.70565413689185 L528.8889254692463 90.46905658864016 L530.0157930807047 91.24348783298878 L531.1312669480225 92.02879445426063 L532.235251373794 92.82482229817766 L533.3276526247399 93.63141649570882 L534.4083789351258 94.44842148690367 L535.4773405099033 95.27568104470787 L536.5344495275759 96.11303829875834 L537.579620142789 96.96033575915403 L538.6127684886461 97.8174153401998 L539.6338126787524 98.6841183841209 L540.6426728089854 99.56028568474339 L541.6392709589945 100.44575751113967 L542.623531193431 101.34037363123423 L543.5953795629083 102.24397333536811 L544.5547441046948 103.15639545981803 L545.5015548431392 104.07747841026813 L546.4357437898311 105.00706018523076 L547.3572449434969 105.94497839941394 L548.2659942896313 106.89107030703252 L549.1619297998691 107.84517282505963 L550.0449914310943 108.80712255641683 L550.9151211242907 109.77675581309877 L551.7722628031347 110.75390863923087 L552.6163623723307 111.73841683405585 L553.4473677156925 112.73011597484816 L554.2652286939692 113.72884143975186 L555.0698971424204 114.73442843054028 L555.8613268681391 115.7467119952949 L556.639473647127 116.76552705099984 L557.4042952211195 117.79070840605053 L558.1557512941669 118.82209078267313 L558.8938035289693 119.85950883925257 L559.6184155429692 120.9027971925663 L560.3295529042017 121.95179043992188 L561.027183126907 123.00632318119494 L561.7112756669015 124.06623004076593 L562.3818019167165 125.13134568935314 L563.038735200498 126.20150486573836 L563.6820507686775 127.27654239838498 L564.3117257924088 128.3562932269438 L564.9277393577768 129.44059242364608 L565.5300724597789 130.52927521458048 L566.11870799608 131.6221770008516 L566.693630760544 132.71913337961874 L567.2548274365439 133.81998016501143 L567.8022865900507 134.92455340892025 L568.3359986625057 136.0326894216612 L568.8559559634756 137.14422479250987 L569.3621526630934 138.2589964101052 L569.854584784288 139.3768414827191 L570.333250194803 140.4975975583913 L570.7981485990069 141.62110254492592 L571.2492815294987 142.74719472974888 L571.6866523385072 143.8757127996237 L572.1102661890909 145.0064958602238 L572.5201300461357 146.13938345555897 L572.9162526671563 147.274215587255 L573.2986445929017 148.4108327336836 L573.6673181377669 149.54907586894166 L574.0222873800126 150.6887864816767 L574.3635681517983 151.82980659375892 L574.6911780290249 152.97197877879546 L575.0051363209956 154.115146180487 L575.3054640598923 155.2591525308246 L575.5921839900725 156.40384216812447 L575.8653205571886 157.5490600548998 L576.1248998971303 158.69465179556727 L576.3709498247938 159.8404636539876 L576.6034998226811 160.98634257083762 L576.8225810293281 162.132136180813 L577.0282262275682 163.2776928296596 L577.2204698326301 164.4228615910326 L577.3993478800744 165.56749228318142 L577.5648980135705 166.71143548545888 L577.7171594725163 167.85454255465459 L577.8561730795024 168.99666564114875 L577.9819812276244 170.1376577048875 L578.0946278676453 171.2773725311771 L578.1941584950091 172.41566474629622 L578.2806201367105 173.55238983292458 L578.35406133802 174.68740414538735 L578.4145321490699 175.82056492471418 L578.4620841113018 176.95173031351044 L578.4967702437779 178.0807593706418 L578.5186450293597 179.20751208572875 L578.5277644007558 180.33184939345165 L578.5241857264415 181.4536331876641 L578.5079677964517 182.57272633531522 L578.4791708080517 183.68899269017757 L578.4378563512861 184.80229710638196 L578.3840873944098 185.9125054517573 L578.3179282692028 187.01948462097417 L578.239444656171 188.1231025484925 L578.1487035696372 189.22322822131085 L578.0457733427223 190.31973169151846 L577.9307236122213 191.4124840886477 L577.8036253033755 192.50135763182698 L577.6645506145435 193.5862256417333 L577.5135730017737 194.66696255234376 L577.3507671632815 195.74344392248517 L577.1762090238313 196.81554644718148 L576.9899757190294 197.88314796879868 L576.7921455795267 198.9461274879854 L576.5827981151367 200.0043651744104 L576.3620139988689 201.05774237729537 L576.1298750508819 202.10614163574255 L575.8864642223575 203.1494466888574 L575.6318655792993 204.1875424856652 L575.3661642862569 205.22031519482215 L575.08944658998 206.2476522141189 L574.8017998030036 207.26944217977893 L574.5033122871671 208.28557497554826 L574.1940734370693 209.29594174157899 L573.8741736634638 210.30043488310483 L573.5437043765942 211.29894807890912 L573.2027579694743 212.2913762895848 L572.8514278011144 213.27761576558635 L572.4898081796957 214.25756405507383 L572.1179943456974 215.2311200115483 L571.7360824549763 216.19818380127944 L571.3441695618034 217.1586569105244 L570.9423536018587 218.1124421525386 L570.530733375188 219.05944367437803 L570.1094085291218 219.9995669634937 L569.6784795411614 220.9327188541176 L569.2380477018338 221.85880753344048 L568.7882150975153 222.77774254758242 L568.3290845932308 223.6894348073547 L567.860759815428 224.59379659381494 L567.3833451347284 225.49074156361434 L566.8969456486609 226.38018475413799 L566.4016671643765 227.26204258843885 L565.8976161813489 228.13623287996413 L565.3848998740627 229.00267483707657 L564.8636260746921 229.86128906736894 L564.33390325577 230.71199758177386 L563.7958405128539 231.55472379846768 L563.2495475471875 232.38939254657078 L562.6951346483618 233.21593006964224 L562.1327126769779 234.03426402897213 L561.5623930473133 234.84432350666958 L560.9842877099951 235.64603900854868 L560.3985091346802 236.4393424668121 L559.8051702927481 237.22416724253264 L559.2043846400046 238.00044812793467 L558.5962660994021 238.76812134847415 L557.9809290437765 239.52712456471986 L557.3584882786045 240.27739687403488 L556.7290590247809 241.01887881205994 L556.0927569014227 241.7515123539991 L555.4496979086964 242.4752409157085 L554.7999984106755 243.19000935458894 L554.1437751182275 243.89576397028287 L553.4811450719343 244.59245250517728 L552.8122256250465 245.28002414471226 L552.1371344264746 245.95842951749694 L551.4559894038198 246.62762069523342 L550.7689087464446 247.2875511924494 L550.0760108885876 247.9381759660409 L549.3774144925221 248.5794514146251 L548.6732384317634 249.21133537770555 L547.9636017743233 249.83378713464924 L547.2486237660171 250.44676740347802 L546.5284238138233 251.0502383394741 L545.8031214692982 251.64416353360187 L545.0728364120471 252.22850801074546 L544.3376884332554 252.80323822776523 L543.5977974192797 253.36832207137232 L542.8532833353019 253.92372885582373 L542.1042662090479 254.4694293204383 L541.3508661145728 255.005395626935 L540.5932031561144 255.53160135659488 L539.8313974520172 256.0480215072473 L539.0655691187269 256.5546324900826 L538.2958382548611 257.0514121262913 L537.5223249253532 257.5383396435321 L536.7451491456751 258.0153956722286 L535.9644308661381 258.48256224169836 L535.1802899562748 258.9398227761127 L534.3928461893039 259.38716209029053 L533.6022192266781 259.8245663853272 L532.8085286027188 260.25202324405905 L532.0118937093373 260.6695216263653 L531.2124337808467 261.0770518643096 L530.410267878862 261.47460565712095 L529.6055148772946 261.8621760660165 L528.7982934474398 262.2397575088677 L527.9887220431594 262.6073457547104 L527.1769188861618 262.9649379181016 L526.36300195138 263.3125324533225 L525.5470889524499 263.65012914843135 L524.7292973272897 263.9777291191663 L523.9097442237818 264.29533480270004 L523.0885464855603 264.60294995124747 L522.265820637902 264.90057962552885 L521.4416828737268 265.18823018808877 L520.616249039704 265.4659092964736 L519.789634622471 265.73362589626777 L518.9619547349607 265.9913902139915 L518.133324102843 266.2392137498614 L517.3038570510787 266.4771092704145 L516.4736674905894 266.7050908009992 L515.6428689050426 266.9231736181327 L514.8115743377551 267.13137424172794 L513.9798963787143 267.32971042719134 L513.1479471517193 267.5182011573926 L512.3158383016432 267.6968666345086 L511.4836809818178 267.8657282717431 L510.65158584154017 268.0248086849235 L509.819663013705 268.1741316839769 L508.9880221025613 268.3137222642865 L508.1567721715959 268.4436065979309 L507.3260217315441 268.5638120248067 L506.49587872852885 268.6743670436377 L505.6664505323296 268.7753013028713 L504.83784392478066 268.866645591464 L504.01016508830224 268.94843182955805 L503.1835195945622 269.0206930590506 L502.35801239327174 269.08346343405776 L501.5337478011152 269.1367782112743 L500.71082949081455 269.18067374023167 L499.8893604803289 269.21518745345566 L499.06944312219156 269.24035785652546 L498.25117909298365 269.2562245180363 L497.43466938294586 269.26282805946636 L496.62001428572967 269.26021014495154 L495.8073133882866 269.24841347096816 L494.99666556089943 269.2274817559259 L494.18816894735266 269.1974597296737 L493.38192095524613 269.1583931229187 L492.57801824644935 269.1103286565617 L491.77655672769953 269.05331403094993 L490.97763154134276 268.9873979150489 L490.181337056219 268.9126299355362 L489.38776685869163 268.82906066581717 L488.5970137438224 268.7367416149668 L487.8091697066912 268.6357252165968 L487.02432593386266 268.5260648176524 L486.24257279499847 268.4078146671384 L485.46399983461714 268.28102990477777 L484.6886957640009 268.1457665496043 L483.9167484532505 268.0020814884904 L483.1482449234876 267.8500324646129 L482.38327133920666 267.6896780658583 L481.62191300077444 267.5210777131682 L480.8642543370792 267.34429164882926 L480.1103788983297 267.15938092470645 L479.360369349003 266.96640739042397 L478.6143074609428 266.7654336814939 L477.8722741066078 266.5565232073956 L477.13434925247003 266.33974013960676 L476.4006119525646 266.1151493995883 L475.6711403421892 265.88281664672564 L474.9460116317549 265.6428082662261 L474.22530210078816 265.3951913569769 L473.50908709208306 265.1400337193635 L472.7974410060059 264.8774038430507 L472.0904372949501 264.60737089472894 L471.3881484579424 264.3300047058267 L470.6906460354011 264.04537576019084 L469.99800060404453 263.75355518173757 L469.3102817719516 263.45461472207467 L468.6275581737734 263.1486267480977 L467.94989746609536 262.8356642295608 L467.2773663229517 262.51580072662574 L466.61003043148946 262.1891103773885 L465.94795448778456 261.85566788538733 L465.29120219280776 261.515548507093 L464.6398362485419 261.1688280393828 L463.99391835424893 260.8155828070005 L463.3535092028878 260.45588965000417 L462.7186684776812 260.08982591120287 L462.08945484883367 259.7174694235843 L461.4659259703976 259.33889849773556 L460.84813847728987 258.9541919092579 L460.23614798245615 258.5634288861776 L459.6300090741848 258.166689096355 L459.0297753135688 257.76405263489255 L458.4354992321152 257.35560001154397 L457.8472323295031 256.9414121381267 L457.2650250714876 256.5215703159385 L456.6889268879521 256.09615622317983 L456.1189861711052 255.66525190238463 L455.5552502738256 255.22893974786 L454.9977655081506 254.7873024931371 L454.44657714391127 254.34042319843456 L453.9017294075107 253.88838523813604 L453.3632654808476 253.43127228828396 L452.8312275003829 252.96916831409018 L452.30565655634933 252.50215755746603 L451.7865926921032 252.0303245245726 L451.274074903619 251.5537539733934 L450.76814113912417 251.07253090133045 L450.2688282988756 250.58674053282581 L449.776172235075 250.09646830700936 L449.29020775192566 249.60179986537568 L448.8109686058255 249.10282103948958 L448.3384875057008 248.59961783872384 L447.8727961134754 248.09227643802896 L447.41392504467757 247.58088316573748 L446.96190386918346 247.0655244914041 L446.5167611120947 246.54628701368222 L446.0785242547516 246.02325744824003 L445.6472197358792 245.49652261571543 L445.22287295286804 244.96616942971343 L444.80550826318523 244.43228488484544 L444.3951489859187 243.89495604481357 L443.99181740345097 243.3542700305394 L443.59553476326386 242.81031400834104 L443.2063212798712 242.2631751781571 L442.82419613688046 241.71294076182153 L442.4491774891815 241.15969799138804 L442.0812824652618 240.60353409750832 L441.72052716964697 240.04453629786263 L441.3669266854664 239.48279178564542 L441.02049507714264 238.91838771810788 L440.68124539320286 238.35141120515672 L440.34918966921333 237.7819492980127 L440.0243389308339 237.210088977928 L439.70670319699315 236.63591714496562 L439.39629148318204 236.0595206068404 L439.0931118048658 235.48098606782392 L438.79717118101297 234.9004001177138 L438.50847563774033 234.31784922086928 L438.22703021207263 233.73341970531334 L437.952838955817 233.14719775190315 L437.6859049395495 232.55926938356987 L437.4262302567138 231.96972045462854 L437.17381602783104 231.37863664016004 L436.9286624048194 230.78610342546466 L436.69076857542177 230.19220609559028 L436.46013276774187 229.59702972493437 L436.23675225488614 229.00065916692242 L436.02062335971146 228.4031790437625 L435.8117414596775 227.804673736278 L435.610100991801 227.2052273738187 L435.4156954577137 226.6049238242518 L435.22851742881994 226.00384668403382 L435.0485585515545 225.40207926836342 L434.87580955273927 224.79970460141757 L434.71026024503664 224.19680540667042 L434.5518995324998 223.59346409729727 L434.400715416218 222.9897627666633 L434.25669500005563 222.38578317889858 L434.1198244964836 221.78160675955976 L433.9900892325032 221.17731458638036 L433.86747365565907 220.57298738010866 L433.7519613401423 219.96870549543587 L433.643534992981 219.36454891201393 L433.54217646031697 218.76059722556505 L433.44786673376876 218.1569296390821 L433.36058595687825 217.55362495412248 L433.2803134316404 216.95076156219437 L433.2070276251145 216.3484174362375 L433.140706176116 215.74667012219868 L433.08132590198767 215.14559673070212 L433.02886280544834 214.54527392881639 L432.98329208151847 213.94577793191738 L432.9445881245209 213.34718449564934 L432.9127245351564 212.74956890798322 L432.8876741276509 212.15300598137406 L432.86940893697505 211.55757004501663 L432.8579002261341 210.9633349372021 L432.8531184935264 210.37037399777344 L432.8550334803692 209.77876006068306 L432.86361417819194 209.18856544665073 L432.8788288363938 208.59986195592344 L432.90064496986474 208.0127208611384 L432.92902936666997 207.42721290028754 L432.9639480957948 206.84340826978672 L433.0053665149496 206.26137661764702 L433.0532492784336 205.68118703675185 L433.10756034505505 205.1029080582371 L433.1682629861084 204.5266076449774 L433.23531979340527 203.95235318517686 L433.3086926873591 203.3802114860661 L433.38834292512166 202.81024876770468 L433.47423110877 202.24253065689092 L433.5663171935432 201.67712218117717 L433.6645604961267 201.11408776299317 L433.76891970298334 200.55349121387596 L433.8793528787303 199.99539572880752 L433.99581747455926 199.43986388066085 L434.11827033670005 198.8869576147531 L434.2466677149252 198.33673824350763 L434.38096527109474 197.7892664412245 L434.52111808774 197.2446022389596 L434.6670806766844 196.7028050195124 L434.8188069877009 196.16393351252344 L434.9762504172039 195.62804578968 L435.1393638169748 195.09519926003193 L435.3080995029196 194.56545066541682 L435.48240926385773 194.03885607599412 L435.66224437034015 193.51547088588978 L435.84755558349593 192.9953498089494 L436.0382931639056 192.478546874603 L436.23440688050033 191.9651154238374 L436.4358460194854 191.4551081052804 L436.6425593932869 190.94857687139321 L436.85449534951977 190.44557297477414 L437.07160177997724 189.94614696457126 L437.29382612963826 189.450348683005 L437.52111540569393 188.95822726200083 L437.7534161865898 188.46983111993143 L437.99067463108423 187.9852079584685 L438.2328364873201 187.50440475954434 L438.4798471019101 187.02746778242255 L438.73165142903287 186.55444256087844 L438.9881940395399 186.0853739004884 L439.2494191300715 185.6203058760285 L439.51527053218007 185.15928182898213 L439.7856917214608 184.70234436515557 L440.06062582668653 184.24953535240385 L440.34001563894765 183.80089591846294 L440.62380362079443 183.3564664488916 L440.91193191538093 182.91628658512056 L441.20434235560936 182.48039522260947 L441.50097647327385 182.04883050911127 L441.80177550820156 181.62162984304405 L442.1066804173914 181.19882987196928 L442.41563188414744 180.7804664911772 L442.72857032720765 180.3665748423782 L443.04543590986475 179.95718931250036 L443.3661685490799 179.55234353259263 L443.69070792458695 179.15207037683336 L444.0189934879864 178.75640196164375 L444.35096447182764 178.36536964490594 L444.6865598986787 177.97900402528572 L445.0257185901827 177.59733494165823 L445.36837917609813 177.22039147263837 L445.71448010332483 176.8482019362126 L446.06395964491077 176.4807938894753 L446.4167559090425 176.11819412846572 L446.7728068480147 175.7604286881073 L447.13205026717986 175.40752284224868 L447.4944238338767 175.0595011038044 L447.8598650863349 174.71638722499716 L448.2283114425571 174.37820419769915 L448.59970020917535 174.0449742538729 L448.97396859028225 173.71671886611102 L449.35105369623454 173.3934587482741 L449.73089255242905 173.07521385622653 L450.1134221080496 172.76200338866937 L450.498579244784 172.45384578806974 L450.8863007855093 172.15075874168707 L451.2765235029461 171.8527591826935 L451.66918412827823 171.55986329139057 L452.06421935974015 171.27208649651942 L452.46156587116786 170.98944347666463 L452.8611603205143 170.71194816175205 L453.26293935832786 170.43961373463785 L453.66683963619266 170.1724526327906 L454.0727978151305 169.9104765500634 L454.48075057396204 169.65369643855772 L454.8906346176279 169.40212251057613 L455.30238668546804 169.15576424066475 L455.7159435594584 168.91463036774414 L456.131242072404 168.6787288973278 L456.5482191160878 168.44806710382824 L456.9668116493742 168.222651532949 L457.3869567062667 168.00248800416267 L457.808591403918 167.78758161327391 L458.23165295059306 167.57793673506652 L458.6560786535828 167.37355702603418 L459.0818059270687 167.1744454271941 L459.5087722999371 166.98060416698226 L459.9369154235421 166.79203476423055 L460.36617307941685 166.6087380312237 L460.7964831869323 166.4307140768365 L461.22778381090166 166.25796230974962 L461.6600131691319 166.09048144174372 L462.09310963991913 165.9282694910709 L462.52701176948875 165.7713237859026 L462.9616582793793 165.61964096785343 L463.3969880737691 165.4732169955796 L463.83294024674416 165.33204714845192 L464.2694540895091 165.19612603030157 L464.70646909753725 165.06544757323877 L465.1439249776618 164.94000504154255 L465.5817616551059 164.8197910356219 L466.01991928045163 164.70479749604613 L466.45833823654687 164.595015707645 L466.89695914535014 164.4904363036762 L467.3357228747114 164.39104927006125 L467.77457054509017 164.29684394968652 L468.21344353620833 164.2078090467711 L468.6522834936384 164.12393263129852 L469.09103233532636 164.04520214351248 L469.52963225804797 163.97160439847588 L469.96802574379916 163.90312559069122 L470.40615556611834 163.83975129878263 L470.84396479634154 163.78146649023807 L471.2813968097892 163.72825552621052 L471.71839529188446 163.680102166378 L472.15490424420136 163.63698957386072 L472.59086799044434 163.59890032019527 L473.0262311823569 163.5658163903638 L473.4609388055601 163.53771918787857 L473.89493618531884 163.51458953992014 L474.32816899223826 163.49640770252802 L474.76058324788664 163.48315336584403 L475.19212533034676 163.47480565940597 L475.62274197969435 163.47134315749176 L476.05238030340274 163.47274388451262 L476.48098778167514 163.4789853204545 L476.9085122727012 163.4900444063666 L477.33490201784156 163.50589754989642 L477.76010564673555 163.52652063087 L478.184072182335 163.55188900691675 L478.60675104586306 163.58197751913752 L479.0280920616964 163.61676049781533 L479.4480454621722 163.65621176816765 L479.86656189231906 163.70030465613928 L480.28359241451045 163.74901199423488 L480.6990885130427 163.80230612739007 L481.1130020986348 163.86015891888047 L481.5252855128521 163.92254175626744 L481.9358915324514 163.98942555737952 L482.34477337364893 164.06078077632893 L482.7518846963107 164.13657740956188 L483.15717960806364 164.2167850019418 L483.56061266833007 164.30137265286456 L483.96213889228204 164.39030902240478 L484.36171375471815 164.4835623374923 L484.75929319386114 164.5811003981173 L485.15483361507665 164.6828905835643 L485.5482918945125 164.78889985867278 L485.93962538265976 164.89909478012427 L486.3287919078335 165.0134415027547 L486.7157497795746 165.13190578589104 L487.10045779197225 165.25445299971153 L487.4828752269063 165.38104813162798 L487.8629618572108 165.51165579268988 L488.2406779497571 165.64624022400884 L488.615984268458 165.7847653032028 L488.98884207719095 165.92719455085864 L489.35921314264317 166.07349113701267 L489.7270597370752 166.2236178876479 L490.09234464100626 166.37753729120692 L490.45503114581845 166.53521150511992 L490.81508305628256 166.69660236234648 L491.17246469300255 166.8616713779304 L491.52714089478206 167.03037975556663 L491.87907702091013 167.20268839417946 L492.22823895336745 167.37855789451075 L492.5745930989539 167.55794856571765 L492.9181063913358 167.74082043197856 L493.2587462930139 167.9271332391067 L493.59648079721336 168.11684646117018 L493.93127842969255 168.30991930711772 L494.2631082504749 168.50631072740916 L494.5919398555008 168.70597942064987 L494.91774337820056 168.90888384022776 L495.2404894909901 169.11498220095314 L495.5601494066867 169.3242324856987 L495.8766948798477 169.53659245204074 L496.1900982080308 169.75201963889913 L496.5003322329758 169.97047137317605 L496.8073703417103 170.19190477639256 L497.11118646757615 170.41627677132146 L497.4117550911803 170.64354408861658 L497.7090512412674 170.8736632734368 L498.00305049551616 171.1065906920643 L498.2937289812598 171.34228253851632 L498.58106337612884 171.5806948411492 L498.8650309086195 171.8217834692543 L499.1456093585851 172.06550413964447 L499.4227770576529 172.31181242323066 L499.69651288956555 172.56066375158787 L499.9667962904472 172.81201342350903 L500.23360724899584 173.0658166115466 L500.4969263066012 173.32202836854117 L500.75673455738854 173.58060363413534 L501.013013648189 173.84149724127332 L501.2657457784368 174.10466392268432 L501.5149136999937 174.37005831735004 L501.76050071690076 174.63763497695436 L502.00249068505786 174.90734837231514 L502.24086801183165 175.17915289979751 L502.47561765559254 175.45300288770727 L502.70672512517956 175.7288526026639 L502.93417647929596 176.00665625595292 L503.15795832583353 176.2863680098559 L503.37805782112775 176.56794198395818 L503.59446266914364 176.85133226143347 L503.8071611205922 177.1364928953039 L504.01614197197864 177.4233779146758 L504.22139456458285 177.71194133094974 L504.4229087833715 178.00213714400465 L504.62067505584383 178.29391934835468 L504.8146843508102 178.58724193927904 L505.00492817710443 178.8820589189229 L505.19139858223093 179.17832430237019 L505.37408815094574 179.47599212368587 L505.55299000377363 179.77501644192887 L505.72809779546003 180.07535134713328 L505.8994057133601 180.37695096625842 L506.066908475764 180.6797694691068 L506.23060133015923 180.98376107420856 L506.39048005143127 181.28888005467337 L506.5465409400019 181.5950807440073 L506.69878081990686 181.90231754189554 L506.8471970368127 182.21054491994965 L506.9917874559731 182.51971742741864 L507.13255046012637 182.8297896968639 L507.2694849473332 183.14071644979688 L507.40259032875645 183.4524525022785 L507.531866526383 183.76495277048173 L507.6573139706879 184.07817227621334 L507.7789335982423 184.39206615239823 L507.89672684926484 184.7065896485227 L508.01069566511745 185.02169813603712 L508.1208424857465 185.33734711371866 L508.2271702470689 185.65349221299118 L508.3296823783054 185.97008920320428 L508.4283827992595 186.28709399686892 L508.5232759175445 186.6044626548504 L508.61436662575846 186.9221513915179 L508.7016602986076 187.2401165798496 L508.7851627899789 187.5583147564937 L508.86488042996325 187.8767026267844 L508.9408200218275 188.1952370697122 L509.0129888389397 188.51387514284863 L509.08139462164416 188.83257408722466 L509.1460455740904 189.15129133216186 L509.20695036101404 189.46998450005745 L509.2641181044719 189.78861141112034 L509.31755838053124 190.1071300880606 L509.3672812159142 190.4254987607292 L509.41329708459745 190.7436758707102 L509.45561690436836 191.06162007586278 L509.494252033338 191.37929025481407 L509.5292142664118 191.69664551140224 L509.5605158317186 192.0136451790691 L509.588169386998 192.3302488252019 L509.6121880159481 192.64641625542455 L509.632585224533 192.96210751783718 L509.6493749372512 193.27728290720407 L509.662571493366 193.59190296909003 L509.67218964309757 193.90592850394378 L509.67824454377865 194.2193205711296 L509.68075175597323 194.5320404929052 L509.6797272395601 194.84404985834732 L509.67518734978097 195.15531052722318 L509.6671488332546 195.4657846338088 L509.655628823957 195.77543459065274 L509.640644839169 196.08422309228635 L509.62221477539134 196.39211311887894 L509.6003569042282 196.69906793983856 L509.5750898682401 197.00505111735788 L509.5464326767663 197.31002650990476 L509.5144047017178 197.61395827565775 L509.4790256733419 197.91681087588555 L509.440315675958 198.21854907827148 L509.39829514366676 198.51913796018115 L509.35298485603164 198.8185429118748 L509.3044059337355 199.1167296396629 L509.252579834211 199.4136641690054 L509.1975283472468 199.70931284755454 L509.1392735905696 200.00364234814103 L509.07783800540335 200.29661967170247 L509.0132443520055 200.5882121501566 L508.94551570518155 200.87838744921518 L508.8746754497787 201.16711357114255 L508.8007472761585 201.45435885745601 L508.7237551756505 201.74009199156836 L508.64372343598626 202.0242820013743 L508.5606766367149 202.3068982617775 L508.4746396446017 202.58791049716154 L508.3856376090091 202.8672887838024 L508.29369595726143 203.14500355222282 L508.1988403899945 203.42102558949 L508.1010968764895 203.6953260414541 L508.0004916499939 203.96787641492975 L507.8970512030271 204.23864857981943 L507.7908022826752 204.50761477117862 L507.68177188587174 204.7747475912236 L507.56998725466843 205.04002001128043 L507.45547587149406 205.30340537367704 L507.3382654544039 205.56487739357658 L507.2183839523193 205.8244101607532 L507.0958595402588 206.0819781413101 L506.9707206145608 206.3375561793393 L506.84299578809913 206.5911194985242 L506.7127138854916 206.84264370368405 L506.5799039383027 207.0921047822607 L506.4445951802407 207.33947910574793 L506.3068170423498 207.58474343106337 L506.16659914819877 207.82787490186246 L506.0239713090655 208.06885104979582 L505.8789635191191 208.30764979570858 L505.7316059505998 208.54424945078298 L505.5819289489973 208.77862871762412 L505.42996302822826 209.0107666912881 L505.27573886581376 209.2406428602542 L505.11928729805686 209.4682371073396 L504.9606393152217 209.69352971055827 L504.7998260567139 209.9165013439228 L504.6368788062635 210.1371330781907 L504.4718289871107 210.3554063815539 L504.3047081571956 210.57130312027311 L504.1355480043516 210.78480555925566 L503.9643803415041 210.99589636257838 L503.7912371018744 211.20455859395494 L503.6161503341897 211.41077571714774 L503.43915219789983 211.61453159632538 L503.26027495840134 211.8158104963647 L503.07955098226904 212.01459708309886 L502.89701273249676 212.21087642351057 L502.7126927637463 212.4046339858716 L502.52662371760675 212.59585563982822 L502.33883831786375 212.7845276564328 L502.1493693657793 212.97063670812247 L501.9582497353837 213.1541698686443 L501.76551236877856 213.33511461292716 L501.5711902714531 213.5134588169022 L501.3753165076132 213.68919075726924 L501.17792419552393 213.86229911121268 L500.97904650286677 214.03277295606432 L500.77871664211125 214.20060176891536 L500.5769678659019 214.3657754261769 L500.3738334624612 214.52828420308938 L500.1693467510092 214.68811877318151 L499.9635410771989 214.84527020767882 L499.75644980857084 214.99972997486194 L499.5481063300242 215.15148993937547 L499.338544039307 215.30054236148715 L499.1277963425254 215.44687989629807 L498.9158966496721 215.5904955929041 L498.7028783701753 215.73138289350874 L498.4887749084676 215.86953563248835 L498.27361965957624 216.00494803540877 L498.0574460047352 216.13761471799558 L497.84028730701823 216.26753068505639 L497.6221769069956 216.39469132935716 L497.4031481184126 216.5190924304517 L497.18323422389255 216.64073015346563 L496.9624684706629 216.7596010478341 L496.7408840663057 216.87570204599547 L496.51851417453355 216.9890304620387 L496.29539191098974 217.0995839903076 L496.07155033907503 217.20736070396012 L495.84702246579974 217.3123590534847 L495.62184123766275 217.4145778651728 L495.39603953655774 217.51401633954865 L495.1696501757061 217.61067404975708 L494.94270589561825 217.70455093990867 L494.7152393600827 217.79564732338355 L494.4872831521842 217.883963881094 L494.2588697703505 217.96950165970614 L494.0300316244284 218.0522620698215 L493.80080103179006 218.13224688411833 L493.5712102134693 218.20945823545355 L493.341291290328 218.28389861492573 L493.1110762792537 218.35557086989925 L492.88059708938886 218.42447820199027 L492.64988551839105 218.49062416501505 L492.4189732487254 218.55401266290093 L492.18789184398963 218.61464794756034 L491.95667274527113 218.67253461672857 L491.7253472675377 218.72767761176533 L491.49394659606094 218.78008221542112 L491.26250178287387 218.82975404956832 L491.0310437432623 218.87669907289765 L490.79960325229 218.92092357858093 L490.5682109413594 218.96243419189955 L490.3368972948059 219.0012378678404 L490.10569264652867 219.03734188865855 L489.8746271766559 219.0707538614081 L489.6437309082459 219.10148171544108 L489.41303370402517 219.12953369987497 L489.18256526316094 219.15491838102977 L488.9523551180719 219.17764463983428 L488.722432631275 219.19772166920293 L488.49282699226916 219.21515897138303 L488.2635672144565 219.22996635527326 L488.03468213210084 219.24215393371384 L487.8062003973244 219.25173212074858 L487.578150477142 219.25871162885971 L487.35056065053357 219.26310346617595 L487.12345900555505 219.26491893365375 L486.896873436488 219.26416962223294 L486.67083164102814 219.2608674099671 L486.44536111751245 219.2550244591284 L486.22048916218546 219.2466532132888 L485.9962428665059 219.2357663943767 L485.77264911449146 219.22237699971046 L485.54973458010426 219.20649829900907 L485.3275257246758 219.18814383138005 L485.10604879437227 219.16732740228593 L484.88532981769947 219.14406308048888 L484.6653946030489 219.11836519497456 L484.4462687362833 219.09024833185583 L484.22797757836406 219.05972733125614 L484.010546263018 219.0268172841738 L483.7939996944462 218.9915335293273 L483.5783625450731 218.95389164998215 L483.3636592533369 218.91390747076005 L483.14991402152134 218.87159705443042 L482.9371508136283 218.8269766986853 L482.7253933532925 218.78006293289775 L482.51466512173675 218.73087251486442 L482.30498935576986 218.67942242753278 L482.09638904582494 218.62572987571357 L481.8888869340408 218.56981228277868 L481.68250551238367 218.51168728734552 L481.4772670208117 218.45137273994783 L481.27319344548135 218.3888866996936 L481.07030651699506 218.3242474309109 L480.8686277086912 218.2574733997818 L480.66817823497615 218.18858327096467 L480.4689790496987 218.11759590420624 L480.2710508445654 218.0445303509427 L480.0744140475989 217.96940585089138 L479.8790888216385 217.89224182863302 L479.6850950628818 217.81305789018512 L479.49245239946947 217.73187381956697 L479.3011801901115 217.6487095753569 L479.1112975227555 217.5635852872421 L478.92282321329753 217.4765212525617 L478.73577580433437 217.38753793284332 L478.5501735639582 217.29665595033376 L478.36603448459294 217.20389608452447 L478.18337628187277 217.1092792686719 L478.0022163935624 217.01282658631368 L477.822571978519 216.9145592677803 L477.6444599156967 216.81449868670418 L477.46789680319137 216.71266635652503 L477.2928989573284 216.609083926993 L477.1194824117916 216.50377318066987 L476.9476629167933 216.39675602942847 L476.7774559382864 216.28805451095127 L476.608876657217 216.17769078522804 L476.44193996881955 216.0656871310537 L476.27666048195175 215.9520659425263 L476.1130525184713 215.8368497255458 L475.9511301126535 215.720061094314 L475.79090701064985 215.60172276783652 L475.6323966699864 215.4818575664265 L475.47561225910437 215.36048840821113 L475.32056665693955 215.2376383056413 L475.16727245254344 215.11333036200466 L475.01574194474347 214.9875877679427 L474.86598714184396 214.86043379797204 L474.718019761367 214.7318918070109 L474.5718512298328 214.6019852269107 L474.42749268257967 214.47073756299312 L474.284954963624 214.33817239059385 L474.1442486255587 214.2043133516124 L474.00538392949164 214.0691841510693 L473.86837084502224 213.93280855367038 L473.73321905025745 213.79521038037936 L473.5999379318664 213.65641350499834 L473.46853658517267 213.51644185075702 L473.33902381428567 213.37531938691123 L473.2114081322697 213.2330701253508 L473.0856977613508 213.08971811721747 L472.9619006331615 212.94528744953303 L472.8400243890226 212.79980224183805 L472.7200763802624 212.65328664284218 L472.60206366857346 212.5057648270855 L472.4859930264049 212.35726099161195 L472.3718709373926 212.20779935265503 L472.2597035968249 212.05740414233634 L472.149496912145 211.90609960537694 L472.0412565034886 211.7539099958221 L471.93498770425776 211.60085957378024 L471.83069556173 211.4469726021756 L471.7283848377025 211.29227334351575 L471.6280600091711 211.13678605667366 L471.52972526904443 210.98053499368555 L471.43338452689216 210.823544396564 L471.339041409727 210.6658384941268 L471.2466992628215 210.50744149884287 L471.1563611505578 210.34837760369385 L471.0680298573111 210.18867097905365 L470.98170788836586 210.02834576958466 L470.8973974708652 209.86742609115174 L470.8151005547928 209.70593602775466 L470.7348188139869 209.54389962847816 L470.65655364718623 209.38134090446118 L470.58030617910794 209.2182838258848 L470.5060772615568 209.05475231897967 L470.4338674745654 208.8907702630525 L470.3636771275654 208.7263614875332 L470.2955062605889 208.56154976904142 L470.2293546455009 208.39635882847435 L470.1652217872604 208.23081232811435 L470.10310692521256 208.06493386875871 L470.0430090344087 207.89874698686978 L469.98492682695695 207.73227515174747 L469.9288587533998 207.56554176272306 L469.87480300412165 207.39857014637565 L469.8227575107832 207.23138355377077 L469.77271994778465 207.06400515772177 L469.72468773375505 206.89645805007422 L469.67865803307006 206.72876523901334 L469.63462775739566 206.5609496463953 L469.59259356725846 206.39303410510166 L469.55255187364236 206.22504135641833 L469.51449883961055 206.0569940474382 L469.4784303819537 205.88891472848883 L469.44434217286215 205.7208258505841 L469.4122296416241 205.5527497629011 L469.3820879763474 205.3847087102824 L469.35391212570573 205.21672483076284 L469.3276968007084 205.04882015312285 L469.3034364764938 204.88101659446647 L469.28112539414576 204.71333595782642 L469.2607575625326 204.5457999297941 L469.24232676016845 204.37843007817708 L469.225826537097 204.2112478496821 L469.21125021679654 204.0442745676258 L469.1985908981062 203.87753142967128 L469.18784145717376 203.71103950559248 L469.1789945494233 203.5448197350656 L469.1720426115438 203.37889292548783 L469.1669778634971 203.2132797498236 L469.1637923105457 203.04800074447886 L469.1624777452998 202.88307630720294 L469.1630257497825 202.7185266950186 L469.16542769751464 202.55437202218008 L469.1696747556167 202.39063225815985 L469.17575788692875 202.22732722566343 L469.1836678521479 202.06447659867288 L469.1933952119829 201.90209990051935 L469.2049303293248 201.74021650198375 L469.2182633714344 201.57884561942743 L469.2333843121456 201.4180063129508 L469.25028293408394 201.25771748458203 L469.2689488309009 201.0979978764946 L469.2893714095222 200.93886606925423 L469.31153989241136 200.78034048009576 L469.33544331984695 200.6224393612288 L469.3610705522135 200.46518079817403 L469.388410272306 200.3085827081285 L469.41745098764716 200.152662838361 L469.4481810328175 199.99743876463765 L469.4805885717974 199.84292788967696 L469.51466160032146 199.6891474416354 L469.5503879482438 199.53611447262287 L469.587755281915 199.3838458572482 L469.6267511065698 199.23235829119534 L469.66736276872473 199.08166828982942 L469.70957745858635 198.93179218683323 L469.753382212469 198.78274613287428 L469.7987639152214 198.63454609430184 L469.84570930266335 198.487207851875 L469.89420496402954 198.34074699952063 L469.9442373444228 198.19517894312233 L469.99579274727455 198.05051889933944 L470.048857336813 197.90678189445688 L470.10341714053845 197.7639827632655 L470.1594580517053 197.622136147973 L470.21696583181057 197.48125649714513 L470.2759261130884 197.34135806467788 L470.33632440101024 197.20245490879987 L470.3981460767905 197.06456089110557 L470.46137639989706 196.92768967561872 L470.5260005105664 196.79185472788657 L470.5920034323231 196.65706931410463 L470.65937007450316 196.52334650027151 L470.728085234781 196.39069915137452 L470.79813360169953 196.25913993060584 L470.86949975720313 196.1286812986087 L470.9421681791733 195.99933551275393 L471.01612324396604 195.87111462644728 L471.0913492289518 195.7440304884662 L471.16783031505605 195.61809474232774 L471.2455505893015 195.49331882568572 L471.3244940473511 195.36971396975855 L471.4046445960512 195.24729119878688 L471.48598605597516 195.12606132952118 L471.5685021639664 195.00603497073942 L471.6521765756811 194.88722252279416 L471.73699286812985 194.76963417718974 L471.82293454221843 194.653279916189 L471.9099850252863 194.53816951244957 L471.99812767364403 194.4243125286896 L472.0873457751078 194.31171831738297 L472.1776225515318 194.20039602048377 L472.2689411613377 194.09035456917996 L472.3612847020407 193.9816026836761 L472.45463621277196 193.87414887300514 L472.548978676798 193.76800143486915 L472.6442950240348 193.6631684555086 L472.74056813355844 193.55965780960062 L472.83778083610997 193.45747716018545 L472.9359159165964 193.3566339586216 L473.03495611658514 193.25713544456914 L473.13488413679335 193.1589886460014 L473.23568263957117 193.06220037924425 L473.33733425137865 192.96677724904367 L473.43982156525595 192.87272564866103 L473.54312714328677 192.78005175999598 L473.64723351905445 192.68876155373664 L473.7521232000907 192.5988607895372 L473.85777867031646 192.51035501622317 L473.9641823924747 192.4232495720229 L474.0713168105549 192.3375495848265 L474.17916435220866 192.2532599724712 L474.2877074311569 192.17038544305382 L474.3969284495873 192.08893049526864 L474.5068098005423 192.00889941877261 L474.6173338702982 191.9302962945758 L474.7284830407326 191.8531249954583 L474.8402396916834 191.77738918641222 L474.9525862032958 191.70309232511002 L475.0655049583593 191.63023766239752 L475.17897834463326 191.5588282428124 L475.2929887571611 191.48886690512785 L475.40751860057316 191.42035628292047 L475.52255029137757 191.3532988051634 L475.63806626023904 191.28769669684368 L475.75404895424504 191.2235519796035 L475.87048083915994 191.1608664724062 L475.9873444016659 191.0996417922252 L476.1046221515907 191.03987935475755 L476.2222966241227 190.98158037516 L476.3403503820115 190.924745868809 L476.4587660177555 190.8693766520833 L476.5775261557756 190.8154733431696 L476.69661345457354 190.7630363628906 L476.81601060887726 190.7120659355556 L476.93570035177066 190.66256208983322 L477.0556654568087 190.61452465964607 L477.1758887401178 190.5679532850871 L477.2963530624801 190.5228474133576 L477.4170413314032 190.47920629972626 L477.53793650317357 190.4370290085096 L477.6590215848942 190.3963144140729 L477.78027963650624 190.35706120185213 L477.90169377279415 190.31926786939587 L478.02324716537464 190.28293272742758 L478.1449230446688 190.2480539009277 L478.26670470185707 190.2146293302357 L478.3885754908179 190.1826567721711 L478.51051883004834 190.15213380117405 L478.6325182045679 190.12305781046476 L478.7545571678043 190.09542601322167 L478.87661934346227 190.0692354437781 L478.99868842737334 190.04448295883708 L479.12074818932837 190.02116523870427 L479.24278247489184 189.99927878853856 L479.3647752071973 189.9788199396202 L479.48671038872465 189.95978485063614 L479.6085721030584 189.9421695089824 L479.73034451662767 189.92596973208322 L479.85201188042646 189.9111811687266 L479.97355853171547 189.8977993004163 L480.0949688957041 189.88581944273946 L480.2162274872135 189.8752367467504 L480.3373189123198 189.86604620036957 L480.4582278699779 189.85824262979781 L480.5789391536253 189.85182070094575 L480.69943765276594 189.84677492087752 L480.8197083545345 189.84309963926944 L480.93973634524 189.84078904988232 L481.05950681188943 189.8398371920482 L481.17900504369095 189.8402379521705 L481.2982164335368 189.8419850652374 L481.4171264794652 189.84507211634892 L481.5357207861021 189.8494925422562 L481.653985066082 189.85523963291388 L481.7719051414476 189.86230653304474 L481.8894669450289 189.87068624371622 L482.0066565218011 189.8803716239289 L482.12346003022157 189.89135539221672 L482.23986374354496 189.90363012825807 L482.3558540511181 189.91718827449836 L482.47141745965274 189.93202213778298 L482.58654059447696 189.94812389100107 L482.7012102007654 189.96548557473918 L482.8154131447478 189.9840990989452 L482.9291364148959 190.0039562446018 L483.0423671230886 190.0250486654094 L483.15509250575536 190.04736788947824 L483.26729992499827 190.0709053210293 L483.37897686969154 190.095652242104 L483.4901109565599 190.12159981428206 L483.60068993123434 190.14873908040775 L483.71070166928655 190.17706096632358 L483.8201341772409 190.20655628261187 L483.9289755935647 190.23721572634346 L484.0372141896362 190.26902988283362 L484.14483837069054 190.30198922740442 L484.2518366767438 190.33608412715387 L484.3581977834945 190.37130484273126 L484.4639105032036 190.40764153011838 L484.5689637855514 190.44508424241647 L484.67334671847334 190.4836229316387 L484.77704852897284 190.5232474505077 L484.88005858391233 190.56394755425816 L484.9823663907817 190.60571290244397 L485.08396159844517 190.6485330607498 L485.1848339978654 190.69239750280684 L485.2849735228056 190.73729561201233 L485.3843702505099 190.7832166833529 L485.4830144023606 190.8301499252309 L485.5808963445142 190.8780844612944 L485.67800658851485 190.92700933226948 L485.7743357918859 190.97691349779532 L485.8698747586989 191.02778583826174 L485.96461444012124 191.07961515664869 L486.0585459349412 191.13239018036757 L486.15166049007127 191.18609956310414 L486.2439495010293 191.24073188666267 L486.3354045123981 191.29627566281144 L486.42601721826264 191.3527193351287 L486.5157794626257 191.41005128084936 L486.6046832398018 191.46825981271206 L486.6927206947892 191.5273331808062 L486.77988412362026 191.587259574419 L486.8661659736899 191.64802712388172 L486.95155884406313 191.70962390241584 L487.0360554857602 191.7720379279778 L487.11964880202106 191.8352571651029 L487.2023318485476 191.8992695267476 L487.28409783372547 191.9640628761305 L487.36494011882377 192.0296250285713 L487.4448522181739 192.09594375332748 L487.52382779932753 192.16300677542907 L487.60186068319314 192.2308017775105 L487.67894484415143 192.29931640163989 L487.75507441015066 192.36853825114514 L487.83024366277994 192.438454892437 L487.9044470373231 192.50905385682844 L487.9776791227909 192.5803226423505 L488.0499346619332 192.652248715564 L488.1212085512305 192.72481951336744 L488.19149584086523 192.79802244480015 L488.26079173467286 192.87184489284124 L488.3290915900724 192.94627421620325 L488.3963909179772 193.02129775112147 L488.46268538268606 193.09690281313735 L488.5279708017538 193.17307669887683 L488.5922431458426 193.24980668782297 L488.65549853855345 193.32708004408266 L488.71773325623843 193.40488401814733 L488.7789437277929 193.48320584864717 L488.8391265344294 193.56203276409926 L488.8982784094313 193.6413519846486 L488.9563962378882 193.72115072380254 L489.013477056412 193.80141619015785 L489.06951805283427 193.88213558912096 L489.12451656588513 193.96329612462023 L489.17847008485325 194.04488500081084 L489.2313762492275 194.12688942377173 L489.28323284832055 194.2092966031945 L489.33403782087424 194.29209375406424 L489.3837892546466 194.3752680983314 L489.4324853859816 194.45880686657588 L489.48012459936035 194.5426972996617 L489.5267054269357 194.6269266503828 L489.5722265480484 194.71148218509998 L489.61668678872667 194.7963511853682 L489.6600851211682 194.88152094955458 L489.7024206632053 194.96697879444682 L489.7436926777533 195.05271205685133 L489.7839005722416 195.1387080951821 L489.82304389802914 195.22495429103867 L489.8611223498029 195.31143805077423 L489.8981357649597 195.39814680705322 L489.93408412297305 195.48506802039793 L489.9689675447429 195.57218918072473 L490.00278629193025 195.65949780886913 L490.0355407662762 195.7469814580997 L490.067231508905 195.83462771562083 L490.0978591996123 195.9224242040641 L490.12742465613803 196.0103585829679 L490.1559288334246 196.09841855024573 L490.1833728228598 196.18659184364228 L490.20975785150534 196.27486624217772 L490.2350852813114 196.3632295675799 L490.25935660831584 196.45166968570422 L490.2825734618302 196.5401745079413 L490.30473760361156 196.62873199261173 L490.3258509270201 196.71733014634884 L490.3459154561638 196.80595702546808 L490.3649333450295 196.89460073732377 L490.3829068766 196.983249441653 L490.39983846195946 197.07189135190617 L490.4157306393846 197.16051473656438 L490.43058607342414 197.24910792044352 L490.4444075539649 197.33765928598476 L490.45719799528626 197.42615727453162 L490.4689604351022 197.51459038759333 L490.4796980335912 197.60294718809413 L490.48941407241455 197.69121630160936 L490.4981119537228 197.77938641758658 L490.5057951991512 197.86744629055352 L490.51246744880353 197.95538474131143 L490.518132460225 198.04319065811399 L490.52279410736435 198.13085299783225 L490.52645637952503 198.2183607871049 L490.5291233803063 198.30570312347393 L490.53079932653367 198.39286917650583 L490.5314885471792 198.479848188898 L490.5311954822724 198.56662947757036 L490.5299246818005 198.65320243474227 L490.5276808046002 198.73955652899403 L490.5244686172392 198.82568130631415 L490.5202929928892 198.9115663911307 L490.5151589101893 198.99720148732817 L490.5090714521015 199.08257637924874 L490.50203580475653 199.16768093267845 L490.4940572562923 199.2525050958179 L490.4851411956835 199.33703890023767 L490.4752931115634 199.42127246181835 L490.46451859103786 199.50519598167483 L490.4528233184918 199.58879974706517 L490.44021307438794 199.67207413228397 L490.42669373405863 199.75500959953993 L490.41227126649056 199.83759669981774 L490.39695173310236 199.9198260737243 L490.38074128651607 200.0016884523191 L490.36364616932156 200.0831746579288 L490.34567271283515 200.1642756049459 L490.32682733585193 200.24498230061184 L490.3071165433923 200.32528584578358 L490.28654692544245 200.40517743568478 L490.26512515569027 200.48464836064076 L490.2428579902549 200.56369000679766 L490.2197522664116 200.64229385682512 L490.1958149013121 200.72045149060366 L490.1710528906996 200.7981545858952 L490.1454733076197 200.87539491899813 L490.11908330112647 200.95216436538604 L490.09189009498505 201.02845490033027 L490.0639009863699 201.1042585995067 L490.0351233445592 201.17956763958585 L490.0055646096259 201.25437429880753 L489.9752322911252 201.32867095753895 L489.9441339667793 201.40245009881676 L489.9122772811583 201.4757043088732 L489.8796699443592 201.54842627764575 L489.84631973068133 201.62060879927114 L489.8122344773006 201.69224477256293 L489.77742208294006 201.76332720147306 L489.74189050653945 201.8338491955375 L489.70564776592244 201.9038039703056 L489.66870193646224 201.97318484775357 L489.6310611497457 202.04198525668195 L489.5927335922361 202.11019873309692 L489.55372750393474 202.17781892057576 L489.51405117704195 202.24483957061636 L489.4737129546164 202.3112545429708 L489.43272122923497 202.3770578059628 L489.3910844416514 202.44224343678988 L489.3488110794549 202.50680562180895 L489.30590967572897 202.57073865680667 L489.26238880771 202.63403694725375 L489.2182570954463 202.6966950085437 L489.1735232004576 202.75870746621578 L489.1281958243954 202.8200690561624 L489.0822837077037 202.88077462482067 L489.03579562828116 202.94081912934897 L488.98874040014425 203.0001976377872 L488.9411268720918 203.05890532920245 L488.8929639263707 203.1169374938186 L488.84426047734433 203.17428953313086 L488.7950254701615 203.23095696000505 L488.7452678794281 203.28693539876144 L488.6949967078814 203.34222058524375 L488.6442209850656 203.39680836687273 L488.59294976601086 203.45069470268467 L488.5411921299147 203.50387566335525 L488.4889571788258 203.55634743120817 L488.4362540363318 203.60810630020896 L488.3830918462491 203.6591486759442 L488.3294797713171 203.70947107558578 L488.27542699189513 203.75907012784057 L488.2209427046633 203.80794257288568 L488.1660361213272 203.85608526228904 L488.1107164673266 203.90349515891577 L488.05499298054804 203.95016933681987 L487.9988749100419 203.99610498112204 L487.94237151474357 204.041299387873 L487.88549206219983 204.08574996390297 L487.82824582729904 204.12945422665703 L487.77064209100695 204.17240980401652 L487.71269013910717 204.2146144341066 L487.65439926094666 204.2560659650902 L487.5957787481868 204.29676235494816 L487.5368378935599 204.336701671246 L487.4775859896308 204.37588209088682 L487.41803232756496 204.41430189985144 L487.35818619590145 204.45195949292463 L487.298056879333 204.48885337340857 L487.237653657491 204.52498215282307 L487.1769858037378 204.56034455059293 L487.1160625839647 204.5949393937222 L487.0548932553968 204.62876561645578 L486.9934870654043 204.66182225992844 L486.93185325032056 204.69410847180112 L486.8700010342674 204.72562350588484 L486.8079396279868 204.75636672175222 L486.74567822768046 204.7863375843367 L486.68322601385586 204.81553566351982 L486.62059215018036 204.84396063370616 L486.5577857823424 204.8716122733867 L486.4948160369206 204.89849046469 L486.43169202026013 204.9245951929221 L486.36842281735755 204.94992654609453 L486.3050174907531 204.9744847144409 L486.2414850794312 204.99826998992236 L486.1778345977293 205.0212827657215 L486.1140750342549 205.04352353572554 L486.05021535081056 205.06499289399804 L485.9862644813285 205.08569153424023 L485.9222313308121 205.10562024924133 L485.858124774288 205.12477993031823 L485.79395365576545 205.14317156674474 L485.7297267872054 205.16079624517053 L485.6654529474983 205.1776551490296 L485.60114088145104 205.19374955793896 L485.53679929878297 205.20908084708688 L485.47243687313136 205.2236504866117 L485.4080622410661 205.23746004097052 L485.34368400111373 205.2505111682986 L485.27931071279147 205.26280561975898 L485.21495089564996 205.27434523888303 L485.150613028327 205.2851319609014 L485.08630554760964 205.29516781206627 L485.02203684750725 205.30445490896443 L484.95781527833395 205.3129954578215 L484.89364914580125 205.32079175379752 L484.82954671012055 205.32784618027395 L484.76551618511627 205.33416120813234 L484.7015657373487 205.33973939502442 L484.6377034852473 205.34458338463435 L484.57393749825474 205.34869590593286 L484.51027579598065 205.3520797724232 L484.44672634736673 205.3547378813799 L484.38329706986144 205.3566732130793 L484.3199958286064 205.35788883002306 L484.2568304356324 205.3583878761541 L484.1938086490671 205.35817357606544 L484.13093817235267 205.35724923420176 L484.06822665347505 205.3556182340544 L484.0056816842035 205.35328403734914 L483.94331079934153 205.3502501832278 L483.88112147598844 205.34652028742278 L483.81912113281226 205.34209804142577 L483.7573171293336 205.33698721164976 L483.6957167652209 205.33119163858532 L483.6343272795961 205.32471523595075 L483.57315585035263 205.31756198983635 L483.51220959348376 205.30973595784317 L483.4514955624228 205.3012412682162 L483.3910207473941 205.292082118972 L483.3307920747763 205.28226277702132 L483.2708164064757 205.27178757728646 L483.2111005393124 205.26066092181367 L483.1516512044167 205.24888727888072 L483.09247506663826 205.23647118209985 L483.03357872396543 205.22341722951612 L482.97496870695704 205.20973008270124 L482.91665147818543 205.1954144658434 L482.8586334316912 205.18047516483276 L482.8009208924492 205.1649170263428 L482.74352011584665 205.14874495690836 L482.6864372871725 205.13196392199944 L482.62967852111854 205.11457894509164 L482.57324986129237 205.0965951067332 L482.51715727974164 205.07801754360864 L482.4614066764904 205.05885144759947 L482.40600387908677 205.0391020648416 L482.3509546421626 205.01877469478003 L482.2962646470046 204.9978746892209 L482.2419395011373 204.9764074513808 L482.18798473791793 204.95437843493357 L482.13440581614213 204.93179314305496 L482.0812081196627 204.90865712746512 L482.0283969570189 204.88497598746872 L481.9759775610781 204.86075536899367 L481.92395508868873 204.83600096362755 L481.87233462034516 204.81071850765284 L481.8211211598643 204.78491378108026 L481.77031963407336 204.7585926066812 L481.71993489251025 204.73176084901846 L481.6699717071344 204.7044244134762 L481.62043477205003 204.67658924528874 L481.5713287032409 204.64826132856876 L481.52265803831637 204.61944668533454 L481.47442723626926 204.59015137453682 L481.4266406772453 204.56038149108522 L481.37930266232365 204.53014316487415 L481.33241741330966 204.49944255980887 L481.2859890725385 204.46828587283133 L481.2400217026904 204.436679332946 L481.1945192866175 204.4046292002462 L481.1494857271817 204.3721417649405 L481.1049248471044 204.33922334637978 L481.0608403888271 204.30588029208477 L481.0172360143833 204.27211897677438 L480.9741153052822 204.23794580139497 L480.931481762403 204.2033671921503 L480.88933880590054 204.16838959953296 L480.84768977512243 204.1330194973568 L480.8065379285369 204.09726338179075 L480.7658864436717 204.06112777039408 L480.7257384170644 204.02461920115337 L480.6860968642232 203.98774423152102 L480.6469647195991 203.95050943745576 L480.6083448365687 203.91292141246504 L480.57023998742767 203.87498676664939 L480.53265286339564 203.83671212574913 L480.495586074631 203.7981041301934 L480.45904215025695 203.7591694341513 L480.4230235383983 203.719914704586 L480.3875326062282 203.68034662031118 L480.352571640026 203.64047187105035 L480.31814284524523 203.60029715649904 L480.2842483465922 203.5598291853899 L480.2508901881151 203.51907467456107 L480.21807033330265 203.4780403480275 L480.185790665194 203.43673293605585 L480.15405298649813 203.3951591742425 L480.1228590197234 203.35332580259555 L480.0922104073178 203.31123956461985 L480.0621087118178 203.26890720640625 L480.0325554160089 203.22633547572454 L480.00355192309456 203.18353112112024 L479.97509955687565 203.14050089101556 L479.9471995619394 203.0972515328144 L479.9198531038581 203.05378979201174 L479.89306126939726 203.0101224113072 L479.8668250667332 202.9662561297232 L479.84114542568034 202.92219768172745 L479.81602319792773 202.8779537963604 L479.7914591572845 202.83353119636706 L479.76745399993524 202.78893659733393 L479.7440083447039 202.7441767068306 L479.72112273332687 202.69925822355657 L479.69879763073527 202.6541878364931 L479.67703342534594 202.60897222406004 L479.6558304293612 202.56361805327836 L479.6351888790776 202.51813197893762 L479.6151089352029 202.472520642769 L479.59559068318214 202.42679067262418 L479.57663413353185 202.3809486816593 L479.5582392221827 202.33500126752506 L479.5404058108306 202.28895501156228 L479.5231336872959 202.24281647800356 L479.50642256589094 202.1965922131808 L479.49027208779546 202.15028874473867 L479.4746818214401 202.10391258085417 L479.45965126289764 202.0574702094625 L479.44517983628236 202.010968097489 L479.43126689415686 201.96441269008756 L479.4179117179466 201.91781040988522 L479.40511351836176 201.8711676562334 L479.39287143582703 201.82449080446577 L479.3811845409182 201.77778620516216 L479.3700518348064 201.73106018341988 L479.3594722497095 201.68431903813135 L479.3494446493501 201.6375690412684 L479.33996782942125 201.59081643717377 L479.33104051805856 201.54406744185937 L479.32266137631905 201.49732824231148 L479.3148289986673 201.4506049958031 L479.30754191346716 201.40390382921322 L479.3007985834813 201.35723083835356 L479.294597406376 201.3105920873021 L479.28893671523286 201.26399360774434 L479.2838147790666 201.21744139832148 L479.279229803349 201.1709414239864 L479.27517993053885 201.12449961536646 L479.27166324061784 201.07812186813447 L479.2686777516322 201.03181404238677 L479.26622142024024 200.98558196202896 L479.2642921422653 200.93943141416918 L479.26288775325446 200.89336814851936 L479.26200602904265 200.84739787680385 L479.26164468632163 200.80152627217595 L479.2618013832152 200.7557589686422 L479.26247371985835 200.71010156049462 L479.2636592389824 200.66455960175063 L479.26535542650475 200.61913860560108 L479.26755971212293 200.57384404386607 L479.2702694699144 200.5286813464589 L479.27348201894023 200.48365590085797 L479.27719462385346 200.43877305158668 L479.281404495512 200.39403809970162 L479.2861087915959 200.34945630228856 L479.2913046172285 200.30503287196694 L479.29698902560216 200.2607729764023 L479.30315901860774 200.21668173782695 L479.30981154746803 200.17276423256894 L479.3169435133749 200.1290254905892 L479.32455176813045 200.0854704950272 L479.33263311479163 200.0421041817544 L479.34118430831796 199.99893143893658 L479.35020205622357 199.95595710660416 L479.3596830192315 199.9131859762311 L479.3696238119321 199.87062279032187 L479.38002100344386 199.82827224200727 L479.3908711180777 199.78613897464817 L479.40217063600375 199.74422758144803 L479.4139159939214 199.70254260507375 L479.4261035857317 199.6610885372848 L479.4387297632122 199.61986981857112 L479.4517908366949 199.57889083779926 L479.46528307574596 199.5381559318671 L479.47920270984804 199.49766938536686 L479.4935459290845 199.45743543025694 L479.5083088848264 199.4174582455419 L479.52348769042044 199.3777419569613 L479.5390784218797 199.33829063668662 L479.55507711857575 199.29910830302694 L479.5714797839324 199.26019892014324 L479.58828238612097 199.22156639777077 L479.6054808587578 199.18321459095046 L479.6230711016019 199.14514729976824 L479.6410489812548 199.10736826910346 L479.65941033186147 199.06988118838518 L479.67815095581193 199.0326896913575 L479.6972666244442 198.99579735585286 L479.716753078748 198.9592077035743 L479.7366060300695 198.92292419988564 L479.7568211608163 198.88695025361054 L479.7773941251633 198.8512892168397 L479.79832054975935 198.81594438474667 L479.81959603443346 198.78091899541198 L479.8412161529024 198.7462162296555 L479.8631764534777 198.71183921087746 L479.8854724597731 198.67779100490768 L479.90809967141195 198.644074619863 L479.9310535647348 198.61069300601326 L479.95432959350626 198.57764905565543 L479.97792318962223 198.54494560299602 L480.00182976381654 198.51258542404182 L480.02604470636686 198.48057123649866 L480.0505633878006 198.44890569967873 L480.07538115959983 198.4175914144157 L480.1004933549056 198.38663092298822 L480.12589528922155 198.3560267090514 L480.15158226111635 198.32578119757656 L480.17754955292565 198.29589675479892 L480.2037924314523 198.26637568817318 L480.23030614866616 198.2372202463376 L480.25708594240183 198.20843261908536 L480.28412703705595 198.18001493734445 L480.3114246442823 198.15196927316515 L480.33897396368593 198.1242976397155 L480.3667701835155 198.09700199128454 L480.39480848135366 198.07008422329332 L480.4230840248065 198.04354617231385 L480.45159197219004 198.01738961609558 L480.48032747321577 197.99161627359967 L480.50928566967366 197.9662278050408 L480.5384616961133 197.94122581193665 L480.56785068052267 197.91661183716505 L480.5974477450048 197.8923873650285 L480.6272480064522 197.86855382132606 L480.65724657721876 197.8451125734331 L480.6874385657891 197.82206493038788 L480.71781907744537 197.79941214298591 L480.7483832149317 197.77715540388147 L480.77912607911566 197.7552958476962 L480.81004276964677 197.73383455113526 L480.8411283856126 197.71277253311018 L480.8723780261917 197.6921107548693 L480.9037867913034 197.67185012013496 L480.9353497822546 197.65199147524763 L480.96706210238364 197.63253560931727 L480.99891885770074 197.61348325438144 L481.0309151575249 197.59483508557017 L481.06304611511786 197.57659172127785 L481.09530684831475 197.5587537233415 L481.1276924801504 197.54132159722627 L481.16019813948293 197.52429579221692 L481.1928189616135 197.50767670161648 L481.225550088902 197.49146466295093 L481.2583866713794 197.47565995818076 L481.29132386735625 197.4602628139186 L481.3243568440267 197.44527340165337 L481.35748077806943 197.43069183798067 L481.3906908562441 197.4165181848395 L481.42398227598346 197.40275244975481 L481.45735024598207 197.3893945860867 L481.49078998678 197.37644449328508 L481.5242967313428 197.36390201715082 L481.5578657256372 197.35176695010244 L481.59149222920195 197.34003903144887 L481.6251715157147 197.3287179476679 L481.6588988735544 197.31780333269057 L481.6926696063586 197.30729476819081 L481.72647903357705 197.29719178388115 L481.76032249101985 197.2874938578136 L481.79419533140145 197.27820041668636 L481.8280929248796 197.26931083615554 L481.86201065958966 197.2608244411525 L481.895943942174 197.2527405062064 L481.92988819830657 197.24505825577188 L481.9638388732125 197.23777686456205 L481.99779143218285 197.2308954578863 L482.0317413610839 197.22441311199333 L482.06568416686196 197.21832885441904 L482.0996153780428 197.2126416643393 L482.1335305452256 197.2073504729274 L482.1674252415724 197.20245416371657 L482.2012950632917 197.19795157296662 L482.235135630117 197.19384149003565 L482.26894258578 197.1901226577561 L482.3027115984787 197.18679377281515 L482.3364383613396 197.1838534861396 L482.37011859287475 197.18130040328523 L482.40374803743356 197.17913308482989 L482.43732246564855 197.1773500467713 L482.4708376748761 197.1759497609287 L482.5042894896314 197.17493065534833 L482.53767376201756 197.17429111471338 L482.57098637214983 197.17402948075713 L482.604223228573 197.17414405268048 L482.63738026867446 197.17463308757291 L482.6704534590903 197.17549480083716 L482.7034387961066 197.17672736661746 L482.73633230605407 197.1783289182313 L482.7691300456981 197.18029754860473 L482.80182810262164 197.18263131071075 L482.834422595603 197.1853282180113 L482.86690967498765 197.1883862449023 L482.89928552305435 197.19180332716178 L482.9315463543747 197.1955773624013 L482.96368841616726 197.19970621052002 L482.9957079886459 197.20418769416204 L483.02760138536155 197.20901959917637 L483.05936495353836 197.21419967507967 L483.0909950744039 197.21972563552188 L483.1224881635132 197.2255951587542 L483.1538406710665 197.23180588809979 L483.18504908222167 197.23835543242694 L483.2161099173996 197.24524136662458 L483.2470197325843 197.25246123208015 L483.27777511961636 197.26001253715964 L483.30837270648095 197.26789275769002 L483.3388091575888 197.2760993374435 L483.3690811740518 197.28462968862397 L483.3991854939523 197.29348119235547 L483.42911889260597 197.30265119917232 L483.4588781828188 197.31213702951123 L483.488460215138 197.32193597420522 L483.51786187809626 197.3320452949788 L483.54708009845075 197.3424622249453 L483.57611184141473 197.35318396910532 L483.6049541108842 197.36420770484662 L483.6336039496575 197.3755305824457 L483.6620584396494 197.38714972557028 L483.69031470209814 197.3990622317833 L483.7183698977675 197.41126517304795 L483.7462212271416 197.42375559623366 L483.7738659306141 197.43653052362345 L483.80130128867114 197.4495869534217 L483.8285246220682 197.4629218602633 L483.85553329200036 197.47653219572325 L483.88232470026725 197.4904148888271 L483.90889628943086 197.50456684656206 L483.93524554296795 197.51898495438854 L483.96136998541624 197.53366607675247 L483.98726718251396 197.54860705759776 L484.01293474133405 197.56380472087932 L484.03837031041155 197.57925587107633 L484.0635715798654 197.59495729370562 L484.08853628151405 197.61090575583552 L484.11326218898466 197.6270980065994 L484.1377471178169 197.64353077770946 L484.1619889255601 197.66020078397057 L484.1859855118646 197.67710472379363 L484.2097348185674 197.69423927970917 L484.23323482977116 197.71160111888045 L484.2564835719179 197.72918689361626 L484.27947911385627 197.74699324188342 L484.3022195669032 197.76501678781872 L484.32470308489934 197.7832541422405 L484.34692786425893 197.80170190315954 L484.3688921440135 197.8203566562892 L484.39059420584977 197.8392149755551 L484.412032374142 197.85827342360392 L484.433205015978 197.87752855231113 L484.45411054118006 197.8969769032883 L484.4747474023193 197.9166150083889 L484.4951140947249 197.93643939021348 L484.51520915648746 197.95644656261365 L484.5350311684563 197.9766330311947 L484.55457875423195 197.99699529381732 L484.5738505801519 198.01752984109788 L484.5928453552717 198.03823315690735 L484.6115618313399 198.05910171886885 L484.6299988027676 198.08013199885383 L484.64815510659275 198.10132046347658 L484.66602962243843 198.12266357458736 L484.6836212724661 198.1441577897637 L484.7009290213232 198.1657995628001 L484.7179518760855 198.187585344196 L484.73468888619396 198.209511581642 L484.7511391433864 198.23157472050403 L484.76730178162353 198.25377120430582 L484.78317597701033 198.27609747520918 L484.79876094771146 198.29854997449254 L484.81405595386224 198.32112514302716 L484.82906029747375 198.34381942175125 L484.8437733223333 198.366629252142 L484.8581944138995 198.38955107668534 L484.8723229991928 198.41258133934335 L484.88615854668024 198.4357164860194 L484.8997005661559 198.4589529650208 L484.9129486086159 198.48228722751912 " stroke = "blue" stroke-width = "4" fill = "none" /></svg>