<svg width="600" height="400" viewbox = "0 0 600 400"  xmlns="http://www.w3.org/2000/svg">

<!--
<topfunctions>




function YofX(){
    X = plotparams.g*(x - plotparams.x0) - funcparams.X0;
    Y = funcparams.a*X*X*X + funcparams.b*X*X + funcparams.c*X + funcparams.d;
    y = plotparams.y0 - plotparams.G*(Y - funcparams.Y0);
}


function YofX2(){
    X = plotparams.g*(x - plotparams.x0) - funcparams.X0;
    Y = funcparams.b*X*X + funcparams.c*X + funcparams.d;
    y = plotparams.y0 - plotparams.G*(Y - funcparams.Y0);
}

constants = {
}

plotparams = {
    "G":200,//1 unit = 10 pixel
    "g":1,//1 unit equals 1 pixels
    "plotwidth":400,
    "plotheight":400,
    "x0":200,
    "y0":400
}

funcparams = {
    "a":50,
    "b":1,
    "c":10,
    "d":1,
    "X0":0,
    "Y0":0
}

function plotfunction(){

    /*plot one function:*/
    currentStroke = "blue";
    currentLineWidth = 4;
    ctx.strokeStyle = currentStroke;
    ctx.lineWidth = currentLineWidth;
    ctx.beginPath();	
    x = 0;
    YofX();
    currentSVG += "	<path d = \"M";
    currentSVG += Math.round(x).toString() + " ";
    currentSVG += Math.round(y).toString() + " ";
    for(x = 1;x < plotparams.plotwidth;x++){
        ctx.moveTo(x-1,y);
        YofX();
        ctx.lineTo(x,y);
        currentSVG += "L" + x + " " + y + " ";
    }
    ctx.stroke();
    currentSVG += "\""+ " stroke = \"" + currentStroke + "\" stroke-width = \"" + currentLineWidth.toString() + "\" fill = \"" + "none" + "\" "+"/>";
    /*finish plot one function*/
    
    
        /*plot one function:*/
    currentStroke = "red";
    currentLineWidth = 4;
    ctx.strokeStyle = currentStroke;
    ctx.lineWidth = currentLineWidth;
    ctx.beginPath();	
    x = 0;
    YofX2();
    currentSVG += "	<path d = \"M";
    currentSVG += Math.round(x).toString() + " ";
    currentSVG += Math.round(y).toString() + " ";
    for(x = 1;x < plotparams.plotwidth;x++){
        ctx.moveTo(x-1,y);
        YofX2();
        ctx.lineTo(x,y);
        currentSVG += "L" + x + " " + y + " ";
    }
    ctx.stroke();
    currentSVG += "\""+ " stroke = \"" + currentStroke + "\" stroke-width = \"" + currentLineWidth.toString() + "\" fill = \"" + "none" + "\" "+"/>";
    /*finish plot one function*/
    

}


   
   
   
   
   
   
   
   
   


   
   
   
   
   
   
   
   
   
   
   
   
   
   
   
   
   
   

constants = {}
plotparams = {
    "G": 14.864362802414345,
    "g": 0.02853116706110002,
    "plotwidth": 600,
    "plotheight": 400,
    "x0": 300,
    "y0": 200
}
funcparams = {
    "a": 0.11918176537727233,
    "b": 1,
    "c": 0.1,
    "d": 0.1,
    "X0": 0,
    "Y0": 0
}
   

constants = {}
plotparams = {
    "G": 14.864362802414345,
    "g": 0.02853116706110002,
    "plotwidth": 600,
    "plotheight": 400,
    "x0": 300,
    "y0": 200
}
funcparams = {
    "a": 0.11918176537727233,
    "b": 1,
    "c": 0.1,
    "d": 0.1,
    "X0": 0,
    "Y0": 0
}
</topfunctions>
-->

<!--
<imgurl>

</imgurl>
-->

<!--
<currentjson>
{
    "constants": {},
    "imgurl": "",
    "plotparams": {
        "G": 14.864362802414345,
        "g": 0.02853116706110002,
        "plotwidth": 600,
        "plotheight": 400,
        "x0": 300,
        "y0": 200
    },
    "funcparams": {
        "a": 0.11918176537727233,
        "b": 1,
        "c": 0.1,
        "d": 0.1,
        "X0": 0,
        "Y0": 0
    }
}
</currentjson>
-->

<!--
<equation>





<p style="color:blue">

</p><p class="bigeq">
$$
Y = aX^3 + bx^2 + cx + d
$$
</p>
<p></p>

$$
X = g(x - x_0) - X_0
$$
$$
Y = f(X)
$$
    
$$
y = y_0 - G(Y - Y_0)
$$


<p>
    X and Y, and $X_0$ and $Y_0$ in physical units of the System. x and y and x0 and y0 in pixels.  G is in pixels per Y unit and g is in X units per pixel. 
</p>








</equation>
-->
	<path d = "M0 233 L1 229.27888197100717 L2 225.46188509265846 L3 221.69425507699714 L4 217.97574505535636 L5 214.30610815906897 L6 210.68509751946877 L7 207.11246626788866 L8 203.58796753566222 L9 200.11135445412256 L10 196.68238015460278 L11 193.30079776843627 L12 189.96636042695653 L13 186.6788212614963 L14 183.4379334033893 L15 180.2434499839689 L16 177.0951241345677 L17 173.99270898651986 L18 170.935957671158 L19 167.92462331981545 L20 164.95845906382556 L21 162.03721803452174 L22 159.16065336323692 L23 156.3285181813048 L24 153.5405656200584 L25 150.79654881083084 L26 148.09622088495553 L27 145.4393349737659 L28 142.825644208595 L29 140.25490172077627 L30 137.7268606416427 L31 135.24127410252765 L32 132.79789523476467 L33 130.39647716968665 L34 128.0367730386272 L35 125.71853597291914 L36 123.44151910389621 L37 121.2054755628912 L38 119.01015848123782 L39 116.85532099026916 L40 114.7407162213183 L41 112.66609730571892 L42 110.63121737480392 L43 108.63582955990654 L44 106.67968699236023 L45 104.7625428034984 L46 102.88415012465391 L47 101.04426208716039 L48 99.24263182235104 L49 97.47901246155872 L50 95.75315713611727 L51 94.06481897735962 L52 92.413751116619 L53 90.79970668522883 L54 89.22243881452246 L55 87.68170063583293 L56 86.17724528049366 L57 84.70882587983789 L58 83.27619556519863 L59 81.87910746790958 L60 80.51731471930368 L61 79.19057045071436 L62 77.89862779347479 L63 76.64123987891833 L64 75.41815983837819 L65 74.22914080318749 L66 73.07393590467984 L67 71.95229827418811 L68 70.86398104304575 L69 69.80873734258611 L70 68.78632030414235 L71 67.79648305904783 L72 66.83897873863569 L73 65.91356047423918 L74 65.01998139719177 L75 64.15799463882632 L76 63.327353330476654 L77 62.52781060347559 L78 61.75911958915654 L79 61.021033418852824 L80 60.31330522389763 L81 59.635688135624264 L82 58.987935285366035 L83 58.369799804455994 L84 57.7810348242277 L85 57.22139347601427 L86 56.690628891148805 L87 56.188494200964925 L88 55.71474253679571 L89 55.26912702997433 L90 54.85140081183408 L91 54.46131701370831 L92 54.098628766930375 L93 53.763089202833356 L94 53.45445145275065 L95 53.1724686480153 L96 52.91689391996084 L97 52.68748039992042 L98 52.48398121922733 L99 52.306149509214805 L100 52.153738401216145 L101 52.02650102656449 L102 51.924190516593285 L103 51.84656000263567 L104 51.79336261602492 L105 51.76435148809438 L106 51.75927975017726 L107 51.77790053360678 L108 51.81996696971635 L109 51.88523218983906 L110 51.97344932530825 L111 52.084371507457206 L112 52.2177518676192 L113 52.373343537127425 L114 52.55089964731522 L115 52.75017332951583 L116 52.9709177150624 L117 53.212885935288426 L118 53.475831121526966 L119 53.75950640511144 L120 54.063664917375036 L121 54.388059789650924 L122 54.73244415327255 L123 55.096571139573115 L124 55.48019387988589 L125 55.88306550554398 L126 56.30493914788093 L127 56.74556793822978 L128 57.20470500792385 L129 57.68210348829649 L130 58.17751651068093 L131 58.69069720641025 L132 59.22139870681798 L133 59.76937414323734 L134 60.33437664700142 L135 60.91615934944363 L136 61.514475381897256 L137 62.1290778756954 L138 62.75971996217146 L139 63.40615477265874 L140 64.06813543849037 L141 64.7454150909997 L142 65.43774686151997 L143 66.14488388138443 L144 66.86657928192642 L145 67.6025861944791 L146 68.35265775037581 L147 69.11654708094972 L148 69.89400731753423 L149 70.68479159146256 L150 71.48865303406791 L151 72.30534477668364 L152 73.13461995064289 L153 73.97623168727898 L154 74.82993311792525 L155 75.69547737391491 L156 76.57261758658117 L157 77.46110688725736 L158 78.36069840727669 L159 79.27114527797252 L160 80.19220063067803 L161 81.12361759672653 L162 82.06514930745126 L163 83.0165488941855 L164 83.97756948826247 L165 84.94796422101551 L166 85.92748622377783 L167 86.9158886278827 L168 87.91292456466338 L169 88.91834716545316 L170 89.9319095615853 L171 90.95336488439304 L172 91.98246626520964 L173 93.01896683536843 L174 94.06261972620263 L175 95.11317806904546 L176 96.17039499523025 L177 97.23402363609024 L178 98.30381712295869 L179 99.37952858716889 L180 100.46091116005408 L181 101.54771797294752 L182 102.63970215718251 L183 103.73661684409231 L184 104.83821516501011 L185 105.94425025126922 L186 107.05447523420297 L187 108.16864324514455 L188 109.2865074154272 L189 110.40782087638426 L190 111.53233675934896 L191 112.65980819565459 L192 113.78998831663435 L193 114.92263025362155 L194 116.0574871379495 L195 117.19431210095134 L196 118.33285827396044 L197 119.47287878831006 L198 120.61412677533335 L199 121.75635536636375 L200 122.89931769273443 L201 124.04276688577862 L202 125.18645607682964 L203 126.33013839722074 L204 127.47356697828519 L205 128.61649495135623 L206 129.7586754477672 L207 130.89986159885126 L208 132.0398065359417 L209 133.17826339037185 L210 134.31498529347493 L211 135.44972537658415 L212 136.58223677103288 L213 137.71227260815434 L214 138.83958601928177 L215 139.96393013574848 L216 141.08505808888765 L217 142.20272301003263 L218 143.3166780305167 L219 144.42667628167302 L220 145.53247089483494 L221 146.63381500133573 L222 147.7304617325086 L223 148.82216421968684 L224 149.9086755942037 L225 150.98974898739246 L226 152.06513753058638 L227 153.13459435511876 L228 154.19787259232282 L229 155.2547253735318 L230 156.30490583007904 L231 157.34816709329777 L232 158.38426229452122 L233 159.4129445650827 L234 160.43396703631547 L235 161.44708283955276 L236 162.45204510612788 L237 163.44860696737408 L238 164.4365215546246 L239 165.4155419992127 L240 166.38542143247167 L241 167.3459129857348 L242 168.29676979033533 L243 169.2377449776065 L244 170.16859167888157 L245 171.08906302549389 L246 171.9989121487766 L247 172.89789218006305 L248 173.7857562506865 L249 174.66225749198017 L250 175.52714903527738 L251 176.38018401191133 L252 177.22111555321533 L253 178.04969679052266 L254 178.86568085516654 L255 179.66882087848023 L256 180.45886999179706 L257 181.23558132645022 L258 181.998708013773 L259 182.74800318509872 L260 183.48321997176058 L261 184.20411150509184 L262 184.91043091642578 L263 185.6019313370957 L264 186.2783658984348 L265 186.9394877317764 L266 187.58504996845375 L267 188.21480573980008 L268 188.8285081771487 L269 189.42591041183286 L270 190.0067655751858 L271 190.57082679854082 L272 191.11784721323116 L273 191.6475799505901 L274 192.1597781419509 L275 192.65419491864682 L276 193.13058341201113 L277 193.5886967533771 L278 194.02828807407798 L279 194.44911050544704 L280 194.85091717881755 L281 195.23346122552275 L282 195.59649577689595 L283 195.9397739642704 L284 196.2630489189793 L285 196.56607377235602 L286 196.84860165573375 L287 197.1103857004458 L288 197.35117903782537 L289 197.57073479920578 L290 197.7688061159203 L291 197.94514611930217 L292 198.09950794068465 L293 198.23164471140103 L294 198.34130956278455 L295 198.42825562616846 L296 198.49223603288607 L297 198.5330039142706 L298 198.5503124016554 L299 198.5439146263736 L300 198.51356371975857 L301 198.45901281314352 L302 198.38001503786177 L303 198.2763235252465 L304 198.14769140663105 L305 197.99387181334868 L306 197.8146178767326 L307 197.60968272811613 L308 197.37881949883248 L309 197.12178132021498 L310 196.83832132359683 L311 196.52819264031135 L312 196.19114840169175 L313 195.82694173907134 L314 195.43532578378338 L315 195.01605366716112 L316 194.56887852053782 L317 194.09355347524675 L318 193.58983166262118 L319 193.05746621399436 L320 192.4962102606996 L321 191.9058169340701 L322 191.28603936543917 L323 190.63663068614005 L324 189.957344027506 L325 189.2479325208703 L326 188.50814929756623 L327 187.73774748892703 L328 186.93648022628597 L329 186.10410064097633 L330 185.24036186433133 L331 184.3450170276843 L332 183.41781926236843 L333 182.45852169971707 L334 181.4668774710634 L335 180.44263970774074 L336 179.38556154108232 L337 178.29539610242145 L338 177.17189652309133 L339 176.01481593442531 L340 174.82390746775656 L341 173.59892425441842 L342 172.3396194257441 L343 171.0457461130669 L344 169.71705744772007 L345 168.3533065610369 L346 166.9542465843506 L347 165.51963064899448 L348 164.0492118863018 L349 162.54274342760579 L350 160.99997840423978 L351 159.42066994753696 L352 157.80457118883066 L353 156.1514352594541 L354 154.46101529074053 L355 152.7330644140233 L356 150.96733576063554 L357 149.16358246191066 L358 147.32155764918184 L359 145.44101445378234 L360 143.52170600704545 L361 141.56338544030444 L362 139.56580588489257 L363 137.52872047214308 L364 135.45188233338928 L365 133.3350445999644 L366 131.17796040320167 L367 128.98038287443444 L368 126.74206514499592 L369 124.46276034621938 L370 122.1422216094381 L371 119.78020206598536 L372 117.37645484719434 L373 114.9307330843984 L374 112.44278990893075 L375 109.9123784521247 L376 107.33925184531347 L377 104.72316321983033 L378 102.0638657070086 L379 99.36111243818146 L380 96.6146565446822 L381 93.82425115784413 L382 90.98964940900049 L383 88.11060442948452 L384 85.1868693506295 L385 82.21819730376873 L386 79.20434142023541 L387 76.14505483136283 L388 73.04009066848427 L389 69.88920206293304 L390 66.69214214604227 L391 63.44866404914529 L392 60.15852090357549 L393 56.82146584066592 L394 53.437251991749974 L395 50.00563248816093 L396 46.52636046123203 L397 42.99918904229642 L398 39.42387136268752 L399 35.80016055373861 L400 32.12780974678279 L401 28.406572073153455 L402 24.636200664183775 L403 20.816448651207168 L404 16.94706916555677 L405 13.02781533856583 L406 9.058440301567742 L407 5.038697185895643 L408 0.9683391228828384 L409 -3.1528807561373355 L410 -7.3252093198317425 L411 -11.548893436867104 L412 -15.824179975910084 L413 -20.15131580562732 L414 -24.53054779468576 L415 -28.962122811752067 L416 -33.44628772549285 L417 -37.98328940457509 L418 -42.5733747176653 L419 -47.216790533430355 L420 -51.91378372053694 L421 -56.66460114765175 L422 -61.469489683441566 L423 -66.32869619657305 L424 -71.24246755571306 L425 -76.2110506295283 L426 -81.23469228668546 L427 -86.31363939585123 L428 -91.44813882569247 L429 -96.63843744487588 L430 -101.88478212206809 L431 -107.18741972593597 L432 -112.54659712514626 L433 -117.96256118836556 L434 -123.43555878426059 L435 -128.9658367814983 L436 -134.5536420487453 L437 -140.1992214546683 L438 -145.90282186793405 L439 -151.6646901572093 L440 -157.4850731911609 L441 -163.3642178384555 L442 -169.30237096775943 L443 -175.29977944774015 L444 -181.35669014706394 L445 -187.47334993439762 L446 -193.65000567840804 L447 -199.8869042477619 L448 -206.18429251112576 L449 -212.54241733716623 L450 -218.9615255945506 L451 -225.44186415194537 L452 -231.98367987801703 L453 -238.58721964143257 L454 -245.25273031085862 L455 -251.980458754962 L456 -258.770651842409 L457 -265.62355644186715 L458 -272.53941942200265 L459 -279.5184876514825 L460 -286.5610079989732 L461 -293.66722733314145 L462 -300.8373925226543 L463 -308.07175043617804 L464 -315.37054794237986 L465 -322.73403190992633 L466 -330.1624492074842 L467 -337.6560467037201 L468 -345.2150712673008 L469 -352.83976976689314 L470 -360.53038907116354 L471 -368.2871760487792 L472 -376.11037756840653 L473 -384.0002404987126 L474 -391.9570117083638 L475 -399.98093806602685 L476 -408.0722664403686 L477 -416.23124370005576 L478 -424.4581167137552 L479 -432.7531323501337 L480 -441.1165374778577 L481 -449.5485789655942 L482 -458.0495036820099 L483 -466.61955849577134 L484 -475.2589902755451 L485 -483.9680458899985 L486 -492.74697220779797 L487 -501.59601609761023 L488 -510.51542442810205 L489 -519.5054440679402 L490 -528.5663218857911 L491 -537.6983047503217 L492 -546.901639530199 L493 -556.1765730940896 L494 -565.52335231066 L495 -574.9422240485773 L496 -584.4334351765077 L497 -593.9972325631186 L498 -603.6338630770758 L499 -613.3435735870471 L500 -623.1266109616988 L501 -632.9832220696975 L502 -642.9136537797101 L503 -652.9181529604033 L504 -662.9969664804438 L505 -673.1503412084979 L506 -683.3785240132331 L507 -693.681761763316 L508 -704.060301327413 L509 -714.5143895741912 L510 -725.0442733723168 L511 -735.6501995904571 L512 -746.3324150972782 L513 -757.0911667614473 L514 -767.9267014516315 L515 -778.8392660364968 L516 -789.8291073847101 L517 -800.8964723649385 L518 -812.0416078458485 L519 -823.2647606961068 L520 -834.5661777843802 L521 -845.9461059793357 L522 -857.4047921496392 L523 -868.9424831639581 L524 -880.5594258909591 L525 -892.2558671993088 L526 -904.0320539576742 L527 -915.8882330347217 L528 -927.8246512991179 L529 -939.8415556195305 L530 -951.939192864625 L531 -964.1178099030687 L532 -976.3776536035282 L533 -988.7189708346705 L534 -1001.1420084651622 L535 -1013.6470133636699 L536 -1026.2342323988607 L537 -1038.903912439401 L538 -1051.6563003539575 L539 -1064.4916430111969 L540 -1077.4101872797862 L541 -1090.412180028392 L542 -1103.4978681256812 L543 -1116.6674984403205 L544 -1129.9213178409766 L545 -1143.2595731963156 L546 -1156.6825113750047 L547 -1170.1903792457115 L548 -1183.7834236771014 L549 -1197.4618915378421 L550 -1211.2260296965999 L551 -1225.0760850220413 L552 -1239.0123043828337 L553 -1253.0349346476426 L554 -1267.1442226851364 L555 -1281.3404153639808 L556 -1295.6237595528428 L557 -1309.994502120389 L558 -1324.4528899352865 L559 -1338.9991698662016 L560 -1353.6335887818004 L561 -1368.3563935507518 L562 -1383.1678310417203 L563 -1398.0681481233737 L564 -1413.0575916643788 L565 -1428.1364085334017 L566 -1443.3048455991097 L567 -1458.5631497301688 L568 -1473.9115677952468 L569 -1489.3503466630102 L570 -1504.8797332021252 L571 -1520.4999742812588 L572 -1536.2113167690777 L573 -1552.0140075342488 L574 -1567.908293445438 L575 -1583.8944213713132 L576 -1599.972638180541 L577 -1616.1431907417873 L578 -1632.4063259237194 L579 -1648.7622905950043 L580 -1665.2113316243085 L581 -1681.7536958802984 L582 -1698.3896302316407 L583 -1715.1193815470028 L584 -1731.9431966950497 L585 -1748.861322544451 L586 -1765.8740059638717 L587 -1782.9814938219788 L588 -1800.1840329874387 L589 -1817.4818703289184 L590 -1834.875252715085 L591 -1852.3644270146046 L592 -1869.9496400961443 L593 -1887.6311388283711 L594 -1905.4091700799513 L595 -1923.2839807195514 L596 -1941.255817615839 L597 -1959.32492763748 L598 -1977.4915576531403 L599 -1995.755954531489 " stroke = "blue" stroke-width = "4" fill = "none" />	<path d = "M0 -878 L1 -870.5580174909037 L2 -863.3767272527407 L3 -856.2196370145787 L4 -849.0867467764158 L5 -841.978056538253 L6 -834.8935663000902 L7 -827.8332760619273 L8 -820.7971858237646 L9 -813.7852955856018 L10 -806.7976053474391 L11 -799.8341151092764 L12 -792.8948248711135 L13 -785.9797346329508 L14 -779.0888443947881 L15 -772.2221541566252 L16 -765.3796639184625 L17 -758.5613736803001 L18 -751.7672834421375 L19 -744.9973932039746 L20 -738.2517029658119 L21 -731.530212727649 L22 -724.8329224894864 L23 -718.1598322513235 L24 -711.5109420131607 L25 -704.8862517749978 L26 -698.2857615368351 L27 -691.7094712986726 L28 -685.1573810605098 L29 -678.629490822347 L30 -672.1258005841842 L31 -665.6463103460214 L32 -659.1910201078585 L33 -652.759929869696 L34 -646.3530396315333 L35 -639.9703493933706 L36 -633.6118591552078 L37 -627.277568917045 L38 -620.9674786788821 L39 -614.6815884407195 L40 -608.4198982025565 L41 -602.182407964394 L42 -595.9691177262313 L43 -589.7800274880684 L44 -583.6151372499057 L45 -577.4744470117429 L46 -571.3579567735801 L47 -565.2656665354174 L48 -559.1975762972547 L49 -553.1536860590919 L50 -547.1339958209292 L51 -541.1385055827664 L52 -535.1672153446036 L53 -529.220125106441 L54 -523.2972348682781 L55 -517.3985446301156 L56 -511.52405439195275 L57 -505.67376415379 L58 -499.8476739156272 L59 -494.04578367746444 L60 -488.26809343930165 L61 -482.5146032011389 L62 -476.7853129629764 L63 -471.08022272481355 L64 -465.3993324866508 L65 -459.74264224848787 L66 -454.1101520103251 L67 -448.50186177216233 L68 -442.9177715339996 L69 -437.35788129583705 L70 -431.82219105767433 L71 -426.31070081951145 L72 -420.82341058134864 L73 -415.3603203431859 L74 -409.9214301050231 L75 -404.50673986686047 L76 -399.1162496286978 L77 -393.74995939053497 L78 -388.4078691523722 L79 -383.0899789142095 L80 -377.79628867604663 L81 -372.5267984378838 L82 -367.2815081997211 L83 -362.0604179615585 L84 -356.8635277233958 L85 -351.6908374852329 L86 -346.5423472470702 L87 -341.41805700890734 L88 -336.31796677074465 L89 -331.2420765325819 L90 -326.1903862944192 L91 -321.1628960562565 L92 -316.1596058180936 L93 -311.180515579931 L94 -306.2256253417681 L95 -301.29493510360544 L96 -296.3884448654428 L97 -291.50615462728007 L98 -286.64806438911717 L99 -281.81417415095444 L100 -277.0044839127916 L101 -272.2189936746289 L102 -267.4577034364661 L103 -262.7206131983035 L104 -258.0077229601407 L105 -253.31903272197798 L106 -248.6545424838152 L107 -244.01425224565241 L108 -239.39816200748965 L109 -234.80627176932688 L110 -230.23858153116424 L111 -225.6950912930015 L112 -221.1758010548387 L113 -216.6807108166759 L114 -212.20982057851313 L115 -207.76313034035036 L116 -203.3406401021876 L117 -198.94234986402495 L118 -194.5682596258622 L119 -190.21836938769945 L120 -185.89267914953666 L121 -181.59118891137393 L122 -177.31389867321116 L123 -173.0608084350484 L124 -168.83191819688568 L125 -164.62722795872293 L126 -160.44673772056018 L127 -156.29044748239738 L128 -152.15835724423465 L129 -148.05046700607193 L130 -143.9667767679091 L131 -139.9072865297465 L132 -135.87199629158374 L133 -131.86090605342088 L134 -127.87401581525813 L135 -123.9113255770954 L136 -119.97283533893261 L137 -116.05854510076983 L138 -112.16845486260718 L139 -108.30256462444436 L140 -104.46087438628166 L141 -100.64338414811891 L142 -96.85009390995612 L143 -93.08100367179338 L144 -89.33611343363054 L145 -85.61542319546794 L146 -81.91893295730512 L147 -78.24664271914241 L148 -74.5985524809796 L149 -70.97466224281686 L150 -67.37497200465413 L151 -63.79948176649134 L152 -60.248191528328675 L153 -56.72110129016596 L154 -53.21821105200314 L155 -49.73952081384036 L156 -46.28503057567761 L157 -42.85474033751484 L158 -39.44865009935208 L159 -36.06675986118941 L160 -32.709069623026636 L161 -29.37557938486387 L162 -26.06628914670108 L163 -22.781198908538357 L164 -19.520308670375613 L165 -16.283618432212847 L166 -13.071128194050061 L167 -9.88283795588734 L168 -6.718747717724625 L169 -3.578857479561833 L170 -0.46316724139907706 L171 2.628322996763643 L172 5.695613234926412 L173 8.738703473089174 L174 11.7575937112519 L175 14.752283949414647 L176 17.722774187577414 L177 20.669064425740174 L178 23.5911546639029 L179 26.489044902065643 L180 29.36273514022841 L181 32.21222537839114 L182 35.03751561655392 L183 37.83860585471669 L184 40.615496092879425 L185 43.36818633104215 L186 46.09667656920493 L187 48.8009668073677 L188 51.481057045530406 L189 54.13694728369316 L190 56.768637521855936 L191 59.376127760018704 L192 61.959417998181436 L193 64.51850823634419 L194 67.05339847450693 L195 69.56408871266967 L196 72.05057895083245 L197 74.51286918899521 L198 76.95095942715791 L199 79.36484966532066 L200 81.75453990348345 L201 84.12003014164621 L202 86.46132037980892 L203 88.77841061797169 L204 91.07130085613446 L205 93.33999109429719 L206 95.58448133245993 L207 97.8047715706227 L208 100.00086180878546 L209 102.17275204694818 L210 104.32044228511096 L211 106.4439325232737 L212 108.54322276143644 L213 110.6183129995992 L214 112.66920323776195 L215 114.69589347592472 L216 116.69838371408744 L217 118.67667395225021 L218 120.63076419041298 L219 122.5606544285757 L220 124.46634466673846 L221 126.34783490490122 L222 128.20512514306398 L223 130.03821538122673 L224 131.84710561938948 L225 133.63179585755222 L226 135.39228609571495 L227 137.12857633387773 L228 138.84066657204048 L229 140.5285568102032 L230 142.19224704836597 L231 143.83173728652872 L232 145.44702752469146 L233 147.03811776285423 L234 148.60500800101698 L235 150.14769823917973 L236 151.66618847734247 L237 153.16047871550523 L238 154.630568953668 L239 156.07645919183074 L240 157.49814942999348 L241 158.89563966815624 L242 160.268929906319 L243 161.61802014448173 L244 162.94291038264447 L245 164.24360062080723 L246 165.52009085896998 L247 166.77238109713275 L248 168.0004713352955 L249 169.20436157345824 L250 170.384051811621 L251 171.53954204978373 L252 172.6708322879465 L253 173.77792252610925 L254 174.860812764272 L255 175.91950300243474 L256 176.9539932405975 L257 177.96428347876025 L258 178.950373716923 L259 179.91226395508576 L260 180.8499541932485 L261 181.76344443141127 L262 182.65273466957402 L263 183.51782490773675 L264 184.3587151458995 L265 185.17540538406226 L266 185.967895622225 L267 186.73618586038776 L268 187.48027609855052 L269 188.20016633671327 L270 188.89585657487603 L271 189.56734681303877 L272 190.21463705120152 L273 190.83772728936427 L274 191.43661752752703 L275 192.01130776568976 L276 192.56179800385254 L277 193.0880882420153 L278 193.59017848017803 L279 194.06806871834078 L280 194.52175895650353 L281 194.95124919466627 L282 195.35653943282904 L283 195.7376296709918 L284 196.09451990915454 L285 196.42721014731728 L286 196.73570038548004 L287 197.0199906236428 L288 197.28008086180554 L289 197.5159710999683 L290 197.72766133813104 L291 197.9151515762938 L292 198.07844181445654 L293 198.2175320526193 L294 198.33242229078206 L295 198.4231125289448 L296 198.48960276710756 L297 198.53189300527032 L298 198.54998324343308 L299 198.54387348159582 L300 198.51356371975857 L301 198.45905395792133 L302 198.38034419608408 L303 198.27743443424683 L304 198.15032467240957 L305 197.99901491057233 L306 197.82350514873508 L307 197.62379538689783 L308 197.3998856250606 L309 197.15177586322332 L310 196.87946610138607 L311 196.58295633954884 L312 196.26224657771158 L313 195.91733681587434 L314 195.54822705403708 L315 195.15491729219983 L316 194.7374075303626 L317 194.29569776852534 L318 193.8297880066881 L319 193.33967824485086 L320 192.8253684830136 L321 192.28685872117634 L322 191.7241489593391 L323 191.13723919750186 L324 190.52612943566461 L325 189.89081967382737 L326 189.2313099119901 L327 188.54760015015285 L328 187.8396903883156 L329 187.10758062647835 L330 186.35127086464112 L331 185.57076110280386 L332 184.7660513409666 L333 183.93714157912936 L334 183.08403181729213 L335 182.20672205545486 L336 181.30521229361761 L337 180.37950253178036 L338 179.42959276994313 L339 178.4554830081059 L340 177.45717324626864 L341 176.43466348443138 L342 175.38795372259412 L343 174.31704396075688 L344 173.22193419891963 L345 172.1026244370824 L346 170.95911467524513 L347 169.7914049134079 L348 168.59949515157064 L349 167.3833853897334 L350 166.14307562789614 L351 164.8785658660589 L352 163.58985610422167 L353 162.2769463423844 L354 160.93983658054714 L355 159.57852681870992 L356 158.19301705687266 L357 156.7833072950354 L358 155.34939753319816 L359 153.8912877713609 L360 152.40897800952365 L361 150.90246824768641 L362 149.37175848584917 L363 147.81684872401192 L364 146.23773896217466 L365 144.63442920033742 L366 143.00691943850018 L367 141.35520967666292 L368 139.6792999148257 L369 137.97919015298845 L370 136.25488039115118 L371 134.50637062931395 L372 132.7336608674767 L373 130.93675110563944 L374 129.11564134380217 L375 127.27033158196495 L376 125.4008218201277 L377 123.50711205829045 L378 121.58920229645322 L379 119.64709253461596 L380 117.68078277277871 L381 115.69027301094145 L382 113.67556324910421 L383 111.63665348726697 L384 109.5735437254297 L385 107.48623396359248 L386 105.37472420175523 L387 103.23901443991795 L388 101.07910467808071 L389 98.89499491624349 L390 96.68668515440623 L391 94.45417539256897 L392 92.19746563073174 L393 89.91655586889449 L394 87.61144610705723 L395 85.28213634521997 L396 82.92862658338275 L397 80.55091682154548 L398 78.14900705970824 L399 75.72289729787101 L400 73.27258753603377 L401 70.79807777419651 L402 68.29936801235922 L403 65.77645825052201 L404 63.229348488684764 L405 60.65803872684751 L406 58.0625289650103 L407 55.442819203173 L408 52.79890944133575 L409 50.13079967949855 L410 47.438489917661286 L411 44.72198015582401 L412 41.98127039398673 L413 39.21636063214953 L414 36.427250870312264 L415 33.61394110847502 L416 30.77643134663782 L417 27.91472158480053 L418 25.028811822963263 L419 22.118702061126015 L420 19.18439229928879 L421 16.225882537451554 L422 13.243172775614255 L423 10.236263013777034 L424 7.205153251939805 L425 4.1498434901025405 L426 1.0703337282652967 L427 -2.033376033571926 L428 -5.1612857954092135 L429 -8.313395557246452 L430 -11.489705319083669 L431 -14.690215080920922 L432 -17.914924842758182 L433 -21.16383460459545 L434 -24.43694436643267 L435 -27.734254128269924 L436 -31.055763890107187 L437 -34.4014736519444 L438 -37.77138341378168 L439 -41.165493175618934 L440 -44.58380293745623 L441 -48.02631269929353 L442 -51.493022461130664 L443 -54.98393222296792 L444 -58.49904198480522 L445 -62.038351746642434 L446 -65.60186150847966 L447 -69.18957127031695 L448 -72.80148103215419 L449 -76.43759079399132 L450 -80.09790055582863 L451 -83.78241031766595 L452 -87.49112007950322 L453 -91.22402984134044 L454 -94.98113960317767 L455 -98.76244936501496 L456 -102.56795912685209 L457 -106.3976688886894 L458 -110.2515786505266 L459 -114.12968841236386 L460 -118.03199817420114 L461 -121.95850793603842 L462 -125.9092176978757 L463 -129.8841274597129 L464 -133.88323722155008 L465 -137.9065469833874 L466 -141.95405674522465 L467 -146.02576650706186 L468 -150.1216762688992 L469 -154.24178603073642 L470 -158.38609579257354 L471 -162.55460555441084 L472 -166.74731531624815 L473 -170.9642250780854 L474 -175.20533483992267 L475 -179.4706446017599 L476 -183.76015436359717 L477 -188.07386412543434 L478 -192.41177388727158 L479 -196.77388364910883 L480 -201.16019341094608 L481 -205.57070317278334 L482 -210.00541293462067 L483 -214.46432269645794 L484 -218.94743245829505 L485 -223.45474222013235 L486 -227.9862519819696 L487 -232.54196174380684 L488 -237.1218715056441 L489 -241.72598126748142 L490 -246.35429102931863 L491 -251.00680079115574 L492 -255.68351055299297 L493 -260.3844203148304 L494 -265.1095300766676 L495 -269.8588398385049 L496 -274.63234960034214 L497 -279.43005936217946 L498 -284.2519691240165 L499 -289.0980788858538 L500 -293.9683886476911 L501 -298.8628984095283 L502 -303.78160817136563 L503 -308.7245179332029 L504 -313.6916276950402 L505 -318.6829374568772 L506 -323.6984472187145 L507 -328.7381569805517 L508 -333.802066742389 L509 -338.89017650422636 L510 -344.00248626606356 L511 -349.1389960279008 L512 -354.2997057897379 L513 -359.4846155515752 L514 -364.69372531341253 L515 -369.9270350752498 L516 -375.18454483708706 L517 -380.46625459892437 L518 -385.7721643607613 L519 -391.1022741225987 L520 -396.456583884436 L521 -401.8350936462733 L522 -407.2378034081106 L523 -412.66471316994773 L524 -418.11582293178515 L525 -423.59113269362217 L526 -429.0906424554594 L527 -434.61435221729664 L528 -440.162261979134 L529 -445.73437174097126 L530 -451.3306815028086 L531 -456.9511912646459 L532 -462.5959010264828 L533 -468.26481078832023 L534 -473.9579205501574 L535 -479.6752303119947 L536 -485.4167400738319 L537 -491.18244983566933 L538 -496.9723595975065 L539 -502.78646935934364 L540 -508.62477912118095 L541 -514.4872888830182 L542 -520.3739986448555 L543 -526.2849084066927 L544 -532.22001816853 L545 -538.1793279303673 L546 -544.1628376922044 L547 -550.1705474540416 L548 -556.2024572158789 L549 -562.2585669777162 L550 -568.3388767395534 L551 -574.4433865013908 L552 -580.572096263228 L553 -586.7250060250651 L554 -592.9021157869023 L555 -599.1034255487397 L556 -605.3289353105769 L557 -611.5786450724141 L558 -617.8525548342515 L559 -624.1506645960887 L560 -630.4729743579259 L561 -636.8194841197632 L562 -643.1901938816004 L563 -649.5851036434376 L564 -656.004213405275 L565 -662.4475231671122 L566 -668.9150329289495 L567 -675.4067426907865 L568 -681.9226524526238 L569 -688.462762214461 L570 -695.0270719762983 L571 -701.6155817381357 L572 -708.2282914999729 L573 -714.8652012618103 L574 -721.5263110236473 L575 -728.2116207854846 L576 -734.9211305473218 L577 -741.6548403091591 L578 -748.4127500709964 L579 -755.1948598328335 L580 -762.0011695946708 L581 -768.8316793565082 L582 -775.6863891183455 L583 -782.5652988801828 L584 -789.4684086420197 L585 -796.3957184038568 L586 -803.3472281656941 L587 -810.3229379275315 L588 -817.3228476893687 L589 -824.346957451206 L590 -831.3952672130431 L591 -838.4677769748805 L592 -845.5644867367178 L593 -852.6853964985548 L594 -859.8305062603924 L595 -866.9998160222297 L596 -874.1933257840667 L597 -881.411035545904 L598 -888.652945307741 L599 -895.9190550695782 " stroke = "red" stroke-width = "4" fill = "none" /></svg>