<svg width="400" height="400" viewbox = "0 0 400 400"  xmlns="http://www.w3.org/2000/svg">

<!--
<topfunctions>


function xcothx(inputFloat){
    if(inputFloat != 0){
        return inputFloat/Math.tanh(inputFloat);
    }
    else{
        return 1;
    }
}

function yofx(){
    y = plotparams.plotheight - plotparams.G*(funcparams.TN + 0.5*funcparams.T*xcothx( (constants.e*plotparams.g*(x - x0) + constants.h*funcparams.fGHz*1e9)/(2*constants.k*funcparams.T) ) + 0.5*funcparams.T*xcothx( (constants.e*plotparams.g*(x - x0) - constants.h*funcparams.fGHz*1e9)/(2*constants.k*funcparams.T)));
}

function yofx2(){
    y = plotparams.plotheight - plotparams.G*(funcparams.TN +  Math.abs((constants.e*plotparams.g*(x - x0))/(2*constants.k) ));
}

constants = {
    "e":1.6e-19,   //Electron Charge in coulombs
    "k":1.38065e-23,  //Boltzman constant in J/K
    "h":6.63e-34 // Plank constant in J*s
}

plotparams = {
    "G":1,//1 kelvin = 1 pixel
    "g":1e-4,//20 mV equals 200 pixels
    "plotwidth":400,
    "plotheight":400
}

funcparams = {
    "T":77,
    "TN":30,
    "fGHz":6
}




   

</topfunctions>
-->
	<path d = "M0 242 L1 242.54507750565253 L2 242.99247525609871 L3 243.43859581464707 L4 243.88342929254554 L5 244.32696576190116 L6 244.76919525610862 L7 245.21010777028934 L8 245.64969326174082 L9 246.08794165039671 L10 246.5248428192972 L11 246.9603866150702 L12 247.3945628484231 L13 247.8273612946452 L14 248.25877169412084 L15 248.68878375285354 L16 249.1173871430005 L17 249.54457150341847 L18 249.97032644022005 L19 250.39464152734118 L20 250.81750630711946 L21 251.23891029088335 L22 251.6588429595526 L23 252.07729376424936 L24 252.49425212692046 L25 252.90970744097092 L26 253.32364907190794 L27 253.73606635799663 L28 254.14694861092636 L29 254.55628511648817 L30 254.9640651352634 L31 255.37027790332337 L32 255.7749126329399 L33 256.1779585133071 L34 256.5794047112739 L35 256.9792403720884 L36 257.37745462015147 L37 257.77403655978344 L38 258.1689752760002 L39 258.56225983530067 L40 258.9538792864657 L41 259.3438226613664 L42 259.73207897578504 L43 260.1186372302452 L44 260.5034864108536 L45 260.88661549015194 L46 261.26801342797995 L47 261.64766917234834 L48 262.0255716603227 L49 262.40170981891754 L50 262.776072566001 L51 263.14864881120934 L52 263.5194274568722 L53 263.8883973989473 L54 264.25554752796586 L55 264.6208667299875 L56 264.984343887565 L57 265.3459678807193 L58 265.70572758792326 L59 266.0636118870958 L60 266.4196096566052 L61 266.7737097762813 L62 267.12590112843765 L63 267.47617259890217 L64 267.82451307805707 L65 268.1709114618872 L66 268.51535665303777 L67 268.8578375618801 L68 269.19834310758563 L69 269.53686221920896 L70 269.87338383677826 L71 270.2078969123939 L72 270.5403904113351 L73 270.8708533131741 L74 271.1992746128975 L75 271.52564332203525 L76 271.8499484697969 L77 272.17217910421465 L78 272.4923242932927 L79 272.8103731261642 L80 273.12631471425385 L81 273.4401381924466 L82 273.75183272026345 L83 274.0613874830413 L84 274.36879169312033 L85 274.67403459103537 L86 274.97710544671287 L87 275.2779935606734 L88 275.57668826523775 L89 275.873178925739 L90 276.16745494173733 L91 276.4595057482403 L92 276.74932081692606 L93 277.0368896573706 L94 277.32220181827796 L95 277.6052468887143 L96 277.8860144993438 L97 278.1644943236681 L98 278.4406760792676 L99 278.71454952904486 L100 278.9861044824703 L101 279.25533079682884 L102 279.52221837846855 L103 279.78675718404935 L104 280.04893722179384 L105 280.3087485527376 L106 280.5661812919798 L107 280.82122560993434 L108 281.0738717335802 L109 281.3241099477113 L110 281.5719305961853 L111 281.81732408317157 L112 282.06028087439734 L113 282.30079149839213 L114 282.5388465477305 L115 282.77443668027183 L116 283.00755262039786 L117 283.2381851602473 L118 283.4663251609469 L119 283.69196355383895 L120 283.91509134170576 L121 284.13569959998847 L122 284.35377947800293 L123 284.5693222001499 L124 284.7823190671203 L125 284.9927614570951 L126 285.20064082694034 L127 285.4059487133943 L128 285.60867673425054 L129 285.8088165895325 L130 286.0063600626627 L131 286.2012990216232 L132 286.3936254201101 L133 286.58333129867884 L134 286.7704087858823 L135 286.95485009939966 L136 287.1366475471576 L137 287.3157935284411 L138 287.4922805349958 L139 287.66610115212063 L140 287.83724805974987 L141 288.00571403352575 L142 288.17149194585977 L143 288.3345747669838 L144 288.4949555659892 L145 288.6526275118554 L146 288.8075838744665 L147 288.9598180256148 L148 289.10932343999383 L149 289.25609369617735 L150 289.4001224775859 L151 289.5414035734404 L152 289.6799308797021 L153 289.8156983999989 L154 289.9487002465374 L155 290.07893064100125 L156 290.20638391543457 L157 290.33105451311064 L158 290.4529369893859 L159 290.5720260125379 L160 290.6883163645888 L161 290.801802942112 L162 290.91248075702373 L163 291.02034493735755 L164 291.1253907280228 L165 291.22761349154655 L166 291.32700870879785 L167 291.42357197969557 L168 291.5172990238985 L169 291.6081856814781 L170 291.696227913573 L171 291.781421803026 L172 291.8637635550025 L173 291.943249497591 L174 292.01987608238466 L175 292.093639885044 L176 292.1645376058412 L177 292.2325660701848 L178 292.2977222291257 L179 292.3600031598429 L180 292.41940606611064 L181 292.47592827874524 L182 292.52956725603235 L183 292.5803205841338 L184 292.62818597747514 L185 292.6731612791124 L186 292.7152444610781 L187 292.75443362470793 L188 292.79072700094605 L189 292.8241229506299 L190 292.8546199647541 L191 292.8822166647144 L192 292.90691180252935 L193 292.9287042610422 L194 292.9475930541011 L195 292.9635773267186 L196 292.97665635520957 L197 292.9868295473084 L198 292.99409644226455 L199 292.9984567109175 L200 292.99991015574943 L201 292.9984567109175 L202 292.99409644226455 L203 292.9868295473084 L204 292.97665635520957 L205 292.96357732671856 L206 292.9475930541011 L207 292.9287042610422 L208 292.90691180252935 L209 292.8822166647144 L210 292.8546199647541 L211 292.8241229506299 L212 292.79072700094605 L213 292.75443362470793 L214 292.7152444610781 L215 292.6731612791124 L216 292.62818597747514 L217 292.5803205841338 L218 292.52956725603235 L219 292.47592827874524 L220 292.41940606611064 L221 292.3600031598429 L222 292.2977222291257 L223 292.2325660701848 L224 292.1645376058412 L225 292.093639885044 L226 292.01987608238466 L227 291.943249497591 L228 291.8637635550025 L229 291.781421803026 L230 291.696227913573 L231 291.6081856814781 L232 291.5172990238985 L233 291.42357197969557 L234 291.32700870879785 L235 291.22761349154655 L236 291.1253907280228 L237 291.02034493735755 L238 290.91248075702373 L239 290.801802942112 L240 290.68831636458873 L241 290.5720260125379 L242 290.4529369893859 L243 290.33105451311064 L244 290.20638391543457 L245 290.0789306410012 L246 289.9487002465374 L247 289.8156983999989 L248 289.6799308797021 L249 289.5414035734404 L250 289.4001224775859 L251 289.25609369617735 L252 289.10932343999383 L253 288.9598180256148 L254 288.8075838744665 L255 288.6526275118554 L256 288.4949555659892 L257 288.3345747669838 L258 288.17149194585977 L259 288.00571403352575 L260 287.83724805974987 L261 287.66610115212063 L262 287.4922805349958 L263 287.3157935284411 L264 287.1366475471576 L265 286.95485009939966 L266 286.7704087858823 L267 286.58333129867884 L268 286.3936254201101 L269 286.2012990216232 L270 286.0063600626627 L271 285.8088165895325 L272 285.60867673425054 L273 285.4059487133943 L274 285.20064082694034 L275 284.9927614570951 L276 284.7823190671202 L277 284.5693222001499 L278 284.35377947800293 L279 284.13569959998847 L280 283.91509134170576 L281 283.69196355383895 L282 283.4663251609469 L283 283.2381851602473 L284 283.00755262039786 L285 282.77443668027183 L286 282.5388465477305 L287 282.30079149839213 L288 282.06028087439734 L289 281.81732408317157 L290 281.5719305961853 L291 281.3241099477113 L292 281.0738717335802 L293 280.82122560993434 L294 280.5661812919798 L295 280.30874855273754 L296 280.04893722179384 L297 279.78675718404935 L298 279.52221837846855 L299 279.25533079682884 L300 278.9861044824703 L301 278.71454952904486 L302 278.4406760792676 L303 278.1644943236681 L304 277.88601449934384 L305 277.6052468887143 L306 277.32220181827796 L307 277.0368896573706 L308 276.74932081692606 L309 276.4595057482403 L310 276.16745494173733 L311 275.873178925739 L312 275.57668826523775 L313 275.2779935606734 L314 274.97710544671287 L315 274.67403459103537 L316 274.36879169312033 L317 274.0613874830413 L318 273.75183272026345 L319 273.4401381924466 L320 273.1263147142538 L321 272.8103731261642 L322 272.4923242932927 L323 272.17217910421465 L324 271.8499484697969 L325 271.52564332203525 L326 271.1992746128975 L327 270.8708533131741 L328 270.5403904113351 L329 270.2078969123939 L330 269.87338383677826 L331 269.53686221920896 L332 269.19834310758563 L333 268.8578375618801 L334 268.5153566530378 L335 268.1709114618872 L336 267.82451307805707 L337 267.47617259890217 L338 267.12590112843765 L339 266.7737097762813 L340 266.4196096566052 L341 266.0636118870958 L342 265.7057275879232 L343 265.3459678807193 L344 264.984343887565 L345 264.6208667299875 L346 264.25554752796586 L347 263.8883973989473 L348 263.5194274568722 L349 263.14864881120934 L350 262.776072566001 L351 262.40170981891754 L352 262.0255716603227 L353 261.64766917234834 L354 261.26801342797995 L355 260.88661549015194 L356 260.5034864108536 L357 260.1186372302452 L358 259.73207897578504 L359 259.3438226613664 L360 258.9538792864657 L361 258.5622598353007 L362 258.1689752760002 L363 257.77403655978344 L364 257.37745462015147 L365 256.9792403720884 L366 256.5794047112739 L367 256.1779585133071 L368 255.7749126329399 L369 255.37027790332337 L370 254.9640651352634 L371 254.55628511648814 L372 254.14694861092636 L373 253.73606635799663 L374 253.3236490719079 L375 252.90970744097092 L376 252.49425212692046 L377 252.07729376424936 L378 251.6588429595526 L379 251.23891029088335 L380 250.81750630711946 L381 250.39464152734118 L382 249.97032644022005 L383 249.54457150341847 L384 249.1173871430005 L385 248.68878375285354 L386 248.25877169412084 L387 247.8273612946452 L388 247.3945628484231 L389 246.9603866150702 L390 246.5248428192972 L391 246.08794165039671 L392 245.64969326174082 L393 245.21010777028934 L394 244.76919525610862 L395 244.32696576190116 L396 243.88342929254554 L397 243.43859581464707 L398 242.99247525609871 L399 242.5450775056525 " stroke = "black" stroke-width = "2" fill = "none" />	<path d = "M0 254 L1 254.69199290189403 L2 255.27143012349256 L3 255.8508673450911 L4 256.43030456668964 L5 257.0097417882881 L6 257.58917900988666 L7 258.1686162314852 L8 258.7480534530837 L9 259.3274906746822 L10 259.90692789628076 L11 260.48636511787925 L12 261.0658023394778 L13 261.6452395610763 L14 262.2246767826748 L15 262.80411400427334 L16 263.3835512258719 L17 263.9629884474704 L18 264.54242566906896 L19 265.12186289066744 L20 265.701300112266 L21 266.2807373338645 L22 266.860174555463 L23 267.43961177706154 L24 268.0190489986601 L25 268.59848622025856 L26 269.1779234418571 L27 269.75736066345564 L28 270.3367978850541 L29 270.91623510665266 L30 271.4956723282512 L31 272.07510954984974 L32 272.6545467714482 L33 273.23398399304676 L34 273.81342121464525 L35 274.39285843624384 L36 274.9722956578423 L37 275.55173287944086 L38 276.1311701010394 L39 276.7106073226379 L40 277.2900445442364 L41 277.86948176583496 L42 278.44891898743344 L43 279.028356209032 L44 279.6077934306305 L45 280.187230652229 L46 280.76666787382754 L47 281.3461050954261 L48 281.9255423170246 L49 282.5049795386231 L50 283.08441676022164 L51 283.6638539818202 L52 284.2432912034187 L53 284.8227284250172 L54 285.40216564661574 L55 285.9816028682143 L56 286.56104008981276 L57 287.1404773114113 L58 287.71991453300984 L59 288.2993517546083 L60 288.87878897620686 L61 289.4582261978054 L62 290.0376634194039 L63 290.6171006410024 L64 291.19653786260096 L65 291.7759750841995 L66 292.355412305798 L67 292.9348495273965 L68 293.51428674899506 L69 294.0937239705936 L70 294.6731611921921 L71 295.2525984137906 L72 295.83203563538916 L73 296.41147285698764 L74 296.9909100785862 L75 297.5703473001847 L76 298.1497845217832 L77 298.72922174338174 L78 299.3086589649803 L79 299.88809618657876 L80 300.4675334081773 L81 301.04697062977584 L82 301.6264078513743 L83 302.20584507297286 L84 302.7852822945714 L85 303.36471951616994 L86 303.9441567377685 L87 304.52359395936696 L88 305.1030311809655 L89 305.68246840256404 L90 306.2619056241625 L91 306.84134284576106 L92 307.4207800673596 L93 308.0002172889581 L94 308.5796545105566 L95 309.15909173215516 L96 309.73852895375364 L97 310.3179661753522 L98 310.8974033969507 L99 311.4768406185492 L100 312.0562778401478 L101 312.6357150617463 L102 313.2151522833448 L103 313.79458950494336 L104 314.37402672654184 L105 314.9534639481404 L106 315.5329011697389 L107 316.1123383913374 L108 316.69177561293594 L109 317.2712128345345 L110 317.85065005613296 L111 318.4300872777315 L112 319.00952449933004 L113 319.5889617209285 L114 320.16839894252706 L115 320.7478361641256 L116 321.3272733857241 L117 321.9067106073226 L118 322.48614782892116 L119 323.0655850505197 L120 323.64502227211824 L121 324.2244594937167 L122 324.80389671531526 L123 325.3833339369138 L124 325.9627711585123 L125 326.5422083801108 L126 327.12164560170936 L127 327.70108282330784 L128 328.2805200449064 L129 328.8599572665049 L130 329.4393944881034 L131 330.01883170970194 L132 330.5982689313005 L133 331.17770615289896 L134 331.75714337449756 L135 332.33658059609604 L136 332.9160178176946 L137 333.4954550392931 L138 334.0748922608916 L139 334.65432948249014 L140 335.2337667040887 L141 335.81320392568716 L142 336.3926411472857 L143 336.97207836888424 L144 337.5515155904827 L145 338.13095281208126 L146 338.7103900336798 L147 339.2898272552783 L148 339.8692644768768 L149 340.44870169847536 L150 341.0281389200739 L151 341.6075761416724 L152 342.1870133632709 L153 342.76645058486946 L154 343.345887806468 L155 343.9253250280665 L156 344.504762249665 L157 345.08419947126356 L158 345.66363669286204 L159 346.2430739144606 L160 346.8225111360591 L161 347.4019483576576 L162 347.98138557925614 L163 348.5608228008547 L164 349.14026002245316 L165 349.7196972440517 L166 350.29913446565024 L167 350.8785716872488 L168 351.45800890884726 L169 352.0374461304458 L170 352.61688335204434 L171 353.1963205736429 L172 353.77575779524136 L173 354.3551950168399 L174 354.93463223843844 L175 355.5140694600369 L176 356.09350668163546 L177 356.672943903234 L178 357.2523811248325 L179 357.831818346431 L180 358.41125556802956 L181 358.9906927896281 L182 359.5701300112266 L183 360.1495672328251 L184 360.72900445442366 L185 361.30844167602214 L186 361.8878788976207 L187 362.4673161192192 L188 363.04675334081776 L189 363.62619056241624 L190 364.2056277840148 L191 364.7850650056133 L192 365.3645022272118 L193 365.94393944881034 L194 366.5233766704089 L195 367.10281389200736 L196 367.6822511136059 L197 368.26168833520444 L198 368.841125556803 L199 369.42056277840146 L200 370 L201 369.42056277840146 L202 368.841125556803 L203 368.26168833520444 L204 367.6822511136059 L205 367.10281389200736 L206 366.5233766704089 L207 365.94393944881034 L208 365.3645022272118 L209 364.7850650056133 L210 364.2056277840148 L211 363.62619056241624 L212 363.04675334081776 L213 362.4673161192192 L214 361.8878788976207 L215 361.30844167602214 L216 360.72900445442366 L217 360.1495672328251 L218 359.5701300112266 L219 358.9906927896281 L220 358.41125556802956 L221 357.831818346431 L222 357.2523811248325 L223 356.672943903234 L224 356.09350668163546 L225 355.5140694600369 L226 354.93463223843844 L227 354.3551950168399 L228 353.77575779524136 L229 353.1963205736429 L230 352.61688335204434 L231 352.0374461304458 L232 351.45800890884726 L233 350.8785716872488 L234 350.29913446565024 L235 349.7196972440517 L236 349.14026002245316 L237 348.5608228008547 L238 347.98138557925614 L239 347.4019483576576 L240 346.8225111360591 L241 346.2430739144606 L242 345.66363669286204 L243 345.08419947126356 L244 344.504762249665 L245 343.9253250280665 L246 343.345887806468 L247 342.76645058486946 L248 342.1870133632709 L249 341.6075761416724 L250 341.0281389200739 L251 340.44870169847536 L252 339.8692644768768 L253 339.2898272552783 L254 338.7103900336798 L255 338.13095281208126 L256 337.5515155904827 L257 336.97207836888424 L258 336.3926411472857 L259 335.81320392568716 L260 335.2337667040887 L261 334.65432948249014 L262 334.0748922608916 L263 333.4954550392931 L264 332.9160178176946 L265 332.33658059609604 L266 331.75714337449756 L267 331.17770615289896 L268 330.5982689313005 L269 330.01883170970194 L270 329.4393944881034 L271 328.8599572665049 L272 328.2805200449064 L273 327.70108282330784 L274 327.12164560170936 L275 326.5422083801108 L276 325.9627711585123 L277 325.3833339369138 L278 324.80389671531526 L279 324.2244594937167 L280 323.64502227211824 L281 323.0655850505197 L282 322.48614782892116 L283 321.9067106073226 L284 321.3272733857241 L285 320.7478361641256 L286 320.16839894252706 L287 319.5889617209285 L288 319.00952449933004 L289 318.4300872777315 L290 317.85065005613296 L291 317.2712128345345 L292 316.69177561293594 L293 316.1123383913374 L294 315.5329011697389 L295 314.9534639481404 L296 314.37402672654184 L297 313.79458950494336 L298 313.2151522833448 L299 312.6357150617463 L300 312.0562778401478 L301 311.4768406185492 L302 310.8974033969507 L303 310.3179661753522 L304 309.73852895375364 L305 309.15909173215516 L306 308.5796545105566 L307 308.0002172889581 L308 307.4207800673596 L309 306.84134284576106 L310 306.2619056241625 L311 305.68246840256404 L312 305.1030311809655 L313 304.52359395936696 L314 303.9441567377685 L315 303.36471951616994 L316 302.7852822945714 L317 302.20584507297286 L318 301.6264078513743 L319 301.04697062977584 L320 300.4675334081773 L321 299.88809618657876 L322 299.3086589649803 L323 298.72922174338174 L324 298.1497845217832 L325 297.5703473001847 L326 296.9909100785862 L327 296.41147285698764 L328 295.83203563538916 L329 295.2525984137906 L330 294.6731611921921 L331 294.0937239705936 L332 293.51428674899506 L333 292.9348495273965 L334 292.355412305798 L335 291.7759750841995 L336 291.19653786260096 L337 290.6171006410024 L338 290.0376634194039 L339 289.4582261978054 L340 288.87878897620686 L341 288.2993517546083 L342 287.71991453300984 L343 287.1404773114113 L344 286.56104008981276 L345 285.9816028682143 L346 285.40216564661574 L347 284.8227284250172 L348 284.2432912034187 L349 283.6638539818202 L350 283.08441676022164 L351 282.5049795386231 L352 281.9255423170246 L353 281.3461050954261 L354 280.76666787382754 L355 280.187230652229 L356 279.6077934306305 L357 279.028356209032 L358 278.44891898743344 L359 277.86948176583496 L360 277.2900445442364 L361 276.7106073226379 L362 276.1311701010394 L363 275.55173287944086 L364 274.9722956578423 L365 274.39285843624384 L366 273.81342121464525 L367 273.23398399304676 L368 272.6545467714482 L369 272.07510954984974 L370 271.4956723282512 L371 270.91623510665266 L372 270.3367978850541 L373 269.75736066345564 L374 269.1779234418571 L375 268.59848622025856 L376 268.0190489986601 L377 267.43961177706154 L378 266.860174555463 L379 266.2807373338645 L380 265.701300112266 L381 265.12186289066744 L382 264.54242566906896 L383 263.9629884474704 L384 263.3835512258719 L385 262.80411400427334 L386 262.2246767826748 L387 261.6452395610763 L388 261.0658023394778 L389 260.48636511787925 L390 259.90692789628076 L391 259.3274906746822 L392 258.7480534530837 L393 258.1686162314852 L394 257.58917900988666 L395 257.0097417882881 L396 256.43030456668964 L397 255.8508673450911 L398 255.27143012349256 L399 254.69199290189403 " stroke = "black" stroke-width = "2" fill = "none" /></svg>