<svg width="600" height="400" viewbox = "0 0 600 400"  xmlns="http://www.w3.org/2000/svg">

<!--
<topfunctions>













function YofX(){
    X = plotparams.g*(x - plotparams.x0) - funcparams.X0;
Y = 0.25*(1  +  Math.tanh((X - funcparams.starttime)/funcparams.risetime))*(1  +  Math.tanh((funcparams.starttime + funcparams.duration - X)/funcparams.risetime))*Math.sin(X*2*Math.PI/funcparams.period);
    y = plotparams.y0 - plotparams.G*(Y - funcparams.Y0);
}

function YofX2(){
    X = plotparams.g*(x - plotparams.x0) - funcparams.X0;
Y = 0.25*(1  +  Math.tanh((X - funcparams.starttime)/funcparams.risetime))*(1  +  Math.tanh((funcparams.starttime + funcparams.duration - X)/funcparams.risetime));
    y = plotparams.y0 - plotparams.G*(Y - funcparams.Y0);
}

constants = {
}

plotparams = {
    "G":200,//1 unit = 10 pixel
    "g":1,//1 unit equals 1 pixels
    "plotwidth":400,
    "plotheight":400,
    "x0":200,
    "y0":400
}

funcparams = {
    "T":50,
    "phi":0,
    "A":10,
    "X0":0,
    "Y0":0
}

function plotfunction(){

    /*plot one function:*/
    currentStroke = "blue";
    currentLineWidth = 4;
    ctx.strokeStyle = currentStroke;
    ctx.lineWidth = currentLineWidth;
    ctx.beginPath();	
    x = 0;
    YofX();
    currentSVG += "	<path d = \"M";
    currentSVG += Math.round(x).toString() + " ";
    currentSVG += Math.round(y).toString() + " ";
    for(x = 1;x < plotparams.plotwidth;x++){
        ctx.moveTo(x-1,y);
        YofX();
        ctx.lineTo(x,y);
        currentSVG += "L" + x + " " + y + " ";
    }
    ctx.stroke();
    currentSVG += "\""+ " stroke = \"" + currentStroke + "\" stroke-width = \"" + currentLineWidth.toString() + "\" fill = \"" + "none" + "\" "+"/>";
    /*finish plot one function*/
    
    

}



constants = {}
plotparams = {
    "G": 150,
    "g": 1,
    "plotwidth": 600,
    "plotheight": 400,
    "x0": 300,
    "y0": 200
}
funcparams = {
    "starttime": 100,
    "risetime": 10,
    "duration":150,
    "period":10,
    "X0": 0,
    "Y0": 0
}
   
   
   
   
   
   
   
   
   


   
   
   
   
   
   
   
   
   
   
   
   
   
   

constants = {}
plotparams = {
    "G": 142.65583530550015,
    "g": 1,
    "plotwidth": 600,
    "plotheight": 400,
    "x0": 0,
    "y0": 200
}
funcparams = {
    "starttime": 194.87171000000038,
    "risetime": 23.309530399924377,
    "duration": 199.6499999999999,
    "period": 10.999999999999998,
    "X0": 0,
    "Y0": 0
}
   

constants = {}
plotparams = {
    "G": 142.65583530550015,
    "g": 1,
    "plotwidth": 600,
    "plotheight": 400,
    "x0": 0,
    "y0": 200
}
funcparams = {
    "starttime": 194.87171000000038,
    "risetime": 23.309530399924377,
    "duration": 199.6499999999999,
    "period": 10.999999999999998,
    "X0": 0,
    "Y0": 0
}
</topfunctions>
-->

<!--
<imgurl>

</imgurl>
-->

<!--
<currentjson>
{
    "constants": {},
    "imgurl": "",
    "plotparams": {
        "G": 142.65583530550015,
        "g": 1,
        "plotwidth": 600,
        "plotheight": 400,
        "x0": 0,
        "y0": 200
    },
    "funcparams": {
        "starttime": 194.87171000000038,
        "risetime": 23.309530399924377,
        "duration": 199.6499999999999,
        "period": 10.999999999999998,
        "X0": 0,
        "Y0": 0
    }
}
</currentjson>
-->

<!--
<equation>





<p style="color:blue">

</p><p class="bigeq">
$$
Y = \frac{1}{4}\left(1 + \tanh{\frac{(X - t_{start})}{t_{risetime}}}\right)\left(1 + \tanh{\frac{(t_{start} + t_{duration} - X)}{t_{risetime}}}\right)\sin(2\pi X/T)
$$
</p>
<p></p>

$$
X = g(x - x_0) - X_0
$$
$$
Y = f(X)
$$
    
$$
y = y_0 - G(Y - Y_0)
$$


<p>
    X and Y, and $X_0$ and $Y_0$ in physical units of the System. x and y and x0 and y0 in pixels.  G is in pixels per Y unit and g is in X units per pixel. 
</p>








</equation>
-->
	<path d = "M0 200 L1 199.99999539841474 L2 199.9999915641738 L3 199.9999899981116 L4 199.9999916791765 L5 199.999996620218 L6 200.00000368257787 L7 200.00001076356318 L8 200.00001536024917 L9 200.00001538049742 L10 200.00000996039896 L11 200 L12 199.99998817494327 L13 199.999978321792 L14 199.99997429735865 L15 199.9999786173239 L16 199.9999913147079 L17 200.00000946341044 L18 200.00002765997579 L19 200.0000394724412 L20 200.00003952447412 L21 200.00002559602032 L22 200 L23 199.99996961222317 L24 199.99994429180796 L25 199.9999339499073 L26 199.9999450512621 L27 199.99997768072507 L28 200.0000243188657 L29 200.00007108000017 L30 200.00010143541147 L31 200.00010156912057 L32 200.00006577608482 L33 200 L34 199.99992191017327 L35 199.99985684234656 L36 199.99983026597414 L37 199.9998587939925 L38 199.99994264444285 L39 200.0000624940545 L40 200.00018265971275 L41 200.00026066631062 L42 200.00026100988674 L43 200.00016902978447 L44 200 L45 199.9997993267111 L46 199.99963211708544 L47 199.99956382186383 L48 199.9996371324934 L49 199.99985260921582 L50 200.0001605955257 L51 200.00046939387136 L52 200.00066985290664 L53 200.0006707356447 L54 200.00043436771998 L55 200 L56 199.99948431607424 L57 199.99905462636704 L58 199.99887912395909 L59 199.99906751557737 L60 199.99962124041767 L61 200.0004126924434 L62 200.00120623033553 L63 200.00172136120835 L64 200.00172362848335 L65 200.00111621923796 L66 200 L67 199.99867482011334 L68 199.99757062634066 L69 199.99711963202242 L70 199.99760375351588 L71 199.99902668592472 L72 200.00106051133832 L73 200.0030996911153 L74 200.00442343347808 L75 200.00442925216905 L76 200.00286837174787 L77 200 L78 199.99659467221804 L79 199.9937572297102 L80 199.99259832746455 L81 199.99384239060814 L82 199.99749889287347 L83 200.00272516703515 L84 200.00796516208388 L85 200.01136668811736 L86 200.01138158999328 L87 200.0073706515763 L88 200 L89 199.99124966618774 L90 199.9839586705646 L91 199.98098090130117 L92 199.98417772240109 L93 199.99357333488928 L94 200.00700233207405 L95 200.02046633378754 L96 200.02920618739245 L97 200.02924414607978 L98 200.01893810560207 L99 200 L100 199.97751757881977 L101 199.9587853241148 L102 199.95113544868337 L103 199.95934960600022 L104 199.98348903453294 L105 200.01798952679673 L106 200.05257828951395 L107 200.07502909005981 L108 200.07512441975072 L109 200.04864799700138 L110 200 L111 199.94225156852698 L112 199.89414016524356 L113 199.87449707261385 L114 199.8955992584506 L115 199.9575978100185 L116 200.04619665118912 L117 200.13501123285988 L118 200.1926475019443 L119 200.19287788100732 L120 200.1248909459893 L121 200 L122 199.8517735086672 L123 199.728311529839 L124 199.6779345506718 L125 199.73212035828578 L126 199.89121589969298 L127 200.11850137182236 L128 200.34626835303007 L129 200.49400353221333 L130 200.49449975200156 L131 200.32012838977116 L132 200 L133 199.62023637678485 L134 199.30410779617281 L135 199.1753156584502 L136 199.31428306509235 L137 199.72163164990772 L138 200.30311938125834 L139 200.88536935303097 L140 201.2625462014969 L141 201.26319864197296 L142 200.8173337166223 L143 199.99999999999997 L144 199.03157682666523 L145 198.22663944142928 L146 197.89999644935608 L147 198.255278679771 L148 199.2923488011459 L149 200.76983555596783 L150 202.24624672923542 L151 203.1995563247412 L152 203.19728347505347 L153 202.06599793054897 L154 199.99999999999994 L155 197.55947122806592 L156 195.5385645088023 L157 194.72656814028355 L158 195.62752855130216 L159 198.2304035891455 L160 201.92055925765985 L161 205.58954582315965 L162 207.93973788417412 L163 207.91035535053325 L164 205.09491519029467 L165 199.99999999999997 L166 194.02517033937505 L167 189.12217954413762 L168 187.1989131142138 L169 189.43625106225454 L170 195.74651695283472 L171 204.591024112494 L172 213.2828642119287 L173 218.7484991276956 L174 218.55252314566545 L175 211.86265407367972 L176 200.00000000000009 L177 186.310744134574 L178 175.29707857813906 L179 171.2022725380654 L180 176.4723280657448 L181 190.62670454181858 L182 210.00402567925758 L183 228.60226748151428 L184 239.86952614933236 L185 238.9371206856004 L186 224.55553675814699 L187 199.99999999999918 L188 172.48734795348554 L189 151.1246259257256 L190 143.9427886401183 L191 154.96630080275082 L192 182.36788597291576 L193 218.4852339095102 L194 251.89104854222876 L195 270.99047150650017 L196 268.020301812293 L197 242.07402689705626 L198 199.99999999999807 L199 154.67798977513047 L200 121.06917688123464 L201 111.25238440882545 L202 130.1043176451173 L203 173.16798714170903 L204 227.5859338089094 L205 275.9582355816488 L206 301.9611374509297 L207 295.8921067217645 L208 258.2436540404744 L209 199.99999999999818 L210 139.41756284458546 L211 96.23963288370648 L212 85.20098440181143 L213 110.97978294341853 L214 166.33202352935285 L215 234.12333892073218 L216 292.68661701260766 L217 322.8103363225089 L218 314.0828689725687 L219 268.4857825541974 L220 199.999999999997 L221 130.28270516521775 L222 81.76635719050826 L223 70.39644739604171 L224 100.37197965901996 L225 162.62684125240153 L226 237.58983962822987 L227 301.37442833671844 L228 333.42734601772594 L229 323.175617149435 L230 273.5164818765836 L231 199.99999999999585 L232 125.93702935183597 L233 74.98035197940337 L234 63.548923831122835 L235 95.52760808955351 L236 160.9547542582527 L237 239.13695914277264 L238 305.2119797618811 L239 338.07215064385394 L240 327.11814197672544 L241 275.67968434450086 L242 199.99999999999477 L243 124.0959790605163 L244 72.12446588159365 L245 60.684805584971855 L246 93.51284640872497 L247 160.26298944643176 L248 239.77391369162174 L249 306.78481461723993 L250 339.9679328209204 L251 328.72110761707114 L252 276.5560836864847 L253 199.99999999999778 L254 123.35480414095021 L255 70.97796909687068 L256 59.53800046269703 L257 92.7080780869957 L258 159.98729485023355 L259 240.02723252782295 L260 307.40911105819254 L261 340.719031894552 L262 329.3550932384545 L263 276.90213615576863 L264 199.9999999999968 L265 123.06305061656171 L266 70.52733519273119 L267 59.08790563877878 L268 92.39268842671808 L269 159.87941110376292 L270 240.1262073033759 L271 307.6526357289774 L272 341.01151189549785 L273 329.60150467819847 L274 277.03635790583064 L275 199.99999999999582 L276 122.95044610196095 L277 70.35392812130405 L278 58.915300676838314 L279 92.27222283398415 L280 159.83839577407733 L281 240.16363001857798 L282 307.74411963749714 L283 341.12054720533695 L284 329.69253085802666 L285 277.0854021820074 L286 199.99999999999483 L287 122.910472231719 L288 70.29353550469796 L289 58.856570747338594 L290 92.23238668853884 L291 159.82530237056068 L292 240.17506260976594 L293 307.770557693412 L294 341.1498879335726 L295 329.7148350819678 L296 277.0959867275768 L297 199.9999999999979 L298 122.90501745514027 L299 70.28855642386745 L300 58.855681674250576 L301 92.23516081844981 L302 159.82763133708522 L303 240.17142172043663 L304 307.7571999826316 L305 341.1275613149993 L306 329.6897262087273 L307 277.07822494194625 L308 199.99999999999693 L309 122.92886896614249 L310 70.33423246635331 L311 58.911783772741046 L312 92.28319643253339 L313 159.8476083722328 L314 240.14922810042293 L315 307.69128287459654 L316 341.032236025144 L317 329.59321794760353 L318 277.0151519222304 L319 199.99999999999596 L320 123.0047986971994 L321 70.4741611213534 L322 59.07841063038575 L323 92.42231501020508 L324 159.90428275548135 L325 240.08732740861575 L326 307.51000427621034 L327 340.77313668674606 L328 329.33345882650553 L329 276.8467743412435 L330 199.99999999999903 L331 123.20492845951075 L332 70.84114747637156 L333 59.51356818007969 L334 92.7843113001394 L335 160.05128914968742 L336 239.927205903407 L337 307.042218210055 L338 340.10597962605664 L339 328.6659072510416 L340 276.4148358851436 L341 199.99999999999807 L342 123.71666276003447 L343 71.77811967429159 L344 60.622953447342326 L345 93.70582968784474 L346 160.42496566438535 L347 239.52080364739157 L348 305.85677749944375 L349 338.41803390358916 L350 326.9798297361739 L351 275.3258197444661 L352 200.00000000000108 L353 125.00177362803255 L354 74.1259811346579 L355 63.39631644221433 L356 96.00371402929431 L357 161.35421697311244 L358 238.5131487489446 L359 302.92689425390677 L360 334.2605458585573 L361 322.84240827971473 L362 272.66427556036757 L363 199.99999999999253 L364 128.11415546752136 L365 79.78325402939075 L366 70.04207238632279 L367 101.47735309210324 L368 163.55351872893598 L369 236.14479916503802 L370 296.09202709143636 L371 324.6399027716169 L372 313.3510733641384 L373 266.61546724414376 L374 199.99999999999582 L375 135.0416925283604 L376 92.23036851624985 L377 84.48398084263181 L378 113.21551482380583 L379 168.2035923281352 L380 231.21235807180932 L381 282.08452730124833 L382 305.25754222476456 L383 294.57326869840415 L384 254.87644277637818 L385 199.99999999999594 L386 147.93532819392638 L387 114.87879789363602 L388 110.14438659965764 L389 133.55796745599304 L390 176.05456200232226 L391 223.10860725482908 L392 259.71514803956364 L393 275.204448196723 L394 266.33409263323216 L395 237.77162077454562 L396 199.9999999999968 L397 165.52186720782413 L398 144.7284494137711 L399 142.79786489385265 L400 158.53492607423706 L401 185.35011633398943 L402 213.86073756892347 L403 235.12021482266545 L404 243.37744375192872 L405 237.53360886773066 L406 220.97266989802853 L407 199.999999999998 L408 181.54301893661946 L409 170.92731473661684 L410 170.42068991118705 L411 178.909280423178 L412 192.666189188546 L413 206.8333220913327 L414 217.0617562909264 L415 220.77914574692036 L416 217.74027085119366 L417 209.78700079957588 L418 199.99999999999943 L419 191.58795720245018 L420 186.89287357850336 L421 186.80050459660296 L422 190.6789234082813 L423 196.78811276891247 L424 202.96729143327804 L425 207.34991448655694 L426 208.88462815583452 L427 207.5324725961361 L428 204.12852773357457 L429 199.99999999999972 L430 196.49288402793493 L431 194.5641105151924 L432 194.55250350760383 L433 196.17056608419128 L434 198.6859839000522 L435 201.20922328923163 L436 202.98441933536725 L437 203.59554856413243 L438 203.03893223207362 L439 201.660878807184 L440 199.99999999999986 L441 198.59625345913335 L442 197.82913524732174 L443 197.8290068843597 L444 198.47676952196738 L445 199.4782453748952 L446 200.47936561402923 L447 201.18132833699977 L448 201.42127385751306 L449 201.19972846197263 L450 200.65492728716902 L451 199.99999999999997 L452 199.44760657586673 L453 199.14651090320746 L454 199.1471733076305 L455 199.40209207322468 L456 199.7953422168507 L457 200.18790869951084 L458 200.46279802324383 L459 200.55649401942753 L460 200.469512190917 L461 200.25618632551746 L462 199.99999999999997 L463 199.78409784738452 L464 199.6665347452443 L465 199.66690336955358 L466 199.76654010568336 L467 199.92011127523998 L468 200.07333194783953 L469 200.18056600980094 L470 200.21707584668297 L471 200.1831099819474 L472 200.09989465720386 L473 200 L474 199.91584024528342 L475 199.87003180986082 L476 199.87019222276797 L477 199.90903143554704 L478 199.96887442782196 L479 200.02856812550365 L480 200.07033714700006 L481 200.0845519713731 L482 200.07131661751893 L483 200.03890363763693 L484 200 L485 199.96722835454662 L486 199.94939341126764 L487 199.9494584141001 L488 199.96458237411173 L489 199.98788210881617 L490 200.01112178667336 L491 200.02738180431706 L492 200.03291446676124 L493 200.02776136162524 L494 200.01514356938526 L495 200 L496 199.98724398005942 L497 199.9803023354216 L498 199.9803280218446 L499 199.98621487185187 L500 199.9952835933335 L501 200.00432864709887 L502 200.01065696763007 L503 200.01281011026748 L504 200.0108044266026 L505 200.00589365277236 L506 200 L507 199.99503563997573 L508 199.99233416953155 L509 199.99234422440185 L510 199.99463525689129 L511 199.9981645330097 L512 200.00168455406762 L513 200.00414728681932 L514 200.00498518336084 L515 200.00420463221428 L516 200.0022935542614 L517 200 L518 199.99806810042594 L519 199.99701682257813 L520 199.99702074429632 L521 199.99791230845574 L522 199.99928572920254 L523 200.00065554162708 L524 200.00161390689584 L525 200.00193996861287 L526 200.0016362166584 L527 200.0008925264781 L528 200 L529 199.99924821199446 L530 199.99883911451056 L531 199.99884064196223 L532 199.99918758923437 L533 199.99972204671585 L534 200.0002550990271 L535 200.00062803905143 L536 200.00075492281155 L537 200.00063671980024 L538 200.00034731887004 L539 200 L540 199.9997074486013 L541 199.99954825229335 L542 199.99954884688958 L543 199.99968385823811 L544 199.99989183721902 L545 200.0000992692376 L546 200.00024439504404 L547 200.00029377048983 L548 200.00024777293058 L549 200.00013515551586 L550 200 L551 199.9998861567238 L552 199.99982420720127 L553 199.99982443861273 L554 199.99987697684867 L555 199.99995790962848 L556 200.00003862954048 L557 200.0000951036525 L558 200.000114317553 L559 200.000096418099 L560 200.000052594271 L561 200 L562 199.99995569915833 L563 199.9999315921974 L564 199.99993168225322 L565 199.99995212692207 L566 199.99998362100547 L567 200.00001503225027 L568 200.0000370085126 L569 200.00004448538309 L570 200.00003752001143 L571 200.00002046646424 L572 200 L573 199.99998276083087 L574 199.99997337988174 L575 199.99997341492664 L576 199.9999813707372 L577 199.99999362630106 L578 200.00000584962865 L579 200.0000144014401 L580 200.00001731097856 L581 200.00001460048355 L582 200.0000079642905 L583 200 L584 199.99999329157467 L585 199.99998964108582 L586 199.99998965472324 L587 199.99999275063587 L588 199.99999751974812 L589 200.0000022763159 L590 200.00000560415526 L591 200.00000673636873 L592 200.00000568161065 L593 200.00000309921225 L594 200 L595 199.9999973894933 L596 199.99999596894747 L597 199.99999597425435 L598 199.9999971789932 L599 199.99999903483845 " stroke = "blue" stroke-width = "4" fill = "none" /></svg>