<svg width="400" height="260" viewbox = "0 0 400 260"  xmlns="http://www.w3.org/2000/svg">

<!--
<topfunctions>


function xcothx(inputFloat){
    if(inputFloat != 0){
        return inputFloat/Math.tanh(inputFloat);
    }
    else{
        return 1;
    }
}

function drawmarker(){
     ctx.beginPath();
     var markersize = 5;
     ctx.moveTo(x,y - markersize);
     ctx.lineTo(x,y + markersize);
     ctx.stroke();
     ctx.moveTo(x - markersize,y);
     ctx.lineTo(x + markersize,y);
     ctx.stroke();
    
    currentSVG += "    <line x1=\""+Math.round(x).toString()+"\" y1=\""+Math.round(y - markersize).toString()+"\" x2=\""+Math.round(x).toString()+"\" y2=\""+ Math.round(y + markersize).toString()+"\" style=\"stroke:" + currentStroke + ";stroke-width:2\" />\n"
    
    currentSVG += "    <line x1=\""+Math.round(x - markersize).toString()+"\" y1=\""+Math.round(y).toString()+"\" x2=\""+Math.round(x + markersize).toString()+"\" y2=\""+ Math.round(y).toString()+"\" style=\"stroke:" + currentStroke + ";stroke-width:2\" />\n"
}

function YofX(){
    X = plotparams.g*(x - plotparams.x0) - funcparams.X0;
    Y = funcparams.TN + 0.5*funcparams.T*xcothx( (constants.e*X + constants.h*funcparams.fGHz*1e9)/(2*constants.k*funcparams.T) ) + 0.5*funcparams.T*xcothx( (constants.e*X - constants.h*funcparams.fGHz*1e9)/(2*constants.k*funcparams.T));
    y = plotparams.y0 - plotparams.G*(Y - funcparams.Y0);
}

function YofX2(){
    X = plotparams.g*(x - plotparams.x0) - funcparams.X0;
    Y = funcparams.TN +  Math.abs((constants.e*X)/(2*constants.k));
    y = plotparams.y0 - plotparams.G*(Y - funcparams.Y0);
}
/*add more of these functions to add more curves or plots*/


constants = {
    "e":1.6e-19,   //Electron Charge in coulombs
    "k":1.38065e-23,  //Boltzman constant in J/K
    "h":6.63e-34 // Plank constant in J*s
}

plotparams = {
    "G":1,//1 kelvin = 1 pixel
    "g":1e-4,//20 mV equals 200 pixels
    "plotwidth":400,
    "plotheight":400,
    "x0":200,
    "y0":400
}

funcparams = {
    "T":77,
    "TN":30,
    "fGHz":6,
    "X0":0,
    "Y0":0
}

function plotfunction(){
    /*plot one function:*/
    currentStroke = "black";
    currentLineWidth = 2;
    ctx.strokeStyle = currentStroke;
    ctx.lineWidth = currentLineWidth;
    ctx.beginPath();	
    x = 0;
    YofX();
    currentSVG += "	<path d = \"M";
    currentSVG += Math.round(x).toString() + " ";
    currentSVG += Math.round(y).toString() + " ";
    for(x = 1;x < plotparams.plotwidth;x++){
        ctx.moveTo(x-1,y);
        YofX();
        ctx.lineTo(x,y);
        currentSVG += "L" + x + " " + y + " ";
    }
    ctx.stroke();
    currentSVG += "\""+ " stroke = \"" + currentStroke + "\" stroke-width = \"" + currentLineWidth.toString() + "\" fill = \"" + "none" + "\" "+"/>";
    /*finish plot one function*/


    /*plot second function:*/
    currentStroke = "black";
    ctx.strokeStyle = currentStroke;
    ctx.lineWidth = currentLineWidth;
    
    ctx.beginPath();	
    x = 0;
    YofX2();
    currentSVG += "	<path d = \"M";
    currentSVG += Math.round(x).toString() + " ";
    currentSVG += Math.round(y).toString() + " ";
    for(x = 1;x < plotparams.plotwidth;x++){
        ctx.moveTo(x-1,y);
        YofX2();
        ctx.lineTo(x,y);
        currentSVG += "L" + x + " " + y + " ";
    }
    ctx.stroke();
    currentSVG += "\""+ " stroke = \"" + currentStroke + "\" stroke-width = \"" + currentLineWidth.toString() + "\" fill = \"" + "none" + "\" "+"/>";
    /*second function finished here*/    

    /*plot the markers of the data*/    

    plotdelta = plotparams.plotwidth/plotdata.length;    
    
    currentStroke = "black";
    ctx.strokeStyle = currentStroke;
    ctx.lineWidth = currentLineWidth;

    for(var index = 0;index < plotdata.length;index++){
        x = 0.5*plotdelta + index*plotdelta;
        Y = plotdata[index];
        y = plotparams.y0 - plotparams.G*(Y - funcparams.Y0);
        drawmarker();

    }



    /*end of plot the markers of the data*/    

    
}

   

constants = {
    "e": 1.6e-19,
    "k": 1.38065e-23,
    "h": 6.63e-34
}
plotparams = {
    "G": 1.8518499999999993,
    "g": 0.0001,
    "plotwidth": 400,
    "plotheight": 260,
    "x0": 204,
    "y0": 250
}
funcparams = {
    "T": 10,
    "TN": 30,
    "fGHz": 6,
    "X0": 0,
    "Y0": 0
}
</topfunctions>
-->

<!--
<imgurl>
https://i.imgur.com/fAu4RVG.png
</imgurl>
-->

<!--
<currentjson>
{
    "constants": {
        "e": 1.6e-19,
        "k": 1.38065e-23,
        "h": 6.63e-34
    },
    "imgurl": "https://i.imgur.com/fAu4RVG.png",
    "plotparams": {
        "G": 1.8518499999999993,
        "g": 0.0001,
        "plotwidth": 400,
        "plotheight": 260,
        "x0": 204,
        "y0": 250
    },
    "funcparams": {
        "T": 10,
        "TN": 30,
        "fGHz": 6,
        "X0": 0,
        "Y0": 0
    }
}
</currentjson>
-->

<!--
<equation>
$$
X = g(x - x_0) - X_0
$$
$$
Y = f(X)
$$
<div class="bigeq">
    
 $$
 Y = T_N + \frac{1}{2}T\left[
 
 \left(\frac{eX + hf}{2kT}\right)\coth{\left(\frac{eX + hf}{2kT}\right)}   +
 \left(\frac{eX - hf}{2kT}\right)\coth{\left(\frac{eX - hf}{2kT}\right)}   
 
 \right],
 $$
</div>
$$
y = y_0 - G(Y - Y_0)
$$


<p>
    X and Y, and $X_0$ and $Y_0$ in physical units of the System. x and y and x0 and y0 in pixels.  G is in pixels per Y unit and g is in X units per pixel. 
</p>
</equation>
-->
	<path d = "M0 -24 L1 -23.380756246348426 L2 -22.307725430635003 L3 -21.23469461528498 L4 -20.16166380034082 L5 -19.08863298584987 L6 -18.015602171864998 L7 -16.94257135844532 L8 -15.869540545656776 L9 -14.796509733572918 L10 -13.723478922275888 L11 -12.650448111857372 L12 -11.57741730241986 L13 -10.50438649407755 L14 -9.431355686957943 L15 -8.35832488120343 L16 -7.285294076972775 L17 -6.21226327444333 L18 -5.139232473812882 L19 -4.066201675302182 L20 -2.9931708791575886 L21 -1.9201400856540545 L22 -0.8471092950982211 L23 0.2259214921676005 L24 1.2989522757618204 L25 2.371983055258312 L26 3.445013830181864 L27 4.5180446000023835 L28 5.591075364128557 L29 6.664106121900659 L30 7.737136872583079 L31 8.810167615355141 L32 9.88319834930141 L33 10.956229073401317 L34 12.029259786516434 L35 13.102290487377218 L36 14.175321174568268 L37 15.248351846511014 L38 16.321382501445584 L39 17.394413137409686 L40 18.46744375221573 L41 19.540474343424876 L42 20.61350490831836 L43 21.68653544386555 L44 22.759565946688355 L45 23.83259641302172 L46 24.905626838669292 L47 25.97865721895434 L48 27.0516875486652 L49 28.124717821994295 L50 29.197748032470486 L51 30.270778172883382 L52 31.343808235199987 L53 32.416838210470644 L54 33.4898680887257 L55 34.562897858859486 L56 35.63592750850202 L57 36.70895702387588 L58 37.781986389636785 L59 38.855015588697086 L60 39.928044602028564 L61 41.001073408443716 L62 42.07410198435238 L63 43.14713030349125 L64 44.220158336622916 L65 45.293186051201644 L66 46.36621341100184 L67 47.43924037570494 L68 48.51226690044078 L69 49.58529293527732 L70 50.658318424654624 L71 51.73134330675538 L72 52.804367512806095 L73 53.87739096630099 L74 54.95041358214016 L75 56.02343526567233 L76 57.096455911632944 L77 58.169475402964764 L78 59.24249360950904 L79 60.31551038655343 L80 61.38852557322008 L81 62.461538990678406 L82 63.53455044016192 L83 64.60755970076892 L84 65.68056652702381 L85 66.75357064617313 L86 67.8265717551885 L87 68.89956951744426 L88 69.9725635590363 L89 71.04555346470323 L90 72.11853877330779 L91 73.19151897283268 L92 74.26449349483897 L93 75.33746170833066 L94 76.41042291296381 L95 77.48337633153062 L96 78.55632110164396 L97 79.62925626653865 L98 80.7021807648978 L99 81.77509341960447 L100 82.84799292530701 L101 83.9208778346767 L102 84.99374654322443 L103 86.0665972725294 L104 87.13942805171871 L105 88.21223669702101 L106 89.28502078920158 L107 90.3577776486645 L108 91.43050430799204 L109 92.50319748166453 L110 93.57585353268436 L111 94.6484684357986 L112 95.72103773698902 L113 96.79355650886669 L114 97.86601930157582 L115 98.93842008877644 L116 100.01075220823645 L117 101.08300829652393 L118 102.15518021724478 L119 103.22725898222447 L120 104.29923466498207 L121 105.37109630578965 L122 106.44283180755369 L123 107.51442782169269 L124 108.58586962312097 L125 109.65714097337991 L126 110.72822397088521 L127 111.79909888718299 L128 112.86974398802923 L129 113.9401353380232 L130 115.01024658744188 L131 116.08004873983398 L132 117.14950989884315 L133 118.21859499264067 L134 119.28726547425595 L135 120.35547899600525 L136 121.42318905613229 L137 122.49034461568974 L138 123.5568896836158 L139 124.62276286788959 L140 125.687896890591 L141 126.75221806464643 L142 127.81564573001337 L143 128.87809164705115 L144 129.93945934484194 L145 130.99964342227673 L146 132.05852879980375 L147 133.1159899198637 L148 134.17188989421027 L149 135.2260795965442 L150 136.2783966991832 L151 137.32866465285417 L152 138.37669160914032 L153 139.42226928565083 L154 140.46517177461453 L155 141.50515429634186 L156 142.54195189985938 L157 143.57527811400732 L158 144.60482355341168 L159 145.63025448500366 L160 146.65121136216726 L161 147.6673073351518 L162 148.67812674809178 L163 149.68322363482454 L164 150.68212022768398 L165 151.67430549555627 L166 152.65923372969672 L167 153.6363231980966 L168 154.60495489152123 L169 155.56447138667465 L170 156.51417585422604 L171 157.4533312416041 L172 158.38115966244982 L173 159.29684202633865 L174 160.19951794375277 L175 161.08828594219926 L176 161.962204029737 L177 162.82029064187742 L178 163.66152600676446 L179 164.48485396160845 L180 165.28918425045248 L181 166.07339532941108 L182 166.83633770047052 L183 167.57683778874775 L184 168.2937023707596 L185 168.98572355279242 L186 169.65168428895532 L187 170.29036441807267 L188 170.9005471873958 L189 171.481026219407 L190 172.03061286603238 L191 172.54814388267815 L192 173.03248934302303 L193 173.48256070480815 L194 173.8973189273683 L195 174.27578253373244 L196 174.61703550416524 L197 174.92023488435945 L198 175.18461799040446 L199 175.40950909435634 L200 175.594325478836 L201 175.73858275660695 L202 175.84189936143915 L203 175.90400012955223 L204 175.92471890624506 L205 175.90400012955223 L206 175.84189936143915 L207 175.73858275660695 L208 175.594325478836 L209 175.40950909435634 L210 175.18461799040446 L211 174.92023488435945 L212 174.61703550416524 L213 174.27578253373244 L214 173.8973189273683 L215 173.48256070480815 L216 173.03248934302303 L217 172.54814388267815 L218 172.03061286603238 L219 171.48102621940703 L220 170.9005471873958 L221 170.29036441807267 L222 169.65168428895532 L223 168.98572355279242 L224 168.2937023707596 L225 167.57683778874775 L226 166.83633770047052 L227 166.07339532941108 L228 165.28918425045248 L229 164.48485396160845 L230 163.66152600676446 L231 162.82029064187742 L232 161.962204029737 L233 161.08828594219926 L234 160.19951794375277 L235 159.29684202633865 L236 158.38115966244982 L237 157.45333124160408 L238 156.51417585422604 L239 155.56447138667465 L240 154.60495489152123 L241 153.6363231980966 L242 152.65923372969675 L243 151.6743054955563 L244 150.68212022768398 L245 149.68322363482457 L246 148.67812674809178 L247 147.6673073351518 L248 146.65121136216726 L249 145.63025448500366 L250 144.60482355341168 L251 143.57527811400732 L252 142.54195189985938 L253 141.50515429634186 L254 140.46517177461453 L255 139.42226928565083 L256 138.37669160914032 L257 137.32866465285417 L258 136.2783966991832 L259 135.2260795965442 L260 134.17188989421027 L261 133.1159899198637 L262 132.05852879980375 L263 130.99964342227673 L264 129.93945934484194 L265 128.87809164705115 L266 127.81564573001337 L267 126.7522180646464 L268 125.687896890591 L269 124.62276286788959 L270 123.5568896836158 L271 122.49034461568974 L272 121.42318905613229 L273 120.35547899600525 L274 119.28726547425595 L275 118.21859499264067 L276 117.14950989884315 L277 116.08004873983398 L278 115.01024658744188 L279 113.9401353380232 L280 112.86974398802923 L281 111.79909888718299 L282 110.72822397088521 L283 109.65714097337991 L284 108.58586962312097 L285 107.51442782169269 L286 106.44283180755366 L287 105.37109630578968 L288 104.29923466498207 L289 103.22725898222447 L290 102.15518021724478 L291 101.08300829652393 L292 100.01075220823645 L293 98.93842008877647 L294 97.86601930157582 L295 96.79355650886671 L296 95.72103773698902 L297 94.6484684357986 L298 93.57585353268436 L299 92.50319748166453 L300 91.43050430799204 L301 90.3577776486645 L302 89.28502078920158 L303 88.21223669702101 L304 87.13942805171871 L305 86.0665972725294 L306 84.99374654322443 L307 83.9208778346767 L308 82.84799292530701 L309 81.77509341960447 L310 80.7021807648978 L311 79.62925626653865 L312 78.55632110164399 L313 77.48337633153062 L314 76.41042291296381 L315 75.33746170833066 L316 74.26449349483897 L317 73.19151897283268 L318 72.11853877330779 L319 71.04555346470323 L320 69.9725635590363 L321 68.89956951744426 L322 67.8265717551885 L323 66.75357064617313 L324 65.68056652702379 L325 64.60755970076895 L326 63.53455044016192 L327 62.461538990678406 L328 61.38852557322008 L329 60.31551038655343 L330 59.24249360950904 L331 58.169475402964736 L332 57.096455911632916 L333 56.02343526567233 L334 54.95041358214016 L335 53.87739096630099 L336 52.804367512806095 L337 51.73134330675538 L338 50.658318424654624 L339 49.58529293527732 L340 48.51226690044078 L341 47.43924037570497 L342 46.36621341100184 L343 45.293186051201644 L344 44.220158336622916 L345 43.14713030349125 L346 42.07410198435241 L347 41.001073408443716 L348 39.928044602028564 L349 38.855015588697086 L350 37.781986389636785 L351 36.70895702387588 L352 35.63592750850202 L353 34.56289785885946 L354 33.4898680887257 L355 32.416838210470615 L356 31.34380823519996 L357 30.270778172883382 L358 29.197748032470486 L359 28.124717821994295 L360 27.0516875486652 L361 25.97865721895434 L362 24.905626838669292 L363 23.83259641302172 L364 22.759565946688355 L365 21.68653544386555 L366 20.61350490831836 L367 19.540474343424876 L368 18.46744375221573 L369 17.394413137409686 L370 16.321382501445555 L371 15.248351846511014 L372 14.175321174568268 L373 13.102290487377246 L374 12.029259786516434 L375 10.956229073401317 L376 9.88319834930141 L377 8.810167615355141 L378 7.737136872583079 L379 6.664106121900659 L380 5.591075364128557 L381 4.5180446000023835 L382 3.445013830181864 L383 2.371983055258312 L384 1.2989522757618204 L385 0.2259214921676005 L386 -0.8471092950982211 L387 -1.9201400856540545 L388 -2.9931708791575886 L389 -4.066201675302182 L390 -5.139232473812882 L391 -6.21226327444333 L392 -7.285294076972775 L393 -8.35832488120343 L394 -9.431355686957943 L395 -10.50438649407755 L396 -11.57741730241986 L397 -12.650448111857372 L398 -13.723478922275888 L399 -14.796509733572918 " stroke = "black" stroke-width = "2" fill = "none" />	<path d = "M0 -24 L1 -23.38075621989634 L2 -22.307725401079097 L3 -21.234694582261852 L4 -20.161663763444608 L5 -19.088632944627477 L6 -18.015602125810176 L7 -16.94257130699299 L8 -15.869540488175744 L9 -14.796509669358556 L10 -13.723478850541312 L11 -12.650448031724068 L12 -11.57741721290688 L13 -10.504386394089636 L14 -9.431355575272391 L15 -8.358324756455204 L16 -7.2852939376379595 L17 -6.212263118820772 L18 -5.139232300003556 L19 -4.066201481186312 L20 -2.9931706623690673 L21 -1.9201398435517945 L22 -0.8471090247346638 L23 0.22592179408260904 L24 1.2989526128997966 L25 2.371983431717098 L26 3.445014250534257 L27 4.518045069351501 L28 5.591075888168717 L29 6.664106706985905 L30 7.737137525803178 L31 8.810168344620422 L32 9.883199163437581 L33 10.956229982254825 L34 12.02926080107207 L35 13.102291619889286 L36 14.175322438706473 L37 15.248353257523746 L38 16.321384076340934 L39 17.39441489515815 L40 18.467445713975366 L41 19.54047653279258 L42 20.613507351609854 L43 21.68653817042707 L44 22.759568989244315 L45 23.832599808061502 L46 24.905630626878718 L47 25.978661445695934 L48 27.05169226451318 L49 28.124723083330423 L50 29.19775390214764 L51 30.270784720964855 L52 31.3438155397821 L53 32.41684635859929 L54 33.48987717741653 L55 34.56290799623372 L56 35.63593881505096 L57 36.70896963386818 L58 37.78200045268542 L59 38.85503127150261 L60 39.928062090319855 L61 41.00109290913707 L62 42.07412372795429 L63 43.1471545467715 L64 44.22018536558875 L65 45.29321618440596 L66 46.36624700322318 L67 47.439277822040424 L68 48.51230864085764 L69 49.585339459674884 L70 50.6583702784921 L71 51.731401097309316 L72 52.80443191612656 L73 53.87746273494378 L74 54.95049355376099 L75 56.02352437257824 L76 57.096555191395424 L77 58.16958601021267 L78 59.242616829029856 L79 60.31564764784713 L80 61.38867846666432 L81 62.46170928548156 L82 63.53474010429875 L83 64.60777092311596 L84 65.68080174193321 L85 66.75383256075042 L86 67.82686337956767 L87 68.89989419838489 L88 69.9729250172021 L89 71.04595583601935 L90 72.11898665483656 L91 73.19201747365378 L92 74.26504829247102 L93 75.33807911128824 L94 76.41110993010543 L95 77.4841407489227 L96 78.55717156773989 L97 79.6302023865571 L98 80.70323320537435 L99 81.77626402419153 L100 82.8492948430088 L101 83.92232566182602 L102 84.99535648064327 L103 86.06838729946045 L104 87.1414181182777 L105 88.21444893709491 L106 89.28747975591213 L107 90.36051057472937 L108 91.43354139354656 L109 92.50657221236384 L110 93.57960303118102 L111 94.65263384999824 L112 95.72566466881548 L113 96.79869548763267 L114 97.87172630644992 L115 98.94475712526713 L116 100.01778794408438 L117 101.09081876290159 L118 102.16384958171881 L119 103.23688040053605 L120 104.30991121935324 L121 105.38294203817048 L122 106.4559728569877 L123 107.52900367580494 L124 108.60203449462216 L125 109.67506531343938 L126 110.74809613225662 L127 111.82112695107381 L128 112.89415776989108 L129 113.96718858870827 L130 115.04021940752548 L131 116.11325022634273 L132 117.18628104515994 L133 118.25931186397716 L134 119.33234268279438 L135 120.40537350161159 L136 121.47840432042884 L137 122.55143513924604 L138 123.6244659580633 L139 124.6974967768805 L140 125.77052759569773 L141 126.84355841451496 L142 127.91658923333216 L143 128.9896200521494 L144 130.0626508709666 L145 131.13568168978384 L146 132.20871250860105 L147 133.2817433274183 L148 134.3547741462355 L149 135.42780496505273 L150 136.50083578386995 L151 137.5738666026872 L152 138.6468974215044 L153 139.71992824032162 L154 140.79295905913887 L155 141.86598987795608 L156 142.9390206967733 L157 144.01205151559054 L158 145.08508233440773 L159 146.15811315322497 L160 147.2311439720422 L161 148.3041747908594 L162 149.37720560967665 L163 150.45023642849387 L164 151.52326724731108 L165 152.59629806612833 L166 153.66932888494554 L167 154.74235970376276 L168 155.81539052257997 L169 156.8884213413972 L170 157.96145216021444 L171 159.03448297903168 L172 160.10751379784887 L173 161.18054461666608 L174 162.2535754354833 L175 163.32660625430054 L176 164.3996370731178 L177 165.47266789193498 L178 166.54569871075222 L179 167.61872952956944 L180 168.69176034838665 L181 169.7647911672039 L182 170.8378219860211 L183 171.91085280483833 L184 172.98388362365557 L185 174.0569144424728 L186 175.12994526129 L187 176.20297608010722 L188 177.27600689892444 L189 178.34903771774168 L190 179.4220685365589 L191 180.4950993553761 L192 181.56813017419336 L193 182.64116099301057 L194 183.7141918118278 L195 184.787222630645 L196 185.86025344946222 L197 186.93328426827946 L198 188.00631508709668 L199 189.0793459059139 L200 190.1523767247311 L201 191.22540754354836 L202 192.29843836236557 L203 193.3714691811828 L204 194.4445 L205 193.3714691811828 L206 192.29843836236557 L207 191.22540754354836 L208 190.1523767247311 L209 189.0793459059139 L210 188.00631508709668 L211 186.93328426827946 L212 185.86025344946222 L213 184.787222630645 L214 183.7141918118278 L215 182.64116099301057 L216 181.56813017419336 L217 180.4950993553761 L218 179.4220685365589 L219 178.34903771774168 L220 177.27600689892444 L221 176.20297608010722 L222 175.12994526129 L223 174.0569144424728 L224 172.98388362365557 L225 171.91085280483833 L226 170.8378219860211 L227 169.7647911672039 L228 168.69176034838665 L229 167.61872952956944 L230 166.54569871075222 L231 165.47266789193498 L232 164.3996370731178 L233 163.32660625430054 L234 162.2535754354833 L235 161.18054461666608 L236 160.10751379784887 L237 159.03448297903168 L238 157.96145216021444 L239 156.8884213413972 L240 155.81539052257997 L241 154.74235970376276 L242 153.66932888494554 L243 152.59629806612833 L244 151.52326724731108 L245 150.45023642849387 L246 149.37720560967665 L247 148.3041747908594 L248 147.2311439720422 L249 146.15811315322497 L250 145.08508233440773 L251 144.01205151559054 L252 142.9390206967733 L253 141.86598987795608 L254 140.79295905913887 L255 139.71992824032162 L256 138.6468974215044 L257 137.5738666026872 L258 136.50083578386995 L259 135.42780496505273 L260 134.3547741462355 L261 133.2817433274183 L262 132.20871250860105 L263 131.13568168978384 L264 130.0626508709666 L265 128.9896200521494 L266 127.91658923333216 L267 126.84355841451496 L268 125.77052759569773 L269 124.6974967768805 L270 123.6244659580633 L271 122.55143513924604 L272 121.47840432042884 L273 120.40537350161159 L274 119.33234268279438 L275 118.25931186397716 L276 117.18628104515994 L277 116.11325022634273 L278 115.04021940752548 L279 113.96718858870827 L280 112.89415776989108 L281 111.82112695107381 L282 110.74809613225662 L283 109.67506531343938 L284 108.60203449462216 L285 107.52900367580494 L286 106.4559728569877 L287 105.38294203817048 L288 104.30991121935324 L289 103.23688040053605 L290 102.16384958171881 L291 101.09081876290159 L292 100.01778794408438 L293 98.94475712526713 L294 97.87172630644992 L295 96.79869548763267 L296 95.72566466881548 L297 94.65263384999824 L298 93.57960303118102 L299 92.50657221236384 L300 91.43354139354656 L301 90.36051057472937 L302 89.28747975591213 L303 88.21444893709491 L304 87.1414181182777 L305 86.06838729946045 L306 84.99535648064327 L307 83.92232566182602 L308 82.8492948430088 L309 81.77626402419153 L310 80.70323320537435 L311 79.6302023865571 L312 78.55717156773989 L313 77.4841407489227 L314 76.41110993010543 L315 75.33807911128824 L316 74.26504829247102 L317 73.19201747365378 L318 72.11898665483656 L319 71.04595583601935 L320 69.9729250172021 L321 68.89989419838489 L322 67.82686337956767 L323 66.75383256075042 L324 65.68080174193321 L325 64.60777092311596 L326 63.53474010429875 L327 62.46170928548156 L328 61.38867846666432 L329 60.31564764784713 L330 59.242616829029856 L331 58.16958601021267 L332 57.096555191395424 L333 56.02352437257824 L334 54.95049355376099 L335 53.87746273494378 L336 52.80443191612656 L337 51.731401097309316 L338 50.6583702784921 L339 49.585339459674884 L340 48.51230864085764 L341 47.439277822040424 L342 46.36624700322318 L343 45.29321618440596 L344 44.22018536558875 L345 43.1471545467715 L346 42.07412372795429 L347 41.00109290913707 L348 39.928062090319855 L349 38.85503127150261 L350 37.78200045268542 L351 36.70896963386818 L352 35.63593881505096 L353 34.56290799623372 L354 33.48987717741653 L355 32.41684635859929 L356 31.3438155397821 L357 30.270784720964855 L358 29.19775390214764 L359 28.124723083330423 L360 27.05169226451318 L361 25.978661445695934 L362 24.905630626878718 L363 23.832599808061502 L364 22.759568989244315 L365 21.68653817042707 L366 20.613507351609854 L367 19.54047653279258 L368 18.467445713975366 L369 17.39441489515815 L370 16.321384076340934 L371 15.248353257523746 L372 14.175322438706473 L373 13.102291619889286 L374 12.02926080107207 L375 10.956229982254825 L376 9.883199163437581 L377 8.810168344620422 L378 7.737137525803178 L379 6.664106706985905 L380 5.591075888168717 L381 4.518045069351501 L382 3.445014250534257 L383 2.371983431717098 L384 1.2989526128997966 L385 0.22592179408260904 L386 -0.8471090247346638 L387 -1.9201398435517945 L388 -2.9931706623690673 L389 -4.066201481186312 L390 -5.139232300003556 L391 -6.212263118820772 L392 -7.2852939376379595 L393 -8.358324756455204 L394 -9.431355575272391 L395 -10.504386394089636 L396 -11.57741721290688 L397 -12.650448031724068 L398 -13.723478850541312 L399 -14.796509669358556 " stroke = "black" stroke-width = "2" fill = "none" />    <line x1="29" y1="60" x2="29" y2="70" style="stroke:black;stroke-width:2" />
    <line x1="24" y1="65" x2="34" y2="65" style="stroke:black;stroke-width:2" />
    <line x1="86" y1="115" x2="86" y2="125" style="stroke:black;stroke-width:2" />
    <line x1="81" y1="120" x2="91" y2="120" style="stroke:black;stroke-width:2" />
    <line x1="143" y1="152" x2="143" y2="162" style="stroke:black;stroke-width:2" />
    <line x1="138" y1="157" x2="148" y2="157" style="stroke:black;stroke-width:2" />
    <line x1="200" y1="171" x2="200" y2="181" style="stroke:black;stroke-width:2" />
    <line x1="195" y1="176" x2="205" y2="176" style="stroke:black;stroke-width:2" />
    <line x1="257" y1="152" x2="257" y2="162" style="stroke:black;stroke-width:2" />
    <line x1="252" y1="157" x2="262" y2="157" style="stroke:black;stroke-width:2" />
    <line x1="314" y1="115" x2="314" y2="125" style="stroke:black;stroke-width:2" />
    <line x1="309" y1="120" x2="319" y2="120" style="stroke:black;stroke-width:2" />
    <line x1="371" y1="60" x2="371" y2="70" style="stroke:black;stroke-width:2" />
    <line x1="366" y1="65" x2="376" y2="65" style="stroke:black;stroke-width:2" />
</svg>