<svg width="1363" height="671" viewbox = "0 0 1363 671"  xmlns="http://www.w3.org/2000/svg">

<!--
<json>
{
    "glyph": "0331,0336,0331,0332,0332,0332,0332,0332,01305,01201,01335,01201,01335,01201,01335,01201,01335,01201,01335,0337,0330,0332,0332,0332,0336,0332,0330,0332,0333,0330,0331,0332,0337,0211,0211,0211,0211,0211,0305,0201,0335,0201,0335,0201,0335,0201,0335,0201,",
    "unit": 121.00000000000004,
    "x0": 700,
    "y0": 350,
    "x0rel": 0.152892561983471,
    "y0rel": 0.11983471074380161,
    "imgurl": "",
    "imgw": 2,
    "imgleft": -1,
    "imgtop": -1
}
</json>
-->
    <line x1="458" y1="532" x2="458" y2="471" style="stroke:#000000;stroke-width:2" />
    <line x1="458" y1="471" x2="398" y2="471" style="stroke:#000000;stroke-width:2" />
    <line x1="398" y1="471" x2="398" y2="532" style="stroke:#000000;stroke-width:2" />
    <line x1="398" y1="532" x2="458" y2="532" style="stroke:#000000;stroke-width:2" />
    <line x1="428" y1="501" x2="428" y2="471" style="stroke:#000000;stroke-width:2" />
    <line x1="428" y1="501" x2="457" y2="492" style="stroke:#000000;stroke-width:2" />
    <line x1="428" y1="501" x2="446" y2="526" style="stroke:#000000;stroke-width:2" />
    <line x1="428" y1="501" x2="410" y2="526" style="stroke:#000000;stroke-width:2" />
    <line x1="428" y1="501" x2="399" y2="492" style="stroke:#000000;stroke-width:2" />
    <circle cx="428" cy = "501" r = "30.25000000000001" stroke = "#000000" stroke-width = "2" fill = "none" />
    <circle cx="437" cy = "489" r = "3.7812500000000013" stroke = "#000000" stroke-width = "2" fill = "none" />
    <circle cx="442" cy = "506" r = "3.7812500000000013" stroke = "#000000" stroke-width = "2" fill = "none" />
    <circle cx="428" cy = "516" r = "3.7812500000000013" stroke = "#000000" stroke-width = "2" fill = "none" />
    <circle cx="413" cy = "506" r = "3.7812500000000013" stroke = "#000000" stroke-width = "2" fill = "none" />
    <circle cx="419" cy = "489" r = "3.7812500000000013" stroke = "#000000" stroke-width = "2" fill = "none" />
    <line x1="519" y1="532" x2="519" y2="471" style="stroke:#000000;stroke-width:2" />
    <line x1="519" y1="471" x2="458" y2="471" style="stroke:#000000;stroke-width:2" />
    <line x1="458" y1="471" x2="458" y2="532" style="stroke:#000000;stroke-width:2" />
    <line x1="458" y1="532" x2="519" y2="532" style="stroke:#000000;stroke-width:2" />
    <line x1="473" y1="501" x2="503" y2="501" style="stroke:#000000;stroke-width:2" />
    <line x1="503" y1="501" x2="498" y2="507" style="stroke:#000000;stroke-width:2" />
    <line x1="503" y1="501" x2="498" y2="496" style="stroke:#000000;stroke-width:2" />
    <line x1="579" y1="532" x2="579" y2="471" style="stroke:#000000;stroke-width:2" />
    <line x1="579" y1="471" x2="519" y2="471" style="stroke:#000000;stroke-width:2" />
    <line x1="519" y1="471" x2="519" y2="532" style="stroke:#000000;stroke-width:2" />
    <line x1="519" y1="532" x2="579" y2="532" style="stroke:#000000;stroke-width:2" />
  <path d="M538.0550099345535 490.5550099345536           A15.125000000000005 15.125000000000005 0 0 1 559.4449900654465 490.5550099345536" fill = "none" stroke = "#000000" stroke-width = "2" />
  <path d="M538.0550099345535 511.94499006544663           A15.125000000000005 15.125000000000005 0 0 1 538.0550099345535 490.5550099345536" fill = "none" stroke = "#000000" stroke-width = "2" />
  <path d="M559.4449900654465 511.94499006544663           A15.125000000000005 15.125000000000005 0 0 1 538.0550099345535 511.94499006544663" fill = "none" stroke = "#000000" stroke-width = "2" />
    <line x1="549" y1="501" x2="559" y2="491" style="stroke:#000000;stroke-width:2" />
    <line x1="549" y1="479" x2="559" y2="489" style="stroke:#000000;stroke-width:2" />
    <line x1="640" y1="532" x2="640" y2="471" style="stroke:#000000;stroke-width:2" />
    <line x1="640" y1="471" x2="579" y2="471" style="stroke:#000000;stroke-width:2" />
    <line x1="579" y1="471" x2="579" y2="532" style="stroke:#000000;stroke-width:2" />
    <line x1="579" y1="532" x2="640" y2="532" style="stroke:#000000;stroke-width:2" />
    <line x1="594" y1="501" x2="624" y2="501" style="stroke:#000000;stroke-width:2" />
    <line x1="624" y1="501" x2="619" y2="507" style="stroke:#000000;stroke-width:2" />
    <line x1="624" y1="501" x2="619" y2="496" style="stroke:#000000;stroke-width:2" />
    <line x1="700" y1="532" x2="700" y2="471" style="stroke:#000000;stroke-width:2" />
    <line x1="700" y1="471" x2="640" y2="471" style="stroke:#000000;stroke-width:2" />
    <line x1="640" y1="471" x2="640" y2="532" style="stroke:#000000;stroke-width:2" />
    <line x1="640" y1="532" x2="700" y2="532" style="stroke:#000000;stroke-width:2" />
  <path d="M659.0550099345535 490.55500993455354           A15.125000000000005 15.125000000000005 0 0 1 680.4449900654465 490.5550099345536" fill = "none" stroke = "#000000" stroke-width = "2" />
  <path d="M659.0550099345535 511.94499006544663           A15.125000000000005 15.125000000000005 0 0 1 659.0550099345535 490.55500993455354" fill = "none" stroke = "#000000" stroke-width = "2" />
  <path d="M680.4449900654465 511.94499006544663           A15.125000000000005 15.125000000000005 0 0 1 659.0550099345535 511.94499006544663" fill = "none" stroke = "#000000" stroke-width = "2" />
    <line x1="670" y1="501" x2="680" y2="491" style="stroke:#000000;stroke-width:2" />
    <line x1="670" y1="479" x2="680" y2="489" style="stroke:#000000;stroke-width:2" />
    <line x1="761" y1="532" x2="760" y2="471" style="stroke:#000000;stroke-width:2" />
    <line x1="760" y1="471" x2="700" y2="471" style="stroke:#000000;stroke-width:2" />
    <line x1="700" y1="471" x2="700" y2="532" style="stroke:#000000;stroke-width:2" />
    <line x1="700" y1="532" x2="761" y2="532" style="stroke:#000000;stroke-width:2" />
    <line x1="715" y1="501" x2="745" y2="501" style="stroke:#000000;stroke-width:2" />
    <line x1="745" y1="501" x2="740" y2="507" style="stroke:#000000;stroke-width:2" />
    <line x1="745" y1="501" x2="740" y2="496" style="stroke:#000000;stroke-width:2" />
    <line x1="821" y1="532" x2="821" y2="471" style="stroke:#000000;stroke-width:2" />
    <line x1="821" y1="471" x2="761" y2="471" style="stroke:#000000;stroke-width:2" />
    <line x1="761" y1="471" x2="761" y2="532" style="stroke:#000000;stroke-width:2" />
    <line x1="761" y1="532" x2="821" y2="532" style="stroke:#000000;stroke-width:2" />
  <path d="M780.0550099345536 490.55500993455354           A15.125000000000005 15.125000000000005 0 0 1 801.4449900654466 490.5550099345536" fill = "none" stroke = "#000000" stroke-width = "2" />
  <path d="M780.0550099345536 511.94499006544663           A15.125000000000005 15.125000000000005 0 0 1 780.0550099345536 490.55500993455354" fill = "none" stroke = "#000000" stroke-width = "2" />
  <path d="M801.4449900654466 511.94499006544663           A15.125000000000005 15.125000000000005 0 0 1 780.0550099345536 511.94499006544663" fill = "none" stroke = "#000000" stroke-width = "2" />
    <line x1="791" y1="501" x2="801" y2="491" style="stroke:#000000;stroke-width:2" />
    <line x1="791" y1="479" x2="801" y2="489" style="stroke:#000000;stroke-width:2" />
    <line x1="882" y1="532" x2="882" y2="471" style="stroke:#000000;stroke-width:2" />
    <line x1="882" y1="471" x2="821" y2="471" style="stroke:#000000;stroke-width:2" />
    <line x1="821" y1="471" x2="821" y2="532" style="stroke:#000000;stroke-width:2" />
    <line x1="821" y1="532" x2="882" y2="532" style="stroke:#000000;stroke-width:2" />
    <line x1="836" y1="501" x2="866" y2="501" style="stroke:#000000;stroke-width:2" />
    <line x1="866" y1="501" x2="861" y2="507" style="stroke:#000000;stroke-width:2" />
    <line x1="866" y1="501" x2="861" y2="496" style="stroke:#000000;stroke-width:2" />
    <line x1="942" y1="532" x2="942" y2="471" style="stroke:#000000;stroke-width:2" />
    <line x1="942" y1="471" x2="882" y2="471" style="stroke:#000000;stroke-width:2" />
    <line x1="882" y1="471" x2="881" y2="532" style="stroke:#000000;stroke-width:2" />
    <line x1="881" y1="532" x2="942" y2="532" style="stroke:#000000;stroke-width:2" />
  <path d="M901.0550099345536 490.5550099345542           A15.125000000000005 15.125000000000005 0 0 1 922.4449900654467 490.55500993455433" fill = "none" stroke = "#000000" stroke-width = "2" />
  <path d="M901.0550099345535 511.9449900654473           A15.125000000000005 15.125000000000005 0 0 1 901.0550099345536 490.5550099345542" fill = "none" stroke = "#000000" stroke-width = "2" />
  <path d="M922.4449900654466 511.94499006544737           A15.125000000000005 15.125000000000005 0 0 1 901.0550099345535 511.9449900654473" fill = "none" stroke = "#000000" stroke-width = "2" />
    <line x1="912" y1="501" x2="922" y2="491" style="stroke:#000000;stroke-width:2" />
    <line x1="912" y1="479" x2="922" y2="489" style="stroke:#000000;stroke-width:2" />
    <line x1="1002" y1="532" x2="1003" y2="471" style="stroke:#000000;stroke-width:2" />
    <line x1="1003" y1="471" x2="942" y2="471" style="stroke:#000000;stroke-width:2" />
    <line x1="942" y1="471" x2="942" y2="532" style="stroke:#000000;stroke-width:2" />
    <line x1="942" y1="532" x2="1003" y2="532" style="stroke:#000000;stroke-width:2" />
    <line x1="957" y1="501" x2="987" y2="501" style="stroke:#000000;stroke-width:2" />
    <line x1="987" y1="501" x2="982" y2="507" style="stroke:#000000;stroke-width:2" />
    <line x1="987" y1="501" x2="982" y2="496" style="stroke:#000000;stroke-width:2" />
    <line x1="1063" y1="532" x2="1063" y2="471" style="stroke:#000000;stroke-width:2" />
    <line x1="1063" y1="471" x2="1003" y2="471" style="stroke:#000000;stroke-width:2" />
    <line x1="1003" y1="471" x2="1003" y2="532" style="stroke:#000000;stroke-width:2" />
    <line x1="1003" y1="532" x2="1063" y2="532" style="stroke:#000000;stroke-width:2" />
  <path d="M1022.0550099345537 490.55500993455547           A15.125000000000005 15.125000000000005 0 0 1 1043.4449900654467 490.55500993455547" fill = "none" stroke = "#000000" stroke-width = "2" />
  <path d="M1022.0550099345537 511.94499006544856           A15.125000000000005 15.125000000000005 0 0 1 1022.0550099345537 490.55500993455547" fill = "none" stroke = "#000000" stroke-width = "2" />
  <path d="M1043.4449900654467 511.94499006544845           A15.125000000000005 15.125000000000005 0 0 1 1022.0550099345537 511.94499006544856" fill = "none" stroke = "#000000" stroke-width = "2" />
    <line x1="1033" y1="501" x2="1043" y2="491" style="stroke:#000000;stroke-width:2" />
    <line x1="1033" y1="479" x2="1043" y2="489" style="stroke:#000000;stroke-width:2" />
    <line x1="579" y1="350" x2="579" y2="113" style="stroke:#000000;stroke-width:2" />
    <line x1="579" y1="113" x2="805" y2="39" style="stroke:#000000;stroke-width:2" />
    <line x1="805" y1="39" x2="944" y2="231" style="stroke:#000000;stroke-width:2" />
    <line x1="944" y1="231" x2="805" y2="423" style="stroke:#000000;stroke-width:2" />
    <line x1="805" y1="423" x2="579" y2="350" style="stroke:#000000;stroke-width:2" />
</svg>