<svg width="1363" height="671" viewbox = "0 0 1363 671"  xmlns="http://www.w3.org/2000/svg">

<!--
<json>
{
    "glyph": "0305,0350,0334,0226,0335,0335,0335,0350,0335,0331,0226,",
    "unit": 100.00000000000001,
    "x0": 400,
    "y0": 350,
    "x0rel": -2.8149999999999995,
    "y0rel": 0.145,
    "imgurl": "",
    "imgw": 2,
    "imgleft": -1,
    "imgtop": -1
}
</json>
-->
    <line x1="495" y1="319" x2="495" y2="219" style="stroke:#000000;stroke-width:4" />
    <line x1="495" y1="219" x2="590" y2="188" style="stroke:#000000;stroke-width:4" />
    <line x1="590" y1="188" x2="649" y2="269" style="stroke:#000000;stroke-width:4" />
    <line x1="649" y1="269" x2="590" y2="350" style="stroke:#000000;stroke-width:4" />
    <line x1="590" y1="350" x2="495" y2="319" style="stroke:#000000;stroke-width:4" />
    <line x1="495" y1="319" x2="590" y2="350" style="stroke:#000000;stroke-width:4" />
    <line x1="590" y1="350" x2="590" y2="450" style="stroke:#000000;stroke-width:4" />
    <line x1="590" y1="450" x2="495" y2="481" style="stroke:#000000;stroke-width:4" />
    <line x1="495" y1="481" x2="436" y2="400" style="stroke:#000000;stroke-width:4" />
    <line x1="436" y1="400" x2="495" y2="319" style="stroke:#000000;stroke-width:4" />
    <line x1="495" y1="319" x2="400" y2="350" style="stroke:#000000;stroke-width:4" />
    <line x1="400" y1="350" x2="341" y2="269" style="stroke:#000000;stroke-width:4" />
    <line x1="341" y1="269" x2="400" y2="188" style="stroke:#000000;stroke-width:4" />
    <line x1="400" y1="188" x2="495" y2="219" style="stroke:#000000;stroke-width:4" />
    <line x1="495" y1="219" x2="495" y2="319" style="stroke:#000000;stroke-width:4" />
    <line x1="495" y1="219" x2="436" y2="138" style="stroke:#000000;stroke-width:4" />
    <line x1="436" y1="138" x2="495" y2="57" style="stroke:#000000;stroke-width:4" />
    <line x1="495" y1="57" x2="590" y2="88" style="stroke:#000000;stroke-width:4" />
    <line x1="590" y1="88" x2="590" y2="188" style="stroke:#000000;stroke-width:4" />
    <line x1="590" y1="188" x2="495" y2="219" style="stroke:#000000;stroke-width:4" />
    <line x1="590" y1="188" x2="649" y2="107" style="stroke:#000000;stroke-width:4" />
    <line x1="649" y1="107" x2="744" y2="138" style="stroke:#000000;stroke-width:4" />
    <line x1="744" y1="138" x2="744" y2="238" style="stroke:#000000;stroke-width:4" />
    <line x1="744" y1="238" x2="649" y2="269" style="stroke:#000000;stroke-width:4" />
    <line x1="649" y1="269" x2="590" y2="188" style="stroke:#000000;stroke-width:4" />
    <line x1="649" y1="269" x2="744" y2="300" style="stroke:#000000;stroke-width:4" />
    <line x1="744" y1="300" x2="744" y2="400" style="stroke:#000000;stroke-width:4" />
    <line x1="744" y1="400" x2="649" y2="431" style="stroke:#000000;stroke-width:4" />
    <line x1="649" y1="431" x2="590" y2="350" style="stroke:#000000;stroke-width:4" />
    <line x1="590" y1="350" x2="649" y2="269" style="stroke:#000000;stroke-width:4" />
    <line x1="839" y1="431" x2="898" y2="350" style="stroke:#000000;stroke-width:4" />
    <line x1="898" y1="350" x2="993" y2="381" style="stroke:#000000;stroke-width:4" />
    <line x1="993" y1="381" x2="993" y2="481" style="stroke:#000000;stroke-width:4" />
    <line x1="993" y1="481" x2="898" y2="512" style="stroke:#000000;stroke-width:4" />
    <line x1="898" y1="512" x2="839" y2="431" style="stroke:#000000;stroke-width:4" />
    <line x1="839" y1="431" x2="898" y2="512" style="stroke:#000000;stroke-width:4" />
    <line x1="898" y1="512" x2="839" y2="593" style="stroke:#000000;stroke-width:4" />
    <line x1="839" y1="593" x2="744" y2="562" style="stroke:#000000;stroke-width:4" />
    <line x1="744" y1="562" x2="744" y2="462" style="stroke:#000000;stroke-width:4" />
    <line x1="744" y1="462" x2="839" y2="431" style="stroke:#000000;stroke-width:4" />
    <line x1="839" y1="431" x2="744" y2="400" style="stroke:#000000;stroke-width:4" />
    <line x1="744" y1="400" x2="744" y2="300" style="stroke:#000000;stroke-width:4" />
    <line x1="744" y1="300" x2="839" y2="269" style="stroke:#000000;stroke-width:4" />
    <line x1="839" y1="269" x2="898" y2="350" style="stroke:#000000;stroke-width:4" />
    <line x1="898" y1="350" x2="839" y2="431" style="stroke:#000000;stroke-width:4" />
    <line x1="898" y1="350" x2="898" y2="250" style="stroke:#000000;stroke-width:4" />
    <line x1="898" y1="250" x2="993" y2="219" style="stroke:#000000;stroke-width:4" />
    <line x1="993" y1="219" x2="1052" y2="300" style="stroke:#000000;stroke-width:4" />
    <line x1="1052" y1="300" x2="993" y2="381" style="stroke:#000000;stroke-width:4" />
    <line x1="993" y1="381" x2="898" y2="350" style="stroke:#000000;stroke-width:4" />
    <line x1="993" y1="381" x2="1088" y2="350" style="stroke:#000000;stroke-width:4" />
    <line x1="1088" y1="350" x2="1147" y2="431" style="stroke:#000000;stroke-width:4" />
    <line x1="1147" y1="431" x2="1088" y2="512" style="stroke:#000000;stroke-width:4" />
    <line x1="1088" y1="512" x2="993" y2="481" style="stroke:#000000;stroke-width:4" />
    <line x1="993" y1="481" x2="993" y2="381" style="stroke:#000000;stroke-width:4" />
    <line x1="993" y1="481" x2="1052" y2="562" style="stroke:#000000;stroke-width:4" />
    <line x1="1052" y1="562" x2="993" y2="643" style="stroke:#000000;stroke-width:4" />
    <line x1="993" y1="643" x2="898" y2="612" style="stroke:#000000;stroke-width:4" />
    <line x1="898" y1="612" x2="898" y2="512" style="stroke:#000000;stroke-width:4" />
    <line x1="898" y1="512" x2="993" y2="481" style="stroke:#000000;stroke-width:4" />
</svg>