<svg width="1363" height="671" viewbox = "0 0 1363 671"  xmlns="http://www.w3.org/2000/svg">

<!--
<json>
{
    "glyph": "0336,0331,0337,0201,0306,0335,0335,0201,0335,0335,0201,0336,0331,0335,0201,0335,0335,0201,0335,0335,0201,0335,0336,0335,0330,0335,0201,0335,0335,0201,0335,0335,0201,0336,0331,0335,0201,0335,0335,0201,0335,0335,0201,0335,0335,0336,0201,0335,0201,0335,0335,0201,0335,0335,0201,0335,0335,0336,0330,0335,0201,0335,0335,0201,0335,0335,0201,",
    "unit": 505.4470284992945,
    "x0": 550,
    "y0": 350,
    "x0rel": -0.26016573960367745,
    "y0rel": 0.02868747699051957,
    "imgurl": "",
    "imgw": 2,
    "imgleft": -1.5,
    "imgtop": -1
}
</json>
-->
    <line x1="550" y1="603" x2="550" y2="97" style="stroke:#000000;stroke-width:2" />
    <line x1="550" y1="97" x2="988" y2="350" style="stroke:#000000;stroke-width:2" />
    <line x1="988" y1="350" x2="550" y2="603" style="stroke:#000000;stroke-width:2" />
    <line x1="769" y1="476" x2="550" y2="350" style="stroke:#000000;stroke-width:2" />
    <line x1="550" y1="350" x2="769" y2="224" style="stroke:#000000;stroke-width:2" />
    <line x1="769" y1="224" x2="769" y2="476" style="stroke:#000000;stroke-width:2" />
    <line x1="659" y1="413" x2="659" y2="287" style="stroke:#000000;stroke-width:2" />
    <line x1="659" y1="287" x2="769" y2="350" style="stroke:#000000;stroke-width:2" />
    <line x1="769" y1="350" x2="659" y2="413" style="stroke:#000000;stroke-width:2" />
    <line x1="714" y1="382" x2="659" y2="350" style="stroke:#000000;stroke-width:2" />
    <line x1="659" y1="350" x2="714" y2="318" style="stroke:#000000;stroke-width:2" />
    <line x1="714" y1="318" x2="714" y2="382" style="stroke:#000000;stroke-width:2" />
    <line x1="714" y1="382" x2="687" y2="366" style="stroke:#000000;stroke-width:2" />
    <line x1="687" y1="366" x2="687" y2="334" style="stroke:#000000;stroke-width:2" />
    <line x1="687" y1="334" x2="714" y2="350" style="stroke:#000000;stroke-width:2" />
    <line x1="714" y1="350" x2="687" y2="366" style="stroke:#000000;stroke-width:2" />
    <line x1="687" y1="350" x2="700" y2="342" style="stroke:#000000;stroke-width:2" />
    <line x1="700" y1="342" x2="700" y2="358" style="stroke:#000000;stroke-width:2" />
    <line x1="700" y1="358" x2="687" y2="350" style="stroke:#000000;stroke-width:2" />
</svg>