<svg width="1363" height="671" viewbox = "0 0 1363 671"  xmlns="http://www.w3.org/2000/svg">

<!--
<json>
{
    "glyph": "0336,0331,0332,0332,0332,0332,0332,0332,0332,0331,0332,0332,0331,01305,01311,01201,01350,01335,01335,01335,01337,01201,01335,01335,01335,01335,01201,01335,01335,01335,01336,0337,0330,0330,0332,0332,0332,0332,0332,0332,0331,0332,0336,0333,0337,0337,0211,0211,0211,0305,0311,0201,0350,0335,0335,0335,0337,0201,0335,0335,0335,0335,0342,",
    "unit": 121.00000000000004,
    "x0": 700,
    "y0": 350,
    "x0rel": 0.152892561983471,
    "y0rel": 0.11983471074380161,
    "imgurl": "",
    "imgw": 2,
    "imgleft": -1,
    "imgtop": -1
}
</json>
-->
    <line x1="216" y1="532" x2="216" y2="471" style="stroke:#000000;stroke-width:2" />
    <line x1="216" y1="471" x2="155" y2="471" style="stroke:#000000;stroke-width:2" />
    <line x1="155" y1="471" x2="155" y2="532" style="stroke:#000000;stroke-width:2" />
    <line x1="155" y1="532" x2="216" y2="532" style="stroke:#000000;stroke-width:2" />
    <line x1="186" y1="501" x2="186" y2="471" style="stroke:#000000;stroke-width:2" />
    <line x1="186" y1="501" x2="215" y2="492" style="stroke:#000000;stroke-width:2" />
    <line x1="186" y1="501" x2="204" y2="526" style="stroke:#000000;stroke-width:2" />
    <line x1="186" y1="501" x2="168" y2="526" style="stroke:#000000;stroke-width:2" />
    <line x1="186" y1="501" x2="157" y2="492" style="stroke:#000000;stroke-width:2" />
    <circle cx="186" cy = "501" r = "30.25000000000001" stroke = "#000000" stroke-width = "2" fill = "none" />
    <circle cx="195" cy = "489" r = "3.7812500000000013" stroke = "#000000" stroke-width = "2" fill = "none" />
    <circle cx="200" cy = "506" r = "3.7812500000000013" stroke = "#000000" stroke-width = "2" fill = "none" />
    <circle cx="186" cy = "516" r = "3.7812500000000013" stroke = "#000000" stroke-width = "2" fill = "none" />
    <circle cx="171" cy = "506" r = "3.7812500000000013" stroke = "#000000" stroke-width = "2" fill = "none" />
    <circle cx="177" cy = "489" r = "3.7812500000000013" stroke = "#000000" stroke-width = "2" fill = "none" />
    <line x1="216" y1="532" x2="277" y2="532" style="stroke:#000000;stroke-width:2" />
    <line x1="216" y1="532" x2="246" y2="438" style="stroke:#000000;stroke-width:2" />
    <line x1="277" y1="532" x2="246" y2="438" style="stroke:#000000;stroke-width:2" />
    <line x1="277" y1="532" x2="277" y2="471" style="stroke:#000000;stroke-width:2" />
    <line x1="277" y1="471" x2="216" y2="471" style="stroke:#000000;stroke-width:2" />
    <line x1="216" y1="471" x2="216" y2="532" style="stroke:#000000;stroke-width:2" />
    <line x1="216" y1="532" x2="277" y2="532" style="stroke:#000000;stroke-width:2" />
    <line x1="277" y1="532" x2="228" y2="496" style="stroke:#000000;stroke-width:2" />
    <line x1="228" y1="496" x2="258" y2="474" style="stroke:#000000;stroke-width:2" />
    <line x1="258" y1="474" x2="239" y2="460" style="stroke:#000000;stroke-width:2" />
    <line x1="337" y1="532" x2="337" y2="471" style="stroke:#000000;stroke-width:2" />
    <line x1="337" y1="471" x2="277" y2="471" style="stroke:#000000;stroke-width:2" />
    <line x1="277" y1="471" x2="277" y2="532" style="stroke:#000000;stroke-width:2" />
    <line x1="277" y1="532" x2="337" y2="532" style="stroke:#000000;stroke-width:2" />
    <line x1="292" y1="501" x2="322" y2="501" style="stroke:#000000;stroke-width:2" />
    <line x1="322" y1="501" x2="317" y2="507" style="stroke:#000000;stroke-width:2" />
    <line x1="322" y1="501" x2="317" y2="496" style="stroke:#000000;stroke-width:2" />
    <line x1="398" y1="532" x2="398" y2="471" style="stroke:#000000;stroke-width:2" />
    <line x1="398" y1="471" x2="337" y2="471" style="stroke:#000000;stroke-width:2" />
    <line x1="337" y1="471" x2="337" y2="532" style="stroke:#000000;stroke-width:2" />
    <line x1="337" y1="532" x2="398" y2="532" style="stroke:#000000;stroke-width:2" />
    <line x1="367" y1="501" x2="389" y2="480" style="stroke:#000000;stroke-width:2" />
    <line x1="367" y1="501" x2="389" y2="523" style="stroke:#000000;stroke-width:2" />
    <line x1="367" y1="501" x2="375" y2="501" style="stroke:#000000;stroke-width:2" />
    <line x1="382" y1="501" x2="390" y2="501" style="stroke:#000000;stroke-width:2" />
    <line x1="458" y1="532" x2="458" y2="471" style="stroke:#000000;stroke-width:2" />
    <line x1="458" y1="471" x2="398" y2="471" style="stroke:#000000;stroke-width:2" />
    <line x1="398" y1="471" x2="398" y2="532" style="stroke:#000000;stroke-width:2" />
    <line x1="398" y1="532" x2="458" y2="532" style="stroke:#000000;stroke-width:2" />
  <path d="M417.0550099345535 490.5550099345534           A15.125000000000005 15.125000000000005 0 0 1 438.4449900654465 490.5550099345535" fill = "none" stroke = "#000000" stroke-width = "2" />
  <path d="M417.0550099345535 511.9449900654465           A15.125000000000005 15.125000000000005 0 0 1 417.0550099345535 490.5550099345534" fill = "none" stroke = "#000000" stroke-width = "2" />
  <path d="M438.4449900654466 511.9449900654465           A15.125000000000005 15.125000000000005 0 0 1 417.0550099345535 511.9449900654465" fill = "none" stroke = "#000000" stroke-width = "2" />
    <line x1="428" y1="501" x2="438" y2="491" style="stroke:#000000;stroke-width:2" />
    <line x1="428" y1="479" x2="438" y2="489" style="stroke:#000000;stroke-width:2" />
    <line x1="519" y1="531" x2="518" y2="471" style="stroke:#000000;stroke-width:2" />
    <line x1="518" y1="471" x2="458" y2="471" style="stroke:#000000;stroke-width:2" />
    <line x1="458" y1="471" x2="458" y2="532" style="stroke:#000000;stroke-width:2" />
    <line x1="458" y1="532" x2="519" y2="532" style="stroke:#000000;stroke-width:2" />
  <path d="M477.5550099345534 490.55500993455354           A15.125000000000005 15.125000000000005 0 0 1 498.9449900654465 490.55500993455354" fill = "none" stroke = "#000000" stroke-width = "2" />
  <path d="M477.5550099345535 511.94499006544663           A15.125000000000005 15.125000000000005 0 0 1 477.5550099345534 490.55500993455354" fill = "none" stroke = "#000000" stroke-width = "2" />
  <path d="M498.9449900654466 511.9449900654465           A15.125000000000005 15.125000000000005 0 0 1 477.5550099345535 511.94499006544663" fill = "none" stroke = "#000000" stroke-width = "2" />
    <line x1="488" y1="501" x2="499" y2="491" style="stroke:#000000;stroke-width:2" />
    <line x1="488" y1="479" x2="499" y2="489" style="stroke:#000000;stroke-width:2" />
    <line x1="579" y1="531" x2="579" y2="471" style="stroke:#000000;stroke-width:2" />
    <line x1="579" y1="471" x2="518" y2="471" style="stroke:#000000;stroke-width:2" />
    <line x1="518" y1="471" x2="519" y2="532" style="stroke:#000000;stroke-width:2" />
    <line x1="519" y1="532" x2="579" y2="531" style="stroke:#000000;stroke-width:2" />
  <path d="M538.0550099345531 490.5550099345536           A15.125000000000005 15.125000000000005 0 0 1 559.4449900654462 490.5550099345534" fill = "none" stroke = "#000000" stroke-width = "2" />
  <path d="M538.0550099345534 511.9449900654467           A15.125000000000005 15.125000000000005 0 0 1 538.0550099345531 490.5550099345536" fill = "none" stroke = "#000000" stroke-width = "2" />
  <path d="M559.4449900654464 511.94499006544646           A15.125000000000005 15.125000000000005 0 0 1 538.0550099345534 511.9449900654467" fill = "none" stroke = "#000000" stroke-width = "2" />
    <line x1="549" y1="501" x2="559" y2="491" style="stroke:#000000;stroke-width:2" />
    <line x1="549" y1="479" x2="559" y2="489" style="stroke:#000000;stroke-width:2" />
    <line x1="639" y1="531" x2="639" y2="471" style="stroke:#000000;stroke-width:2" />
    <line x1="639" y1="471" x2="579" y2="471" style="stroke:#000000;stroke-width:2" />
    <line x1="579" y1="471" x2="579" y2="532" style="stroke:#000000;stroke-width:2" />
    <line x1="579" y1="532" x2="640" y2="531" style="stroke:#000000;stroke-width:2" />
    <line x1="609" y1="501" x2="609" y2="486" style="stroke:#000000;stroke-width:2" />
    <line x1="609" y1="501" x2="594" y2="501" style="stroke:#000000;stroke-width:2" />
    <line x1="609" y1="501" x2="609" y2="516" style="stroke:#000000;stroke-width:2" />
    <line x1="609" y1="501" x2="624" y2="501" style="stroke:#000000;stroke-width:2" />
    <line x1="700" y1="531" x2="700" y2="471" style="stroke:#000000;stroke-width:2" />
    <line x1="700" y1="471" x2="639" y2="471" style="stroke:#000000;stroke-width:2" />
    <line x1="639" y1="471" x2="640" y2="531" style="stroke:#000000;stroke-width:2" />
    <line x1="640" y1="531" x2="700" y2="531" style="stroke:#000000;stroke-width:2" />
    <line x1="655" y1="501" x2="685" y2="501" style="stroke:#000000;stroke-width:2" />
    <line x1="685" y1="501" x2="680" y2="507" style="stroke:#000000;stroke-width:2" />
    <line x1="685" y1="501" x2="680" y2="496" style="stroke:#000000;stroke-width:2" />
    <line x1="761" y1="531" x2="760" y2="471" style="stroke:#000000;stroke-width:2" />
    <line x1="760" y1="471" x2="700" y2="471" style="stroke:#000000;stroke-width:2" />
    <line x1="700" y1="471" x2="700" y2="531" style="stroke:#000000;stroke-width:2" />
    <line x1="700" y1="531" x2="761" y2="531" style="stroke:#000000;stroke-width:2" />
  <path d="M719.5550099345528 490.5550099345509           A15.125000000000005 15.125000000000005 0 0 1 740.9449900654458 490.55500993455" fill = "none" stroke = "#000000" stroke-width = "2" />
  <path d="M719.5550099345536 511.94499006544396           A15.125000000000005 15.125000000000005 0 0 1 719.5550099345528 490.5550099345509" fill = "none" stroke = "#000000" stroke-width = "2" />
  <path d="M740.9449900654466 511.9449900654433           A15.125000000000005 15.125000000000005 0 0 1 719.5550099345536 511.94499006544396" fill = "none" stroke = "#000000" stroke-width = "2" />
    <line x1="730" y1="501" x2="741" y2="491" style="stroke:#000000;stroke-width:2" />
    <line x1="730" y1="479" x2="741" y2="489" style="stroke:#000000;stroke-width:2" />
    <line x1="821" y1="531" x2="821" y2="471" style="stroke:#000000;stroke-width:2" />
    <line x1="821" y1="471" x2="760" y2="471" style="stroke:#000000;stroke-width:2" />
    <line x1="760" y1="471" x2="761" y2="531" style="stroke:#000000;stroke-width:2" />
    <line x1="761" y1="531" x2="821" y2="531" style="stroke:#000000;stroke-width:2" />
  <path d="M780.0550099345531 490.55500993454916           A15.125000000000005 15.125000000000005 0 0 1 801.4449900654462 490.5550099345484" fill = "none" stroke = "#000000" stroke-width = "2" />
  <path d="M780.0550099345537 511.94499006544214           A15.125000000000005 15.125000000000005 0 0 1 780.0550099345531 490.55500993454916" fill = "none" stroke = "#000000" stroke-width = "2" />
  <path d="M801.4449900654467 511.94499006544163           A15.125000000000005 15.125000000000005 0 0 1 780.0550099345537 511.94499006544214" fill = "none" stroke = "#000000" stroke-width = "2" />
    <line x1="791" y1="501" x2="801" y2="491" style="stroke:#000000;stroke-width:2" />
    <line x1="791" y1="479" x2="801" y2="489" style="stroke:#000000;stroke-width:2" />
    <line x1="882" y1="531" x2="881" y2="471" style="stroke:#000000;stroke-width:2" />
    <line x1="881" y1="471" x2="821" y2="471" style="stroke:#000000;stroke-width:2" />
    <line x1="821" y1="471" x2="821" y2="531" style="stroke:#000000;stroke-width:2" />
    <line x1="821" y1="531" x2="882" y2="531" style="stroke:#000000;stroke-width:2" />
  <path d="M840.5550099345533 490.5550099345478           A15.125000000000005 15.125000000000005 0 0 1 861.9449900654463 490.55500993454723" fill = "none" stroke = "#000000" stroke-width = "2" />
  <path d="M840.5550099345538 511.94499006544083           A15.125000000000005 15.125000000000005 0 0 1 840.5550099345533 490.5550099345478" fill = "none" stroke = "#000000" stroke-width = "2" />
  <path d="M861.9449900654467 511.9449900654405           A15.125000000000005 15.125000000000005 0 0 1 840.5550099345538 511.94499006544083" fill = "none" stroke = "#000000" stroke-width = "2" />
    <line x1="851" y1="501" x2="862" y2="491" style="stroke:#000000;stroke-width:2" />
    <line x1="851" y1="479" x2="862" y2="489" style="stroke:#000000;stroke-width:2" />
    <line x1="942" y1="531" x2="942" y2="471" style="stroke:#000000;stroke-width:2" />
    <line x1="942" y1="471" x2="881" y2="471" style="stroke:#000000;stroke-width:2" />
    <line x1="881" y1="471" x2="882" y2="531" style="stroke:#000000;stroke-width:2" />
    <line x1="882" y1="531" x2="942" y2="531" style="stroke:#000000;stroke-width:2" />
  <path d="M901.0550099345536 490.5550099345467           A15.125000000000005 15.125000000000005 0 0 1 922.4449900654466 490.55500993454626" fill = "none" stroke = "#000000" stroke-width = "2" />
  <path d="M901.0550099345539 511.94499006543975           A15.125000000000005 15.125000000000005 0 0 1 901.0550099345536 490.5550099345467" fill = "none" stroke = "#000000" stroke-width = "2" />
  <path d="M922.444990065447 511.9449900654395           A15.125000000000005 15.125000000000005 0 0 1 901.0550099345539 511.94499006543975" fill = "none" stroke = "#000000" stroke-width = "2" />
    <line x1="912" y1="501" x2="922" y2="491" style="stroke:#000000;stroke-width:2" />
    <line x1="912" y1="479" x2="922" y2="489" style="stroke:#000000;stroke-width:2" />
    <line x1="1003" y1="531" x2="1003" y2="471" style="stroke:#000000;stroke-width:2" />
    <line x1="1003" y1="471" x2="942" y2="471" style="stroke:#000000;stroke-width:2" />
    <line x1="942" y1="471" x2="942" y2="531" style="stroke:#000000;stroke-width:2" />
    <line x1="942" y1="531" x2="1003" y2="531" style="stroke:#000000;stroke-width:2" />
    <line x1="957" y1="501" x2="987" y2="501" style="stroke:#000000;stroke-width:2" />
    <line x1="987" y1="501" x2="982" y2="507" style="stroke:#000000;stroke-width:2" />
    <line x1="987" y1="501" x2="982" y2="496" style="stroke:#000000;stroke-width:2" />
    <line x1="1063" y1="531" x2="1063" y2="471" style="stroke:#000000;stroke-width:2" />
    <line x1="1063" y1="471" x2="1003" y2="471" style="stroke:#000000;stroke-width:2" />
    <line x1="1003" y1="471" x2="1003" y2="531" style="stroke:#000000;stroke-width:2" />
    <line x1="1003" y1="531" x2="1063" y2="531" style="stroke:#000000;stroke-width:2" />
  <path d="M1022.0550099345546 490.5550099345445           A15.125000000000005 15.125000000000005 0 0 1 1043.4449900654477 490.5550099345445" fill = "none" stroke = "#000000" stroke-width = "2" />
  <path d="M1022.0550099345545 511.94499006543754           A15.125000000000005 15.125000000000005 0 0 1 1022.0550099345546 490.5550099345445" fill = "none" stroke = "#000000" stroke-width = "2" />
  <path d="M1043.4449900654474 511.94499006543776           A15.125000000000005 15.125000000000005 0 0 1 1022.0550099345545 511.94499006543754" fill = "none" stroke = "#000000" stroke-width = "2" />
    <line x1="1033" y1="501" x2="1043" y2="491" style="stroke:#000000;stroke-width:2" />
    <line x1="1033" y1="479" x2="1043" y2="489" style="stroke:#000000;stroke-width:2" />
    <line x1="1124" y1="531" x2="1124" y2="471" style="stroke:#000000;stroke-width:2" />
    <line x1="1124" y1="471" x2="1063" y2="471" style="stroke:#000000;stroke-width:2" />
    <line x1="1063" y1="471" x2="1063" y2="531" style="stroke:#000000;stroke-width:2" />
    <line x1="1063" y1="531" x2="1124" y2="531" style="stroke:#000000;stroke-width:2" />
  <path d="M1082.5550099345553 490.5550099345444           A15.125000000000005 15.125000000000005 0 0 1 1103.9449900654483 490.55500993454484" fill = "none" stroke = "#000000" stroke-width = "2" />
  <path d="M1082.5550099345546 511.9449900654374           A15.125000000000005 15.125000000000005 0 0 1 1082.5550099345553 490.5550099345444" fill = "none" stroke = "#000000" stroke-width = "2" />
  <path d="M1103.9449900654477 511.9449900654381           A15.125000000000005 15.125000000000005 0 0 1 1082.5550099345546 511.9449900654374" fill = "none" stroke = "#000000" stroke-width = "2" />
    <line x1="1093" y1="501" x2="1104" y2="491" style="stroke:#000000;stroke-width:2" />
    <line x1="1093" y1="479" x2="1104" y2="489" style="stroke:#000000;stroke-width:2" />
    <line x1="1184" y1="531" x2="1184" y2="471" style="stroke:#000000;stroke-width:2" />
    <line x1="1184" y1="471" x2="1124" y2="471" style="stroke:#000000;stroke-width:2" />
    <line x1="1124" y1="471" x2="1124" y2="531" style="stroke:#000000;stroke-width:2" />
    <line x1="1124" y1="531" x2="1184" y2="531" style="stroke:#000000;stroke-width:2" />
  <path d="M1143.055009934556 490.5550099345456           A15.125000000000005 15.125000000000005 0 0 1 1164.444990065449 490.55500993454655" fill = "none" stroke = "#000000" stroke-width = "2" />
  <path d="M1143.0550099345548 511.94499006543856           A15.125000000000005 15.125000000000005 0 0 1 1143.055009934556 490.5550099345456" fill = "none" stroke = "#000000" stroke-width = "2" />
  <path d="M1164.4449900654479 511.94499006543975           A15.125000000000005 15.125000000000005 0 0 1 1143.0550099345548 511.94499006543856" fill = "none" stroke = "#000000" stroke-width = "2" />
    <line x1="1154" y1="501" x2="1164" y2="491" style="stroke:#000000;stroke-width:2" />
    <line x1="1154" y1="479" x2="1164" y2="489" style="stroke:#000000;stroke-width:2" />
    <line x1="1245" y1="531" x2="1245" y2="471" style="stroke:#000000;stroke-width:2" />
    <line x1="1245" y1="471" x2="1184" y2="471" style="stroke:#000000;stroke-width:2" />
    <line x1="1184" y1="471" x2="1184" y2="531" style="stroke:#000000;stroke-width:2" />
    <line x1="1184" y1="531" x2="1245" y2="531" style="stroke:#000000;stroke-width:2" />
    <line x1="1229" y1="501" x2="1199" y2="501" style="stroke:#000000;stroke-width:2" />
    <line x1="458" y1="410" x2="458" y2="48" style="stroke:#000000;stroke-width:2" />
    <line x1="458" y1="48" x2="1016" y2="229" style="stroke:#000000;stroke-width:2" />
    <line x1="1016" y1="229" x2="458" y2="410" style="stroke:#000000;stroke-width:2" />
</svg>