<svg width="1366" height="672" viewbox = "0 0 1366 672"  xmlns="http://www.w3.org/2000/svg">

<!--
<json>
{
    "glyph": "0334,0230,0230,0230,0230,",
    "unit": 417.7248169415656,
    "x0": 900,
    "y0": 650,
    "x0rel": 0.5194807471310845,
    "y0rel": 0.7516910350191729,
    "imgurl": "",
    "imgw": 2,
    "imgleft": -1,
    "imgtop": -1
}
</json>
-->
    <line x1="900" y1="650" x2="482" y2="650" style="stroke:#000000;stroke-width:4" />
    <line x1="482" y1="650" x2="353" y2="253" style="stroke:#000000;stroke-width:4" />
    <line x1="353" y1="253" x2="691" y2="7" style="stroke:#000000;stroke-width:4" />
    <line x1="691" y1="7" x2="1029" y2="253" style="stroke:#000000;stroke-width:4" />
    <line x1="1029" y1="253" x2="900" y2="650" style="stroke:#000000;stroke-width:4" />
    <line x1="900" y1="650" x2="691" y2="7" style="stroke:#000000;stroke-width:4" />
    <line x1="691" y1="7" x2="482" y2="650" style="stroke:#000000;stroke-width:4" />
    <line x1="482" y1="650" x2="1029" y2="253" style="stroke:#000000;stroke-width:4" />
    <line x1="1029" y1="253" x2="353" y2="253" style="stroke:#000000;stroke-width:4" />
    <line x1="353" y1="253" x2="900" y2="650" style="stroke:#000000;stroke-width:4" />
    <line x1="820" y1="404" x2="691" y2="498" style="stroke:#000000;stroke-width:4" />
    <line x1="691" y1="498" x2="562" y2="404" style="stroke:#000000;stroke-width:4" />
    <line x1="562" y1="404" x2="611" y2="253" style="stroke:#000000;stroke-width:4" />
    <line x1="611" y1="253" x2="771" y2="253" style="stroke:#000000;stroke-width:4" />
    <line x1="771" y1="253" x2="820" y2="404" style="stroke:#000000;stroke-width:4" />
    <line x1="820" y1="404" x2="611" y2="253" style="stroke:#000000;stroke-width:4" />
    <line x1="611" y1="253" x2="691" y2="498" style="stroke:#000000;stroke-width:4" />
    <line x1="691" y1="498" x2="771" y2="253" style="stroke:#000000;stroke-width:4" />
    <line x1="771" y1="253" x2="562" y2="404" style="stroke:#000000;stroke-width:4" />
    <line x1="562" y1="404" x2="820" y2="404" style="stroke:#000000;stroke-width:4" />
    <line x1="740" y1="347" x2="722" y2="404" style="stroke:#000000;stroke-width:4" />
    <line x1="722" y1="404" x2="661" y2="404" style="stroke:#000000;stroke-width:4" />
    <line x1="661" y1="404" x2="642" y2="347" style="stroke:#000000;stroke-width:4" />
    <line x1="642" y1="347" x2="691" y2="311" style="stroke:#000000;stroke-width:4" />
    <line x1="691" y1="311" x2="740" y2="347" style="stroke:#000000;stroke-width:4" />
    <line x1="740" y1="347" x2="642" y2="347" style="stroke:#000000;stroke-width:4" />
    <line x1="642" y1="347" x2="722" y2="404" style="stroke:#000000;stroke-width:4" />
    <line x1="722" y1="404" x2="691" y2="311" style="stroke:#000000;stroke-width:4" />
    <line x1="691" y1="311" x2="661" y2="404" style="stroke:#000000;stroke-width:4" />
    <line x1="661" y1="404" x2="740" y2="347" style="stroke:#000000;stroke-width:4" />
    <line x1="703" y1="347" x2="710" y2="369" style="stroke:#000000;stroke-width:4" />
    <line x1="710" y1="369" x2="691" y2="382" style="stroke:#000000;stroke-width:4" />
    <line x1="691" y1="382" x2="672" y2="369" style="stroke:#000000;stroke-width:4" />
    <line x1="672" y1="369" x2="679" y2="347" style="stroke:#000000;stroke-width:4" />
    <line x1="679" y1="347" x2="703" y2="347" style="stroke:#000000;stroke-width:4" />
    <line x1="703" y1="347" x2="672" y2="369" style="stroke:#000000;stroke-width:4" />
    <line x1="672" y1="369" x2="710" y2="369" style="stroke:#000000;stroke-width:4" />
    <line x1="710" y1="369" x2="679" y2="347" style="stroke:#000000;stroke-width:4" />
    <line x1="679" y1="347" x2="691" y2="382" style="stroke:#000000;stroke-width:4" />
    <line x1="691" y1="382" x2="703" y2="347" style="stroke:#000000;stroke-width:4" />
</svg>