<svg width="1363" height="671" viewbox = "0 0 1363 671"  xmlns="http://www.w3.org/2000/svg">

<!--
<json>
{
    "glyph": "0335,0337,0337,0342,0335,0335,0342,0335,0336,0336,0340,0341,0333,0340,0341,0337,0341,0332,0341,0336,0333,0337,0342,0336,0330,0340,0341,0335,0201,0340,0335,0201,0340,0335,0335,0332,0333,0326,0200,",
    "unit": 121.00000000000004,
    "x0": 700,
    "y0": 300,
    "x0rel": 0.152892561983471,
    "y0rel": -0.293388429752066,
    "imgurl": "",
    "imgw": 2,
    "imgleft": -1,
    "imgtop": -1
}
</json>
-->
    <line x1="700" y1="300" x2="1184" y2="300" style="stroke:#000000;stroke-width:2" />
    <line x1="700" y1="300" x2="216" y2="300" style="stroke:#000000;stroke-width:2" />
<circle cx="700" cy = "300" r = "3" stroke = "#000000" stroke-width = "2" fill = "#000000" />
    <circle cx="700" cy = "300" r = "121.00000000000004" stroke = "#000000" stroke-width = "2" fill = "none" />
<circle cx="821" cy = "300" r = "3" stroke = "#000000" stroke-width = "2" fill = "#000000" />
    <circle cx="821" cy = "300" r = "121.00000000000004" stroke = "#000000" stroke-width = "2" fill = "none" />
    <circle cx="821" cy = "300" r = "242.00000000000009" stroke = "#000000" stroke-width = "2" fill = "none" />
    <circle cx="579" cy = "300" r = "242.00000000000009" stroke = "#000000" stroke-width = "2" fill = "none" />
    <line x1="700" y1="300" x2="700" y2="58" style="stroke:#000000;stroke-width:2" />
<circle cx="700" cy = "179" r = "3" stroke = "#000000" stroke-width = "2" fill = "#000000" />
    <circle cx="700" cy = "179" r = "121.00000000000004" stroke = "#000000" stroke-width = "2" fill = "none" />
    <line x1="700" y1="179" x2="821" y2="179" style="stroke:#000000;stroke-width:2" />
<circle cx="821" cy = "179" r = "3" stroke = "#000000" stroke-width = "2" fill = "#000000" />
    <line x1="821" y1="179" x2="821" y2="300" style="stroke:#000000;stroke-width:2" />
<circle cx="821" cy = "300" r = "3" stroke = "#000000" stroke-width = "2" fill = "#000000" />
    <line x1="821" y1="300" x2="821" y2="179" style="stroke:blue;stroke-width:2" />
    <line x1="821" y1="179" x2="700" y2="179" style="stroke:blue;stroke-width:2" />
    <line x1="700" y1="179" x2="700" y2="300" style="stroke:blue;stroke-width:2" />
    <line x1="700" y1="300" x2="821" y2="300" style="stroke:blue;stroke-width:2" />
</svg>