<svg width="1363" height="671" viewbox = "0 0 1363 671"  xmlns="http://www.w3.org/2000/svg">

<!--
<json>
{
    "glyph": "0335,0220,0330,0220,0330,0220,0335,0330,0335,0335,0201,0201,0335,0335,0330,0335,0334,0220,0333,0335,0330,0335,0335,0330,0335,0335,0331,0335,0330,0334,0342,0334,0342,0335,0335,0335,0331,0331,0220,",
    "unit": 235.79476910000022,
    "x0": 250,
    "y0": 250,
    "x0rel": -1.8299812232772708,
    "y0rel": -0.36260346370847424,
    "imgurl": "",
    "imgw": 2,
    "imgleft": -1,
    "imgtop": -1
}
</json>
-->
    <line x1="250" y1="250" x2="486" y2="250" style="stroke:#000000;stroke-width:4" />
    <line x1="486" y1="250" x2="368" y2="454" style="stroke:#000000;stroke-width:4" />
    <line x1="368" y1="454" x2="250" y2="250" style="stroke:#000000;stroke-width:4" />
    <line x1="486" y1="250" x2="722" y2="250" style="stroke:#000000;stroke-width:4" />
    <line x1="722" y1="250" x2="604" y2="454" style="stroke:#000000;stroke-width:4" />
    <line x1="604" y1="454" x2="486" y2="250" style="stroke:#000000;stroke-width:4" />
    <line x1="722" y1="250" x2="957" y2="250" style="stroke:#000000;stroke-width:4" />
    <line x1="957" y1="250" x2="839" y2="454" style="stroke:#000000;stroke-width:4" />
    <line x1="839" y1="454" x2="722" y2="250" style="stroke:#000000;stroke-width:4" />
    <line x1="839" y1="454" x2="604" y2="454" style="stroke:#000000;stroke-width:4" />
    <line x1="604" y1="454" x2="368" y2="454" style="stroke:#000000;stroke-width:4" />
    <line x1="486" y1="250" x2="604" y2="46" style="stroke:#000000;stroke-width:4" />
    <line x1="604" y1="46" x2="722" y2="250" style="stroke:#000000;stroke-width:4" />
    <line x1="722" y1="250" x2="486" y2="250" style="stroke:#000000;stroke-width:4" />
    <line x1="1075" y1="454" x2="957" y2="250" style="stroke:#000000;stroke-width:4" />
    <line x1="1075" y1="454" x2="839" y2="454" style="stroke:#000000;stroke-width:4" />
    <line x1="604" y1="454" x2="839" y2="454" style="stroke:#000000;stroke-width:4" />
    <line x1="839" y1="454" x2="722" y2="658" style="stroke:#000000;stroke-width:4" />
    <line x1="722" y1="658" x2="604" y2="454" style="stroke:#000000;stroke-width:4" />
</svg>