<svg width="1363" height="671" viewbox = "0 0 1363 671"  xmlns="http://www.w3.org/2000/svg">

<!--
<json>
{
    "glyph": "0335,0221,0335,0335,0350,0334,0220,0330,0305,0334,0220,0330,0305,0334,0220,0330,0305,0334,0220,0330,0305,0334,0220,",
    "unit": 194.87171000000015,
    "x0": 600,
    "y0": 200,
    "x0rel": -0.41822386635802566,
    "y0rel": -0.6953292502026072,
    "imgurl": "",
    "imgw": 2,
    "imgleft": -1,
    "imgtop": -1
}
</json>
-->
    <line x1="600" y1="200" x2="795" y2="200" style="stroke:#000000;stroke-width:4" />
    <line x1="795" y1="200" x2="855" y2="385" style="stroke:#000000;stroke-width:4" />
    <line x1="855" y1="385" x2="697" y2="500" style="stroke:#000000;stroke-width:4" />
    <line x1="697" y1="500" x2="540" y2="385" style="stroke:#000000;stroke-width:4" />
    <line x1="540" y1="385" x2="600" y2="200" style="stroke:#000000;stroke-width:4" />
    <line x1="600" y1="200" x2="540" y2="385" style="stroke:#000000;stroke-width:4" />
    <line x1="540" y1="385" x2="409" y2="241" style="stroke:#000000;stroke-width:4" />
    <line x1="409" y1="241" x2="600" y2="200" style="stroke:#000000;stroke-width:4" />
    <line x1="540" y1="385" x2="697" y2="500" style="stroke:#000000;stroke-width:4" />
    <line x1="697" y1="500" x2="519" y2="579" style="stroke:#000000;stroke-width:4" />
    <line x1="519" y1="579" x2="540" y2="385" style="stroke:#000000;stroke-width:4" />
    <line x1="697" y1="500" x2="855" y2="385" style="stroke:#000000;stroke-width:4" />
    <line x1="855" y1="385" x2="875" y2="579" style="stroke:#000000;stroke-width:4" />
    <line x1="875" y1="579" x2="697" y2="500" style="stroke:#000000;stroke-width:4" />
    <line x1="855" y1="385" x2="795" y2="200" style="stroke:#000000;stroke-width:4" />
    <line x1="795" y1="200" x2="985" y2="241" style="stroke:#000000;stroke-width:4" />
    <line x1="985" y1="241" x2="855" y2="385" style="stroke:#000000;stroke-width:4" />
    <line x1="795" y1="200" x2="600" y2="200" style="stroke:#000000;stroke-width:4" />
    <line x1="600" y1="200" x2="697" y2="31" style="stroke:#000000;stroke-width:4" />
    <line x1="697" y1="31" x2="795" y2="200" style="stroke:#000000;stroke-width:4" />
</svg>